<svg width="1378" height="766" viewBox="0 0 1378 766" fill="none" xmlns="http://www.w3.org/2000/svg">
<path d="M22.6999 633.9C198.9 633.9 375 633.9 551.2 633.9C726.5 633.9 901.8 633.9 1077 633.9C1175.9 633.9 1274.7 633.9 1373.6 633.9C1375.5 633.9 1375.5 630.9 1373.6 630.9C1197.4 630.9 1021.3 630.9 845.1 630.9C669.8 630.9 494.5 630.9 319.3 630.9C220.4 630.9 121.6 630.9 22.6999 630.9C20.7999 630.9 20.7999 633.9 22.6999 633.9Z" fill="#E8E8E8"/>
<path d="M395.6 629.7C385.4 625 376.7 617.5 370.9 607.8C368.2 603.3 365.9 598.2 364.7 593.1C363.6 588 365.6 582.8 371.6 583.6C375.5 584.1 378.6 586.7 381.4 589.1C382 588.3 382.6 587.5 383.2 586.7C376.7 582.5 371.6 576.7 368.5 569.6C366.4 564.7 361.5 549.2 369.9 547.7C370.9 547.5 371.2 546.3 370.8 545.5C362.8 529 360.9 510.6 359.2 492.6C358.4 484 357.6 473.6 364.3 467C372.2 459 383.1 464.6 389.7 471.4C402 484.1 408.4 502.2 414.9 518.3C421.7 535.2 427.6 552.4 431.9 570C436.8 590.4 439.4 611.3 438.3 632.2C438.2 634.1 441.2 634.1 441.3 632.2C443.5 589.4 430.6 547.9 414.3 508.9C407.6 492.9 400 472.3 384.2 463.1C378.1 459.6 370.7 458.6 364.7 462.8C358.6 467.1 356.3 474.7 355.9 481.8C355.4 492.7 357.3 504.2 359 514.9C360.7 526 363.5 536.9 368.4 547C368.7 546.3 369 545.5 369.3 544.8C360.5 546.4 362.3 559.1 364 565.2C366.7 575.2 373.2 583.7 381.9 589.3C383.3 590.2 385 588 383.7 586.9C378.9 582.9 372.8 578.4 366.3 581.3C359.4 584.4 361.3 592.4 363.3 598.1C368.5 613.2 379.9 625.6 394.3 632.2C395.8 633.1 397.4 630.5 395.6 629.7Z" fill="#E8E8E8"/>
<path d="M427.5 542.7C424.3 518.8 425.3 495.4 432.8 472.4C436.4 461.3 440.2 450.3 443.9 439.3C446.9 430.4 452.2 413.9 464.9 421.6C474 427.1 475.7 441.7 477.8 451.2C480.4 462.8 482.2 474.5 483.3 486.4C485.4 508.8 485.1 531.5 482.7 553.9C479.9 580.3 474.4 606.4 466.9 631.8C466.4 633.7 469.2 634.4 469.8 632.6C484.3 583.3 491.6 531.2 485.6 480C484.2 467.6 482 455.3 479 443.3C476.7 434.3 474.3 423 465.2 418.4C457.7 414.7 450.5 418.3 446.5 425.1C444.2 429 442.9 433.5 441.4 437.7C439.2 444.3 437 450.8 434.8 457.4C430.4 470.6 425.7 483.6 423.9 497.5C422 512.5 422.6 527.7 424.6 542.7C424.7 544.6 427.7 544.6 427.5 542.7Z" fill="#E8E8E8"/>
<path d="M367.4 465.1C396.2 516.4 418.9 572.2 424.1 631.4C424.3 633.3 427.3 633.3 427.1 631.4C421.8 571.7 399.1 515.5 370 463.6C369.1 461.9 366.5 463.4 367.4 465.1Z" fill="#E8E8E8"/>
<path d="M459.2 420.2C461.6 437.7 460.7 455.4 460 473C459.3 490.3 458.6 507.6 457.9 525C456.5 560.2 455.6 595.7 449.1 630.4C448.8 632.3 451.6 633.1 452 631.2C458.5 596.2 459.5 560.5 460.9 525C461.6 507 462.4 489 463.1 471.1C463.8 453.9 464.5 436.6 462.1 419.5C461.9 417.5 459 418.4 459.2 420.2Z" fill="#E8E8E8"/>
<path d="M430.5 470.7C443.2 487.8 452.3 507.2 457.1 527.9C457.5 529.8 460.4 529 460 527.1C455.1 506.1 446 486.4 433.1 469.1C432 467.6 429.4 469.1 430.5 470.7Z" fill="#E8E8E8"/>
<path d="M478.2 449.9C470.1 464.6 463.7 480.1 459 496.3C458.5 498.2 461.4 499 461.9 497.1C466.5 481.2 472.9 465.9 480.8 451.4C481.7 449.8 479.1 448.2 478.2 449.9Z" fill="#E8E8E8"/>
<path d="M369.6 547.4C390.7 556 408.2 571.7 419.3 591.6C420.2 593.3 422.8 591.8 421.9 590.1C410.4 569.5 392.2 553.5 370.4 544.6C368.6 543.7 367.9 546.6 369.6 547.4Z" fill="#E8E8E8"/>
<path d="M397.8 479.9C396 497 396.8 514.1 400 531C400.4 532.9 403.3 532.1 402.9 530.2C399.8 513.6 399.1 496.7 400.8 479.9C401 478 398 478 397.8 479.9Z" fill="#E8E8E8"/>
<path d="M41.1001 630.3C38.8001 623.6 37.1001 616.6 36.3001 609.5C36.0001 606.5 35.8001 603.5 35.8001 600.4C35.8001 598.8 35.5001 596.5 35.9001 595C35.9001 594.4 36.0001 593.8 36.0001 593.2C37.9001 591.8 39.5001 592 40.8001 593.7C41.7001 594.5 43.5001 594 43.4001 592.6C43.1001 588.5 43.1001 584.4 43.6001 580.3C43.9001 578.3 44.2001 576.3 44.7001 574.4C44.9001 573.7 47.3001 566.9 47.5001 567.2C48.2001 568.2 49.9001 568.2 50.2001 566.8C54.5001 549.1 62.2001 532.6 71.6001 517.1C74.0001 513.1 76.6001 509.1 79.2001 505.2C82.1001 500.9 86.9001 494.1 91.3001 501.6C95.8001 509.2 97.1001 520.3 97.5001 529C98.5001 547.4 94.3001 565.7 88.4001 583C82.7001 599.9 75.6001 616.8 63.4001 630.1C62.1001 631.5 64.2001 633.6 65.5001 632.2C76.1001 620.7 82.8001 606.6 88.3001 592.1C94.1001 576.6 98.8001 560.5 100.2 544C100.9 536 100.8 527.9 99.6001 519.9C98.6001 513 97.1001 504.2 92.8001 498.4C83.9001 486.6 73.6001 508.1 69.9001 514.1C59.9001 530.3 51.8001 547.5 47.3001 566C48.2001 565.9 49.1001 565.8 50.0001 565.6C47.5001 562.3 44.4001 565.6 43.3001 568.4C40.2001 575.9 39.6001 584.6 40.3001 592.5C41.2001 592.1 42.0001 591.8 42.9001 591.4C41.0001 589.7 37.9001 587.5 35.2001 588.8C32.4001 590.2 32.8001 594 32.8001 596.6C32.5001 608.3 34.4001 619.8 38.2001 630.9C38.8001 632.9 41.7001 632.1 41.1001 630.3Z" fill="#E8E8E8"/>
<path d="M87.3 498.2C83.9 521.8 78.2 545 70.1 567.4C62.6 588.4 50 608.7 47.2 631.1C47 633 50 633 50.2 631.1C51.7 619.2 56.3 608.2 61.1 597.4C65.6 587.2 69.9 576.9 73.6 566.4C81.3 544.5 86.8 521.9 90.1 498.9C90.4 497.1 87.5 496.3 87.3 498.2Z" fill="#E8E8E8"/>
<path d="M59.7 533.9C60.8 549.8 62.4 565.6 64.5 581.4C64.8 583.3 67.6 582.5 67.4 580.6C65.3 565.1 63.7 549.5 62.7 533.9C62.6 532 59.6 531.9 59.7 533.9Z" fill="#E8E8E8"/>
<path d="M78.4001 551.8C86.4001 543.9 93.3001 535 99.1001 525.4C100.1 523.7 97.5001 522.2 96.5001 523.9C90.8001 533.3 84.1001 541.9 76.3001 549.7C74.9001 551 77.0001 553.1 78.4001 551.8Z" fill="#E8E8E8"/>
<path d="M30.0001 628.8C23.1001 618.9 17.3001 608.3 12.9001 597C10.9001 591.9 9.20008 586.6 7.80008 581.3C7.10008 578.5 6.40008 575.7 5.80008 572.8C5.40008 571.1 2.80008 560 6.40008 560.7C7.60008 560.9 8.50008 560 8.20008 558.9C5.70008 545.1 4.10008 531.2 3.60008 517.2C3.40008 510.8 3.30008 504.2 4.70008 498C5.40008 495 6.40008 491.5 8.40008 489C13.0001 483.4 17.8001 488 20.8001 492.2C35.2001 512.4 44.4001 536.7 48.8001 561C49.1001 562.9 52.0001 562.1 51.7001 560.2C48.9001 545.1 44.3001 530.5 38.0001 516.6C34.7001 509.4 31.0001 502.5 26.8001 495.9C24.0001 491.5 20.4001 484.6 14.7001 483.4C2.20008 480.8 0.600079 502.6 0.500079 510.3C0.300079 526.9 2.30008 543.6 5.30008 559.9C5.90008 559.3 6.50008 558.7 7.10008 558.1C-4.89992 556 5.00008 583.5 6.50008 588.2C11.2001 603.3 18.3001 617.6 27.3001 630.6C28.5001 631.9 31.1001 630.4 30.0001 628.8Z" fill="#E8E8E8"/>
<path d="M10.3 486.5C21.5 521.2 31 556.5 38.8 592.1C39.2 594 42.1 593.2 41.7 591.3C33.9 555.7 24.4 520.4 13.2 485.7C12.6 483.9 9.7 484.7 10.3 486.5Z" fill="#E8E8E8"/>
<path d="M3.00005 532.9C14.9001 538 24.6001 546.7 30.8001 558C31.7001 559.7 34.3001 558.2 33.4001 556.5C26.9001 544.7 16.9001 535.6 4.50005 530.3C2.70005 529.6 1.20005 532.2 3.00005 532.9Z" fill="#E8E8E8"/>
<path d="M30.9001 507.4C28.3001 517.3 26.7001 527.3 26.1001 537.5C26.0001 539.4 29.0001 539.4 29.1001 537.5C29.6001 527.6 31.2001 517.8 33.8001 508.2C34.3001 506.3 31.4001 505.5 30.9001 507.4Z" fill="#E8E8E8"/>
<path d="M1241.1 632.4C1233.2 613.2 1230.9 592.3 1234.9 571.9C1234.4 572.3 1233.9 572.6 1233.5 573C1235.8 572.6 1237.5 573.6 1238.7 576.1C1239.2 577.5 1241.8 577.5 1241.6 575.7C1240.7 566.9 1240.7 558 1241.8 549.2C1242.4 544.8 1243.2 540.5 1244.3 536.2C1244.8 534.2 1245.4 532.2 1246 530.2C1246.4 529.1 1246.7 527.9 1247.1 526.8C1247.8 525.2 1248.2 523.5 1248.2 521.7C1249 522.2 1249.9 522.7 1250.7 523.2C1254.1 504.9 1263 488.4 1276.2 475.4C1275.5 475.4 1274.8 475.4 1274.1 475.4C1278.7 480.3 1278.9 487.3 1279.6 493.6C1280.3 500.2 1280.8 506.8 1281.1 513.4C1281.8 526.3 1281.8 539.3 1281.1 552.2C1279.8 578.9 1275.7 605.3 1268.9 631.1C1268.4 633 1271.3 633.8 1271.8 631.9C1278.9 604.6 1283.1 576.6 1284.2 548.4C1284.8 534.2 1284.5 520 1283.5 505.9C1282.8 495.8 1283.6 481.3 1276.1 473.3C1275.5 472.7 1274.5 472.7 1274 473.3C1260.4 486.6 1251.2 503.7 1247.7 522.4C1247.4 523.8 1249.1 525 1250.2 523.9C1250.4 523.7 1250.5 523.6 1250.7 523.4C1251.1 523 1251.3 522.5 1251.1 521.9C1250.3 519.6 1248.2 518.9 1246.4 520.8C1245.1 522.1 1244.6 524.4 1244 526.1C1242.8 529.5 1241.8 532.9 1240.9 536.4C1237.7 549.3 1236.9 562.6 1238.3 575.8C1239.3 575.7 1240.3 575.5 1241.2 575.4C1239.8 571.9 1237 569.8 1233.1 570.1C1232.5 570.1 1231.8 570.5 1231.7 571.2C1227.7 592.1 1229.8 613.6 1237.9 633.3C1239 634.9 1241.9 634.2 1241.1 632.4Z" fill="#E8E8E8"/>
<path d="M1285.7 551.7C1288.3 533.9 1295.4 516.9 1306.6 502.7C1309.3 499.3 1312.1 496.2 1315.2 493.2C1317.2 491.3 1321.7 485.9 1324.8 490.4C1326 492.1 1325.9 494.9 1325.9 496.9C1325.8 506.6 1324.5 516.5 1323 526.2C1317.3 563.7 1303.9 599.8 1283.8 632C1282.8 633.6 1285.4 635.2 1286.4 633.5C1304.7 604 1317.5 571.4 1324.1 537.3C1325.7 529.1 1326.9 520.9 1327.7 512.6C1328.4 505.9 1330.5 496.8 1328 490.3C1322.7 476.3 1307 497.3 1303.2 502.2C1292.3 516.4 1285.3 533.2 1282.8 550.9C1282.6 552.8 1285.5 553.6 1285.7 551.7Z" fill="#E8E8E8"/>
<path d="M1284 544.2C1282.8 561.1 1280.5 577.8 1277.1 594.4C1276.7 596.3 1279.6 597.1 1280 595.2C1283.5 578.4 1285.8 561.4 1287 544.2C1287.1 542.3 1284.1 542.3 1284 544.2Z" fill="#E8E8E8"/>
<path d="M1322.6 487.8C1305.6 535.5 1289.2 583.3 1273.3 631.4C1272.7 633.2 1275.6 634 1276.2 632.2C1292 584.1 1308.4 536.3 1325.5 488.6C1326.1 486.8 1323.2 486 1322.6 487.8Z" fill="#E8E8E8"/>
<path d="M1273.6 476.6C1265.8 528.6 1257.9 580.5 1250.1 632.5C1249.8 634.4 1252.7 635.2 1253 633.3C1260.8 581.3 1268.7 529.4 1276.5 477.4C1276.8 475.5 1273.9 474.6 1273.6 476.6Z" fill="#E8E8E8"/>
<path d="M1247.4 521.1C1250.7 541.3 1254 561.4 1257.3 581.6C1257.6 583.5 1260.5 582.7 1260.2 580.8C1256.9 560.6 1253.6 540.5 1250.3 520.3C1250 518.4 1247.1 519.2 1247.4 521.1Z" fill="#E8E8E8"/>
<path d="M1281.1 505.7C1274.4 517.1 1268.7 529 1264 541.4C1263.3 543.2 1266.2 544 1266.9 542.2C1271.5 530.1 1277.1 518.4 1283.7 507.3C1284.7 505.5 1282.1 504 1281.1 505.7Z" fill="#E8E8E8"/>
<path d="M1293.7 517.5C1293.7 534.7 1293.7 552 1293.7 569.2C1293.7 571.1 1296.7 571.1 1296.7 569.2C1296.7 552 1296.7 534.7 1296.7 517.5C1296.7 515.6 1293.7 515.6 1293.7 517.5Z" fill="#E8E8E8"/>
<path d="M357.3 672.3C363.9 668.1 371.8 666.8 379.3 669.1C385.8 671.1 391.2 673.8 398.2 673.5C404.7 673.2 411 671.5 417.5 671.1C421 670.9 424.5 671 427.9 672.2C431.3 673.4 433.7 675.2 437.3 675.4C439.2 675.5 439.2 672.5 437.3 672.4C433.2 672.2 429.7 669.3 425.7 668.5C422.5 667.9 419.2 667.9 415.9 668.2C408.9 668.9 402 670.9 395 670.5C387.7 670.1 381.5 665.7 374.3 665C367.7 664.4 361.3 666.2 355.8 669.7C354.2 670.7 355.7 673.3 357.3 672.3Z" fill="#E8E8E8"/>
<path d="M611.5 663.8C621.5 663.5 631.5 663.1 641.4 662.8C646.3 662.6 651.4 662.1 656.3 662.5C660.4 662.8 663.5 665.1 667.3 666C670.4 666.7 673.4 666.2 676.5 665.5C681.8 664.3 687 663.2 692.5 663C702 662.5 711.5 663.6 720.9 664.7C722.8 664.9 722.8 661.9 720.9 661.7C711.5 660.6 702 659.5 692.5 660C688 660.2 683.5 660.8 679.1 661.8C673.8 663 669.7 663.9 664.6 661.6C657.2 658.4 649.4 659.5 641.6 659.8C631.6 660.1 621.6 660.5 611.7 660.8C609.6 660.9 609.6 663.9 611.5 663.8Z" fill="#E8E8E8"/>
<path d="M970.9 764.5C981 766 990.9 764.1 1000.8 762.2C1006.9 761 1013 759.8 1019.3 759.6C1025.5 759.4 1031.3 760.8 1037.3 762.2C1042.5 763.4 1047.5 763.9 1052.8 763.3C1058.1 762.6 1063.2 761.2 1068.5 760.6C1080 759.2 1090.8 764.8 1102.3 764.1C1104.2 764 1104.2 761 1102.3 761.1C1091.6 761.7 1081.6 756.7 1070.9 757.3C1065.8 757.6 1060.9 758.9 1055.8 759.8C1049 761 1043 760.5 1036.3 758.9C1026.3 756.4 1017 756.2 1006.8 758C995.1 760 983.5 763.3 971.6 761.6C969.8 761.3 969 764.2 970.9 764.5Z" fill="#E8E8E8"/>
<path d="M1248.1 667.4C1268.1 660.7 1289.8 667 1310.4 664.2C1316.2 663.4 1322.1 662.4 1328 662.9C1332.9 663.3 1337.5 665.2 1342.3 665.7C1347.3 666.1 1352.2 664.7 1357.1 664.2C1363.2 663.6 1369.2 664 1375.2 665.1C1377.1 665.5 1377.9 662.6 1376 662.2C1371 661.3 1365.9 660.8 1360.8 660.9C1355.4 661.1 1350.2 662.6 1344.8 662.7C1339.7 662.8 1334.9 660.6 1329.8 660C1324.3 659.3 1318.8 660 1313.3 660.7C1301.6 662.3 1290.4 662.2 1278.7 661.6C1268 661.1 1257.4 661 1247.2 664.5C1245.5 665.1 1246.2 668 1248.1 667.4Z" fill="#E8E8E8"/>
<path d="M421 744.7C503.5 744.7 586.1 744.7 668.6 744.7C670.5 744.7 670.5 741.7 668.6 741.7C586.1 741.7 503.5 741.7 421 741.7C419.1 741.7 419.1 744.7 421 744.7Z" fill="#161616"/>
<path d="M651.3 761C693.7 761 736 761 778.4 761C780.3 761 780.3 758 778.4 758C736 758 693.7 758 651.3 758C649.3 758 649.3 761 651.3 761Z" fill="#161616"/>
<path d="M973.8 713.2C1018.3 713.2 1062.9 713.2 1107.4 713.2C1109.3 713.2 1109.3 710.2 1107.4 710.2C1062.9 710.2 1018.3 710.2 973.8 710.2C971.9 710.2 971.9 713.2 973.8 713.2Z" fill="#161616"/>
<path d="M1158.4 717.6C1184.8 717.6 1211.3 717.6 1237.7 717.6C1239.6 717.6 1239.6 714.6 1237.7 714.6C1211.3 714.6 1184.8 714.6 1158.4 714.6C1156.5 714.6 1156.5 717.6 1158.4 717.6Z" fill="#161616"/>
<path d="M71.3 687.2C118.4 687.2 165.4 687.2 212.5 687.2C214.4 687.2 214.4 684.2 212.5 684.2C165.4 684.2 118.4 684.2 71.3 684.2C69.4 684.2 69.4 687.2 71.3 687.2Z" fill="#161616"/>
<path d="M206 676.3C232.1 676.3 258.1 676.3 284.2 676.3C286.1 676.3 286.1 673.3 284.2 673.3C258.1 673.3 232.1 673.3 206 673.3C204.1 673.3 204.1 676.3 206 676.3Z" fill="#161616"/>
<path d="M654.7 700.7C688.9 700.7 723 700.7 757.2 700.7C759.1 700.7 759.1 697.7 757.2 697.7C723 697.7 688.9 697.7 654.7 697.7C652.7 697.7 652.7 700.7 654.7 700.7Z" fill="#161616"/>
<path d="M1095.5 182.4C1095.9 174.7 1110.5 182.4 1114.6 181.7C1120 180.8 1121.2 174.8 1127.4 176.1C1131.2 176.9 1134.8 178.7 1138.8 178.3C1141.4 178 1143.3 176.5 1145.8 175.8C1149.7 174.7 1153.6 175.9 1156.5 178.7C1157.9 180 1160 177.9 1158.6 176.6C1154.2 172.4 1148.7 171.5 1143.1 173.6C1138.4 175.4 1135.6 175.2 1130.9 173.8C1128.6 173.1 1126.2 172.4 1123.8 172.7C1121 173.1 1119.9 174.5 1118 176.2C1112.3 181.1 1108.2 176.6 1102.2 175.7C1097.6 175 1092.9 177.3 1092.6 182.4C1092.4 184.4 1095.4 184.4 1095.5 182.4Z" fill="#5222D0"/>
<path d="M1112.6 167.2C1113.4 160.6 1125 166.2 1128.4 166.5C1133 166.9 1134.1 164.3 1137.4 161.9C1143.5 157.4 1147.9 163.1 1154 162.8C1155.7 162.7 1156.6 161.7 1158 160.9C1161.9 158.7 1165.7 158.2 1169.2 161.5C1170.6 162.8 1172.7 160.7 1171.3 159.4C1167.2 155.6 1162.3 155.3 1157.4 157.5C1155.2 158.5 1156.5 159.6 1152.7 159.6C1150.8 159.6 1148.4 158.1 1146.5 157.6C1143.8 156.9 1141 156.5 1138.3 157.6C1133.9 159.4 1133.7 163.8 1127.5 163.3C1124.4 163.1 1121.7 161.2 1118.5 161C1114.2 160.7 1110 162.5 1109.4 167.1C1109.3 169.1 1112.3 169.1 1112.6 167.2Z" fill="#5222D0"/>
<path d="M163.8 528.9C167.9 525.9 171.4 524.5 176.2 526.8C178.1 527.7 179.9 528.7 182 529.1C186.4 529.8 190.4 527.6 194.3 525.9C197.9 524.3 200.9 523.4 204.7 525.4C206.8 526.5 208.5 528 210.9 528.4C215.7 529.3 222.8 524.7 226.6 528.4C228 529.7 230.1 527.6 228.7 526.3C225 522.7 220.5 524.4 215.9 525.2C212.8 525.7 210.8 525.6 208 524C206.7 523.2 205.5 522.2 204 521.7C202 521 200 520.9 197.9 521.3C195.2 521.9 192.7 523.3 190.1 524.4C185.4 526.4 182.3 526.3 177.5 524.2C171.4 521.4 167.5 522.3 162 526.3C160.8 527.4 162.3 530 163.8 528.9Z" fill="#5222D0"/>
<path d="M192.7 513.4C199.5 505.8 211.1 514.6 219.5 512.8C222.6 512.1 224.6 511.1 227.8 512.2C229.7 512.9 231.3 514.2 233.2 514.9C236.9 516.2 240.4 515.6 243.8 514C245.5 513.2 244 510.6 242.3 511.4C235.3 514.8 232.2 509.5 226.1 508.5C224.2 508.2 222.7 508.7 220.9 509.3C217.5 510.3 214.9 510.4 211.3 509.6C204.3 508.1 196.1 505.1 190.4 511.4C189.3 512.7 191.4 514.8 192.7 513.4Z" fill="#5222D0"/>
<path d="M408.1 102.8C400.3 96.9 405.5 83.7 415.5 85.9C419.6 86.8 423.1 90.1 423.1 94.5C423.1 99.7 418.7 104.3 413.6 104.6C411.7 104.7 411.7 107.7 413.6 107.6C420 107.3 425.4 102.2 426.1 95.8C426.7 89.6 422.2 84.4 416.3 83.1C402.8 80 396.3 97.7 406.6 105.5C408.1 106.6 409.6 104 408.1 102.8Z" fill="#5222D0"/>
<path d="M105.3 423.1C100.3 417.6 105 407.8 112.7 409.9C122 412.4 119.6 425.5 110.3 425.4C108.4 425.4 108.4 428.4 110.3 428.4C115.9 428.4 121 424.2 121.8 418.6C122.6 413.4 119.1 408.9 114.3 407.2C103.4 403.4 95.7999 417.1 103.2 425.2C104.5 426.6 106.6 424.5 105.3 423.1Z" fill="#EC615B"/>
<path d="M621 391.8C617.3 394.5 614.5 398.1 613.3 402.5C611.9 407.7 615.5 415 612 418.9C609.8 421.4 606 423.1 605 426.5C604.6 427.7 604.7 428.8 605.1 430C605.6 431.7 606.3 432 606.3 433.8C606.3 436.8 603.7 438.1 601.2 439.4C599.5 440.3 601 442.9 602.7 442C605.9 440.3 610 437.5 609.7 433.4C609.5 430.8 607 429.2 608.4 426.4C609.3 424.7 611.6 423.4 612.9 422.1C615.4 419.8 617.1 417.4 616.7 413.9C616.2 410.1 615.1 407.2 616.1 403.3C617.1 399.6 619.3 396.6 622.4 394.4C624 393.3 622.5 390.7 621 391.8Z" fill="#EC615B"/>
<path d="M635.7 401.8C627.2 401 626.2 411.5 626.6 417.6C626.8 421 627 424.4 624.9 427.2C623.8 428.6 622.2 429.7 621.5 431.4C620.9 432.9 621.3 434.1 621.6 435.7C622.5 440.6 619.8 443.8 616.5 447C615.1 448.4 617.2 450.5 618.6 449.1C621.2 446.5 624.2 443.5 624.9 439.7C625.2 437.9 624.5 436.5 624.5 434.8C624.5 431.7 626.4 430.6 627.8 428.4C630 425.2 629.9 421.3 629.6 417.6C629.3 413.3 629 404.2 635.7 404.8C637.7 405 637.6 402 635.7 401.8Z" fill="#EC615B"/>
<path d="M644.8 32C645.2 25.1 656.8 27.7 661.1 25.4C664.2 23.7 666 20.6 667.7 17.7C668.7 16 669.6 14.1 670.9 12.6C673.5 9.6 676.5 10 680.1 9.7C684.8 9.3 688.6 7 691.5 3.3C692.7 1.8 690.6 -0.300003 689.4 1.2C686.6 4.8 683.1 6.5 678.6 6.8C676.4 6.9 674.3 6.8 672.2 7.8C668.4 9.7 666.6 13.8 664.6 17.3C663 20 661.5 22.2 658.5 23.3C655.6 24.4 652.3 23.8 649.3 24.5C645.3 25.4 642.2 27.9 641.9 32.1C641.7 33.9 644.7 33.9 644.8 32Z" fill="#EC615B"/>
<path d="M653.6 44.5C656.6 39.6 662.7 38.4 667.5 36C671.8 33.9 674 31.2 675.3 26.6C677.2 19.5 682.7 20.4 688.8 19.5C692.5 18.9 695.5 17.7 697 14C697.7 12.2 694.8 11.4 694.1 13.2C692.2 17.7 684.7 16.6 680.7 17.5C676.6 18.3 673.8 20.2 672.6 24.3C671.5 28 671.1 30.3 667.7 32.4C665.6 33.7 663.2 34.6 660.9 35.6C656.9 37.3 653.2 39.2 650.9 43C650 44.6 652.6 46.1 653.6 44.5Z" fill="#EC615B"/>
<path d="M1104.3 503.3C1101.9 495.9 1109.5 488.3 1116.7 492.8C1124.6 497.7 1120.2 508.9 1111.4 508.7C1109.5 508.6 1109.5 511.6 1111.4 511.7C1122.6 512.1 1128.5 497.8 1119.1 490.9C1109.9 484.1 1098.1 493.7 1101.4 504.2C1102 506 1104.9 505.2 1104.3 503.3Z" fill="#EC615B"/>
<path d="M633.2 602C630.4 596.8 633.4 589.2 640.1 590.2C642.8 590.6 645.4 592.6 645.4 595.6C645.4 598.5 643.1 601.4 640.1 601.5C638.2 601.6 638.2 604.6 640.1 604.5C649.5 604.1 651.2 590.8 642.4 587.7C632.7 584.4 626.3 595.4 630.6 603.5C631.6 605.2 634.2 603.7 633.2 602Z" fill="#EC615B"/>
<path d="M1058.2 14.9C1055.3 11.7 1059.5 7.2 1063.1 9.3C1067.6 12 1064.9 17.5 1060.7 18.6C1058.8 19.1 1059.6 22 1061.5 21.5C1068.8 19.7 1071.3 9.4 1063.5 6.2C1056.9 3.5 1051.3 11.8 1056 17C1057.4 18.5 1059.5 16.4 1058.2 14.9Z" fill="#EC615B"/>
<path d="M29.9 117C24.1 114 27.6 104.8 34.1 106.7C41.7 108.9 39.1 118.7 32.4 120.1C30.5 120.5 31.3 123.4 33.2 123C43.2 120.8 45.1 106 34.1 103.6C24.6 101.5 19.8 115.1 28.3 119.5C30.1 120.5 31.6 117.9 29.9 117Z" fill="#5222D0"/>
<path d="M7.69995 186.1C7.49995 226.5 7.39995 267 7.19995 307.4C190.8 306.7 374.4 306 558 305.4C557.5 265.6 556.9 225.8 556.4 186C373.5 186 190.6 186.1 7.69995 186.1Z" fill="#5222D0"/>
<path d="M3.6001 185.8C3.6001 225 3.6001 264.1 3.6001 303.3C3.6001 307.2 9.6001 307.2 9.6001 303.3C9.6001 264.1 9.6001 225 9.6001 185.8C9.6001 181.9 3.6001 181.9 3.6001 185.8Z" fill="#161616"/>
<path d="M9.4001 187.4C80.7001 187.4 152 187.4 223.3 187.4C294.9 187.4 366.6 187.4 438.2 187.4C478.5 187.4 518.8 187.4 559.2 187.4C563.1 187.4 563.1 181.4 559.2 181.4C487.9 181.4 416.6 181.4 345.3 181.4C273.7 181.4 202 181.4 130.4 181.4C90.1001 181.4 49.8001 181.4 9.4001 181.4C5.5001 181.4 5.5001 187.4 9.4001 187.4Z" fill="#161616"/>
<path d="M555.9 184.3C556.4 225.1 556.9 266 557.4 306.8C557.4 310.7 563.4 310.7 563.4 306.8C562.9 266 562.4 225.1 561.9 184.3C561.9 180.5 555.9 180.5 555.9 184.3Z" fill="#161616"/>
<path d="M6.60005 309.1C78.7001 309.1 150.7 309.1 222.8 309.1C294.9 309.1 366.9 309.1 439 309.1C479.5 309.1 520 309.1 560.6 309.1C564.5 309.1 564.5 303.1 560.6 303.1C488.5 303.1 416.5 303.1 344.4 303.1C272.3 303.1 200.3 303.1 128.2 303.1C87.7001 303.1 47.2 303.1 6.60005 303.1C2.70005 303.1 2.70005 309.1 6.60005 309.1Z" fill="#161616"/>
<path d="M53.2999 236.7C57.3999 226.7 59.5999 216.2 60.1999 205.4C59.1999 205.4 58.1999 205.4 57.1999 205.4C56.7999 234 56.3999 262.6 56.0999 291.1C56.0999 293 59.0999 293 59.0999 291.1C59.4999 262.5 59.8999 233.9 60.1999 205.4C60.1999 203.5 57.2999 203.5 57.1999 205.4C56.6999 215.9 54.3999 226.1 50.3999 235.9C49.6999 237.7 52.5999 238.4 53.2999 236.7Z" fill="white"/>
<path d="M98 235C95.4 230.9 94.4 226.1 95.7 221.3C97.2 215.8 104.3 208.9 109 216.3C113 222.7 109.1 233.9 107.1 240.5C102.6 255.7 94.3 269.5 83.1 280.8C82.3 281.7 82.7 282.9 83.8 283.3C96.6 288.1 111.5 292.8 123.7 284C125.3 282.9 123.8 280.3 122.2 281.4C110.6 289.7 96.6 284.9 84.6 280.4C84.8 281.2 85 282.1 85.3 282.9C93.4 274.6 100.2 265.1 105 254.6C109.5 244.8 113.9 232.8 113.5 221.8C113.2 214.1 106.4 206.5 98.6 211.8C90.7 217.2 90.8 228.9 95.4 236.4C96.4 238.1 99 236.6 98 235Z" fill="white"/>
<path d="M145.1 214.8C155.4 214.3 165.5 214.8 175.7 216.4C175.4 215.7 175.1 214.9 174.8 214.2C169.1 221.6 162.4 227.8 154.6 232.9C153 234 154.4 236.3 156.1 235.5C163.6 231.8 171.7 236.6 175.2 243.6C178.2 249.7 178.4 257.1 177.1 263.6C175.8 270 172.5 276.3 166.7 279.8C160.5 283.5 152.3 283.5 146.8 278.6C145.4 277.3 143.2 279.4 144.7 280.7C150.5 285.9 158.7 286.7 165.7 283.6C174 280 178.7 271.5 180.2 262.9C181.6 254.6 180.7 244.9 175.3 238.1C170.3 231.9 161.9 229.4 154.6 232.9C155.1 233.8 155.6 234.6 156.1 235.5C164.3 230.2 171.4 223.6 177.4 215.8C178 215.1 177.4 213.7 176.5 213.6C166.1 212 155.6 211.4 145.1 211.9C143.1 211.9 143.1 214.9 145.1 214.8Z" fill="white"/>
<path d="M226.2 210.4C225.2 218.5 223.3 226 221 233.8C219.8 238 220.4 239.5 224.9 239.9C232.8 240.6 240.8 240.8 248.8 241.3C251.2 241.4 260.1 243.8 260.7 239.7C261 237.8 258.1 237 257.8 238.9C257.8 239.1 229.5 237.3 226.9 237C226.1 237 225.3 236.9 224.6 236.6C223.3 236.8 222.9 236.4 223.6 235.4C223.5 234.5 224.5 232.7 224.8 231.8C225.5 229.4 226.2 227 226.8 224.5C227.9 219.8 228.7 215 229.3 210.2C229.4 208.5 226.4 208.5 226.2 210.4Z" fill="white"/>
<path d="M244.8 215.9C245.5 237.1 246.5 258.4 247.7 279.6C247.8 281.5 250.8 281.5 250.7 279.6C249.5 258.4 248.6 237.2 247.8 215.9C247.7 214 244.7 214 244.8 215.9Z" fill="white"/>
<path d="M271.6 211.1C277.1 210.3 282.4 211.1 287.9 211.6C290.2 211.8 292.6 212 295 211.9C295.8 211.9 300.4 210.9 301 211.2C300.8 210.5 300.6 209.8 300.5 209.1C300.4 209.2 300.4 209.3 300.3 209.4C301 209.2 301.7 209 302.4 208.9C302.3 208.9 302.2 208.8 302.2 208.8C300.5 208 298.9 210.5 300.7 211.4C300.8 211.4 300.9 211.5 300.9 211.5C301.6 211.8 302.5 211.7 303 211C303.1 210.9 303.1 210.8 303.2 210.7C303.6 210 303.4 209.1 302.7 208.6C301.7 208 301 208.3 299.9 208.4C296.2 208.7 292.8 209 289 208.7C282.9 208.2 277.1 207.3 271 208.2C268.9 208.5 269.7 211.4 271.6 211.1Z" fill="white"/>
<path d="M269.3 209.8C272.4 217.3 274.4 225 275.4 233C275.5 233.9 276.3 234.8 277.3 234.4C283.5 232.3 289.6 232.4 294.5 237.2C299.1 241.8 300.4 248.4 299.4 254.7C298.6 260.3 296.3 267.6 290.6 269.9C284 272.6 277.1 269 271.3 265.9C269.6 265 268.1 267.6 269.8 268.5C276.4 272 284.3 275.9 291.8 272.7C298.5 269.9 301.4 261.7 302.4 255.1C303.5 247.9 301.8 240.4 296.6 235.1C291 229.5 283.8 229 276.5 231.5C277.1 232 277.8 232.5 278.4 232.9C277.4 224.6 275.3 216.6 272.2 208.9C271.4 207.2 268.5 208 269.3 209.8Z" fill="white"/>
<path d="M334 208.1C323.3 215.4 315.9 226.8 313.6 239.5C311.9 248.9 311.8 265.9 322.4 270.4C333 274.9 341.4 260.5 337.5 251.5C333.8 243 316.4 241.9 313.7 251.8C313.2 253.7 316.1 254.5 316.6 252.6C318 247.6 325.5 247.2 329.6 248.4C335.8 250.2 336.7 257.5 334 262.6C330.7 268.8 323.5 270 319.4 263.9C317 260.4 316.2 256.1 315.8 252C314.4 235.9 322.1 219.8 335.4 210.6C337.1 209.6 335.6 207 334 208.1Z" fill="white"/>
<path d="M392.8 219.6C392.5 218.9 390.7 215.4 391.1 214.1C390.7 212.8 391.4 212.5 393 213.1C393.7 213.1 394.3 213.1 395 213.1C398.3 213 401.5 213 404.8 212.9C411.3 212.8 417.8 212.6 424.4 212.5C424 211.7 423.5 211 423.1 210.2C412.1 232.5 404.9 256.4 401.9 281.2C402.9 281.1 403.9 280.9 404.8 280.8C404.7 280.1 404.6 279.4 404.5 278.7C404.2 276.8 401.3 277.6 401.6 279.5C401.7 280.2 401.8 280.9 401.9 281.6C402.2 283.4 404.7 282.7 404.8 281.2C407.8 257 414.8 233.6 425.6 211.7C426.1 210.7 425.5 209.4 424.3 209.4C413.6 209.6 402.8 209.6 392 210.1C385.3 210.4 388.2 216.7 390.1 221.1C390.9 222.9 393.5 221.3 392.8 219.6Z" fill="white"/>
<path d="M396.5 250.1C405.5 252.2 414.5 251.8 423.3 249C425.1 248.4 424.3 245.5 422.5 246.1C414.2 248.8 405.8 249.1 397.3 247.2C395.4 246.7 394.6 249.6 396.5 250.1Z" fill="white"/>
<path d="M471.2 213.7C466.3 224.6 461.5 235.5 456.6 246.4C454.3 251.6 452 256.7 449.7 261.9C447.5 266.8 445.8 273.1 442.7 277.5C441.6 279.1 444.2 280.6 445.3 279C448.1 274.9 449.8 268.9 451.9 264.3C454.3 258.8 456.8 253.4 459.2 247.9C464.1 237 468.9 226.1 473.8 215.2C474.6 213.5 472 212 471.2 213.7Z" fill="white"/>
<path d="M472.3 213.1C466.2 207 456.5 211.7 450.6 215.8C443.6 220.6 438.2 229.1 441.6 237.8C445.4 247.7 456.4 250.4 463.5 257.1C469.2 262.4 471.8 270.9 464.7 276.3C458.8 280.8 451 279.8 444.1 278.5C442.2 278.1 441.4 281 443.3 281.4C451.8 283 461.5 283.9 468.2 277.2C474 271.4 472.9 263.1 467.9 257.2C461.2 249.1 447.2 246.6 444.1 235.6C442 228.3 447.2 221.7 452.9 217.9C457.4 214.9 465.6 210.4 470.4 215.1C471.5 216.6 473.6 214.5 472.3 213.1Z" fill="white"/>
<path d="M512.7 216.4C518.2 211 511.6 204.4 505.5 204.4C498.1 204.5 487.2 209.4 485.3 217.2C483.6 224.3 490.2 230.9 497.2 231.1C505.8 231.3 511.3 223.1 512.2 215.4C511.2 215.5 510.2 215.7 509.3 215.8C511.9 229.2 512.6 243 511.1 256.6C510.4 262.6 509.3 271 502.4 273.1C494.4 275.5 487.9 268.5 484.1 262.5C483.1 260.9 480.5 262.4 481.5 264C485.3 269.9 490.4 275.7 497.8 276.4C504.3 277 509.3 273.5 511.7 267.6C514.7 260.3 514.7 251.2 514.7 243.5C514.8 233.9 513.8 224.4 512 215C511.7 213.2 509.2 213.9 509.1 215.4C508.5 220.7 505.4 226.1 500 227.7C495 229.2 488.9 225.9 488.1 220.5C487.3 215.3 492.1 211.9 496.3 209.9C498.4 209 500.6 208.1 502.8 207.7C504.5 207.3 506.2 207.2 507.9 207.6C511.2 208.7 512 210.9 510.4 214.2C509.2 215.6 511.3 217.8 512.7 216.4Z" fill="white"/>
<path d="M699 199.1C695.8 201.7 691.7 205.6 687.9 211C684.6 215.7 682.5 220.2 681.2 223.7C684.2 225.1 690.6 228.6 691.9 234.8C693.4 241.6 687.8 247.8 680.4 255.8C675.5 261 668 268 657 274.4C655.1 274.4 651.3 274.2 647.1 272C642.1 269.3 639.7 265.3 638.8 263.7C634.6 264.9 629.2 266.9 623.3 270.4C617.8 273.7 613.6 277.3 610.6 280.3C612 283.5 616.2 292.3 625.7 296.1C629.4 297.6 634.1 298.4 642.8 296.9C651.6 295.4 663.5 291.8 677.6 282.2C697.7 268.5 707.7 252.5 710.5 247.7C717.5 235.8 722.5 227.3 719.6 217.6C715.9 205.5 702.1 200.2 699 199.1Z" fill="#161616"/>
<path d="M639 242.5C644.4 234.9 651.8 229.2 660.4 225.8C662.2 225.1 661.4 222.2 659.6 222.9C650.2 226.6 642.3 232.7 636.4 241C635.2 242.6 637.8 244.1 639 242.5Z" fill="#161616"/>
<path d="M622.5 244.3C630.6 226.6 646.3 213.6 665.3 208.9C667.2 208.4 666.4 205.5 664.5 206C644.9 210.8 628.4 224.4 619.9 242.7C619.1 244.6 621.6 246.1 622.5 244.3Z" fill="#161616"/>
<path d="M608.6 247.5C610.9 233.7 618.4 221.6 629.1 212.5C639.3 203.8 655 194.4 668.9 196.2C670.8 196.4 670.8 193.4 668.9 193.2C654.7 191.4 638.9 200.7 628.2 209.3C616.6 218.7 608.2 231.8 605.7 246.6C605.4 248.6 608.3 249.4 608.6 247.5Z" fill="#161616"/>
<path d="M779.3 693.8C779.7 706.8 780 719.8 780.4 732.8C739.1 745 718.8 753 719.5 756.8C720.4 761.6 753.5 760 818.8 752C817.4 729.8 816 707.5 814.5 685.3C802.8 688.1 791.1 690.9 779.3 693.8Z" fill="#161616" stroke="#161616" stroke-width="2"/>
<path d="M910 437.5C904 439.3 905.3 440 872.9 464.9C838.6 491.2 821.5 504.4 809.6 511.1C802.7 515 797.1 517.8 790.2 524.2C778.8 534.9 773 547.1 768.5 559C754.5 596.1 752.4 631.6 752 647.4C751.6 662 751.9 682.6 755.4 707.3C766.2 709.9 775.2 710.6 781.6 710.7C792.7 710.9 808.5 711.1 824.9 702.7C829.7 700.2 833.4 697.6 835.7 695.9C832.8 678.8 830.6 657.3 831.7 632.6C832.6 612.7 835.3 595.2 838.5 580.7C843.8 576.7 851.9 571 862.4 565.3C874.5 558.8 886.6 554 920 544.2C960 532.5 961.4 533.8 967.3 528.8C982.6 516 993.6 490.2 985 467.8C973.8 438.3 934.4 430.4 910 437.5Z" fill="white"/>
<path d="M894.6 447.6C876.1 460.5 857.7 473.5 839.2 486.4C822.8 497.9 805.2 508.7 790.2 522.2C775.8 535.1 767.8 551.2 762.6 569.6C756.9 590 753.2 611.1 751.3 632.2C749.1 656.5 749.6 680.9 752.4 705.1C752.6 707 755.6 707 755.4 705.1C750.5 663.7 752.9 621.6 762.7 581.2C767.4 561.7 773.6 542.9 788.1 528.4C802.1 514.4 819.7 503.8 835.8 492.5C855.9 478.4 876 464.3 896.1 450.2C897.7 449.1 896.2 446.5 894.6 447.6Z" fill="#161616"/>
<path d="M951.3 532.4C929.3 538.7 907.6 545.7 886.2 553.7C876.8 557.2 867.2 560.7 858 564.8C850.4 568.2 843.3 572.5 838.9 579.8C837.9 581.5 840.5 583 841.5 581.3C846.3 573.2 854.9 569.2 863.2 565.8C872.8 561.9 882.5 558.2 892.3 554.6C912 547.4 931.9 541 952 535.3C953.9 534.8 953.1 531.9 951.3 532.4Z" fill="#161616"/>
<path d="M840.2 564.8C829.8 607.3 827.9 651.5 834.6 694.7C834.9 696.6 837.8 695.8 837.5 693.9C830.9 651.2 832.8 607.5 843.1 565.6C843.5 563.7 840.6 562.9 840.2 564.8Z" fill="#161616"/>
<path d="M753.7 705C754.2 710.6 762.9 709.7 766.7 710.1C775.9 711 785.1 711.7 794.4 711.2C809.4 710.4 824.1 706.2 835.9 696.6C837.4 695.4 835.3 693.3 833.8 694.5C823.7 702.7 811.2 706.7 798.4 707.9C791.8 708.5 785.2 708.5 778.6 708.1C776.2 708 756.9 707.5 756.7 705C756.5 703.1 753.5 703.1 753.7 705Z" fill="#161616"/>
<path opacity="0.11" d="M950.4 498.7C936.6 491.7 920.8 509.6 881.8 527.4C849.9 542 842 538.4 829.5 546C807.5 559.3 788 597.2 802 707.3C805.1 707.3 808.7 707 812.7 706.2C823.2 704 830.7 699 835.2 695.5C831.7 673.6 829.6 646 833 614.5C834.4 601.2 836.6 589 839.2 578C848.7 572.5 863.5 564.6 882.5 557.2C928.6 539.1 957.2 540.2 961.8 524C964.2 514.9 958.6 502.8 950.4 498.7Z" fill="#666666"/>
<path opacity="0.12" d="M940.3 535.8C939.8 533.1 907.4 534.5 873.4 545.9C851.7 553.1 839.9 557.1 829.6 568.4C813.2 586.2 812.3 609.1 811 640.9C810.4 656 810.8 677.8 816.1 703.9C822.7 701.8 829.2 699.8 835.8 697.7C833.3 679.1 831.7 656.7 833 631.4C834 612.5 836.3 595.6 839.2 580.8C842.1 577.7 846.5 573.3 852.7 569C866.2 559.5 878.1 557.1 892.1 553.3C910.2 548.2 940.8 538.4 940.3 535.8Z" fill="#666666"/>
<path d="M1108 625.7C1129.8 618.6 1148.3 614.6 1161.8 612.2C1181.1 608.8 1185.6 609.5 1189.2 612.2C1195.4 616.8 1194.1 623.6 1196.4 666C1197.2 679.9 1197.6 683.4 1194.8 687.7C1185.3 702.8 1153.7 702.1 1151.3 695.5C1150.4 692.9 1153.4 688.1 1168.4 678.4C1167.9 668.9 1167.4 659.4 1166.8 649.9C1149.7 654 1132.6 658.2 1115.6 662.3C1113.2 650.2 1110.6 638 1108 625.7Z" fill="#161616" stroke="#161616" stroke-width="2"/>
<path d="M933.3 453.5C926.7 469 931.4 485.6 933.6 493.4C936.1 502.4 938.5 503.6 942.5 515.7C946.8 528.7 948.1 538.1 949.9 549.4C952.5 565.9 955.5 584.7 960.2 603.5C966 626.7 969.2 638.6 978.8 651.5C983 657.2 992.9 670 1010.3 676.8C1013.6 678.1 1018 679.5 1028.9 680.9C1040.9 682.5 1059.5 684.9 1084.1 681.9C1105.1 679.4 1122.6 673.8 1135.7 668.5C1138.3 658.9 1138.2 650.9 1137.8 645.8C1137.2 639.4 1136.2 627.5 1127.5 617.4C1125 614.5 1121.3 610.3 1115.1 608.1C1108.3 605.8 1102.2 607.3 1091.4 610.2C1078.9 613.5 1074.3 617.1 1066.1 615.4C1062.6 614.7 1060 613.3 1058.4 612.3C1056 608.6 1052.7 603 1049.6 595.8C1041.5 577 1040.9 561.9 1039.8 545.3C1037.3 507.9 1036 489.2 1030 468.5C1023.7 446.8 1021.9 435.9 1012.5 429.3C1002.8 422.5 991.8 423 985 423.3C968.3 424 942.5 432 933.3 453.5Z" fill="white"/>
<path d="M1017.3 436.2C1033.7 470.6 1035 509.2 1038.6 546.4C1041.2 573.3 1043.5 610.2 1070.8 624.4C1072.5 625.3 1074 622.7 1072.3 621.8C1058.3 614.5 1051.3 600.1 1047.4 585.4C1043.2 569.3 1042.1 552.4 1040.7 535.8C1037.7 501.4 1035 466.3 1020 434.6C1019.1 432.9 1016.5 434.4 1017.3 436.2Z" fill="#161616"/>
<path d="M936 504.7C953.6 544.6 949.2 590.1 966.3 630.1C973.1 646.1 983.3 661.1 997.8 671C1015.4 682.9 1038.3 685.3 1059 685C1085.1 684.6 1110.8 678.6 1135 669.1C1136.8 668.4 1136 665.5 1134.2 666.2C1113.1 674.5 1090.9 680.2 1068.2 681.6C1046.6 683 1022 681.9 1002.9 670.7C969.4 651 960.5 608.7 955.1 573.4C951.5 549.5 948.3 525.4 938.4 503.1C937.8 501.5 935.2 503 936 504.7Z" fill="#161616"/>
<path d="M1056.5 612.8C1074.6 623.4 1095.3 603 1114.4 609.2C1125 612.7 1130.2 624.1 1133.1 634.1C1136.3 644.9 1136.7 656.2 1134.5 667.2C1134.1 669.1 1137 669.9 1137.4 668C1139.4 657.6 1139.3 646.9 1136.9 636.6C1134.6 627.2 1130.6 616.5 1122.7 610.3C1115.4 604.5 1105.7 604.4 1096.9 606.1C1085.1 608.4 1069.6 617.1 1058 610.3C1056.3 609.3 1054.8 611.8 1056.5 612.8Z" fill="#161616"/>
<path opacity="0.11" d="M1002.5 434.9C985.7 451.4 1019.6 487.7 1020.2 548.7C1020.7 596.4 1009.4 616.2 1024.6 632.2C1046.4 655.1 1095.7 641.9 1101.1 640.4C1109.7 638 1128.1 634.5 1129.6 625.2C1130.5 619.1 1124.1 612.2 1117.6 608.8C1097.8 598.3 1079.3 621.5 1061.9 613.9C1048.8 608.1 1045.9 588.9 1040.4 553.2C1035.9 523.9 1038.7 517.7 1033.4 485.5C1029.5 461.8 1024.5 432.2 1012.5 430.5C1007.7 429.7 1003.3 434 1002.5 434.9Z" fill="#666666"/>
<path opacity="0.17" d="M1029.7 474.1C1028.1 474.2 1028 493.4 1027.8 517.1C1027.3 584.4 1031.1 598.7 1039.8 611.3C1043.4 616.5 1050.2 626.1 1062.6 631.5C1090 643.6 1126.4 627.7 1126.5 617.6C1126.5 612.5 1117.2 608.7 1115.7 608.1C1106.2 604.3 1098.9 608 1079.6 611.3C1071.6 612.7 1064.8 613.4 1060 613.8C1056.4 609.3 1051.4 602.3 1047.4 592.9C1039.7 575.2 1040.3 560.8 1039.8 545.5C1038.7 507.7 1031.7 474 1029.7 474.1Z" fill="#666666"/>
<path d="M658.1 307.4C658.3 305.1 663.6 303.9 666.8 303.2C679.9 300.3 691.2 302.5 694.2 303.7C699.8 305.9 705.4 308.1 711.1 310.3C711.4 308.6 712.3 305 715.2 302.3C720.4 297.6 727.8 299.4 729.8 300C732.4 300.7 736.5 302.3 743.5 309.9C750.7 317.7 751.7 321.7 755.8 326.8C765.3 338.6 779.6 341.7 786.8 343.2C793.1 344.6 805.8 347.3 820.1 341.3C832.7 336 839.8 326.7 842.9 322.5C845.9 318.4 846.9 316 852.9 302.3C865.1 274.4 869 265.8 877.5 257.2C882.1 252.5 887.7 247 893.5 248.3C900.6 249.9 903.6 261 904.9 265.7C906.3 270.9 908.1 280.8 904 298.1C902.6 304.1 897.8 321.8 883.9 341.3C878.1 349.5 870 360.6 855.6 370C849.3 374.1 839 380.7 824.1 382.7C810.9 384.5 800.8 381.8 792.2 379.4C782.7 376.8 766.9 371 750.2 357.3C739.5 357.8 731.3 358.5 725.6 359.2C715.9 360.3 711.8 361.2 707.4 358.7C705.9 357.8 703.7 356.2 700.6 356.4C697.7 356.6 696.7 358.2 694.2 358.7C691.4 359.3 686.8 358.8 684.2 355.4C682.1 352.7 682.3 349.3 682.4 348.2C680.7 346.7 678 343.9 676.7 339.7C675.8 336.8 675.9 334.4 675.9 331.7C676 328.5 676 326.9 676.8 325.6C679.1 321.6 685.7 321.8 686.7 321.9C683.5 319.5 680.6 318.2 678.8 317.5C672.6 315 669.3 315.8 663.6 312.7C661.3 311.3 657.9 309.4 658.1 307.4Z" fill="white"/>
<path d="M894.4 247C885.7 243.7 879.2 251 874.6 257.5C867.7 267.2 861.8 277.6 856.8 288.4C847.4 309 841 333 821.7 346.8C820.1 347.9 821.6 350.5 823.2 349.4C838.8 338.1 846.6 320.4 853.7 303.1C858 292.7 862.6 282.5 868.2 272.8C871 268.1 873.9 263.4 877.1 259C880.9 253.7 886 247.1 893.5 249.9C895.4 250.6 896.2 247.7 894.4 247Z" fill="#161616"/>
<path d="M719.5 312.1C715.2 313.5 713.5 308.2 714.8 305.3C715.8 303 718.4 301.8 720.6 301.1C724.8 299.9 729.6 300.7 733.5 302.6C740 305.8 743.7 312.3 747.7 318.1C754.7 328.3 764 336.5 775.3 341.5C797.8 351.4 824.1 346.1 841.4 328.7C842.8 327.3 840.6 325.2 839.3 326.6C827.5 338.6 810.8 345 794 343.4C776.8 341.8 761.2 331.8 751.2 317.9C743.8 307.4 734.5 293.3 719.2 298.4C714.9 299.8 710.7 303.6 711.4 308.5C712 312.9 716 316.4 720.4 314.9C722.1 314.4 721.3 311.5 719.5 312.1Z" fill="#161616"/>
<path d="M709.1 308C701.1 304 692.7 300.9 683.8 300C676 299.2 665.1 299.5 658.7 304.8C652.9 309.6 660.5 312.7 664.6 314.4C674 318.3 684.6 319.5 693.7 324.2C695.4 325.1 696.9 322.5 695.2 321.6C689.6 318.7 683.6 317.3 677.6 315.6C674.4 314.7 671.3 313.7 668.2 312.5C666.5 311.9 663.1 311.2 661.8 309.8C659.5 307.4 662.4 305.9 664.6 305.1C678.5 299.4 694.9 304.2 707.7 310.6C709.3 311.4 710.8 308.8 709.1 308Z" fill="#161616"/>
<path d="M693 322.3C688.7 319.7 683.3 319.4 679 322.1C675.5 324.2 672.6 328.8 674.2 332.9C676 337.6 683 338.1 687.1 338.9C693.4 340 699.4 340 705.2 337.1C706.9 336.2 705.4 333.6 703.7 334.5C697.2 337.8 690 336.6 683.1 335C680.4 334.4 680.3 334.5 678.6 331.6C676.4 329.8 676.5 327.9 678.7 326.1C679.3 325.6 679.9 325.2 680.5 324.7C683.9 322.6 688.1 322.9 691.5 324.9C693.1 325.9 694.6 323.3 693 322.3Z" fill="#161616"/>
<path d="M675.8 334.6C673.8 340.1 676.4 345.8 681.5 348.5C688.1 352 695.6 349.4 701.9 346.9C703.7 346.2 702.9 343.3 701.1 344C696.9 345.7 692.3 347.5 687.7 347.1C681.7 346.6 676.4 341.7 678.7 335.4C679.3 333.6 676.4 332.8 675.8 334.6Z" fill="#161616"/>
<path d="M680.5 347.2C678.7 352.8 683.2 357.5 688.3 359C695.8 361.1 701.8 356.9 707.2 352.2C708.7 350.9 706.5 348.8 705.1 350.1C701.7 353 698.2 356.1 693.6 356.5C689 356.9 681.4 354.1 683.4 348C684 346.2 681.1 345.4 680.5 347.2Z" fill="#161616"/>
<path d="M697.9 327.6C700.9 328.6 705.5 331.3 703.1 335C702.1 336.6 704.7 338.1 705.7 336.5C707.1 334.3 707 331.4 705.5 329.2C704 326.8 701.3 325.5 698.6 324.7C696.8 324.1 696 327 697.9 327.6Z" fill="#161616"/>
<path d="M702.2 337.8C704.3 340.1 703.4 343.7 700.4 344.6C698.6 345.1 699.3 348 701.2 347.5C706.5 346 708 339.6 704.4 335.6C703 334.3 700.9 336.4 702.2 337.8Z" fill="#161616"/>
<path d="M703.6 345.2C705.6 346.3 705.9 349.3 704.3 350.8C702.9 352.1 705 354.3 706.4 352.9C709.4 350 708.8 344.6 705.1 342.6C703.5 341.7 701.9 344.3 703.6 345.2Z" fill="#161616"/>
<path d="M707.1 310.4C709.3 311.4 711.5 312.5 713.7 313.5C715.4 314.3 717 311.7 715.2 310.9C713 309.9 710.8 308.8 708.6 307.8C706.9 307 705.4 309.6 707.1 310.4Z" fill="#161616"/>
<path d="M720.7 315C722.9 313.1 725.9 312.3 728.8 313C730.7 313.4 731.5 310.5 729.6 310.1C725.6 309.2 721.7 310.2 718.6 312.9C717.1 314.2 719.2 316.3 720.7 315Z" fill="#161616"/>
<path d="M722.4 318.6C719.6 326.9 722.9 336.1 730.4 340.6C732.1 341.6 733.6 339 731.9 338C725.5 334.2 722.9 326.3 725.3 319.4C725.9 317.5 723 316.7 722.4 318.6Z" fill="#161616"/>
<path d="M701.3 356.9C707.3 361.2 713.8 362.1 720.9 360.7C730.8 358.9 740.3 358 750.4 359.1C752.3 359.3 752.3 356.3 750.4 356.1C742.6 355.2 734.8 355.3 727 356.5C718.1 357.9 710.8 360 702.8 354.3C701.2 353.2 699.7 355.8 701.3 356.9Z" fill="#161616"/>
<path d="M747.8 357.8C762.1 364.6 775.3 373.7 790.1 379.3C803.7 384.4 818.6 385.4 832.8 381.9C847.4 378.3 859.2 369.7 869.5 359C880.2 348 889.8 335.6 896.6 321.7C904.6 305.5 908.5 287.5 906.5 269.5C906.3 267.6 903.3 267.6 903.5 269.5C905.7 289.3 900.6 309 890.8 326.2C881.7 342.2 868.8 358.2 853.7 369C838.5 379.8 818.8 383.4 800.6 379.3C782 375.1 766.3 363.2 749.2 355.1C747.6 354.4 746.1 357 747.8 357.8Z" fill="#161616"/>
<path opacity="0.16" d="M898.4 258.6C894.5 258.8 895 275.4 890.3 292.4C883.4 317 863.6 349.3 834.5 359.2C813.9 366.2 793.1 360.4 760 351.1C749.5 348.2 731 342.1 705.4 340.5C684.3 339.2 679.1 342.2 678.9 343.8C678.8 344.8 680.7 345.5 681.8 348.7C682.7 351.4 681.7 352.3 682.6 354C684.2 357.1 689 357.5 690.7 357.7C694.9 358.1 698.3 356.6 700.1 355.7C702 356.6 705 357.8 708.7 358.6C715.9 360.1 720 358.7 729.1 357.8C738.5 356.9 744.7 356.3 751.5 358.2C758 360 761 363 766.6 366.8C768.3 367.9 784.3 378.6 804.1 381.9C810.3 382.9 824.5 385.1 840.3 379C849.3 375.6 855 370.9 861.5 365.6C865.6 362.2 883.9 346.6 897.3 317.5C903.2 304.8 908 294.1 906.7 280C905.6 269.7 901.7 258.4 898.4 258.6Z" fill="#666666"/>
<path opacity="0.17" d="M707 348.2C711.8 345.8 717.4 347.8 719.6 348.6C732.1 352.9 733.3 349.9 752.2 352.7C767.8 355 768.4 359.5 788.9 366.1C808.6 372.5 824.5 377.6 840.2 372.6C862.5 365.5 872.8 343 873.6 343.7C874.4 344.3 865.4 366.1 843.9 376.3C824.4 385.6 804.1 380.9 798.3 379.6C788.9 377.4 781.3 373.8 773 369.8C763.3 365.2 755.7 360.4 750.2 356.8C743.2 356.5 737.7 357.1 733.9 357.6C724.6 359 720.7 361.1 713.1 360C711.1 359.7 702.8 358.5 702.1 354.7C701.7 352.2 704.4 349.5 707 348.2Z" fill="#666666"/>
<path d="M883.9 250.8C881.2 254.1 877.7 259.6 875.1 303.3C873.7 327.5 872.3 352.9 874.4 390.2C875.3 405.4 877 426.2 880.5 450.8C891.7 457.2 912.1 466.7 939.1 468.3C982.4 470.9 1014 451.3 1024.6 444.1C1019.2 433.4 1011.8 416.8 1007.1 395.6C1001.3 369.6 1004.1 358.1 1001 326.2C996.9 284 994.9 262.9 982.1 250.1C957.6 225.5 903.8 226.3 883.9 250.8Z" fill="#EC615B"/>
<path opacity="0.22" d="M938.4 232.8C945.5 243.4 954.6 259.1 961.8 279.5C964.9 288.4 980.3 334.2 969.1 393.1C963.2 424.4 951.7 449.6 940.7 468.2C948.4 468.7 957.4 468.6 967.3 467.3C993.6 463.7 1013.3 452.8 1025 444.8C1021.3 438 1016.6 428.4 1012.6 416.4C1011.8 413.8 1007.9 402.1 1005.3 383.9C1003.5 371.5 1003.8 367.4 1002.6 347.2C1002.3 342.5 1001.1 323.4 998.5 301.4C994.7 269.2 991.8 262.2 987 256C980.2 247.2 971.6 242.5 967.8 240.4C955.8 234.2 944.6 233 938.4 232.8Z" fill="#666666"/>
<path opacity="0.22" d="M998.6 307.9C997.1 324.1 995.1 340.8 992.7 358C987.2 396.8 979.9 432.9 971.6 466C978.4 465.1 987.1 463.3 996.6 459.6C1009 454.8 1018.3 448.4 1024.6 443.4C1011.3 420 1006.7 400.4 1005 386.4C1003.3 372.3 1003.9 358.7 1000.6 325.5C999.8 318.1 999.1 312 998.6 307.9Z" fill="#666666"/>
<path d="M843.1 131.8C841.1 136.7 841.2 142.5 841.2 154.2C841.2 162.5 841.3 174.1 845.6 187.8C848.9 198.4 852.1 209 862 218.4C864.8 221.1 876.9 232.6 894 232.6C897.3 232.6 900.1 232.2 901.9 231.8C902.7 234.8 904.4 239 907.6 243.3C909.3 245.5 911 247.2 912.5 248.5C914.9 248.5 921 248.1 927.3 244.1C933.3 240.2 936.1 235.1 937.1 232.9C935.3 231.1 930.6 225.8 930.3 218.1C930.2 216 930.5 214.2 930.8 212.6C934.1 208.4 937.6 202.9 940.6 196.2C942.1 192.9 943.2 189.8 944.2 186.9C945.7 187.3 948.7 187.8 951.6 186.4C954.7 184.8 955.8 181.7 957.1 177.9C959 172.3 961.1 166 958.5 160.4C956 155.1 952.1 156.3 948.7 151.4C943.5 144.1 948.6 136.7 946.5 128.7C943.3 116.4 925.5 111.1 918.6 109C890.3 100.6 851.9 110 843.1 131.8Z" fill="white"/>
<path d="M840.5 146.2C843 146.6 844.6 142.7 848.5 138.8C852.5 134.9 859.2 130.8 871.2 129.7C881 128.7 890.8 127.6 900.6 126.6C903.7 126.8 910.8 127.6 917.9 132.5C923.6 136.5 926.7 141.3 928.2 143.9C931.3 144 934.3 144.2 937.4 144.3C938 148 938.7 151.7 939.3 155.4C939.7 155 945.1 150.2 950.7 152C955.2 153.4 957.1 158.2 957.9 160.4C960.4 166.5 958.7 171.4 960.2 171.8C962 172.4 965.5 165.8 965.9 164.9C966.8 163.2 969.7 157.3 970.5 148.1C971.1 140.6 971.5 135.6 968.6 130.9C967.6 129.3 966.6 128.3 966.3 126.3C965.8 122.5 968.8 120.4 970.5 116.8C971.4 114.9 971.6 113.1 969 99.3C966.2 84.5 965.2 82.5 963.7 82.1C961.7 81.7 959.9 84.4 957.6 86.7C953.6 90.8 946.7 95.3 933.9 97C933.9 92.5 933.3 88.9 932.8 86.3C931.9 82.3 931.4 82.3 928.2 72.9C926.4 67.6 926 65.4 924.8 65.3C922.8 65.1 922.1 70.2 917.4 72C915.3 72.8 914.5 72.1 911.7 72.5C909.2 72.8 905.8 73.9 901.9 77.2C901.9 77.2 895.9 81.3 885.9 86.4C874.8 92 871.1 85.9 859.6 91C851 94.8 845.8 101.6 843.6 104.7C841.4 107.8 835.2 116.8 835.2 129.2C835 136.3 837 145.7 840.5 146.2Z" fill="#5222D0"/>
<path d="M840.6 150.2C838.9 167.2 841.7 184.5 848.9 200C855 213.1 864.7 226.1 878.7 231.3C893 236.6 909.4 232.7 921.3 223.7C933.4 214.5 941 200.8 945.5 186.5C946.1 184.7 943.2 183.9 942.6 185.7C938.3 199.3 931.1 212.4 919.6 221.2C907.7 230.2 891 234 877.1 227.4C864.6 221.5 856.2 209.2 850.8 196.9C844.3 182.2 842 166.1 843.6 150.2C843.8 148.3 840.8 148.3 840.6 150.2Z" fill="#161616"/>
<path d="M941.4 157.7C942.8 151.6 949.9 151.8 953.5 155.7C956.6 158.9 957.3 163.6 957.4 167.9C957.6 175.1 955 188.4 944.7 185.1C942.9 184.5 942.1 187.4 943.9 188C958.5 192.7 961.7 172.4 959.9 162.6C958.8 156.9 955.1 150.8 948.8 150C944 149.4 939.6 152.4 938.5 157.1C938.1 158.7 941 159.5 941.4 157.7Z" fill="#161616"/>
<path d="M877.7 151.4C875.4 156.2 873.1 160.9 870.9 165.7C869.8 168.2 868.6 170.7 868.8 173.6C869.3 179.5 874.5 183.4 879.9 184.7C881.8 185.2 882.6 182.3 880.7 181.8C874.2 180.2 870.2 175 873 168.4C875.2 163.2 877.8 158.1 880.3 152.9C881.1 151.2 878.5 149.7 877.7 151.4Z" fill="#161616"/>
<path d="M863.1 164.5C862.5 163.8 862.1 162.9 862 162C861.9 161.6 861.9 161.1 862 160.7C862 160.4 862.5 159.5 862.5 159.3C862.3 159.3 862.2 159.4 862 159.4C862.1 159.7 862.1 160 862.1 160.3C862.1 160.8 862.1 161.3 862.1 161.8C862 163.1 861.7 164.3 861.2 165.5C862 165.3 862.9 165.1 863.7 164.8C862.7 163.9 862.3 163 862.4 161.6C862.6 159.7 859.6 159.7 859.4 161.6C859.2 163.6 860 165.6 861.6 166.9C862.5 167.7 863.7 167.3 864.1 166.2C865 163.9 865.4 161.3 865 158.9C864.7 157.2 863.3 155.5 861.5 156.3C859.8 157 859.1 159.4 859.1 161.2C859.1 163.2 859.8 165.1 861.2 166.6C862.3 168.1 864.4 165.9 863.1 164.5Z" fill="#161616"/>
<path d="M901.3 163C901 162.2 900.8 161.5 900.8 160.7C900.8 160.3 900.9 159.9 901 159.5C901 159.4 901.1 159.2 901.1 159.1C901.3 158.8 901.2 158.8 900.7 159.1C900.7 159.2 900.9 159.7 900.9 159.9C900.9 160.3 900.9 160.7 900.8 161.1C900.6 162 900.2 162.8 899.7 163.5C900.5 163.6 901.3 163.7 902.1 163.8C900.9 162.1 901 160.1 902.3 158.4C901.5 158.5 900.7 158.6 899.9 158.7C900.9 159.9 900.2 161.7 899 162.3C899.7 162.6 900.5 162.9 901.2 163.2C900.9 162.4 900.7 161.7 900.6 160.8C900.6 160.3 900.7 159.8 900.7 159.3C900.7 159.1 900.8 159 900.8 158.8C900.5 158.4 900.4 158.3 900.6 158.6C900.9 159.4 901.1 160 901 160.9C901 161.3 900.8 161.9 900.8 162.2C900.8 162.4 900.7 162.5 900.7 162.7C901.4 162.6 901.5 162.4 901.1 162C900 160.4 897.4 161.9 898.5 163.5C899.6 165.1 902 166.5 903.3 164.2C904.3 162.3 904.3 159 903.3 157.2C902.2 155.3 899.6 154.7 898.3 156.8C897.1 158.8 897.4 161.8 898.2 163.9C898.6 164.8 899.5 165.3 900.4 164.8C903.5 163.2 904.1 159.1 901.9 156.5C901.2 155.7 900.1 156.1 899.5 156.8C897.7 159.2 897.6 162.7 899.3 165.2C899.8 165.9 901 166.3 901.7 165.5C903.5 163.2 905.4 157.8 901.8 156.1C900.2 155.4 898.8 156.4 898.3 157.9C897.6 159.8 897.6 161.9 898.4 163.7C899.2 165.5 902.1 164.8 901.3 163Z" fill="#161616"/>
<path d="M869.3 146.2C864.1 142.8 857.3 144.4 854 149.5C853 151.1 855.6 152.6 856.6 151C859 147.2 864 146.3 867.8 148.7C869.4 149.8 870.9 147.2 869.3 146.2Z" fill="#161616"/>
<path d="M896.9 147C901.5 143.1 908.6 144.3 910.7 150.2C911.3 152 914.2 151.2 913.6 149.4C910.7 141.3 901.1 139.4 894.8 144.9C893.4 146.1 895.5 148.2 896.9 147Z" fill="#161616"/>
<path d="M900.6 232.9C902.2 238.8 905.3 244.1 909.8 248.3C911.2 249.6 913.3 247.5 911.9 246.2C907.8 242.3 904.9 237.6 903.5 232.1C902.9 230.2 900 231 900.6 232.9Z" fill="#161616"/>
<path d="M928.2 214.4C929.1 221.1 931.4 227.2 935.3 232.8C936.4 234.4 939 232.9 937.9 231.3C934.3 226.2 932 220.6 931.2 214.4C931 212.6 928 212.5 928.2 214.4Z" fill="#161616"/>
<path d="M910 248.8C920.8 252.5 933.2 243.8 937.2 233.9C937.9 232.1 935 231.3 934.3 233.1C930.9 241.5 919.8 249 910.8 245.9C909 245.3 908.2 248.2 910 248.8Z" fill="#161616"/>
<path d="M902.4 234.5C909.6 233.3 916 229.9 921.1 224.7C922.4 223.3 920.3 221.2 919 222.6C914.2 227.5 908.3 230.5 901.6 231.7C899.7 232 900.5 234.8 902.4 234.5Z" fill="#161616"/>
<path d="M904.1 236.5C912.5 234.1 922 227.5 925.8 219.5C926.6 217.8 924 216.2 923.2 218C919.7 225.3 911 231.5 903.2 233.7C901.4 234.2 902.2 237 904.1 236.5Z" fill="#161616"/>
<path d="M841.1 138.8C835.4 132.1 837.7 120.1 840.5 112.5C843.9 103.2 850.6 96.2 860.3 93.5C868.8 91.1 877.9 91.4 886.2 88.2C895.4 84.6 902.1 74.7 912.7 75.4C914.6 75.5 914.6 72.5 912.7 72.4C900.6 71.6 893.2 83.2 882.3 86.3C871.8 89.4 860.1 88.3 850.6 94.4C843.1 99.2 838.4 107.3 836.3 115.8C834.2 123.9 833.1 134.2 838.9 140.9C840.2 142.4 842.4 140.3 841.1 138.8Z" fill="#5222D0"/>
<path d="M873.1 127.5C872.3 120.2 873.9 113 878.2 107C883 100.3 890.3 97.3 897.5 93.9C903.5 91.1 909 87.6 913.3 82.5C917.5 77.7 919.6 70.6 924.9 66.9C924.2 66.7 923.5 66.5 922.8 66.4C927.8 78.1 937.8 92.4 928.8 104.8C927.7 106.4 930.3 107.9 931.4 106.3C941.1 92.9 930.8 77.6 925.4 64.9C925.1 64.2 924 63.9 923.3 64.4C917.5 68.3 915.5 75.3 911 80.4C905.1 87.3 897.4 90.4 889.5 94.2C876.5 100.5 868.2 112.7 869.9 127.5C870.3 129.4 873.4 129.4 873.1 127.5Z" fill="#5222D0"/>
<path d="M901.4 126.1C907.8 114.2 918.3 104.9 931.1 100.4C937.1 98.3 943.4 97.1 949.1 94.2C954.6 91.5 959.3 87.7 963.4 83.2C962.6 83.1 961.8 83 961 82.9C964.7 90.8 968.2 99.7 968.9 108.4C969.6 117.8 964.4 125 958.7 131.9C957.5 133.4 959.6 135.5 960.8 134C966.5 127 972.1 119.6 971.9 110.2C971.7 100.3 967.6 90.2 963.5 81.4C963.1 80.5 961.8 80.4 961.1 81.1C955.9 86.7 949.7 91.1 942.5 93.7C936.4 95.9 930 97.1 924.1 100C913.2 105.3 904.3 114 898.6 124.6C897.9 126.3 900.5 127.8 901.4 126.1Z" fill="#5222D0"/>
<path d="M964.4 126.7C971.6 140.7 970.3 157.3 961.1 170C960 171.6 962.6 173.1 963.7 171.5C973.6 157.9 974.7 140.1 967 125.2C966.1 123.5 963.5 125 964.4 126.7Z" fill="#5222D0"/>
<path opacity="0.14" d="M927.2 142.9C927.5 147.8 927.7 154.9 927.2 163.4C926.2 178.6 925.4 191.7 918.7 204C910.3 219.3 895.9 227.3 886.3 231.3C890.9 231.6 898.3 231.4 906.8 228.6C913.8 226.3 919.1 223 922.5 220.4C924.4 227.9 926.4 235.4 928.3 242.9C931.3 239.3 934.2 235.6 937.2 232C934.6 226.8 932 221.5 929.4 216.3C931.5 212.9 933.5 209.3 935.5 205.4C939.1 198.6 942 192.1 944.4 185.9C945.7 186.4 949.5 187.7 952.9 185.9C956.7 183.9 957.6 179.4 958.4 175.3C959.2 171 961.4 159.5 954.6 154.5C951.8 152.4 946.9 151 943 153.1C940.9 154.3 939.8 156.1 939.2 157.2C938.7 153.1 938.3 149 937.8 144.9C934.3 144.3 930.7 143.6 927.2 142.9Z" fill="#666666"/>
<path opacity="0.2" d="M904.3 125.9C909.9 119.8 916.6 111.1 922.4 99.6C926.5 91.4 929.2 83.8 930.9 77.4C935.4 85.5 935 92 934.7 94.8C933 107.6 921.4 115.6 914.9 120.1C910.8 122.9 907 124.7 904.3 125.9Z" fill="#212121"/>
<path opacity="0.16" d="M924.8 137.1C930.5 135.1 937.2 132.2 944.3 127.9C957.2 120 965.9 110.6 971.3 103.7C972 107.9 972.7 116.2 968.2 123.8C961 136.2 943.3 142.2 924.8 137.1Z" fill="#212121"/>
<path opacity="0.22" d="M859.3 131.7C859.1 127.5 859.4 121.5 861.3 114.6C865.8 98.8 877 87 878.7 88C880.1 88.8 876.7 98.2 859.3 131.7Z" fill="#212121"/>
<path d="M864.2 196.1C879.1 196.8 893.6 193.8 907 187.2C908.3 186.6 907.2 184.6 905.9 185.3C892.9 191.7 878.7 194.6 864.3 193.9C862.7 193.8 862.8 196 864.2 196.1Z" fill="#161616"/>
<path d="M865.7 196.5C867.7 200.1 869.1 204 869.9 208C870.2 209.4 872.3 208.8 872.1 207.4C871.3 203.2 869.8 199.1 867.7 195.3C867 194.1 865 195.3 865.7 196.5Z" fill="#161616"/>
<path d="M870.1 208.1C876.1 213.9 885.8 211 892.2 207.3C899.9 203 905.5 195.8 907.4 187.2C907.7 185.8 905.5 185.2 905.2 186.6C903.6 193.7 899.5 199.7 893.5 203.9C887.8 207.8 877.5 212.2 871.7 206.5C870.7 205.5 869.1 207.1 870.1 208.1Z" fill="#161616"/>
<path d="M868.7 200.6C875.5 202.4 883.3 200.4 889.8 198.4C896.1 196.5 901.9 193.4 906.3 188.4C907.3 187.3 905.7 185.7 904.7 186.8C900.5 191.5 895.2 194.4 889.2 196.2C883.1 198 875.6 200.1 869.3 198.4C867.9 198.1 867.3 200.3 868.7 200.6Z" fill="#161616"/>
<path d="M869.7 201.7C870.5 203.6 871.3 205.5 872.1 207.4C872.6 208.6 874.6 207.7 874.2 206.5C873.5 204.7 873 203 872.6 201.1C872.1 201.6 871.7 202 871.2 202.5C873.6 202.9 876 203.1 878.5 203.1C879.7 203.1 880.1 201.1 878.8 200.9C876.5 200.5 874.7 200.6 872.4 201.3C871.7 201.5 871.3 202.3 871.7 203C872.3 203.9 873 204.9 873.6 205.8C874.4 207 876.2 206 875.5 204.7C875.2 203.8 874.9 202.9 874.6 202.1C873.9 202.4 873.2 202.7 872.5 203C873.5 204.3 873.9 205.7 873.5 207.2C874.2 207 874.9 206.8 875.6 206.6C874.2 204.3 873 207 872.7 207.7C872.4 208.6 873.6 209.6 874.4 209C882.6 202.8 892.2 199.7 901.9 196.7C903.3 196.3 902.7 194.1 901.3 194.5C891.4 197.5 881.6 200.7 873.3 207C873.9 207.4 874.4 207.8 875 208.3C875.4 207.4 876.6 207.2 876.8 205.8C877 204.6 876.5 202.8 875.2 202.4C871.6 201.2 872.9 206.3 873.8 207.7C874.4 208.7 875.8 208.2 875.9 207.1C876.1 205 875.7 203.5 874.6 201.8C873.9 200.8 872.2 201.4 872.5 202.7C872.9 204.4 872.9 204.3 873.6 205.9C874.2 205.5 874.9 205.1 875.5 204.8C874.9 203.9 874.2 202.9 873.6 202C873.4 202.6 873.2 203.1 872.9 203.7C874.6 203 876.3 202.9 878.1 203.3C878.2 202.6 878.3 201.8 878.4 201.1C876.1 201.1 874.1 201 871.7 200.6C870.8 200.4 870.1 201.1 870.3 202C870.7 203.9 871.2 205.6 871.9 207.4C872.6 207.1 873.3 206.8 874 206.5C873.2 204.6 872.4 202.7 871.6 200.8C871.1 199.2 869.1 200.4 869.7 201.7Z" fill="#161616"/>
<path d="M876.1 205.3C879.6 203.2 883.2 201.6 887.1 200.2C886.8 199.5 886.5 198.8 886.2 198.1C882.7 199.7 879.2 201.3 875.8 202.8C874.7 203.3 875.5 205.3 876.7 204.9C886.1 201.2 895.4 197.4 903.9 191.8C903.3 191.4 902.8 191 902.2 190.5C900.9 194 895.1 194.4 892.1 195.5C889.6 196.4 887.2 197.6 884.7 198.5C881.2 199.7 877.1 199.5 874.4 202.5C873.4 203.6 875 205.2 876 204.1C878.2 201.6 882.3 201.7 885.3 200.7C888.3 199.7 891.2 198.2 894.3 197.2C898.5 195.9 902.7 195.8 904.4 191.2C904.7 190.3 903.5 189.4 902.7 189.9C894.4 195.3 885.2 199.1 876 202.7C876.3 203.4 876.6 204.1 876.9 204.8C880.4 203.2 883.9 201.6 887.3 200.1C888.5 199.6 887.6 197.6 886.4 198C882.4 199.4 878.6 201.2 874.9 203.3C873.7 204.1 874.9 206.1 876.1 205.3Z" fill="#161616"/>
<path d="M903.1 194.3C903.1 194.2 903 194.1 903 194C903 193.9 903 194 903 194.2C902.9 194.3 902.7 194.5 902.6 194.6H902.7C902.4 194.6 902.1 194.7 901.8 194.7C901.3 194.6 901.3 193.7 901.2 194.3C901.2 194.5 901.2 194.6 901.3 194.8C901.4 195.2 901.6 195.4 902 195.7C902.5 196.1 903.3 195.8 903.5 195.3C903.8 194.7 903.6 194.1 903.1 193.8C903.1 193.8 903 193.8 903 193.7C903.1 193.8 903.3 194 903.4 194.1C903.5 194.4 903.5 194.4 903.5 194.2C903.5 194.1 903.5 194 903.5 194C903.5 193.7 903.4 193.4 903.3 193.2C903 192.8 902.6 192.5 902.1 192.5C900.8 192.5 900.6 194 901 194.9C901.2 195.5 901.7 195.9 902.4 195.7C902.9 195.5 903.4 194.8 903.1 194.3Z" fill="#161616"/>
<path d="M903.3 185.2C905.2 186 906.8 187.3 907.9 189.1C908.6 190.3 910.6 189.2 909.8 188C908.4 185.7 906.4 184 903.9 183.1C902.5 182.5 901.9 184.7 903.3 185.2Z" fill="#161616"/>
<path d="M876 209.7C883.9 204.1 892.6 200.2 902 198.1C903.4 197.8 902.8 195.6 901.4 195.9C891.7 198 882.9 202 874.8 207.7C873.7 208.6 874.8 210.6 876 209.7Z" fill="#161616"/>
<path d="M874 207.9C883.8 207.4 892.9 204.4 901 198.9C902.2 198.1 901.1 196.1 899.9 197C892.1 202.3 883.4 205.3 874 205.7C872.5 205.8 872.5 208 874 207.9Z" fill="#161616"/>
<path d="M883.1 205.4C888.6 204.2 893.7 202.1 898.5 199.1C899.7 198.3 898.6 196.4 897.4 197.2C892.8 200.1 887.9 202.1 882.6 203.3C881.1 203.5 881.7 205.7 883.1 205.4Z" fill="#161616"/>
<path d="M876.2 209.3C884.2 209.1 891.6 206.8 898.2 202.3C899.4 201.5 898.3 199.5 897.1 200.4C890.8 204.7 883.8 206.9 876.2 207.1C874.8 207.1 874.8 209.4 876.2 209.3Z" fill="#161616"/>
<path d="M876.2 209.1C876.1 210.8 877.7 211 879 210.8C882 210.4 884.9 209.7 887.8 209C889.2 208.6 888.6 206.5 887.2 206.8C885.7 207.2 884.2 207.5 882.6 207.8C881.9 207.9 878.5 208.1 878.4 209C878.6 207.7 876.3 207.7 876.2 209.1Z" fill="#161616"/>
<path d="M895.3 220.8C896.3 218 905.3 218.6 913.1 219.6C913.1 218.1 913.4 215.9 914.3 213.5C915 211.6 916.1 209.7 920.1 205.3C924.4 200.6 926.6 198.3 929.4 196.6C931.5 195.3 935 193.6 939.9 192.8C941.9 193.5 944 194.2 946 194.8C946.6 192.9 947.8 189.3 950.1 182.3C951.6 177.6 952.5 175.2 954.5 174.4C956.5 173.7 959.2 174.4 960.6 176.1C962.6 178.6 960.8 182.2 959.7 188.3C959.1 191.8 959.6 191.2 959.4 204.3C959.2 217.7 958.7 217.6 958.8 223.2C958.9 228.4 959.6 235.8 962 244.7C964.2 243.7 967.7 242.6 971.9 242.7C981.7 242.8 988.6 249.2 993.7 254.1C1003.7 263.6 1008 274.1 1010.9 281.5C1016.5 295.8 1017.2 307.7 1017.3 312.9C1017.4 321 1017.6 328.6 1013.5 337.4C1012.2 340.2 1008.6 347.7 1000.4 353.4C997 355.8 990.6 360.2 982.3 359.5C977.5 359.1 973.2 357.1 968.6 353.4C953.2 340.9 946.1 318.2 943.9 310.3C939.7 295.9 935.1 275 934.3 248.9C932.1 248.8 929.5 248.3 926.7 247.2C916.4 242.9 912.4 232.6 911.6 230C909.5 230.1 902 230 897.3 224.8C896.3 223.6 894.9 222.1 895.3 220.8Z" fill="white"/>
<path d="M909.2 227.8C903.9 227.4 897.8 225.4 896.4 219.6C896.1 220.2 895.7 220.8 895.4 221.4C903.1 219.8 910.8 222.1 918.5 221C920.4 220.7 919.6 217.8 917.7 218.1C910 219.2 902.3 216.9 894.6 218.5C893.8 218.7 893.4 219.6 893.6 220.3C895.3 227.5 902.6 230.2 909.3 230.7C911.2 230.9 911.2 227.9 909.2 227.8Z" fill="#161616"/>
<path d="M914.9 217.1C913.7 210 924.6 210.4 928.7 211.5C930.6 212 931.4 209.1 929.5 208.6C922.8 206.8 910.4 208.1 912 217.8C912.3 219.8 915.2 219 914.9 217.1Z" fill="#161616"/>
<path d="M919.2 210.2C920.1 206.7 922 203.5 925.4 201.9C929.4 200.1 933.4 201.9 937.1 203.5C938.8 204.3 940.4 201.7 938.6 200.9C934 198.8 929.1 196.8 924.2 199.1C920 201 917.4 205 916.3 209.4C915.9 211.3 918.8 212.1 919.2 210.2Z" fill="#161616"/>
<path d="M929.7 198.2C929.5 198 932.9 195.2 933.4 194.9C934.8 194.2 936.4 193.8 938 193.8C941.9 193.8 945.4 195.7 948.5 197.7C950.1 198.7 951.6 196.2 950 195.1C945 191.9 938.9 189.4 933 191.8C930.5 192.8 924.5 197.3 927.5 200.4C928.9 201.7 931 199.6 929.7 198.2Z" fill="#161616"/>
<path d="M959.4 223.5C960.6 215 961 206.6 960.4 198C960.1 193.1 960.6 189.3 961.8 184.5C962.4 182 962.9 179.4 962.2 176.9C961.1 173.5 957.3 170.7 953.7 172.5C951.4 173.7 950.8 176.4 950 178.7C948.5 183 947.1 187.4 945.7 191.7C945.1 193.5 948 194.3 948.6 192.5C949.4 190 950.2 187.5 951.1 185.1C951.6 183.6 952.4 178.6 953.6 177.7C958.6 177.1 960.6 178.5 959.4 182.1C959.1 183.3 958.8 184.4 958.4 185.6C957.9 187.5 957.4 189.3 957.2 191.2C956.8 196 957.7 201 957.7 205.9C957.7 211.6 957.3 217.2 956.5 222.8C956.3 224.6 959.2 225.4 959.4 223.5Z" fill="#161616"/>
<path d="M907.6 231C912.8 231.4 914.1 236.8 916.5 240.4C917.7 242.3 919.2 244 921 245.4C924.5 248.2 928.6 249.7 933.1 250.1C935 250.3 935 247.3 933.1 247.1C925.5 246.4 920.7 242 917.2 235.6C915 231.6 912.4 228.4 907.6 228.1C905.6 227.9 905.7 230.9 907.6 231Z" fill="#161616"/>
<path d="M932.6 248.8C935.7 259.5 936 270.5 936.9 281.5C937.7 290.8 939.2 300.1 941.8 309C946.9 326.2 955.7 342.1 968.4 354.9C969.8 356.3 971.9 354.1 970.5 352.8C957.4 339.6 948.5 323 943.8 305.1C938.8 286.3 940.9 266.6 935.5 248C934.9 246.2 932 247 932.6 248.8Z" fill="#161616"/>
<path d="M956.5 222.3C958 239 962.9 255.3 971.1 269.9C979.1 284.1 991.4 296.4 994.2 313C994.5 314.9 997.4 314.1 997.1 312.2C994.6 297.1 984.3 285.6 976.4 273C966.9 257.7 961.2 240.3 959.5 222.4C959.3 220.4 956.3 220.4 956.5 222.3Z" fill="#161616"/>
<path d="M963.4 245.5C978.3 240.7 993 252.7 1000.8 264.3C1009 276.5 1012.7 291.5 1014.4 306C1016 320.2 1014.9 335.7 1005.4 347.1C996.6 357.7 980.3 361.9 969.2 352.3C967.7 351 965.6 353.2 967.1 354.4C977.6 363.5 993.1 362.2 1003.4 353.4C1016 342.7 1019.1 325.3 1017.8 309.6C1016.4 292.5 1012.1 274.2 1001.7 260.2C993 248.6 977.8 237.7 962.7 242.5C960.8 243.2 961.5 246.1 963.4 245.5Z" fill="#161616"/>
<path opacity="0.15" d="M956.9 177.9C951.6 179.9 952 193.5 952.4 203.3C953.8 232.4 954.5 247 960.2 269.4C968.4 301.3 975.9 309.6 980 313.5C985.9 319.1 997.2 327.2 1002 324C1009.6 318.9 997.5 288.5 994.5 281.1C984.4 255.9 982.2 247.5 974.7 244.9C970.2 243.4 965.8 244 962.7 244.9C958.4 235.7 957.7 228.3 957.8 223.2C957.9 218.9 958.6 218.9 958.9 212.4C959.5 200.6 957.4 199.9 958.5 192.2C959.6 184.7 962.5 180.2 960.4 178.4C959.7 177.4 958 177.5 956.9 177.9Z" fill="#666666"/>
<path opacity="0.15" d="M965.5 250C972.6 256.9 977.5 263.5 980.8 268.7C988.9 281.2 992.3 292.4 993.5 296.7C995.2 302.8 996 308.1 996.5 312C994.8 306.8 991.6 299 986 290.3C981.5 283.3 978.6 280.9 974.8 274.6C971.7 269.4 967.8 261.4 965.5 250Z" fill="#666666"/>
</svg>
