<svg width="1269" height="960" viewBox="0 0 1269 960" fill="none" xmlns="http://www.w3.org/2000/svg">
<path d="M41.0999 263.6C58.8999 249.1 82.9999 247 105 251C128.5 255.2 149.9 266.5 171.6 276C194 285.9 216.8 293 241.4 294.2C265.9 295.5 290.4 292 314.2 286C363.9 273.5 409.5 249.5 457.2 231.4C481.1 222.3 505.8 214.4 531.2 210.8C545 208.8 558.9 208.3 572.8 209.8C586 211.2 598.9 214.3 611.8 217.5C640.3 224.6 668.7 230.8 697.9 234.3C728 237.9 758.4 239.1 788.7 238.1C790.6 238 790.6 235 788.7 235.1C733.7 237.1 678.7 231.2 625.3 217.9C599.8 211.5 574.5 204.9 548 206.2C522.3 207.5 496.9 214.3 472.7 222.6C424.2 239.3 378.6 263.8 329.4 278.7C304.4 286.2 278.5 291.4 252.3 291.5C225.7 291.6 200.7 285.4 176.4 274.8C152.4 264.4 128.9 251.5 102.8 247.5C80.5999 244.1 56.8999 246.8 38.9999 261.4C37.4999 262.7 39.5999 264.9 41.0999 263.6Z" fill="#E8E8E8"/>
<path d="M579.7 172.2C649 202.1 727.7 197.1 798.6 175.4C837 163.6 875.2 147.8 916.1 147.9C957.3 148 996.4 162.4 1036.7 168.8C1073.3 174.6 1113.6 173.9 1145 151.9C1146.6 150.8 1145.1 148.2 1143.5 149.3C1114.5 169.6 1077.7 171.4 1043.7 166.8C1005.2 161.6 968.2 148.2 929.3 145.4C890.4 142.6 853.7 154.3 817.2 166.3C780.8 178.2 744 187.5 705.7 189.7C663.3 192.2 620.4 186.5 581.3 169.6C579.5 168.8 578 171.4 579.7 172.2Z" fill="#E8E8E8"/>
<path d="M2.9001 421.5C24.8001 405.9 50.7001 396.3 77.5001 393.7C90.9001 392.4 104.4 392.9 117.6 395.2C131.3 397.6 144.5 402.2 157.6 406.8C181.9 415.2 206 421.6 231.6 415.7C253.7 410.6 273.7 399.1 293.3 388.2C316.4 375.3 340.4 362.1 367.2 359.7C369.1 359.5 369.1 356.5 367.2 356.7C319.4 361 283.5 396.9 238.9 410.6C227.6 414.1 215.8 415.9 204 415.2C189.5 414.3 175.4 409.8 161.8 405.1C148.1 400.4 134.4 395.3 120 392.6C107.6 390.3 94.9001 389.6 82.4001 390.4C53.4001 392.2 25.1001 402.1 1.4001 419C-0.199901 420 1.3001 422.6 2.9001 421.5Z" fill="#E8E8E8"/>
<path d="M268 459.9C306.9 418.8 364.1 402 419.4 401.5C451.5 401.2 483.5 405.8 514.8 412.5C544.6 418.8 573.5 427 604.3 422.9C636.5 418.6 666.6 404.8 695.4 390.3C697.1 389.4 695.6 386.8 693.9 387.7C666.5 401.5 638 414.6 607.5 419.4C591.9 421.8 576.2 421.6 560.6 419.1C544.8 416.6 529.4 412.4 513.7 409.1C456.5 397.1 395.6 392 339.4 411.5C311.7 421.1 286.1 436.4 265.9 457.7C264.6 459.2 266.7 461.3 268 459.9Z" fill="#E8E8E8"/>
<path d="M731.5 489.8C747.8 495.5 764.5 490.2 779.4 483.1C796.1 475.1 811.8 465.2 828.9 458.1C846 451 864.4 446.2 883 448.5C900 450.6 915.7 458.2 930.6 466.3C944.7 474 958.6 482.4 973.6 488.3C990.3 494.8 1008.3 497.9 1026.2 497.5C1062.9 496.7 1094.1 478.4 1127.6 466C1158.9 454.4 1200.6 449.2 1225.7 476.4C1227 477.8 1229.1 475.7 1227.8 474.3C1208.1 453 1176.7 450.6 1149.7 456.3C1114.5 463.7 1084.1 485.2 1048.7 492.1C1029.8 495.8 1010 495.3 991.3 490.8C973.9 486.6 958.3 478.4 942.7 469.7C928.6 461.8 914.3 453.6 898.8 448.9C882.7 444 865.9 443.9 849.6 447.9C829.7 452.8 811.4 462.5 793.5 472.3C775 482.3 753.6 494.5 732.1 487C730.5 486.3 729.7 489.2 731.5 489.8Z" fill="#E8E8E8"/>
<path d="M994.8 538C1036.2 540.5 1070.3 512.4 1109.4 503.9C1119.8 501.6 1130.8 500.6 1141.4 502.4C1150.9 504 1159.5 507.9 1167.7 512.9C1181.8 521.5 1195.5 532.6 1212.7 533.8C1233.6 535.2 1252.1 522.2 1267.7 510C1269.2 508.8 1267.1 506.7 1265.6 507.9C1250.4 519.7 1232.2 532.6 1211.8 530.7C1194.1 529.1 1180.1 516.3 1165.2 508C1130.9 488.8 1094.2 503.9 1061.3 518.4C1040.2 527.6 1018.3 536.5 994.9 535.1C992.9 534.9 992.9 537.9 994.8 538Z" fill="#E8E8E8"/>
<path d="M50.9001 729.2C65.4001 715.4 86.9001 710 106.2 715.3C126.4 720.8 139.4 738.2 155.6 750.2C187.9 774.1 231.9 770.3 267.4 756.2C309.3 739.6 344.2 709.6 386 692.7C406.4 684.4 428.5 679.1 450.7 680.6C472.3 682.1 490.7 691.4 507.8 704C524.8 716.5 540.8 731.3 560.7 739.2C582 747.6 606 745.8 626 734.7C627.7 733.8 626.2 731.2 624.5 732.1C604.1 743.4 579.7 744.4 558.4 735C540.6 727.1 526 713.9 510.5 702.3C494.6 690.4 477.7 681.1 457.7 678.3C437.1 675.5 416.1 679 396.6 685.5C353.9 699.8 318.7 729.3 278.2 748.2C240.8 765.7 192.7 773.9 157.2 747.6C139.5 734.5 125.6 715.8 102.8 711.4C83.5001 707.7 63.0001 713.5 48.8001 727.1C47.4001 728.4 49.5001 730.6 50.9001 729.2Z" fill="#E8E8E8"/>
<path d="M435.1 785C451.6 774.3 471.2 769.2 490.9 770.8C508.9 772.3 525.9 779 542.4 785.7C558.4 792.2 574.6 799 591.8 801.8C609.8 804.7 628 802.5 645.3 797.2C666 790.8 685.2 780.6 704.1 770.3C705.8 769.4 704.3 766.8 702.6 767.7C668 786.4 630 806.1 589.4 798.3C555.5 791.8 525.7 770.8 490.8 767.8C470.6 766.1 450.4 771.4 433.5 782.4C432 783.5 433.5 786.1 435.1 785Z" fill="#E8E8E8"/>
<path d="M812.6 852.8C834.4 832.4 861.2 817.7 890.1 810.2C904.8 806.4 919.9 804.5 935.1 804.6C952 804.8 968.8 807.5 985.6 809.1C1018.2 812.2 1049.5 806.7 1080 794.8C1109.1 783.5 1136.5 763.9 1167.8 759.1C1204.4 753.5 1232.7 777.8 1256 802.7C1257.3 804.1 1259.4 802 1258.1 800.6C1238.9 780.1 1216.3 758.9 1187.1 755.6C1155.1 752 1126 770.8 1098.2 783.7C1066.2 798.6 1031.7 808.8 996.2 806.8C978.5 805.8 961 802.6 943.2 801.7C928.1 800.9 912.9 802 898.1 805.1C865.4 811.8 834.9 827.6 810.5 850.5C809.1 852 811.2 854.1 812.6 852.8Z" fill="#E8E8E8"/>
<path d="M227.1 220.9C255.1 242.6 291.6 233 322.1 223C359.9 210.5 398.2 202.6 438.2 201.8C440.1 201.8 440.1 198.8 438.2 198.8C401.4 199.5 365.1 205.8 330.1 217.2C298.4 227.5 259 242 229.2 218.8C227.7 217.6 225.6 219.7 227.1 220.9Z" fill="#161616"/>
<path d="M496.7 39.1001C530.5 36.6001 563.1 27.2001 595.8 19.3001C629.8 11.0001 663.9 5.50008 699 9.30008C734.4 13.1001 768.7 23.8001 803.4 31.4001C836.8 38.8001 870.7 42.2001 904.9 40.5001C943.4 38.6001 981.4 30.5001 1017.3 16.7001C1019.1 16.0001 1018.3 13.1001 1016.5 13.8001C951.2 38.9001 879.9 44.2001 811.5 30.0001C777.4 22.9001 744 12.5001 709.5 7.50008C676.2 2.70008 643.7 5.40008 610.9 12.6001C572.9 20.9001 535.6 33.1001 496.7 36.0001C494.8 36.3001 494.8 39.3001 496.7 39.1001Z" fill="#161616"/>
<path d="M1037.9 289.7C1067.1 278.9 1097.4 294.3 1126.6 297.1C1142.3 298.6 1157.9 297.1 1173.2 293.5C1188.2 289.9 1202.8 284.6 1218.1 282.3C1234.5 279.8 1252 280.8 1266.2 290.1C1267.8 291.2 1269.3 288.6 1267.7 287.5C1242.5 271.1 1211.7 279.9 1185.1 287.3C1168.4 292 1151.7 295.4 1134.3 294.7C1117.7 294.1 1101.8 289.5 1085.6 286.1C1069.5 282.8 1052.9 281 1037.2 286.8C1035.3 287.4 1036.1 290.3 1037.9 289.7Z" fill="#161616"/>
<path d="M18.5999 593.1C43.9999 570.5 79.7999 590.5 108 594.8C140.6 599.8 173.2 590.8 204.3 582.1C206.2 581.6 205.4 578.7 203.5 579.2C169.1 588.8 133.5 598.3 97.7999 589.8C71.6999 583.6 39.7999 570.4 16.3999 591C14.9999 592.2 17.0999 594.3 18.5999 593.1Z" fill="#161616"/>
<path d="M338.4 873.901C346.5 864.301 359 859.101 371.6 860.701C378.8 861.601 385.4 864.901 392 867.801C397.5 870.201 403.1 872.201 408.8 873.801C433.3 880.601 459.6 879.601 483.5 871.201C485.3 870.601 484.5 867.701 482.7 868.301C455.9 877.601 426.3 877.601 399.6 867.601C388 863.301 377.2 856.401 364.3 857.401C353.4 858.201 343.3 863.401 336.2 871.701C335 873.301 337.2 875.401 338.4 873.901Z" fill="#161616"/>
<path d="M508.6 865.7C526.8 860.4 545.5 857.8 564.5 857.9C566.4 857.9 566.4 854.9 564.5 854.9C545.3 854.8 526.3 857.5 507.8 862.8C506 863.4 506.7 866.3 508.6 865.7Z" fill="#161616"/>
<path d="M532.4 88.3999C550.1 102 567 116.6 583.2 132.1C584.6 133.4 586.7 131.3 585.3 130C569 114.4 551.8 99.6999 533.9 85.8999C532.4 84.5999 530.9 87.1999 532.4 88.3999Z" fill="#161616"/>
<path d="M359 141.1C360.7 131.7 362.5 122.3 364.2 112.8C364.6 110.9 361.7 110.1 361.3 112C359.6 121.4 357.8 130.8 356.1 140.3C355.8 142.2 358.7 143 359 141.1Z" fill="#161616"/>
<circle cx="935.6" cy="194.9" r="5.8" fill="#EC615B"/>
<circle cx="177.8" cy="672.8" r="6.9" fill="#EC615B"/>
<circle cx="144.4" cy="38.8" r="15.8" fill="#EC615B"/>
<circle cx="176.1" cy="64.5998" r="5.3" fill="#EC615B"/>
<circle cx="478.9" cy="947.6" r="11.8" fill="#EC615B"/>
<circle cx="1027.3" cy="64.7999" r="10.4" fill="#EC615B"/>
<circle cx="1040.6" cy="45.9" r="6.4" fill="#EC615B"/>
<circle cx="160.3" cy="22.1999" r="15.8" fill="#5222D0"/>
<circle cx="152.4" cy="681.1" r="7.9" fill="#5222D0"/>
<circle cx="430.1" cy="929.5" r="7" fill="#5222D0"/>
<circle cx="988.9" cy="22.8998" r="16.6" fill="#5222D0"/>
<circle cx="715.6" cy="287.3" r="3.6" fill="#5222D0"/>
<path d="M678.7 76.6001C676.6 81.5001 674.6 86.5001 672.5 91.4001C671.8 93.2001 674.7 94.0001 675.4 92.2001C677.5 87.3001 679.5 82.3001 681.6 77.4001C682.3 75.6001 679.4 74.8001 678.7 76.6001Z" fill="#5222D0"/>
<path d="M678.2 79.0002C681.9 82.9002 684.8 87.3002 686.7 92.3002C687.4 94.1002 690.3 93.3002 689.6 91.5002C687.4 86.0002 684.3 81.2002 680.3 76.9002C679 75.5002 676.8 77.6002 678.2 79.0002Z" fill="#5222D0"/>
<path d="M673.3 93.9998C676.2 99.3998 679.5 104.5 683.2 109.3C684.4 110.8 687 109.3 685.8 107.8C682.1 102.9 678.8 97.7998 675.9 92.4998C674.9 90.7998 672.4 92.2998 673.3 93.9998Z" fill="#5222D0"/>
<path d="M686.9 92.5C685.7 98.1 684.6 103.7 683.4 109.3C683 111.2 685.9 112 686.3 110.1C687.5 104.5 688.6 98.9 689.8 93.3C690.2 91.5 687.3 90.7 686.9 92.5Z" fill="#5222D0"/>
<path d="M960.4 504.7C958 509.1 956.4 513.8 955.7 518.8C955.4 520.7 958.3 521.5 958.6 519.6C959.3 514.9 960.7 510.5 963 506.3C963.9 504.5 961.3 503 960.4 504.7Z" fill="#5222D0"/>
<path d="M960.2 505.6C962.2 510.9 964.5 516 967.1 520.9C968 522.6 970.6 521.1 969.7 519.4C967.2 514.7 965 509.8 963.1 504.8C962.4 503 959.5 503.8 960.2 505.6Z" fill="#5222D0"/>
<path d="M955.1 520.9C957.7 524.6 960.2 528.3 962.8 532C963.9 533.6 966.5 532.1 965.4 530.5C962.8 526.8 960.3 523.1 957.7 519.4C956.6 517.8 954 519.3 955.1 520.9Z" fill="#5222D0"/>
<path d="M966 520.4C963.9 523.3 962.9 526.6 962.9 530.1C962.9 532 965.9 532 965.9 530.1C965.9 527.1 966.8 524.3 968.6 521.9C969.7 520.3 967.1 518.8 966 520.4Z" fill="#5222D0"/>
<path d="M123.9 787.8C121.2 793.7 118.5 799.5 115.8 805.4C115 807.1 117.6 808.7 118.4 806.9C121.1 801 123.8 795.2 126.5 789.3C127.3 787.6 124.8 786.1 123.9 787.8Z" fill="#5222D0"/>
<path d="M124.4 788.6C127 794.8 129.6 801 132.2 807.2C132.9 809 135.8 808.2 135.1 806.4C132.5 800.2 129.9 794 127.3 787.8C126.6 786 123.7 786.8 124.4 788.6Z" fill="#5222D0"/>
<path d="M115.1 808.1C117.8 813.4 120.4 818.8 123.1 824.1C123.6 825 124.8 825 125.5 824.4C127.6 822.7 128.6 819.8 129.7 817.5C131.3 814.3 132.9 811.1 134.5 807.9C135.4 806.2 132.8 804.7 131.9 806.4C130.5 809.2 129 812 127.6 814.8C126.4 817.2 125.3 820.5 123.2 822.2C124 822.3 124.8 822.4 125.6 822.5C122.9 817.2 120.3 811.8 117.6 806.5C116.8 804.9 114.2 806.4 115.1 808.1Z" fill="#5222D0"/>
<path d="M1130.4 323C1127.3 328.9 1125.4 335.1 1124.5 341.7C1124.2 343.6 1127.2 343.6 1127.5 341.7C1128.3 335.6 1130.1 329.9 1132.9 324.5C1133.9 322.8 1131.3 321.3 1130.4 323Z" fill="#5222D0"/>
<path d="M1130 326.5C1133.1 332.5 1136.1 338.5 1139.2 344.5C1140.1 346.2 1142.7 344.7 1141.8 343C1138.7 337 1135.7 331 1132.6 325C1131.7 323.3 1129.1 324.8 1130 326.5Z" fill="#5222D0"/>
<path d="M1124.7 342.1C1127.2 348.1 1130.2 353.7 1133.8 359C1134.9 360.6 1137.5 359.1 1136.4 357.5C1132.9 352.4 1129.9 347 1127.6 341.3C1126.9 339.6 1124 340.4 1124.7 342.1Z" fill="#5222D0"/>
<path d="M1138.3 343.4C1136.5 349 1135 354.7 1134 360.6C1133.7 362.5 1136.6 363.3 1136.9 361.4C1137.9 355.6 1139.3 349.9 1141.2 344.2C1141.8 342.4 1138.9 341.6 1138.3 343.4Z" fill="#5222D0"/>
<path d="M1118.8 808.5C1117.6 812.5 1116.5 816.4 1115.3 820.4C1114.8 822.3 1117.6 823 1118.2 821.2C1119.4 817.2 1120.5 813.3 1121.7 809.3C1122.3 807.4 1119.4 806.6 1118.8 808.5Z" fill="#5222D0"/>
<path d="M1118.6 810.7C1120.4 814.7 1122.3 818.7 1124.1 822.6C1124.9 824.4 1127.5 822.8 1126.7 821.1C1124.9 817.1 1123 813.1 1121.2 809.2C1120.4 807.4 1117.8 808.9 1118.6 810.7Z" fill="#5222D0"/>
<path d="M1116.1 822.3C1117 827 1119.2 831.2 1122.3 834.8C1123.6 836.3 1125.7 834.1 1124.4 832.7C1121.6 829.5 1119.8 825.7 1119 821.6C1118.6 819.6 1115.7 820.4 1116.1 822.3Z" fill="#5222D0"/>
<path d="M1124 821.9C1122.7 826.1 1122.1 830.4 1122.2 834.7C1122.3 836.6 1125.3 836.6 1125.2 834.7C1125.1 830.6 1125.6 826.6 1126.9 822.7C1127.5 820.9 1124.6 820.1 1124 821.9Z" fill="#5222D0"/>
<path d="M86.2001 280.9C84.0001 285.7 81.9001 290.5 79.7001 295.3C78.9001 297 81.5001 298.6 82.3001 296.8C84.5001 292 86.6001 287.2 88.8001 282.4C89.6001 280.7 87.0001 279.1 86.2001 280.9Z" fill="#5222D0"/>
<path d="M80.1001 297.8C82.4001 303.7 84.6001 309.5 86.9001 315.4C87.6001 317.2 90.5001 316.4 89.8001 314.6C87.5001 308.7 85.3001 302.9 83.0001 297C82.3001 295.2 79.4001 296 80.1001 297.8Z" fill="#5222D0"/>
<path d="M86.2 281.1C89.3 286.5 92.4 292 95.5 297.4C96.5 299.1 99 297.6 98.1 295.9C95 290.5 91.9 285 88.8 279.6C87.8 277.9 85.2 279.4 86.2 281.1Z" fill="#5222D0"/>
<path d="M96.2001 296.1C93.0001 302.1 90.2001 308.3 87.8001 314.6C87.1001 316.4 90.0001 317.2 90.7001 315.4C93.0001 309.3 95.7001 303.3 98.8001 297.6C99.7001 295.9 97.1001 294.4 96.2001 296.1Z" fill="#5222D0"/>
<path d="M840 373.1C842 369.3 845.8 366.7 850.2 366.9C853.8 367 856.5 369.5 859.7 370.7C865.3 372.7 867 369.1 871.2 366.4C876.9 362.6 882.4 371.1 888.5 371C892 370.9 894.9 369.2 895 365.5C894.2 365.9 893.5 366.4 892.7 366.8C895.8 368.4 898.9 370 901.9 371.7C903.6 372.6 905.1 370 903.4 369.1C900.3 367.5 897.2 365.9 894.2 364.2C893.2 363.7 892 364.3 891.9 365.5C891.6 372.6 877.8 362.5 875.2 362.2C869.3 361.4 867 368.7 861.9 367.9C856.5 367 853.1 363.1 847.3 364.1C842.9 364.9 839.3 367.6 837.3 371.6C836.6 373.3 839.1 374.8 840 373.1Z" fill="#5222D0"/>
<path d="M878.3 352.8C882.8 347.8 889.9 354.1 895 354.7C900.9 355.4 905.5 349.1 911.2 352.3C915.9 355 924.5 361.4 927.9 353.2C928.6 351.4 925.7 350.6 925 352.4C922.6 358.2 914 350.1 911.1 348.9C907.2 347.2 904.6 348.6 901.1 350.3C896.9 352.3 893.9 351.6 889.9 349.8C888.1 349 886.3 348.3 884.3 348C881.2 347.6 878.4 348.2 876.2 350.6C874.9 352.1 877 354.2 878.3 352.8Z" fill="#5222D0"/>
<path d="M797.1 116.9C798.5 114.3 800.1 113.6 801.9 114.8C802.7 115.1 803.5 115.5 804.3 116C805.2 116.4 806.1 117 807 117.3C808.6 117.8 810.2 118 811.8 117.6C816.1 116.4 818.3 111 822.9 111.1C827.2 111.2 830.3 115.3 834.8 113.2C836.7 112.3 838 110.7 839.8 109.7C843.8 107.5 848.7 108.3 852.1 111.1C853.6 112.3 855.7 110.2 854.2 109C849.7 105.3 843.5 104.2 838.3 107.1C836 108.4 834.1 111.2 831.1 110.8C829.4 110.6 827.9 109.4 826.3 108.8C823.9 107.9 821.7 107.6 819.3 108.7C816.3 110.1 814.3 114 811 114.7C806.8 115.6 804 111.3 800.1 111.2C796.4 111.1 792.1 114.7 794.6 118.4C795.6 120 798.2 118.5 797.1 116.9Z" fill="#EC615B"/>
<path d="M830.3 99.2001C831.5 92.7001 842.8 99.0001 846.8 98.3001C849.4 97.9001 851.3 96.1001 853.7 95.2001C857.5 93.7001 861.2 94.3001 864.7 96.4001C866.4 97.4001 867.9 94.8001 866.2 93.8001C863.2 92.0001 860 91.1001 856.6 91.4001C855.1 91.5001 853.7 91.9001 852.4 92.4001C848.4 94.1001 846.8 96.0001 841.8 94.8001C837 93.6001 828.8 91.2001 827.5 98.4001C827 100.3 829.9 101.1 830.3 99.2001Z" fill="#EC615B"/>
<path d="M73.2 460.6C74.5 454.3 83.2 462.9 84.9 464C86.8 465.3 88.9 466.2 91.2 465.7C94.2 465.2 96.5 462.7 99.6 462C104.6 460.9 109.6 462.5 113.2 466.1C114.6 467.5 116.7 465.3 115.3 464C112.2 460.9 108.4 459 104 458.7C101.8 458.5 99.6 458.8 97.5 459.5C94.2 460.6 91.6 463.8 87.6 462.2C83.4 460.5 81.8 456.2 77 455.7C73.9 455.4 71 456.6 70.4 459.8C69.9 461.7 72.8 462.5 73.2 460.6Z" fill="#EC615B"/>
<path d="M106.5 453.4C108.7 450.4 118.8 456.4 121.7 457.1C126.4 458.2 131.2 458.2 136 457.6C137.9 457.3 137.1 454.4 135.2 454.7C126.9 455.8 120.5 453.6 113 450.6C109.6 449.3 106.2 448.8 103.9 451.9C102.8 453.4 105.4 454.9 106.5 453.4Z" fill="#EC615B"/>
<path d="M350.3 663C351.9 660.5 354.4 658.9 357.5 658.9C360.1 658.9 361.7 660.5 364 661.2C366.3 662 368.2 661.5 370.2 660.2C374.1 657.6 376 654.4 381.3 654.6C386.1 654.7 390.7 657 394.9 659.1C396.6 660 398.1 657.4 396.4 656.5C388.5 652.5 378.9 648.7 371.3 655.2C369.6 656.6 369.4 657 366.8 657.5C363.9 658.1 364.2 657.7 362 656.8C360.1 656 358.3 655.7 356.2 655.9C352.5 656.3 349.6 658.4 347.7 661.4C346.7 663.1 349.3 664.6 350.3 663Z" fill="#EC615B"/>
<path d="M383.6 668.8C388.3 664.7 397.2 673.3 403 672.5C406.5 672 408.1 669.4 410.4 667C414.8 662.3 421.4 661.6 426.8 665.1C428.4 666.1 429.9 663.6 428.3 662.5C424.4 660 419.8 659.2 415.3 660.5C413.3 661.1 411.5 662 409.9 663.3C407.5 665.3 406 668.9 402.6 669.5C395.3 670.8 388.4 660.6 381.5 666.7C380.1 668 382.2 670.1 383.6 668.8Z" fill="#EC615B"/>
<path d="M247.2 27.4001C248 24.1001 249.9 21.5001 253.1 20.1001C255.9 18.9001 258.2 19.7001 261.1 19.6001C264.3 19.4001 266.7 17.8001 268.6 15.4001C271.5 11.8001 273.4 8.10012 277.5 5.70012C282.2 3.00012 287.6 2.50012 292.8 4.10012C294.7 4.70012 295.4 1.80012 293.6 1.20012C284 -1.69988 274.5 2.00012 268.7 10.1001C266.4 13.3001 264.7 16.5001 260.3 16.6001C257.6 16.7001 255.3 16.1001 252.7 17.0001C248.3 18.5001 245.3 22.2001 244.3 26.6001C243.8 28.5001 246.7 29.3001 247.2 27.4001Z" fill="#EC615B"/>
<path d="M261.3 38.9001C257 27.5001 277.6 28.1001 283.8 25.9001C291.5 23.2001 298.1 18.4001 304.6 13.6001C306.1 12.5001 304.6 9.90015 303.1 11.0001C298.7 14.3001 294.2 17.5001 289.4 20.1001C283.4 23.3001 277.7 24.3001 271.2 25.3001C264.3 26.4001 255.3 31.2001 258.5 39.6001C259.1 41.4001 262 40.7001 261.3 38.9001Z" fill="#EC615B"/>
<path d="M660.1 612.2C667.7 592.3 680.6 579.3 693.9 565.8C711.4 548.1 743.9 515.2 777 520.4C805.2 524.8 802.1 551.9 840.8 571.6C877.3 590.3 891.3 571.8 927.7 591.9C933.1 594.9 971.2 616.6 979.9 657.6C983.5 674.6 982.6 697.9 975.1 700.1C966.6 702.6 963.7 653.6 929.7 634.4C903.7 619.7 867.9 626.8 865 637.3C861.9 648.4 897.8 655.7 918.1 694.3C927 711.1 928.9 726.4 931.6 747.4C934.1 767.2 936.9 807.8 927.7 810.2C920.1 812.2 916 785.1 888.1 762.9C873.4 751.2 857.7 746.4 826.3 736.8C798 728.2 783.7 724 776 731C764.6 741.4 773.4 767.8 775 772.5C786.2 806.1 814.8 820.1 812.7 823.7C809.9 828.2 757.7 815.2 715.1 773.5C678.7 737.8 638 669.9 660.1 612.2Z" fill="#EC615B"/>
<path d="M986.6 728.1C986.2 730.9 984.1 746.5 993.3 756.5C1003.5 767.5 1015.9 759.1 1028.4 770C1039.9 780 1038.4 795 1041.9 794.7C1045.9 794.4 1052 774.1 1043.4 761.8C1040.7 757.9 1034.1 754.4 1021 747.6C1007.6 740.6 1005.8 740.9 1002.3 737.1C993.6 727.7 994.9 715.4 991.8 715.4C989.4 715.4 987.3 722.8 986.6 728.1Z" fill="#EC615B"/>
<path d="M900.6 845.5C895 853.9 895.6 862.9 896.1 872.4C896.7 882.1 897.1 890 902.8 897.1C909.3 905.2 920.1 908.6 921.5 906.8C922.6 905.4 917.7 901.6 913.3 893.3C912.8 892.3 906.3 880 906.6 865.6C906.9 847.6 917.5 836.9 914.8 835C912.8 833.5 905.1 838.7 900.6 845.5Z" fill="#EC615B"/>
<path d="M940.7 679.7C957.5 690.8 948.3 716.5 959.3 731.5C960.4 733 963 731.5 961.9 730C950.5 714.4 960.2 689 942.2 677.1C940.6 676 939.1 678.6 940.7 679.7Z" fill="#EC615B"/>
<path d="M934.7 607.3C952.7 621.1 965.2 640.8 970.2 662.9C970.6 664.8 973.5 664 973.1 662.1C967.9 639.2 954.9 619 936.3 604.8C934.6 603.5 933.1 606.1 934.7 607.3Z" fill="#5222D0"/>
<path d="M876.7 662.7C891.1 674.5 902.4 689.6 909.4 706.9C910.1 708.7 913 707.9 912.3 706.1C905 688.3 893.7 672.8 878.8 660.6C877.4 659.4 875.2 661.5 876.7 662.7Z" fill="#5222D0"/>
<path d="M916.4 723.4C919.1 730.6 920.9 737.9 921.6 745.5C921.8 747.4 924.8 747.4 924.6 745.5C923.8 737.6 922 730 919.2 722.6C918.7 720.8 915.8 721.6 916.4 723.4Z" fill="#5222D0"/>
<path d="M762.5 740C760 755.1 762.9 770.2 771.1 783.2C772.1 784.8 774.7 783.3 773.7 781.7C766 769.5 763 755.1 765.4 740.8C765.7 738.9 762.8 738.1 762.5 740Z" fill="#5222D0"/>
<path d="M775.1 791.4C778.7 798 783.3 803.9 788.8 809C790.2 810.3 792.3 808.2 790.9 806.9C785.6 801.9 781.2 796.2 777.7 789.9C776.8 788.2 774.2 789.7 775.1 791.4Z" fill="#5222D0"/>
<path d="M660.3 639C659.5 648.5 660.4 657.9 663.1 667.1C663.6 669 666.5 668.2 666 666.3C663.4 657.3 662.5 648.3 663.3 639C663.5 637.1 660.5 637.1 660.3 639Z" fill="#5222D0"/>
<path d="M666.1 677.3C667.7 685.1 670.6 692.3 674.8 699.1C675.8 700.7 678.4 699.2 677.4 697.6C673.4 691 670.6 684.1 669 676.5C668.6 674.7 665.7 675.5 666.1 677.3Z" fill="#5222D0"/>
<path d="M405 52.2002C402.2 59.8002 398.8 70.2002 395.5 82.8002C392.1 95.9002 384.1 130.4 384.9 175.8C385.7 219.6 394.3 251.8 402.2 280.5C414.5 325.3 429.5 357.5 438.4 376.2C438.4 376.2 466.7 436.1 513.6 500.3C521.9 511.6 532.5 525.9 532.5 525.9C540.2 536.2 546.8 544.8 551.4 551C555.1 555.2 559.8 559.9 565.9 564.4C577.3 572.9 588.6 577.2 596.5 579.4C609.5 568.3 622.5 557.1 635.5 546C641.4 551.6 647.4 557.1 653.3 562.7C661.5 554.3 668.8 547.6 674.5 542.7C699.3 521.2 719.8 510.2 724.6 507.6C728.7 505.4 732.2 503.7 734.6 502.6C730.9 495.2 727.2 487.8 723.5 480.3C729.5 475.1 736.4 469.6 744.1 464.2C754.5 456.9 764.5 451 773.6 446.4C773.5 438 772.4 425.3 766.9 411.3C762.8 400.8 757.9 393.7 755.8 390.7C732.7 357.4 800.8 449.2 711.8 322.2C677.3 273 660.1 248.3 652.2 238.1C627.5 205.8 608.1 183.7 594.3 168C567.9 137.9 556 126.7 546.4 118.5C533.3 107.1 518.8 94.8002 496.9 83.4002C483.1 76.3002 471.7 72.4002 455.1 66.7002C434.6 59.7002 417.3 55.1002 405 52.2002Z" fill="white"/>
<path d="M401.9 54.0001C380.2 120.9 380.2 193.1 395.8 261.3C399.7 278.4 404.6 295.3 410.4 311.8C413.3 320.2 416.8 328.4 419.9 336.7C421 339.6 421.2 342.5 422.5 345.4C424.4 349.9 426.4 354.4 428.4 358.9C432.1 367.3 436 375.6 440.1 383.9C444.2 392.1 449.2 399.9 452.9 408.2C454.3 411.3 455.5 414.6 457.1 417.6C459.2 421.4 462.3 424.3 464.5 428C469.1 435.7 473.5 443.6 478.3 451.2C500.2 486.5 525.1 519.8 550.6 552.5C551.8 554 553.9 551.9 552.7 550.4C530.2 521.5 508.2 492.2 488.4 461.5C483.5 453.9 478.8 446.3 474.2 438.5C472 434.8 469.8 431 467.7 427.2C465.6 423.5 462.8 420.9 460.6 417.3C458.8 414.3 457.5 411.1 456.2 407.9C454.4 403.6 452 399.7 449.8 395.6C445.6 387.9 441.7 380.1 438 372.2C434.1 363.9 430.4 355.5 426.7 347.1C425.1 343.4 424.5 339.5 423 335.7C421.4 331.6 419.7 327.5 418.1 323.3C412 307.2 406.7 290.8 402.3 274.1C393.5 240.3 388.4 205.6 387.9 170.6C387.4 131.3 392.8 92.0001 405 54.5001C405.3 53.0001 402.4 52.2001 401.9 54.0001Z" fill="black"/>
<path d="M403.3 53.9999C420 55.2999 437 61.0999 452.7 66.5999C468.2 72.0999 483.5 78.0999 497.7 86.2999C526 102.7 551 124.2 573.8 147.6C597.3 171.7 618.7 198.2 639.4 224.7C660 251.1 679.7 278.4 698.7 306C719.7 336.7 739.9 368 759.7 399.6C760.7 401.2 763.3 399.7 762.3 398.1C726 340.4 688.5 283.4 646.8 229.4C606.5 177.1 563.3 123.7 506.7 88.1999C491.3 78.4999 474.8 71.4999 457.8 65.1999C440.6 58.8999 421.8 52.3999 403.4 50.8999C401.4 50.8999 401.4 53.8999 403.3 53.9999Z" fill="black"/>
<path d="M554.9 551.6C601.5 504.1 653.9 462.4 710.6 427.6C726.6 417.8 742.8 408.6 759.4 400C761.1 399.1 759.6 396.5 757.9 397.4C699 428.2 643.8 466.1 594.1 510.2C579.9 522.8 566.1 535.9 552.8 549.5C551.4 550.9 553.5 553 554.9 551.6Z" fill="black"/>
<path d="M552 553.9C563.9 567.2 579.4 576.6 596.7 580.8C598.6 581.3 599.4 578.4 597.5 577.9C580.6 573.7 565.7 564.7 554.1 551.7C552.8 550.3 550.7 552.5 552 553.9Z" fill="black"/>
<path d="M758.9 400.8C766.7 414.5 771.2 429.6 772.2 445.3C772.3 447.2 775.3 447.2 775.2 445.3C774.2 429 769.5 413.5 761.5 399.3C760.6 397.6 758 399.1 758.9 400.8Z" fill="black"/>
<path d="M598.5 580C652.6 530.6 711.2 486.4 773.7 448.1C775.3 447.1 773.8 444.5 772.2 445.5C709.6 483.9 650.7 528.3 596.4 577.9C595 579.2 597.1 581.3 598.5 580Z" fill="black"/>
<path d="M636.2 547.8C641.7 553.2 647.2 558.6 652.7 564.1C653.3 564.7 654.3 564.7 654.8 564.1C671 546.9 689.2 531.7 709.1 519C713.9 515.9 718.8 513 723.8 510.2C727 508.4 733.1 506.7 735 503.3C737 499.9 734 495.3 732.4 492.4C729.6 487.3 726.3 482.6 722.7 478.2C721.5 476.7 719.4 478.8 720.6 480.3C724.1 484.6 727.2 489.1 729.8 493.9C730.4 494.9 731.7 496.6 731.8 497.8C731.4 499.6 731 501.3 730.6 503.1C730.1 503.4 729.6 503.6 729.1 503.9C727.1 505.4 724.5 506.3 722.3 507.6C713.6 512.5 705.1 517.8 696.9 523.5C680.9 534.8 666.1 547.7 652.7 561.9C653.4 561.9 654.1 561.9 654.8 561.9C649.3 556.5 643.8 551.1 638.3 545.6C636.9 544.3 634.8 546.4 636.2 547.8Z" fill="black"/>
<path d="M409 301.3C433.6 272.3 462.4 247.2 491.9 223.3C521.5 199.4 552.5 177 587.2 161.1C589 160.3 587.4 157.7 585.7 158.5C551.3 174.2 520.6 196.4 491.2 220C461.2 244.2 431.9 269.7 406.9 299.1C405.6 300.7 407.7 302.8 409 301.3Z" fill="black"/>
<path d="M587.8 175.1C584.5 175.3 583.1 169.8 586.8 169.5C588.1 169.4 589.6 170 590.1 171.3C590.8 173.2 589 175.2 587.1 175.2C585.7 175.2 585.6 177.5 587.1 177.5C590.2 177.5 592.9 174.6 592.4 171.5C592 168.9 589.3 167.3 586.8 167.4C584.1 167.6 582 169.8 582.3 172.5C582.6 175.2 585 177.7 587.8 177.5C589.3 177.3 589.3 175 587.8 175.1Z" fill="black"/>
<path d="M740.5 396.3C740.6 396.3 740.6 396.3 740.7 396.2C740.4 396.2 740.1 396.1 739.8 396.1C740.9 396.6 740.3 394.5 740.2 394.2C740.2 393.9 740.3 393.5 740.4 393.2C740.7 392.6 741.2 392 741.8 391.7C743.1 391.1 744.5 392.1 744.9 393.4C745.7 396 741.9 397.3 740.9 395C740.3 393.7 738.4 394.8 739 396.1C740.2 398.9 744.3 399.1 746.3 397C748.6 394.5 746.9 390.3 743.8 389.4C740.5 388.5 737.3 392 738.1 395.2C738.4 396.5 740.1 398.1 741.4 396.8C742.4 395.8 741.4 393.6 739.9 394.2C738.6 394.7 739.2 396.8 740.5 396.3Z" fill="black"/>
<path opacity="0.15" d="M405 52.7998C420.8 62.9998 442.2 77.9998 465.6 98.0998C480.1 110.6 517.7 144.1 564.7 209.1C615.7 279.6 641.2 314.8 646.3 354.1C648.9 374.6 652.5 433 601 504.8C622.3 488.6 643.7 472.3 665 456.1C674.3 471.4 683.5 486.7 692.8 502C682.8 509.4 672.8 516.7 662.8 524.1C667.7 530 672.6 535.8 677.5 541.7C683.5 535.9 690.7 529.7 699 523.6C711.8 514.2 724.1 507.5 734.7 502.6C730.7 494.9 726.8 487.1 722.8 479.4C740 468.1 757.2 456.7 774.4 445.4C773.5 436.9 771.4 424.6 765.9 410.8C759.5 394.6 751.4 383.8 748.3 379.6C725.9 349.3 736.8 356.6 689.9 290.7C656.2 243.3 637.6 216.8 607.8 182.5C588.7 160.5 576 146 555.7 128.1C534.1 109 507.9 86.2998 467.9 69.6998C442.4 59.2998 420 54.8998 405 52.7998Z" fill="#494949"/>
<path opacity="0.11" d="M726.1 343.3C725.2 349.7 723.4 359.5 718.9 370.6C708.5 396.3 692.5 407.5 659.1 441.3C643.3 457.3 619.8 481 622 483.6C624.1 486.1 649.8 466.3 694.7 436.7C721 419.3 743.1 405.8 757.6 397C747.1 379.1 736.6 361.2 726.1 343.3Z" fill="#494949"/>
<path opacity="0.08" d="M759.7 400C758.3 400.3 761.7 411.2 757.6 424.8C754.6 434.8 749.5 439.6 737 454.7C731.6 461.2 723.7 471 714.3 483.6C733.9 470.2 753.5 456.8 773.1 443.4C764.2 408 760.9 399.8 759.7 400Z" fill="#494949"/>
<path d="M590.8 727.3C591.1 730.2 592.2 732.5 593.9 735.3C601.1 746.9 613 754 621.6 758.1C618.2 768.8 614.1 784.2 611.1 803C608.3 821.1 605 842.2 609.3 843.6C610.8 844.1 615.2 842.7 656.1 761.7C661.8 750.4 666.5 741 669.6 734.6C647.8 724.8 626.1 714.9 604.3 705.1C602.2 706.7 589.7 715.8 590.8 727.3Z" fill="#161616" stroke="#161616" stroke-width="2"/>
<path d="M545.2 506.1C526.8 518.9 514.9 531.3 504.3 542.5C500 547 479.4 568.9 457.7 603.3C448.1 618.5 441 631.9 436.1 642C436.7 646.1 438.1 652 441.8 657.9C445.9 664.5 450.5 667.4 457.7 673.8C466.5 681.6 469.7 686.2 474.8 691.4C484.7 701.6 498.6 709.3 526 724.4C560.4 743.3 578.9 750.2 584.6 752.3C591.6 754.8 597.5 756.7 601.7 758C603.7 748.7 606.1 738.8 609.1 728.4C611.8 719.1 614.7 710.4 617.6 702.3C596.3 686.7 574.4 669.2 552.2 649.4C544.5 642.6 537.1 635.7 530 628.9C537.2 620.2 547.3 608.8 560.1 596.5C563.8 592.9 571.6 585.5 581.1 577.7C593.1 568 611.2 555 636.2 543C640.5 514.3 635.4 487.5 619.7 478.8C600.1 468 570.3 488.7 545.2 506.1Z" fill="white"/>
<path d="M525 521C489.6 551 460.3 588.1 439.5 629.6C437.4 633.9 434.4 638.7 434 643.5C433.6 648.6 436.7 652.5 439.5 656.4C446.2 665.5 453.8 674 461.9 681.9C479.1 698.4 498.9 712 519.7 723.5C545.3 737.7 572.4 749 599.4 760.2C601.2 760.9 602 758 600.2 757.3C556 738.9 510.9 720.1 474 688.8C465.7 681.7 457.8 674.1 450.7 665.8C447 661.4 443.3 656.9 440.1 652.2C438.1 649.3 436.6 646.6 437.1 642.9C437.6 639.3 439.7 635.9 441.3 632.6C450.9 613.1 462.4 594.6 475.6 577.3C490.7 557.4 508 539.3 527.1 523.2C528.6 521.9 526.5 519.8 525 521Z" fill="black"/>
<path d="M609.8 555.5C575.5 577.7 545.5 605.8 521.2 638.6C520.1 640.2 522.7 641.7 523.8 640.1C547.8 607.7 577.5 579.9 611.3 558C612.9 557.1 611.4 554.5 609.8 555.5Z" fill="black"/>
<path d="M528.3 630.4C556.4 655.8 585.3 680.2 615.1 703.5C616.6 704.7 618.7 702.6 617.2 701.4C587.4 678.1 558.4 653.7 530.4 628.3C529 627 526.9 629.1 528.3 630.4Z" fill="black"/>
<path d="M615.2 703.1C608.9 720.9 604 739.1 600.4 757.6C600 759.5 602.9 760.3 603.3 758.4C606.9 739.9 611.9 721.7 618.1 703.9C618.7 702.1 615.8 701.3 615.2 703.1Z" fill="black"/>
<path opacity="0.11" d="M583.9 544.3C570.1 545.5 559.7 555.6 527.6 600.2C515.3 617.3 505 632.2 497.1 644C508.5 652 517.5 658.6 523.2 662.9C555.1 686.8 568.5 700.2 595.6 714.8C601.5 718 606.4 720.3 609.3 721.6C611.6 715.3 613.9 709 616.1 702.7C608.5 696.1 600.9 689.6 593.2 683C572 665 551 647.6 530.1 630.7C538.8 618.5 547 609.3 553 603C570.7 584.5 588.3 572 602 562.4C606.7 559.1 610.7 556.5 613.3 554.8C600.4 544.9 590.3 543.7 583.9 544.3Z" fill="#494949"/>
<path opacity="0.08" d="M587.9 570.4C579.3 572.4 567.8 576.3 556.1 584.1C527.5 603.2 517.9 632.4 515.1 642.4C530.5 654.4 546.4 666.5 562.9 678.6C578.9 690.4 594.8 701.6 610.3 712.4C612.6 709.1 614.9 705.7 617.1 702.4C595.8 686.9 573.7 669 551.6 648.5C544.6 642.1 537.9 635.6 531.5 629.2C535 624.6 538.8 619.9 542.8 615.1C557.8 597.3 573.2 582.6 587.9 570.4Z" fill="#494949"/>
<path d="M777.2 694.6C787.8 704.6 798.5 714.7 809.1 724.7C806.3 788.5 811.6 803.5 817.2 804.6C825.9 806.3 840.8 776.2 847.3 752.5C852.2 734.5 852.7 718.7 852.2 708C835.6 693.2 819 678.4 802.4 663.5C794 673.9 785.6 684.3 777.2 694.6Z" fill="#161616" stroke="#161616" stroke-width="2"/>
<path d="M569.1 514.7C570 531.3 581.6 541.4 581.6 541.4C588.8 547.7 596.9 549.4 600.9 549.9C604.1 551.2 607.3 552.6 610.6 553.9C615.6 561.1 623 571.3 632.8 582.9C645.8 598.5 663.3 617.1 706.1 652.3C727.2 669.6 754.4 690.9 787.3 714.3C792 712 797.6 708.6 803.2 703.6C815.5 692.7 821.2 680 823.8 672.8C818 667.2 809.4 658.8 799.4 648.4C755 602.5 725.4 563.2 702.8 533C687.9 513.1 668.8 486.6 647.7 454.6C599.4 467.8 567.9 493.4 569.1 514.7Z" fill="white"/>
<path d="M584.6 545.2C592.6 548 600.5 550.7 608.5 553.5C610.3 554.1 611.1 551.2 609.3 550.6C601.3 547.8 593.4 545.1 585.4 542.3C583.6 541.7 582.8 544.6 584.6 545.2Z" fill="black"/>
<path d="M605.2 550.5C642.8 602.2 691.5 644 742 682.7C756.5 693.8 771.2 704.8 785.9 715.7C787.5 716.9 788.9 714.2 787.4 713.1C736.8 675.6 685.9 637.6 642.9 591.4C630.4 578 618.7 563.8 607.9 549C606.7 547.5 604.1 549 605.2 550.5Z" fill="black"/>
<path d="M664.2 480.8C699.6 535.1 739.5 586.3 783.5 633.9C796.2 647.7 809.3 661.1 822.6 674.2C824 675.6 826.1 673.4 824.7 672.1C778.4 626.7 736 577.4 698 524.9C687.2 510 676.8 494.8 666.7 479.3C665.7 477.7 663.1 479.2 664.2 480.8Z" fill="black"/>
<path d="M820.9 672.3C815.1 689.5 803.9 705.5 787 713.1C785.2 713.9 786.8 716.5 788.5 715.7C806.1 707.8 817.7 691 823.7 673.1C824.4 671.3 821.5 670.5 820.9 672.3Z" fill="black"/>
<path opacity="0.09" d="M664.3 479.2C658.6 471.5 653.8 465.2 650.6 461.1C647.4 467 643 476.9 642.6 489.2C641.7 517 662.1 528.9 720.6 593.7C746.1 621.9 759.6 638.9 792.5 672.5C800.2 680.3 806.7 686.8 811.4 691.4C815 685.1 818.6 678.8 822.3 672.5C790.6 640.7 765.5 612 746.7 589.3C728.6 567.4 712.4 547.8 695.7 523.4C691.4 517.3 680.5 501 664.3 479.2Z" fill="#494949"/>
<path opacity="0.09" d="M682 507.3C683.4 514.2 686.3 525.9 692 539.5C708.5 578.3 732.9 594.7 776.8 643.2C785.2 652.5 798.2 667.2 813.4 686.2C816.9 681.2 820.4 676.3 823.9 671.3C820.7 668.3 815.6 663.6 809.4 657.6C798 646.6 767.1 615.9 708.1 541C701.7 533 692.7 521.4 682 507.3Z" fill="#494949"/>
<path d="M357.4 418.9C355.4 419.7 352.4 421.4 343.5 435.7C333.9 451.1 327.4 461.6 322.6 478.2C318.4 493 317.4 506.5 317.7 517.5C318.4 520.7 318.9 525.4 317.3 530.6C315.2 537.2 311.4 538.8 304.2 547.8C301.3 551.4 296.5 557.5 292.7 565.8C288.5 575.1 290.6 576.3 286.6 585.4C281.8 596.3 274.7 603.8 273.5 605C266.9 611.9 263.7 612.1 260.8 618.1C257.5 624.9 258.5 631.3 258.8 633.2C259 634.6 261.1 646.8 268.2 648.3C270.1 648.7 273.1 648.5 274.3 646.7C276.2 643.9 271.8 640 271 633.2C270.3 627 273 622 274.7 618.9C279.8 609.4 285.7 610.8 291.1 602.9C296.3 595.1 291.4 592.7 296.4 578C299.2 569.8 302 561.6 309.5 555.5C312.9 552.7 316.2 551.2 319.3 546.5C322 542.4 323 538.3 323.4 535.5C328.9 544.3 334.7 550 338.9 553.5C344.5 558.1 350.9 563.5 356.3 561.5C359.2 560.4 361.8 557.1 361.3 554.8C361 553.5 359.8 553.1 356.7 550.3C356.7 550.3 355.5 549.2 352.8 546.3C351 544.4 348.4 540.9 346.1 534.3C347 533.3 349.3 531.1 352.4 530.9C355.8 530.8 358.4 533.2 361 535.8C365.9 540.6 365.7 543.5 368.8 546.4C371.2 548.7 375.6 551.1 384.3 550.5C383.9 549.4 383.2 547.6 382.3 545.6C379.2 538.9 377.6 538.2 377.4 535.4C377.3 533.2 378.2 532.6 382.3 525.6C385.8 519.6 387.5 516.6 387.6 515C388.1 509.1 383 507.1 381.9 500.3C380.9 494.6 383.4 490 385.2 486.4C395.6 465.3 402.2 451.9 400.3 441.8C397.4 426 372.2 412.7 357.4 418.9Z" fill="#161616"/>
<path d="M352.8 422.5C338.3 437.3 329 456.1 322.8 475.7C316.8 494.8 312.3 516.6 321.8 535.3C322.7 537 325.3 535.5 324.4 533.8C315 515.4 320.1 493.6 326.2 474.9C332.2 456.3 341.1 438.7 354.9 424.6C356.2 423.2 354.1 421.1 352.8 422.5Z" fill="#161616"/>
<path d="M337.8 508.9C339 508.3 340.2 507.8 341.4 507.2C342.3 507.7 343.2 508.3 344.1 508.8C345.2 509.8 346.2 511.1 346.9 512.4C348.3 514.8 349 517.7 348.8 520.5C348.4 525.9 344.5 530.1 343.5 535.3C342.9 538.5 345 540.8 346.8 543.2C349.9 547.3 353.5 551.1 357.4 554.5C358.8 555.8 361 553.7 359.5 552.4C357 550.1 354.5 547.8 352.3 545.2C348.7 541.1 345.5 537.6 348 531.9C350.2 526.9 352.5 522.2 351.5 516.5C350.7 512.1 348.2 507.6 344.3 505.2C341 503.2 337 503.6 335.2 507.3C334.3 509.1 336.9 510.6 337.8 508.9Z" fill="#161616"/>
<path d="M322 535.7C327.8 545 335.8 552.7 345.5 557.8C348.4 559.3 353.9 562.8 357.4 561.3C360.7 559.9 360.1 555.9 359.2 553.2C358.6 551.4 355.7 552.2 356.3 554C358.6 561.3 348.9 556.2 347 555.2C343.9 553.6 341 551.7 338.2 549.5C332.7 545.2 328.2 540 324.5 534.1C323.6 532.6 321 534.1 322 535.7Z" fill="#161616"/>
<path d="M390.9 443.9C385 463.7 381.3 484.1 379.6 504.7C379.5 505.3 380.1 506 380.7 506.1C387 507.8 386.1 515.6 383.8 520C381.5 524.2 377.9 527.7 376.1 532.2C372.9 540.3 382.4 542.9 382.2 550C382.7 549.5 383.2 549 383.7 548.5C374.7 548 367.1 543.2 362.6 535.4C359.4 529.8 355.7 528.6 349.3 529C347.4 529.1 347.4 532.1 349.3 532C351.7 531.9 354.6 531.6 356.8 532.8C358.7 533.9 359.3 535.8 360.3 537.5C362 540.4 364.2 543 366.8 545.1C371.7 549.1 377.4 551.1 383.6 551.5C384.4 551.5 385.1 550.8 385.1 550C385.2 545.8 382.4 543.3 380.1 540.1C375.3 533.4 383.2 527.2 386.3 521.5C389.7 515.3 389.6 505.3 381.4 503.2C381.8 503.7 382.1 504.2 382.5 504.6C384.1 484.2 387.9 464.2 393.7 444.6C394.3 442.9 391.4 442.1 390.9 443.9Z" fill="#161616"/>
<path d="M316.7 518.4C317.4 524.4 316.6 530.3 313.7 535.7C311 540.8 306.6 544.5 302.3 548.4C294.7 555.5 291.2 563.3 288.8 573.3C286.2 583.9 283.1 592.4 275.4 600.4C269.6 606.3 262.8 611.8 259.2 619.5C255.7 627 256.2 635.7 260.7 642.7C263.3 646.8 272.2 655 275.6 647.2C277 644 275.4 640 274.3 636.9C273.3 634.2 272 631.5 272 628.5C272 624.3 274.4 620.7 277.2 617.8C284 610.7 292.7 606.7 295.7 596.6C297.4 590.9 296.2 585.2 296.6 579.4C297.1 572.2 300.5 566.1 305.7 561.2C313.6 553.7 324.1 547.5 324.1 535.3C324.1 533.4 321.1 533.4 321.1 535.3C321 547 309.6 552.8 302.4 560.2C296.8 565.9 293.6 573.1 293.5 581.1C293.4 586.4 294.3 591.4 292.5 596.5C290.5 602.3 286.3 606.2 281.7 610C275.8 614.7 269 620.2 269 628.5C269 632.5 271 636.1 272.2 639.9C272.5 640.9 273.6 643.6 273.1 644.4C272.1 644.5 271 644.7 270 644.8C268.2 645.9 266.8 645.7 265.8 644.2C263.6 642.8 261.7 638.6 260.9 636.2C257.7 626.8 262.1 618.4 268.4 611.6C273.7 605.8 279.9 600.9 284.3 594.3C289 587.3 290.4 579 292.4 571C293.9 565.2 295.9 559.6 299.9 555C303.4 550.9 307.8 547.8 311.4 543.8C317.8 536.8 320.7 527.7 319.6 518.4C319.5 516.5 316.5 516.5 316.7 518.4Z" fill="#161616"/>
<path d="M251.8 396.6C249.7 397.8 245.8 399.9 245 404.3C244 409.2 247.5 413.2 248 413.7C247.4 414.4 245.6 416.5 245.4 419.7C245.2 425 249.9 428.1 250.1 428.3C249.9 428.5 247 431.5 248 435.6C248.8 439.1 251.9 440.6 252.3 440.7C252.1 441.3 251.4 443.9 252.7 446.3C254.7 449.9 259.5 449.7 260 449.7C263.4 449.5 266.6 447.2 268.1 443.7C270 444.8 275 447.4 281.8 446.7C286.4 446.2 289.8 444.4 291.6 443.3C295.2 449.6 300.8 458.1 309.1 466.8C316.4 474.4 330 488.7 350.2 494.6C375.4 502 397.7 492.4 410.5 486.9C444.9 472.1 462 444.9 468.3 434.7C478.9 417.3 482.6 402.4 485.8 388.9C491 367.5 489.2 359.1 487.5 354.2C486.5 351.2 480.6 334 467 332C455.9 330.3 446.7 339.8 445.6 341C441.8 345 439.8 350.3 435.8 360.7C433.8 366 432.5 370 431.9 371.8C425.4 392.9 422.1 403.4 421.2 405.6C418.8 411.6 413.1 425.3 399.4 436C386.3 446.2 372.6 448.4 366.5 449.3C357.3 450.6 346 452.2 334 446.3C320.6 439.7 314.6 427.7 313 424.5C308.2 414.6 307.3 403.6 306.6 395.8C305.7 385.8 306.4 378 300.6 371.8C299.5 370.7 296.9 367.9 294.2 368.4C290.3 369.2 288.1 376.7 286.1 383.8C284.4 389.8 284.9 390.5 283.5 391.9C280.6 394.8 276.9 393.3 264.2 394C256.8 394.5 254.2 395.3 251.8 396.6Z" fill="white"/>
<path d="M272.5 392.3C261.7 390.3 242.7 393.1 244.2 407.9C245.5 421.2 261.3 423.5 270.8 417.7C272.4 416.7 270.9 414.1 269.3 415.1C261.4 419.9 247.1 418.6 247.1 406.6C247.1 395 263.4 393.7 271.7 395.2C273.6 395.6 274.4 392.7 272.5 392.3Z" fill="black"/>
<path d="M246.8 412.8C236 426 262 442.6 269.7 426C270.5 424.3 267.9 422.7 267.1 424.5C261.1 437.3 241.1 424.5 249 414.9C250.2 413.5 248.1 411.3 246.8 412.8Z" fill="black"/>
<path d="M247.4 426.2C245.1 431.4 246.7 438 252 440.7C257.2 443.4 263.7 440.9 266.4 435.9C267.3 434.2 264.7 432.7 263.8 434.4C261.8 437.9 257.3 439.9 253.5 438.1C249.7 436.3 248.3 431.4 250 427.7C250.8 426 248.2 424.5 247.4 426.2Z" fill="black"/>
<path d="M249.8 439.6C249.4 444.9 252.5 449.7 257.9 450.8C262.9 451.8 267.5 448.5 269.2 444C269.9 442.2 267 441.4 266.3 443.2C265 446.6 261.4 448.8 257.8 447.7C254.1 446.6 252.6 443.2 252.8 439.6C252.9 437.7 249.9 437.7 249.8 439.6Z" fill="black"/>
<path d="M259.3 406.9C261.9 406.6 264.6 406.7 266.8 408.2C268.9 409.6 270.1 412.4 268.9 414.7C268 416.4 270.6 417.9 271.5 416.2C273.1 413.1 272.4 409.5 270 407C267.3 404.1 263 403.5 259.2 403.9C257.4 404.2 257.4 407.2 259.3 406.9Z" fill="black"/>
<path d="M268.6 446C273.8 444.1 278.8 448.4 284.2 447.8C288.3 447.3 291.9 445.1 295.3 443.1C296.9 442.1 295.4 439.5 293.8 440.5C288.7 443.6 284.3 445.8 278.2 444C274.5 442.9 271.6 441.7 267.8 443.1C266 443.8 266.7 446.7 268.6 446Z" fill="black"/>
<path d="M271.7 394.9C276.9 396.7 283.9 397 286.8 391.3C288.4 388.1 287.4 384.2 288.1 380.8C288.9 376.2 291.5 372.4 295.1 369.5C296.6 368.3 294.5 366.2 293 367.4C289.1 370.6 286.3 375 285.3 380C284.8 382.8 285.5 386.1 284.7 388.8C282.9 394.2 276.9 393.5 272.7 392C270.7 391.4 269.9 394.3 271.7 394.9Z" fill="black"/>
<path d="M292.9 369.7C301.4 370.8 302.5 385.1 303.9 391.6C305.6 400.1 306.5 408.7 308.1 417.2C310.7 430.8 318.6 441.6 331.2 447.7C344.4 454 359.4 453.7 373.2 449.9C387.4 445.9 402.1 438.7 411.3 426.8C412.5 425.3 410.4 423.2 409.2 424.7C399.6 437.1 384 444.4 369 447.9C353.9 451.4 337.4 450.1 324.8 440.3C311.2 429.8 310.9 414 308.2 398.3C306.9 390.9 305.8 382.9 303.1 375.9C301.4 371.5 298.7 367.5 293.8 366.8C291.8 366.5 291 369.4 292.9 369.7Z" fill="black"/>
<path d="M290.7 445.1C302.8 459.9 314.5 476.8 330.5 487.7C346.2 498.3 365.6 499.4 383.8 496.4C420.8 490.2 452.2 465.1 470.2 432.7C480.5 414.3 486.6 393.9 489.3 373C489.5 371.1 486.5 371.1 486.3 373C481.7 408.7 466.1 443.7 438.3 467.3C424.6 478.9 408.3 487.6 390.8 491.8C372.7 496.2 351.8 496.8 335.3 487.1C317.7 476.8 305.4 458.4 292.8 442.9C291.6 441.5 289.5 443.6 290.7 445.1Z" fill="black"/>
<path d="M468.4 331.6C460.1 328.3 451.3 332.6 445.5 338.7C438.7 345.7 435.3 355 432.8 364.2C429.9 374.9 427.3 385.5 423.2 395.8C418.8 406.9 413.2 417.4 406.8 427.4C405.7 429 408.3 430.5 409.4 428.9C419.7 413 427.6 395.7 432.5 377.4C435.1 367.8 436.8 357.8 441.6 349.1C446.4 340.3 456.6 330.1 467.6 334.5C469.4 335.2 470.2 332.3 468.4 331.6Z" fill="black"/>
<path d="M263.8 438C266.6 438.2 266 442.9 265.5 444.6C264.9 446.4 267.8 447.2 268.4 445.4C269.7 441.6 268.8 435.4 263.8 435C261.9 434.9 261.9 437.9 263.8 438Z" fill="black"/>
<path d="M265.5 428.8C266.1 431.2 265.2 433.7 263.3 435.1C261.7 436.2 263.2 438.8 264.8 437.7C267.9 435.5 269.4 431.7 268.4 428C268 426.1 265.1 426.9 265.5 428.8Z" fill="black"/>
<path d="M267.2 418.4C269.9 419.7 268.1 424 266.8 425.7C265.6 427.2 268.2 428.7 269.4 427.2C271.7 424.2 272.9 417.8 268.7 415.8C267 415 265.5 417.6 267.2 418.4Z" fill="black"/>
<path opacity="0.11" d="M246.6 418.8C248.2 417.9 250.8 423.5 257.5 426.3C260 427.3 263.1 428 277.3 426.3C281.9 425.7 287.9 424.9 295.1 423.6C296.5 429.3 299.4 437.9 305.3 446.8C307.8 450.5 317.9 464.9 337.4 473.4C358.3 482.6 377.2 479.5 384.5 478.2C390.7 477.1 408 473.8 423.4 460.4C433.7 451.5 440.3 440.7 450 412.6C456.6 393.5 464.6 367 470.5 334.1C474.5 338.2 480.7 345.6 484.2 356.6C485.9 361.9 487.5 369.7 486.2 381.9C483.5 408.2 470.3 430.1 462.3 441.3C454 453 439.2 473.2 411.8 485.7C408.1 487.4 387.2 496.5 360.6 495.3C354.5 495 348.9 494.7 342 492.2C334.5 489.5 327 482.5 312.1 468.7C305.9 463 299.8 457 293.6 448.3C292.4 446.6 291.4 445.1 290.7 444.1C288.6 445.5 285.5 447.1 282 446.7C277.3 446.3 275.7 442.9 271.8 443.5C268.4 444 268.4 446.8 264.3 448.3C261.1 449.4 256.6 449.3 253.6 447C251.4 445.3 251.1 443.4 248.6 432.6C246.2 422 245.5 419.4 246.6 418.8Z" fill="#494949"/>
<path d="M360.9 392.8C359 393.2 358.3 397 357.1 402.9C356.4 406.5 356.1 409.6 356 411.8C352 416.5 351.6 420.8 351.5 422.5C351.4 426 352.6 428.7 354.9 433.7C356.5 437.3 358.2 440.1 359.4 442C355.1 443 352.1 445.8 351.9 448.8C351.7 451.7 354.3 454 355.3 454.8C359.8 458.7 363.1 455.8 368.8 458.9C373.4 461.4 373 464.2 379.7 467.9C383.9 470.2 385.2 469.7 385.7 469.4C387.4 468.3 386.8 464.7 386.5 462.3C386.1 459.4 384.9 455 381.6 449.9C385.5 448.5 389.4 447.1 393.2 445.8C390.4 446.1 389.8 446.2 389.8 446.2C389.8 446.1 396.7 443.3 402.6 445.8C407.5 447.9 407.9 452.3 412 452.6C414.3 452.8 416.9 451.5 418 449.6C420.3 445.7 416 440 415 438.7C410.9 433.3 404.9 431.7 402.2 431.2C403.1 429.2 404.1 426 404.3 422C404.5 415.2 401.7 410.2 400.4 408.1C398.6 402.2 396.9 396.3 395.1 390.3C392.3 396.8 389.2 398.8 386.8 399.3C384.1 399.9 382.6 398.6 378.2 399.3C374 400 373.8 401.3 371.4 401.2C365.8 400.6 363.9 392.2 360.9 392.8Z" fill="#161616"/>
<path d="M363.4 424.4C365.1 426.4 367.8 427.7 370.5 427C372.9 426.4 374.5 424.4 374.8 422C374.9 421 373.4 421 373.3 422C373.1 424.1 371.3 425.6 369.2 425.7C367.3 425.8 365.7 424.7 364.5 423.3C363.8 422.6 362.8 423.7 363.4 424.4Z" fill="white"/>
<path d="M384.8 421.1C387.3 424.7 395.4 425 395.1 419.3C395 418.3 393.5 418.3 393.6 419.3C393.9 423.4 387.8 422.8 386.1 420.3C385.5 419.5 384.2 420.3 384.8 421.1Z" fill="white"/>
<path d="M380.9 432.2C380.9 432.3 381 432.4 381 432.5C381.3 432.6 381.7 432.7 382 432.8C381.8 432.4 381.5 432.2 381 432.2C381.4 432.1 381.7 431.9 382.1 431.8C382 431.7 381.9 431.5 381.8 431.4C381.3 431.6 380.9 431.8 380.4 432C381.1 433.1 380.8 435.1 380.4 436.2C379.9 437.7 377.8 439.7 376.5 437.7C376 436.9 374.7 437.6 375.2 438.5C376.5 440.5 379.2 440.4 380.7 438.7C382.2 437 383 433.3 381.7 431.3C381.3 430.6 380.1 431 380.3 431.9C380.5 432.5 380.8 432.9 381.3 433.2C381.7 433.5 382.3 433.2 382.4 432.8C382.6 431.9 382.3 429.8 380.9 430.4C379.6 430.9 380.1 432.9 380.7 433.7C380.9 434 381.4 434.2 381.7 434C382.8 433.2 382.8 431.7 381.6 431.1C380.8 430.5 380.1 431.8 380.9 432.2Z" fill="white"/>
<path d="M381 432.5C381.4 434.8 382.2 437.6 384.9 438C387.6 438.4 388.4 435.8 388.4 433.7C388.4 432.7 386.9 432.7 386.9 433.7C386.9 435.2 386.4 437.3 384.4 436.3C382.9 435.6 382.7 433.6 382.5 432.1C382.3 431.2 380.8 431.6 381 432.5Z" fill="white"/>
<path d="M353.4 424.9C355.3 414.5 362.8 405.6 373 402.6C383.2 399.6 395 403.7 399.7 413.5C400.5 415.2 403.1 413.7 402.3 412C397.2 401.5 384.7 396.8 373.6 399.4C361.8 402.2 352.7 412.3 350.5 424.1C350.2 426 353.1 426.8 353.4 424.9Z" fill="#161616"/>
<path d="M358.7 409.8C358.6 404.8 359.5 399.8 361.6 395.3C361.8 394.9 362 394.6 362.1 394.2C362.8 393 362.9 392.8 362.3 393.6C361.7 394.1 361.8 394.5 362.7 395.1C362.9 395.4 363.2 395.8 363.4 396.1C364.9 398.5 366.2 401 367.3 403.6C368 405.4 370.9 404.6 370.2 402.8C369.2 400.4 364.6 388.2 360.7 390.9C358.8 392.2 357.6 396.6 357 398.7C355.9 402.3 355.5 406.1 355.6 409.9C355.8 411.7 358.8 411.7 358.7 409.8Z" fill="#161616"/>
<path d="M389.2 401.7C390.2 400 391.2 398.3 392.3 396.6C392.8 395.9 393.5 395.2 393.8 394.4C394.5 394 394.6 393.6 394.2 393.1C393.8 392.4 393.9 392.6 394.4 393.7C396.1 398 397.3 402.2 397.8 406.9C398 408.8 401 408.8 400.8 406.9C400.5 403.6 399.9 400.4 399 397.2C398.4 395.4 397.5 391.3 395.8 390.2C394.5 389.4 393.4 390 392.5 391.1C390.2 393.8 388.4 397.1 386.6 400.2C385.6 401.8 388.2 403.3 389.2 401.7Z" fill="#161616"/>
<path d="M350.7 423.3C350 440.1 365.2 454.5 382.1 451C389.9 449.4 397.1 444.3 400.8 437.2C404.7 429.7 406.9 417.8 401.8 410.4C400.7 408.8 398.1 410.3 399.2 411.9C403.7 418.6 401.5 429.6 397.9 436.3C394.6 442.4 388.1 446.7 381.3 448.1C366.2 451.1 353.1 438.1 353.7 423.3C353.7 421.3 350.7 421.3 350.7 423.3Z" fill="#161616"/>
<path d="M352.8 449.7C355.2 440.8 367.2 441.3 373.5 445.2C380.2 449.2 383.6 457 384.3 464.5C384.5 466.6 385.3 468.7 381.8 467.4C380.5 466.9 378.8 465 377.8 464C376 462.2 374.4 460.3 372.4 458.8C370.2 457.1 367.9 456.1 365.2 455.6C361 454.8 353.4 455.3 353 449.3C352.9 447.4 349.9 447.4 350 449.3C350.3 453.2 352.8 455.8 356.4 457.1C359.2 458.1 362.3 457.9 365.2 458.6C368.8 459.5 371.2 461.4 373.7 464C376.2 466.5 380.5 472.1 384.8 471.3C388.4 470.6 387.6 466.5 387.3 463.8C386.2 454.2 381.1 444.7 371.7 441C363.8 437.9 352.4 439.7 350 449C349.4 450.8 352.3 451.6 352.8 449.7Z" fill="#161616"/>
<path d="M392.7 436.7C396.8 431.2 406.1 433.4 410.4 437.1C412.9 439.2 414.6 442.1 415.4 445.3C415.6 446.3 416.1 448.4 415.8 449.5C414.8 452.4 412.7 451.5 410.9 450.1C408.4 448.2 406.5 445.5 403.4 444.3C401.9 443.7 400.4 443.6 398.8 443.7C397.3 443.7 395.9 444.1 394.4 443.9C391.6 443.5 387.7 440.9 392.4 437.3C393.9 436.1 391.8 434 390.3 435.2C388 437 386.8 439.7 387.8 442.6C389.2 446.4 392.8 447.2 396.5 447C400.2 446.8 402.6 446.9 405.6 449.4C407 450.6 408.2 452 409.8 453.1C411.9 454.6 415 456 417.3 453.9C422.6 449 416.5 438.1 412.3 434.7C406.3 429.8 395.3 428.4 390.3 435.3C389 436.7 391.6 438.2 392.7 436.7Z" fill="#161616"/>
<path d="M358.6 441.4C365.1 439.3 375 443.4 379 448.7C379.3 449.1 379.9 448.7 379.6 448.3C375.4 442.6 365.4 438.4 358.4 440.7C357.9 440.8 358.1 441.5 358.6 441.4Z" fill="white"/>
<path d="M393.4 437.1C396.3 433.7 400.5 432.2 404.9 433.1C405.4 433.2 405.6 432.5 405.1 432.4C400.5 431.5 395.9 433 392.9 436.6C392.6 437 393.1 437.5 393.4 437.1Z" fill="white"/>
<path d="M362.3 394.5C363.3 397.1 364 399.7 364.3 402.4C364.5 402.3 364.7 402.2 364.9 402.1C364.4 401.6 363.9 401.3 363.3 401C363 400.9 362.7 401 362.7 401.3C362.7 402.2 362.6 403 362.6 403.9C362.8 403.8 363 403.7 363.2 403.6C361.8 402 360.7 405.6 360.3 406.3C360.1 406.7 360.7 407.1 360.9 406.7C361 406.5 362.3 403.7 362.6 404.1C362.8 404.4 363.2 404.1 363.2 403.8C363.2 402.9 363.3 402.1 363.3 401.2C363.1 401.3 362.9 401.4 362.7 401.5C363.3 401.7 363.7 402 364.1 402.5C364.3 402.7 364.8 402.6 364.7 402.2C364.3 399.4 363.7 396.7 362.6 394.1C362.8 393.9 362.1 394.1 362.3 394.5Z" fill="white"/>
<path d="M393.2 393.2C392.1 395.3 391.5 397.4 391.3 399.8C391.3 400 391.6 400.2 391.8 400.2C393.2 399.8 393.4 400.9 393.5 402.1C393.5 402.4 393.9 402.6 394.1 402.4C394.6 403.2 395 403.9 395.5 404.7C395.4 405.2 396.2 405.4 396.2 404.9C396.4 403.5 395.5 399.9 393.6 401.9C393.8 402 394 402.1 394.2 402.2C394.1 401.3 393.9 400.5 393.7 399.6C393.7 399.4 393.5 399.3 393.3 399.3C392.6 399.3 392.1 399.4 391.5 399.6C391.7 399.7 391.8 399.8 392 400C392.1 397.8 392.7 395.8 393.8 393.8C394.1 393.1 393.4 392.7 393.2 393.2Z" fill="white"/>
<path d="M455.9 333.9C457.3 343.5 460 358.7 465.6 376.7C477.4 414.3 491.3 430.4 509.7 474C514.3 484.9 520.8 501.3 527.2 522C539.1 525.9 561.2 531.2 588.2 526.5C632.6 518.8 658.7 489.4 666 480.5C650.8 452.5 635.5 422.2 620.6 389.7C605.8 357.5 592.9 326.5 581.7 297C572.3 293.5 547.7 285.7 517.5 293.1C481.4 301.8 461.5 326.5 455.9 333.9Z" fill="#EC615B"/>
<path opacity="0.13" d="M543.7 289.7C547.5 297.7 552.3 308.6 557.4 321.8C573.4 363.8 579.2 398.3 581.3 410.6C585.8 436 589.7 475.4 583.3 526C597.2 525.6 607.5 522.4 614 519.9C632.6 512.5 646.1 499.6 659.1 487.1C662.1 484.3 664.4 481.8 665.9 480.3C661.6 472.9 655.1 461.3 647.5 446.8C625.5 405 611.1 370.3 599 340.9C594.7 330.6 588.8 315.8 581.9 297.9C576.4 295.6 569.5 293.3 561.4 291.8C554.8 290.5 548.8 289.9 543.7 289.7Z" fill="#494949"/>
<path opacity="0.1" d="M609.9 369C611.6 386.9 613 401.9 614 412.7C617.8 455 618.5 466.7 618.8 474.2C619.6 491.9 619.6 506.4 619.5 515.9C625.7 513.7 633.7 510.1 642 504.3C652.4 497 659.4 489 663.9 483.1C645.9 445 627.9 407 609.9 369Z" fill="#494949"/>
<path d="M538.9 272.1C534.1 273.5 531.5 280.4 529.9 287.5C526.7 302 528.4 314.4 529 318.7C531.9 337.8 537.1 352.1 538.8 356.8C543.2 368.4 549.2 383.9 562.3 400.4C569.8 409.8 576.2 417.9 588 423.9C594.9 427.5 609.2 434.8 623.9 429C624.6 428.7 639 422.8 642.7 410.2C643.5 407.4 643.7 404.6 644 399.1C644.2 395.8 644.3 390 643.6 382.8C642.6 373.3 640.5 365.9 638.9 360.6C631.8 337.1 628.3 325.4 620.9 315.2C614.8 306.8 607.9 297.2 596.5 295.9C595.5 295.8 584 294.7 577.2 302.7C572.5 308.3 572.8 315.2 572.9 319.8C573.2 328.6 576.6 334.9 581.9 344.6C587.2 354.2 589.3 355.4 595.6 366.8C604.2 382.4 603.3 383.9 602.9 384.3C601.2 385.8 594.4 381.1 592.9 380C591.5 379 589.5 377.6 587 374.9C579.2 366.2 574.6 353.1 574.6 353.1C570.5 345 565.1 333.5 559.6 318.9C561.3 312.4 563.9 307.8 566 304.8C569.4 300 573.2 296.7 574.1 290.7C574.5 288.4 574.3 286.4 574.1 285.1C575.8 283.5 576.3 281.1 575.4 279.1C574.3 276.8 571.6 275.7 569 276.5C569 276.2 568.7 273.6 566.4 272.2C564.5 271 561.9 271.2 560 272.6C557 270.3 554.5 269.7 552.7 269.6C550.6 269.5 549.6 270 544.6 270.9C540.4 272 540.1 271.8 538.9 272.1Z" fill="white"/>
<path d="M564 314.3C566.7 307.6 570.1 301.5 573.8 295.3C575.7 292.1 577.9 288.1 575.3 284.6C569.4 277 561.4 286.7 558.9 291.7C558 293.4 560.6 294.9 561.5 293.2C563 290.2 564.7 286.5 568.2 285.5C569.2 285 570.2 285 571.3 285.3C571.6 287.6 571.9 289.9 572.3 292.2C572 293.5 570.2 295.6 569.5 296.8C566.3 302.1 563.7 307.7 561.3 313.4C560.4 315.3 563.3 316 564 314.3Z" fill="black"/>
<path d="M531.3 327.2C529.8 316.5 529.6 305.6 530.8 294.9C531.9 285.1 534 270.2 547.6 273C549.5 273.4 550.3 270.5 548.4 270.1C537.7 267.9 531 275.5 529.2 285.2C526.5 299.3 526.4 313.7 528.4 328C528.7 329.9 531.6 329.1 531.3 327.2Z" fill="black"/>
<path d="M543.8 281.1C544.9 278.5 546.1 275.8 548.2 273.8C551.8 270.3 556.4 272.2 560.3 274.1C562 275 563.5 272.4 561.8 271.5C557.7 269.4 553.1 267.4 548.7 269.7C544.9 271.7 542.9 275.8 541.3 279.5C540.5 281.4 543.1 282.9 543.8 281.1Z" fill="black"/>
<path d="M552.7 282C556.4 277.2 561.3 272.2 567.7 276C569.4 277 570.9 274.4 569.2 273.4C561.6 268.9 555.2 273.8 550.6 279.8C549.4 281.4 551.5 283.5 552.7 282Z" fill="black"/>
<path d="M559.4 284.2C561.3 282.2 563.3 280.1 565.9 279.1C569 277.8 574.7 278.6 573.5 283.3C573.1 285.2 575.9 286 576.4 284.1C577.4 280 574.7 276.2 570.6 275.5C565.1 274.5 560.8 278.5 557.3 282.1C556 283.5 558.1 285.6 559.4 284.2Z" fill="black"/>
<path d="M560.6 312.8C557.1 320.3 561.4 327.9 564.4 334.8C568.6 344.5 573 354.2 578.4 363.2C585.4 375 600.6 396.2 616.5 384.1C618 382.9 616.5 380.3 615 381.5C599.7 393.2 585.5 369.6 579.3 358.7C575.7 352.3 572.5 345.7 569.5 339C566.5 332.3 559.8 321.8 563.3 314.3C564 312.6 561.4 311 560.6 312.8Z" fill="black"/>
<path d="M573.5 305.2C564.7 335.1 591.7 358.3 601.6 383.9C602.3 385.7 605.2 384.9 604.5 383.1C594.9 358.3 567.9 334.9 576.4 306C576.9 304.1 574 303.3 573.5 305.2Z" fill="black"/>
<path d="M528.3 326.4C533.4 354.4 545.3 380.9 562.8 403.4C571.3 414.2 581 424.7 594.4 429.1C605.8 432.8 621.5 434.7 632.1 427.8C643.7 420.4 645.2 405.3 645.7 392.8C645.8 390.9 642.8 390.9 642.7 392.8C642.1 408.9 638.5 426.7 619.4 429C601.8 431.1 585.4 424.1 573.5 411.4C551.4 387.9 536.9 357.2 531.1 325.6C530.9 323.7 528 324.5 528.3 326.4Z" fill="black"/>
<path d="M575.5 309.2C578.7 296.4 594.1 295.5 603.7 301.1C613.5 306.8 620.2 317.1 625.1 327C630.2 337.4 633.9 348.6 637.5 359.6C641.6 372.2 644.7 385.4 642.6 398.7C642.3 400.6 645.2 401.4 645.5 399.5C647.9 384.3 644.1 369.6 639.2 355.2C634.7 342.1 630.3 328.6 622.8 316.8C616.5 306.8 607.1 296.4 594.7 294.7C585.1 293.4 574.9 298.6 572.5 308.4C572.1 310.3 575 311.1 575.5 309.2Z" fill="black"/>
<path opacity="0.1" d="M542.6 270.8C550.6 267.6 558.4 271.1 560.3 272C554.7 279.4 542.8 297.3 541.8 322.6C540.3 358.6 561.8 382.5 569.4 391C579.2 401.9 592 416.1 608.5 414.1C617.8 413 626.6 406.8 631.1 398.9C635.6 391 635.3 382.4 629.9 360.2C621.6 326.6 612.5 306.9 613.8 306.3C615.1 305.7 625.9 322.6 634 343.8C634.8 346 641.5 363.8 643.9 388.3C645.4 403.4 644.1 409.6 641 415.1C636.2 423.6 628.4 427.4 625.4 428.7C613.3 433.8 601.7 430.2 596.2 428.3C576.5 421.7 566 405.7 555.4 389.6C539.1 364.7 534.6 343.4 530.3 322.9C527.3 308.7 525.3 292.2 532.8 280.1C534.1 277.6 537 273.1 542.6 270.8Z" fill="#494949"/>
<path d="M398.2 222.1C397.9 226.8 399.6 232.1 403.2 242.7C407.2 254.6 411.5 267.3 422.3 279.8C429.2 287.8 437.6 297.6 451.9 300.4C463.2 302.6 472.7 299.4 477.5 297.4C478.6 300.4 480.1 303.6 482 306.9C487 315.7 493.2 321.9 498.1 326C501.8 325.6 509 324.1 515.2 318.5C520 314.1 522.3 308.9 523.7 305.5C525.4 301.5 526.3 298 526.7 295.5C523.7 293.7 520.4 291.3 517.2 288C507.2 277.8 504.5 265.7 503.7 259.9C505 248.4 506.4 236.8 507.7 225.3C509.2 225.5 512.4 225.7 515.2 223.8C518.3 221.7 518.9 218.2 519.7 214.3C520.5 210.4 521.4 205.4 519.2 199.7C518.2 197.2 515 189.2 508.2 188.7C503.6 188.3 498.9 191.4 496.2 196.2C490.4 190.6 478 180.7 460.6 179.1C430.5 176.3 399.9 199.8 398.2 222.1Z" fill="white"/>
<path d="M442.6 267.8C441.8 269.9 444.1 272.9 445.8 274.4C450.5 278.5 458.8 278.3 464.8 275.5C473.2 271.6 475.9 263.2 477.1 259.4C478.5 255.2 480.3 249.7 477.4 244.8C474.9 240.5 470.5 239 468.8 238.5C467.1 242 465.8 244.6 464.8 246.3C463.6 248.4 463.2 249.1 462.5 250.7C461.5 252.8 461.4 253.6 460 255.5C454.3 262.9 446.5 265.6 446.5 265.6C444.7 266 443.1 266.4 442.6 267.8Z" fill="black"/>
<path d="M399.8 234.1C407.7 258.8 417.6 287.6 443.1 299.2C453.5 303.9 465.9 304.8 476.5 300.2C488.4 295.1 495.4 283.3 500.2 271.9C506.5 257 509.2 240.8 508.2 224.7C508.1 222.8 505.1 222.8 505.2 224.7C506.2 241.5 503.2 258.4 496.1 273.7C489.2 288.6 478.3 300.5 460.8 300.3C425.6 299.9 411.3 261.1 402.5 233.4C402.1 231.4 399.3 232.2 399.8 234.1Z" fill="black"/>
<path d="M497.3 199C497.4 193 503.6 189.4 509.1 191.1C514.2 192.8 517.4 197.8 518.5 202.8C519.5 207.6 519.1 213.2 517.6 217.8C516.4 221.6 514.9 223.6 510.3 223.6C508.7 223.6 507.1 223 505.4 223C503.5 223 503.5 226 505.4 226C508.8 226 512.1 227.6 515.4 225.9C517.8 224.7 519.2 222.3 520.2 219.8C522.8 213 523.1 203.8 519.8 197.1C517.1 191.6 511.3 186.9 504.9 187.6C499 188.2 494.4 193 494.3 198.9C494.3 200.9 497.3 200.9 497.3 199Z" fill="black"/>
<path d="M503.2 253.8C502.9 270.3 510.2 286.1 523.2 296.4C524.7 297.6 526.8 295.5 525.3 294.3C512.9 284.5 505.9 269.7 506.2 253.8C506.2 251.9 503.2 251.9 503.2 253.8Z" fill="black"/>
<path d="M477.4 298.6C481.2 309.1 487.4 318.3 495.7 325.7C497.1 327 499.3 324.9 497.8 323.6C489.8 316.5 483.9 307.8 480.2 297.8C479.6 296 476.7 296.8 477.4 298.6Z" fill="black"/>
<path d="M496.4 326.7C505 329.8 513.6 322.5 518.9 316.4C524.5 310 529.4 301.7 527 293C526.5 291.1 523.6 291.9 524.1 293.8C526.1 301.4 521.6 308.8 516.7 314.3C512.1 319.5 504.6 326.5 497.1 323.8C495.4 323.1 494.6 326 496.4 326.7Z" fill="black"/>
<path d="M411 223.6C409.7 219.9 412.7 215.9 414.9 213.3C418.2 209.2 423.3 208.1 427.1 212.3C431.5 217.1 432.7 225.7 433.3 231.9C433.7 236.2 432.2 241.7 434.7 245.5C437.4 249.6 442.4 252 447.1 252.9C449 253.3 449.8 250.4 447.9 250C445.4 249.5 443.2 248.7 441 247.3C437.4 244.9 436.6 242.3 436.5 238C436.4 234.3 436.3 230.7 435.7 227C434.7 220.9 433 213.1 428 209C423.8 205.5 418.6 205.6 414.5 209.1C410.6 212.5 406.1 219 408 224.3C408.8 226.2 411.7 225.4 411 223.6Z" fill="black"/>
<path d="M438.7 202C439.4 189.9 454.5 185.5 461.5 195.4C462.6 197 465.2 195.5 464.1 193.9C455.4 181.5 436.6 186.8 435.7 202C435.6 203.9 438.6 203.9 438.7 202Z" fill="black"/>
<path d="M425.1 231.6C423.7 229.7 422.9 227.6 422.8 225.3C422 225.7 421.3 226.2 420.5 226.6C422.8 228.1 424 230.5 423.9 233.2C424.5 232.7 425.2 232.2 425.8 231.8C423.3 230.9 421.7 228.1 422.2 225.5C421.5 225.8 420.7 226.1 420 226.4C421.2 227.1 422.2 228.1 422.9 229.4C423.2 230 423.4 230.6 423.5 231.3C423.5 231.8 423.5 231.2 423.4 231C423.2 230.6 423 230.3 422.8 229.9C422 228.1 419.4 229.7 420.2 231.4C420.8 232.8 421.8 234.3 423.6 234.4C425.1 234.5 426.4 233.5 426.6 232C426.9 228.7 424.3 225.4 421.6 223.9C420.8 223.4 419.6 223.8 419.4 224.8C418.6 229.1 421 233.3 425.1 234.8C426.1 235.1 427 234.3 427 233.4C427.1 229.6 425.3 226.2 422.1 224.2C421.2 223.6 419.8 224.4 419.8 225.5C419.9 228.3 420.8 231 422.5 233.3C423.7 234.7 426.3 233.2 425.1 231.6Z" fill="black"/>
<path d="M453.1 212.3C452.6 211.7 452.2 211 452 210.2C452 210 451.8 208.8 452 208.7C452.2 208.6 452.7 210.2 452.8 210.3C453 211.1 452.9 212 452.5 212.7C453.2 212.5 453.9 212.3 454.6 212.2C452.1 210.8 450.9 208.2 451.3 205.4C450.5 205.8 449.8 206.3 449 206.7C451.8 207.9 453.4 210.8 452.7 213.8C453.3 213.5 453.9 213.1 454.5 212.8C453 212.3 451.8 211 451.5 209.4C451.5 209.3 451.5 208.4 451.4 208.4C451.2 208.5 451 208.6 450.7 208.7C450.8 208.9 451 209.2 451.1 209.4C451.5 210.5 451.5 211.6 451.4 212.8C452.3 212.4 453.1 212.1 454 211.7C453.1 211 452.4 210.2 451.9 209.1C451 207.4 448.4 208.9 449.3 210.6C449.9 211.8 450.8 212.9 451.9 213.8C453 214.7 454.3 214.1 454.5 212.7C454.7 210.7 454.5 208 453 206.5C451.8 205.3 449.6 205.2 448.8 207C447.2 210.5 450.6 214.6 453.7 215.7C454.5 216 455.4 215.4 455.5 214.7C456.6 210.5 454.5 205.9 450.4 204.2C449.3 203.7 448.3 204.3 448.1 205.5C447.6 209.3 449.6 213 452.9 214.9C453.5 215.3 454.6 215.1 455 214.4C455.8 212.5 456 210.6 455.3 208.7C454.7 207.2 453.4 205.6 451.7 205.8C447.3 206.3 449.2 212.6 451 214.6C452.3 215.9 454.4 213.7 453.1 212.3Z" fill="black"/>
<path d="M479.2 298.3C479.2 298.4 479.2 298.4 479.1 298.5C479.7 298.2 480.3 297.8 480.9 297.5C480.8 297.5 480.7 297.4 480.6 297.4C480.9 298.1 481.2 298.9 481.5 299.6C481.7 299.2 484.4 297.9 485.2 297.2C487 295.7 488.5 293.7 489.9 291.8C493 287.7 495.3 283.2 497.2 278.5C496.2 278.2 495.3 278 494.3 277.7C491.3 286.3 489.2 298.3 480.8 303.4C481.5 304.1 482.2 304.8 482.9 305.5C484.9 302.5 486.9 299.4 488.9 296.4C489.8 295 487.7 293.3 486.5 294.6C484.9 296.3 483.2 298.1 481.6 299.8C482.3 300.5 483 301.2 483.7 301.9C485.2 300.1 486.6 298.2 487.9 296.3C488.9 294.9 486.7 293.2 485.5 294.5C484.1 296 482.7 297.1 480.9 298C481.7 298.4 482.4 298.9 483.2 299.3C483.2 299 483.1 298.7 483.1 298.4C482.9 296.5 479.9 296.5 480.1 298.4C480.1 298.7 480.2 299 480.2 299.3C480.3 300.4 481.4 301.2 482.5 300.6C484.5 299.5 486.1 298.3 487.7 296.6C486.9 296 486.1 295.4 485.3 294.8C484.1 296.5 482.9 298.2 481.6 299.8C480.4 301.3 482.4 303.4 483.7 301.9C485.3 300.2 487 298.4 488.6 296.7C487.8 296.1 487 295.5 486.2 294.9C484.2 297.9 482.2 301 480.2 304C479.4 305.3 481 306.8 482.3 306.1C491.5 300.5 493.9 288.1 497.2 278.6C497.8 276.7 495 276.1 494.3 277.8C492.2 282.9 489.5 287.9 485.9 292.1C484.2 294.1 481.5 295.2 479.9 297C479.5 297.4 479.1 297.5 478.9 298C478.4 298.9 478.8 299.8 479.8 300.2C479.9 300.2 480 300.3 480.1 300.3C480.9 300.6 481.7 300 481.9 299.3C481.9 299.2 481.9 299.2 482 299.1C482.8 297.3 479.9 296.5 479.2 298.3Z" fill="black"/>
<path d="M490.3 295.3C491.2 294.3 491.8 293.3 492.1 292.1C492.6 290.3 490.3 289.7 489.4 290.9C487.3 293.7 485.2 296.5 483.1 299.3C481.9 300.8 484.5 302.3 485.7 300.8C487.8 298 489.9 295.2 492 292.4C491.1 292 490.2 291.6 489.3 291.2C489.1 291.9 488.8 292.5 488.3 293.1C486.9 294.7 489.1 296.8 490.3 295.3Z" fill="black"/>
<path d="M444.1 270.5C441.3 264.9 444.3 262.8 449.9 261.3C450.6 261.1 451.3 261 451.9 260.7C454.3 259.6 455.7 257.2 456.7 254.9C458.3 251.5 459.2 247.8 461.3 244.7C465.7 238 473.5 238.3 476 246.3C478.5 254.3 475.4 263.2 470.1 269.3C467.5 272.3 464.3 275.1 460.5 276.4C457.2 277.6 454.3 277.2 451.1 275.8C448.8 274.8 444.6 272.8 444 270.2C443.6 268.3 440.7 269.1 441.1 271C442.2 276.2 450 279.4 454.7 280.1C459.8 280.9 464.6 278.4 468.5 275.2C477.2 268 482.6 255.3 478.4 244.3C473.9 232.4 461.7 236.8 457.2 246.2C455.8 249.1 455.1 254 452.8 256.1C449.9 258.8 446.2 257.8 443.2 259.9C439 262.9 439.4 268.2 441.5 272.3C442.4 273.8 445 272.3 444.1 270.5Z" fill="black"/>
<path d="M442.1 267.4C457.6 267 465.1 252.6 468.5 239.4C469 237.5 466.1 236.7 465.6 238.6C462.6 250.4 456.1 264 442.1 264.4C440.2 264.5 440.2 267.5 442.1 267.4Z" fill="black"/>
<path d="M401 232.5C399.2 233.5 388.3 221.6 383.7 205.7C380.3 194.1 381.3 183.8 382.5 177.3C384.2 172.1 386.6 166.5 389.9 160.8C404.1 136.4 426.5 124.9 438.1 120C435.7 122.3 432.9 125.3 430.3 129.1C426.7 134.1 424.4 138.8 422.9 142.7C426.3 139.8 430.2 136.9 434.4 134.1C443.8 127.8 452.9 123.3 460.8 120.1C459.6 125.2 458.3 130.3 457.1 135.3C459.9 133.7 463.8 131.4 468.6 129.1C473.9 126.6 484.8 121.4 486.5 123.7C487 124.4 486.4 125.2 485.5 128.1C484.3 131.9 483.9 135.1 483.7 137.2C486.8 136.7 490.3 136.3 494.1 136.2C498.3 136 502.1 136.2 505.5 136.5C504.3 141.1 503.1 145.6 501.9 150.2C504.3 151.1 507.7 152.8 511.2 155.6C520.6 163.3 523.3 173.7 524 177.8C525.5 187.6 523.1 195.8 521.3 200.3C516.5 190.1 507 186.1 501.6 188.6C498.3 190.1 494.5 194.9 494.9 199.8C495 200.9 495.3 201.9 495.6 202.6C492.1 199.4 486.8 195.1 479.9 191.1C473 187.1 465.3 182.6 455.1 181.3C435.9 178.8 420.9 189.3 416.9 192.2C410.7 196.6 400.6 203.7 398.8 215C397 224.5 402.4 231.8 401 232.5Z" fill="#5222D0"/>
<path opacity="0.11" d="M477.1 188.6C480.2 195.6 484.4 206.5 486.7 220.2C489.1 233.8 492.1 251.3 484.8 270.7C482.3 277.3 476.4 290 462.4 301.9C465.7 301.8 471.4 301.2 477.4 298C487.2 292.9 491.5 284.4 492.8 281.4C497.5 286 503.8 293.2 508.6 303.4C511.3 309.1 513 314.4 514 318.8C516.7 316.4 521.7 311.2 524 303C524.9 299.8 525.2 296.9 525.2 294.5C519.4 291.3 515.7 287.4 513.6 284.9C512.7 283.8 503.8 272.6 504.3 257.1C504.5 251.5 505.7 251.4 506.6 242.8C507.4 235.1 507 228.6 506.6 224.3C511.7 226.4 514.3 225.4 515.5 224.7C517.8 223.3 518.4 220.8 520.5 208.1C521.6 201.3 522.2 197.9 522.4 196.1C523.6 186.4 524.2 181.5 523.6 177.6C521.9 166.5 514.8 159.1 512.4 156.8C508.4 152.9 504.3 150.7 501.6 149.5C502.8 145.3 503.9 141 505.1 136.8C499.4 143.5 494.1 148.1 490.5 151.1C481.5 158.3 476.3 160 470.1 166.9C465.2 172.3 462.4 177.8 460.8 181.5C466.3 184 471.7 186.3 477.1 188.6Z" fill="#494949"/>
<path opacity="0.17" d="M435.9 121.1C432.5 122.6 424.5 126.8 418.9 135.7C417.5 137.9 414.4 143.4 413.5 151.1C412.5 159.6 414.6 166.3 415.8 169.6C416.2 161.3 418.2 147.9 426.2 134.1C429.3 128.9 432.7 124.6 435.9 121.1Z" fill="#494949"/>
<path opacity="0.08" d="M506.6 224.8C506.3 224.7 505.7 225.8 503.5 233.4C500.5 243.7 498.9 251.3 498 255.1C496.7 260.6 494.5 268.4 490.4 277.8C497.5 279.2 504.6 280.6 511.7 281.9C509.1 276.2 506 268 504.8 257.8C502.9 240.3 507.6 225 506.6 224.8Z" fill="#494949"/>
</svg>
