<svg width="1179" height="899" viewBox="0 0 1179 899" fill="none" xmlns="http://www.w3.org/2000/svg">
<path d="M161.5 741.2C163.4 740.1 165.4 739 167.3 737.9C169 737 167.5 734.4 165.8 735.3C163.9 736.4 161.9 737.5 160 738.6C158.3 739.6 159.8 742.2 161.5 741.2Z" fill="#161616"/>
<path d="M134.7 754.1C153 746.3 171.3 738.5 189.6 730.7C207.9 722.9 225 715.2 245.5 717.3C264.2 719.2 282.6 726.3 300.1 732.9C318.4 739.8 336.3 747.6 353.7 756.4C357.1 758.1 360.2 752.9 356.7 751.2C329.1 737.4 300.2 725.2 270.6 716.5C256.3 712.3 241.3 709.5 226.4 711.6C211.5 713.7 197.5 720.8 183.8 726.7C166.4 734.1 149 741.5 131.7 749C128.1 750.4 131.2 755.6 134.7 754.1Z" fill="#161616"/>
<path d="M304.3 797.9C388 797.9 471.6 797.9 555.3 797.9C579.2 797.9 603.1 797.9 627 797.9C630.9 797.9 630.9 791.9 627 791.9C543.3 791.9 459.7 791.9 376 791.9C352.1 791.9 328.2 791.9 304.3 791.9C300.4 791.9 300.4 797.9 304.3 797.9Z" fill="#161616"/>
<path d="M573 817.5C677.9 817.5 782.8 817.5 887.7 817.5C917.6 817.5 947.4 817.5 977.3 817.5C981.2 817.5 981.2 811.5 977.3 811.5C872.4 811.5 767.5 811.5 662.6 811.5C632.7 811.5 602.9 811.5 573 811.5C569.2 811.5 569.2 817.5 573 817.5Z" fill="#161616"/>
<path d="M721.2 795.6C838.4 795.6 955.5 795.6 1072.7 795.6C1106 795.6 1139.3 795.6 1172.6 795.6C1176.5 795.6 1176.5 789.6 1172.6 789.6C1055.4 789.6 938.3 789.6 821.1 789.6C787.8 789.6 754.5 789.6 721.2 789.6C717.3 789.6 717.3 795.6 721.2 795.6Z" fill="#161616"/>
<path d="M366.4 764C384.2 770.3 401.9 777 419.4 784.1C423 785.6 424.5 779.8 421 778.3C403.5 771.2 385.8 764.5 368 758.2C364.4 756.9 362.8 762.7 366.4 764Z" fill="#161616"/>
<path d="M144.4 812.5C190.4 812.5 236.5 812.5 282.5 812.5C286.4 812.5 286.4 806.5 282.5 806.5C236.5 806.5 190.4 806.5 144.4 806.5C140.6 806.5 140.6 812.5 144.4 812.5Z" fill="#161616"/>
<path d="M555 877.4C613.6 877.4 672.2 877.4 730.8 877.4C734.7 877.4 734.7 871.4 730.8 871.4C672.2 871.4 613.6 871.4 555 871.4C551.1 871.4 551.1 877.4 555 877.4Z" fill="#161616"/>
<path d="M59.7 812.9C43.8 802.4 31.9 787.2 23.4 770.3C18.6 760.9 14.9 751.1 11.8 741.1C10.4 736.8 8.09997 731.6 7.79997 727.1C7.69997 725.1 6.99997 725.4 9.09997 725.3C10.2 725.3 11.8 726.1 12.8 726.4C15.6 727.2 18.3 728.1 21.1 728.9C23 729.5 23.7 726.6 21.9 726C18.5 725 15.1 723.9 11.7 722.9C10.2 722.4 7.89997 721.3 6.19997 721.9C3.39997 722.8 4.29997 725.7 4.79997 727.9C7.89997 740.1 11.9 752.1 16.9 763.6C25.9 784.2 39.3 802.9 58.2 815.5C59.8 816.6 61.3 814 59.7 812.9Z" fill="#E8E8E8"/>
<path d="M19.4 725.5C4.50005 689.1 3.90005 649.4 3.40005 610.6C2.50005 611 1.70005 611.3 0.800049 611.7C3.60005 614.5 6.50005 617.4 9.30005 620.2C10.7 621.6 12.8 619.4 11.4 618.1C8.60005 615.3 5.70005 612.4 2.90005 609.6C2.00005 608.7 0.300049 609.4 0.300049 610.7C0.700049 649.7 1.40005 689.7 16.4 726.4C17.2 728.1 20.1 727.3 19.4 725.5Z" fill="#E8E8E8"/>
<path d="M12 617.3C12.2 592.6 14.9 568 20.3 543.9C19.6 544.2 18.8 544.5 18.1 544.8C46.7 565.1 57.9 601.2 68.3 633C80.5 670.4 90.2 708.9 94.4 748.1C95.6 759 96.3 769.9 96.6 780.9C96.9 792.3 97.5 804.2 94.4 815.3C93.9 817.2 96.8 818 97.3 816.1C99.9 806.5 99.8 796.4 99.7 786.6C99.6 776.6 99.1 766.6 98.2 756.6C96.4 736.5 93.2 716.5 88.9 696.8C84.4 676.2 78.8 655.9 72.3 635.9C66.8 618.8 61.1 601.5 53.4 585.2C45.4 568.5 34.8 553.1 19.6 542.3C18.8 541.8 17.6 542.3 17.4 543.2C12 567.6 9.2 592.4 9 617.4C9 619.3 12 619.3 12 617.3Z" fill="#E8E8E8"/>
<path d="M80.5 667.1C95.2001 623.7 127 589 145.2 547.3C144.3 547 143.3 546.8 142.4 546.5C144.2 566 145.7 585.6 147.1 605.2C147.8 615 148.3 624.8 148.9 634.6C149.1 639.2 149.4 643.7 149.6 648.3C149.8 651.8 150 652.7 147.3 655C145.4 656.6 142.8 657.8 140.6 659.2C139 660.2 140.5 662.8 142.1 661.8C145.4 659.7 148.8 657.6 152.1 655.5C152.5 655.2 152.9 654.7 152.8 654.2C151.1 618.3 148.7 582.3 145.4 546.5C145.3 545.2 143.3 544.2 142.6 545.7C124.2 587.7 92.4001 622.6 77.6 666.2C77 668.2 79.9 668.9 80.5 667.1Z" fill="#E8E8E8"/>
<path d="M140.5 661.7C154.5 660.9 145.3 691.1 143.7 698.5C141.1 710.7 138 722.8 134.4 734.7C127.1 758.8 117.6 782.1 106.2 804.5C105.3 806.2 107.9 807.7 108.8 806C122 780.1 132.6 753 140.4 725C144.3 710.9 147.5 696.6 149.9 682.2C151.2 674.2 153.5 657.9 140.6 658.7C138.6 658.8 138.6 661.8 140.5 661.7Z" fill="#E8E8E8"/>
<path d="M141.3 550.8C133.8 611.8 107.2 667.9 91.2 726.7C90.7 728.6 93.6 729.4 94.1 727.5C110.2 668.4 136.7 612 144.3 550.8C144.5 548.8 141.5 548.9 141.3 550.8Z" fill="#E8E8E8"/>
<path d="M17 544.4C40.3 614 59.1 685.1 73.2 757.1C77.2 777.5 80.8 798.1 84.1 818.6C84.4 820.5 87.3 819.7 87 817.8C75.6 745.3 59.5 673.5 38.7 603.1C32.8 583.1 26.5 563.2 19.9 543.5C19.3 541.8 16.4 542.6 17 544.4Z" fill="#E8E8E8"/>
<path d="M2.40007 636C28.7001 652.1 49.6001 675.7 62.5001 703.7C63.3001 705.5 65.9001 703.9 65.1001 702.2C52.0001 673.8 30.6001 649.8 3.90007 633.4C2.30007 632.4 0.700069 635 2.40007 636Z" fill="#E8E8E8"/>
<path d="M9.90012 743.1C36.0001 752.3 64.5001 762.9 78.7001 788.4C79.6001 790.1 82.2001 788.6 81.3001 786.9C66.6001 760.7 37.5001 749.7 10.7001 740.2C8.90012 739.5 8.10012 742.4 9.90012 743.1Z" fill="#E8E8E8"/>
<path d="M46.2 578.2C43.8 593.5 42.4 608.8 42.2 624.3C42.2 626.2 45.2 626.2 45.2 624.3C45.4 609.1 46.7 594 49.1 579C49.4 577.1 46.5 576.3 46.2 578.2Z" fill="#E8E8E8"/>
<path d="M98.8001 624C101.4 642 103.9 660 106.5 678.1C106.8 680 109.7 679.2 109.4 677.3C106.8 659.3 104.3 641.3 101.7 623.2C101.4 621.2 98.5001 622.1 98.8001 624Z" fill="#E8E8E8"/>
<path d="M124.7 635.4C134.3 626.8 142.5 616.9 149 605.7C150 604 147.4 602.5 146.4 604.2C140 615.1 132 624.9 122.6 633.3C121.1 634.6 123.3 636.7 124.7 635.4Z" fill="#E8E8E8"/>
<path d="M1023.9 787.7C1014.7 760.6 1009.5 732.5 1008.3 703.9C1007.5 704.3 1006.8 704.8 1006 705.2C1011 708.1 1015.9 711.1 1020.9 714C1022 714.6 1023.5 713.6 1023.1 712.3C1018.6 699.6 1017.8 686 1021.2 672.9C1024.7 659.7 1032.4 647.7 1038.9 635.8C1052.4 610.9 1066 586 1079.5 561.1C1078.6 561 1077.7 560.9 1076.8 560.7C1080 580.4 1083.2 600.2 1086.4 619.9C1088 629.6 1089.6 639.3 1091.1 649C1091.9 653.8 1094.1 659.9 1091.2 664.3C1088.8 667.9 1084.4 669.9 1080.5 671.6C1079.2 672.2 1079.8 673.9 1080.9 674.3C1085.2 676.1 1090.4 678.4 1092.5 682.8C1094.8 687.8 1092 695 1090.7 700.2C1088.2 710.4 1085.2 720.5 1081.7 730.5C1074.6 750.6 1065.5 769.8 1054.6 788.1C1053.6 789.8 1056.2 791.3 1057.2 789.6C1069.7 768.5 1079.9 746.1 1087.4 722.7C1089.2 717 1090.9 711.2 1092.4 705.4C1093.8 699.9 1095.7 694 1096.2 688.3C1097 679 1089 674.6 1081.6 671.5C1081.7 672.4 1081.8 673.3 1082 674.2C1087.9 671.6 1094.8 667.9 1095.5 660.7C1095.9 656 1094.4 650.8 1093.7 646.3C1092.8 640.5 1091.8 634.7 1090.9 628.8C1087.2 605.8 1083.4 582.9 1079.7 559.9C1079.5 558.6 1077.5 558.5 1077 559.5C1062.5 586.1 1048 612.7 1033.5 639.4C1027.1 651.2 1020 662.9 1017.4 676.3C1015 688.6 1016.1 701.2 1020.3 713C1021 712.4 1021.8 711.9 1022.5 711.3C1017.5 708.4 1012.6 705.4 1007.6 702.5C1006.6 701.9 1005.3 702.6 1005.3 703.8C1006.4 732.6 1011.7 761.1 1021 788.4C1021.6 790.3 1024.5 789.5 1023.9 787.7Z" fill="#E8E8E8"/>
<path d="M1092.6 627.9C1113.4 606.1 1134.1 584.1 1154.5 561.9C1153.7 561.4 1152.8 560.9 1152 560.4C1148.8 576.2 1147.4 592.4 1148.2 608.5C1148.6 616.8 1149.8 624.9 1150.8 633.1C1151.3 636.8 1151.7 640.6 1151.8 644.3C1151.9 646.3 1152.2 649.4 1150 650.7C1148.2 651.7 1143.7 651.5 1141.5 651.7C1140.4 651.8 1139.3 653.4 1140.4 654.3C1152.1 663.6 1142 680.6 1137.1 691C1131.8 702.3 1126.1 713.3 1119.9 724.1C1107.3 746.1 1092.8 767 1076.7 786.6C1075.5 788.1 1077.6 790.2 1078.8 788.7C1096.6 767.1 1112.4 743.9 1126 719.5C1132.9 707.1 1139.3 694.3 1144.9 681.3C1148.9 671.9 1151.9 659.7 1142.6 652.3C1142.2 653.2 1141.9 654 1141.5 654.9C1147.1 654.3 1154.1 655.2 1154.8 648.3C1155.6 639.1 1153.1 629.3 1152.1 620.2C1149.9 600.6 1150.9 580.8 1154.9 561.4C1155.2 560 1153.5 558.8 1152.4 559.9C1131.9 582.1 1111.3 604.1 1090.5 625.9C1089.1 627.2 1091.2 629.3 1092.6 627.9Z" fill="#E8E8E8"/>
<path d="M1140.4 579.2C1125.7 609.3 1123.1 643.9 1112.8 675.5C1101.9 709.1 1086.5 741 1070 772.1C1069.1 773.8 1071.7 775.3 1072.6 773.6C1088.6 743.3 1103.6 712.3 1114.5 679.8C1119.9 663.6 1123.9 647.2 1127.6 630.5C1131.3 613.5 1135.3 596.4 1143 580.7C1143.8 579 1141.3 577.5 1140.4 579.2Z" fill="#E8E8E8"/>
<path d="M1073.4 579C1070.6 643.6 1044.9 704.3 1039.4 768.5C1039.2 770.4 1042.2 770.4 1042.4 768.5C1047.9 704.3 1073.6 643.6 1076.4 579C1076.4 577.1 1073.4 577.1 1073.4 579Z" fill="#E8E8E8"/>
<path d="M1023.1 660.6C1029.4 678.2 1037.2 695.1 1046.5 711.3C1047.5 713 1050.1 711.5 1049.1 709.8C1039.9 693.8 1032.2 677.1 1026 659.8C1025.4 658 1022.5 658.8 1023.1 660.6Z" fill="#E8E8E8"/>
<path d="M1053.3 604.8C1056.9 618.4 1060.4 632 1064 645.6C1064.5 647.5 1067.4 646.7 1066.9 644.8C1063.3 631.2 1059.8 617.6 1056.2 604C1055.7 602.1 1052.8 602.9 1053.3 604.8Z" fill="#E8E8E8"/>
<path d="M1082.6 597.2C1078.1 605.5 1073.7 613.9 1069.2 622.2C1068.3 623.9 1070.9 625.4 1071.8 623.7C1076.3 615.4 1080.7 607 1085.2 598.7C1086.1 597 1083.5 595.5 1082.6 597.2Z" fill="#E8E8E8"/>
<path d="M1104 611.3C1105.5 633.3 1107.7 655.3 1110.7 677.2C1111 679.1 1113.8 678.3 1113.6 676.4C1110.7 654.8 1108.5 633.1 1107 611.3C1106.9 609.4 1103.9 609.4 1104 611.3Z" fill="#E8E8E8"/>
<path d="M1126.4 633.4C1127.4 627.6 1132.9 623.1 1136.7 618.8C1140.6 614.4 1144.6 610 1148.5 605.6C1149.8 604.2 1147.7 602 1146.4 603.5C1141.6 608.8 1136.9 614.1 1132.1 619.4C1128.6 623.3 1124.5 627.1 1123.5 632.5C1123.2 634.5 1126.1 635.3 1126.4 633.4Z" fill="#E8E8E8"/>
<path d="M7.1 524.5C33.7 523.3 58.5 513.6 84.3 508.1C112.9 502 141.3 505 169.5 511.6C197.1 518.1 224.3 526.5 251.7 533.7C279.2 541 306.7 547.9 334.3 554.5C445.4 581.1 557.9 602.5 671 618.6C734.4 627.6 798.1 634.9 861.9 640.5C863.8 640.7 863.8 637.7 861.9 637.5C747.5 627.4 633.7 611.9 520.8 591C464.3 580.5 408 568.8 352.1 555.6C296.8 542.6 242 527.7 187.2 512.9C157.5 504.9 126.7 498.4 95.9 502.8C65.9 507.1 37.7 520 7.2 521.3C5.2 521.5 5.2 524.5 7.1 524.5Z" fill="#E8E8E8"/>
<path d="M488 590.1C578 581.4 667.2 565.6 754.7 542.7C798.7 531.2 841.9 517.2 885.2 503.3C906.1 496.6 927.3 490.3 948.9 486.3C972.2 481.9 995.7 480.9 1019.4 482.4C1045.7 484.1 1072 487.5 1098.2 490.4C1124.5 493.3 1150.9 496.1 1177.2 499C1179.1 499.2 1179.1 496.2 1177.2 496C1130.2 490.9 1083.2 485.2 1036.1 480.7C1013.1 478.5 990 477.6 967.1 480.5C945.5 483.1 924.2 488.4 903.4 494.6C859.9 507.5 817.1 522.7 773.3 534.7C729.6 546.7 685.5 556.9 641 565.3C590.4 574.9 539.3 582.2 488 587.1C486.1 587.3 486.1 590.3 488 590.1Z" fill="#E8E8E8"/>
<path d="M507.4 736.1C584.4 735.6 644.1 679.5 711.8 651.2C731.5 643 752.2 637 773.5 635.4C775.4 635.3 775.4 632.3 773.5 632.4C697.3 638.1 639.5 694.4 570.5 720.4C550.3 728 529.1 732.9 507.4 733.1C505.4 733.1 505.4 736.1 507.4 736.1Z" fill="#E8E8E8"/>
<path d="M783.1 630.7C867 612.6 929.6 548.7 1005.5 513.1C1027.4 502.8 1050.6 495.1 1074.7 491.9C1076.6 491.6 1076.6 488.6 1074.7 488.9C988.8 500.3 924.1 564.3 849.8 602.7C828.4 613.8 805.9 622.8 782.3 627.9C780.4 628.2 781.2 631.1 783.1 630.7Z" fill="#E8E8E8"/>
<path d="M704.3 208.9C741.4 191.8 783.3 225.4 819.7 204.1C821.4 203.1 819.9 200.5 818.2 201.5C782.2 222.6 740 189.2 702.8 206.3C701 207.1 702.5 209.7 704.3 208.9Z" fill="#E8E8E8"/>
<path d="M528.7 22.4001C569.2 13.8001 609.6 26.5001 648.5 37.2001C687.3 47.9001 726.4 54.5001 766.7 53.7001C789.4 53.2001 812 50.6001 834.2 46.1001C836.1 45.7001 835.3 42.8001 833.4 43.2001C792.3 51.6001 749.8 53.1001 708.2 47.3001C668.3 41.7001 630.7 27.0001 591.2 19.9001C570.2 16.1001 548.8 15.1001 527.9 19.6001C526.1 19.9001 526.9 22.8001 528.7 22.4001Z" fill="#E8E8E8"/>
<path d="M61.6001 140.1C98.0001 119.6 140.3 117.9 179.1 132.4C198.7 139.7 217.4 148.7 237.6 154.3C256.9 159.7 276.8 162.9 296.8 164C319.8 165.2 342.9 163.4 365.6 158.9C367.5 158.5 366.7 155.6 364.8 156C322.7 164.5 278.9 162.9 237.6 151.2C217.1 145.4 198.1 136.2 178.2 128.9C159.5 122.1 140.1 118.6 120.2 119.8C99.1001 121.1 78.6001 127.1 60.2001 137.5C58.4001 138.4 59.9001 141 61.6001 140.1Z" fill="#E8E8E8"/>
<path d="M1025.8 128.2C1007.7 108.5 1001 80.1001 1006.5 54.1001C1009.3 41.0001 1015.1 28.4001 1024.1 18.3001C1030.1 11.5001 1036.9 7.8001 1045.8 6.1001C1054.7 4.4001 1063.8 3.3001 1072.9 3.2001C1104.6 3.0001 1135.4 21.9001 1143.7 53.7001C1147.9 69.9001 1144.8 85.9001 1137 100.4C1129.4 114.3 1119.1 127.7 1105.3 135.8C1079.1 151.1 1043.3 146.7 1021.8 125.3C1020.4 123.9 1018.3 126.1 1019.7 127.4C1040 147.5 1072.1 153.3 1098.4 142.5C1113.1 136.5 1124.4 125.2 1133.2 112.2C1142.9 97.9001 1149.9 81.8001 1148.5 64.2001C1145.9 31.5001 1119.2 6.5001 1087.6 1.3001C1078.3 -0.199902 1068.8 9.76324e-05 1059.5 1.1001C1051.1 2.0001 1041.7 2.8001 1034 6.6001C1021.1 12.9001 1012.3 27.8001 1007.4 40.7001C996 70.7001 1002 106.6 1023.8 130.3C1025 131.7 1027.1 129.6 1025.8 128.2Z" fill="#E8E8E8"/>
<path d="M166.1 438.7C211.2 432.5 254.5 450.6 296.7 463.9C317.5 470.5 338.7 476.3 360.5 477.9C383.5 479.6 405.5 475.3 427.2 467.9C450.3 460 472.6 450.2 496.6 445.4C519 440.9 541.9 440 564.7 441.1C611.1 443.4 656.5 453.7 702.2 461.1C751.2 468.9 801.8 473.4 850.3 460C852.2 459.5 851.4 456.6 849.5 457.1C759.4 482 667.7 446.2 577.7 439C555.6 437.2 533.2 437.1 511.1 440C487.5 443.1 465.4 450.6 443.2 458.9C420.5 467.4 397.5 475.2 372.9 475.4C350.3 475.5 328.2 470.4 306.7 463.9C260.8 450.2 214.4 429.1 165.3 435.9C163.4 436.1 164.3 439 166.1 438.7Z" fill="#E8E8E8"/>
<path d="M515.1 396.8C533.3 387.2 552.7 378.7 573.3 376.2C593.9 373.7 613.6 378.9 632.9 385.5C652.1 392 671 398.6 690.9 402.6C710.3 406.5 730 408.6 749.8 408.9C790.4 409.5 830.3 402.1 868.4 388.1C906.7 374 942.9 354.8 980.5 339.1C1023.2 321.2 1069.2 307.7 1115.9 312.7C1117.8 312.9 1117.8 309.9 1115.9 309.7C1031.5 300.7 957.2 349.3 882.2 379.6C843.3 395.3 802.8 405.1 760.8 405.9C740.1 406.3 719.3 404.7 698.9 401.1C678.6 397.5 659.2 391.5 639.8 384.7C618.9 377.4 597.5 370.8 575.1 373.1C553.3 375.3 532.9 384.2 513.6 394.3C511.9 395.1 513.4 397.7 515.1 396.8Z" fill="#E8E8E8"/>
<path d="M303.5 202.2C337 182.1 376.4 196.8 410.4 207.4C445.6 218.4 482.3 223.6 519.3 221.8C540.1 220.8 560.7 217.6 580.8 212.5C582.7 212 581.9 209.1 580 209.6C542.8 219.1 504 221.6 465.9 216.7C446.4 214.2 427.4 209.6 408.6 203.6C391.3 198.1 374 192.1 355.8 189.9C337.4 187.7 318.2 189.8 302.1 199.5C300.4 200.6 301.9 203.2 303.5 202.2Z" fill="#E8E8E8"/>
<path d="M766.5 802.8C766.5 810.5 773.7 816.1 782 822.7C789.8 828.8 802.3 836.6 820 839.9C822.9 849.9 828.9 869.2 832.9 868.2C836.2 867.4 837.7 851.9 835.8 839.3C835.1 834.6 834.4 830.2 831.9 825.7C826 815.4 818.3 818.8 810 810.7C799.6 800.5 803.6 787.1 795.6 782.3C785.3 776.1 766.5 790.2 766.5 802.8Z" fill="#161616"/>
<path d="M766.6 817.8C765.7 825.3 772.3 832.2 779.9 840.3C792.5 853.7 805.5 860.4 814.8 863.8C816.8 877.9 820.4 898.4 824.4 898.3C828.1 898.2 832 881.2 831.2 866.4C830.9 860.9 830.7 856.8 828.8 852.3C823.9 840.6 815.2 843.4 808.7 833.5C801.4 822.2 807.6 811.1 801.5 804.2C792.7 794.2 768.2 804.5 766.6 817.8Z" fill="#161616"/>
<path d="M668.8 789.9C665.1 789.5 663.4 797.2 656.7 809.3C653 816.1 643.8 832.8 629.8 842.3C618.8 849.7 609.2 849.8 609.3 853.3C609.4 855.9 614.8 857.6 617.7 858C624.8 859 630.1 854.3 631.8 852.8C643.1 845.6 652 838.2 658.3 832.4C673.9 818.1 675.7 811.9 676 807.3C676.5 799.2 672.7 790.3 668.8 789.9Z" fill="#161616"/>
<path d="M669.1 779.4C674.5 782.3 682.4 786 692.2 788.8C698.4 790.5 717.5 795.2 746.7 790.1C779 784.4 787.2 773 796 781.4C805.2 790.2 807 813.6 800.1 827.6C795.9 836.1 787.3 839.4 770.2 846.1C756.8 851.3 746.8 855.2 732.4 855.5C715.5 855.9 703.1 851 695.8 848.2C680.6 842.1 667.3 836.8 662.1 821.5C659.9 815.1 659.8 808.9 660.1 804.8C663.2 796.3 666.2 787.8 669.1 779.4Z" fill="#161616"/>
<path d="M770.9 792.7C771.7 786.9 778.4 785.4 784.2 781.7C799.5 771.8 797.4 752.9 807.9 750.3C816.8 748.1 820.6 761.2 829.6 758.7C840.2 755.7 843.2 735.3 846.9 736.7C849.6 737.7 851.2 750.3 846.9 758.2C842.5 766.2 833.3 767.1 822.8 768.1C812.3 769.1 811.5 766.7 807.1 769.1C799 773.7 800.5 782.6 790.6 792.1C785 797.5 776.2 802.8 772.5 798.9C771.2 797.5 770.6 794.9 770.9 792.7Z" fill="#161616"/>
<path d="M673.4 801.6C669.7 801.2 668 808.9 661.3 821C657.6 827.8 648.4 844.5 634.4 854C623.4 861.4 613.8 861.5 613.9 865C614 867.6 619.4 869.3 622.3 869.7C629.4 870.7 634.7 866 636.4 864.5C647.7 857.3 656.6 849.9 662.9 844.1C678.5 829.8 680.3 823.6 680.6 819C681.1 810.9 677.3 802 673.4 801.6Z" fill="#161616"/>
<path d="M621.9 786.9C624.3 801.9 622.1 805 625.8 809.9C631.4 817.4 641.9 818.4 643.7 818.6C651.5 819.4 652.7 816.2 661.1 817.1C670.5 818.1 672 822.2 676.7 820.7C683.6 818.5 685.6 807.6 686.2 804.2C686.3 803.9 686.3 803.6 686.3 803.4C687.1 796.7 685.5 790.7 683.3 786C670.3 780.4 662.6 773.4 657.9 768.1C652.9 762.4 649.8 756.6 647.1 757.3C644.1 758.1 643.7 766.4 643.8 772.9C640.2 773.9 636.6 774.9 633 775.9C623.7 766.5 620.5 765.8 619.2 766.6C617.1 767.8 619.8 773.4 621.9 786.9Z" fill="#161616"/>
<path d="M638.9 800.3C639.7 803.5 642.7 805.6 646 805.4C646.5 805.4 646.5 804.6 646 804.6C643.1 804.9 640.4 803 639.7 800.1C639.5 799.7 638.8 799.9 638.9 800.3Z" fill="white"/>
<path d="M638.6 800.1C638.6 801.3 638.6 802.6 638.3 803.8C638.2 804.4 638 804.9 637.7 805.4C637.7 805.4 636.3 807.4 636.1 807.1C635.9 806.7 635.2 807.1 635.5 807.5C636.1 808.6 637.6 806.9 638 806.4C639.3 804.6 639.4 802.2 639.4 800.1C639.3 799.6 638.6 799.6 638.6 800.1Z" fill="white"/>
<path d="M638.8 799.7C638.6 800 639.1 799.8 639 799.9C638.7 800.1 638.7 799.7 639 799.6C639.3 799.6 639.3 800 639.2 800.1C639.1 800.2 639.1 800.2 639 800.2C638.9 800.2 638.8 800.2 638.8 800.1V800C638.7 800 638.6 800 638.6 799.9C638.2 799.6 637.8 800.3 638.2 800.5C638.7 800.8 639.6 800.8 639.6 800C639.6 799.4 638.8 799 638.3 799.5C637.8 800 638.1 800.8 638.7 800.9C639.4 801.1 640 800.6 640 799.9C640 799.3 639.6 798.7 638.9 798.8C638.3 798.9 637.8 799.6 638.1 800.2C638.4 800.7 639.1 800.7 639.5 800.4C639.9 800.1 639.9 799.4 639.4 799.1C638.9 798.8 638.1 799.1 638.1 799.7C638.1 800.4 639.2 800.5 639.5 799.9C639.7 799.6 639 799.2 638.8 799.7Z" fill="white"/>
<path d="M629.1 794.4C630.3 792.6 633 792.2 634.6 793.7C635 794 635.5 793.5 635.1 793.2C633.1 791.4 629.9 791.9 628.4 794.1C628.2 794.4 628.9 794.8 629.1 794.4Z" fill="white"/>
<path d="M643.5 791.4C645 789.4 647.7 788.8 650 789.8C650.4 790 650.8 789.4 650.4 789.2C647.7 788 644.7 788.8 642.9 791.1C642.6 791.4 643.2 791.7 643.5 791.4Z" fill="white"/>
<path d="M649.5 763C650.8 765.5 651.7 768.2 652.1 771C652.2 771.5 652.9 771.3 652.8 770.8C652.3 767.9 651.4 765.2 650.1 762.6C650 762.2 649.3 762.6 649.5 763Z" fill="white"/>
<path d="M646.3 770.9C646.6 771.7 647.1 772.5 647.7 773.1C648 773.4 648.5 773 648.3 772.6C647.9 771.8 647.7 770.9 647.7 770C647.6 770.1 647.4 770.3 647.3 770.4C647.9 770.4 648.5 770.3 649 770.3C649.2 770.3 649.4 770.1 649.4 769.8C649.2 769.2 649.1 768.5 648.9 767.9C648.8 768.1 648.7 768.2 648.5 768.4C649.2 768.4 649.8 768.4 650.5 768.4C651 768.4 651 767.6 650.5 767.6C649.8 767.6 649.2 767.6 648.5 767.6C648.3 767.6 648.1 767.8 648.1 768.1C648.3 768.7 648.4 769.4 648.6 770C648.7 769.8 648.8 769.7 649 769.5C648.4 769.5 647.8 769.6 647.3 769.6C647.1 769.6 646.9 769.8 646.9 770C646.9 771.1 647.1 772 647.6 773C647.8 772.8 648 772.7 648.2 772.5C647.7 771.9 647.2 771.2 646.9 770.4C646.7 770.1 646.1 770.5 646.3 770.9Z" fill="white"/>
<path d="M634.7 802C632.7 801.2 630.7 800.2 628.9 799C628.5 798.7 628.1 799.4 628.5 799.6C630.4 800.8 632.4 801.8 634.5 802.7C635 802.9 635.2 802.2 634.7 802Z" fill="white"/>
<path d="M633.1 803.5C632 803.7 631 804 630.1 804.5C629.7 804.7 630 805.4 630.5 805.1C631.4 804.6 632.3 804.3 633.3 804.2C633.7 804.1 633.5 803.4 633.1 803.5Z" fill="white"/>
<path d="M644.4 799.6C646.4 798 648.5 796.6 650.7 795.2C651.1 795 650.7 794.3 650.3 794.6C648 796 645.9 797.5 643.8 799.1C643.5 799.4 644 799.9 644.4 799.6Z" fill="white"/>
<path d="M646.1 801.3C648.4 800.7 650.7 800.1 652.9 799.6C653.4 799.5 653.2 798.8 652.7 798.9C650.4 799.5 648.1 800.1 645.9 800.6C645.4 800.7 645.6 801.5 646.1 801.3Z" fill="white"/>
<path d="M635 808C638.4 806.8 639.2 803.2 639.3 800C639.3 799.5 638.6 799.5 638.5 800C638.3 802.8 637.7 806.1 634.7 807.2C634.3 807.4 634.5 808.2 635 808Z" fill="white"/>
<path d="M635 808C636.9 807.3 638.3 805.7 638.7 803.7C638.8 803.2 638.1 803 638 803.5C637.7 805.3 636.6 806.7 634.9 807.3C634.4 807.5 634.6 808.2 635 808Z" fill="white"/>
<path d="M621.2 771.8C623.5 774.3 625.2 777.1 626.4 780.3C626.6 780.7 627.3 780.6 627.1 780.1C625.9 776.8 624.1 773.9 621.7 771.3C621.4 771 620.9 771.5 621.2 771.8Z" fill="white"/>
<path d="M625.2 777.3C624.6 777.4 624 777.4 623.4 777.5C623.1 777.5 622.9 777.9 623.1 778.1C623.5 778.4 623.8 779 623.6 779.5C623.5 779.9 623.1 780.1 623.1 780.5C623.1 780.7 623.2 781 623.4 781.1C623.6 781.3 624 781.4 624 781.6C624 782.1 624.8 782.1 624.8 781.6C624.8 781.2 624.6 781.1 624.4 780.8C624.3 780.7 624 780.6 624 780.5C623.9 780.2 624.2 780 624.3 779.8C624.6 779 624.4 778 623.7 777.5C623.6 777.7 623.5 777.9 623.4 778.1C624 778 624.6 778 625.2 777.9C625.7 778 625.7 777.2 625.2 777.3Z" fill="white"/>
<path d="M736.3 687.4C759.1 693.8 781.9 700.3 804.7 706.7C811.2 713 821.3 721.6 835.4 728.6C859.7 740.7 889.1 744.8 891.5 739.1C892.6 736.6 886.4 731 874 719.8C863.4 710.3 858.7 707.4 851.2 700.5C845.7 695.4 838.1 687.7 830.2 676.8C821.1 676.7 810.1 675.8 797.9 673.2C778.2 668.9 762.6 661.7 751.8 655.5C746.6 666.2 741.4 676.8 736.3 687.4Z" fill="#161616"/>
<path d="M516.3 434.7C501 458.4 512.2 487.9 524.6 520.3C542.3 566.9 569.5 597.7 583.4 612.1C645.6 676.7 722 704.3 766 716.3C770.5 695.7 774.9 675 779.4 654.4C749 637.9 726.6 619.9 711.3 605.9C685.6 582.4 642.6 543.1 624.6 482.1C613.5 444.3 620.5 427.2 604 415C581 398.2 534.1 407 516.3 434.7Z" fill="#EC615B"/>
<path opacity="0.14" d="M616.8 445.9C608.4 459.5 597.8 481.6 600.9 507.1C604.5 536.6 624.5 555.3 672.1 597.3C713.9 634.1 748.6 664 772.9 684.7C775 674.6 777 664.6 779.1 654.5C763.3 645.6 742.8 632.6 720.7 614.4C708.5 604.3 690.7 589.5 671.6 566.1C658.4 549.9 640.7 527.9 628.4 494.4C621.3 475 618.3 457.9 616.8 445.9Z" fill="#6D6C6C"/>
<path opacity="0.14" d="M644.2 529.4C646.9 538.7 651.7 552.1 660.4 566.8C668 579.6 678.7 593.6 716.1 625.4C731 638 750.8 654.1 775.3 671.8C776.7 666.1 778 660.4 779.4 654.7C765.6 647.1 754.5 639.9 746.6 634.4C722.1 617.4 705.3 601.3 695.2 591.5C689 585.5 682.2 578.8 673.7 569.2C660.5 553.9 650.9 539.9 644.2 529.4Z" fill="#6D6C6C"/>
<path d="M425.1 661.9C437.8 673.3 450.5 684.7 463.2 696.1C449.3 746.5 445.1 772.7 450.7 775C457.4 777.7 478.2 745.5 513.2 678.4C490.6 662.6 468.1 646.8 445.5 631.1C438.6 641.3 431.8 651.6 425.1 661.9Z" fill="#161616"/>
<path d="M515.2 412C470.6 443.8 437.7 467.4 421.3 479.1C361.2 522.1 331.1 544.1 328.4 565.8C323.2 608.1 371.1 651.9 384.1 663.8C396.3 675 407.9 682.7 416.1 687.5C422.7 686.1 441 681.5 456.3 664.8C469.7 650.3 473.6 634.4 474.9 627.7C458 611.9 441 596 424.1 580.2C457.5 563.8 484.9 551.2 503.7 542.8C530.2 530.9 539.5 527.4 553.8 517.3C571.9 504.6 596 487.3 602.8 457.5C604.5 450 609.1 430.2 598.7 416.2C585.7 398.6 551.7 395.7 515.2 412Z" fill="#EC615B"/>
<path opacity="0.12" d="M566 434.1C569.4 436.5 599.3 458.3 594.3 479.2C593.7 481.5 592.2 486.3 578.2 498.5C559.5 514.9 541.9 524.3 533.1 528.8C514.3 538.5 500.7 544.3 487.4 550.1C471.9 556.8 449.6 566.8 422.4 579.7C439.6 595.6 456.7 611.5 473.9 627.4C473.3 632 472 637.8 469.4 644.1C465.4 653.9 459.9 661 455.9 665.4C450.2 654.5 442.3 641.7 431.4 628.7C413 606.6 393.3 592.4 378.6 583.6C414.6 568.2 463.3 541.9 510.6 497.3C533.6 475.5 551.8 453.7 566 434.1Z" fill="#6D6C6C"/>
<path opacity="0.19" d="M591.6 474.9C586.6 469.5 554.5 491.3 538.9 501.7C509.5 521.4 466.4 548.9 408.2 582.2C430.7 597.7 453.2 613.3 475.7 628.8C458.5 612.4 441.2 596 424 579.6C429.5 576.9 438.8 572.4 450.4 566.9C469.9 557.6 490.9 547.9 519.1 534.7C524 532.4 538.4 525.6 556.6 515.4C568.5 508.7 580.2 501.7 587.8 488C590 484.1 593.8 477.3 591.6 474.9Z" fill="#6D6C6C"/>
<path d="M550.8 220.5C545.8 215.1 535.4 217.3 530.2 218.4C512.3 222.1 502.2 232.8 485.5 247.5C476.5 255.4 463.4 266.3 446.5 278.7C441.5 256.2 436.6 233.8 431.6 211.3C433.6 208.8 436.9 203.9 438 197.1C438.6 193.5 440.1 180.8 431.4 172.8C421.8 163.9 404.4 165.2 396.4 174.4C388.3 183.7 392.5 197.9 394.5 204.7C396.4 211.1 399.3 216 401.6 219.2C400.9 226.3 400.2 236.6 400.9 249C401.6 262.3 402.4 275.9 408.7 290.9C413.8 303 419.9 317.5 432.8 322.8C446.8 328.6 461.3 320.3 489.6 303.6C534 277.4 544.6 255.7 547.1 250.4C549.8 244.7 557.5 227.8 550.8 220.5Z" fill="white" stroke="#161616" stroke-width="2"/>
<path d="M428.5 201.5C425.1 198.6 421.5 195.3 420.3 190.8C419.8 188.8 419.4 186 423.1 186.5C424 186.6 425.3 187.7 426 188.2C428.1 189.6 430 191.4 431.7 193.2C432.4 193.9 433.4 192.8 432.8 192.1C430.6 189.7 421.7 180.5 419 186.4C416.3 192.4 423.6 199.2 427.5 202.4C428.2 203.2 429.2 202.1 428.5 201.5Z" fill="#161616"/>
<path d="M395.1 176.3C395.6 183.6 397.9 194.7 407.7 193.1C408.7 192.9 408.2 191.5 407.3 191.7C398.6 193.1 397 182.5 396.6 176.3C396.5 175.4 395 175.4 395.1 176.3Z" fill="#161616"/>
<path d="M405.1 170.1C409.4 176.1 410.4 183.3 408 190.3C407.7 191.2 409.1 191.6 409.4 190.7C411.9 183.4 410.8 175.6 406.3 169.3C405.8 168.5 404.5 169.3 405.1 170.1Z" fill="#161616"/>
<path d="M416.3 167.6C420.1 174.6 419.2 182.9 414 189C413.4 189.7 414.4 190.8 415.1 190.1C420.7 183.6 421.8 174.5 417.6 166.9C417.2 166 415.9 166.8 416.3 167.6Z" fill="#161616"/>
<path d="M428.7 172.7C430.4 176.5 429.5 180.8 426.5 183.6C425.8 184.3 426.9 185.3 427.6 184.7C431.1 181.4 432.1 176.3 430.1 171.9C429.6 171 428.3 171.8 428.7 172.7Z" fill="#161616"/>
<path opacity="0.17" d="M404.8 168.5C406.5 168 408.6 167.4 410.6 168.2C416 170.4 418.4 181.5 413.6 187.3C411.7 189.7 409 190.6 407.3 191.1C407.4 192.8 407.5 195.6 407.7 199.1C407.7 199.1 408.2 208.4 408.8 216.3C410.4 237.5 412 257.7 420.6 278.7C423.3 285.4 427.9 294.8 435.7 305.4C439.7 304.6 447.8 302.6 457.3 298.6C511.8 275.5 539.2 214.1 548.9 219.1C550.7 220 552.2 223.5 552.4 224.1C554.2 228.5 553.3 232.8 551.9 237.4C548.3 249 542.8 257.5 541.2 259.9C535.3 268.7 529.7 274.4 528.2 275.9C521.6 282.5 515.7 286.5 504.8 293.5C484.4 306.5 474.2 313 467.3 315.8C453.3 321.5 441.4 326.4 430.4 321.2C423.8 318.1 420.5 312.8 415.7 304.8C405.5 287.6 403.6 270.8 402.1 255.2C401.2 246.3 400.6 234.1 401.6 219.5C396 210.5 393.8 202.4 392.8 197.3C391.5 190.6 390.5 185 393.3 178.9C394.1 177.7 397.5 170.6 404.8 168.5Z" fill="#6D6C6C"/>
<path opacity="0.2" d="M552.6 229.1C551.5 228.6 548.1 233.8 544.5 239.2C539.3 247.1 536.7 251.1 532.4 260.1C520.3 285.5 480 306 474.8 308.7C466.6 312.8 454.8 317.9 439.6 321.5C432.6 315.1 419.7 301.8 412.4 283C408.4 272.7 406.9 262.5 406.6 260.8C405.5 253.7 405.4 248.2 405.3 241.9C405.2 233.2 405.5 225.6 406.1 219.5C403.9 215.4 401.8 210.7 399.8 205.7C396.4 197 394.2 188.9 392.8 181.8C392.4 187.4 392.5 195.7 395.3 205.2C397.1 211.2 399.4 216.1 401.6 219.8C399.7 236 400.4 249.5 401.6 259.1C401.6 259.1 404.3 281.3 415.9 305.9C417.8 309.9 420.5 315 426 319C433.1 324.1 440.7 324.5 443.1 324.5C447.1 324.6 451.7 324 470 314.4C485.9 306.1 496.9 299 501 296.3C508.7 291.3 512.5 288.7 516.6 285.5C525 278.8 538.7 267.8 547.1 249.8C551.4 240.4 554 229.8 552.6 229.1Z" fill="#6D6C6C"/>
<path d="M559.8 196.9C540.4 210.2 517 231.2 507.2 262.6C500 285.7 504.7 301.2 503.7 338.5C503.1 359.8 500.9 390.7 493.1 428.5C497.7 433.4 525.1 461.3 567.3 460.3C593.5 459.7 612.3 448.2 620.3 442.6C614.3 405 615.9 375 618.5 354.3C623.2 317.6 635.4 296.3 635.3 254.5C635.3 234.1 632.5 217.4 630.1 206.3C624.8 202.3 614.7 195.8 600.5 193C581.5 189.5 566.2 194.4 559.8 196.9Z" fill="white" stroke="#161616" stroke-width="2"/>
<path opacity="0.13" d="M589.5 193.2C589.7 203 589.7 217.4 588.1 234.6C586.3 255.1 582.1 283.3 564.4 338.4C555 367.7 541.3 405.8 521.7 449.6C532.6 455.5 542.3 458 548.8 459.1C572.9 463.2 592.4 455.9 601.7 452.3C609.9 449.1 616.3 445.5 620.7 442.8C619 432.5 617.2 418.4 616.6 401.4C616.3 393.4 615.8 367.3 622 330.9C627.7 297.3 632.2 295.5 634.9 273.2C638.2 245.3 634.3 221.6 630.2 205.4C625.2 202.1 617.4 197.7 607.1 195.2C600.3 193.6 594.2 193.2 589.5 193.2Z" fill="#6D6C6C"/>
<path opacity="0.15" d="M606.4 195.9C607.4 214.6 607.8 238.9 605.7 267.1C604.7 280.9 602.5 308.4 595.5 339C589.2 366.8 576.1 409 546.7 457C554 458.7 564.6 460.3 577.2 459C597.6 456.9 612.4 448.5 619.9 443.4C613.9 400.8 616.7 367.4 620.6 344.4C624.3 322.6 628.6 311.8 631.5 288.1C635.6 253.8 632.7 225.2 629.5 206C627.2 203.9 623.4 200.8 618 198.5C613.4 196.8 609.3 196.2 606.4 195.9Z" fill="#6D6C6C"/>
<path d="M615.8 209.1C630.2 209.1 649 210.6 670.3 216.2C697.5 223.4 718.4 234.6 732.3 243.6C736.9 256 745.3 284 737.5 317.6C733.6 334.6 726.8 347.7 721 356.7C720.6 366.9 722.9 373.6 725.2 377.9C727.8 383 731.8 387.6 730.2 391.9C729.4 394.1 727.4 395.4 725.9 396.2C725.8 396.5 724.6 398.8 721.9 399.5C718.8 400.2 716.6 398.2 716.4 398C715.8 398.5 713.2 401 709.1 401C704.6 401.1 701.8 398.2 701.3 397.7C700.4 398.1 698.2 398.7 695.5 398.2C691.8 397.5 689.8 394.9 689.2 394.2C687.1 392.5 681.7 387.4 681.2 379.9C681 377.1 681.6 374.5 683.2 370.6C685.2 365.8 689.3 357.9 698 349.6C700.7 337 702.7 320.7 701.6 301.8C701 292.1 699.7 283.4 698.1 275.7C682.9 270.1 664.1 264.8 642.2 262.1C633.4 261 625 260.5 617.2 260.4C603.9 253.1 597.3 239 600.4 226.8C603.6 215.5 613.9 210.1 615.8 209.1Z" fill="white" stroke="#161616" stroke-width="2"/>
<path d="M686.1 372C684.4 379.8 684.2 387.8 689.1 394.5C689.7 395.3 691 394.5 690.4 393.7C685.7 387.3 685.9 379.8 687.5 372.4C687.7 371.5 686.3 371 686.1 372Z" fill="#161616"/>
<path d="M694.9 375.5C695 383 696.2 391.9 701.2 397.8C701.8 398.5 702.9 397.5 702.3 396.7C697.6 391.2 696.5 382.5 696.4 375.5C696.4 374.5 694.9 374.5 694.9 375.5Z" fill="#161616"/>
<path d="M705.5 376.8C706.2 384.3 709.1 394 715.8 398.3C716.6 398.8 717.4 397.5 716.6 397C710.4 393 707.7 383.7 707 376.8C706.9 375.8 705.4 375.8 705.5 376.8Z" fill="#161616"/>
<path d="M714.3 377.7C715.5 385.2 719.3 391.8 725.1 396.7C725.8 397.3 726.9 396.3 726.2 395.6C720.5 390.9 717 384.5 715.8 377.3C715.6 376.3 714.2 376.7 714.3 377.7Z" fill="#161616"/>
<path opacity="0.17" d="M602.4 223.6C619.4 222.2 648.5 222.2 681.2 234.7C700.4 242.1 715.3 251.6 725.8 259.7C731.9 317.2 723.3 341.7 713.6 353.2C711.5 355.6 703.2 364.8 702.2 378C701.4 388 704.9 400.2 709.8 400.9C711.8 401.2 713.7 399.5 715.2 397.8C718.1 399.9 720.3 399.8 721.1 399.6C721.8 399.5 722.8 399.2 726.6 396.3C729.6 394 731.1 392.8 731.4 392.2C733.3 388.5 728.1 383.5 724.7 377C722.5 372.8 720.3 366.4 720.6 357C727.5 346 740.5 321.6 740.6 288.6C740.7 269.4 736.3 253.8 732.5 243.5C723.6 237.6 715.7 233.6 709.9 230.9C708.4 230.2 708.2 230 683.6 220.9C673.3 217.1 671.2 216.3 667.3 215.4C661.9 214.1 661.6 214.5 649.2 212.4C642.8 211.3 636.4 210.5 630 209.4C628.3 209.1 621.9 208.1 616.3 209.8C615.5 210.1 613.6 210.6 611.5 212C611 212.4 609.5 213.4 607.4 215.7C606.1 217.5 604.2 220 602.4 223.6Z" fill="#6D6C6C"/>
<path opacity="0.14" d="M731.5 244.9C733.4 262.6 733.6 277.6 733.4 288.8C733.1 302.9 732.9 311 730.3 322C726.9 336.5 721 349.3 720.4 350.6C717.3 357.1 716.8 357.1 715.1 361.7C712.7 368.2 707.9 380.9 713.6 390.7C714.3 392 718.3 398.9 723.9 398.3C729.1 397.8 731.8 391 731.9 390.7C729.5 386.6 726.9 381.3 724.7 375.1C722.8 369.6 721.6 364.5 720.9 360.2C726.7 350.9 733.8 337.2 737.7 319.4C745 285.3 736.2 257.3 731.5 244.9Z" fill="#6D6C6C"/>
<path d="M536.4 128.6C514.4 132.1 507.8 163.1 507.1 166.2C505.6 173.2 501.7 191.5 513.8 205.1C525.7 218.5 544.1 217 546.4 216.8C551 216.4 561.9 214.5 570.2 205.9C584.8 191 583.2 164.6 571.5 147.8C570.1 145.9 555.5 125.6 536.4 128.6Z" fill="#5222D0"/>
<path d="M548.4 168.1C547.9 172.4 550 174.6 555.6 186.3C560 195.5 562.9 203.2 564.7 208.1C568.3 208.9 577.8 210.6 588.4 206.1C595.6 203.1 600.2 198.5 602.6 195.7C599.4 190.5 595.1 182.8 591.6 172.9C586.1 157.7 587.4 151.8 582.4 148.8C572.4 143.1 549.8 155.2 548.4 168.1Z" fill="white" stroke="#161616" stroke-width="2"/>
<path d="M529.6 57.3998C521.8 62.7998 519 70.8998 513.6 86.5998C507.5 104.4 503.5 119.9 502.5 130.9C502.3 132.5 503.3 134.1 504.9 134.7C507 135.5 510.5 135.5 512.5 135.8C512.7 140.7 513.6 147.5 516.7 154.9C522.8 169.6 533.6 177.8 538.6 181C544.8 181.6 560.4 182.3 575.8 172.9C586 166.6 591.3 158.8 592.5 156.9C600.3 145 601 133.1 601 128C603.4 127.8 607.2 127.2 610.9 124.7C618.5 119.6 624.2 107.8 619.4 101.3C615.8 96.5998 606.8 95.2998 598.3 99.4998C598.1 95.7998 597.4 90.6998 595.5 84.7998C595 83.3998 591.5 72.5998 585 65.2998C572.4 51.2998 545.4 46.2998 529.6 57.3998Z" fill="white" stroke="#161616" stroke-width="2"/>
<path d="M554.7 184C564.6 183.1 573.5 179 580.6 172C582 170.6 579.8 168.5 578.5 169.9C572 176.4 563.9 180.2 554.7 181.1C552.8 181.1 552.7 184.1 554.7 184Z" fill="#161616"/>
<path d="M556.2 186.5C566.5 183.6 575.6 178.2 583 170.4C584.3 169 582.2 166.9 580.9 168.3C573.9 175.7 565.3 180.9 555.5 183.6C553.5 184.1 554.3 187 556.2 186.5Z" fill="#161616"/>
<path d="M509.1 98.8002C507.7 97.5002 496.8 86.8002 498.4 71.1002C500.2 54.4002 514.7 46.4002 517.1 45.1002C529.9 38.1002 542.5 41.0002 545.4 41.8002C549.9 39.0002 558 34.8002 568.7 33.5002C584.6 31.5002 597 36.7002 602 39.2002C608.6 41.2002 618 45.1002 625.8 53.5002C636.7 65.2002 634.2 74.9002 645.4 94.6002C649.8 102.4 649.6 99.9002 666.3 122.3C681.3 142.4 688.8 152.6 690 160C692.5 176.2 683.8 193 673 202.9C652 222.1 614.6 222.9 596.8 203.6C582.1 187.7 585.4 163.3 586.4 155.5C588.2 142.2 593.2 132.1 596.8 126.2C598.5 126.5 601.1 126.9 604 126.2C609.5 125 616.1 120.5 617.3 113.3C617.4 112.8 618.8 103 611.8 99.3002C607.4 97.0002 601.6 98.0002 597.6 101.9C592.6 100.2 584.3 96.9002 576.1 89.9002C567.9 82.9002 563.2 75.4002 560.8 70.7002C557.2 69.1002 550.1 66.8002 541.4 67.9002C524.3 70.1002 515.1 84.0002 513.7 86.2002C512.2 90.3002 510.6 94.5002 509.1 98.8002Z" fill="#5222D0"/>
<path d="M531.4 108.1C531.1 107.1 530.9 106.2 530.9 105.2C530.9 104.6 530.9 104 531 103.4C531.1 102.8 531.4 102.5 530.9 102.1C530.2 101.6 530.6 102.6 530.7 103C530.7 103.5 530.7 104 530.7 104.6C530.7 105.1 530.7 107.4 530.2 107.7C530.6 107.6 531 107.6 531.4 107.5C531.7 107.9 531.8 107.9 531.7 107.5C531.7 107.2 531.6 107 531.6 106.7C531.5 106.1 531.4 105.6 531.4 105C531.4 103.9 531.5 102.8 532.1 101.9C533.1 100.2 530.5 98.6999 529.5 100.4C528.7 101.8 528.4 103.4 528.4 105.1C528.4 106.5 528.5 108.6 529.4 109.7C530.2 110.8 531.7 110.7 532.6 109.7C533.7 108.5 533.8 106.2 533.9 104.6C534 103.2 534.1 101.3 533.2 100.1C532.4 98.9999 531 98.7999 529.9 99.5999C527.4 101.5 527.9 106.4 528.7 109C529 110.7 531.9 109.9 531.4 108.1Z" fill="#161616"/>
<path d="M524.4 95.3002C529 91.7002 535.9 92.7002 539.2 97.4002C540 98.6002 542 97.4002 541.1 96.3002C536.8 90.3002 528.5 89.2002 522.7 93.7002C521.7 94.6002 523.3 96.2002 524.4 95.3002Z" fill="#161616"/>
<path d="M515.4 148.4C521.8 146.4 527.3 142.8 531.6 137.8C532.5 136.7 531 135.1 530 136.2C525.9 141 520.8 144.4 514.8 146.3C513.4 146.6 514 148.8 515.4 148.4Z" fill="#161616"/>
<path d="M531.3 117.8C531.3 117.5 531.2 117.6 531 118.2C530.8 118.3 530.6 118.3 530.4 118.4C530.4 118.4 530.4 118.4 530.5 118.4C530.3 118.3 530.1 118.3 529.9 118.2L529.8 118.1C529.7 117.9 529.6 117.8 529.5 117.6C529.5 117.7 529.5 117.7 529.5 117.5C529.6 117.3 529.6 117.1 529.7 116.9C529.8 116.8 530 116.6 530.1 116.5C530.4 116.5 530.7 116.4 531 116.4C531 116.4 531 116.4 530.9 116.4C529.5 116.1 528.9 118.2 530.3 118.6C531.6 118.9 532.3 117.3 531.4 116.4C531 116 530.3 116 529.8 116.2C529.3 116.5 529.1 117.1 529.1 117.7C529 119.3 531.3 119.3 531.3 117.8Z" fill="#161616"/>
<path d="M541.2 109.5C541.2 109.5 541.3 109.5 541.3 109.4C541.5 109.4 541.7 109.4 541.9 109.4C542.4 109.5 542.6 110.1 542.3 110.5C542.2 110.6 542 110.8 541.9 110.9C541.8 110.9 541.7 111 541.5 111C541.3 110.9 541.1 110.9 540.9 110.8L540.8 110.7C540.7 110.5 540.6 110.4 540.5 110.2C540.5 109.9 540.5 109.7 540.7 109.5C540.9 109.4 541 109.3 541.2 109.2C541.3 109.2 541.3 109.2 541.4 109.2C540.8 109.1 540.3 109.8 540.3 110.3C540.3 111 540.8 111.3 541.4 111.4C542.2 111.5 542.8 110.7 542.8 109.9C542.8 109 541.8 108.4 541 108.7C539.3 109.4 540.8 112.3 542.3 111.2C542.8 110.9 543 110.2 542.7 109.7C542.5 109.4 541.7 109.2 541.2 109.5Z" fill="#161616"/>
<path d="M541 120.3C541.4 120.5 541.4 121.1 541 121.3C540.4 121 539.9 120.7 539.3 120.3C539.3 120.6 539.3 120.9 539.3 121.2C539.8 120.8 540.2 120.5 540.7 120.1C540.8 120.3 540.8 120.4 540.9 120.5C540.8 119.9 540.4 119.4 539.8 119.4C539.2 119.4 538.6 119.9 538.7 120.5C538.8 121.3 539.3 122.1 540.1 122.2C540.8 122.3 541.5 121.9 541.5 121.1C541.5 120.8 541.5 120.5 541.5 120.2C541.5 119.3 540.5 118.8 539.8 119.2C538.7 119.8 538.7 121.4 539.8 122.1C541.2 122.9 542.3 121 541 120.3Z" fill="#161616"/>
<path opacity="0.15" d="M560.1 70.3999C561.8 75.7999 563.9 83.5999 565.6 93.0999C569.2 113 572.7 131 565.6 149C559.5 164.6 548.5 175 539.8 181.2C546.8 180.9 555.3 179.9 564.7 177.2C569.2 175.9 573.3 174.4 577 172.9C578.4 178.1 579.8 185.1 579.8 193.5C579.8 199.4 579.1 204.6 578.3 208.8C580.2 208.9 583.8 208.9 587.8 207.3C591.4 205.8 593.8 203.7 595.2 202.4C597.3 204.6 600.6 207.4 605 210.1C620.9 219.5 637.5 217 642.1 216.2C646.1 215.5 666.6 211.7 679.9 193.2C683.6 188.1 690.9 177.8 689.7 163.4C688.6 149.9 680.5 141.1 677.7 138.2C676.2 141.9 672.1 150.3 663 156.6C661.3 157.8 647.2 167.2 630.5 162.7C615 158.6 603.2 144 601 126.2C602.5 126.2 605 126.1 607.8 125C609.2 124.4 614.1 122.1 616.4 116.4C616.8 115.3 618.7 110.5 616.4 105.3C616 104.4 613.5 98.7999 607.5 97.8999C602.1 97.0999 598.1 100.8 597.7 101.3C591.8 99.3999 581.5 95.2999 571.9 85.9999C566.1 80.4999 562.4 74.7999 560.1 70.3999Z" fill="#6D6C6C"/>
<path opacity="0.23" d="M607.7 124.7C603.9 123.8 600.1 122.9 596.3 121.9C594.8 124 592.7 127.1 590.5 131.1C585.1 140.8 584 146.8 581 153.5C578.6 158.9 574.3 166.2 566.3 173.8C570.9 172.2 575.5 170.5 580.1 168.9C582.3 173.4 585.9 182.3 585 193.8C584.6 199.3 583.3 203.9 581.9 207.3C586.4 205.8 590.9 204.2 595.4 202.7C593.2 199.8 590.2 195.3 588 189.2C584.9 180.5 585.1 173.3 585.2 166.8C585.3 163.9 585.7 154.8 589.2 143.5C591.4 136.6 594 131 596.3 126.9C597.8 127.1 600.1 127.2 602.7 126.6C604.8 126.1 606.5 125.4 607.7 124.7Z" fill="#6D6C6C"/>
<path opacity="0.25" d="M512.2 151.1C511.3 153.4 506.9 165.4 513.1 177.3C517.8 186.4 529.1 196.2 540.7 193.2C548.5 191.2 552.7 184.4 554.1 182.1C557.9 191.2 561.7 200.3 565.5 209.4C564.5 210.2 562.9 211.4 560.9 212.5C546.6 220.7 530.8 215.5 529.6 215.1C526.5 214 516.8 210.5 510.5 200.6C504.6 191.2 505.2 181.7 505.7 174.4C506.3 163.9 509.7 155.9 512.2 151.1Z" fill="#6D6C6C"/>
<path d="M4.69995 396.9C38.4 395.2 70.3 407.1 100.5 420.7C131.1 434.5 160.9 449.5 193.3 458.7C212.4 464.2 232 467.9 251.8 470.2C253.7 470.4 253.7 467.4 251.8 467.2C215.8 463.1 180.8 453.5 147.6 439C117.9 426 89.2 410.3 58 401C40.7 395.8 22.8 393 4.69995 393.9C2.69995 393.9 2.69995 396.9 4.69995 396.9Z" fill="#161616"/>
<path d="M199.5 414.1C258.8 440.6 325.4 437.3 388 426.3C407.6 422.9 427.1 418.8 446.5 414.6C448.4 414.2 447.6 411.3 445.7 411.7C382.2 425.2 316.5 438.9 251.7 427C234.3 423.8 217.2 418.7 201.1 411.5C199.3 410.8 197.8 413.4 199.5 414.1Z" fill="#161616"/>
<path d="M662.7 630.5C705.4 647.1 751.3 633.4 791.7 616.9C813.5 608 835 598.2 857.5 590.9C880.3 583.6 903.8 578.4 927.6 575.6C954 572.5 980.7 572.3 1007.2 574.8C1009.1 575 1009.1 572 1007.2 571.8C961.5 567.4 915.1 571.4 870.9 583.7C826 596.3 785.3 621 739.7 631C714.5 636.5 687.9 637 663.5 627.6C661.7 626.9 660.9 629.8 662.7 630.5Z" fill="#161616"/>
<path d="M942.4 529.4C999.9 512.5 1061.9 514 1118.5 533.7C1120.3 534.3 1121.1 531.4 1119.3 530.8C1062.2 511 999.6 509.5 941.6 526.5C939.8 527 940.6 529.9 942.4 529.4Z" fill="#161616"/>
<path d="M581.6 70.1002C603.1 65.7002 624.6 61.2002 646.5 59.3002C668.5 57.4002 690.1 58.8002 711.7 62.9002C753.1 70.9002 793.4 83.9002 835.6 88.1002C858.7 90.4002 882 90.0002 904.8 85.4002C906.7 85.0002 905.9 82.1002 904 82.5002C861.5 91.1002 818.2 84.3002 776.5 74.8002C735 65.4002 694.4 52.8002 651.3 55.8002C627.5 57.5002 604.1 62.3002 580.8 67.1002C578.9 67.6002 579.7 70.5002 581.6 70.1002Z" fill="#161616"/>
<path d="M718.3 87.9C784.8 109.7 854.6 128.7 925.3 120.9C944.2 118.8 962.9 114.7 980.9 108.5C982.7 107.9 981.9 105 980.1 105.6C913.8 128.7 842.3 120.2 775.9 102.3C756.8 97.2 737.9 91.2 719.2 85.1C717.3 84.4 716.5 87.3 718.3 87.9Z" fill="#161616"/>
</svg>
