<svg width="1297" height="872" viewBox="0 0 1297 872" fill="none" xmlns="http://www.w3.org/2000/svg">
<path d="M1038.6 755.3C1019.9 736 1005.6 712.9 996.8 687.5C996.5 688.1 996.1 688.7 995.8 689.3C998.1 688.8 1000.3 688.4 1002.6 687.9C1003.9 687.6 1004.1 685.8 1003 685.2C994.4 680.6 993.4 665.8 991.5 657.3C989 646.2 986.7 635.1 984.7 624C980.5 601.2 977.3 578.2 975 555.1C974.2 555.5 973.5 556 972.7 556.4C989.4 566.3 1005.3 577.4 1020.2 589.9C1033.6 601.2 1047 613.3 1056.5 628.1C1066.7 643.8 1071.6 662.8 1074.6 681C1078 701.1 1078 721.6 1073.2 741.5C1072.7 743.4 1075.6 744.2 1076.1 742.3C1083.6 712 1079.8 679.7 1070.2 650.3C1060.9 622.2 1039.9 601.9 1017.4 583.7C1003.8 572.7 989.3 562.7 974.3 553.8C973.4 553.3 971.9 553.9 972 555.1C974.4 579.8 977.9 604.3 982.5 628.6C984.8 640.7 987.3 652.8 990.2 664.7C992.1 672.8 993.4 683.4 1001.5 687.8C1001.6 686.9 1001.7 686 1001.9 685.1C999.6 685.6 997.4 686 995.1 686.5C994.3 686.7 993.8 687.6 994.1 688.3C1003.1 714.2 1017.6 737.7 1036.7 757.4C1037.9 758.8 1040 756.7 1038.6 755.3Z" fill="#E8E8E8"/>
<path d="M975.3 557.6C1011.5 610 1036.5 669.6 1048.5 732.1C1048.9 734 1051.8 733.2 1051.4 731.3C1039.3 668.5 1014.2 608.6 977.8 556C976.8 554.5 974.2 556 975.3 557.6Z" fill="#E8E8E8"/>
<path d="M987.3 643.8C1002.4 647.1 1018.3 650.8 1028.8 663.1C1030 664.6 1032.2 662.4 1030.9 661C1020.1 648.3 1003.7 644.3 988.1 640.9C986.2 640.5 985.4 643.4 987.3 643.8Z" fill="#E8E8E8"/>
<path d="M1027.1 644C1026 630 1028.2 616.1 1033.8 603.2C1034.6 601.4 1032 599.9 1031.2 601.7C1025.4 615.1 1022.9 629.4 1024.1 644C1024.3 645.9 1027.3 645.9 1027.1 644Z" fill="#E8E8E8"/>
<path d="M1051.2 616.5C1058.4 571.7 1089.1 536.9 1118.5 504.4C1117.7 503.9 1116.8 503.4 1116 502.9C1109.1 527.6 1125.3 550.5 1131.2 573.7C1134.4 586.5 1135.9 599.7 1136.2 612.9C1136.4 619.4 1136.3 626 1136.1 632.5C1136 635.7 1136 639 1135.3 642.1C1134.3 646.4 1129.5 653.1 1124.4 648.6C1123.8 649.4 1123.2 650.2 1122.6 651C1131.4 655.6 1128.2 668.8 1126.8 676.5C1125 686.9 1122 696.8 1115.3 705.2C1105.6 717.2 1091.7 726.1 1087.1 741.5C1086.5 743.4 1089.4 744.1 1090 742.3C1095.7 723.5 1115.8 714.5 1124.1 697.1C1128.4 688.1 1130.3 677.5 1131.2 667.7C1131.9 660.6 1131.2 652.1 1124.1 648.5C1122.7 647.8 1120.9 649.7 1122.3 650.9C1125.4 653.7 1129.7 653.7 1133.2 651.4C1137.1 648.8 1138.3 644 1138.7 639.5C1140.3 624.4 1139.6 608.5 1137.8 593.5C1136 578.5 1132 564.4 1126.4 550.5C1120.5 535.7 1114.4 520 1118.9 503.9C1119.3 502.5 1117.4 501.3 1116.4 502.4C1086.7 535.3 1055.6 570.6 1048.3 615.8C1048 617.6 1050.9 618.4 1051.2 616.5Z" fill="#E8E8E8"/>
<path d="M1112.6 513.1C1091.8 564.4 1078.9 618.6 1074.3 673.8C1074.1 675.7 1077.1 675.7 1077.3 673.8C1081.9 618.9 1094.8 565 1115.5 513.9C1116.2 512.2 1113.3 511.4 1112.6 513.1Z" fill="#E8E8E8"/>
<path d="M826.8 670.2C851.3 675.5 875.2 663.7 898.8 659C924.8 653.9 951.6 653.9 977.7 658.6C979.6 658.9 980.4 656.1 978.5 655.7C954.3 651.3 929.6 651 905.4 654.8C893 656.8 881 660.2 869 663.6C855.5 667.3 841.6 670.3 827.7 667.3C825.7 666.9 824.9 669.7 826.8 670.2Z" fill="#E8E8E8"/>
<path d="M1133 661C1147.2 658.3 1161.2 661.7 1174.9 665.1C1188.3 668.3 1201.8 671.2 1215.5 673.6C1241.9 678.2 1268.7 680.9 1295.5 682C1297.4 682.1 1297.4 679.1 1295.5 679C1267 677.9 1238.7 674.8 1210.6 669.7C1197 667.2 1183.6 664.1 1170.2 660.9C1157.7 657.9 1145 655.7 1132.2 658.2C1130.4 658.5 1131.2 661.4 1133 661Z" fill="#E8E8E8"/>
<path d="M2.7 577.2C38.1 569 73.5 559.5 109.4 554.3C145.2 549.2 181.5 548.6 217.6 551.7C287 557.7 354.4 575.9 422.4 590C459.9 597.8 497.8 604.2 536.1 606.8C538 606.9 538 603.9 536.1 603.8C465.9 599 397.7 581.1 329.1 566.5C260.9 552.1 191.5 541.7 121.7 549.7C81.2 554.4 41.6 565.1 1.9 574.3C4.52995e-06 574.7 0.800004 577.6 2.7 577.2Z" fill="#E8E8E8"/>
<path d="M286.7 557.6C345.4 552.5 402.9 538.7 459.8 523.9C518 508.7 576.2 493.3 634.4 477.9C692.5 462.6 750.5 446.9 808.8 432C837.8 424.6 867.1 417.9 896.9 415.1C925.6 412.4 954.6 412.8 983.3 415.5C1050.3 421.7 1115.5 439.6 1180.2 457.4C1182.1 457.9 1182.9 455 1181 454.5C1124.1 438.8 1066.9 423.1 1008.2 415.3C979 411.4 949.4 409.4 919.9 410.6C890.9 411.7 862.3 416.3 834 422.7C805.2 429.3 776.7 437.2 748.1 444.8C718.9 452.5 689.7 460.2 660.5 467.9C601.5 483.4 542.4 499 483.4 514.5C418.7 531.5 353.6 548.7 286.7 554.5C284.8 554.8 284.8 557.8 286.7 557.6Z" fill="#E8E8E8"/>
<path d="M125.6 737.4C150 738.3 174.5 739.2 198.9 740.1C222.7 741 246.6 742.4 270.4 742.6C293.6 742.8 316 738.3 338.8 734.2C362.6 729.9 386.7 726.8 410.8 725.1C437.7 723.1 464.7 722.8 491.6 723.9C493.5 724 493.5 721 491.6 720.9C444.4 718.9 397.1 721.6 350.5 729.2C326.7 733.1 303.1 739.1 279 739.6C255.4 740.2 231.5 738.4 207.9 737.5C180.5 736.5 153.1 735.5 125.7 734.5C123.7 734.3 123.7 737.3 125.6 737.4Z" fill="#E8E8E8"/>
<path d="M76.5 868.4C78 869.5 79.5 870.5 81 871.6C82.4 872.6 84 870.4 82.8 869.2C78.2 864.4 73.7 859.7 69.1 854.9C67 852.7 64.5 850.7 62.8 848.2C60.2 844.4 62.9 842.6 63.5 839.5C64.2 836.3 61 834.5 59.2 832.5C55.2 828.2 52.6 822.8 50.6 817.3C42.3 794.6 39.4 769 38.6 745C38.1 745.5 37.6 746 37.1 746.5C62.3 744.2 76.9 768 85.3 788.1C94.7 810.4 103.3 833.7 104.4 858.2C104.5 860.1 107.5 860.1 107.4 858.2C106.2 832 96.8 806.6 86.2 782.8C77.4 762.9 61.5 741.2 37 743.4C36.2 743.5 35.5 744 35.5 744.9C36 757.8 37.2 770.6 39.3 783.3C41.4 795.7 43.8 808.5 48.4 820.2C50.1 824.5 52.2 828.6 55 832.2C57 834.7 60.4 836.9 59.2 840.6C58.7 842.1 57.7 842.9 57.8 844.7C58 849.1 62.8 852.7 65.5 855.5C70.5 860.7 75.6 866 80.6 871.2C81.2 870.4 81.8 869.6 82.4 868.8C80.9 867.7 79.4 866.7 77.9 865.6C76.4 864.7 74.9 867.3 76.5 868.4Z" fill="#E8E8E8"/>
<path d="M95.1 800.3C103.8 777.5 119.1 757.6 139 743.5C138.3 743.3 137.6 743.1 136.9 743C142.5 755.8 146.3 769.2 148.3 783C148.6 782.4 149 781.8 149.3 781.2C146.9 781.9 144.5 782.6 142 783.3C141 783.6 140.7 784.6 141.1 785.5C143.9 792.2 147 799.8 143.9 806.9C141.3 812.8 135.7 817.2 131.8 822.1C124.7 830.9 119.2 840.7 115 851.1C114.3 852.9 117.2 853.7 117.9 851.9C123.5 837.8 131.9 826.6 141.8 815.3C145.4 811.2 148.1 806.7 148.3 801.1C148.5 795.1 146 789.4 143.7 784C143.4 784.7 143.1 785.5 142.8 786.2C145.2 785.5 147.6 784.8 150.1 784.1C150.9 783.9 151.3 783.1 151.1 782.3C149 768.2 145.1 754.6 139.4 741.5C139.1 740.8 138 740.5 137.3 741C116.7 755.7 101 776 92 799.6C91.6 801.3 94.4 802.1 95.1 800.3Z" fill="#E8E8E8"/>
<path d="M47.5 761.2C73 790.5 89.6 827 94.7 865.5C95 867.4 98 867.4 97.7 865.5C92.4 826.1 75.7 789 49.6 759C48.3 757.6 46.2 759.7 47.5 761.2Z" fill="#E8E8E8"/>
<path d="M108.7 831.9C113.4 815.3 120 799.4 128.5 784.3C129.4 782.6 126.9 781.1 125.9 782.8C117.3 798.1 110.6 814.3 105.8 831.1C105.2 833 108.1 833.8 108.7 831.9Z" fill="#E8E8E8"/>
<path d="M48.5001 706.7C83.5001 699.9 119.3 697.3 154.5 704C170.9 707.1 187.1 710.7 203.7 712.6C221.2 714.6 238.9 715.4 256.5 716.1C258.4 716.2 258.4 713.2 256.5 713.1C238.9 712.3 221.2 711.6 203.7 709.6C185.5 707.5 167.7 703.2 149.6 700.1C115.8 694.3 81.1001 697.4 47.7001 703.9C45.8001 704.2 46.6001 707.1 48.5001 706.7Z" fill="#E8E8E8"/>
<path d="M180.4 825.6C200.4 822.4 220.4 819.1 240.6 817.9C261.1 816.7 280.9 818.4 301 822.1C319.4 825.5 337.2 827.1 356 826.7C375.5 826.2 395.2 825.3 414.2 830.4C416.1 830.9 416.9 828 415 827.5C396.6 822.5 377.7 823.1 358.8 823.6C348.8 823.9 338.7 824 328.7 823.2C318.4 822.4 308.2 820.3 298.1 818.5C278.7 815 259.4 813.7 239.6 814.9C219.5 816.2 199.5 819.4 179.6 822.6C177.7 823 178.5 825.9 180.4 825.6Z" fill="#E8E8E8"/>
<path d="M730.1 849.5C767.6 844.1 805.3 840.9 843.2 840.1C880.1 839.3 917 840.8 953.9 841.6C955.8 841.6 955.8 838.6 953.9 838.6C916.4 837.8 878.8 836.3 841.2 837.2C803.7 838.1 766.4 841.3 729.3 846.6C727.4 846.9 728.2 849.7 730.1 849.5Z" fill="#E8E8E8"/>
<path d="M896.3 871C910.6 864.9 926 872.3 940.7 871.6C943.8 871.4 947 871 950 870C954.1 868.6 957.9 866.4 962.3 866.2C969.9 865.8 977 868.7 984.6 867.5C986.5 867.2 985.7 864.3 983.8 864.6C975.3 866 967 861.8 958.6 863.7C954.8 864.5 951.4 866.5 947.7 867.6C943.9 868.6 940 868.8 936.1 868.7C922.2 868.1 908.3 862.8 894.7 868.6C893.1 869.1 894.6 871.7 896.3 871Z" fill="#E8E8E8"/>
<path d="M1098.6 760.5C1123.8 753 1149 753.2 1174.8 756.3C1199.1 759.2 1223.6 763 1248 758.7C1249.9 758.4 1249.1 755.5 1247.2 755.8C1221.8 760.3 1196.3 755.7 1171 752.9C1146.1 750.1 1121.8 750.4 1097.7 757.7C1096 758.2 1096.7 761.1 1098.6 760.5Z" fill="#E8E8E8"/>
<path d="M998.1 188.7C979.5 178.7 967.4 159.3 970.2 137.8C972.7 118.1 988.5 101.1 1007.8 96.4999C1027.5 91.8999 1049.5 101.2 1060.2 118.3C1071.7 136.6 1069.2 160.8 1055.1 177C1039.1 195.4 1011.1 198.2 990.9 185.2C989.3 184.1 987.8 186.7 989.4 187.8C1008.2 200 1034.2 199.2 1051.6 184.7C1068.9 170.3 1075.3 145.3 1066.7 124.4C1058.5 104.5 1037.5 91.4999 1016 92.3999C994.8 93.3999 975.6 108.7 969.2 128.8C961.2 153.7 974.6 179.3 996.7 191.2C998.3 192.2 999.8 189.6 998.1 188.7Z" fill="#E8E8E8"/>
<path d="M135 407.4C145.2 398.3 159.5 404.5 167.1 413.7C171 418.4 173.3 423.7 176.3 428.9C178.2 432.4 181 435.9 185.2 436.7C188.5 437.3 191.2 436.1 193.4 433.7C194.8 432.1 195.7 430 197.1 428.4C200.1 424.9 204 425.3 207.2 428.1C214.2 434.2 214.5 449.3 226.8 448.2C228.7 448 228.7 445 226.8 445.2C214 446.4 215.5 424.9 203.2 422.8C199.6 422.2 196.7 423.8 194.5 426.6C193.1 428.4 192.2 430.9 190.4 432.4C185.2 436.7 180.6 430.7 178.5 426.6C173.4 417.2 168.4 407.4 158.3 402.5C150 398.5 139.9 398.9 132.9 405.2C131.5 406.5 133.6 408.7 135 407.4Z" fill="#E8E8E8"/>
<path d="M808.1 272.8C806.1 267.4 803.7 261 807.3 255.7C810.6 251 816.2 253.4 820.9 251.9C827.1 249.9 830.9 243.8 832.6 237.9C834.6 231 832.2 222 836.3 215.9C841.3 208.4 852.1 217.6 858.9 213C860.5 211.9 859 209.3 857.4 210.4C850.5 215.1 841.1 205.5 834.6 213.2C829.4 219.3 831.8 228.6 830.1 235.8C828.9 240.8 826.2 246.1 821.5 248.5C817.4 250.6 812.7 248.5 808.6 250.6C799.8 255.1 802.6 266.3 805.3 273.6C805.8 275.3 808.7 274.6 808.1 272.8Z" fill="#E8E8E8"/>
<path d="M818.9 202.7C817 197.7 818.1 192 821.8 188C826.4 183 831.7 185 837.4 183C840.8 181.8 842.8 178.9 844.1 175.7C844.9 173.7 845.4 171.6 846.1 169.6C846.7 168 847.4 166.2 848.6 165C850.4 163.3 854.7 161.9 855.8 165.7C856.4 167.5 859.2 166.8 858.7 164.9C857.4 160.7 852.5 159.2 848.7 161.2C841.5 164.9 844.1 175.9 837.4 179.6C833.7 181.6 829.1 180.4 825.2 182C822.7 183.1 820.5 184.9 818.8 187C815.1 191.7 813.9 197.9 816 203.5C816.6 205.3 819.5 204.5 818.9 202.7Z" fill="#E8E8E8"/>
<path d="M903.1 309.5C900.1 305.2 901 299.1 904.9 295.5C909.4 291.3 915.9 293.2 919 298C926.1 308.7 910.4 318.1 902.9 309.2C901.6 307.7 899.5 309.9 900.8 311.3C905.1 316.4 913.1 317 918.6 313.4C924.8 309.4 925.3 301.3 921 295.6C916.8 290 909 288.1 903.4 292.7C898.1 297 896.5 305.2 900.5 310.9C901.6 312.6 904.2 311.1 903.1 309.5Z" fill="#E8E8E8"/>
<path d="M914.4 326.1C911.6 322.2 908.1 317.5 909.3 312.5C911.1 305.1 919.9 307 923.9 311.4C927.2 315.1 928.4 320.9 924.2 324.4C921 327.1 916.1 327.6 913.2 324.4C911.9 323 909.8 325.1 911.1 326.5C915.1 330.8 921.9 330.4 926.2 326.7C931.3 322.3 930.7 315 926.7 310.1C922.7 305.1 913.6 301.5 908.6 307.2C903 313.6 907.7 321.9 911.8 327.6C912.9 329.2 915.5 327.7 914.4 326.1Z" fill="#E8E8E8"/>
<path d="M241.9 534.5C253.1 537.9 264.5 539.9 276.1 540.3C278 540.4 278 537.4 276.1 537.3C264.7 536.9 253.5 535 242.7 531.6C240.8 531 240 533.9 241.9 534.5Z" fill="#E8E8E8"/>
<path d="M991.9 454.5C1059.9 454 1123.9 479.4 1188.1 498.2C1206.5 503.6 1225.1 508.5 1243.9 512.2C1245.8 512.6 1246.6 509.7 1244.7 509.3C1178 496.1 1115.1 467.8 1048 456.3C1029.5 453.1 1010.7 451.3 991.9 451.5C990 451.5 990 454.5 991.9 454.5Z" fill="#E8E8E8"/>
<path d="M323.4 20.9002C326.9 29.3002 331.2 47.9002 343.8 39.6002C348 36.9002 354.2 29.0002 358.7 35.4002C361.4 39.2002 361.6 44.2002 366.7 45.9002C368.5 46.5002 369.3 43.6002 367.5 43.0002C362.8 41.4002 362.8 34.2002 359 31.3002C356.5 29.4002 353.4 29.5002 350.7 30.9002C346.7 32.8002 343.8 37.1002 339.6 38.5002C332.1 41.0002 328.3 24.9002 326.3 20.1002C325.5 18.4002 322.6 19.1002 323.4 20.9002Z" fill="#E8E8E8"/>
<path d="M354.5 22.6998C360.1 18.3998 368.3 20.3998 371.1 26.8998C372.8 30.9998 374.1 33.3998 378.9 33.6998C381.2 33.7998 383.7 32.9998 386 33.3998C390.8 34.1998 390.8 38.3998 391.6 42.2998C392.4 46.1998 394.2 49.5998 398.4 50.0998C400.3 50.2998 400.3 47.2998 398.4 47.0998C392.9 46.4998 395.2 35.1998 390.9 31.9998C386.3 28.5998 379.4 33.0998 375.8 28.8998C374.1 26.8998 373.6 24.1998 371.8 22.1998C370.4 20.4998 368.5 19.2998 366.4 18.4998C361.9 16.6998 356.9 17.2998 353.1 20.1998C351.4 21.2998 352.9 23.8998 354.5 22.6998Z" fill="#E8E8E8"/>
<path d="M444.5 117C450.8 118.3 457.5 114.3 459.2 107.9C460.8 101.9 456.9 96.2002 451.2 94.3002C437.9 89.8002 430.5 108.1 441.3 115.6C442.9 116.7 444.4 114.1 442.8 113C435.2 107.7 439.9 94.4002 449.6 96.9002C453.8 98.0002 457.3 101.8 456.5 106.3C455.6 111.4 450.4 115.1 445.3 114C443.4 113.7 442.6 116.6 444.5 117Z" fill="#E8E8E8"/>
<path d="M454.2 122.1C451.8 120.2 448.9 118.1 447.9 115C446.5 110.8 450.5 105.8 455.2 107C458.5 107.9 460.8 111.7 460 115.1C459 118.9 454.7 120.8 451.1 119.9C449.2 119.4 448.4 122.3 450.3 122.8C455.2 124 460.6 121.7 462.6 116.9C464.5 112.2 461.9 106.5 457.3 104.5C452.7 102.6 447.4 105.1 445.4 109.5C442.6 115.6 447.7 120.7 452.2 124.2C453.5 125.4 455.7 123.3 454.2 122.1Z" fill="#E8E8E8"/>
<path d="M254.7 319.6C250.1 315.5 249.2 309.3 253.7 304.7C257.6 300.8 263.4 300.9 267.1 305C274.8 313.6 263.7 324.8 254.6 318.9C253 317.8 251.5 320.4 253.1 321.5C258.5 325 265.9 323.8 270.1 319C274.4 314 273.1 306.5 268.5 302.1C263.6 297.5 256.3 297.8 251.6 302.5C245.9 308.2 246.8 316.5 252.6 321.7C254 323 256.1 320.9 254.7 319.6Z" fill="#E8E8E8"/>
<path d="M681 36.8999C686.8 24.1999 694.9 12.8999 704.9 3.19992C706.3 1.89992 704.2 -0.300084 702.8 1.09992C692.6 10.9999 684.4 22.4999 678.4 35.4999C677.6 37.0999 680.2 38.6999 681 36.8999Z" fill="#E8E8E8"/>
<path d="M693.5 34.9001C699.5 27.5001 706.2 20.6001 713.4 14.3001C714.9 13.0001 712.7 10.9001 711.3 12.2001C704.1 18.5001 697.5 25.4001 691.4 32.8001C690.2 34.3001 692.3 36.4001 693.5 34.9001Z" fill="#E8E8E8"/>
<path d="M701.1 43.8999C703.8 41.5999 706.5 39.3999 709.2 37.0999C710.7 35.8999 708.5 33.6999 707.1 34.9999C704.4 37.2999 701.7 39.4999 699 41.7999C697.5 42.9999 699.6 45.0999 701.1 43.8999Z" fill="#E8E8E8"/>
<circle cx="842.6" cy="38.1" r="14.6" fill="#5222D0"/>
<circle cx="835.9" cy="66.7" r="8.7" fill="#5222D0"/>
<circle cx="375" cy="452.6" r="10.7" fill="#5222D0"/>
<circle cx="392.4" cy="486.7" r="5.9" fill="#5222D0"/>
<path d="M496.6 331.1C497.5 339.8 500.3 347.5 510.2 347.3C513.6 347.3 516.5 346.3 519.1 348.9C521.5 351.3 520.8 353.7 521.8 356.7C522.3 358.2 523 359.6 524.4 360.6C526.2 361.9 533 361.9 532.4 364.9C532 366.8 534.9 367.6 535.3 365.7C536 362.3 533.7 360.3 530.5 359.4C525.9 358.1 524.8 356.3 524.1 352.2C523.8 350.3 523.4 348.4 522.1 346.8C519.5 343.7 515.3 344.1 511.7 344.2C507.8 344.4 504.1 344.1 502 340.3C500.4 337.5 500 334.1 499.7 331C499.4 329.2 496.4 329.2 496.6 331.1Z" fill="#5222D0"/>
<path d="M506.8 367.9C512 362.4 518.2 368 519.8 373.5C520.5 375.7 520.6 377.8 522.2 379.5C525.8 383.5 532.4 381.3 535.7 385.5C536.9 387 539 384.9 537.8 383.4C535.6 380.6 532.5 380.2 529.2 379.5C526.1 378.8 524.4 377.7 523.2 374.6C522.4 372.7 522.3 370.7 521.2 368.8C517.8 362.7 509.8 360.3 504.7 365.7C503.3 367.2 505.4 369.3 506.8 367.9Z" fill="#5222D0"/>
<path d="M862 357.8C860.1 354.2 864.1 351.5 867.1 353.7C868 354.3 869.4 353.5 869.4 352.4C869.1 349 872.5 346.5 875.7 347.7C877.5 348.4 878.3 345.5 876.5 344.8C871.5 342.9 866 347.1 866.4 352.4C867.2 352 867.9 351.5 868.7 351.1C863 347 856.3 353.3 859.5 359.3C860.3 361 862.9 359.5 862 357.8Z" fill="#5222D0"/>
<path d="M879 356.2C878.3 354.5 883.1 354.2 883.9 354.2C886.4 354.3 888.8 354.7 891.3 354.9C893.2 355.1 893.2 352.1 891.3 351.9C887.4 351.5 883 350.4 879.2 352C876.7 353.1 875.3 355.1 876.4 357.7C877.1 359.5 879.7 357.9 879 356.2Z" fill="#5222D0"/>
<circle cx="357.9" cy="464.4" r="11.8" fill="#EC615B"/>
<circle cx="469.6" cy="18.0001" r="15.9" fill="#EC615B"/>
<circle cx="181.4" cy="628.5" r="20.1" fill="#EC615B"/>
<circle cx="867.5" cy="567.4" r="10.3" fill="#EC615B"/>
<path d="M752.9 812C774.1 806.9 795.4 801.7 816.6 796.6C830.2 797.6 850.4 797.9 874.4 793.9C897.2 790.1 940.9 779.4 940.6 767.6C940.4 759.8 920.9 754.2 888.7 744.9C867.4 738.8 849.5 735.2 837.6 733.1C824.4 739.6 810.2 746 794.9 752.1C774.2 760.4 754.5 766.9 736.2 772C741.7 785.4 747.3 798.7 752.9 812Z" fill="#161616" stroke="#161616" stroke-width="3"/>
<path d="M700.5 791.7C721.7 786.6 743 781.4 764.2 776.3C777.8 777.3 798 777.6 822 773.6C844.8 769.8 888.5 759.1 888.2 747.3C888 739.5 868.5 733.9 836.3 724.6C815 718.5 797.1 714.9 785.2 712.8C772 719.3 757.8 725.7 742.5 731.8C721.8 740.1 702.1 746.6 683.8 751.7C689.3 765.2 694.9 778.5 700.5 791.7Z" fill="#161616" stroke="#161616" stroke-width="3"/>
<path d="M591.1 607C572.2 617.2 555.9 628.5 553.1 630.4C543.5 637.1 521.1 652.8 498.9 675.7C466.1 709.5 438.5 737.9 440.3 773.9C441.9 806.3 466.4 828.8 469.1 831.2C512.8 870.2 606.2 856 700.5 795.9C697.1 778 693.8 760.2 690.4 742.3C698.8 740.6 717.8 735.5 735.1 719.2C756.6 698.9 761.4 674.3 762.6 666.3C762.5 657.2 761.4 646.5 758.3 634.9C748.8 599.3 726.2 576.8 714.2 566.5C683.1 571.9 636.3 582.8 591.1 607Z" fill="white" stroke="#161616" stroke-width="3"/>
<path d="M662.6 625.7C643.4 636.1 626.3 647.9 624.6 649.1C599.8 666.4 582.3 683 570.4 694.4C527.9 735.2 497.7 762.9 501.7 796.5C505.6 828.8 537.9 848.3 540.6 849.8C559.5 860.8 578.7 861.1 594.1 860.3C663.3 856.7 740.9 827.2 772 814.5C768.6 796.6 765.3 778.8 761.9 760.9C770.3 758.1 794.1 748.7 809.8 723.9C812.2 720.1 820.6 706.2 822.9 686.3C823.6 680.6 824.4 668.6 818.1 643.7C814.2 628.3 807.2 606.8 794.1 582.4C766.5 587.3 712.6 598.7 662.6 625.7Z" fill="white" stroke="#161616" stroke-width="3"/>
<path d="M653.5 780C690.6 780.9 727.6 775.3 762.7 763.4C764.5 762.8 763.7 759.9 761.9 760.5C727 772.4 690.4 778 653.5 777C651.6 776.9 651.6 779.9 653.5 780Z" fill="#161616"/>
<path d="M643.8 769.5C646.3 773.8 650.1 777.2 654.7 779.1C656.5 779.8 658 777.3 656.2 776.5C652 774.7 648.7 771.9 646.4 768C645.4 766.3 642.8 767.8 643.8 769.5Z" fill="#161616"/>
<path opacity="0.12" d="M706.8 695.4C672 714.9 654 711.7 619.4 738.7C610.4 745.8 557.8 786.9 564.5 828.6C565.1 832.1 568.2 851.7 582.8 859.4C589 862.7 595.1 862.5 603.6 861.9C632.1 859.7 654.1 854.3 656.8 853.6C691.8 844.9 685.9 848.5 710 842C725.9 837.7 747.4 830.9 772.4 820.4C769.1 802.9 765.7 785.5 762.4 768C769.7 764.6 779.7 758.9 789.9 749.7C797.3 743 818.4 724 823.2 694C825.8 677.9 822.6 665.6 817.4 645.7C812.1 625.4 804.7 609.6 799.1 599.1C767.9 653.8 732.9 680.9 706.8 695.4Z" fill="#3D3D3D"/>
<path opacity="0.11" d="M669.4 609.1C668 606.7 624 626.7 573.7 663.2C511.5 708.3 477 735 475.5 773C473.8 817.3 534.5 854.3 537.1 852C538.5 850.7 501.9 825.4 501.3 788.8C500.9 764.9 516.1 746 542.9 718.9C611.4 649.6 671.1 612 669.4 609.1Z" fill="#3D3D3D"/>
<path opacity="0.12" d="M810.8 630.8C806.2 649 796.7 675.9 775.9 702.4C731.6 758.7 668.7 771.7 650.3 774.8C653.4 777.8 656.4 781.2 659.5 784.8C676.1 804.8 684.3 826.2 688.6 843C715.8 833.6 743 824.1 770.1 814.7C765.9 798.1 761.8 781.4 757.6 764.8C766.2 761.3 780.2 754.2 793.4 740.7C798.9 735 812.2 721.1 818.4 699.1C827.4 666.5 814.8 638.7 810.8 630.8Z" fill="#3D3D3D"/>
<path d="M594.6 340.6C603 341.8 606.6 366.9 607.8 375.2C612.7 408.9 602.3 424 600.7 465.3C599.4 498.1 605.4 499.6 602.7 515.6C598.7 539 580.2 569 514.5 596.2C509.6 601.5 500.9 609.8 488.3 615.1C461.8 626.3 427 620.5 422.3 604.4C420.7 599 422.2 591.5 425.9 588C431.9 582.2 441.1 590.5 456.3 585C457.1 584.7 463.9 582.2 463.7 580.4C463.6 579.3 461 578.9 457.9 578.5C443.8 576.5 439.6 576.9 439.3 575.7C438.8 573.7 449.6 566.8 463.6 562.8C474.4 559.7 489 557 507 557.9C522.7 540.2 538.5 522.5 554.2 504.8C552.7 482 553 449.5 561.6 412.6C567.9 385.8 582.8 338.9 594.6 340.6Z" fill="white" stroke="#161616" stroke-width="3"/>
<path opacity="0.12" d="M595 340.1C582.7 340.3 571.6 389.2 569.3 423.9C566.4 467.8 577.9 481.5 569.3 508.4C563.6 526.2 549.2 549.1 510.5 569.9C480 595.4 459.7 598.1 446.3 594.9C438.1 593 427.9 587.7 423.3 592.2C419.4 596 421.2 605.4 425.3 611.8C435.1 626.7 464.6 623.1 481.4 617.2C497 611.7 507.3 602.1 513.2 595.6C526.9 591.9 558.9 581.2 585.5 551C611.4 521.6 617.5 490.3 620.6 473.3C632.5 408.6 610 339.8 595 340.1Z" fill="#3D3D3D"/>
<path d="M746.7 282.6C782.3 290.1 809.3 320.2 821 347.9C833.9 378.3 826.4 402.1 819.2 452.4C814.3 486.9 809 536.6 809 598.7C798.2 606.9 747.1 644.3 677.5 634.8C633.3 628.8 603.1 606.9 589.8 595.8C592 579.8 594.2 555 591.6 525C587.8 482.8 577.6 466.3 575.7 432.9C574.5 411.8 576.3 380.7 592.5 341.7C601.6 335.5 614.5 327.3 630.6 318.7C680.6 292 711.9 275.3 746.7 282.6Z" fill="#EC615B"/>
<path opacity="0.14" d="M712.1 329.3C721.3 353.9 734.3 399.5 727.4 455.9C715.9 549.6 657.2 607.5 639 624.1C653.6 629.9 683.8 639.5 722.3 635.1C765.8 630.1 795.6 609.9 808.1 600.3C807 558.7 809.5 524.1 812.3 498.4C820.9 421 836.4 393.1 819.9 350.6C816 340.5 802.9 306.7 769.8 291.1C761.1 287 753.2 285.2 747.7 284.3C745.7 291.4 741.1 304.1 729.9 315.7C723.7 322.3 717.2 326.5 712.1 329.3Z" fill="#3D3D3D"/>
<path opacity="0.21" d="M823.4 365C797.1 436.4 770.7 507.7 744.4 579.1C721.5 597.8 698.5 616.5 675.6 635.2C692.7 636.7 719.9 636.8 751.2 627.6C777.2 619.9 796.9 608.5 809.8 599.6C809.5 589 809.3 573.4 809.8 554.6C811.2 507.4 811.8 483.8 818.3 455.2C824.3 428.8 832.4 408.7 826.8 378.7C825.7 372.7 824.4 368 823.4 365Z" fill="#3D3D3D"/>
<path d="M399.7 571.5C411.6 600.3 423.6 629.1 435.5 657.8C483.9 641 532.4 624.1 580.8 607.3C569.2 579.6 557.6 551.8 546.1 524.1C497.3 539.9 448.5 555.7 399.7 571.5Z" fill="white" stroke="#161616" stroke-width="3"/>
<path d="M384.1 476.3C400.3 488.1 419.7 504.6 438.8 526.8C454.3 544.8 465.9 562.3 474.6 577.3C493.6 547.8 512.5 518.3 531.5 488.9C509.4 464.3 487.3 439.8 465.2 415.2C438.1 435.6 411.1 455.9 384.1 476.3Z" fill="white" stroke="#161616" stroke-width="3"/>
<path d="M296.5 339.1C296.5 366.1 296.5 393.1 296.5 420.2C317.2 410 337.9 399.8 358.6 389.7C372.3 383 386 376.3 399.7 369.7C395.8 350 392 330.4 388.1 310.7C357.6 320.1 327.1 329.6 296.5 339.1Z" fill="white" stroke="#161616" stroke-width="3"/>
<path d="M236.2 166.7C246.4 190.9 256.6 215.1 266.7 239.3C302.8 218.6 339 197.9 375.1 177.2C360 148.4 344.9 119.6 329.8 90.8999C320.3 101.9 308.8 113.8 295.1 125.6C274.2 143.8 253.7 157 236.2 166.7Z" fill="white" stroke="#161616" stroke-width="3"/>
<path d="M86.7 198.3C83.5 216.9 80.4 235.5 77.2 254.1C114 245.7 150.9 237.3 187.7 228.8C187 208.4 186.3 188.1 185.6 167.7C152.7 177.9 119.7 188.1 86.7 198.3Z" fill="white" stroke="#161616" stroke-width="3"/>
<path d="M400.8 574C435.4 579.1 469.7 585.5 503.7 593.2C505.6 593.6 506.4 590.7 504.5 590.3C470.4 582.6 436.1 576.1 401.6 571.1C399.7 570.9 398.9 573.8 400.8 574Z" fill="#161616"/>
<path d="M544.1 525.5C533 548.6 519.5 570.5 503.8 590.7C502.6 592.2 504.7 594.3 505.9 592.8C521.8 572.4 535.5 550.3 546.7 527C547.5 525.3 544.9 523.8 544.1 525.5Z" fill="#161616"/>
<path d="M408.9 482.3C425.7 464.5 444.4 448.6 464.8 435C466.4 433.9 464.9 431.3 463.3 432.4C442.7 446.2 423.8 462.2 406.8 480.2C405.4 481.5 407.6 483.7 408.9 482.3Z" fill="#161616"/>
<path d="M423.4 491.3C436 477.4 449.9 464.8 464.9 453.7C466.4 452.6 464.9 450 463.4 451.1C448.1 462.4 434 475.1 421.3 489.2C419.9 490.6 422 492.7 423.4 491.3Z" fill="#161616"/>
<path d="M436 508.1C452.3 489.8 470.2 472.9 489.6 457.8C491.1 456.6 489 454.5 487.5 455.7C468.2 470.8 450.2 487.6 433.9 506C432.6 507.4 434.8 509.5 436 508.1Z" fill="#161616"/>
<path d="M457.4 528.4C463.1 519.2 470.7 511.4 478.2 503.6C486.4 495.3 494.6 486.9 502.8 478.6C504.2 477.2 502 475.1 500.7 476.5C492.1 485.3 483.5 494 474.9 502.8C467.5 510.3 460.4 518 454.8 526.9C453.8 528.5 456.4 530 457.4 528.4Z" fill="#161616"/>
<path d="M431.5 615.4C433.3 623.6 436.3 631.3 440.4 638.5C441.3 640.2 443.9 638.7 443 637C439 629.9 436.1 622.5 434.4 614.6C434 612.7 431.1 613.5 431.5 615.4Z" fill="#161616"/>
<path d="M433.9 617.2C443.9 611.2 454.7 607.5 466.2 605.9C465.6 605.6 465 605.2 464.4 604.9C466.4 611.4 468.3 617.8 470.3 624.3C470.9 626.1 473.8 625.4 473.2 623.5C471.2 617 469.3 610.6 467.3 604.1C467 603.2 466.3 602.9 465.5 603.1C453.7 604.7 442.7 608.6 432.5 614.7C430.7 615.6 432.2 618.2 433.9 617.2Z" fill="#161616"/>
<path d="M442.3 639.7C451.8 635.8 461.1 631.4 470.3 626.7C472 625.8 470.5 623.2 468.8 624.1C459.9 628.7 450.8 632.9 441.5 636.8C439.7 637.6 440.5 640.5 442.3 639.7Z" fill="#161616"/>
<path d="M518.8 594.6C529.8 588.7 541.5 584.6 553.7 582.1C555.6 581.7 554.8 578.8 552.9 579.2C540.4 581.7 528.5 586 517.3 592C515.5 592.9 517.1 595.5 518.8 594.6Z" fill="#161616"/>
<path d="M522.4 603.2C529.1 600.3 535.8 597.4 542.4 594.5C544.2 593.7 542.6 591.1 540.9 591.9C534.2 594.8 527.5 597.7 520.9 600.6C519.1 601.4 520.7 603.9 522.4 603.2Z" fill="#161616"/>
<path d="M305.5 349.6C329.3 341.7 353.1 332.1 377.8 327.3C379.7 326.9 378.9 324 377 324.4C352.4 329.3 328.5 338.8 304.7 346.7C302.9 347.3 303.7 350.2 305.5 349.6Z" fill="#161616"/>
<path d="M305.1 362.5C327.9 352 351.5 343.5 375.7 337.1C377.6 336.6 376.8 333.7 374.9 334.2C350.4 340.7 326.6 349.3 303.6 359.9C301.9 360.7 303.4 363.3 305.1 362.5Z" fill="#161616"/>
<path d="M303.3 375.5C313.3 371.4 323.1 367 332.8 362.3C334.5 361.5 333 358.9 331.3 359.7C321.8 364.3 312.2 368.6 302.5 372.6C300.8 373.3 301.5 376.2 303.3 375.5Z" fill="#161616"/>
<path d="M308.8 386.3C329.9 375.6 351.5 365.8 373.5 357.1C375.3 356.4 374.5 353.5 372.7 354.2C350.4 363 328.6 372.9 307.3 383.7C305.5 384.6 307.1 387.2 308.8 386.3Z" fill="#161616"/>
<path d="M248.9 172.9C277.3 159.1 303.7 141.7 327.7 121.3C329.2 120 327 117.9 325.6 119.2C301.8 139.5 275.5 156.6 247.4 170.4C245.6 171.2 247.1 173.8 248.9 172.9Z" fill="#161616"/>
<path d="M255 185.9C266.9 179 278.3 171.4 289.3 163.1C290.8 162 289.3 159.3 287.8 160.5C276.8 168.8 265.4 176.4 253.5 183.3C251.8 184.3 253.3 186.9 255 185.9Z" fill="#161616"/>
<path d="M262.6 195C288.2 181.3 312.8 166.1 336.5 149.3C338.1 148.2 336.6 145.6 335 146.7C311.4 163.5 286.7 178.7 261.1 192.4C259.4 193.3 260.9 195.9 262.6 195Z" fill="#161616"/>
<path d="M269 210.5C297.3 197.7 324.3 182.3 349.7 164.3C351.3 163.2 349.8 160.6 348.2 161.7C322.9 179.7 295.9 195.1 267.5 207.9C265.7 208.7 267.2 211.2 269 210.5Z" fill="#161616"/>
<path opacity="0.13" d="M408.1 459.7C418.8 457.3 429.5 454.9 440.2 452.5C455.4 484.5 470.6 516.5 485.8 548.4C501 528.7 516.2 509.1 531.4 489.4C509 465.3 486.6 441.1 464.3 417C445.5 431.3 426.8 445.5 408.1 459.7Z" fill="#3D3D3D"/>
<path opacity="0.21" d="M329.5 332.1C323.9 357.8 318.3 383.6 312.7 409.3C341.3 395.6 369.9 381.8 398.6 368.1C394.4 349.9 390.3 331.6 386.1 313.4C367.2 319.7 348.3 325.9 329.5 332.1Z" fill="#3D3D3D"/>
<path opacity="0.08" d="M458.5 554.2C464.1 567.8 469.7 581.4 475.3 595C484.6 597.1 493.8 599.2 503.1 601.2C513.2 608.2 523.2 615.3 533.3 622.3C548.6 617 564 611.7 579.3 606.5C567.6 580 556 553.4 544.3 526.9C529 531.5 513.6 536.2 498.3 540.8C490.3 553.6 482.3 566.4 474.3 579.2C469 570.8 463.8 562.5 458.5 554.2Z" fill="#3D3D3D"/>
<path opacity="0.15" d="M105.5 199.5C100.7 216.2 96 233 91.2 249.7C123.1 242.3 155 234.9 186.9 227.5C185.8 208.3 184.8 189.1 183.7 169.9C157.6 179.8 131.5 189.7 105.5 199.5Z" fill="#3D3D3D"/>
<path opacity="0.11" d="M281.5 142.4C285.2 196.4 288 223.3 290 223.3C290.6 223.3 291.1 220.6 291.6 215.4C317.8 202.2 344.1 189 370.3 175.8C357.1 151.1 343.9 126.5 330.7 101.8C314.2 115.3 297.8 128.9 281.5 142.4Z" fill="#3D3D3D"/>
<path d="M798.2 322.9C811.7 321.1 828.1 360.3 835.1 383.7C846.9 423.3 842.7 458 838.7 490.2C834.4 524.5 832.3 541.7 824.1 559.7C797.6 617.9 731 640.2 704.9 647.4C697.8 652.6 685.1 660.9 667.6 666.3C630.5 677.7 581.8 672.8 575.1 653.7C572.9 647.3 575 638.5 580.1 634.4C588.6 627.6 601.3 637.3 622.7 630.8C623.8 630.5 633.3 627.5 633 625.4C632.8 624.1 629.3 623.7 624.9 623.2C605.2 620.9 599.3 621.3 598.9 619.9C598.3 617.5 613.4 609.5 632.9 604.7C648.1 601 668.5 597.8 693.7 598.9C718.3 576.3 742.9 553.6 767.5 531C767.3 475.8 771.7 430.3 776.2 396.9C785.6 329.1 793.7 323.5 798.2 322.9Z" fill="white" stroke="#161616" stroke-width="3"/>
<path d="M573.6 652.9C577.4 657 584.4 658.2 589.5 659.7C597 661.8 604.7 663.4 612.5 664.4C614.4 664.7 615.2 661.8 613.3 661.5C606.8 660.6 600.3 659.4 593.9 657.7C588.4 656.3 579.6 655.1 575.7 650.7C574.4 649.4 572.3 651.5 573.6 652.9Z" fill="#161616"/>
<path d="M575.3 643.8C587.8 651.5 601.8 655.8 616.5 656.5C618.4 656.6 618.4 653.6 616.5 653.5C602.3 652.9 588.9 648.7 576.8 641.2C575.2 640.2 573.6 642.8 575.3 643.8Z" fill="#161616"/>
<path d="M580.6 636.8C594.6 643.9 609.8 647.6 625.5 647.6C627.4 647.6 627.4 644.6 625.5 644.6C610.3 644.6 595.6 641.1 582.1 634.2C580.4 633.3 578.9 635.9 580.6 636.8Z" fill="#161616"/>
<path opacity="0.15" d="M793 327.3C802 346.9 813.9 378.7 817.4 419.4C820 449.9 824.3 501.9 793 553.7C762.2 604.6 715.5 624.8 698.2 632.2C680.8 639.7 651.6 651.9 613.7 647.9C598.4 646.3 586 642.5 577.4 639.2C575.5 643.4 573.7 649.4 575.8 654.9C582.6 672.8 625 672.5 647.8 669C660.5 667.1 681.6 662 705.2 646.3C733.6 637.9 804.2 612.9 825.4 556.4C831.6 539.9 835.3 516.2 837.3 503.3C840.1 485.1 844.2 457.8 841.6 422.6C841.6 422.6 837.8 371.7 809.6 330C808.3 328 805.3 323.8 800.9 323.5C797.5 323.3 794.5 325.8 793 327.3Z" fill="#3D3D3D"/>
<path opacity="0.09" d="M839.6 461.1C836.6 460.6 830.2 493.8 823.4 514.7C811.6 550.9 782.8 598.8 706.4 646.3C723.7 642.4 748.3 634.2 773 616.5C785.5 607.5 806.6 592.4 821.2 564.5C831.3 545.2 834 527.9 837.4 505.5C840.5 485.8 842.1 461.5 839.6 461.1Z" fill="#3D3D3D"/>
<path d="M563.5 139.2C563 162.3 562.5 185.3 562 208.4C555 237.6 565.9 267.2 588.6 282.2C613.3 298.5 640.9 290.3 644.9 289C645.1 294.6 644.9 301.6 643.4 309.5C642.1 316.8 640 322.9 638.1 327.7C650.3 339.1 661.6 342 667.8 342.9C697.2 347.2 730.8 323.6 748.4 282.8C743.1 277.2 736 268.8 729.4 257.7C725.6 251.4 716.8 235.5 711.9 212.8C706.9 189.6 711.8 186.5 708.1 169.5C703.9 150.1 691.8 128.1 675.4 117C647.8 98.7002 601.4 106.8 563.5 139.2Z" fill="white" stroke="#161616" stroke-width="3"/>
<path d="M559.4 217.5C552.4 221.3 551.9 232.5 551.2 247.3C550.5 261.1 549.8 277.6 560.2 294.1C568.1 306.7 578.8 312.9 583.2 315.4C606 328.4 629.2 324.4 636.5 322.8C631.9 320.9 627.2 319 622.6 317.1C628.3 316.9 637.9 315.8 648 310.5C658.4 305.1 664.3 297.9 669.3 291.6C675.2 284.2 684.5 270.5 689.8 249.8C687.2 245.3 677.2 227.1 682.4 204.7C685.3 192.3 691.6 183.8 695.5 179.3C701.6 179.7 704.9 182.2 706.2 183.4C712.9 189.5 713.7 202 707 213.8C709.9 211.7 716.8 205.9 720.1 195.7C723.6 185.1 720.8 176.2 719.3 171.1C717.4 165 714.6 155.9 706.2 151.4C703.8 150.1 700 148.5 695.5 148.9C681.1 150.3 678.1 173.4 661.3 194.7C648.7 210.6 622.8 232.4 597.3 229.5C578.1 227.3 568.9 212.3 559.4 217.5Z" fill="#161616" stroke="#161616" stroke-width="3"/>
<path d="M594.6 177.6C595.8 193.4 596 209.3 595.1 225.1C595 226.5 596.8 227 597.7 226.2C602.7 221.8 607.7 217.4 612.6 213C614 211.7 611.9 209.6 610.5 210.9C605.5 215.3 600.5 219.7 595.6 224.1C596.5 224.5 597.3 224.8 598.2 225.2C599.1 209.4 598.9 193.5 597.7 177.7C597.5 175.7 594.5 175.7 594.6 177.6Z" fill="#161616"/>
<path d="M573 193C572.6 191.9 571.3 187.5 573.7 187.5C575.1 187.5 575.1 189.9 575.1 190.8C575.1 191.7 575.1 193.2 574.4 194C573.7 194.9 572.7 194.2 572.4 193.2C572.1 192.2 572.3 191.1 572.4 190.1C572.7 188.2 569.8 187.4 569.5 189.3C569 192.5 569.4 197.7 573.9 197.4C577.1 197.2 578 193.4 578 190.7C578 187.9 576.8 184 573.2 184.4C568.5 185 568.8 190.4 569.9 193.7C570.7 195.6 573.6 194.8 573 193Z" fill="#161616"/>
<path d="M575.1 192.1C574.4 191.3 574.4 189.9 575.1 189C574.3 188.9 573.5 188.8 572.7 188.7C573.5 189.8 573.7 191.4 572.8 192.5C573.6 192.6 574.4 192.7 575.2 192.8C574.9 192.3 572.8 189.4 574.5 189.3C574.3 189.3 574.5 189 574.4 189.5C574.4 189.9 574.5 190.4 574.5 190.9C574.5 191.2 574.3 192.5 573.8 192.2C572.2 191.1 570.7 193.7 572.3 194.8C574.1 196 576.4 194.8 577.1 193C577.8 191.3 577.8 187.9 576 186.8C574.4 185.8 572.2 186.7 571.3 188.2C570.1 190.3 571.3 192.6 572.5 194.4C573 195.1 574.2 195.5 574.9 194.7C576.6 192.6 576.9 189.6 575.3 187.3C574.8 186.6 573.6 186.2 572.9 187C571.1 189.2 571.1 192.1 572.9 194.3C574.2 195.6 576.3 193.5 575.1 192.1Z" fill="#161616"/>
<path d="M631.2 188.9C630.2 188 629 185.9 630.8 185C632.6 184.1 632.9 186.5 632.9 187.7C632.9 188.4 633.1 191.2 631.9 191.2C630.8 191.2 630.2 188.9 629.9 188.2C629.4 186.4 626.5 187.1 627 189C627.8 191.6 629.8 195.1 633 194C636.1 193 636.2 188.4 635.7 185.8C635.1 182.7 632 180.7 629.1 182.5C625.9 184.5 626.6 188.7 629.1 191C630.5 192.3 632.6 190.2 631.2 188.9Z" fill="#161616"/>
<path d="M633.3 189.7C632.9 188.4 632.8 187.1 633.1 185.8C632.4 186.1 631.6 186.4 630.9 186.7C631.6 187.1 631.6 188.4 630.9 188.8C631.6 189.1 632.4 189.4 633.1 189.7C632.5 188.4 632 187 631.4 185.7C631.1 185 630.4 184.4 629.6 184.7C628.9 184.9 628.2 185.8 628.6 186.5C629.2 187.8 629.7 189.2 630.3 190.5C630.7 191.4 631.6 192 632.5 191.4C635.1 189.8 635.1 185.7 632.5 184.1C631.7 183.6 630.5 184 630.3 185C629.9 186.9 630 188.7 630.5 190.5C631 192.3 633.8 191.5 633.3 189.7Z" fill="#161616"/>
<path d="M568.7 174.8C571.9 168.9 579.8 168.1 583.8 173.7C584.9 175.3 587.5 173.8 586.4 172.2C581.1 164.9 570.5 165.2 566.1 173.3C565.2 175 567.8 176.5 568.7 174.8Z" fill="#161616"/>
<path d="M621.2 174.5C625.5 167.4 635.6 168 638.7 175.8C639.4 177.6 642.3 176.8 641.6 175C637.5 164.8 624.3 163.5 618.6 173C617.6 174.6 620.2 176.1 621.2 174.5Z" fill="#161616"/>
<path d="M526.4 148.1C578.4 151.1 630.3 155.3 682.1 160.7C687.9 161.3 687.8 152.3 682.1 151.7C630.3 146.2 578.4 142 526.4 139.1C520.6 138.8 520.6 147.8 526.4 148.1Z" fill="#161616"/>
<path d="M560.1 141.5C560.9 133.8 564.2 114 580.1 97.8002C601.6 75.9002 639.1 68.3002 668.7 85.8002C691.9 99.6002 705.4 125.9 703.8 153.8C655.9 149.8 608 145.6 560.1 141.5Z" fill="#5222D0"/>
<path opacity="0.11" d="M705.5 212.7C705.4 213.5 704.1 220.2 698.1 223.2C695 224.7 692.1 224.7 690.7 224.5C696.8 232.3 721.8 266.1 713.9 307.5C711.8 318.3 707.9 327.4 703.9 334.6C710.5 330.5 719.1 324.2 727.5 314.9C737.9 303.4 743.8 291.9 747.2 283.9C740.9 276 734 266.3 727.5 254.6C719 239.3 713.6 224.9 710 213.1C708.4 213 707 212.8 705.5 212.7Z" fill="#3D3D3D"/>
<path opacity="0.12" d="M594.5 178.2C590.9 192 587.2 205.9 583.6 219.7C587.7 221.3 591.8 222.9 595.8 224.5C595.4 209 595 193.6 594.5 178.2Z" fill="#3D3D3D"/>
<path opacity="0.69" d="M625.8 80.3002C615.5 89.7002 621.2 118.1 639.3 148.2C660.7 150.1 682.1 152.1 703.5 154C704.2 145.2 704.3 128.1 694.4 111.7C677.5 83.8002 638.5 68.8002 625.8 80.3002Z" fill="#3A1DA3"/>
</svg>
