<svg width="1179" height="1072" viewBox="0 0 1179 1072" fill="none" xmlns="http://www.w3.org/2000/svg">
<path d="M257.8 1063C275.6 1063 293.4 1063 311.2 1063C313.1 1063 313.1 1060 311.2 1060C293.4 1060 275.6 1060 257.8 1060C255.9 1060 255.9 1063 257.8 1063Z" fill="#161616"/>
<path d="M492.5 1061.2C505.7 1061.2 518.9 1061.2 532.1 1061.2C534 1061.2 534 1058.2 532.1 1058.2C518.9 1058.2 505.7 1058.2 492.5 1058.2C490.5 1058.2 490.5 1061.2 492.5 1061.2Z" fill="#161616"/>
<path d="M551.3 1059.4C559 1059.4 566.6 1059.4 574.3 1059.4C576.2 1059.4 576.2 1056.4 574.3 1056.4C566.6 1056.4 559 1056.4 551.3 1056.4C549.4 1056.4 549.4 1059.4 551.3 1059.4Z" fill="#161616"/>
<path fill-rule="evenodd" clip-rule="evenodd" d="M457.1 939.5H267.2C260.6 939.5 255.2 934.1 255.2 927.5V921.3C255.2 914.7 260.6 909.3 267.2 909.3H457.1C463.7 909.3 469.1 914.7 469.1 921.3V927.5C469.1 934.1 463.7 939.5 457.1 939.5Z" stroke="#161616" stroke-width="2"/>
<path fill-rule="evenodd" clip-rule="evenodd" d="M475.7 971.3H285.8C279.2 971.3 273.8 965.9 273.8 959.3V953.1C273.8 946.5 279.2 941.1 285.8 941.1H475.7C482.3 941.1 487.7 946.5 487.7 953.1V959.3C487.7 965.9 482.3 971.3 475.7 971.3Z" stroke="#161616" stroke-width="2"/>
<path fill-rule="evenodd" clip-rule="evenodd" d="M431.9 1002.3H242C235.4 1002.3 230 996.9 230 990.3V984.1C230 977.5 235.4 972.1 242 972.1H431.9C438.5 972.1 443.9 977.5 443.9 984.1V990.3C443.9 996.9 438.5 1002.3 431.9 1002.3Z" stroke="#161616" stroke-width="2"/>
<path fill-rule="evenodd" clip-rule="evenodd" d="M455.1 1031.5H265.3C258.7 1031.5 253.3 1026.1 253.3 1019.5V1013.3C253.3 1006.7 258.7 1001.3 265.3 1001.3H455.2C461.8 1001.3 467.2 1006.7 467.2 1013.3V1019.5C467.1 1026.1 461.7 1031.5 455.1 1031.5Z" stroke="#161616" stroke-width="2"/>
<path fill-rule="evenodd" clip-rule="evenodd" d="M475.7 1061.7H285.8C279.2 1061.7 273.8 1056.3 273.8 1049.7V1043.5C273.8 1036.9 279.2 1031.5 285.8 1031.5H475.7C482.3 1031.5 487.7 1036.9 487.7 1043.5V1049.7C487.7 1056.3 482.3 1061.7 475.7 1061.7Z" stroke="#161616" stroke-width="2"/>
<path d="M401.6 922.3C401.6 926.4 401.6 930.6 401.6 934.7C401.6 936.1 403.9 936.2 403.9 934.7C403.9 930.6 403.9 926.4 403.9 922.3C403.8 920.8 401.6 920.8 401.6 922.3Z" fill="#161616"/>
<path d="M408.3 924.5C408.3 928.3 408.3 932 408.3 935.8C408.3 937.2 410.6 937.3 410.6 935.8C410.6 932 410.6 928.3 410.6 924.5C410.6 923.1 408.3 923.1 408.3 924.5Z" fill="#161616"/>
<path d="M430.9 918.3C430.9 923.6 430.9 928.8 430.9 934.1C430.9 935.5 433.2 935.6 433.2 934.1C433.2 928.8 433.2 923.6 433.2 918.3C433.2 916.9 430.9 916.9 430.9 918.3Z" fill="#161616"/>
<path d="M435.4 927.3C435.4 929.4 435.4 931.4 435.4 933.5C435.4 934.9 437.7 935 437.7 933.5C437.7 931.4 437.7 929.4 437.7 927.3C437.7 925.9 435.4 925.9 435.4 927.3Z" fill="#161616"/>
<path d="M280.2 917.9C280.2 923.7 280.2 929.5 280.2 935.4C280.2 936.8 282.5 936.9 282.5 935.4C282.5 929.6 282.5 923.8 282.5 917.9C282.4 916.4 280.2 916.4 280.2 917.9Z" fill="#161616"/>
<path d="M270.9 922.3C270.9 925.7 270.9 929.2 270.9 932.6C270.9 934 273.2 934.1 273.2 932.6C273.2 929.2 273.2 925.7 273.2 922.3C273.2 920.9 270.9 920.9 270.9 922.3Z" fill="#161616"/>
<path d="M308.3 918.6C308.3 923.3 308.3 928 308.3 932.6C308.3 934 310.6 934.1 310.6 932.6C310.6 927.9 310.6 923.2 310.6 918.6C310.5 917.1 308.3 917.1 308.3 918.6Z" fill="#161616"/>
<path d="M298 926.8C298 929.9 298 933 298 936.1C298 937.5 300.3 937.6 300.3 936.1C300.3 933 300.3 929.9 300.3 926.8C300.2 925.3 298 925.3 298 926.8Z" fill="#161616"/>
<path d="M350.4 918.9C350.4 925 350.4 931 350.4 937.1C350.4 938.5 352.7 938.6 352.7 937.1C352.7 931 352.7 925 352.7 918.9C352.7 917.5 350.4 917.5 350.4 918.9Z" fill="#161616"/>
<path d="M357.3 925.8C357.3 928.9 357.3 932 357.3 935.1C357.3 936.5 359.6 936.6 359.6 935.1C359.6 932 359.6 928.9 359.6 925.8C359.5 924.3 357.3 924.3 357.3 925.8Z" fill="#161616"/>
<path d="M367.5 917.5C367.5 923.6 367.5 929.6 367.5 935.7C367.5 937.1 369.8 937.2 369.8 935.7C369.8 929.6 369.8 923.6 369.8 917.5C369.8 916.1 367.5 916.1 367.5 917.5Z" fill="#161616"/>
<path d="M300.7 948C300.7 955.2 300.7 962.4 300.7 969.6C300.7 971 303 971.1 303 969.6C303 962.4 303 955.2 303 948C303 946.6 300.7 946.6 300.7 948Z" fill="#161616"/>
<path d="M313.1 955.2C313.1 960.3 313.1 965.5 313.1 970.6C313.1 972 315.4 972.1 315.4 970.6C315.4 965.5 315.4 960.3 315.4 955.2C315.3 953.8 313.1 953.8 313.1 955.2Z" fill="#161616"/>
<path d="M353.2 951.1C353.2 956.2 353.2 961.4 353.2 966.5C353.2 967.9 355.5 968 355.5 966.5C355.5 961.4 355.5 956.2 355.5 951.1C355.4 949.7 353.2 949.7 353.2 951.1Z" fill="#161616"/>
<path d="M379.2 945.6C379.2 953.9 379.2 962.3 379.2 970.6C379.2 972 381.5 972.1 381.5 970.6C381.5 962.3 381.5 953.9 381.5 945.6C381.4 944.2 379.2 944.2 379.2 945.6Z" fill="#161616"/>
<path d="M402.8 955.6C402.8 958.3 402.8 961.1 402.8 963.8C402.8 965.2 405.1 965.3 405.1 963.8C405.1 961.1 405.1 958.3 405.1 955.6C405.1 954.1 402.8 954.1 402.8 955.6Z" fill="#161616"/>
<path d="M253.4 980.6C253.4 987.2 253.4 993.8 253.4 1000.5C253.4 1001.9 255.7 1002 255.7 1000.5C255.7 993.9 255.7 987.3 255.7 980.6C255.7 979.1 253.4 979.1 253.4 980.6Z" fill="#161616"/>
<path d="M306.2 981.3C306.2 988.2 306.2 995 306.2 1001.9C306.2 1003.3 308.5 1003.4 308.5 1001.9C308.5 995 308.5 988.2 308.5 981.3C308.5 979.8 306.2 979.8 306.2 981.3Z" fill="#161616"/>
<path d="M284.3 983C284.3 987.6 284.3 992.1 284.3 996.7C284.3 998.1 286.6 998.2 286.6 996.7C286.6 992.1 286.6 987.6 286.6 983C286.5 981.5 284.3 981.5 284.3 983Z" fill="#161616"/>
<path d="M291.8 978.5C291.8 982.3 291.8 986 291.8 989.8C291.8 991.2 294.1 991.3 294.1 989.8C294.1 986 294.1 982.3 294.1 978.5C294.1 977.1 291.8 977.1 291.8 978.5Z" fill="#161616"/>
<path d="M364.5 978.9C364.5 985.9 364.5 992.8 364.5 999.8C364.5 1001.2 366.8 1001.3 366.8 999.8C366.8 992.8 366.8 985.9 366.8 978.9C366.7 977.4 364.5 977.4 364.5 978.9Z" fill="#161616"/>
<path d="M345.6 978.5C345.6 980.2 345.6 981.9 345.6 983.6C345.6 985 347.9 985.1 347.9 983.6C347.9 981.9 347.9 980.2 347.9 978.5C347.9 977.1 345.6 977.1 345.6 978.5Z" fill="#161616"/>
<path d="M409.3 972.4C409.3 979 409.3 985.6 409.3 992.3C409.3 993.7 411.6 993.8 411.6 992.3C411.6 985.7 411.6 979.1 411.6 972.4C411.6 970.9 409.3 970.9 409.3 972.4Z" fill="#161616"/>
<path d="M419.3 986.7C419.3 990.7 419.3 994.7 419.3 998.7C419.3 1000.1 421.6 1000.2 421.6 998.7C421.6 994.7 421.6 990.7 421.6 986.7C421.5 985.3 419.3 985.3 419.3 986.7Z" fill="#161616"/>
<path d="M383.3 978.5C383.3 984.3 383.3 990.1 383.3 996C383.3 997.4 385.6 997.5 385.6 996C385.6 990.2 385.6 984.4 385.6 978.5C385.6 977.1 383.3 977.1 383.3 978.5Z" fill="#161616"/>
<path d="M272.6 1004.6C272.6 1012 272.6 1019.4 272.6 1026.9C272.6 1028.3 274.9 1028.4 274.9 1026.9C274.9 1019.5 274.9 1012.1 274.9 1004.6C274.9 1003.1 272.6 1003.1 272.6 1004.6Z" fill="#161616"/>
<path d="M290 1030.9C290 1023.5 290 1016.1 290 1008.6C290 1007.2 287.7 1007.1 287.7 1008.6C287.7 1016 287.7 1023.4 287.7 1030.9C287.7 1032.4 290 1032.4 290 1030.9Z" fill="#161616"/>
<path d="M297.2 1030.3C297.2 1027.4 297.2 1024.6 297.2 1021.7C297.2 1020.3 294.9 1020.2 294.9 1021.7C294.9 1024.6 294.9 1027.4 294.9 1030.3C294.9 1031.7 297.2 1031.7 297.2 1030.3Z" fill="#161616"/>
<path d="M313.1 1002.9C313.1 1010.7 313.1 1018.4 313.1 1026.2C313.1 1027.6 315.4 1027.7 315.4 1026.2C315.4 1018.4 315.4 1010.7 315.4 1002.9C315.3 1001.4 313.1 1001.4 313.1 1002.9Z" fill="#161616"/>
<path d="M318.9 1013.8C318.9 1017.5 318.9 1021.1 318.9 1024.8C318.9 1026.2 321.2 1026.3 321.2 1024.8C321.2 1021.1 321.2 1017.5 321.2 1013.8C321.1 1012.4 318.9 1012.4 318.9 1013.8Z" fill="#161616"/>
<path d="M326.8 1009.7C326.8 1013.7 326.8 1017.7 326.8 1021.7C326.8 1023.1 329.1 1023.2 329.1 1021.7C329.1 1017.7 329.1 1013.7 329.1 1009.7C329 1008.3 326.8 1008.3 326.8 1009.7Z" fill="#161616"/>
<path d="M352.5 1002.9C352.5 1011 352.5 1019.1 352.5 1027.2C352.5 1028.6 354.8 1028.7 354.8 1027.2C354.8 1019.1 354.8 1011 354.8 1002.9C354.7 1001.4 352.5 1001.4 352.5 1002.9Z" fill="#161616"/>
<path d="M378.5 1011.8C378.5 1016.3 378.5 1020.7 378.5 1025.2C378.5 1026.6 380.8 1026.7 380.8 1025.2C380.8 1020.7 380.8 1016.3 380.8 1011.8C380.8 1010.3 378.5 1010.3 378.5 1011.8Z" fill="#161616"/>
<path d="M414.1 1002.2C414.1 1010.8 414.1 1019.3 414.1 1027.9C414.1 1029.3 416.4 1029.4 416.4 1027.9C416.4 1019.3 416.4 1010.8 416.4 1002.2C416.4 1000.7 414.1 1000.7 414.1 1002.2Z" fill="#161616"/>
<path d="M425.1 1014.8C425.1 1018.9 425.1 1023 425.1 1027.1C425.1 1028.5 427.4 1028.6 427.4 1027.1C427.4 1023 427.4 1018.9 427.4 1014.8C427.4 1013.4 425.1 1013.4 425.1 1014.8Z" fill="#161616"/>
<path d="M444 1003.5C444 1009.9 444 1016.3 444 1022.7C444 1024.1 446.3 1024.2 446.3 1022.7C446.3 1016.3 446.3 1009.9 446.3 1003.5C446.2 1002.1 444 1002.1 444 1003.5Z" fill="#161616"/>
<path d="M300.6 1060.8C300.6 1053.4 300.6 1046 300.6 1038.5C300.6 1037.1 298.3 1037 298.3 1038.5C298.3 1045.9 298.3 1053.3 298.3 1060.8C298.3 1062.2 300.6 1062.2 300.6 1060.8Z" fill="#161616"/>
<path d="M308.8 1060.4C308.8 1056.6 308.8 1052.9 308.8 1049.1C308.8 1047.7 306.5 1047.6 306.5 1049.1C306.5 1052.9 306.5 1056.6 306.5 1060.4C306.6 1061.9 308.8 1061.9 308.8 1060.4Z" fill="#161616"/>
<path d="M331.9 1034.4C331.9 1043 331.9 1051.5 331.9 1060.1C331.9 1061.5 334.2 1061.6 334.2 1060.1C334.2 1051.5 334.2 1043 334.2 1034.4C334.2 1032.9 331.9 1032.9 331.9 1034.4Z" fill="#161616"/>
<path d="M352.5 1038.5C352.5 1043.8 352.5 1049 352.5 1054.3C352.5 1055.7 354.8 1055.8 354.8 1054.3C354.8 1049 354.8 1043.8 354.8 1038.5C354.7 1037 352.5 1037 352.5 1038.5Z" fill="#161616"/>
<path d="M345.3 1041.6C345.3 1043.7 345.3 1045.7 345.3 1047.8C345.3 1049.2 347.6 1049.3 347.6 1047.8C347.6 1045.7 347.6 1043.7 347.6 1041.6C347.5 1040.1 345.3 1040.1 345.3 1041.6Z" fill="#161616"/>
<path d="M389.8 1032C389.8 1040.9 389.8 1049.8 389.8 1058.7C389.8 1060.1 392.1 1060.2 392.1 1058.7C392.1 1049.8 392.1 1040.9 392.1 1032C392.1 1030.5 389.8 1030.5 389.8 1032Z" fill="#161616"/>
<path d="M398.4 1043.6C398.4 1047.6 398.4 1051.6 398.4 1055.6C398.4 1057 400.7 1057.1 400.7 1055.6C400.7 1051.6 400.7 1047.6 400.7 1043.6C400.6 1042.2 398.4 1042.2 398.4 1043.6Z" fill="#161616"/>
<path d="M420.3 1033.3C420.3 1041.6 420.3 1050 420.3 1058.3C420.3 1059.7 422.6 1059.8 422.6 1058.3C422.6 1050 422.6 1041.6 422.6 1033.3C422.6 1031.9 420.3 1031.9 420.3 1033.3Z" fill="#161616"/>
<path d="M460.1 1035.4C460.1 1042.6 460.1 1049.8 460.1 1057C460.1 1058.4 462.4 1058.5 462.4 1057C462.4 1049.8 462.4 1042.6 462.4 1035.4C462.3 1034 460.1 1034 460.1 1035.4Z" fill="#161616"/>
<path d="M466.2 1044.7C466.2 1048.1 466.2 1051.6 466.2 1055C466.2 1056.4 468.5 1056.5 468.5 1055C468.5 1051.6 468.5 1048.1 468.5 1044.7C468.5 1043.2 466.2 1043.2 466.2 1044.7Z" fill="#161616"/>
<path d="M440.6 969C440.6 963.7 440.6 958.3 440.6 953C440.6 951.6 438.3 951.5 438.3 953C438.3 958.3 438.3 963.7 438.3 969C438.4 970.4 440.6 970.5 440.6 969Z" fill="#161616"/>
<path d="M454.4 946.5C454.4 953.7 454.4 960.8 454.4 968C454.4 969.4 456.7 969.5 456.7 968C456.7 960.8 456.7 953.7 456.7 946.5C456.6 945.1 454.4 945 454.4 946.5Z" fill="#161616"/>
<path d="M464.8 903.7C470.3 906.9 473.3 912.9 472.8 919.2C472.7 920.6 474.9 920.6 475.1 919.2C475.7 912.1 472.2 905.4 466 901.8C464.7 901 463.5 902.9 464.8 903.7Z" fill="#161616"/>
<path d="M235.8 978C233.1 982.4 232.6 987.6 234.4 992.4C234.9 993.7 237.1 993.2 236.6 991.8C235 987.5 235.4 983.1 237.8 979.1C238.5 977.9 236.6 976.7 235.8 978Z" fill="#161616"/>
<path d="M224.5 966.7C218.7 974 215.8 982.7 216 992C216 993.4 218.3 993.5 218.3 992C218.1 983.3 220.8 975.1 226.2 968.2C227 967.2 225.4 965.6 224.5 966.7Z" fill="#161616"/>
<path d="M463.8 998.6C467.8 1000.7 470.3 1004.7 470.3 1009.3C470.3 1010.7 472.6 1010.8 472.6 1009.3C472.6 1004 469.7 999.1 465 996.7C463.7 996 462.5 997.9 463.8 998.6Z" fill="#161616"/>
<path opacity="0.15" d="M360.1 911.7C366.2 910.9 380.5 909.9 394.1 918.1C398 920.4 401 923 403.5 925.5C403.2 930.1 402.8 934.7 402.5 939.3C387.8 939.9 373.2 940.5 358.5 941C360.5 941.1 376.5 942 385.2 955C389 960.7 389.9 966.4 390.1 969.8C389.6 973.4 388 981.1 382.2 988.5C375.2 997.4 366.4 1000.7 363 1001.8C364.6 1002.6 372.2 1006.9 374.8 1016.1C376.3 1021.5 375.4 1026.2 374.8 1028.4C365.1 1038.9 355.4 1049.4 345.7 1060C390.2 1060.5 434.8 1061 479.3 1061.5C481 1060.6 484.2 1058.5 486.2 1054.6C489.5 1048.2 487.9 1040.5 484.2 1035.9C477.2 1027 461.3 1030.1 459.5 1030.5C460 1030.2 468.1 1024.1 467.4 1014.2C466.9 1007.1 462 1002.8 461 1001.9C453.9 1001.4 446.9 1000.9 439.8 1000.4C440.5 999.7 445.8 993.9 444.7 985.6C443.8 979.2 439.5 973.8 433.4 971.3C442.9 971.2 451.1 971 457.6 970.8C476.5 970.3 480.8 970 484.2 966.4C488.8 961.4 490.3 951.7 485.7 945.7C483.2 942.5 479.8 941.3 477.8 940.8C470.4 940.5 463 940.1 455.6 939.8C456.7 939.8 462 939.9 466 935.9C469.9 931.9 469.6 926.6 469.5 924.1C469.4 922.5 468.8 915.9 464.1 911.8C459.2 907.5 452.9 908.7 441.4 909.3C432.4 909.8 423.3 908.9 414.3 909.3C395.5 910.1 376.5 911 360.1 911.7Z" fill="#3D3D3D"/>
<path d="M498.8 1035.1C567.7 1035.1 636.7 1035.1 705.6 1035.1C725.2 1035.1 744.9 1035.1 764.5 1035.1C766.4 1035.1 766.4 1032.1 764.5 1032.1C695.6 1032.1 626.6 1032.1 557.7 1032.1C538.1 1032.1 518.4 1032.1 498.8 1032.1C496.9 1032.1 496.9 1035.1 498.8 1035.1Z" fill="#E8E8E8"/>
<path d="M792.4 1037.6C838.6 1034 884.7 1033 931 1036.9C932.9 1037.1 932.9 1034.1 931 1033.9C884.7 1030 838.7 1031 792.4 1034.6C790.5 1034.7 790.5 1037.7 792.4 1037.6Z" fill="#E8E8E8"/>
<path d="M917.6 1053.4C942.5 1055.6 967.2 1049.4 992 1047.8C1017.5 1046.2 1043.1 1047.8 1068.3 1052.3C1070.2 1052.6 1071 1049.7 1069.1 1049.4C1044.3 1045 1019.1 1043.3 993.9 1044.7C968.5 1046.1 943.1 1052.7 917.6 1050.4C915.7 1050.2 915.7 1053.2 917.6 1053.4Z" fill="#E8E8E8"/>
<path d="M933.2 1033.2C922.8 1025.2 913.1 1016.2 904.5 1006.3C902.6 1004.1 900.8 1001.9 899 999.7C897.7 998.1 896.3 996.4 895.4 994.6C894.2 992.2 894.7 990.5 894.7 987.8C894.7 983.1 892 983.3 888.9 980.1C884.2 975.2 883.5 968.1 882.1 961.8C880.8 955.9 878.4 950.7 875.7 945.4C869.4 932.7 866.5 918.2 862.7 904.6C862.4 905.2 862 905.8 861.7 906.4C874.9 904.6 889.2 914.5 899.7 921.7C905.1 925.4 910.2 929.4 915.1 933.7C920 938.1 927.5 944.3 924.8 951.7C924.4 952.7 925.4 953.6 926.2 953.6C934.4 953.9 940.6 962.1 945 968.2C949.3 974 952.8 980.4 955.4 987.1C960.6 1000.6 962.2 1015.3 959.9 1029.6C959.6 1031.5 962.5 1032.3 962.8 1030.4C965.4 1014.4 963.4 998 956.9 983C953.7 975.7 949.5 968.8 944.4 962.6C939.7 956.9 934 950.8 926.1 950.5C926.6 951.1 927.1 951.8 927.5 952.4C929.8 946.2 926.2 940.5 922 936.1C916.6 930.4 910.3 925.5 903.9 921C892.1 912.6 876 901.3 860.7 903.5C859.9 903.6 859.5 904.6 859.7 905.3C863.6 919.2 866.5 933.8 873 946.8C876.3 953.5 878.5 959.8 880.1 967.1C881.2 972.5 882.8 978.1 886.8 982.2C888.5 984 891.5 985 891.8 987.6C892 990 891.2 991.7 892.1 994.3C894 999.6 898.9 1004.4 902.5 1008.5C911.3 1018.6 921.2 1027.7 931.8 1035.9C933.2 1036.9 934.7 1034.3 933.2 1033.2Z" fill="#E8E8E8"/>
<path d="M950.3 967.3C953.8 954.4 964.2 943.2 972.4 933C974.6 930.3 976.7 927.7 978.9 925.1C980.7 922.9 983 918.8 986.1 918.3C987.4 918.1 988 918.9 989.4 918C990.9 917.1 991.5 915.3 992.3 913.9C998.3 903 1007.9 895.1 1018 888C1025.9 882.4 1033.7 876.8 1037.6 867.6C1036.6 867.3 1035.7 867.1 1034.7 866.8C1030.6 882 1030.6 897.1 1033.2 912.6C1035.9 928.7 1036.5 944.3 1032.1 960.3C1023.7 990.8 1000.6 1011.3 977.1 1030.7C975.6 1031.9 977.7 1034 979.2 1032.8C1002.2 1013.8 1024.9 993.7 1034 964.3C1038.3 950.3 1039.5 935.5 1037.5 921C1036.3 912.4 1034.4 904 1034.1 895.2C1033.8 885.8 1035 876.5 1037.5 867.5C1038 865.6 1035.3 865 1034.6 866.7C1030 877.7 1018.7 883.3 1009.7 890.2C1005.1 893.7 1000.8 897.6 996.9 901.9C995.2 903.8 993.6 905.9 992.2 908C991.1 909.7 989.4 914.3 987.6 914.9C986.4 915.3 985.1 914.6 983.7 915.2C981.7 916 980.4 918.4 979.1 919.9C974.7 925.2 970.3 930.4 966.1 935.8C958.8 945 950.5 954.8 947.3 966.3C946.9 968.4 949.8 969.2 950.3 967.3Z" fill="#E8E8E8"/>
<path d="M874.1 921.8C883.1 928.2 889.9 936.8 896.6 945.5C903.7 954.5 910.7 963.6 917.3 973C930 991 941.1 1010.3 947 1031.7C947.5 1033.6 950.4 1032.8 949.9 1030.9C943.8 1008.7 932.2 988.7 918.9 970.1C912.4 961 905.6 952.2 898.7 943.4C891.8 934.5 884.8 925.8 875.5 919.3C874 918.1 872.5 920.7 874.1 921.8Z" fill="#E8E8E8"/>
<path d="M1024.1 892.7C1008.2 934.5 971.5 965.7 961 1009.9C960.6 1011.8 963.4 1012.6 963.9 1010.7C974.3 966.5 1011.1 935.3 1027 893.5C1027.7 891.7 1024.8 890.9 1024.1 892.7Z" fill="#E8E8E8"/>
<path d="M999.5 899.8C1001 913.7 1000.1 927.5 996.8 941C996.3 942.9 999.2 943.7 999.7 941.8C1003 928 1004 913.9 1002.5 899.8C1002.3 897.9 999.3 897.9 999.5 899.8Z" fill="#E8E8E8"/>
<path d="M1008.6 928.1C1018 922.2 1026.9 915.6 1035.3 908.3C1036.8 907 1034.6 904.9 1033.2 906.2C1025 913.3 1016.3 919.8 1007.1 925.5C1005.4 926.6 1006.9 929.2 1008.6 928.1Z" fill="#E8E8E8"/>
<path d="M875.2 948.1C882.1 947.9 891.8 945.9 898.1 949.2C899.8 950.1 901.3 947.5 899.6 946.6C892.5 942.8 882.9 944.8 875.2 945.1C873.2 945.2 873.2 948.2 875.2 948.1Z" fill="#E8E8E8"/>
<path d="M913 932.9C911.8 942.6 912 952.1 913.4 961.8C913.7 963.7 916.6 962.9 916.3 961C914.9 951.6 914.9 942.3 916 932.9C916.3 931 913.3 931 913 932.9Z" fill="#E8E8E8"/>
<path d="M851.5 1069.1C867.7 1070 883.7 1066.4 899.9 1066.7C915.4 1067 930.5 1071.1 946 1068.6C947.9 1068.3 947.1 1065.4 945.2 1065.7C929.4 1068.3 913.8 1063.7 898 1063.7C882.5 1063.7 867.1 1067 851.5 1066.1C849.6 1065.9 849.6 1068.9 851.5 1069.1Z" fill="#E8E8E8"/>
<path d="M1038.9 1031.5C1050.5 1029.9 1062.2 1029.4 1073.9 1029.9C1085.4 1030.4 1096.8 1031.8 1108.4 1030.8C1119.7 1029.9 1130.9 1028.1 1142.3 1028.2C1153.8 1028.3 1165.2 1029.6 1176.6 1031.1C1178.5 1031.3 1178.5 1028.3 1176.6 1028.1C1165.2 1026.7 1153.8 1025.3 1142.3 1025.2C1130.3 1025.1 1118.5 1027.1 1106.5 1027.9C1095 1028.7 1083.6 1027.2 1072.1 1026.8C1060.7 1026.4 1049.4 1027.1 1038.2 1028.6C1036.2 1028.9 1037 1031.8 1038.9 1031.5Z" fill="#E8E8E8"/>
<path d="M1.30027 1050.7C32.3003 1055 63.0003 1048.1 93.9003 1046C110.3 1044.9 126.4 1046.1 142.8 1047.6C159.2 1049.1 175.6 1049.8 192.1 1049.9C210.9 1050 229.8 1049.5 248.6 1048.9C250.5 1048.8 250.5 1045.8 248.6 1045.9C227.5 1046.5 206.3 1047.1 185.2 1046.8C164.5 1046.5 144.1 1044.2 123.5 1042.9C82.9003 1040.2 42.6003 1053.4 2.10027 1047.8C0.200273 1047.6 -0.599727 1050.4 1.30027 1050.7Z" fill="#E8E8E8"/>
<path d="M176.4 1067.6C188.1 1067.6 199.7 1064.8 211.3 1063.9C223.1 1063 234.9 1062.8 246.7 1063.3C248.6 1063.4 248.6 1060.4 246.7 1060.3C234.9 1059.8 223.1 1059.9 211.3 1060.9C199.7 1061.8 188 1064.6 176.4 1064.6C174.5 1064.6 174.5 1067.6 176.4 1067.6Z" fill="#E8E8E8"/>
<path d="M112.9 420C112.9 498 112.9 576 112.9 653.9C112.9 731.8 112.9 809.9 112.9 887.8C112.9 931.8 112.9 975.8 112.9 1019.8C112.9 1021.7 115.9 1021.7 115.9 1019.8C115.9 941.8 115.9 863.8 115.9 785.9C115.9 708 115.9 629.9 115.9 552C115.9 508 115.9 464 115.9 420C115.9 418.1 112.9 418.1 112.9 420Z" fill="#E8E8E8"/>
<path d="M364.7 383.4C364.7 450.3 364.7 517.2 364.7 584.1C364.7 651 364.7 717.9 364.7 784.8C364.7 822.7 364.7 860.7 364.7 898.6C364.7 900.5 367.7 900.5 367.7 898.6C367.7 831.7 367.7 764.8 367.7 697.9C367.7 631 367.7 564.1 367.7 497.2C367.7 459.3 367.7 421.3 367.7 383.4C367.7 381.5 364.7 381.5 364.7 383.4Z" fill="#E8E8E8"/>
<path d="M370.7 669.1C427.4 692.7 484.2 716.1 541.2 739.1C543 739.8 543.8 736.9 542 736.2C485 713.2 428.2 689.8 371.5 666.2C369.7 665.5 369 668.4 370.7 669.1Z" fill="#E8E8E8"/>
<path d="M529.5 737.1C529.5 812.3 529.5 887.6 529.5 962.8C529.5 984.1 529.5 1005.4 529.5 1026.7C529.5 1028.6 532.5 1028.6 532.5 1026.7C532.5 951.5 532.5 876.2 532.5 801C532.5 779.7 532.5 758.4 532.5 737.1C532.5 735.2 529.5 735.2 529.5 737.1Z" fill="#E8E8E8"/>
<path d="M802.7 1025.6C802.7 962.6 802.7 899.7 802.7 836.7C802.7 834.8 799.7 834.8 799.7 836.7C799.7 899.7 799.7 962.6 799.7 1025.6C799.7 1027.5 802.7 1027.5 802.7 1025.6Z" fill="#E8E8E8"/>
<path d="M774.8 843.5C835.9 817.2 897.2 790.8 955.3 758.2C971.9 748.9 988.3 739 1004.3 728.5C1005.9 727.4 1004.4 724.8 1002.8 725.9C947 762.4 886.8 791.2 826 818C808.5 825.7 790.9 833.3 773.4 840.8C771.5 841.7 773.1 844.2 774.8 843.5Z" fill="#E8E8E8"/>
<path d="M851.9 804.7C851.9 723.9 851.9 643 851.9 562.2C851.9 539.2 851.9 516.3 851.9 493.3C851.9 491.4 848.9 491.4 848.9 493.3C848.9 574.1 848.9 655 848.9 735.8C848.9 758.8 848.9 781.7 848.9 804.7C848.9 806.6 851.9 806.6 851.9 804.7Z" fill="#E8E8E8"/>
<path d="M834.4 499.4C908.9 499.4 983.4 499.4 1057.9 499.4C1079.2 499.4 1100.5 499.4 1121.7 499.4C1123.6 499.4 1123.6 496.4 1121.7 496.4C1047.2 496.4 972.7 496.4 898.2 496.4C876.9 496.4 855.6 496.4 834.4 496.4C832.4 496.4 832.4 499.4 834.4 499.4Z" fill="#E8E8E8"/>
<path d="M1093.9 509.3C1093.9 639.8 1093.9 770.3 1093.9 900.8C1093.9 937.4 1093.9 974 1093.9 1010.7C1093.9 1012.6 1096.9 1012.6 1096.9 1010.7C1096.9 880.2 1096.9 749.7 1096.9 619.2C1096.9 582.6 1096.9 546 1096.9 509.3C1096.9 507.4 1093.9 507.4 1093.9 509.3Z" fill="#E8E8E8"/>
<path d="M100.1 423.3C170 400.8 244.6 395.9 317.1 387.6C338.3 385.2 359.5 382.8 380.7 380.3C382.6 380.1 382.6 377.1 380.7 377.3C342.9 381.6 305 386 267.2 390.3C231.3 394.4 195.2 398.3 159.7 405.2C139.3 409.1 119.1 414.1 99.2998 420.4C97.4998 421 98.2998 423.9 100.1 423.3Z" fill="#E8E8E8"/>
<path d="M134.4 496.1C134.4 479.4 134.4 462.7 134.4 446.1C134.4 444.2 131.4 444.2 131.4 446.1C131.4 462.8 131.4 479.5 131.4 496.1C131.4 498 134.4 498 134.4 496.1Z" fill="#E8E8E8"/>
<path d="M132 445.9C141.8 445.9 151.6 445.9 161.4 445.9C163.3 445.9 163.3 442.9 161.4 442.9C151.6 442.9 141.8 442.9 132 442.9C130.1 442.9 130.1 445.9 132 445.9Z" fill="#E8E8E8"/>
<path d="M160 445.2C160 462.6 160 480 160 497.3C160 499.2 163 499.2 163 497.3C163 479.9 163 462.5 163 445.2C163 443.3 160 443.3 160 445.2Z" fill="#E8E8E8"/>
<path d="M133.3 499.3C142 499.3 150.7 499.3 159.4 499.3C161.3 499.3 161.3 496.3 159.4 496.3C150.7 496.3 142 496.3 133.3 496.3C131.4 496.3 131.3 499.3 133.3 499.3Z" fill="#E8E8E8"/>
<path d="M218.8 495.7C218.8 479 218.8 462.3 218.8 445.7C218.8 443.8 215.8 443.8 215.8 445.7C215.8 462.4 215.8 479.1 215.8 495.7C215.8 497.6 218.8 497.6 218.8 495.7Z" fill="#E8E8E8"/>
<path d="M216.5 445.4C226.3 445.4 236.1 445.4 245.9 445.4C247.8 445.4 247.8 442.4 245.9 442.4C236.1 442.4 226.3 442.4 216.5 442.4C214.5 442.4 214.5 445.4 216.5 445.4Z" fill="#E8E8E8"/>
<path d="M244.4 444.8C244.4 462.2 244.4 479.6 244.4 496.9C244.4 498.8 247.4 498.8 247.4 496.9C247.4 479.5 247.4 462.1 247.4 444.8C247.4 442.9 244.4 442.9 244.4 444.8Z" fill="#E8E8E8"/>
<path d="M217.7 498.8C226.4 498.8 235.1 498.8 243.8 498.8C245.7 498.8 245.7 495.8 243.8 495.8C235.1 495.8 226.4 495.8 217.7 495.8C215.8 495.8 215.8 498.8 217.7 498.8Z" fill="#E8E8E8"/>
<path d="M305.5 493.8C305.5 477.1 305.5 460.4 305.5 443.8C305.5 441.9 302.5 441.9 302.5 443.8C302.5 460.5 302.5 477.2 302.5 493.8C302.5 495.7 305.5 495.7 305.5 493.8Z" fill="#E8E8E8"/>
<path d="M303.1 443.5C312.9 443.5 322.7 443.5 332.5 443.5C334.4 443.5 334.4 440.5 332.5 440.5C322.7 440.5 312.9 440.5 303.1 440.5C301.2 440.5 301.2 443.5 303.1 443.5Z" fill="#E8E8E8"/>
<path d="M331.1 442.9C331.1 460.3 331.1 477.7 331.1 495C331.1 496.9 334.1 496.9 334.1 495C334.1 477.6 334.1 460.2 334.1 442.9C334.1 440.9 331.1 440.9 331.1 442.9Z" fill="#E8E8E8"/>
<path d="M304.4 496.9C313.1 496.9 321.8 496.9 330.5 496.9C332.4 496.9 332.4 493.9 330.5 493.9C321.8 493.9 313.1 493.9 304.4 493.9C302.5 493.9 302.5 496.9 304.4 496.9Z" fill="#E8E8E8"/>
<path d="M103.8 636.7C103.8 702.6 103.8 768.4 103.8 834.3C103.8 836.2 106.8 836.2 106.8 834.3C106.8 768.4 106.8 702.6 106.8 636.7C106.8 634.7 103.8 634.7 103.8 636.7Z" fill="#E8E8E8"/>
<path d="M124.8 846.9C124.8 877.5 124.8 908 124.8 938.6C124.8 940.5 127.8 940.5 127.8 938.6C127.8 908 127.8 877.5 127.8 846.9C127.8 845 124.8 845 124.8 846.9Z" fill="#E8E8E8"/>
<path d="M90.5998 414.7C122.8 403.5 155.5 394.3 188.8 387.2C190.7 386.8 189.9 383.9 188 384.3C154.7 391.4 121.9 400.6 89.7998 411.8C87.9998 412.4 88.7998 415.3 90.5998 414.7Z" fill="#E8E8E8"/>
<path d="M373.1 683.4C406.9 696.1 439.8 711.2 472.6 726.3C474.3 727.1 475.9 724.5 474.1 723.7C441 708.5 407.9 693.3 373.9 680.5C372.1 679.8 371.3 682.7 373.1 683.4Z" fill="#E8E8E8"/>
<path d="M392.7 789.1C392.7 772.4 392.7 755.7 392.7 739.1C392.7 737.2 389.7 737.2 389.7 739.1C389.7 755.8 389.7 772.5 389.7 789.1C389.7 791.1 392.7 791.1 392.7 789.1Z" fill="#E8E8E8"/>
<path d="M390.4 738.9C400.2 738.9 410 738.9 419.8 738.9C421.7 738.9 421.7 735.9 419.8 735.9C410 735.9 400.2 735.9 390.4 735.9C388.4 735.9 388.4 738.9 390.4 738.9Z" fill="#E8E8E8"/>
<path d="M418.3 738.3C418.3 755.7 418.3 773.1 418.3 790.4C418.3 792.3 421.3 792.3 421.3 790.4C421.3 773 421.3 755.6 421.3 738.3C421.3 736.3 418.3 736.3 418.3 738.3Z" fill="#E8E8E8"/>
<path d="M391.6 792.3C400.3 792.3 409 792.3 417.7 792.3C419.6 792.3 419.6 789.3 417.7 789.3C409 789.3 400.3 789.3 391.6 789.3C389.7 789.3 389.7 792.3 391.6 792.3Z" fill="#E8E8E8"/>
<path d="M816 840C881.3 815.5 943.9 784.3 1002.8 747C1004.4 746 1002.9 743.4 1001.3 744.4C942.6 781.6 880.2 812.7 815.2 837.1C813.4 837.8 814.2 840.7 816 840Z" fill="#E8E8E8"/>
<path d="M1103.1 516.4C1103.2 593.8 1103.3 671.1 1103.3 748.5C1103.3 750.4 1106.3 750.4 1106.3 748.5C1106.2 671.1 1106.1 593.8 1106.1 516.4C1106.1 514.5 1103.1 514.5 1103.1 516.4Z" fill="#E8E8E8"/>
<path d="M886.5 489.3C965.3 489.3 1044 489.3 1122.8 489.3C1124.7 489.3 1124.7 486.3 1122.8 486.3C1044 486.3 965.3 486.3 886.5 486.3C884.6 486.3 884.6 489.3 886.5 489.3Z" fill="#E8E8E8"/>
<path d="M880.9 588.7C880.9 572 880.9 555.3 880.9 538.7C880.9 536.8 877.9 536.8 877.9 538.7C877.9 555.4 877.9 572.1 877.9 588.7C877.9 590.7 880.9 590.7 880.9 588.7Z" fill="#E8E8E8"/>
<path d="M878.6 538.5C888.4 538.5 898.2 538.5 908 538.5C909.9 538.5 909.9 535.5 908 535.5C898.2 535.5 888.4 535.5 878.6 535.5C876.7 535.5 876.7 538.5 878.6 538.5Z" fill="#E8E8E8"/>
<path d="M906.5 537.9C906.5 555.3 906.5 572.7 906.5 590C906.5 591.9 909.5 591.9 909.5 590C909.5 572.6 909.5 555.2 909.5 537.9C909.5 535.9 906.5 535.9 906.5 537.9Z" fill="#E8E8E8"/>
<path d="M879.9 591.9C888.6 591.9 897.3 591.9 906 591.9C907.9 591.9 907.9 588.9 906 588.9C897.3 588.9 888.6 588.9 879.9 588.9C877.9 588.9 877.9 591.9 879.9 591.9Z" fill="#E8E8E8"/>
<path d="M1019.8 588.7C1019.8 572 1019.8 555.3 1019.8 538.7C1019.8 536.8 1016.8 536.8 1016.8 538.7C1016.8 555.4 1016.8 572.1 1016.8 588.7C1016.8 590.7 1019.8 590.7 1019.8 588.7Z" fill="#E8E8E8"/>
<path d="M1017.4 538.5C1027.2 538.5 1037 538.5 1046.8 538.5C1048.7 538.5 1048.7 535.5 1046.8 535.5C1037 535.5 1027.2 535.5 1017.4 535.5C1015.5 535.5 1015.5 538.5 1017.4 538.5Z" fill="#E8E8E8"/>
<path d="M1045.4 537.9C1045.4 555.3 1045.4 572.7 1045.4 590C1045.4 591.9 1048.4 591.9 1048.4 590C1048.4 572.6 1048.4 555.2 1048.4 537.9C1048.4 535.9 1045.4 535.9 1045.4 537.9Z" fill="#E8E8E8"/>
<path d="M1018.7 591.9C1027.4 591.9 1036.1 591.9 1044.8 591.9C1046.7 591.9 1046.7 588.9 1044.8 588.9C1036.1 588.9 1027.4 588.9 1018.7 588.9C1016.8 588.9 1016.8 591.9 1018.7 591.9Z" fill="#E8E8E8"/>
<ellipse cx="958.8" cy="137.2" rx="59.9" ry="60.9" stroke="#E8E8E8" stroke-width="3"/>
<path d="M889.7 372.5C906.3 361.2 926.5 368.3 943.7 374.1C951.8 376.8 960 379.3 968.5 380.1C977.7 381 986.9 380 995.9 378.2C1031.6 370.8 1070.2 345.6 1106.9 362.7C1108.6 363.5 1110.2 360.9 1108.4 360.1C1081.4 347.5 1051.7 357.4 1025.3 366.4C1009.9 371.7 994 377 977.5 377.4C960.6 377.8 945.8 370.9 929.9 366.5C916.1 362.6 900.5 361.5 888.1 369.9C886.6 371 888.1 373.6 889.7 372.5Z" fill="#E8E8E8"/>
<path d="M142.1 318C171 326.3 199.4 312.7 226.5 304.2C241.3 299.6 256.9 295.9 272.5 297.9C288.4 300 302.9 307.6 317.5 313.9C332.3 320.3 347.7 325.6 364.1 323C366 322.7 365.2 319.8 363.3 320.1C332 325.1 305.8 300.6 276.2 295.4C247.3 290.3 219.8 304.1 192.8 312.1C176.5 316.9 159.6 319.8 142.9 315C141 314.5 140.2 317.4 142.1 318Z" fill="#E8E8E8"/>
<path d="M400.9 361.4C411.6 361.1 421 356.3 430.5 352C436.3 349.4 442.3 346.9 448.7 346.4C455.8 345.8 462 348.3 468.1 351.7C479.3 357.9 489.7 363.6 502.6 365.6C514.8 367.6 527.2 366.7 539.1 363.1C540.9 362.5 540.2 359.6 538.3 360.2C525.1 364.2 511.1 364.7 497.6 361.5C491.2 360 485 357.6 479.2 354.5C473.7 351.5 468.5 347.9 462.7 345.6C440.4 336.7 422.5 357.7 400.9 358.3C399 358.5 399 361.5 400.9 361.4Z" fill="#E8E8E8"/>
<path d="M707.8 268.2C736.6 281.6 768.9 281 799.5 275.1C834.1 268.4 866.7 253.1 902.5 253.7C922.7 254.1 942.7 258.5 961.3 266.5C963.1 267.3 964.6 264.7 962.8 263.9C932.8 250.9 899.4 247.4 867.4 254.1C849.9 257.8 833 263.9 815.7 268.4C799.3 272.6 782.5 275.6 765.6 276.2C746.3 276.8 727 273.9 709.4 265.7C707.6 264.8 706.1 267.4 707.8 268.2Z" fill="#E8E8E8"/>
<path d="M362.8 817.9C365.9 834.2 368.9 850.6 372 866.9C320.4 885.6 295.3 898.5 296.9 905.7C298.8 914.4 339.3 914.7 418.5 906.7C415.1 872.7 411.7 838.7 408.3 804.6C393.1 809.1 377.9 813.5 362.8 817.9Z" fill="#161616" stroke="#161616" stroke-width="3"/>
<path d="M604.3 613.6C582.7 622.5 573.6 620.3 546.3 627.8C496 641.6 459.6 667.4 436.9 686.9C438 724.1 439.1 761.3 440.2 798.5C437.9 801.2 412.7 829.8 374.5 825.9C348.2 823.2 331.8 806.6 327.4 801.8C326.7 767.5 327.3 730.9 329.6 692.4C331 670.1 332.8 648.5 335.1 627.8C338.5 623 343.7 616.1 350.4 608.1C403 545.5 466 517.7 500.3 503.1C534.5 488.5 555.9 479.4 587.8 476.8C596.3 476.1 681.3 470.1 695 504.2C707.7 535.3 657.6 591.7 604.3 613.6Z" fill="white" stroke="#161616" stroke-width="3"/>
<path opacity="0.16" d="M689.5 493.7C670.5 480.6 628.6 536.4 545.2 589C465 639.5 423 638.7 398.8 687.8C391.4 702.7 383.7 726.3 379 750.3C373.2 780.5 373.2 806.3 374.5 824.6C381 824.3 388.7 823.4 397 821.2C417.1 815.9 431.4 805.8 439.8 798.7C438.7 760.8 437.5 722.9 436.4 685.1C450.4 673.7 472.7 657.4 502.8 643.5C559.1 617.4 580.2 628.6 626.6 601.9C637.3 595.8 697.8 560.9 696.4 515.3C696 508 695.9 498.1 689.5 493.7Z" fill="#3D3D3D"/>
<path opacity="0.25" d="M697.3 511.7C693.1 508.3 676.8 531.1 637.7 559C589.1 593.6 565.7 593.2 512.2 625.4C492.9 637 465 655.6 434.1 683.9C440.1 681.3 449.8 676.9 461.1 670.4C484.1 657 489.7 648.8 507.2 640C513.5 636.9 525.3 633.7 548.8 627.6C589.9 616.9 595.8 617.4 610.7 610.7C630.4 601.9 643.3 590.8 650.1 584.8C682.7 556.2 702.6 515.9 697.3 511.7Z" fill="#3D3D3D"/>
<path opacity="0.2" d="M435.2 685C422.4 731.1 409.7 777.3 396.9 823.4C402.6 821.9 409.6 819.5 417.2 815.5C428.1 809.7 435.8 802.8 440.8 797.5C438.9 760 437.1 722.5 435.2 685Z" fill="#3D3D3D"/>
<path d="M688.1 974.1C691.2 990.4 694.2 1006.8 697.3 1023.1C650.6 1046.6 628.4 1061.2 630.4 1066.9C632.9 1073.8 670.6 1067.8 743.4 1049C740.1 1019.6 736.9 990.2 733.6 960.8C718.4 965.3 703.3 969.7 688.1 974.1Z" fill="#161616" stroke="#161616" stroke-width="3"/>
<path d="M728.1 465.9C731.6 492.9 736.1 533.6 738.3 583.3C741.6 660 736.8 702.7 736 759.4C735.3 809.1 737.6 880.4 751.8 968.3C744.1 973.4 726.7 983.5 702.1 985.2C678.7 986.8 660.8 980 652.4 976.2C650.2 933.6 646.3 888.3 640 840.7C628.4 753 610.9 674 591.5 604.8C579.5 588.2 567.4 571.7 555.4 555.1C599.1 524.2 642.7 493.4 686.4 462.5C700.2 463.7 714.1 464.8 728.1 465.9Z" fill="white" stroke="#161616" stroke-width="3"/>
<path d="M571.9 563.7C568.8 559.4 565.8 555 562.7 550.7C561.8 554.1 560.9 557.5 560 561C574.8 551.8 589.3 542.1 603.2 531.5C614.8 522.7 625.6 513 637.3 504.4C644.7 498.9 652.3 493.7 659.9 488.5C667.2 483.6 674.6 477.4 682.6 473.5C686.9 471.4 692 471.7 696.6 471.7C705.4 471.7 714.1 472 722.8 472.5C732.4 473 732.4 458 722.8 457.5C714.1 457.1 705.3 456.7 696.6 456.7C691 456.7 685.2 456.7 679.9 458.4C671.6 461.1 664.1 467.6 657 472.5C648.8 478 640.7 483.5 632.7 489.3C620.3 498.3 608.9 508.4 596.8 517.7C582.6 528.6 567.7 538.6 552.5 548C549.3 550 547.4 554.9 549.8 558.3C552.9 562.6 555.9 567 559 571.3C564.5 579.1 577.5 571.6 571.9 563.7Z" fill="white"/>
<path opacity="0.14" d="M628.7 477.9C643.9 522.8 658 572.8 669.2 627.5C697.1 764.4 697.6 886.2 689.5 981.9C694.3 983.6 700.4 985.1 707.5 985.3C730 985.9 746.2 972.9 751.4 968.4C747 946.3 741.3 913.2 737.9 872.8C730.5 785.3 739.8 735.7 741.3 661.3C742.2 616.1 740.5 551.9 727.8 473.4C694.7 474.9 661.7 476.4 628.7 477.9Z" fill="#3D3D3D"/>
<path opacity="0.2" d="M731.1 519.6C728.3 618.1 723.5 719.4 716.5 823.4C712.9 877.1 708.7 930 704.1 982C708.7 982.8 716.9 983.6 726.6 980.9C739.2 977.3 747 969.8 750.2 966.3C739 901.3 736.2 848.6 735.6 813.3C734.5 746.5 740.8 712.4 739 634.4C737.8 584.8 734 544.6 731.1 519.6Z" fill="#3D3D3D"/>
<path d="M322.1 113.3C323.4 110.3 310.6 104.1 311.9 100.6C313.2 97 329.1 96.1 339.8 104C351 112.2 350.3 124.2 356.7 139.6C364 156.9 375.5 166.3 393 180.7C403.5 189.4 444.5 222 503.6 220.2C530.4 219.4 552.8 211.7 569.4 203.6C567.1 232.3 564.7 261.1 562.4 289.8C548.8 292.9 530.1 295.6 508.2 293.7C428.6 286.8 377.5 225.4 361.7 206.5C352.1 195 339 177.3 327 153.2C317.6 156 303 159.2 285.5 157.4C273.1 156.2 258.3 152.4 258.4 148.9C258.5 144.3 284 141.2 283.8 139.6C283.6 138.2 263.5 143.7 258.4 136.2C254.4 130.3 260 117 269.4 111.6C272.3 110 275.6 109 283.8 109.1C306 109.1 320.9 116 322.1 113.3Z" fill="white" stroke="#161616" stroke-width="3"/>
<path d="M258.1 130.5C263.2 129.3 269.1 131.8 274.3 132C278.9 132.2 283.5 131.8 288 130.9C289.9 130.5 289.1 127.6 287.2 128C281.5 129.1 275.8 129.4 270 128.6C265.6 128 261.7 126.6 257.3 127.6C255.4 128 256.2 130.9 258.1 130.5Z" fill="#161616"/>
<path d="M262.3 120.6C268.3 119.4 273.6 121.9 279.4 122.2C284.5 122.5 289.6 121.5 294.6 120.2C296.5 119.7 295.7 116.8 293.8 117.3C287.3 119 281 119.8 274.3 118.4C269.8 117.5 266 116.7 261.4 117.6C259.6 118.1 260.4 121 262.3 120.6Z" fill="#161616"/>
<path d="M317.6 123.6C322.7 129 329.6 131.8 337 131.6C338.9 131.5 338.9 128.5 337 128.6C330.3 128.9 324.3 126.4 319.8 121.5C318.4 120.1 316.3 122.2 317.6 123.6Z" fill="#161616"/>
<path opacity="0.18" d="M258.4 135.4C258.7 132.7 280.5 132 300.5 134.9C311.3 136.4 321.8 137.9 331.7 142.6C353.3 152.7 360.4 172 371.6 189.7C371.6 189.7 396.7 229 441.6 251C486.2 272.8 537.1 258.2 565.8 246.6C564.7 261 563.6 275.4 562.5 289.8C536 295.2 514.8 293.9 501.2 292C425.5 281.3 378 223.1 359.1 200C343.8 181.3 333.6 164.1 327.4 152.4C317.5 156 302.8 159.7 285.3 157.9C273.2 156.6 258.9 152.6 259 149.1C259.2 144.6 283.3 141.9 283.1 140.9C283 140.4 276.2 141.9 267.8 139.8C264.5 139 258.3 136.9 258.4 135.4Z" fill="#3D3D3D"/>
<path opacity="0.24" d="M485.5 274.9C521.2 275.4 548.8 261.4 563.2 252.5C562.7 265.3 562.1 278 561.6 290.8C541.8 294.1 507.1 296.9 467.5 284.2C395.8 261.3 360.6 204.3 351.5 188.4C354.4 193.6 401.5 273.8 485.5 274.9Z" fill="#3D3D3D"/>
<path opacity="0.19" d="M292.4 151.8C313.8 151.9 328.2 148.7 328.5 150.2C328.7 151.4 319.8 155 310.4 156.8C283.1 162 258.1 150.7 258.4 149.1C258.7 148 269.9 151.7 292.4 151.8Z" fill="#3D3D3D"/>
<circle cx="315.8" cy="41.5999" r="28.2" fill="#EC615B"/>
<ellipse cx="310.1" cy="39.4999" rx="32" ry="32.1" stroke="#161616" stroke-width="2"/>
<path d="M314.5 21.8999C308.2 21.4999 292 27.5999 298 36.6999C301.5 41.9999 308.3 38.4999 313.2 39.7999C319.5 41.4999 318.8 49.0999 314.9 52.7999C310.8 56.5999 305 55.9999 301.1 52.4999C299.7 51.1999 297.5 53.2999 299 54.5999C306.9 61.7999 321 57.6999 321 45.9999C321 40.6999 317.4 37.2999 312.4 36.6999C308.7 36.1999 298.3 38.9999 300.7 31.3999C302.3 26.1999 310 24.5999 314.6 24.8999C316.5 24.9999 316.5 21.9999 314.5 21.8999Z" fill="#161616"/>
<path d="M311.1 23.3C311.4 20 311.7 16.8 312 13.5C312.2 11.6 309.2 11.6 309 13.5C308.7 16.8 308.4 20 308.1 23.3C307.9 25.2 310.9 25.2 311.1 23.3Z" fill="#161616"/>
<path d="M309.1 59.1C309.4 61.4 309.7 63.8 309.9 66.1C310.1 68 313.1 68 312.9 66.1C312.6 63.8 312.3 61.4 312.1 59.1C311.9 57.2 308.9 57.2 309.1 59.1Z" fill="#161616"/>
<path d="M599.6 196.5C596.3 196.7 585.2 197.2 571 200.7C562.9 202.7 556.5 205 552.8 206.5C546.1 220.1 537.5 241.1 534.3 267.7C529.7 305.6 538.9 330 545.2 367.7C549.5 393.6 553 431.1 548.2 478.5C558.4 487.8 585 509.5 625.4 515.1C682.6 523.1 724.6 492.9 733.3 486.4C738.6 453.6 743.6 419.9 748.1 385.4C755.8 327 761.6 270.5 765.9 216.2C738.2 190.1 714.2 183.1 697.3 181.7C664.8 178.9 635.4 194.5 599.6 196.5Z" fill="#EC615B"/>
<path opacity="0.17" d="M644.5 221.7C650.7 228.1 659.2 237.8 666.8 251C703.3 314.4 680.7 388.4 670.6 421.2C663.6 444.2 650.3 477.9 624.1 514.3C634.1 516 646.7 517 661.1 515.6C695.3 512.2 720.1 496.7 732.5 487.5C741.9 434.1 749.9 377.3 756.1 317.3C759.7 282.1 762.4 247.8 764.4 214.7C760.5 210.9 754.5 205.8 746.5 200.7C733.6 192.4 713.3 179.5 690.4 183.5C661.2 188.5 646.4 217.7 644.5 221.7Z" fill="#3D3D3D"/>
<path opacity="0.11" d="M759.9 237.6C754.8 251.9 746.9 274.7 738.9 303.3C715.1 387.2 716.8 423.2 687.9 466.5C679.1 479.7 664.3 498.4 639.4 516.9C651.7 516.8 669.5 515.3 689.8 508.6C708.2 502.5 722.3 494.3 731.9 487.6C739.7 445.8 746.6 400.7 751.7 352.4C755.8 312.2 758.5 273.8 759.9 237.6Z" fill="#3D3D3D"/>
<path d="M713.5 430.1C711.4 426.2 713.6 420.4 716.9 417.3C723 411.5 734.1 413.7 739.1 420C739.8 420.9 743.2 425.1 741.8 428.7C738.8 436 717.8 437.9 713.5 430.1Z" fill="white" stroke="#161616" stroke-width="3"/>
<path d="M741.7 199.2C756.6 209.5 775 224.5 792.7 245.5C812 268.3 824.6 291.3 833 310.6C840.1 327.1 844.4 341.8 847.1 352.9C838.2 373.4 821.5 403.6 790.7 430.1C779.6 439.7 768.6 447.1 758.5 452.9C753.2 458.8 745.8 466.3 736 474C729.6 479.1 720.9 485.9 718.9 484.2C717.3 482.8 720.1 475.9 724.4 471.1C729.5 465.5 735.8 463.8 735.7 463.5C735.6 463.2 730 464.2 724.8 468.2C718.8 472.9 719.1 477.3 716.1 478C709.8 479.5 695.3 464.3 697.5 448.9C699.3 436 712 429.1 716.3 426.7C728.1 420.2 739.6 421.4 743.8 422C758.8 398.7 773.8 375.5 788.8 352.2C784.7 348.9 779.3 344.2 773.4 338.1C766.5 331 747.1 310.8 737.8 283.1C725.3 245.9 736.8 211.6 741.7 199.2Z" fill="white" stroke="#161616" stroke-width="3"/>
<path d="M699.9 461.6C703.6 453.4 709.9 447 718.1 443.4C719.9 442.6 718.3 440 716.6 440.8C708 444.6 701.1 451.5 697.3 460.1C696.5 461.8 699.1 463.3 699.9 461.6Z" fill="#161616"/>
<path d="M710.9 475.5C707.8 466.1 716.9 456.4 724.4 452.1C726.1 451.1 724.6 448.5 722.9 449.5C714.2 454.5 704.4 465.5 708 476.3C708.6 478.1 711.5 477.3 710.9 475.5Z" fill="#161616"/>
<path opacity="0.18" d="M737.1 215.7C749.1 228.1 766 246.6 784.1 270.9C809.5 304.8 822.1 321.8 823 339.7C824.6 372.9 799.7 414.4 766.9 430.2C757.4 434.8 732.7 444.1 718.5 462.3C714.4 467.5 710.2 474.7 711.7 476.3C713 477.6 717.8 474.2 719.4 475.8C721.3 477.7 716.7 483.5 718 484.8C719.6 486.4 728.5 480.7 737.5 473.5C743.3 468.8 750.4 462.4 757.9 454C767.4 448.6 777.5 441.8 787.8 433.2C820.5 405.9 838.1 374 847.5 352.2C845.2 343.4 841.7 331.5 836.2 317.8C819.6 276.5 797.4 249.8 790.1 241.4C779.6 229.2 763.8 213.3 741.7 198C740.1 203.9 738.6 209.8 737.1 215.7Z" fill="#3D3D3D"/>
<path opacity="0.21" d="M833 366.8C823.4 379.2 818.5 387.1 814.5 393C806.9 404 795.6 414.5 772.9 435.5C764.8 443 753.8 453 740.3 464.5C726.1 476.8 719.2 483.1 719.5 483.5C719.9 484 733.6 473.6 760.7 452.3C765.8 449.3 773 444.9 781.1 438.7C827.7 403 848.6 351.7 846.7 350.5C845.9 350.1 841.6 355.6 833 366.8Z" fill="#3D3D3D"/>
<path d="M578.7 32.5001C549.3 56.6001 550.5 105.5 562 137.1C569.3 157.1 581 170.8 588.7 178.4C587.1 190 585.5 201.6 583.9 213.2C592.4 217.1 604.6 221.2 619.5 221.9C658.5 223.8 686.4 201 694 194.4C687.1 171.3 680.2 148.2 673.3 125C672.4 118.5 670.9 108.5 669.3 96.3001C665 64.5001 665.2 62.8001 663.3 57.6001C662.5 55.5001 650.5 25.0001 622.6 19.6001C600.1 15.4001 581.5 30.2001 578.7 32.5001Z" fill="white" stroke="#161616" stroke-width="3"/>
<path d="M554.5 113.9C552.8 120.6 551 131.1 552.2 143.7C553 152.1 554.4 166.7 564.9 180.8C576.2 196 591.4 201.8 597.9 203.9C597.4 202.2 596.8 200.1 596.5 197.6C596.2 195 596.3 192.6 596.5 190.8C603.4 194.6 610.4 198.3 617.3 202.1C634.8 186 640.6 171.2 642.6 160.5C644.2 152.1 645.2 136.7 648.9 108.5C649.6 103.5 650.9 94.5 656.6 92.2C659.3 91.1 662.9 91.6 665.2 93.6C672.1 99.4 665.1 116.2 666.6 116.7C668.1 117.2 680.2 100.3 676.1 81C674 71 668.2 64.1 664.8 60.7C657.2 72.7 648.8 85.0999 639.5 97.7999C633.6 105.9 627.7 113.5 621.9 120.9C619.7 122.1 616.4 123.4 612.6 123.1C609.6 122.8 608.6 121.8 606.4 121.2C598.2 118.9 593.8 128.6 585.7 127.3C579.1 126.2 578.5 119.1 571.2 118.9C567.7 118.8 566.3 120.4 562.7 119.7C558.9 118.6 556.2 116 554.5 113.9Z" fill="#161616" stroke="#161616" stroke-width="3"/>
<path d="M588.5 85.5C586 97.1 584.4 108.8 583.7 120.6C583.6 121.8 585 122.4 586 121.9C590.1 119.8 594.3 117.6 598.4 115.5C600.1 114.6 598.6 112 596.9 112.9C592.8 115 588.6 117.2 584.5 119.3C585.3 119.7 586 120.2 586.8 120.6C587.5 109 589 97.6 591.5 86.3C591.8 84.4 588.9 83.6 588.5 85.5Z" fill="#161616"/>
<ellipse cx="572.5" cy="91.6999" rx="2.3" ry="5.8" fill="#161616" stroke="#161616" stroke-width="3"/>
<ellipse cx="611.3" cy="91.6999" rx="3.1" ry="5.8" fill="#161616" stroke="#161616" stroke-width="3"/>
<path d="M566.9 80.3999C568.8 76.8999 573 77.6999 576.1 78.7999C577.9 79.3999 578.7 76.4999 576.9 75.8999C572.5 74.2999 566.9 74.1999 564.3 78.8999C563.4 80.4999 566 82.0999 566.9 80.3999Z" fill="#161616"/>
<path d="M604.7 76.3C609.4 71.8 616.6 72.2 620.6 77.6C621.7 79.1 624.3 77.6 623.2 76.1C618.1 69.2 608.9 68.3 602.6 74.2C601.2 75.5 603.3 77.6 604.7 76.3Z" fill="#161616"/>
<path d="M531.3 62C573.4 64.5 615.4 68 657.2 72.6C662.9 73.2 662.9 64.2 657.2 63.6C615.3 59 573.3 55.5 531.3 53C525.5 52.7 525.5 61.7 531.3 62Z" fill="#161616"/>
<path d="M558.5 55.7999C559.2 49.2999 561.8 32.5999 574.6 18.9999C591.3 1.29992 622.2 -6.10008 646.2 8.89992C665 20.6999 675.1 43.4999 671.7 66.6999C634 63.0999 596.3 59.4999 558.5 55.7999Z" fill="#5222D0"/>
<path opacity="0.69" d="M611.7 4.30002C606.8 8.40002 606.8 17.1 608.5 26.3C610.4 36.4 615.3 48.7 622.6 61.4C639 63.3 655.4 65.3 671.8 67.2C672.5 63.6 673.2 58.4 672.6 52.2C672.6 52.2 671.5 40.8 665.5 30.5C653.5 9.90002 622.1 -4.49998 611.7 4.30002Z" fill="#3A1DA3"/>
<path opacity="0.24" d="M663.1 121.7C659.4 123.7 655.7 123.2 654.4 122.9C657.6 129 667.5 149.6 662.7 176.2C658.1 201.5 643.1 216.8 637.9 221.7C644.4 220.4 651.8 218.3 659.8 215.1C675 208.9 686.4 200.7 694.1 194C686.1 165.9 678.1 137.8 670.1 109.7C670.1 110.2 669.7 118.2 663.1 121.7Z" fill="#3D3D3D"/>
<path opacity="0.19" d="M626.1 69.3C627.3 74.4 628.3 82.1 627.1 91.1C625 106.3 617.7 116.8 613.9 121.7C616.2 121 618.5 120.2 620.8 119.5C625.4 113.9 630.1 107.9 634.7 101.8C642.3 91.7 649.3 81.7 655.7 72.1C645.8 71.2 636 70.2 626.1 69.3Z" fill="#3D3D3D"/>
</svg>
