<svg width="1082" height="1074" viewBox="0 0 1082 1074" fill="none" xmlns="http://www.w3.org/2000/svg">
<path d="M100.9 914.4C197.2 914.4 293.6 914.4 389.9 914.4C417.1 914.4 444.4 914.4 471.6 914.4C473.5 914.4 473.5 911.4 471.6 911.4C375.3 911.4 278.9 911.4 182.6 911.4C155.4 911.4 128.1 911.4 100.9 911.4C98.9996 911.4 98.9996 914.4 100.9 914.4Z" fill="#E8E8E8"/>
<path d="M491 914.4C589.4 914.4 687.7 914.4 786.1 914.4C814 914.4 841.9 914.4 869.8 914.4C871.7 914.4 871.7 911.4 869.8 911.4C771.4 911.4 673.1 911.4 574.7 911.4C546.8 911.4 518.9 911.4 491 911.4C489.1 911.4 489.1 914.4 491 914.4Z" fill="#E8E8E8"/>
<path d="M562.3 941.9C639.5 941.9 716.6 941.9 793.8 941.9C795.7 941.9 795.7 938.9 793.8 938.9C716.6 938.9 639.5 938.9 562.3 938.9C560.3 938.9 560.3 941.9 562.3 941.9Z" fill="#E8E8E8"/>
<path d="M324.3 948.4C369.1 948.4 413.9 948.4 458.7 948.4C460.6 948.4 460.6 945.4 458.7 945.4C413.9 945.4 369.1 945.4 324.3 945.4C322.4 945.4 322.4 948.4 324.3 948.4Z" fill="#E8E8E8"/>
<path d="M921.6 912.8C957.2 912.8 992.8 912.8 1028.4 912.8C1030.3 912.8 1030.3 909.8 1028.4 909.8C992.8 909.8 957.2 909.8 921.6 909.8C919.7 909.8 919.7 912.8 921.6 912.8Z" fill="#E8E8E8"/>
<path d="M143 723.7C155.8 746 158.5 772.9 150.5 797.3C150.2 798.1 150.8 798.9 151.5 799.1C154.5 800.1 157.6 801.4 159.7 803.7C162.4 806.7 163 812.7 158.4 814.5C157.5 814.9 156.7 816.2 157.7 817C165.5 823.1 166.4 833.3 167 842.5C167.6 851.6 168.5 860.6 170.7 869.4C175 886.4 183.4 902.2 197.5 912.9C199 914.1 200.5 911.5 199 910.3C183.4 898.5 175.4 880 172 861.2C169.3 846.6 172.9 825.2 159.7 814.9C159.5 815.7 159.3 816.6 159 817.4C163.2 815.7 165.3 811.4 164.4 806.9C163.2 801 157.3 797.9 152 796.2C152.3 796.8 152.7 797.4 153 798C161.3 772.8 158.4 745 145.2 722.1C144.6 720.5 142 722 143 723.7Z" fill="#E8E8E8"/>
<path d="M143.9 721.3C164.3 733.8 180.6 751.4 194 771C200.5 780.4 206.4 790.3 211.9 800.3C216.5 808.7 227 823.7 218.3 832.6C217.5 833.4 217.9 834.8 219 835.1C225.8 836.9 228.6 844.6 231.1 850.5C233.7 856.7 235.8 863.1 237.4 869.6C240.8 883.1 242.2 897 241.6 910.9C241.5 912.8 244.5 912.8 244.6 910.9C245.2 894.9 243.4 878.9 238.8 863.5C236.7 856.5 234.2 849.6 231 843.1C228.6 838.2 225.3 833.7 219.8 832.2C220 833 220.2 833.9 220.5 834.7C227.9 827.2 223.8 816.2 219.6 808.1C213.5 796.2 206.8 784.6 199.4 773.5C185.1 751.9 167.7 732.3 145.4 718.7C143.8 717.7 142.3 720.3 143.9 721.3Z" fill="#E8E8E8"/>
<path d="M145.3 722.2C190.9 775.1 219.9 841.4 227.7 910.8C227.9 912.7 230.9 912.7 230.7 910.8C224.5 856.1 205.4 803 175.2 757C166.7 744.1 157.4 731.8 147.3 720.1C146.1 718.6 144 720.8 145.3 722.2Z" fill="#E8E8E8"/>
<path d="M153.9 793.2C179 804.1 200.1 822.4 214.4 845.7C215.4 847.3 218 845.8 217 844.2C202.5 820.5 181 801.7 155.4 790.6C153.7 789.9 152.2 792.4 153.9 793.2Z" fill="#E8E8E8"/>
<path d="M193.4 768.7C194.2 779.3 195.4 789.7 197.3 800.2C197.6 802.1 200.5 801.3 200.2 799.4C198.4 789.2 197.2 779 196.4 768.7C196.2 766.8 193.2 766.8 193.4 768.7Z" fill="#E8E8E8"/>
<path d="M167.4 848.2C190.5 858.6 210.7 874.7 225.9 895C227 896.5 229.6 895 228.5 893.5C213 872.8 192.6 856.3 168.9 845.6C167.2 844.9 165.7 847.4 167.4 848.2Z" fill="#E8E8E8"/>
<path d="M207.3 785.7C207 761.1 210.9 736.7 218.7 713.4C218 713.7 217.2 714 216.5 714.3C218.3 715.2 220 716.1 221.8 716.9C222.8 717.4 224 716.8 224.1 715.6C224.5 700.4 228.9 685.9 237.1 673.1C236.2 673 235.3 672.9 234.4 672.7C241.2 692.1 248 711.4 254.8 730.8C258.1 740.2 261.4 749.5 264.7 758.9C267.2 766 277.5 786.3 264.4 788.5C263.2 788.7 263 790.3 263.7 791C270.6 798.4 273.2 808.3 274.5 818.1C275.8 828.2 276 838.4 275.6 848.5C274.7 869.7 270.3 890.5 262.7 910.3C262 912.1 264.9 912.9 265.6 911.1C273.7 890 278.2 867.5 278.7 844.9C279.1 826.6 279.2 803.2 265.8 789C265.6 789.8 265.4 790.7 265.1 791.5C272.8 790.2 274.7 782 273.3 775.3C270.8 763.8 265.5 752.4 261.6 741.3C253.5 718.2 245.3 695.1 237.2 671.9C236.8 670.7 235.2 670.4 234.5 671.5C226 684.7 221.4 699.8 221.1 715.5C221.9 715.1 222.6 714.6 223.4 714.2C221.6 713.3 219.9 712.4 218.1 711.6C217.2 711.1 216.2 711.5 215.9 712.5C208 736.1 204.1 760.7 204.4 785.6C204.3 787.6 207.3 787.6 207.3 785.7Z" fill="#E8E8E8"/>
<path d="M231.5 675.8C247.2 753.7 236.5 833.8 249.4 912C249.7 913.9 252.6 913.1 252.3 911.2C239.5 833 250.2 752.8 234.4 675C234 673.1 231.1 673.9 231.5 675.8Z" fill="#E8E8E8"/>
<path d="M208.9 739.5C214.8 768.1 227.9 794.3 240.9 820.3C241.8 822 244.4 820.5 243.5 818.8C230.6 793.1 217.7 767.1 211.8 738.8C211.4 736.8 208.5 737.6 208.9 739.5Z" fill="#E8E8E8"/>
<path d="M259.1 739.9C251.8 753.7 245.9 768.2 241.3 783.1C240.7 784.9 243.6 785.7 244.2 783.9C248.7 769.2 254.6 755 261.7 741.4C262.6 739.7 260 738.2 259.1 739.9Z" fill="#E8E8E8"/>
<path d="M701.7 910.3C704.6 885.2 707.5 860.1 710.4 835C709.9 835.5 709.4 836 708.9 836.5C711.9 836.3 714.2 836.9 716.7 838.8C717.7 839.6 719.2 839.1 719.3 837.7C719.6 832.2 719.8 826.8 720.1 821.3C719.5 821.8 718.8 822.3 718.2 822.7C725.5 824 729.4 817.2 732.1 811.6C736.2 803 741.4 795.5 747.4 788.2C758.3 775 770.7 762.1 774.8 744.9C773.8 744.9 772.9 744.9 771.9 744.9C777.5 762.6 783.3 780.6 784.2 799.3C784.9 813.7 783.3 834.6 767.5 840.8C766.6 841.2 766.1 842.1 766.6 843C775.3 859.2 752.6 870.2 742.7 878.2C731.6 887.2 722.5 898.4 715.7 910.9C714.8 912.6 717.4 914.1 718.3 912.4C727 896.5 739.1 884 753.9 873.7C764.1 866.6 776.4 855 769.2 841.5C768.9 842.2 768.6 843 768.3 843.7C782.9 837.9 786.9 821 787.3 806.8C787.8 785.3 781.2 764.4 774.8 744.1C774.4 742.7 772.3 742.6 771.9 744.1C768.2 759.8 757.2 771.8 747.1 783.8C742.4 789.4 737.8 795.1 734 801.3C730.9 806.5 726.8 821.2 718.9 819.8C717.9 819.6 717.1 820.2 717 821.2C716.7 826.7 716.5 832.1 716.2 837.6C717.1 837.2 717.9 836.9 718.8 836.5C715.8 834.1 712.7 833.1 708.8 833.3C707.9 833.4 707.4 833.9 707.3 834.8C704.4 859.9 701.5 885 698.6 910.1C698.5 912.2 701.5 912.2 701.7 910.3Z" fill="#E8E8E8"/>
<path d="M771.8 748.9C770.1 777.3 764.8 806.2 749.6 830.7C742.2 842.7 732.4 853.2 724.5 864.9C716.9 876.1 711.2 888.4 707.2 901.3C706.6 903.1 709.5 903.9 710.1 902.1C714.5 888 721 874.8 729.6 862.8C738 851.1 747.7 840.4 754.8 827.8C768.2 803.8 773.1 776.1 774.7 748.9C774.9 747 771.9 747 771.8 748.9Z" fill="#E8E8E8"/>
<path d="M738.7 796.8C738.9 810.8 741 824.6 745.1 838C745.7 839.8 748.6 839.1 748 837.2C744 824.1 741.9 810.6 741.7 796.8C741.6 794.9 738.6 794.8 738.7 796.8Z" fill="#E8E8E8"/>
<path d="M764.2 806.6C772.1 802.9 779.1 797.8 785.1 791.5C786.4 790.1 784.3 788 783 789.4C777.1 795.5 770.4 800.4 762.7 804C760.9 804.8 762.5 807.4 764.2 806.6Z" fill="#E8E8E8"/>
<path d="M753.3 911.1C752.4 900.1 751.2 889.1 749.8 878.2C749.6 876.3 746.5 876.3 746.8 878.2C748.2 889.1 749.4 900.1 750.3 911.1C750.4 913 753.4 913 753.3 911.1Z" fill="#E8E8E8"/>
<path d="M787.9 787.9C798.8 767.3 808.1 745.8 815.7 723.7C814.7 723.7 813.8 723.7 812.8 723.7C818.5 747 824.1 770.3 829.8 793.6C830.1 793 830.5 792.4 830.8 791.8C826.8 793 822.8 794.2 818.8 795.4C818.1 795.6 817.7 796.2 817.7 796.8C817.5 799.2 818.8 800.6 820.6 802C824.8 805.5 825.9 808.3 825.6 813.8C825.3 818.8 824.8 823.7 824.4 828.6C824.1 832.4 824.3 842.2 818.4 841.9C817.5 841.9 816.6 842.9 817 843.8C821.5 856.3 816.5 869.2 810.6 880.3C804.8 891.2 797.7 901.3 789.5 910.6C788.2 912 790.3 914.2 791.6 912.7C800.7 902.4 808.6 891 814.8 878.7C820.3 867.7 824.3 855.1 820 843C819.5 843.6 819 844.3 818.6 844.9C828 845.4 827.4 830.9 827.9 824.9C828.3 819.4 829.5 813.4 828.6 807.9C828.3 806.1 827.7 804.4 826.6 803C825.1 801.1 820.8 799.4 821 796.8C820.6 797.3 820.3 797.8 819.9 798.2C823.9 797 827.9 795.8 831.9 794.6C832.7 794.4 833.1 793.6 832.9 792.8C827.2 769.5 821.6 746.2 815.9 722.9C815.5 721.4 813.5 721.6 813 722.9C805.5 744.8 796.4 765.9 785.5 786.4C784.4 788.1 787 789.6 787.9 787.9Z" fill="#E8E8E8"/>
<path d="M811.8 730.2C821.2 790.1 779.2 841.6 768.4 898.2C768 900.1 770.9 900.9 771.3 899C782.2 841.7 824.2 790.1 814.7 729.4C814.4 727.5 811.5 728.3 811.8 730.2Z" fill="#E8E8E8"/>
<path d="M791.4 773.3C793.7 785.2 795.9 797.1 798.2 809.1C798.6 811 801.5 810.2 801.1 808.3C798.8 796.4 796.6 784.5 794.3 772.5C793.9 770.6 791.1 771.4 791.4 773.3Z" fill="#E8E8E8"/>
<path d="M809.6 788.6C814.2 781.9 819.4 775.7 825.1 769.9C826.5 768.5 824.3 766.4 823 767.8C817.1 773.7 811.8 780.2 807 787.1C805.9 788.7 808.5 790.2 809.6 788.6Z" fill="#E8E8E8"/>
<path d="M2.49988 631C76.0999 614.8 153.3 616.7 226 636.7C263.1 646.9 298.1 662.8 333.9 676.8C369.2 690.6 405.3 702.1 442.1 711.3C483.2 721.6 525 729 567.2 733.5C569.1 733.7 569.1 730.7 567.2 730.5C490.8 722.3 415.4 704.4 343.5 677.2C307.2 663.5 272 647 234.8 636C199.5 625.6 162.9 619.5 126.1 617.7C84.3999 615.6 42.4999 619.2 1.79988 628.1C-0.100115 628.5 0.699885 631.4 2.49988 631Z" fill="#E8E8E8"/>
<path d="M402.5 675.5C481.3 694.9 563.2 686.8 641.9 671C723 654.7 802.3 629.8 884.1 617C930.5 609.7 977.7 606.6 1024.6 611.3C1026.5 611.5 1026.5 608.5 1024.6 608.3C942.6 600.1 861 616 781.6 635C701.6 654.2 622 676.8 539.6 682.7C493.9 685.9 447.9 683.7 403.3 672.7C401.4 672.1 400.6 675 402.5 675.5Z" fill="#E8E8E8"/>
<path d="M164.4 546.5C211.8 537 258.8 552.4 304.3 564C350.4 575.8 397.3 581.2 444.8 576.5C492 571.8 537.6 558.4 583.8 548.2C631.5 537.6 680 530.3 728.7 526.5C782.7 522.2 837 522.2 891.1 526.3C893 526.4 893 523.4 891.1 523.3C795.1 516.1 698.2 522 603.8 541C556.3 550.6 509.7 564.8 461.6 571.6C412.5 578.5 363.2 575.5 315.1 563.8C265.6 551.7 215 533.4 163.5 543.7C161.7 543.9 162.5 546.8 164.4 546.5Z" fill="#E8E8E8"/>
<path d="M662.9 484.9C716.3 490.4 769.1 478.6 820.8 466.7C847.2 460.6 873.7 454.5 900.5 450.5C928.2 446.4 956.3 444.9 984.3 446.2C1015.9 447.7 1047.2 452.6 1077.8 460.9C1079.7 461.4 1080.5 458.5 1078.6 458C1025.1 443.5 969 439.2 914 445.7C860.3 452 808.5 468.3 755.3 477.3C724.8 482.5 693.9 485 663 481.8C661 481.7 661 484.7 662.9 484.9Z" fill="#E8E8E8"/>
<path d="M18.2003 488.6C58.5003 495.6 98.2003 481.5 138.3 479.3C180.6 476.9 222.7 483.8 264.2 490.7C266.1 491 266.9 488.1 265 487.8C224.4 481.1 183.4 474.4 142.1 476.1C101.1 477.8 60.1003 492.9 18.9003 485.7C17.1003 485.4 16.3003 488.3 18.2003 488.6Z" fill="#E8E8E8"/>
<path d="M205 1055C252.8 1055 300.6 1055 348.5 1055C350.4 1055 350.4 1052 348.5 1052C300.7 1052 252.9 1052 205 1052C203.1 1052 203.1 1055 205 1055Z" fill="#161616"/>
<path d="M316.3 1074C360.7 1074 405.1 1074 449.5 1074C451.4 1074 451.4 1071 449.5 1071C405.1 1071 360.7 1071 316.3 1071C314.4 1071 314.4 1074 316.3 1074Z" fill="#161616"/>
<path d="M89.4004 1050.6C64.5004 1050.6 39.6004 1050.6 14.7004 1050.6C12.8004 1050.6 12.8004 1053.6 14.7004 1053.6C39.6004 1053.6 64.5004 1053.6 89.4004 1053.6C91.3004 1053.6 91.3004 1050.6 89.4004 1050.6Z" fill="#161616"/>
<path d="M418.8 999.4C496.9 999.4 575 999.4 653 999.4C654.9 999.4 654.9 996.4 653 996.4C574.9 996.4 496.8 996.4 418.8 996.4C416.9 996.4 416.8 999.4 418.8 999.4Z" fill="#161616"/>
<path d="M793.6 977.4C822.9 977.4 852.2 977.4 881.4 977.4C883.3 977.4 883.3 974.4 881.4 974.4C852.1 974.4 822.8 974.4 793.6 974.4C791.6 974.4 791.6 977.4 793.6 977.4Z" fill="#161616"/>
<path d="M945.8 987.7C990.7 987.7 1035.6 987.7 1080.5 987.7C1082.4 987.7 1082.4 984.7 1080.5 984.7C1035.6 984.7 990.7 984.7 945.8 984.7C943.9 984.7 943.9 987.7 945.8 987.7Z" fill="#161616"/>
<path d="M66.3002 961.2C65.9002 966.9 65.6002 972.5 65.2002 978.2C62.7002 978.9 60.3002 979.7 57.8002 980.4C57.7002 984.6 57.6002 988.8 57.4002 993C53.6002 993 49.8002 993 45.9002 993C46.6002 998.8 47.4002 1004.6 48.1002 1010.4C54.6002 1010.5 61.2002 1010.6 67.7002 1010.8C68.4002 1015.5 69.2002 1020.2 69.9002 1024.9C65.3002 1024.9 60.5002 1024.8 55.5002 1024.5C49.6002 1024.2 44.1002 1023.7 38.9002 1023C38.7002 1029.2 38.4002 1035.3 38.2002 1041.5C54.6002 1041.3 71.0002 1041 87.4002 1040.8C87.9002 1045.1 88.4002 1049.4 88.9002 1053.7C119.4 1057.1 154.3 1058.3 192.5 1054.8C203 1053.8 213.1 1052.6 222.8 1051.1C222.8 1046.2 222.8 1041.2 222.8 1036.3C219.3 1037.7 215.1 1039 210.2 1040C202 1041.6 194.9 1041.6 189.5 1041.1C190.1 1037.2 190.7 1033.2 191.3 1029.3C192.1 1026.7 192.9 1023.5 193.1 1019.7C193.3 1017.2 193.2 1015 193.1 1013C183.6 1013.1 174.1 1013.2 164.6 1013.4C164.4 1006.9 164.1 1000.3 163.9 993.8C172.7 993.1 181.4 992.3 190.2 991.6C190.4 988.1 190.7 984.7 190.9 981.2C186.5 980.6 182 980 177.6 979.4C177.4 972.7 177.1 966.1 176.9 959.4C140.1 960 103.2 960.6 66.3002 961.2Z" fill="#5222D0"/>
<path d="M868.6 834.9C868.5 839 868.4 843.1 868.3 847.1C877.4 847.7 886.5 848.3 895.6 848.8C895.6 852.6 895.6 856.5 895.6 860.3C892.2 861.1 888.8 861.9 885.5 862.7C885.3 867.1 885 871.6 884.8 876C874.2 876.1 863.6 876.2 853 876.3C852.7 880.7 852.3 885.2 852 889.6C864.5 889.8 877 890.1 889.4 890.3C889.4 895.7 889.4 901 889.4 906.4C876.7 906.7 864 907.1 851.3 907.4C851.1 912.5 850.8 917.7 850.6 922.8C854.7 923.1 858.8 923.5 862.8 923.8C862.9 928.3 863 932.9 863.1 937.4C857.6 937.9 852.1 938.3 846.7 938.8C846.9 944.7 847.2 950.7 847.4 956.6C854 956.5 860.7 956.4 867.3 956.3C867.3 962.6 867.3 968.9 867.3 975.2C882.2 976 897.7 976.5 913.8 976.6C939 976.7 962.9 975.8 985.2 974.2C986.3 969.4 987.3 964.1 988 958.5C988.9 951.4 989.3 944.8 989.4 938.9C992.2 938.4 995 938 997.8 937.5C997.9 933.2 998 928.9 998.1 924.6C991.1 924.5 984.1 924.4 977.1 924.3C977.4 918.6 977.8 912.9 978.1 907.2C988.7 906.9 999.3 906.5 1009.9 906.2C1010 901.2 1010.1 896.2 1010.2 891.2C1001.3 891.2 992.5 891.2 983.6 891.2C983.9 887.1 984.3 883 984.6 879C994.3 878.4 1004 877.8 1013.6 877.3C1013.7 872.3 1013.8 867.3 1013.9 862.3C1018.2 862.3 1022.5 862.3 1026.8 862.3C1026.6 857.8 1026.3 853.2 1026.1 848.7C1015.5 848.9 1004.9 849.2 994.3 849.4C994.6 843.9 995 838.4 995.3 833C982.4 830 967.4 827.6 950.5 826.7C917.5 824.7 889.2 829.5 868.6 834.9Z" fill="#EC615B"/>
<path d="M87.1001 1040.9C87.2001 1045.1 87.4001 1049.4 87.5001 1053.6C87.5001 1054.5 88.2001 1055 89.0001 1055.1C133.1 1058.1 177.3 1057.8 221.3 1054.1C221.9 1054 222.6 1053.7 222.7 1053C224 1047.5 224.3 1042.2 223.7 1036.6C223.5 1034.7 220.5 1034.7 220.7 1036.6C221.3 1041.9 221 1047 219.8 1052.2C220.3 1051.8 220.8 1051.5 221.2 1051.1C177.2 1054.7 132.9 1055.1 88.9001 1052.1C89.4001 1052.6 89.9001 1053.1 90.4001 1053.6C90.3001 1049.4 90.1001 1045.1 90.0001 1040.9C90.0001 1039 87.0001 1039 87.1001 1040.9Z" fill="#161616"/>
<path d="M37.2002 1022.6C37.2002 1028.5 37.2002 1034.4 37.2002 1040.3C37.2002 1042.2 40.2002 1042.2 40.2002 1040.3C40.2002 1034.4 40.2002 1028.5 40.2002 1022.6C40.2002 1020.6 37.2002 1020.6 37.2002 1022.6Z" fill="#161616"/>
<path d="M40.5002 1043C90.0002 1043 139.5 1043 189 1043C190.9 1043 190.9 1040 189 1040C139.5 1040 90.0002 1040 40.5002 1040C38.6002 1040 38.6002 1043 40.5002 1043Z" fill="#161616"/>
<path d="M97.4002 1043.3C97.8002 1046.6 97.9002 1049.8 97.7002 1053.1C97.6002 1055 100.6 1055 100.7 1053.1C100.9 1049.8 100.9 1046.6 100.4 1043.3C100.2 1041.4 97.2002 1041.4 97.4002 1043.3Z" fill="#161616"/>
<path d="M106.9 1043.7C107.5 1046.2 107.6 1048.7 107.5 1051.2C107.4 1053.1 110.4 1053.1 110.5 1051.2C110.7 1048.4 110.5 1045.6 109.8 1042.9C109.4 1041.1 106.5 1041.9 106.9 1043.7Z" fill="#161616"/>
<path d="M191 1041.3C192 1037.4 192.5 1033.4 192.4 1029.3C192.4 1027.4 189.4 1027.4 189.4 1029.3C189.5 1033.1 189.1 1036.8 188.1 1040.5C187.6 1042.3 190.5 1043.1 191 1041.3Z" fill="#161616"/>
<path d="M40.6997 1024.5C90.0997 1031.4 140 1032.7 189.7 1028.4C191.6 1028.2 191.6 1025.2 189.7 1025.4C140.3 1029.7 90.5997 1028.5 41.4997 1021.6C39.5997 1021.3 38.7997 1024.2 40.6997 1024.5Z" fill="#161616"/>
<path d="M192.1 1042C202 1042.9 211.8 1041.7 221.3 1038.7C223.1 1038.1 222.3 1035.2 220.5 1035.8C211.2 1038.8 201.8 1039.9 192.1 1039C190.2 1038.9 190.2 1041.9 192.1 1042Z" fill="#161616"/>
<path d="M173.5 1043.3C173.5 1046.8 173.5 1050.2 173.5 1053.7C173.5 1055.6 176.5 1055.6 176.5 1053.7C176.5 1050.2 176.5 1046.8 176.5 1043.3C176.5 1041.4 173.5 1041.4 173.5 1043.3Z" fill="#161616"/>
<path d="M196.1 1041.3C196.7 1045 197.2 1048.7 197.8 1052.3C198.1 1054.2 201 1053.4 200.7 1051.5C200.1 1047.8 199.6 1044.1 199 1040.5C198.7 1038.6 195.9 1039.4 196.1 1041.3Z" fill="#161616"/>
<path d="M209.9 1040.7C210.2 1042.7 210 1044.7 209.5 1046.6C209 1048.5 211.9 1049.3 212.4 1047.4C213.1 1044.9 213.2 1042.4 212.8 1039.9C212.5 1038 209.6 1038.8 209.9 1040.7Z" fill="#161616"/>
<path d="M51.6997 1025C51.8997 1030.3 52.0997 1035.6 52.2997 1040.9C52.3997 1042.8 55.3997 1042.8 55.2997 1040.9C55.0997 1035.6 54.8997 1030.3 54.6997 1025C54.5997 1023.1 51.5997 1023.1 51.6997 1025Z" fill="#161616"/>
<path d="M71.6004 1026.8C72.0004 1030.9 72.4004 1035 72.8004 1039C73.0004 1040.9 76.0004 1040.9 75.8004 1039C75.4004 1034.9 75.0004 1030.8 74.6004 1026.8C74.4004 1024.9 71.4004 1024.9 71.6004 1026.8Z" fill="#161616"/>
<path d="M83.0998 1029.3C82.7998 1031.7 82.9998 1034.1 83.6998 1036.4C84.1998 1038.3 87.0998 1037.5 86.5998 1035.6C85.9998 1033.5 85.8998 1031.4 86.0998 1029.3C86.2998 1027.4 83.2998 1027.4 83.0998 1029.3Z" fill="#161616"/>
<path d="M67.0996 1011.6C67.1996 1016.3 67.5996 1020.9 68.3996 1025.4C68.6996 1027.3 71.5996 1026.5 71.2996 1024.6C70.4996 1020.3 70.0996 1015.9 70.0996 1011.6C70.0996 1009.6 67.0996 1009.6 67.0996 1011.6Z" fill="#161616"/>
<path d="M70.4997 1011.8C111.3 1012.6 152.1 1013.5 192.9 1014.3C192.4 1013.9 191.9 1013.6 191.5 1013.2C192.2 1017.4 192.2 1021.5 191.7 1025.8C191.5 1027.7 194.5 1027.7 194.7 1025.8C195.2 1021.3 195.1 1016.9 194.4 1012.4C194.3 1011.7 193.6 1011.3 193 1011.3C152.2 1010.5 111.4 1009.6 70.5997 1008.8C68.5997 1008.8 68.5997 1011.8 70.4997 1011.8Z" fill="#161616"/>
<path d="M43.8997 994.2C44.8997 999.5 45.5997 1004.9 46.1997 1010.3C46.3997 1012.2 49.3997 1012.2 49.1997 1010.3C48.5997 1004.6 47.7997 999 46.7997 993.4C46.4997 991.5 43.5997 992.3 43.8997 994.2Z" fill="#161616"/>
<path d="M47.2004 994.2C66.6004 995.4 86.1004 994.6 105.5 994.4C125.1 994.3 144.7 994.1 164.3 994C163.8 993.5 163.3 993 162.8 992.5C163 997.6 163.2 1002.7 163.3 1007.8C163.4 1009.7 166.4 1009.7 166.3 1007.8C166.1 1002.7 165.9 997.6 165.8 992.5C165.8 991.7 165.1 991 164.3 991C144.7 991.1 125.1 991.3 105.5 991.4C86.1004 991.5 66.6004 992.3 47.2004 991.2C45.3004 991.1 45.3004 994.1 47.2004 994.2Z" fill="#161616"/>
<path d="M48.4998 1012.3C55.5998 1012.1 62.7998 1011.9 69.8998 1011.7C71.7998 1011.6 71.7998 1008.6 69.8998 1008.7C62.7998 1008.9 55.5998 1009.1 48.4998 1009.3C46.5998 1009.3 46.4998 1012.3 48.4998 1012.3Z" fill="#161616"/>
<path d="M53.5999 980.8C54.1999 984.9 54.7999 988.9 55.4999 993C55.7999 994.9 58.6999 994.1 58.3999 992.2C57.7999 988.1 57.1999 984.1 56.4999 980C56.1999 978.1 53.2999 978.9 53.5999 980.8Z" fill="#161616"/>
<path d="M56.3005 981.6C101 974.8 146.5 975.1 191.1 982.7C193 983 193.8 980.1 191.9 979.8C146.8 972.2 100.7 971.8 55.5005 978.7C53.6005 979 54.4005 981.9 56.3005 981.6Z" fill="#161616"/>
<path d="M163.5 995.1C169.7 994.8 175.8 994.5 182 994.3C185 994.2 188.6 994.8 190.6 992.2C191.8 990.7 189.2 989.2 188 990.7C186.8 992.3 177.9 991.5 176.2 991.6C172 991.8 167.8 992 163.6 992.2C161.5 992.2 161.5 995.2 163.5 995.1Z" fill="#161616"/>
<path d="M189.2 979.3C188.6 982.3 188.2 985.3 188.1 988.3C188 990.2 191 990.2 191.1 988.3C191.2 985.5 191.5 982.8 192.1 980.1C192.5 978.2 189.6 977.4 189.2 979.3Z" fill="#161616"/>
<path d="M66.9004 977.9C66.9004 972.2 66.9004 966.6 66.9004 960.9C66.9004 959 63.9004 959 63.9004 960.9C63.9004 966.6 63.9004 972.2 63.9004 977.9C63.9004 979.9 66.9004 979.9 66.9004 977.9Z" fill="#161616"/>
<path d="M67.8 962.3C104.3 960.5 140.9 959.8 177.4 960.1C179.3 960.1 179.3 957.1 177.4 957.1C140.9 956.8 104.3 957.5 67.8 959.3C65.9 959.4 65.9 962.4 67.8 962.3Z" fill="#161616"/>
<path d="M175.9 959.8C176.3 965.5 176.7 971.1 177.1 976.8C177.2 978.7 180.2 978.7 180.1 976.8C179.7 971.1 179.3 965.5 178.9 959.8C178.8 957.8 175.8 957.8 175.9 959.8Z" fill="#161616"/>
<path d="M70.3003 980.3C70.7003 984 71.0003 987.7 71.4003 991.5C71.6003 993.4 74.6003 993.4 74.4003 991.5C74.0003 987.8 73.7003 984.1 73.3003 980.3C73.2003 978.4 70.1003 978.4 70.3003 980.3Z" fill="#161616"/>
<path d="M82.6996 978.5C82.5996 981.6 82.8996 984.6 83.4996 987.7C83.7996 989.6 86.6996 988.8 86.3996 986.9C85.8996 984.1 85.6996 981.3 85.6996 978.5C85.6996 976.6 82.6996 976.6 82.6996 978.5Z" fill="#161616"/>
<path d="M103.6 996.1C104 1000.2 104.3 1004.3 104.7 1008.4C104.9 1010.3 107.9 1010.3 107.7 1008.4C107.3 1004.3 107 1000.2 106.6 996.1C106.5 994.2 103.5 994.2 103.6 996.1Z" fill="#161616"/>
<path d="M116.3 994.9C116.7 999 117 1003.1 117.4 1007.2C117.6 1009.1 120.6 1009.1 120.4 1007.2C120 1003.1 119.7 999 119.3 994.9C119.1 993 116.1 993 116.3 994.9Z" fill="#161616"/>
<path d="M137.2 994.4C137.6 999.1 138 1003.8 138.4 1008.5C138.6 1010.4 141.6 1010.4 141.4 1008.5C141 1003.8 140.6 999.1 140.2 994.4C140.1 992.4 137.1 992.4 137.2 994.4Z" fill="#161616"/>
<path d="M143 1013.1C143.5 1017.8 143.9 1022.5 144.4 1027.2C144.6 1029.1 147.6 1029.1 147.4 1027.2C146.9 1022.5 146.5 1017.8 146 1013.1C145.8 1011.2 142.8 1011.2 143 1013.1Z" fill="#161616"/>
<path d="M156 1013.5C156.7 1017.8 156.8 1022.2 156.6 1026.6C156.5 1028.5 159.5 1028.5 159.6 1026.6C159.9 1021.9 159.7 1017.3 158.9 1012.7C158.6 1010.8 155.7 1011.6 156 1013.5Z" fill="#161616"/>
<path d="M171.8 1012.5C172.2 1017 172.2 1021.5 171.6 1026C171.4 1027.9 174.4 1027.9 174.6 1026C175.1 1021.5 175.2 1017 174.8 1012.5C174.7 1010.6 171.7 1010.6 171.8 1012.5Z" fill="#161616"/>
<path d="M125.6 1030.1C125.3 1033 125.1 1036 124.8 1038.9C124.6 1040.8 127.6 1040.8 127.8 1038.9C128.1 1036 128.3 1033 128.6 1030.1C128.8 1028.2 125.8 1028.2 125.6 1030.1Z" fill="#161616"/>
<path d="M133.2 1031.7C134.2 1034.1 134.5 1036.4 134.2 1038.9C134 1040.8 137 1040.8 137.2 1038.9C137.5 1036.1 137.1 1033.4 136.1 1030.9C135.4 1029.1 132.5 1029.9 133.2 1031.7Z" fill="#161616"/>
<path d="M127.1 975.6C127.5 980.3 127.6 985 127.7 989.7C127.7 991.6 130.7 991.6 130.7 989.7C130.7 985 130.5 980.3 130.1 975.6C130 973.7 127 973.7 127.1 975.6Z" fill="#161616"/>
<path d="M139 977.2C139.6 980.4 139.8 983.5 139.6 986.8C139.5 988.7 142.5 988.7 142.6 986.8C142.9 983.3 142.6 979.9 141.9 976.4C141.5 974.5 138.6 975.3 139 977.2Z" fill="#161616"/>
<path d="M94.4005 959.6C95.6005 964.3 95.9005 969 95.6005 973.8C95.4005 975.7 98.4005 975.7 98.6005 973.8C99.0005 968.7 98.6005 963.7 97.3005 958.8C96.8005 956.9 93.9005 957.7 94.4005 959.6Z" fill="#161616"/>
<path d="M106.7 959.6C107.4 963.5 108 967.4 108.7 971.3C109 973.2 111.9 972.4 111.6 970.5C110.9 966.6 110.3 962.7 109.6 958.8C109.3 956.9 106.4 957.7 106.7 959.6Z" fill="#161616"/>
<path d="M150.1 960.2C150.7 964.1 150.9 968.1 150.7 972.1C150.6 974 153.6 974 153.7 972.1C154 967.8 153.7 963.6 153 959.4C152.7 957.5 149.8 958.3 150.1 960.2Z" fill="#161616"/>
<path d="M865.6 959.2C865.7 965 865.8 970.8 865.9 976.5C865.9 977.3 866.6 978 867.4 978C892.4 978.2 917.3 978 942.3 977.3C954.4 977 966.6 976.5 978.7 976C981.6 975.9 986.4 976.6 988.1 973.4C988.8 972.1 988.7 970.1 988.7 968.8C988.9 965.8 989 962.7 989.1 959.6C989.2 957.7 986.2 957.7 986.1 959.6C986 962 985.9 964.5 985.8 966.9C985.6 970.4 985.3 972.1 981.6 972.8C976.3 973.8 970.3 973.3 964.9 973.5C954.1 973.9 943.2 974.2 932.4 974.5C910.7 975 889 975.1 867.4 974.9C867.9 975.4 868.4 975.9 868.9 976.4C868.8 970.6 868.7 964.8 868.6 959.1C868.5 957.3 865.5 957.3 865.6 959.2Z" fill="#161616"/>
<path d="M844.8 940.1C845 945.5 845.2 950.9 845.4 956.4C845.5 958.3 848.5 958.3 848.4 956.4C848.2 951 848 945.6 847.8 940.1C847.8 938.2 844.8 938.2 844.8 940.1Z" fill="#161616"/>
<path d="M847.6 958.5C894.7 958.5 941.8 958.5 988.9 958.5C990.8 958.5 990.8 955.5 988.9 955.5C941.8 955.5 894.7 955.5 847.6 955.5C845.7 955.5 845.7 958.5 847.6 958.5Z" fill="#161616"/>
<path d="M848.7 940C896 940 943.3 940 990.5 940C992.4 940 992.4 937 990.5 937C943.2 937 895.9 937 848.7 937C846.8 937 846.8 940 848.7 940Z" fill="#161616"/>
<path d="M987.9 939C987.9 945 987.9 951 987.9 956.9C987.9 958.8 990.9 958.8 990.9 956.9C990.9 950.9 990.9 944.9 990.9 939C990.9 937.1 987.9 937.1 987.9 939Z" fill="#161616"/>
<path d="M864.2 937.9C864.2 933.4 864.2 928.9 864.2 924.4C864.2 922.5 861.2 922.5 861.2 924.4C861.2 928.9 861.2 933.4 861.2 937.9C861.2 939.8 864.2 939.8 864.2 937.9Z" fill="#161616"/>
<path d="M863.8 925.9C909.2 925.9 954.6 925.9 1000 925.9C1001.9 925.9 1001.9 922.9 1000 922.9C954.6 922.9 909.2 922.9 863.8 922.9C861.9 922.9 861.9 925.9 863.8 925.9Z" fill="#161616"/>
<path d="M996.3 924.4C996.3 928.7 996.3 933 996.3 937.3C996.3 939.2 999.3 939.2 999.3 937.3C999.3 933 999.3 928.7 999.3 924.4C999.3 922.5 996.3 922.5 996.3 924.4Z" fill="#161616"/>
<path d="M988.9 939.4C991.7 939.4 994.5 939.4 997.3 939.4C999.2 939.4 999.2 936.4 997.3 936.4C994.5 936.4 991.7 936.4 988.9 936.4C986.9 936.4 986.9 939.4 988.9 939.4Z" fill="#161616"/>
<path d="M848.9 908.7C848.9 912.8 848.9 916.9 848.9 921C848.9 922.9 851.9 922.9 851.9 921C851.9 916.9 851.9 912.8 851.9 908.7C851.9 906.8 848.9 906.8 848.9 908.7Z" fill="#161616"/>
<path d="M851 909.1C893.4 909.1 935.8 909.1 978.3 909.1C980.2 909.1 980.2 906.1 978.3 906.1C935.9 906.1 893.5 906.1 851 906.1C849 906.1 849 909.1 851 909.1Z" fill="#161616"/>
<path d="M976.1 908.2C976.1 912.7 976.1 917.2 976.1 921.7C976.1 923.6 979.1 923.6 979.1 921.7C979.1 917.2 979.1 912.7 979.1 908.2C979.1 906.3 976.1 906.2 976.1 908.2Z" fill="#161616"/>
<path d="M851 924.3C892.7 924.3 934.3 924.3 976 924.3C977.9 924.3 977.9 921.3 976 921.3C934.3 921.3 892.7 921.3 851 921.3C849 921.3 849 924.3 851 924.3Z" fill="#161616"/>
<path d="M890.6 905.9C890.6 901.6 890.6 897.3 890.6 893C890.6 891.1 887.6 891.1 887.6 893C887.6 897.3 887.6 901.6 887.6 905.9C887.6 907.9 890.6 907.9 890.6 905.9Z" fill="#161616"/>
<path d="M889.6 893.4C929.8 893.4 970 893.4 1010.1 893.4C1012 893.4 1012 890.4 1010.1 890.4C969.9 890.4 929.7 890.4 889.6 890.4C887.7 890.4 887.7 893.4 889.6 893.4Z" fill="#161616"/>
<path d="M977.1 908C987 908 996.9 908 1006.8 908C1008.7 908 1008.7 905 1006.8 905C996.9 905 987 905 977.1 905C975.2 905 975.2 908 977.1 908Z" fill="#161616"/>
<path d="M1008.7 892.5C1008.7 896.8 1008.7 901.1 1008.7 905.4C1008.7 907.3 1011.7 907.3 1011.7 905.4C1011.7 901.1 1011.7 896.8 1011.7 892.5C1011.7 890.6 1008.7 890.6 1008.7 892.5Z" fill="#161616"/>
<path d="M853.8 891.7C897.2 891.7 940.5 891.7 983.9 891.7C985.8 891.7 985.8 888.7 983.9 888.7C940.5 888.7 897.2 888.7 853.8 888.7C851.8 888.7 851.8 891.7 853.8 891.7Z" fill="#161616"/>
<path d="M854.1 889.7C854.1 885.8 854.1 881.9 854.1 877.9C854.1 876 851.1 876 851.1 877.9C851.1 881.8 851.1 885.7 851.1 889.7C851.1 891.6 854.1 891.6 854.1 889.7Z" fill="#161616"/>
<path d="M853.2 878.9C896.9 878.9 940.7 878.9 984.4 878.9C986.3 878.9 986.3 875.9 984.4 875.9C940.7 875.9 896.9 875.9 853.2 875.9C851.3 875.9 851.3 878.9 853.2 878.9Z" fill="#161616"/>
<path d="M983.4 877.4C983.4 881 983.4 884.5 983.4 888.1C983.4 890 986.4 890 986.4 888.1C986.4 884.5 986.4 881 986.4 877.4C986.4 875.4 983.4 875.4 983.4 877.4Z" fill="#161616"/>
<path d="M886.7 876.2C886.7 871.9 886.7 867.6 886.7 863.3C886.7 861.4 883.7 861.4 883.7 863.3C883.7 867.6 883.7 871.9 883.7 876.2C883.7 878.2 886.7 878.2 886.7 876.2Z" fill="#161616"/>
<path d="M886.3 863.7C928.7 863.7 971.1 863.7 1013.6 863.7C1015.5 863.7 1015.5 860.7 1013.6 860.7C971.2 860.7 928.8 860.7 886.3 860.7C884.3 860.7 884.3 863.7 886.3 863.7Z" fill="#161616"/>
<path d="M1012 862.8C1012 864.9 1012 866.9 1012 869C1012 870.9 1015 870.9 1015 869C1015 866.9 1015 864.9 1015 862.8C1015 860.8 1012 860.8 1012 862.8Z" fill="#161616"/>
<path d="M983.8 878.9C993.7 878.9 1003.6 878.9 1013.5 878.9C1015.4 878.9 1015.4 875.9 1013.5 875.9C1003.6 875.9 993.7 875.9 983.8 875.9C981.9 875.9 981.9 878.9 983.8 878.9Z" fill="#161616"/>
<path d="M1012 864.5C1012 868.2 1012 872 1012 875.7C1012 877.6 1015 877.6 1015 875.7C1015 872 1015 868.2 1015 864.5C1015 862.5 1012 862.5 1012 864.5Z" fill="#161616"/>
<path d="M896.7 860C896.7 856.4 896.7 852.9 896.7 849.3C896.7 847.4 893.7 847.4 893.7 849.3C893.7 852.9 893.7 856.4 893.7 860C893.7 861.9 896.7 861.9 896.7 860Z" fill="#161616"/>
<path d="M894.7 850.3C938.2 850.3 981.8 850.3 1025.3 850.3C1027.2 850.3 1027.2 847.3 1025.3 847.3C981.8 847.3 938.2 847.3 894.7 847.3C892.8 847.3 892.7 850.3 894.7 850.3Z" fill="#161616"/>
<path d="M1025.3 850.3C1027.2 850.3 1027.2 847.3 1025.3 847.3C1023.4 847.3 1023.4 850.3 1025.3 850.3Z" fill="#161616"/>
<path d="M1024.9 848.8C1024.9 852.4 1024.9 855.9 1024.9 859.5C1024.9 861.4 1027.9 861.4 1027.9 859.5C1027.9 855.9 1027.9 852.4 1027.9 848.8C1027.9 846.8 1024.9 846.8 1024.9 848.8Z" fill="#161616"/>
<path d="M1013 863.2C1017.5 863.2 1022 863.2 1026.5 863.2C1028.4 863.2 1028.4 860.2 1026.5 860.2C1022 860.2 1017.5 860.2 1013 860.2C1011 860.2 1011 863.2 1013 863.2Z" fill="#161616"/>
<path d="M866.8 835.9C866.8 839.8 866.8 843.7 866.8 847.7C866.8 849.6 869.8 849.6 869.8 847.7C869.8 843.8 869.8 839.9 869.8 835.9C869.8 833.9 866.8 833.9 866.8 835.9Z" fill="#161616"/>
<path d="M868.3 849.1C879 849.1 889.6 849.1 900.3 849.1C902.2 849.1 902.2 846.1 900.3 846.1C889.6 846.1 879 846.1 868.3 846.1C866.4 846.1 866.4 849.1 868.3 849.1Z" fill="#161616"/>
<path d="M868.6 835.6C910.1 826.8 953 826.1 994.8 833.6C996.7 833.9 997.5 831 995.6 830.7C953.3 823.1 909.9 823.8 867.8 832.7C865.9 833.1 866.7 836 868.6 835.6Z" fill="#161616"/>
<path d="M994.1 833.1C994.1 837 994.1 840.9 994.1 844.9C994.1 846.8 997.1 846.8 997.1 844.9C997.1 841 997.1 837.1 997.1 833.1C997.1 831.1 994.1 831.1 994.1 833.1Z" fill="#161616"/>
<path d="M876.8 836.4C883.9 838.6 891.7 837.7 899 837.6C907.2 837.5 915.4 837.3 923.6 837.2C940.3 836.9 957 836.6 973.7 836.4C975.6 836.4 975.6 833.4 973.7 833.4C957.6 833.7 941.6 833.9 925.5 834.2C917.6 834.3 909.8 834.5 901.9 834.6C894 834.7 885.2 836 877.5 833.6C875.7 833 874.9 835.9 876.8 836.4Z" fill="#161616"/>
<path d="M890.9 837.5C890.9 840.9 890.9 844.2 890.9 847.6C890.9 849.5 893.9 849.5 893.9 847.6C893.9 844.2 893.9 840.9 893.9 837.5C893.9 835.6 890.9 835.6 890.9 837.5Z" fill="#161616"/>
<path d="M901.1 838.1C901.4 840.5 901.7 843 902 845.4C902.2 847.3 905.2 847.3 905 845.4C904.7 843 904.4 840.5 904.1 838.1C903.9 836.2 900.9 836.2 901.1 838.1Z" fill="#161616"/>
<path d="M939.6 837.6C939.9 840.6 940.2 843.6 940.6 846.6C940.8 848.5 943.8 848.5 943.6 846.6C943.3 843.6 943 840.6 942.6 837.6C942.4 835.7 939.4 835.6 939.6 837.6Z" fill="#161616"/>
<path d="M951.5 838.7C951.5 840.9 951.5 843.2 951.5 845.4C951.5 847.3 954.5 847.3 954.5 845.4C954.5 843.2 954.5 840.9 954.5 838.7C954.5 836.7 951.5 836.7 951.5 838.7Z" fill="#161616"/>
<path d="M943.7 850.4C943.4 853.7 943.6 857 944.1 860.4C944.4 862.3 947.3 861.5 947 859.6C946.5 856.6 946.5 853.5 946.7 850.4C946.8 848.5 943.8 848.5 943.7 850.4Z" fill="#161616"/>
<path d="M954.8 850.4C955.1 853.1 955 855.8 954.5 858.4C954.2 860.3 957 861.1 957.4 859.2C957.9 856.3 958.1 853.3 957.8 850.4C957.6 848.5 954.6 848.5 954.8 850.4Z" fill="#161616"/>
<path d="M893.2 863.9C893.2 868 893.2 872.1 893.2 876.2C893.2 878.1 896.2 878.1 896.2 876.2C896.2 872.1 896.2 868 896.2 863.9C896.2 862 893.2 862 893.2 863.9Z" fill="#161616"/>
<path d="M903.8 864.5C903.8 867.6 904.1 870.7 904.6 873.9C904.9 875.8 907.8 875 907.5 873.1C907.1 870.3 906.9 867.4 906.9 864.5C906.8 862.5 903.8 862.5 903.8 864.5Z" fill="#161616"/>
<path d="M917.7 850.5C917.9 854 918.2 857.6 918.4 861.1C918.5 863 921.5 863 921.4 861.1C921.2 857.6 920.9 854 920.7 850.5C920.6 848.5 917.6 848.5 917.7 850.5Z" fill="#161616"/>
<path d="M974.7 849.3C975.1 852.7 975.4 856 975.8 859.4C976 861.3 979 861.3 978.8 859.4C978.4 856 978.1 852.7 977.7 849.3C977.5 847.4 974.5 847.4 974.7 849.3Z" fill="#161616"/>
<path d="M1000.6 849.9C1000.7 852.5 1000.8 855.1 1000.9 857.8C1001 859.7 1004 859.7 1003.9 857.8C1003.8 855.2 1003.7 852.6 1003.6 849.9C1003.5 847.9 1000.5 847.9 1000.6 849.9Z" fill="#161616"/>
<path d="M954.8 863.3C954.8 867.2 954.8 871.1 954.8 875.1C954.8 877 957.8 877 957.8 875.1C957.8 871.2 957.8 867.3 957.8 863.3C957.8 861.4 954.8 861.4 954.8 863.3Z" fill="#161616"/>
<path d="M926.3 861.7C926.3 864.9 926.3 868.1 926.3 871.2C926.3 873.1 929.3 873.1 929.3 871.2C929.3 868 929.3 864.8 929.3 861.7C929.3 859.7 926.3 859.7 926.3 861.7Z" fill="#161616"/>
<path d="M868 878.5C867.8 882.4 868 886.2 868.7 890.1C869 892 871.9 891.2 871.6 889.3C871 885.7 870.8 882.1 871 878.5C871.1 876.5 868.1 876.5 868 878.5Z" fill="#161616"/>
<path d="M888.7 879C888.7 882.4 888.7 885.7 888.7 889.1C888.7 891 891.7 891 891.7 889.1C891.7 885.7 891.7 882.4 891.7 879C891.7 877.1 888.7 877.1 888.7 879Z" fill="#161616"/>
<path d="M913.5 880.5C914 883.2 914.1 885.8 913.9 888.5C913.7 890.4 916.7 890.4 916.9 888.5C917.2 885.5 917 882.6 916.4 879.7C916 877.8 913.1 878.6 913.5 880.5Z" fill="#161616"/>
<path d="M940.3 879C940 881.8 940.2 884.5 940.7 887.3C941.1 889.2 944 888.4 943.6 886.5C943.1 884 943 881.5 943.3 879C943.5 877.1 940.5 877.1 940.3 879Z" fill="#161616"/>
<path d="M966.1 878.5C966.1 880.9 966.1 883.4 966.1 885.8C966.1 887.7 969.1 887.7 969.1 885.8C969.1 883.4 969.1 880.9 969.1 878.5C969.1 876.5 966.1 876.5 966.1 878.5Z" fill="#161616"/>
<path d="M900.4 893.6C900.6 897.7 900.6 901.8 900.2 906C900 907.9 903 907.9 903.2 906C903.6 901.9 903.7 897.8 903.4 893.6C903.3 891.7 900.3 891.7 900.4 893.6Z" fill="#161616"/>
<path d="M907 893.6C907.3 897.9 907.4 902.2 907.2 906.5C907.1 908.4 910.1 908.4 910.2 906.5C910.4 902.2 910.3 897.9 910 893.6C909.8 891.7 906.8 891.7 907 893.6Z" fill="#161616"/>
<path d="M926.9 891.9C926.7 896.9 926.4 902 926.2 907C926.1 908.9 929.1 908.9 929.2 907C929.4 902 929.7 896.9 929.9 891.9C930 890 927 890 926.9 891.9Z" fill="#161616"/>
<path d="M932 893C932.5 897.3 932.7 901.6 932.4 905.9C932.3 907.8 935.3 907.8 935.4 905.9C935.7 901.6 935.5 897.3 935 893C934.8 891.1 931.8 891.1 932 893Z" fill="#161616"/>
<path d="M954.9 892.5C954.6 897.2 954.8 901.7 955.5 906.3C955.8 908.2 958.7 907.4 958.4 905.5C957.8 901.2 957.7 896.8 957.9 892.4C958 890.6 955 890.6 954.9 892.5Z" fill="#161616"/>
<path d="M980.5 892.5C980.9 896.4 981.3 900.3 981.7 904.3C981.9 906.2 984.9 906.2 984.7 904.3C984.3 900.4 983.9 896.5 983.5 892.5C983.3 890.6 980.3 890.6 980.5 892.5Z" fill="#161616"/>
<path d="M990.1 894.2C990.3 896.9 990.3 899.6 989.9 902.2C989.6 904.1 992.5 904.9 992.8 903C993.3 900.1 993.4 897.1 993.1 894.2C992.9 892.3 989.9 892.2 990.1 894.2Z" fill="#161616"/>
<path d="M855.6 909.9C855.6 913.8 855.6 917.7 855.6 921.7C855.6 923.6 858.6 923.6 858.6 921.7C858.6 917.8 858.6 913.9 858.6 909.9C858.6 907.9 855.6 907.9 855.6 909.9Z" fill="#161616"/>
<path d="M862.3 909.3C862.7 913.4 863 917.5 863.4 921.6C863.6 923.5 866.6 923.5 866.4 921.6C866 917.5 865.7 913.4 865.3 909.3C865.2 907.4 862.2 907.4 862.3 909.3Z" fill="#161616"/>
<path d="M877.7 908.2C878 911.8 878.3 915.3 878.6 918.9C878.8 920.8 881.8 920.8 881.6 918.9C881.3 915.3 881 911.8 880.7 908.2C880.5 906.3 877.5 906.2 877.7 908.2Z" fill="#161616"/>
<path d="M892.2 908.8C892.7 912.9 893.3 917 893.8 921.1C894.1 923 897.1 923 896.8 921.1C896.3 917 895.7 912.9 895.2 908.8C895 906.9 892 906.9 892.2 908.8Z" fill="#161616"/>
<path d="M940.3 909.3C940.3 914.2 940.3 919 940.3 923.9C940.3 925.8 943.3 925.8 943.3 923.9C943.3 919 943.3 914.2 943.3 909.3C943.3 907.4 940.3 907.4 940.3 909.3Z" fill="#161616"/>
<path d="M963.8 908.2C963.8 912.3 963.8 916.4 963.8 920.5C963.8 922.4 966.8 922.4 966.8 920.5C966.8 916.4 966.8 912.3 966.8 908.2C966.8 906.3 963.8 906.2 963.8 908.2Z" fill="#161616"/>
<path d="M873.6 926C874.2 929.6 874.2 933.3 873.5 936.9C873.2 938.8 876 939.6 876.4 937.7C877.2 933.5 877.2 929.4 876.5 925.2C876.1 923.3 873.3 924.1 873.6 926Z" fill="#161616"/>
<path d="M880.9 927.2C881.1 930.6 881.4 933.9 881.6 937.3C881.7 939.2 884.7 939.2 884.6 937.3C884.4 933.9 884.1 930.6 883.9 927.2C883.7 925.3 880.7 925.3 880.9 927.2Z" fill="#161616"/>
<path d="M909.5 926.1C909.3 930.2 909.5 934.2 910.2 938.3C910.5 940.2 913.4 939.4 913.1 937.5C912.5 933.7 912.3 930 912.5 926.1C912.6 924.2 909.6 924.2 909.5 926.1Z" fill="#161616"/>
<path d="M917.7 926.7C917.9 930.1 918.1 933.4 918.4 936.8C918.5 938.7 921.5 938.7 921.4 936.8C921.2 933.4 921 930.1 920.7 926.7C920.6 924.8 917.6 924.8 917.7 926.7Z" fill="#161616"/>
<path d="M924.2 927.2C924.4 929.6 924.6 932.1 924.9 934.5C925.1 936.4 928.1 936.4 927.9 934.5C927.7 932.1 927.5 929.6 927.2 927.2C927.1 925.3 924.1 925.3 924.2 927.2Z" fill="#161616"/>
<path d="M951 925C951.3 929.1 951.6 933.2 951.9 937.4C952 939.3 955 939.3 954.9 937.4C954.6 933.3 954.3 929.2 954 925C953.8 923.1 950.8 923.1 951 925Z" fill="#161616"/>
<path d="M969.8 925.6C970 929 970.2 932.3 970.5 935.7C970.6 937.6 973.6 937.6 973.5 935.7C973.3 932.3 973.1 929 972.8 925.6C972.7 923.7 969.7 923.6 969.8 925.6Z" fill="#161616"/>
<path d="M985 925.7C984.5 929.2 984.3 932.7 984.6 936.2C984.8 938.1 987.8 938.1 987.6 936.2C987.3 932.9 987.4 929.7 987.9 926.5C988.2 924.6 985.3 923.8 985 925.7Z" fill="#161616"/>
<path d="M854.5 940C855.3 945.6 855.8 951.3 856 957C856.1 958.9 859.1 958.9 859 957C858.8 951 858.3 945.1 857.4 939.2C857.2 937.3 854.3 938.1 854.5 940Z" fill="#161616"/>
<path d="M863.6 940.1C863.1 945.2 863.4 950.1 864.5 955.1C864.9 957 867.8 956.2 867.4 954.3C866.4 949.6 866.1 944.9 866.6 940.1C866.8 938.2 863.8 938.2 863.6 940.1Z" fill="#161616"/>
<path d="M886.9 939.6C887.4 944.4 887.6 949.3 887.6 954.2C887.6 956.1 890.6 956.1 890.6 954.2C890.6 949.3 890.4 944.5 889.9 939.6C889.7 937.7 886.7 937.7 886.9 939.6Z" fill="#161616"/>
<path d="M928.4 938.5C929 944.1 929.2 949.7 929.1 955.3C929.1 957.2 932.1 957.2 932.1 955.3C932.2 949.7 932 944.1 931.4 938.5C931.2 936.6 928.2 936.5 928.4 938.5Z" fill="#161616"/>
<path d="M936.4 941.3C936.1 945.8 936.5 950.2 937.5 954.6C937.9 956.5 940.8 955.7 940.4 953.8C939.5 949.7 939.1 945.5 939.4 941.3C939.5 939.3 936.5 939.3 936.4 941.3Z" fill="#161616"/>
<path d="M945.4 940.1C945.1 945.2 945.3 950.2 945.9 955.2C946.1 957.1 949.1 957.1 948.9 955.2C948.2 950.2 948.1 945.1 948.4 940.1C948.5 938.2 945.5 938.2 945.4 940.1Z" fill="#161616"/>
<path d="M973.2 940.7C973.4 945 973.7 949.3 973.9 953.6C974 955.5 977 955.5 976.9 953.6C976.7 949.3 976.4 945 976.2 940.7C976.1 938.8 973.1 938.8 973.2 940.7Z" fill="#161616"/>
<path d="M876.9 959.2C876.9 964.2 876.9 969.3 876.9 974.3C876.9 976.2 879.9 976.2 879.9 974.3C879.9 969.3 879.9 964.2 879.9 959.2C879.9 957.3 876.9 957.3 876.9 959.2Z" fill="#161616"/>
<path d="M899.5 958.6C900 963.8 900.1 969.1 899.8 974.3C899.7 976.2 902.7 976.2 902.8 974.3C903.1 969.1 903 963.8 902.5 958.6C902.3 956.7 899.3 956.7 899.5 958.6Z" fill="#161616"/>
<path d="M913.4 959.2C913.1 963.9 913.3 968.6 913.8 973.2C914 975.1 917 975.1 916.8 973.2C916.3 968.5 916.1 963.9 916.4 959.2C916.5 957.3 913.5 957.3 913.4 959.2Z" fill="#161616"/>
<path d="M954.7 959.2C954.9 964.1 955.2 968.9 955.4 973.8C955.5 975.7 958.5 975.7 958.4 973.8C958.2 968.9 957.9 964.1 957.7 959.2C957.6 957.3 954.6 957.3 954.7 959.2Z" fill="#161616"/>
<path d="M964.6 961.3C965.3 965.3 965.2 969.4 964.5 973.4C964.1 975.3 967 976.1 967.4 974.2C968.3 969.6 968.3 965.1 967.5 960.5C967.1 958.6 964.2 959.4 964.6 961.3Z" fill="#161616"/>
<path d="M167.8 70.6C165.9 82.3 171.1 93.3 178 102.4C185 111.6 194.5 119.1 206.2 120.8C208.1 121.1 208.9 118.2 207 117.9C196.9 116.5 188.5 110.5 182.1 102.8C175 94.2 168.8 83 170.7 71.5C171 69.5 168.1 68.7 167.8 70.6Z" fill="#161616"/>
<path d="M170.4 70.6C173.3 68.4 176.6 66.9 180.2 66.2C182.1 65.8 181.3 62.9 179.4 63.3C175.3 64.1 171.6 65.9 168.3 68.4C166.8 69.7 168.9 71.8 170.4 70.6Z" fill="#161616"/>
<path d="M180.7 66.4C189.6 68.8 197.7 79.2 202.8 86.4C208.1 93.9 212.1 102.2 214.8 110.9C215.4 112.7 218.3 112 217.7 110.1C214.6 100.1 209.9 90.6 203.5 82.3C198.1 75.2 190.4 65.9 181.5 63.5C179.6 63 178.8 65.9 180.7 66.4Z" fill="#161616"/>
<path d="M206.8 121C210.6 119.1 214 116.4 216.7 113C217.9 111.5 215.8 109.4 214.6 110.9C212.1 114.1 209 116.6 205.4 118.4C203.5 119.3 205.1 121.8 206.8 121Z" fill="#161616"/>
<path d="M175.1 66.6C174.8 78.1 181.2 89.6 188 98.5C194.4 106.9 203.4 113.3 214.4 113.1C216.3 113.1 216.3 110.1 214.4 110.1C203.3 110.3 194.7 103.1 188.7 94.4C183.2 86.3 177.9 76.7 178.1 66.6C178.1 64.7 175.1 64.7 175.1 66.6Z" fill="#161616"/>
<path d="M171.9 84.3C173.4 82.5 175.2 81.1 177.3 80C179 79.2 177.5 76.6 175.8 77.4C173.5 78.5 171.4 80.1 169.8 82.1C168.6 83.6 170.7 85.8 171.9 84.3Z" fill="#161616"/>
<path d="M170.3 77.5C172.2 76.1 174.1 75.1 176.4 74.5C178.3 74 177.5 71.1 175.6 71.6C173.2 72.3 170.9 73.4 168.8 74.9C167.3 76 168.7 78.6 170.3 77.5Z" fill="#161616"/>
<path d="M180.9 102.8C183 101.1 185.2 99.4 187.3 97.7C188.8 96.5 186.7 94.4 185.2 95.6C183.1 97.3 180.9 99 178.8 100.7C177.2 101.9 179.4 104 180.9 102.8Z" fill="#161616"/>
<path d="M186.9 109.4C188.6 108.1 190.3 106.8 192 105.5C192.6 105 193 104.2 192.5 103.4C192.1 102.8 191.1 102.4 190.4 102.9C188.7 104.2 187 105.5 185.3 106.8C184.7 107.3 184.3 108.1 184.8 108.9C185.2 109.5 186.2 109.9 186.9 109.4Z" fill="#161616"/>
<path d="M197.5 116.9C199.2 115.2 201 113.6 202.7 111.9C204.1 110.6 202 108.4 200.6 109.8C198.9 111.5 197.1 113.1 195.4 114.8C194 116.1 196.1 118.3 197.5 116.9Z" fill="#161616"/>
<path d="M181.2 72.8C183.1 74.5 184.9 76.3 186.8 78C186.7 77.4 186.6 76.8 186.6 76.2C184.6 79.4 183.5 83.5 186.2 86.7C187.1 87.8 188.5 88.7 190 89C190.7 89.1 191.3 89 192 89C192.5 88.9 192.9 88.7 193.4 88.6C198.9 87.7 199.9 89.8 196.3 94.8C194.5 95.5 195.3 98.4 197.1 97.7C200.8 96.3 203.4 92.2 201.2 88.4C200.2 86.6 198.1 85.3 196.1 85.2C195.4 85.1 194.7 85.3 194 85.3C191.6 86.6 189.5 85.6 187.7 82.5C187.8 80.8 188.3 79.3 189.3 78C189.6 77.5 189.5 76.6 189.1 76.2C187.2 74.5 185.4 72.7 183.5 71C181.9 69.4 179.8 71.5 181.2 72.8Z" fill="#161616"/>
<path d="M198.7 96.9C200.4 98.9 202 100.8 203.7 102.8C204.9 104.3 207.1 102.1 205.8 100.7C204.1 98.7 202.5 96.8 200.8 94.8C199.6 93.3 197.5 95.5 198.7 96.9Z" fill="#161616"/>
<path d="M265.5 50.3C256.7 43.4 251.3 23.8 258.7 14.5C267.4 3.8 284.7 -0.799996 294.4 10.6C302.5 20.1 303 35 296.9 45.7C293.2 52.2 287.8 55.3 280.3 55.4C273.8 55.5 267.6 53 263.1 48.2C261.8 46.8 259.7 48.9 261 50.3C268.3 58.1 281.4 61 291.1 56C301.2 50.7 305 36.3 303.8 25.8C302.6 15.2 296.1 3.8 285.1 1C274.5 -1.7 258.8 5.9 254.1 15.8C251.2 21.9 252.3 29.2 253.8 35.6C255.3 42 257.9 48.1 263.2 52.2C264.8 53.6 267 51.5 265.5 50.3Z" fill="#161616"/>
<path d="M273.9 12.7C273.9 12.6 273.8 12.4 273.8 12.3C273.6 12.9 273.3 13.4 273.1 14C272.2 13.7 272.1 13.8 272.7 14.6C273.3 15.6 273.7 16.6 274.1 17.7C274.4 17.1 274.8 16.5 275.1 15.9C271.2 17.1 266.3 19.8 267.7 24.7C268.1 26.2 269.1 27.5 270.6 28C271.8 28.5 272.5 28 273.7 27.9C275.5 27 277.4 27.3 279.2 28.9C280.7 33.3 279.5 35.5 275.5 35.8C274.3 35.8 273.7 37.1 274.2 38.1C275.1 39.8 275.8 41.5 276.4 43.3C277 45.1 279.9 44.4 279.3 42.5C278.7 40.4 277.9 38.5 276.8 36.6C276.4 37.4 275.9 38.1 275.5 38.9C280.3 38.8 284.9 34.3 282.9 29.3C282 27 279.9 25.2 277.5 24.7C276.1 24.4 274.9 25 273.6 25C271.1 25 270.4 24.5 271.7 22.1C272.9 19.9 273.6 19.6 275.9 18.9C276.6 18.7 277.2 17.8 276.9 17.1C276.2 15.1 275.5 12.3 273.5 11.3C273 11.1 272.4 11 272 11.3C271.9 11.4 271.7 11.5 271.6 11.6C271 12 270.8 12.6 270.9 13.3C270.9 13.4 271 13.6 271 13.7C271.4 15.3 274.3 14.5 273.9 12.7Z" fill="#161616"/>
<path d="M283.3 4.2C298.5 0.300003 306.4 16.7 306.7 29.2C306.8 34.9 306.3 41.3 302.9 46.1C299.2 51.3 292.6 52.9 287.1 55.3C285.3 56.1 286.9 58.7 288.6 57.9C295.2 55 302.4 53.1 306.3 46.4C310 40 310.3 31.5 309.4 24.3C307.8 11.1 297.3 -2.5 282.6 1.3C280.7 1.8 281.5 4.7 283.3 4.2Z" fill="#161616"/>
<path d="M300 44.7C301.4 44.4 302.8 44.1 304.2 43.8C306.1 43.4 305.3 40.5 303.4 40.9C302 41.2 300.6 41.5 299.2 41.8C297.3 42.2 298.1 45.1 300 44.7Z" fill="#161616"/>
<path d="M303.6 33.2C305.2 32.7 306.8 32.2 308.3 31.6C310.1 31 309.3 28.1 307.5 28.7C305.9 29.2 304.3 29.7 302.8 30.3C301 30.9 301.8 33.8 303.6 33.2Z" fill="#161616"/>
<path d="M302.6 24.3C303.6 24.1 304.7 23.9 305.7 23.7C306.5 23.6 306.9 22.6 306.7 21.9C306.5 21.1 305.7 20.7 304.9 20.9C303.9 21.1 302.8 21.3 301.8 21.5C301 21.6 300.6 22.6 300.8 23.3C301 24.1 301.8 24.4 302.6 24.3Z" fill="#161616"/>
<path d="M296.6 11.7C298.5 12 300.3 11.9 302.1 11.3C303.9 10.7 303.1 7.8 301.3 8.4C300 8.8 298.7 9 297.4 8.8C296.6 8.7 295.8 9 295.6 9.8C295.3 10.5 295.8 11.6 296.6 11.7Z" fill="#161616"/>
<path d="M280 200.9C266.9 197.1 258.4 184.3 258.2 170.9C257.9 155.6 271.2 142.5 286.4 149.3C299.2 155 304.1 170 304.5 183.1C304.7 189.4 303.6 197 297.9 200.7C292 204.6 284.3 203.1 278 201.1C276.2 200.5 275.4 203.4 277.2 204C287.4 207.3 300.3 207.5 305.4 196.1C310.3 185.2 307.2 169.6 301.6 159.6C296 149.5 284 141.7 272.1 145.2C259.7 148.9 254.1 162.4 255.5 174.4C257 187.9 266.1 200.1 279.3 203.9C281.1 204.4 281.9 201.5 280 200.9Z" fill="#161616"/>
<path d="M273.4 156.6C275.9 159.3 277.7 162.1 279 165.5C279.6 164.9 280.2 164.3 280.8 163.7C276 162.7 273.5 166.8 273.8 171.2C273.9 172.7 274.2 174.5 275.7 175.3C276.8 175.9 278.4 175.5 279.5 175.5C280.7 175.4 281.8 175.3 283 175.4C288.3 175.8 289 178.1 285.2 182.3C284.2 182.4 283.2 183.5 283.9 184.6C285.7 187.4 287.4 190.3 288.8 193.3C289.6 195 292.2 193.5 291.4 191.8C289.9 188.8 288.3 185.9 286.5 183.1C286.1 183.9 285.6 184.6 285.2 185.4C289.4 184.9 292.9 181 290.7 176.7C289.7 174.8 287.8 173.6 285.9 173C284.4 172.5 282.9 172.5 281.4 172.5C280.2 172.6 279.1 172.7 277.9 172.8C276 170.5 276.7 168.5 280.1 166.8C281.1 167 282.4 166.1 281.9 165C280.4 161.1 278.4 157.8 275.5 154.8C274.2 153.1 272.1 155.2 273.4 156.6Z" fill="#161616"/>
<path d="M263 149.9C250.1 161 246.1 180.1 255.8 194.6C265.2 208.7 284.1 212.8 298.4 203.6C300 202.6 298.5 200 296.9 201C283.5 209.6 265.8 205.5 257.6 191.8C249.6 178.4 253.7 161.9 265.2 152C266.6 150.8 264.5 148.7 263 149.9Z" fill="#161616"/>
<path opacity="0.14" d="M271 148.6C269.2 152.6 266.9 159.4 267.2 168C267.3 170.6 268 185.1 278.5 194.9C285.7 201.6 293.3 202 293 204.3C292.6 206.8 283.2 208.8 274.7 206.7C265.4 204.4 257.1 197 253.5 187.3C252.6 184.8 249 174.8 254 163.9C259.1 153 269.1 149.2 271 148.6Z" fill="#3F3F3F"/>
<path opacity="0.15" d="M176.7 66.3C177.1 70.1 178.1 76 180.7 82.7C183.3 89.1 187.8 100.6 199.5 107.2C202.4 108.8 207.9 111.4 215.9 111.8C215.2 113.2 213.5 115.9 210.3 118C208.2 119.3 206.3 119.9 204.9 120.2C200.8 119 194.6 116.6 188.2 111.9C184.1 108.8 174.6 101.5 170.5 88.2C168.2 80.7 168.4 73.9 169.2 68.8C171.6 67.9 174.1 67.1 176.7 66.3Z" fill="#3F3F3F"/>
<path opacity="0.14" d="M285 2C288 3.6 293.2 7 296.8 13.3C301.9 22 300.8 30.6 300.3 34.8C299.8 38.6 299.1 44.2 294.9 49.6C292.7 52.5 290.2 54.4 288.4 55.5C290.6 55.4 296.2 54.7 300.8 50.4C304.4 47 305.5 43.1 306.7 38.8C308.6 32 308 26.5 307.8 24.6C307 18.8 304.9 14.7 304.3 13.6C302.4 10 299.9 5.4 294.6 3.1C290.7 1.4 287 1.7 285 2Z" fill="#3F3F3F"/>
<path d="M369.7 818.9C366.8 841.1 363.9 863.3 361 885.6C305.3 897.8 277.7 906.2 278.3 910.9C279.1 916.6 320.8 916.8 403.6 911.6C407.2 881.8 410.7 852 414.3 822.3C399.4 821.2 384.6 820 369.7 818.9Z" fill="#161616"/>
<path d="M490.7 433.6C491.7 443.3 492.7 459.4 490.9 479.2C488.2 508.8 480.6 530.3 478 538C456.7 600.4 446.4 682.3 441.6 721.1C438.2 748.6 434.4 789.7 435.3 840.9C429.7 844 411.1 853.5 386.7 849.6C364.1 846 350 833.3 345.2 828.6C342.7 751.7 349.2 690.1 356 647C363.2 600.8 373.5 554 385.3 506.8C392.3 478.6 399.3 450.5 406.4 422.3C434.4 426 462.6 429.8 490.7 433.6Z" fill="#EC615B"/>
<path opacity="0.13" d="M489.7 463.7C486.4 476.8 481.1 496.4 473.9 519.8C450.1 596.4 428.7 636.2 412.6 678.8C398.2 716.8 382.2 772.6 377.6 847C382.9 848.7 390.4 850.4 399.4 850.3C415.9 850.1 428.3 844 434.4 840.4C435.1 791.2 438.3 749.9 441.7 718.4C444.4 693 447.1 668.2 453.6 635.3C461.4 595.7 465.3 575.9 473.4 552.8C478.9 537.4 485.5 521.7 488.6 497.4C490.1 483.4 490 471.7 489.7 463.7Z" fill="#3F3F3F"/>
<path opacity="0.19" d="M450.8 649.1C443.5 667 436.5 685.7 429.7 705.2C411.9 756.3 398.6 805 388.8 850.3C394.1 850.8 400.8 850.9 408.6 849.6C420.2 847.7 429.2 843.6 435 840.4C434.5 820.5 434.7 799.6 435.7 777.7C437.7 730.4 443.4 687.3 450.8 649.1Z" fill="#3F3F3F"/>
<path d="M553 814.3C558.1 831 563.2 847.6 568.3 864.3C528.4 892.5 509.7 909 512.3 913.6C515.6 919.5 552.7 906.6 623.6 874.9C613.4 846.5 603.2 818 592.9 789.6C579.7 797.8 566.3 806 553 814.3Z" fill="#161616"/>
<path d="M530.9 412.6C535.1 421.4 541.6 436.2 546.7 455.4C554.3 484.1 554.4 506.9 554.6 515C555.8 581 574.1 661.5 582.7 699.5C588.8 726.6 599.3 766.4 617.6 814.3C613.4 819.1 599.1 834.3 574.8 839.1C552.3 843.5 534.7 836.3 528.7 833.5C500.2 762 485.3 701.9 476.9 659.1C467.9 613.2 461.7 565.7 456.6 517.3C453.6 488.4 450.6 459.5 447.6 430.7C475.4 424.6 503.2 418.6 530.9 412.6Z" fill="#EC615B"/>
<path opacity="0.17" d="M480.4 424.1C493.9 480.6 507.3 537.1 520.6 593.6C539.8 675.1 558.7 756.7 577.3 838.3C581.8 837.4 587.3 835.8 593.1 833C604.8 827.4 612.5 819.7 616.8 814.5C609.9 796.2 601.5 772 593.1 743.3C576.8 687.8 569.1 643.8 566.1 625.2C560.6 591.4 557.3 571.1 556.2 542.1C555.5 522.5 556.4 512.8 553.6 492.6C552.4 484 548.9 462.5 539.7 435.9C536.3 426.1 533 418 530.5 412.2C513.9 416.2 497.2 420.2 480.4 424.1Z" fill="#3F3F3F"/>
<path opacity="0.15" d="M552.3 521.8C552 596.5 557.9 679.8 574.7 769.2C578.9 791.5 583.5 813 588.6 833.8C591.6 832.9 595 831.7 598.5 829.8C607.4 825.2 613.4 819.1 617 814.6C606.7 785.7 596.8 754.7 588 721.6C568.5 648.8 557.8 581.3 552.3 521.8Z" fill="#3F3F3F"/>
<path d="M418.1 203.7C404.2 214.9 398.1 228.8 394.5 237.1C383.2 263 385.6 286.7 387 299.3C390.6 331.6 401.7 336.9 407.2 367.3C410.1 383.6 411.2 405.1 404.9 431.9C409.2 435.7 442.3 464 486.2 455.5C512.1 450.5 528.7 435.2 535.2 428.4C537.5 363.9 533.8 310.7 529.4 271.6C524.3 226.1 519 206.6 502.3 195.3C478.9 179.5 441.1 185.2 418.1 203.7Z" fill="white" stroke="black" stroke-width="2"/>
<path opacity="0.14" d="M465.3 184.7C471.6 197.3 479.3 214.9 485.7 236.8C501.9 292.3 498.6 338.2 496.9 354.2C492.3 399.2 478.4 434.4 467.2 457.1C474.2 457.3 483.3 456.7 493.6 453.8C514.5 447.9 528.1 435.5 534.5 428.7C535.4 394.2 535.1 365.2 534.5 343.6C534.5 343.6 533.7 311.9 527.9 259.8C523.9 223.6 521.1 211.8 511.4 201.7C497.2 187.1 476.6 184.9 465.3 184.7Z" fill="#3F3F3F"/>
<path opacity="0.17" d="M522.7 232.2C521 232.3 523.1 257.8 520.7 305.4C517.6 367 510.5 392.3 508.2 400.4C501.4 423.6 492.7 441.6 486.4 453.2C491.8 452.8 499 451.7 506.8 448.6C521.6 442.7 530.8 432.9 535.2 427.5C535.8 407.6 536.1 378.4 534.5 343.1C531.9 285.9 525.1 232 522.7 232.2Z" fill="#3F3F3F"/>
<path d="M397.6 274.2C390.1 281.5 386.2 289.3 384.3 293.9C379.8 304.7 379.7 313.9 379.7 318.8C379.7 332 383.3 341.5 387.2 352.1C390 359.5 394.5 369.7 402 381C403.6 381.5 406 382.1 408.9 382.2C411.7 382.2 413.9 381.8 415.6 381.3C414.6 375 413.7 368.8 412.7 362.5C414.4 362.9 417 363.4 420.2 363.9C435.3 366.2 447.6 364.6 454.9 363.6C458.3 363.1 463.1 362.4 468.8 361C468.3 364.8 467.8 368.5 467.4 372.3C472.9 375.4 475.3 374.2 476.1 373.7C477.7 372.7 477.9 370.9 479.9 364.7C480.8 361.8 481.7 359.5 482.2 358C484.4 357.1 486.6 356.3 488.9 355.4C488.3 357.5 487.7 359.6 487.2 361.8C488.9 362.2 491.7 362.7 495 362.1C496.9 361.8 498.4 361.2 499.6 360.7C500.9 356 502.3 351.3 503.6 346.5C507.4 342.4 511 340.5 513.7 339.6C516.7 338.5 517.7 338.9 520.1 337.6C525 334.8 526.7 329.5 527 328.3C527.4 327 528.7 322.1 526.4 317.3C525.1 314.6 524.2 315 521.5 310.9C519.2 307.5 519.3 306.3 517.2 302.5C516.1 300.7 514.4 298 511.7 295C513.6 289.4 515.3 286.8 516.6 285.5C516.9 285.2 517.8 284.3 517.8 283.2C517.8 282.2 516.9 281.3 515.5 280.3C512.1 277.9 510 276.5 507.1 276.8C503.4 277.3 501.2 280.2 500.7 280.8C499.2 278.3 497 274.8 493.8 271.3C483.7 260.2 471.6 256 466.3 254.5C446.2 248.9 429 256.3 418.6 260.9C412.9 263.3 405.2 266.7 397.6 274.2Z" fill="white"/>
<path d="M387.8 350.5C381.8 334.3 379.4 316.4 384.4 299.6C389.2 283.7 399.9 271.1 415 264.2C430.2 257.2 448.6 252.1 465.1 256.3C479.5 260 491.9 269.4 499.2 282.4C500.1 284.1 502.7 282.6 501.8 280.9C489.5 258.9 464.2 248.1 439.8 253.1C426 255.9 411 260.8 400.1 269.9C390.2 278.2 383.5 290.1 380.5 302.6C376.7 318.9 379.1 335.8 384.9 351.3C385.6 353 388.5 352.3 387.8 350.5Z" fill="black"/>
<path d="M473.8 311.9C473.4 307.8 473.6 297.5 479.1 296.7C482.5 296.2 484.7 300.6 488.5 300.3C490.4 300.1 490.4 297.1 488.5 297.3C485.9 297.6 484.1 294.9 481.8 293.9C479.6 293 477.5 293.4 475.7 294.9C471.1 298.7 470.4 306.4 470.9 311.9C471 313.8 474 313.8 473.8 311.9Z" fill="black"/>
<path d="M486.3 297.8C492 295.4 495.7 301.6 490.3 304.6C488.5 305.6 486.3 306.2 484.3 306.9C480.3 308.3 476.2 309.7 472.2 311.1C470.4 311.7 471.2 314.6 473 314C478.2 312.2 483.5 310.5 488.7 308.5C491.4 307.5 494.6 306.1 495.8 303.2C498.7 296.1 490.2 292.9 484.9 295.2C483.1 295.9 484.6 298.5 486.3 297.8Z" fill="black"/>
<path d="M503.3 277.4C500.6 279 497.5 281.5 498.3 285.1C498.6 286.6 499.6 287.7 501 288.4C503.1 289.5 505.2 290.1 507.2 291.6C508.7 292.8 510.8 290.7 509.3 289.5C507.5 288.1 505.6 287.1 503.6 286.2C502.1 285.5 500.8 284.8 501.6 282.9C502.2 281.5 503.7 280.7 504.9 280C506.5 279 505 276.4 503.3 277.4Z" fill="black"/>
<path d="M501.2 287.5C500.4 292.6 503.8 298.5 509.7 297.3C512.1 296.8 513.6 295 514.6 292.9C515.7 290.4 515.9 286.9 518.4 285.4C520 284.4 518.5 281.8 516.9 282.8C514.3 284.4 513.5 287 512.6 289.7C512 291.5 511.3 293.7 509.3 294.3C505.7 295.4 503.6 291.3 504.1 288.3C504.3 286.4 501.4 285.5 501.2 287.5Z" fill="black"/>
<path d="M503.4 281C507.7 276.3 513.5 281.1 516.6 284.5C517.9 285.9 520 283.8 518.7 282.4C514.4 277.7 506.7 272.9 501.3 278.9C500 280.3 502.1 282.4 503.4 281Z" fill="black"/>
<path d="M498.6 313.4C498.4 313.4 498.4 313.4 498.6 313.4C498.4 313.3 498.4 313.3 498.6 313.4C498.5 313.4 498.4 313.3 498.4 313.2C498.5 313.3 498.5 313.3 498.4 313.2C498.3 313.1 498.3 313 498.4 313.1C498.4 313.2 498.4 313.2 498.4 313C498.4 312.8 498.4 312.8 498.4 313C498.4 312.9 498.4 312.8 498.4 312.7C498.4 312.9 498.4 312.9 498.4 312.7C498.3 312.9 498.3 312.9 498.4 312.7C498.2 312.8 498.6 312.7 498.3 312.8C498.5 312.7 498.5 312.7 498.3 312.8C498.5 312.8 498.5 312.8 498.3 312.8C498.4 312.8 498.5 312.8 498.6 312.8C498.5 312.8 498.4 312.8 498.5 312.8C498.6 312.8 498.6 312.8 498.7 312.9C498.6 312.8 498.6 312.9 498.7 312.9C498.8 313 498.9 313 498.7 312.9C498.8 313 498.8 313.1 498.7 313C498.7 312.9 498.7 312.9 498.7 313.1C498.7 313 498.7 312.9 498.7 312.9C498.6 313.1 498.7 313.1 498.7 312.9C498.6 313 498.6 313.1 498.7 312.9C498.6 313 498.6 313 498.5 313.1C498.7 312.9 498.3 313.2 498.5 313.1C498.4 313.1 498.3 313.2 498.2 313.2C498.4 313.2 498.4 313.2 498.2 313.2C498.3 313.3 498.3 313.2 498.2 313.2C496.6 312.2 495 314.8 496.7 315.8C498.3 316.8 500.4 316.1 501.3 314.5C502.3 312.7 501.2 310.6 499.3 310.1C497.6 309.6 495.7 310.5 495.2 312.3C494.8 314 495.8 315.9 497.6 316.4C499.7 316.8 500.5 313.9 498.6 313.4Z" fill="black"/>
<path d="M512.5 304.8C512.7 304.9 512.9 305 513 305.2C512.9 305 513.1 305.5 513 305.3C513 305.1 513 305.7 513 305.4C513 305.1 512.9 305.8 513 305.4C513.1 305.1 512.8 305.7 513 305.4C513.1 305.2 512.8 305.6 512.9 305.5C512.7 305.7 512.5 305.8 512.2 305.7C512 305.6 511.9 305.5 511.8 305.4C511.7 305.3 511.7 305.3 511.8 305.4C511.8 305.3 511.7 305.3 511.7 305.2C511.8 305.5 511.7 304.8 511.7 305.1C511.7 305.4 511.8 304.8 511.7 305.1C511.6 305.4 511.8 304.9 511.7 305C511.6 305.2 511.7 305 511.8 304.9C511.7 305 511.7 305 511.8 304.9C511.9 304.8 512 304.8 512.1 304.8C511.9 304.9 512.4 304.8 512.5 304.8C511.7 304.6 510.8 305 510.7 305.8C510.5 306.6 510.9 307.5 511.7 307.6C513 307.9 514.2 307.1 514.6 305.8C514.9 304.5 514.4 303.1 513 302.7C511.7 302.3 510.4 303.3 510.1 304.5C509.7 305.8 510.4 307.1 511.7 307.6C512.4 307.8 513.4 307.3 513.5 306.6C513.7 305.8 513.3 305.1 512.5 304.8Z" fill="black"/>
<path d="M510.9 295.7C514.2 299.5 516.3 304 517.2 309C517.6 310.9 520.5 310.1 520.1 308.2C519.1 302.7 516.6 297.8 513 293.6C511.7 292.1 509.6 294.3 510.9 295.7Z" fill="black"/>
<path d="M518.2 310.9C519.5 312.1 521.1 313 522.9 313.4C524.8 313.8 525.6 310.9 523.7 310.5C522.4 310.2 521.3 309.7 520.3 308.8C518.9 307.4 516.8 309.5 518.2 310.9Z" fill="black"/>
<path d="M523.2 311.4C516.1 312.1 510 316.2 507.5 323.1C505.4 329 506.2 337.7 513.2 339.8C519.3 341.6 524.9 337.2 527.1 331.7C529.3 326.2 530 315.3 524 311.8C522.3 310.8 520.8 313.4 522.5 314.4C526.6 316.8 525.8 325.9 524.6 329.7C523.2 334.2 519.1 338.5 514 336.8C508.1 334.8 508.8 326.8 511.1 322.3C513.5 317.7 518.1 315.1 523.1 314.5C525.1 314.2 525.2 311.2 523.2 311.4Z" fill="black"/>
<path d="M515.8 327.6C515.8 327.4 515.8 327.2 515.8 327C515.8 326.2 515.1 325.5 514.3 325.5C513.5 325.5 512.8 326.2 512.8 327C512.8 327.2 512.8 327.4 512.8 327.6C512.8 328.4 513.5 329.1 514.3 329.1C515.1 329.1 515.8 328.5 515.8 327.6Z" fill="black"/>
<path d="M523.8 322.1C523.6 321.9 523.4 321.7 523.3 321.5C522.8 320.9 521.7 320.9 521.2 321.5C520.6 322.1 520.6 323 521.2 323.6C521.4 323.8 521.6 324 521.7 324.2C522.2 324.8 523.3 324.8 523.8 324.2C524.4 323.6 524.3 322.7 523.8 322.1Z" fill="black"/>
<path d="M490 325.5C491.9 327.6 495.3 327.1 496.9 324.9C497.4 324.2 497 323.2 496.4 322.8C495.6 322.4 494.8 322.7 494.3 323.3C493.8 324 492.6 323.8 492.1 323.2C490.9 321.9 488.7 324.1 490 325.5Z" fill="black"/>
<path d="M493.3 325.8C495.5 332.2 502.9 335.3 509 332.4C510.7 331.6 509.2 329 507.5 329.8C503.2 331.8 497.8 329.4 496.2 325C495.5 323.2 492.6 323.9 493.3 325.8Z" fill="black"/>
<path d="M512.8 337.4C509.4 340.1 505.9 342.8 502.5 345.5C501 346.7 503.1 348.8 504.6 347.6C508 344.9 511.5 342.2 514.9 339.5C516.5 338.4 514.3 336.3 512.8 337.4Z" fill="black"/>
<path d="M502 346.8C500.2 351.4 498.8 356.1 497.8 360.9C497.4 362.8 500.3 363.6 500.7 361.7C501.7 356.9 503.1 352.2 504.9 347.6C505.6 345.8 502.7 345 502 346.8Z" fill="black"/>
<path d="M384.1 347.8C386.5 357.8 390.5 367.4 396.4 375.9C398.1 378.4 400.1 381.9 403 383.1C406.7 384.7 411.8 383.4 415.6 382.8C416.2 382.7 416.8 381.9 416.7 381.4C416.1 375.1 415.1 368.9 413.8 362.7C413.4 360.8 410.5 361.6 410.9 363.5C412.2 369.4 413.1 375.4 413.7 381.4C414.1 380.9 414.4 380.4 414.8 380C410.5 380.7 405.6 381.8 402.1 378.6C399.4 376.1 397.1 371.8 395.3 368.6C391.4 361.8 388.7 354.6 386.9 347C386.5 345.1 383.6 345.9 384.1 347.8Z" fill="black"/>
<path d="M413.5 363.9C423 366 432.7 367 442.4 366.8C450.6 366.6 461.4 366.4 468.6 362.2C470.3 361.2 468.8 358.6 467.1 359.6C459.8 363.8 448.7 363.7 440.5 363.8C431.7 363.9 422.9 362.9 414.2 361C412.4 360.6 411.6 363.5 413.5 363.9Z" fill="black"/>
<path d="M467.6 356.3C466.8 360.9 465.8 365.7 465.7 370.4C465.6 373.4 467.2 375 470.2 375.1C472.7 375.2 477.7 375 479.2 372.8C480.4 370.9 480.7 367.6 481.3 365.5C482 363.1 482.8 360.6 483.5 358.2C484.1 356.3 481.2 355.6 480.6 357.4C479.1 362.3 477.7 367.1 476.3 372C476.6 371.7 477 371.3 477.3 371C475.6 371.5 473.6 372.2 471.8 372.1C468.8 372 468.6 370.4 468.9 367.9C469.3 364.3 469.8 360.7 470.5 357.1C470.8 355.2 467.9 354.4 467.6 356.3Z" fill="black"/>
<path d="M481.6 359.4C486.6 358.1 491 355.5 494.6 351.7C495.9 350.3 493.8 348.2 492.5 349.6C489.3 353 485.4 355.3 480.8 356.5C479 357 479.7 359.9 481.6 359.4Z" fill="black"/>
<path d="M486.5 355.3C485.6 357.8 485.2 360.3 485.3 362.9C485.3 363.7 486 364.4 486.8 364.4C490.1 364.4 493.4 364 496.7 363.4C498.6 363 497.8 360.2 495.9 360.5C492.9 361.1 489.9 361.3 486.8 361.4C487.3 361.9 487.8 362.4 488.3 362.9C488.2 360.5 488.5 358.3 489.3 356.1C490.1 354.3 487.2 353.5 486.5 355.3Z" fill="black"/>
<path d="M412.1 275.9C425.1 270.8 438.7 268 452.6 267.4C454.5 267.3 454.5 264.3 452.6 264.4C438.4 264.9 424.5 267.8 411.3 273C409.5 273.7 410.3 276.6 412.1 275.9Z" fill="black"/>
<path d="M412.8 272.3C412.7 272.2 412.7 272.2 412.6 272.1C412.7 272.7 412.8 273.3 412.8 273.9C414 271.1 420.2 270.5 422.8 270C426.2 269.3 429.6 268.7 433 268.2C440.6 267 448.3 266.2 455.9 265.7C457.8 265.6 457.8 262.6 455.9 262.7C447 263.3 438.2 264.3 429.4 265.8C424.8 266.6 412.4 267.3 410.2 272.4C409.9 273 409.9 273.7 410.4 274.2C410.5 274.3 410.5 274.3 410.6 274.4C412 275.7 414.2 273.6 412.8 272.3Z" fill="black"/>
<path opacity="0.12" d="M498.4 277.8C498 288.7 494.6 294.4 491.4 297.5C489.7 299.2 489 299.2 482.5 304.5C473.3 311.9 472.7 313.5 472.4 314.6C471.3 319.9 477 322.3 477.4 328.5C477.9 335.6 471 341.6 467.3 344.7C448.8 360.6 411.2 357.3 405 356.7C406.4 365.1 407.8 373.5 409.3 381.8C411.1 382.3 413.6 382.7 414.7 381.4C415.8 380.2 415.1 378.2 414.3 374.1C413.2 368.3 412.7 365.3 413.5 364C415.7 360.6 425.1 363.8 433.2 365.2C440.9 366.5 452.2 366.8 466.9 362.1C467.2 365.5 467.4 368.8 467.7 372.2C471.1 372.2 474.4 372.2 477.8 372.2C479 367.8 480.1 363.4 481.3 359C483.6 357.7 485.9 356.4 488.3 355.1C487.8 357.7 487.3 360.3 486.8 362.8C490.4 362.7 494 362.5 497.6 362.4C497.7 359.5 498.5 353.5 502.6 347.7C504.1 345.6 506.8 341.9 511.5 340C514.5 338.8 515.4 339.5 518.5 338.1C519.9 337.5 523.7 335.4 526.2 331.1C528.6 327 530 320.4 527 316C525.4 313.7 524.4 314.6 521.6 311.7C518.5 308.5 519.2 306.8 515.4 299.7C512.8 294.8 511.9 294.6 511.9 292.7C512.1 287.9 518.2 286.4 517.7 283C517.2 278.9 507.8 277.3 507.3 277.2C503.6 276.8 500.5 277.3 498.4 277.8Z" fill="#3F3F3F"/>
<path opacity="0.14" d="M495.7 301C495.3 303.2 494.3 306.9 491.4 310.3C489.8 312.2 487.8 314.5 484.4 314.9C480.7 315.4 477.8 313.2 477.1 312.6C483.4 308.7 489.5 304.9 495.7 301Z" fill="#3F3F3F"/>
<path d="M478.7 354.9C476.6 356.1 475 358.7 475.2 360.9C475.7 365.6 484.8 367.8 484.5 368.8C484.2 369.7 477.7 366.9 470.8 369.4C469.7 369.8 466.1 371.1 465.8 373.4C465.6 375.2 467.6 375.7 468.1 378.6C468.5 380.6 467.6 380.8 467.5 384.4C467.4 386.8 467.4 388.3 468.3 389.8C469.5 391.7 470.9 391.3 472 393.1C473.3 395.2 471.6 396.5 472.6 399.1C473.6 401.8 476.5 403.5 478.8 404.1C481.4 404.8 482.8 403.9 483.6 404.9C484.8 406.4 482 409 483 411.5C483.9 413.7 487.2 414.3 488.4 414.4C496.7 415 504 396 504.4 394.9C507.5 394.9 511.2 394.6 515.2 393.6C524.5 391.2 530.4 385.9 537.6 379.5C541.3 376.2 545.9 372 550.7 365.4C557.2 356.4 560.1 348.4 562.7 341.3C564.9 335.1 568.1 325.7 569.1 313.1C570 300.1 568 290.4 566.2 281.9C561.7 260.9 553.6 246.7 551.7 243.5C551.4 243 545.4 235.2 533.4 219.6C527.3 211.7 521.8 204.8 515.3 205.1C514.6 205.1 513.3 205.2 511.8 206.1C507.1 208.8 506.7 216.6 507 223.8C508.1 248.6 516.8 266.6 516.8 266.6C523.9 281.2 529.6 285 532.2 298.6C533.6 305.7 533.6 312.3 533.5 313.6C533.5 318.7 533.3 325.5 530.6 333.7C529.1 338 525.8 347.7 516.5 355.5C510.9 360.2 506.9 363.6 501.8 363C494.7 362.2 488.8 354.2 481.9 354.1C481.1 354.1 479.9 354.2 478.7 354.9Z" fill="white"/>
<path d="M511.5 205.2C536.7 220.8 555.5 245.9 563.2 274.6C571.8 306.7 566 339.9 546.8 367C537.3 380.4 523.4 393.4 505.9 392.7C504 392.6 504 395.6 505.9 395.7C520.8 396.3 533.3 387.6 542.8 376.9C553.6 364.7 562 349.6 566.4 333.9C575.4 301.6 568.4 265.7 549.8 238C540.2 223.8 527.7 211.7 513.1 202.7C511.3 201.6 509.8 204.2 511.5 205.2Z" fill="black"/>
<path d="M529.7 332.4C524.3 345.3 515.8 358.8 500.9 361.3C499 361.6 499.8 364.5 501.7 364.2C517.6 361.5 526.7 347 532.5 333.2C533.3 331.5 530.4 330.7 529.7 332.4Z" fill="black"/>
<path d="M501.5 361.1C494.7 359.9 482.9 347.6 476 354.4C473.5 356.9 473.8 361.1 475.3 364C477.5 368.3 482.3 369.8 486.6 370.9C488.5 371.4 489.3 368.5 487.4 368C483.6 367.1 479 365.9 477.6 361.7C476.8 360.2 477.1 358.8 478.4 357.7C479 355.6 480.4 354.9 482.6 355.8C484.2 356.1 485.7 356.8 487.1 357.5C491.7 359.8 495.5 363.1 500.7 364C502.6 364.4 503.4 361.5 501.5 361.1Z" fill="black"/>
<path d="M504.3 393.3C501 398.1 497.8 403 494.5 407.8C493.7 408.9 493 410 492 411C491.1 412.1 489.9 412.9 488.5 413.4C487.1 411.3 485.8 409.2 484.4 407.1C485 405.3 489.2 402.9 490.6 401.6C492.1 400.3 489.9 398.2 488.5 399.5C485.6 402.1 480.3 405 480.1 409.4C480 412.8 482.6 416 485.9 416.5C490 417.1 493.3 414.3 495.6 411.3C499.7 406.1 503.1 400.3 506.9 394.8C508 393.2 505.4 391.7 504.3 393.3Z" fill="black"/>
<path d="M486.7 367.9C480.9 369.6 475 368.2 469.2 369.2C466.2 369.7 463.6 371.3 463.9 374.7C464.9 384.3 478.1 382.8 484.4 381.4C486.3 381 485.5 378.1 483.6 378.5C480.7 379.2 477.7 379.8 474.7 379.6C470.9 379.3 462.7 374.5 470.6 372C473.3 371.2 476.9 371.9 479.6 371.8C482.3 371.8 484.9 371.5 487.5 370.7C489.4 370.2 488.6 367.3 486.7 367.9Z" fill="black"/>
<path d="M469 379C464.6 382.1 464.2 389 468.4 392.5C473.4 396.6 481 394 486.1 391.5C487.8 390.6 486.3 388 484.6 388.9C481.3 390.6 476.9 392.3 473.1 391.4C468.8 390.5 466.5 384.4 470.6 381.6C472.1 380.5 470.6 377.9 469 379Z" fill="black"/>
<path d="M470.8 393.3C469.5 397.2 471.2 401.8 474.6 404.2C478.9 407.2 484.3 405.7 488.2 402.7C489.7 401.5 488.2 398.9 486.7 400.1C483.9 402.2 480.1 404 476.8 402C474.1 400.4 472.8 397 473.8 394.1C474.3 392.3 471.4 391.5 470.8 393.3Z" fill="black"/>
<path d="M513.1 201.1C500.3 219.3 504.7 242.6 512.9 261.6C523.2 285.5 540.6 309.5 535.3 336.9C534.9 338.8 537.8 339.6 538.2 337.7C542.8 313.8 530.9 292 520.7 271.3C510.4 250.4 500.7 223.9 515.7 202.6C516.8 201 514.2 199.5 513.1 201.1Z" fill="black"/>
<path d="M532.5 304C532 314.7 530.7 325.3 528.6 335.8C528.2 337.7 531.1 338.5 531.5 336.6C533.6 325.8 535 315 535.5 304C535.6 302.1 532.6 302.1 532.5 304Z" fill="black"/>
<path opacity="0.12" d="M530.6 218.1C535.6 227.8 541.6 241.9 545.4 259.7C550.4 283.3 549 302.2 548.1 310.7C546 330.3 544.2 347.2 531.5 363.9C526.2 371 515.4 385.2 497.5 389.9C485.3 393 473 390.9 471.5 395.7C470.8 398.2 473.1 401.4 475.5 402.9C478.7 404.8 483 404.5 486.7 402C483.1 404.5 481.4 408 482.2 410.5C482.9 412.7 485.4 413.9 487.1 414.1C495.3 415.2 503.5 396.3 504.1 394.9C507.3 395 512.1 394.8 517.5 393.1C528.7 389.7 535.5 382.2 543 373.9C546.1 370.5 551.7 364.1 556.9 354.7C570.2 330.4 569.1 306 568.5 297C566.8 267.4 554.3 247 551 242C544.2 230.8 536.4 223.1 530.6 218.1Z" fill="#3F3F3F"/>
<path opacity="0.11" d="M569.1 303.5C565.5 314.7 559.9 328.2 551.2 342.4C536.1 367.1 518 383.3 505.1 393C508.4 393.2 513.4 393.1 519 391.7C538 386.7 548.1 370.1 552.1 363.5C557.3 354.9 559.3 347.7 562.8 335.3C566.5 322.3 568.2 311.2 569.1 303.5Z" fill="#3F3F3F"/>
<path d="M410.6 209C409 207.1 395.9 215.6 387 222.3C376.2 230.4 366.9 237.4 358 250.1C346.2 266.9 342.6 283.2 341.4 289.9C340.5 295.1 337.7 313.3 343.9 335.5C349.1 354.2 357.9 365.5 368.8 379.5C375.8 388.6 381.2 393.6 388.7 396.9C395.6 400 401.9 400.6 406.1 400.6C408.3 403.8 410.8 407.4 413.6 411.4C416 414.8 417.4 416.7 419.8 418.9C422.1 421 425.7 424.1 428.5 423C430 422.5 430.8 420.9 432.2 418.4C433.6 415.8 433.3 415.3 434.3 414.3C436.4 412.1 438.6 413.5 441.4 411.8C444.2 410 442.9 407.6 446.4 402.7C449.1 398.9 450.6 399.2 451.4 396.5C452.2 393.5 450.4 392.5 451 388.6C451.6 384.7 453.8 383.4 453.1 382C452.3 380.5 449.2 381.1 444.8 381.2C436.8 381.3 429.9 379.3 429.9 378.3C429.9 377.2 437 378.2 440.7 373.7C442.8 371.1 443.7 366.7 441.9 364.6C439.8 362 434.3 363.3 427.4 365C418.1 367.3 417.6 369.2 413.7 369.6C401.7 370.7 390.9 353.5 387.2 347.6C385.2 344.5 379 334 376.8 319C374.6 303.9 377.5 291.4 379.7 282.1C380.3 279.4 380.1 280.7 384.3 266.3C391.7 240.7 391.2 240.8 393 236.4C400.4 218.6 412.2 210.8 410.6 209Z" fill="white"/>
<path d="M407.9 208C377.7 221.3 352.8 246.6 343 278.5C332.3 313 341 348.9 363.4 376.8C374.2 390.2 388.7 401.3 406.4 402.3C408.3 402.4 408.3 399.4 406.4 399.3C390.6 398.4 377.5 388.7 367.5 377C356.7 364.3 348 348.7 344.1 332.5C336.1 300 346 265.2 368.1 240.4C379.6 227.5 393.8 217.5 409.6 210.5C411.2 209.8 409.7 207.3 407.9 208Z" fill="black"/>
<path d="M379.4 337C385.6 352.4 395.6 367.1 412.6 371.3C414.5 371.8 415.3 368.9 413.4 368.4C397.5 364.5 388.1 350.6 382.3 336.2C381.6 334.5 378.7 335.2 379.4 337Z" fill="black"/>
<path d="M413.2 371.1C419.2 370.7 424 367.7 429.6 365.9C433.3 364.7 439.6 363.4 440.3 368.5C441.2 374.7 433.3 376 428.8 376.5C426.9 376.7 426.9 379.7 428.8 379.5C433.3 379 438.3 378.3 441.4 374.7C443.8 371.8 444.6 367.3 442 364.3C435.1 356.3 420.9 367.6 413.2 368.1C411.3 368.3 411.3 371.3 413.2 371.1Z" fill="black"/>
<path d="M405.3 401.5C409.2 407.3 412.8 413.5 417.1 419C419.7 422.4 423.2 425.6 427.8 425.3C431.2 425 434.4 422.4 434.4 418.8C434.5 414.1 428.5 410.5 425.5 407.8C424.1 406.5 421.9 408.6 423.4 409.9C425.1 411.4 429.3 414.1 430.1 416.1C430.2 417.8 430.2 419.4 430.3 421.1C427.2 422.6 424.6 422.4 422.6 420.5C421 419.3 419.9 417.9 418.7 416.2C414.9 410.9 411.5 405.4 407.9 400C406.8 398.3 404.2 399.8 405.3 401.5Z" fill="black"/>
<path d="M428.3 379.3C434 381.4 440 381.1 445.9 382.1C446.9 382.2 447.9 382.4 448.9 382.7C449.4 384.2 449.9 385.7 450.3 387.2C449.9 389 444.3 389.5 443.1 389.5C439.3 389.6 435.6 388.4 432 387.4C430.1 386.9 429.4 389.7 431.2 390.3C437 392 453.9 395.8 454.5 385.2C454.7 381.5 451.1 380.1 448.1 379.5C441.8 378.2 435.2 378.7 429.1 376.5C427.3 375.8 426.5 378.7 428.3 379.3Z" fill="black"/>
<path d="M447 392.1C449.1 393.7 449.8 396.6 448.5 398.8C447.2 401 444.7 401.6 442.3 401.6C438.2 401.5 434.1 399.6 430.5 397.7C428.8 396.8 427.3 399.4 429 400.3C434.5 403.3 443.2 407.1 449.1 402.8C453.7 399.4 452.9 392.7 448.6 389.5C446.9 388.3 445.4 390.9 447 392.1Z" fill="black"/>
<path d="M442.8 404.4C443.8 407.8 441.5 411.3 438.1 412.2C434.4 413.2 430.7 411.3 427.9 409.1C426.4 407.9 424.3 410 425.8 411.2C429.8 414.4 435.1 416.7 440.2 414.6C444.5 412.8 447.2 408.1 445.8 403.6C445.2 401.7 442.3 402.5 442.8 404.4Z" fill="black"/>
<path opacity="0.11" d="M391 219.4C385.2 227.7 377.9 239.7 371.8 255.2C361.9 280.4 360.5 301.6 360.2 309.3C359.3 331.4 358.8 344.3 366.5 358.1C376.3 375.7 393.8 384.4 415.7 395.2C426.9 400.7 436.5 404.3 443 406.4C443 407 443 411.3 439.9 413.6C436.5 416 430.6 415.1 426.9 410.5C431.7 413.6 433.9 417.8 432.7 420.3C431.7 422.6 427.8 423.8 424.6 423C418.4 421.3 419 412.6 409.8 404.2C407.7 402.3 405.8 401 404.4 400.2C398.5 399.6 388.4 397.6 378.4 390.8C376.6 389.6 369.8 384.7 360.5 370.7C354.6 361.8 347.3 350.7 343 334C341.6 328.6 334.8 299.8 347.9 268.7C349.2 265.5 352.6 258.1 358.6 249.5C369.8 233.7 382.7 224.4 391 219.4Z" fill="#3F3F3F"/>
<path d="M397.4 57.9C386.4 65.7 382.9 76.8 376.1 98.7C367.5 126.3 361.3 146.2 371.9 161.7C382.4 176.9 405.5 182.3 429.4 178.4C430.9 179 433 180.1 434.5 182.1C436.5 184.8 436.2 187.5 436.8 191.8C437.6 197.5 438.2 202.3 441 204.3C445.6 207.7 455.3 203 460.9 198.7C469.6 192.1 473.3 183.3 474.8 179.7C490.3 141.4 498 122.3 493.8 104.2C492.6 99.1 488.7 83.2 474.8 69.9C454.5 50.7 419 42.6 397.4 57.9Z" fill="white"/>
<path d="M382.2 80.8C370 106.4 374.4 144.2 395.4 164.4C413.4 181.6 443.8 180 460.4 161.8C461.7 160.4 459.6 158.2 458.3 159.7C442.3 177.2 413.1 178.3 396.4 161.2C377.4 141.8 373.3 106.4 384.7 82.4C385.6 80.6 383 79.1 382.2 80.8Z" fill="#161616"/>
<path d="M432.9 174.7C432.8 185.1 435 195.1 439.3 204.6C440.1 206.4 442.7 204.8 441.9 203.1C437.8 194.1 435.8 184.6 435.9 174.7C435.9 172.8 432.9 172.8 432.9 174.7Z" fill="#161616"/>
<path d="M439.2 205.3C449.2 211.1 461.9 202.2 469.1 195.5C470.5 194.2 468.4 192.1 467 193.4C461 199 449.2 207.7 440.8 202.8C439 201.8 437.5 204.4 439.2 205.3Z" fill="#161616"/>
<path d="M398.6 132.6C414 142.4 434.8 129 442.4 115.2C443.3 113.5 440.7 112 439.8 113.7C433 126.1 414.1 138.9 400.1 130C398.5 129 397 131.6 398.6 132.6Z" fill="#161616"/>
<path d="M436.2 112.6C438.8 113.9 440.8 116 441.6 118.8C442.2 120.6 445.1 119.9 444.5 118C443.4 114.5 441 111.6 437.7 110C436 109.2 434.5 111.8 436.2 112.6Z" fill="#161616"/>
<path d="M408.3 76.9C404.6 87.3 400.1 97.4 394.7 107C393.8 108.7 396.3 110.2 397.3 108.5C402.8 98.6 407.4 88.3 411.2 77.6C411.8 75.9 408.9 75.1 408.3 76.9Z" fill="#161616"/>
<path d="M395.1 109.7C398.2 114 403.1 116.5 408.4 116.1C410.3 116 410.3 113 408.4 113.1C404.2 113.4 400.2 111.6 397.7 108.2C396.6 106.6 394 108.1 395.1 109.7Z" fill="#161616"/>
<path d="M394.8 94C394.5 91.7 394.8 89.4 395.7 87.3C394.7 87.3 393.8 87.3 392.8 87.3C393.6 90 393.2 92.7 391.7 95.1C392.6 95.2 393.5 95.3 394.4 95.5C394 93.6 394.1 91.7 394.7 89.8C395.3 88 392.4 87.2 391.8 89C391 91.4 390.9 93.8 391.5 96.3C391.8 97.6 393.6 97.7 394.2 96.7C396.1 93.7 396.6 90 395.6 86.6C395.2 85.1 393.2 85.3 392.7 86.6C391.6 89.3 391.4 92.1 391.8 94.9C392.2 96.7 395 95.9 394.8 94Z" fill="#161616"/>
<path d="M433.1 87.7C432.1 85.2 432.5 82.6 434.4 80.8C433.6 80.6 432.7 80.4 431.9 80.1C432.6 83 432.2 85.8 430.7 88.4C431.6 88.5 432.5 88.6 433.4 88.8C433 86.9 433.2 85.2 433.8 83.4C434.4 81.6 431.5 80.8 430.9 82.6C430.1 84.9 430 87.2 430.5 89.6C430.8 90.9 432.6 91 433.2 90C435.1 86.7 435.6 83 434.7 79.4C434.4 78.3 433 78 432.2 78.7C429.6 81.3 428.7 85.2 430.1 88.6C431 90.3 433.9 89.5 433.1 87.7Z" fill="#161616"/>
<path d="M389.7 78.1C391.4 74.4 396.1 73.1 399.3 75.5C400.9 76.6 402.4 74 400.8 72.9C396.3 69.6 389.3 71.5 387.1 76.6C386.3 78.4 388.9 79.9 389.7 78.1Z" fill="#161616"/>
<path d="M382.7 102.2C382.5 102.4 382.3 102.6 382.1 102.8C381.5 103.4 381.5 104.3 382.1 104.9C382.7 105.5 383.6 105.5 384.2 104.9C384.4 104.7 384.6 104.5 384.8 104.3C385.4 103.7 385.4 102.8 384.8 102.2C384.2 101.6 383.3 101.6 382.7 102.2Z" fill="#161616"/>
<path d="M391.5 101.8C391.5 101.8 391.5 101.7 391.5 101.8C391.5 102 391.6 102.2 391.7 102.5C391.7 102.5 391.7 102.5 391.7 102.4C391.6 102.7 391.6 102.9 391.5 103.2C390.8 104 390.1 104 389.4 103.2C389.3 102.9 389.3 102.7 389.2 102.4C389.2 102.4 389.2 102.4 389.2 102.5C389.3 102.2 389.3 102 389.4 101.7C389.4 101.7 389.4 101.7 389.4 101.8C389.1 102.5 389.2 103.4 389.9 103.9C390.5 104.3 391.6 104.1 392 103.4C392.3 102.7 392.3 102 391.8 101.4C391.5 101.1 391 100.9 390.5 100.9C390 100.9 389.5 101.1 389.2 101.4C388.6 102 388.7 102.7 389 103.4C389.3 104.1 390.4 104.3 391.1 103.9C391.7 103.4 391.8 102.5 391.5 101.8Z" fill="#161616"/>
<path d="M386.3 112.3C386.4 112.3 386.6 112.3 386.7 112.3C388.6 112.3 388.6 109.3 386.7 109.3C386.6 109.3 386.4 109.3 386.3 109.3C384.4 109.3 384.4 112.3 386.3 112.3C386.4 112.3 386.6 112.3 386.7 112.3C388.6 112.3 388.6 109.3 386.7 109.3C386.6 109.3 386.4 109.3 386.3 109.3C384.4 109.3 384.4 112.3 386.3 112.3Z" fill="#161616"/>
<path d="M429.5 97.5C429.5 97.3 429.5 97.1 429.4 96.9C429.3 96.1 428.8 95.4 427.9 95.4C427.2 95.4 426.3 96.1 426.4 96.9C426.4 97.1 426.4 97.3 426.5 97.5C426.6 98.3 427.1 99 428 99C428.7 99 429.6 98.4 429.5 97.5Z" fill="#161616"/>
<path d="M436.3 95.9C436.5 95.9 436.7 95.9 436.9 95.9C437.7 95.9 438.4 95.2 438.4 94.4C438.4 93.6 437.7 92.9 436.9 92.9C436.7 92.9 436.5 92.9 436.3 92.9C435.5 92.9 434.8 93.6 434.8 94.4C434.8 95.2 435.4 95.9 436.3 95.9Z" fill="#161616"/>
<path d="M432.9 101.3C432.9 101.5 432.9 101.7 432.9 101.9C432.9 102.7 433.6 103.4 434.4 103.4C435.2 103.4 435.9 102.7 435.9 101.9C435.9 101.7 435.9 101.5 435.9 101.3C435.9 100.5 435.2 99.8 434.4 99.8C433.6 99.9 432.9 100.5 432.9 101.3Z" fill="#161616"/>
<path d="M426.7 71.8C431.3 69.6 436.8 70.2 440.8 73.5C442.3 74.7 444.4 72.6 442.9 71.4C437.8 67.2 431.1 66.4 425.2 69.3C423.4 70.1 425 72.7 426.7 71.8Z" fill="#161616"/>
<path d="M471.1 87.5C472.3 86.3 473.5 85.2 474.8 84C475.6 84.1 476.4 84.2 477.2 84.3C479 84.7 480.4 85.6 481.7 86.7C484.6 89.2 486.1 92.8 486.4 96.6C487 102.9 484.5 111.3 476.9 111.1C475 111.1 475 114.1 476.9 114.1C489.5 114.4 492 97.7 487.2 88.9C484.8 84.4 480 80.9 474.7 81C470.6 81.1 466.4 83.8 468.1 88.3C468.9 90 471.8 89.3 471.1 87.5Z" fill="#161616"/>
<path d="M401.4 42.7C399.4 43.2 392.3 45 383.9 51.7C365.8 66.3 360.5 89.3 358.8 96.9C355.5 111.9 359 112.4 355.2 124.6C350 141.4 342.6 143 336.9 157.7C335 162.5 326.7 183.9 336.5 201.6C346.5 219.6 370.2 224.8 386.6 223.1C405.5 221.2 427.1 208.8 432.2 189.5C433.6 184.3 433.5 179.5 433.1 176C428.4 176.3 419.9 176.3 410.3 172.5C407.8 171.5 398.4 167.5 390.2 157.7C383.2 149.4 380.7 141.3 378.9 135.4C377.2 129.6 373.4 116.4 377.2 99.9C380.7 84.9 388.5 75.4 390.1 73.5C399.8 62.1 411.2 57.4 416.6 55.6C421.4 61.8 426.1 66.4 429.6 69.5C437.2 76.2 445.3 83.3 457.3 85.6C461.8 86.5 465.5 86.5 467.9 86.3C468.5 85.4 470.3 83.1 473.5 82.2C478.8 80.7 483.3 84.7 484.1 85.4C487.2 88.1 488 91.5 488.6 93.6C489 95.1 490.2 100.2 487.8 105.6C487.2 106.9 486.3 108.8 484.4 110.4C480.8 113.5 476.3 113.3 475 113.2C471.3 117.2 466.2 123.8 462.3 132.9C455.9 147.9 456.7 161.1 456.9 164.7C457.6 173.7 458.8 190.3 472.1 201.4C488.8 215.4 511.1 209.3 513.7 208.6C539.5 201.2 547.9 174.9 548.6 172.4C555.7 148.7 543.4 127.9 537.4 117.8C529.1 103.7 525 105.3 506.5 84.7C479.4 54.5 479.2 41.1 463.1 35C454.5 31.8 440.1 30.1 417 42.2C413.6 41.7 407.9 41.2 401.4 42.7Z" fill="#5222D0"/>
<path d="M434.9 177.8C440.8 177.1 447 173 451.7 169.5C453.2 168.4 451.7 165.8 450.2 166.9C448 168.6 445.6 170 443.1 171.3C440.5 172.7 437.8 174.4 434.8 174.8C433 175 433 178 434.9 177.8Z" fill="#161616"/>
<path d="M435.8 179.1C439.6 178.5 443 176.3 446.3 174.4C449.5 172.5 452.4 170.4 455 167.7C456.3 166.3 454.2 164.2 452.9 165.6C448.6 170.2 441.3 175.2 435 176.3C433.1 176.6 433.9 179.5 435.8 179.1Z" fill="#161616"/>
<path opacity="0.25" d="M497.8 76.6C503.7 86.5 511.6 101.5 517.9 121.1C525.6 145 530.2 158.9 522.6 169.8C515.1 180.6 498 184.9 483.7 180.1C469.4 175.3 459.3 162 458.4 146.4C457.1 152.1 455.7 161.8 457.9 173.5C459.4 181.2 461.3 191 469.6 199.2C479.5 209 492.1 210 496.7 210.4C501.4 210.8 513.8 211.1 526.2 203.4C538.5 195.8 543.4 184.9 545.4 180.5C550.9 168.1 550.1 157.1 549.6 151.5C548.3 135.7 541.5 124.7 538.4 119.7C537.1 117.6 534.1 113 519.7 98.2C510.8 88.9 503.2 81.5 497.8 76.6Z" fill="#3F3F3F"/>
<path opacity="0.15" d="M338.7 154.7C337.5 158.8 335.7 167.6 339.2 177.2C344.9 192.9 362.7 204.2 380.9 201.5C395.8 199.3 408.3 188.1 412.7 172.9C419.7 173.8 426.7 174.8 433.8 175.7C434 179.1 433.8 184.3 431.9 190.2C428.5 201 421.7 207.3 418.8 209.9C405.5 221.8 389.5 222.7 383.2 223C374.9 223.4 361.4 224.2 349 215C338.6 207.4 334.7 197.1 333.6 193.5C327.2 174.1 337.1 157.4 338.7 154.7Z" fill="#3F3F3F"/>
<path opacity="0.15" d="M463.2 113.1C459.4 126.7 454.3 145 442.6 155.7C437.6 160.3 425.7 168.6 400.9 166.9C403.9 169 410.6 173 420.1 173.9C429.6 174.8 436.9 172.1 440.2 170.6C443.9 181.7 447.7 192.8 451.4 203.8C456.7 200.8 462 197.9 467.3 194.9C463.7 189.3 456.9 177 456.5 160.3C455.9 132.9 473 114.8 476.6 111.2C478 111 482.9 109.9 486 105.6C490.1 99.8 488.4 91.4 483.7 86.9C482.8 86 478.8 82.2 474.8 83.2C468.4 84.6 467.6 97.1 463.2 113.1Z" fill="#3F3F3F"/>
</svg>
