<svg width="1349" height="912" viewBox="0 0 1349 912" fill="none" xmlns="http://www.w3.org/2000/svg">
<path d="M1212.2 808.6C1197.3 785.8 1187.6 760 1183.9 733C1183.4 733.6 1182.9 734.3 1182.5 734.9C1185.9 734.6 1188.8 735.3 1191.5 737.4C1193 738.6 1195.1 736.5 1193.6 735.3C1190.2 732.7 1186.7 731.5 1182.5 731.9C1181.4 732 1180.9 732.8 1181.1 733.8C1184.9 761.1 1194.6 787.1 1209.7 810.1C1210.7 811.7 1213.3 810.2 1212.2 808.6Z" fill="#E8E8E8"/>
<path d="M1193.5 735.8C1190.1 700.7 1195.5 665.3 1209.3 632.8C1208.4 632.8 1207.6 632.8 1206.7 632.8C1208.2 635 1209.3 637.1 1210.2 639.6C1210.8 641.4 1213.7 640.6 1213.1 638.8C1212.1 636.1 1211 633.7 1209.3 631.3C1208.7 630.5 1207.2 630.2 1206.7 631.3C1192.7 664.3 1187.1 700.2 1190.5 735.8C1190.7 737.7 1193.7 737.8 1193.5 735.8Z" fill="#E8E8E8"/>
<path d="M1214 638.3C1217.5 629.8 1221.4 621.4 1225.8 613.4C1229.5 606.7 1234.8 593.2 1244.4 595.1C1254.1 597 1257.3 609.9 1259.4 618C1261.7 627 1262.7 636.3 1263 645.5C1263.6 662.9 1262.2 680.4 1261 697.7C1259.7 716.1 1257.6 734.5 1253.3 752.5C1248.6 772.5 1241.6 791.8 1232.7 810.2C1231.9 811.9 1234.4 813.5 1235.3 811.7C1244.1 793.6 1251.1 774.6 1255.8 755C1260.7 734.9 1262.9 714.4 1264.2 693.8C1265.5 673.3 1267.5 652.3 1265 631.8C1263.5 619.5 1259.9 592.5 1243.1 591.7C1234.3 591.3 1229.7 600.5 1226 606.9C1220.3 616.7 1215.4 626.9 1211.1 637.4C1210.4 639.3 1213.3 640.1 1214 638.3Z" fill="#E8E8E8"/>
<path d="M1263.3 709.9C1266.7 703.1 1270.7 696.7 1275.5 690.9C1277.8 688.1 1288.6 673.7 1292.9 677C1293.8 677.7 1294.1 681.1 1294.3 682.3C1294.9 684.8 1295.3 687.4 1295.5 690C1295.9 694 1296 697.9 1295.8 701.9C1295.4 710.4 1293.9 718.9 1291.8 727.2C1284.2 757.5 1270.6 786.1 1252.9 811.7C1251.8 813.3 1254.4 814.8 1255.5 813.2C1276 783.7 1292.7 748.3 1297.8 712.4C1299 703.9 1299.4 695.3 1298.2 686.8C1297.7 683.1 1297 671.1 1290.9 672.3C1288.1 672.9 1285.5 676.1 1283.5 677.9C1280.3 680.9 1277.2 684.1 1274.4 687.4C1269 693.8 1264.4 700.8 1260.7 708.3C1259.8 710.1 1262.4 711.6 1263.3 709.9Z" fill="#E8E8E8"/>
<path d="M477.1 812.4C463.9 797.3 453 780.3 444.8 762C444.6 762.7 444.4 763.4 444.3 764.1C448.3 762.3 452.3 761.6 456.7 761.9C458.6 762 458.6 759 456.7 758.9C451.8 758.6 447.3 759.5 442.8 761.5C442 761.9 442 762.9 442.3 763.6C450.7 782.2 461.7 799.3 475.1 814.6C476.2 816 478.4 813.9 477.1 812.4Z" fill="#E8E8E8"/>
<path d="M456.9 757.7C449 743.9 444 728.6 442.6 712.8C441.7 702.8 439.9 667 458.6 676.8C465.2 680.3 469 687.8 472.4 694.1C476.4 701.4 479.9 709 483 716.7C488.6 730.8 492.7 745.5 495.2 760.4C498.2 778.1 498.9 796.1 497.5 814.1C497.3 816 500.4 816 500.5 814.1C503.3 778 497.2 741.5 482.6 708.3C479 700.1 475 691.7 470 684.2C466.4 678.8 461.5 673.5 454.8 672.3C438.8 669.4 439 693.5 439 703.5C439.1 723.1 444.4 742.3 454.2 759.3C455.3 760.8 457.9 759.3 456.9 757.7Z" fill="#E8E8E8"/>
<path d="M491.9 732.5C491.3 725 493.5 690.8 507.7 698C519 703.7 521.4 721.4 522 732.6C522.7 745.3 522.2 758.1 521.9 770.8C521.5 784.1 520.5 797.3 515.9 809.9C515.2 811.7 518.1 812.5 518.8 810.7C524.5 795.3 524.8 778.9 525.1 762.7C525.4 747.4 526.7 731.1 522.6 716.1C520.3 707.8 512.1 689.5 500.3 695C495.3 697.4 493.1 704.2 491.5 709.1C489.1 716.8 488.3 724.7 488.9 732.7C489 734.5 492 734.5 491.9 732.5Z" fill="#E8E8E8"/>
<path d="M449.3 674.8C462.2 703.6 472.8 733.3 480.9 763.8C481.4 765.7 484.3 764.9 483.8 763C475.6 732.3 465 702.3 451.9 673.3C451.1 671.5 448.5 673 449.3 674.8Z" fill="#E8E8E8"/>
<path d="M441 714.3C456.3 719.7 468.7 730.8 475.8 745.4C476.7 747.1 479.2 745.6 478.4 743.9C470.9 728.6 457.8 717.1 441.8 711.4C440 710.8 439.2 713.7 441 714.3Z" fill="#E8E8E8"/>
<path d="M470.9 688.3C468.2 697.2 466.8 706.3 466.5 715.5C466.4 717.4 469.4 717.4 469.5 715.5C469.8 706.5 471.2 697.7 473.8 689.1C474.3 687.2 471.4 686.4 470.9 688.3Z" fill="#E8E8E8"/>
<path d="M491.1 714.3C500.5 725.3 507.2 737.9 511.2 751.8C511.7 753.7 514.6 752.9 514.1 751C510 736.6 503 723.5 493.3 712.2C492 710.7 489.9 712.8 491.1 714.3Z" fill="#E8E8E8"/>
<path d="M506 713.5C512.5 745.8 511.4 777.7 508 810.3C507.8 812.2 510.8 812.2 511 810.3C514.5 777.5 515.5 745.3 508.9 712.7C508.5 710.8 505.6 711.6 506 713.5Z" fill="#E8E8E8"/>
<path d="M311.2 453.5C311.2 460.6 311.2 467.7 311.2 474.9C311.2 476.8 314.2 476.8 314.2 474.9C314.2 467.8 314.2 460.7 314.2 453.5C314.2 451.6 311.2 451.6 311.2 453.5Z" fill="#E8E8E8"/>
<path d="M312.7 476.9C347.7 476.9 382.6 476.9 417.6 476.9C419.5 476.9 419.5 473.9 417.6 473.9C382.6 473.9 347.7 473.9 312.7 473.9C310.8 473.9 310.8 476.9 312.7 476.9Z" fill="#E8E8E8"/>
<path d="M312.7 454.7C347.9 454.7 383.1 454.7 418.3 454.7C420.2 454.7 420.2 451.7 418.3 451.7C383.1 451.7 347.9 451.7 312.7 451.7C310.8 451.7 310.8 454.7 312.7 454.7Z" fill="#E8E8E8"/>
<path d="M416.8 453C416.8 460.3 416.8 467.6 416.8 474.9C416.8 476.8 419.8 476.8 419.8 474.9C419.8 467.6 419.8 460.3 419.8 453C419.8 451 416.8 451 416.8 453Z" fill="#E8E8E8"/>
<path d="M350.7 476.5C350.7 482.6 350.7 488.7 350.7 494.8C350.7 496.7 353.7 496.7 353.7 494.8C353.7 488.7 353.7 482.6 353.7 476.5C353.7 474.6 350.7 474.6 350.7 476.5Z" fill="#E8E8E8"/>
<path d="M352.4 497.4C380.3 497.4 408.2 497.4 436.1 497.4C438 497.4 438 494.4 436.1 494.4C408.2 494.4 380.3 494.4 352.4 494.4C350.4 494.4 350.4 497.4 352.4 497.4Z" fill="#E8E8E8"/>
<path d="M418.5 477.1C424.7 477.1 430.9 477.1 437.2 477.1C439.1 477.1 439.1 474.1 437.2 474.1C431 474.1 424.8 474.1 418.5 474.1C416.5 474.1 416.5 477.1 418.5 477.1Z" fill="#E8E8E8"/>
<path d="M435.8 476.7C435.8 482.9 435.8 489.1 435.8 495.4C435.8 497.3 438.8 497.3 438.8 495.4C438.8 489.2 438.8 483 438.8 476.7C438.8 474.8 435.8 474.8 435.8 476.7Z" fill="#E8E8E8"/>
<path d="M426.2 496.3C426.2 503.1 426.2 509.8 426.2 516.6C426.2 518.5 429.2 518.5 429.2 516.6C429.2 509.8 429.2 503.1 429.2 496.3C429.2 494.3 426.2 494.3 426.2 496.3Z" fill="#E8E8E8"/>
<path d="M428.1 518.2C451.1 518.2 474.1 518.2 497.1 518.2C499 518.2 499 515.2 497.1 515.2C474.1 515.2 451.1 515.2 428.1 515.2C426.1 515.2 426.1 518.2 428.1 518.2Z" fill="#E8E8E8"/>
<path d="M437.5 497.6C457.5 497.6 477.5 497.6 497.5 497.6C499.4 497.6 499.4 494.6 497.5 494.6C477.5 494.6 457.5 494.6 437.5 494.6C435.6 494.6 435.6 497.6 437.5 497.6Z" fill="#E8E8E8"/>
<path d="M495.8 495.9C495.8 502.4 495.8 508.8 495.8 515.3C495.8 517.2 498.8 517.2 498.8 515.3C498.8 508.8 498.8 502.4 498.8 495.9C498.8 494 495.8 494 495.8 495.9Z" fill="#E8E8E8"/>
<path d="M427.6 515.1C408.5 515.1 389.4 515.1 370.3 515.1C368.4 515.1 368.4 518.1 370.3 518.1C389.4 518.1 408.5 518.1 427.6 518.1C429.5 518.1 429.5 515.1 427.6 515.1Z" fill="#E8E8E8"/>
<path d="M371.5 516.4C371.5 510 371.5 503.6 371.5 497.1C371.5 495.2 368.5 495.2 368.5 497.1C368.5 503.5 368.5 509.9 368.5 516.4C368.5 518.3 371.5 518.3 371.5 516.4Z" fill="#E8E8E8"/>
<path d="M248.2 24.6999C248.2 96.9999 248.2 169.2 248.2 241.5C248.2 243.4 251.2 243.4 251.2 241.5C251.2 169.2 251.2 96.9999 251.2 24.6999C251.2 22.7999 248.2 22.7999 248.2 24.6999Z" fill="#E8E8E8"/>
<path d="M249.5 243.7C319.9 243.7 390.3 243.7 460.7 243.7C480.6 243.7 500.6 243.7 520.5 243.7C522.4 243.7 522.4 240.7 520.5 240.7C450.1 240.7 379.7 240.7 309.3 240.7C289.4 240.7 269.4 240.7 249.5 240.7C247.6 240.7 247.6 243.7 249.5 243.7Z" fill="#E8E8E8"/>
<path d="M250.2 24.7C319.8 24.7 389.4 24.7 459 24.7C478.7 24.7 498.3 24.7 518 24.7C519.9 24.7 519.9 21.7 518 21.7C448.4 21.7 378.8 21.7 309.2 21.7C289.5 21.7 269.9 21.7 250.2 21.7C248.3 21.7 248.3 24.7 250.2 24.7Z" fill="#E8E8E8"/>
<path d="M519.6 24.1C519.6 96.4001 519.6 168.7 519.6 241.1C519.6 243 522.6 243 522.6 241.1C522.6 168.8 522.6 96.5001 522.6 24.1C522.6 22.2 519.6 22.2 519.6 24.1Z" fill="#E8E8E8"/>
<path d="M263 35.7C263 101 263 166.3 263 231.5C263 233.4 266 233.4 266 231.5C266 166.2 266 100.9 266 35.7C266 33.7 263 33.7 263 35.7Z" fill="#E8E8E8"/>
<path d="M264.3 233.6C344.5 233.6 424.7 233.6 504.8 233.6C506.7 233.6 506.7 230.6 504.8 230.6C424.6 230.6 344.4 230.6 264.3 230.6C262.4 230.6 262.3 233.6 264.3 233.6Z" fill="#E8E8E8"/>
<path d="M264.9 35.8C344.1 35.8 423.4 35.8 502.6 35.8C504.5 35.8 504.5 32.8 502.6 32.8C423.4 32.8 344.1 32.8 264.9 32.8C263 32.8 263 35.8 264.9 35.8Z" fill="#E8E8E8"/>
<path d="M503.8 35.1C503.8 100.4 503.8 165.8 503.8 231.1C503.8 233 506.8 233 506.8 231.1C506.8 165.8 506.8 100.4 506.8 35.1C506.8 33.2 503.8 33.2 503.8 35.1Z" fill="#E8E8E8"/>
<path d="M380.7 36C380.7 67.9 380.7 99.7 380.7 131.6C380.7 133.5 383.7 133.5 383.7 131.6C383.7 99.7 383.7 67.9 383.7 36C383.7 34 380.7 34 380.7 36Z" fill="#E8E8E8"/>
<path d="M382.2 130C344.1 130 305.9 130 267.8 130C265.9 130 265.9 133 267.8 133C305.9 133 344.1 133 382.2 133C384.1 133 384.1 130 382.2 130Z" fill="#E8E8E8"/>
<path d="M395.6 36C395.6 67.6 395.6 99.1 395.6 130.7C395.6 132.6 398.6 132.6 398.6 130.7C398.6 99.1 398.6 67.6 398.6 36C398.6 34 395.6 34 395.6 36Z" fill="#E8E8E8"/>
<path d="M397.1 133.9C432.3 133.9 467.5 133.9 502.7 133.9C504.6 133.9 504.6 130.9 502.7 130.9C467.5 130.9 432.3 130.9 397.1 130.9C395.1 130.9 395.1 133.9 397.1 133.9Z" fill="#E8E8E8"/>
<path d="M266.9 147.9C305.2 147.9 343.5 147.9 381.7 147.9C383.6 147.9 383.6 144.9 381.7 144.9C343.4 144.9 305.1 144.9 266.9 144.9C265 144.9 264.9 147.9 266.9 147.9Z" fill="#E8E8E8"/>
<path d="M380.2 146.8C380.2 174.9 380.2 202.9 380.2 231C380.2 232.9 383.2 232.9 383.2 231C383.2 202.9 383.2 174.9 383.2 146.8C383.2 144.9 380.2 144.9 380.2 146.8Z" fill="#E8E8E8"/>
<path d="M395.1 149C395.1 176.3 395.1 203.6 395.1 231C395.1 232.9 398.1 232.9 398.1 231C398.1 203.7 398.1 176.4 398.1 149C398.1 147.1 395.1 147.1 395.1 149Z" fill="#E8E8E8"/>
<path d="M396.2 151C432.3 151 468.4 151 504.5 151C506.4 151 506.4 148 504.5 148C468.4 148 432.3 148 396.2 148C394.3 148 394.2 151 396.2 151Z" fill="#E8E8E8"/>
<path d="M471 36.7C448.5 62.0999 427.4 88.7 407.6 116.3C406.5 117.9 409.1 119.4 410.2 117.8C429.8 90.3999 450.8 64 473.1 38.8C474.4 37.4 472.3 35.2 471 36.7Z" fill="#E8E8E8"/>
<path d="M470.8 73.7001C460.4 86.3001 450 98.9001 439.6 111.4C438.4 112.9 440.5 115 441.7 113.5C452.1 100.9 462.5 88.3001 472.9 75.8001C474.1 74.3001 472 72.2001 470.8 73.7001Z" fill="#E8E8E8"/>
<path d="M278.4 229.9C304.6 203.7 330.8 177.4 357 151.2C358.4 149.8 356.2 147.7 354.9 149.1C328.7 175.3 302.5 201.6 276.3 227.8C275 229.1 277.1 231.2 278.4 229.9Z" fill="#E8E8E8"/>
<path d="M323.7 220.7C332.6 209.3 342 198.5 352.1 188.2C353.5 186.8 351.3 184.7 350 186.1C339.9 196.4 330.4 207.2 321.6 218.6C320.4 220.1 322.5 222.3 323.7 220.7Z" fill="#E8E8E8"/>
<path d="M1006.4 21.4001C1006.4 93.7001 1006.4 165.9 1006.4 238.2C1006.4 240.1 1009.4 240.1 1009.4 238.2C1009.4 165.9 1009.4 93.7001 1009.4 21.4001C1009.4 19.5001 1006.4 19.5001 1006.4 21.4001Z" fill="#E8E8E8"/>
<path d="M1007.7 240.4C1078.1 240.4 1148.5 240.4 1218.9 240.4C1238.8 240.4 1258.8 240.4 1278.7 240.4C1280.6 240.4 1280.6 237.4 1278.7 237.4C1208.3 237.4 1137.9 237.4 1067.5 237.4C1047.6 237.4 1027.6 237.4 1007.7 237.4C1005.8 237.4 1005.8 240.4 1007.7 240.4Z" fill="#E8E8E8"/>
<path d="M1008.4 21.5C1078 21.5 1147.6 21.5 1217.2 21.5C1236.9 21.5 1256.5 21.5 1276.2 21.5C1278.1 21.5 1278.1 18.5 1276.2 18.5C1206.6 18.5 1137 18.5 1067.4 18.5C1047.7 18.5 1028.1 18.5 1008.4 18.5C1006.5 18.5 1006.5 21.5 1008.4 21.5Z" fill="#E8E8E8"/>
<path d="M1277.8 20.8C1277.8 93.1 1277.8 165.4 1277.8 237.8C1277.8 239.7 1280.8 239.7 1280.8 237.8C1280.8 165.5 1280.8 93.2 1280.8 20.8C1280.8 18.9 1277.8 18.9 1277.8 20.8Z" fill="#E8E8E8"/>
<path d="M1021.2 32.3999C1021.2 97.6999 1021.2 163 1021.2 228.2C1021.2 230.1 1024.2 230.1 1024.2 228.2C1024.2 162.9 1024.2 97.5999 1024.2 32.3999C1024.2 30.3999 1021.2 30.3999 1021.2 32.3999Z" fill="#E8E8E8"/>
<path d="M1022.5 230.3C1102.7 230.3 1182.9 230.3 1263 230.3C1264.9 230.3 1264.9 227.3 1263 227.3C1182.8 227.3 1102.6 227.3 1022.5 227.3C1020.5 227.3 1020.5 230.3 1022.5 230.3Z" fill="#E8E8E8"/>
<path d="M1023.1 32.5C1102.3 32.5 1181.6 32.5 1260.8 32.5C1262.7 32.5 1262.7 29.5 1260.8 29.5C1181.6 29.5 1102.3 29.5 1023.1 29.5C1021.2 29.5 1021.2 32.5 1023.1 32.5Z" fill="#E8E8E8"/>
<path d="M1262 31.8C1262 97.1 1262 162.5 1262 227.8C1262 229.7 1265 229.7 1265 227.8C1265 162.5 1265 97.1 1265 31.8C1265 29.9 1262 29.9 1262 31.8Z" fill="#E8E8E8"/>
<path d="M1138.9 32.7C1138.9 64.6 1138.9 96.3999 1138.9 128.3C1138.9 130.2 1141.9 130.2 1141.9 128.3C1141.9 96.3999 1141.9 64.6 1141.9 32.7C1141.9 30.7 1138.9 30.7 1138.9 32.7Z" fill="#E8E8E8"/>
<path d="M1140.4 126.7C1102.3 126.7 1064.1 126.7 1026 126.7C1024.1 126.7 1024.1 129.7 1026 129.7C1064.1 129.7 1102.3 129.7 1140.4 129.7C1142.3 129.7 1142.3 126.7 1140.4 126.7Z" fill="#E8E8E8"/>
<path d="M1153.8 32.7C1153.8 64.2999 1153.8 95.7999 1153.8 127.4C1153.8 129.3 1156.8 129.3 1156.8 127.4C1156.8 95.7999 1156.8 64.2999 1156.8 32.7C1156.8 30.7 1153.8 30.7 1153.8 32.7Z" fill="#E8E8E8"/>
<path d="M1155.3 130.6C1190.5 130.6 1225.7 130.6 1260.9 130.6C1262.8 130.6 1262.8 127.6 1260.9 127.6C1225.7 127.6 1190.5 127.6 1155.3 127.6C1153.3 127.6 1153.3 130.6 1155.3 130.6Z" fill="#E8E8E8"/>
<path d="M1025.1 144.6C1063.4 144.6 1101.7 144.6 1139.9 144.6C1141.8 144.6 1141.8 141.6 1139.9 141.6C1101.6 141.6 1063.3 141.6 1025.1 141.6C1023.1 141.6 1023.1 144.6 1025.1 144.6Z" fill="#E8E8E8"/>
<path d="M1138.4 143.6C1138.4 171.7 1138.4 199.7 1138.4 227.8C1138.4 229.7 1141.4 229.7 1141.4 227.8C1141.4 199.7 1141.4 171.7 1141.4 143.6C1141.4 141.6 1138.4 141.6 1138.4 143.6Z" fill="#E8E8E8"/>
<path d="M1153.3 145.8C1153.3 173.1 1153.3 200.4 1153.3 227.8C1153.3 229.7 1156.3 229.7 1156.3 227.8C1156.3 200.5 1156.3 173.2 1156.3 145.8C1156.3 143.8 1153.3 143.8 1153.3 145.8Z" fill="#E8E8E8"/>
<path d="M1154.4 147.7C1190.5 147.7 1226.6 147.7 1262.7 147.7C1264.6 147.7 1264.6 144.7 1262.7 144.7C1226.6 144.7 1190.5 144.7 1154.4 144.7C1152.4 144.7 1152.4 147.7 1154.4 147.7Z" fill="#E8E8E8"/>
<path d="M1229.2 33.3999C1206.7 58.7999 1185.6 85.3999 1165.8 113C1164.7 114.6 1167.3 116.1 1168.4 114.5C1188 87.0999 1209 60.6999 1231.3 35.4999C1232.6 34.0999 1230.5 31.9999 1229.2 33.3999Z" fill="#E8E8E8"/>
<path d="M1229 70.4001C1218.6 83.0001 1208.2 95.6001 1197.8 108.1C1196.6 109.6 1198.7 111.7 1199.9 110.2C1210.3 97.6001 1220.7 85.0001 1231.1 72.5001C1232.3 71.0001 1230.2 68.9001 1229 70.4001Z" fill="#E8E8E8"/>
<path d="M1036.6 226.6C1062.8 200.4 1089 174.1 1115.2 147.9C1116.6 146.5 1114.4 144.4 1113.1 145.8C1086.9 172 1060.7 198.3 1034.5 224.5C1033.2 225.8 1035.3 227.9 1036.6 226.6Z" fill="#E8E8E8"/>
<path d="M1081.9 217.5C1090.8 206.1 1100.2 195.3 1110.3 185C1111.7 183.6 1109.5 181.5 1108.2 182.9C1098.1 193.2 1088.6 204 1079.8 215.4C1078.6 216.8 1080.7 219 1081.9 217.5Z" fill="#E8E8E8"/>
<path d="M1001 345.2C1036.3 345.2 1071.7 345.2 1107 345.2C1108.9 345.2 1108.9 342.2 1107 342.2C1071.7 342.2 1036.3 342.2 1001 342.2C999.1 342.2 999.1 345.2 1001 345.2Z" fill="#E8E8E8"/>
<path d="M1052.8 345C1052.8 351.7 1052.8 358.3 1052.8 365C1052.8 366.9 1055.8 366.9 1055.8 365C1055.8 358.3 1055.8 351.7 1055.8 345C1055.8 343.1 1052.8 343.1 1052.8 345Z" fill="#E8E8E8"/>
<path d="M1054.3 366.5C1082.1 366.5 1109.9 366.5 1137.6 366.5C1139.5 366.5 1139.5 363.5 1137.6 363.5C1109.8 363.5 1082 363.5 1054.3 363.5C1052.4 363.5 1052.4 366.5 1054.3 366.5Z" fill="#E8E8E8"/>
<path d="M1106.8 344.3C1106.8 350.7 1106.8 357.2 1106.8 363.6C1106.8 365.5 1109.8 365.5 1109.8 363.6C1109.8 357.2 1109.8 350.7 1109.8 344.3C1109.8 342.4 1106.8 342.4 1106.8 344.3Z" fill="#E8E8E8"/>
<path d="M1002.5 343C1002.5 337.7 1002.5 332.3 1002.5 327C1002.5 325.1 999.5 325.1 999.5 327C999.5 332.3 999.5 337.7 999.5 343C999.5 344.9 1002.5 344.9 1002.5 343Z" fill="#E8E8E8"/>
<path d="M1002.3 327.8C1028.1 327.8 1053.9 327.8 1079.6 327.8C1081.5 327.8 1081.5 324.8 1079.6 324.8C1053.8 324.8 1028 324.8 1002.3 324.8C1000.4 324.8 1000.4 327.8 1002.3 327.8Z" fill="#E8E8E8"/>
<path d="M1078.8 328.3C1078.8 333.4 1078.8 338.5 1078.8 343.6C1078.8 345.5 1081.8 345.5 1081.8 343.6C1081.8 338.5 1081.8 333.4 1081.8 328.3C1081.8 326.4 1078.8 326.4 1078.8 328.3Z" fill="#E8E8E8"/>
<path d="M985 367.2C1009.7 367.2 1034.3 367.2 1059 367.2C1060.9 367.2 1060.9 364.2 1059 364.2C1034.3 364.2 1009.7 364.2 985 364.2C983.1 364.2 983.1 367.2 985 367.2Z" fill="#E8E8E8"/>
<path d="M982.8 367C982.8 372.6 982.8 378.1 982.8 383.7C982.8 385.6 985.8 385.6 985.8 383.7C985.8 378.1 985.8 372.6 985.8 367C985.8 365.1 982.8 365.1 982.8 367Z" fill="#E8E8E8"/>
<path d="M984.3 386.5C1007.9 386.5 1031.4 386.5 1055 386.5C1056.9 386.5 1056.9 383.5 1055 383.5C1031.4 383.5 1007.9 383.5 984.3 383.5C982.4 383.5 982.4 386.5 984.3 386.5Z" fill="#E8E8E8"/>
<path d="M1053.5 367C1053.5 372.8 1053.5 378.6 1053.5 384.3C1053.5 386.2 1056.5 386.2 1056.5 384.3C1056.5 378.5 1056.5 372.7 1056.5 367C1056.5 365.1 1053.5 365.1 1053.5 367Z" fill="#E8E8E8"/>
<path d="M489.8 301.1C533.4 301.1 576.9 301.1 620.5 301.1C622.4 301.1 622.4 298.1 620.5 298.1C576.9 298.1 533.4 298.1 489.8 298.1C487.9 298.1 487.9 301.1 489.8 301.1Z" fill="#E8E8E8"/>
<path d="M490.7 299.6C490.7 294 490.7 288.4 490.7 282.8C490.7 280.9 487.7 280.9 487.7 282.8C487.7 288.4 487.7 294 487.7 299.6C487.7 301.5 490.7 301.5 490.7 299.6Z" fill="#E8E8E8"/>
<path d="M490.9 282.5C514.2 282.5 537.6 282.5 560.9 282.5C562.8 282.5 562.8 279.5 560.9 279.5C537.6 279.5 514.2 279.5 490.9 279.5C489 279.5 489 282.5 490.9 282.5Z" fill="#E8E8E8"/>
<path d="M559.4 282.8C559.4 288.2 559.4 293.6 559.4 299C559.4 300.9 562.4 300.9 562.4 299C562.4 293.6 562.4 288.2 562.4 282.8C562.4 280.8 559.4 280.8 559.4 282.8Z" fill="#E8E8E8"/>
<path d="M540.3 301.9C540.3 307.5 540.3 313.1 540.3 318.7C540.3 320.6 543.3 320.6 543.3 318.7C543.3 313.1 543.3 307.5 543.3 301.9C543.3 299.9 540.3 299.9 540.3 301.9Z" fill="#E8E8E8"/>
<path d="M542.4 321.3C567.8 321.3 593.3 321.3 618.7 321.3C620.6 321.3 620.6 318.3 618.7 318.3C593.3 318.3 567.8 318.3 542.4 318.3C540.5 318.3 540.5 321.3 542.4 321.3Z" fill="#E8E8E8"/>
<path d="M619 301.3C619 307.7 619 314 619 320.4C619 322.3 622 322.3 622 320.4C622 314 622 307.7 622 301.3C622 299.4 619 299.4 619 301.3Z" fill="#E8E8E8"/>
<path d="M558.8 320.9C558.8 326.1 558.8 331.3 558.8 336.5C558.8 338.4 561.8 338.4 561.8 336.5C561.8 331.3 561.8 326.1 561.8 320.9C561.8 319 558.8 319 558.8 320.9Z" fill="#E8E8E8"/>
<path d="M559.2 336.2C537 336.2 514.9 336.2 492.7 336.2C490.8 336.2 490.8 339.2 492.7 339.2C514.9 339.2 537 339.2 559.2 339.2C561.1 339.2 561.1 336.2 559.2 336.2Z" fill="#E8E8E8"/>
<path d="M545.3 318.9C527.9 318.9 510.6 318.9 493.2 318.9C491.3 318.9 491.3 321.9 493.2 321.9C510.6 321.9 527.9 321.9 545.3 321.9C547.2 321.9 547.2 318.9 545.3 318.9Z" fill="#E8E8E8"/>
<path d="M491.8 320.4C491.8 326 491.8 331.6 491.8 337.2C491.8 339.1 494.8 339.1 494.8 337.2C494.8 331.6 494.8 326 494.8 320.4C494.8 318.4 491.8 318.4 491.8 320.4Z" fill="#E8E8E8"/>
<path d="M1183.4 546.3C1210.9 546.3 1238.4 546.3 1265.9 546.3C1267.8 546.3 1267.8 543.3 1265.9 543.3C1238.4 543.3 1210.9 543.3 1183.4 543.3C1181.5 543.3 1181.5 546.3 1183.4 546.3Z" fill="#E8E8E8"/>
<path d="M1232.5 544C1232.5 537.8 1232.5 531.6 1232.5 525.4C1232.5 523.5 1229.5 523.5 1229.5 525.4C1229.5 531.6 1229.5 537.8 1229.5 544C1229.5 545.9 1232.5 545.9 1232.5 544Z" fill="#E8E8E8"/>
<path d="M1231.8 526.5C1255.3 526.5 1278.8 526.5 1302.4 526.5C1304.3 526.5 1304.3 523.5 1302.4 523.5C1278.9 523.5 1255.4 523.5 1231.8 523.5C1229.8 523.5 1229.8 526.5 1231.8 526.5Z" fill="#E8E8E8"/>
<path d="M1300.8 525.8C1300.8 531.1 1300.8 536.4 1300.8 541.7C1300.8 543.6 1303.8 543.6 1303.8 541.7C1303.8 536.4 1303.8 531.1 1303.8 525.8C1303.8 523.8 1300.8 523.8 1300.8 525.8Z" fill="#E8E8E8"/>
<path d="M1263.9 545.9C1276.3 545.9 1288.7 545.9 1301.2 545.9C1303.1 545.9 1303.1 542.9 1301.2 542.9C1288.8 542.9 1276.4 542.9 1263.9 542.9C1261.9 542.9 1261.9 545.9 1263.9 545.9Z" fill="#E8E8E8"/>
<path d="M1180.3 546.4C1180.3 551.2 1180.3 555.9 1180.3 560.7C1180.3 562.6 1183.3 562.6 1183.3 560.7C1183.3 555.9 1183.3 551.2 1183.3 546.4C1183.3 544.5 1180.3 544.4 1180.3 546.4Z" fill="#E8E8E8"/>
<path d="M1182.2 563.7C1208.2 563.7 1234.3 563.7 1260.3 563.7C1262.2 563.7 1262.2 560.7 1260.3 560.7C1234.3 560.7 1208.2 560.7 1182.2 560.7C1180.3 560.7 1180.3 563.7 1182.2 563.7Z" fill="#E8E8E8"/>
<path d="M1259.6 545.2C1259.6 550.6 1259.6 556 1259.6 561.5C1259.6 563.4 1262.6 563.4 1262.6 561.5C1262.6 556.1 1262.6 550.7 1262.6 545.2C1262.6 543.3 1259.6 543.3 1259.6 545.2Z" fill="#E8E8E8"/>
<path d="M1191.3 502.3C1216.5 502.3 1241.8 502.3 1267 502.3C1268.9 502.3 1268.9 499.3 1267 499.3C1241.8 499.3 1216.5 499.3 1191.3 499.3C1189.4 499.3 1189.4 502.3 1191.3 502.3Z" fill="#E8E8E8"/>
<path d="M1265.5 502C1265.5 509.7 1265.5 517.3 1265.5 525C1265.5 526.9 1268.5 526.9 1268.5 525C1268.5 517.3 1268.5 509.7 1268.5 502C1268.5 500 1265.5 500 1265.5 502Z" fill="#E8E8E8"/>
<path d="M1190.6 501.2C1190.6 508.3 1190.6 515.5 1190.6 522.6C1190.6 524.5 1193.6 524.5 1193.6 522.6C1193.6 515.5 1193.6 508.3 1193.6 501.2C1193.6 499.3 1190.6 499.3 1190.6 501.2Z" fill="#E8E8E8"/>
<path d="M1194.1 525.7C1211.9 525.7 1229.8 525.7 1247.6 525.7C1249.5 525.7 1249.5 522.7 1247.6 522.7C1229.8 522.7 1211.9 522.7 1194.1 522.7C1192.2 522.7 1192.2 525.7 1194.1 525.7Z" fill="#E8E8E8"/>
<path d="M358.6 815.6C375 815.6 391.4 815.6 407.8 815.6C409.7 815.6 409.7 812.6 407.8 812.6C391.4 812.6 375 812.6 358.6 812.6C356.7 812.6 356.7 815.6 358.6 815.6Z" fill="#161616"/>
<path d="M232.5 815.8C375.6 815.8 518.6 815.8 661.7 815.8C804 815.8 946.4 815.8 1088.7 815.8C1169 815.8 1249.3 815.8 1329.6 815.8C1333.5 815.8 1333.5 809.8 1329.6 809.8C1186.5 809.8 1043.5 809.8 900.4 809.8C758.1 809.8 615.7 809.8 473.4 809.8C393.1 809.8 312.8 809.8 232.5 809.8C228.6 809.8 228.6 815.8 232.5 815.8Z" fill="#161616"/>
<path d="M1137.9 836C1207.3 836 1276.6 836 1346 836C1349.9 836 1349.9 830 1346 830C1276.6 830 1207.3 830 1137.9 830C1134.1 830 1134.1 836 1137.9 836Z" fill="#161616"/>
<path d="M424.2 911.6C502 911.6 579.7 911.6 657.5 911.6C661.4 911.6 661.4 905.6 657.5 905.6C579.7 905.6 502 905.6 424.2 905.6C420.3 905.6 420.3 911.6 424.2 911.6Z" fill="#161616"/>
<path d="M3.0002 882.3C54.9002 882.3 106.8 882.3 158.7 882.3C162.6 882.3 162.6 876.3 158.7 876.3C106.8 876.3 54.9002 876.3 3.0002 876.3C-0.899805 876.3 -0.899805 882.3 3.0002 882.3Z" fill="#161616"/>
<path d="M191.5 855C248.4 855 305.3 855 362.2 855C366.1 855 366.1 849 362.2 849C305.3 849 248.4 849 191.5 849C187.6 849 187.6 855 191.5 855Z" fill="#161616"/>
<path d="M154.9 774C231.7 731.9 305 683.6 376.7 633.3C448.5 582.9 519 530.5 590.7 479.9C630.9 451.6 671.5 423.8 712.9 397.3C714.5 396.3 713 393.7 711.4 394.7C637.5 442 566.3 493.3 495.2 544.7C424.2 596.1 353.2 647.7 279.7 695.4C238.5 722.1 196.6 747.7 153.5 771.3C151.7 772.3 153.2 774.9 154.9 774Z" fill="#161616"/>
<path d="M99.2999 753.4C93.2999 756.7 89.2999 761 87.1999 763.3C83.9999 766.8 81.7999 769.1 80.0999 772.6C77.4999 778.2 77.7999 784.5 78.5999 796.9C79.1999 806.1 79.7999 805.2 79.3999 807.3C77.1999 818.7 64.6999 820.8 64.9999 828.5C65.1999 833.3 69.9999 837.2 74.0999 838.6C80.3999 840.8 87.9999 838 92.4999 831.5C87.6999 833.9 80.6999 838.5 76.2999 846.7C74.6999 849.7 72.5999 853.6 73.9999 855.5C76.3999 858.8 87.2999 854.9 96.9999 850.7C96.4999 853 96.3999 855.8 97.9999 857.8C101.9 862.7 113.4 858.8 116.4 857.8C119.8 856.6 120.3 856 135.6 846.4C143.6 841.4 146.4 839.7 151 836.3C154.9 833.4 157.9 830.9 160.1 829C167.3 829.2 176 828.8 185.6 827C203.7 823.5 217.6 816.4 226.5 810.8C227.2 813.7 227.8 816.7 228.5 819.6C219.8 825 213.1 829 208.5 831.7C205.6 833.4 202.6 835.2 202.9 836.5C203.4 838.4 210.2 838.3 214.5 838.3C219.3 838.3 223.3 837.7 226.1 837.3C226.3 838 227 839.9 228.9 840.8C231.7 842.3 235.3 840.6 235.2 840.3C235.2 840.1 233.7 840.1 233.7 840C233.7 839.8 244.6 839.8 252.1 839.2C258.4 838.7 267.6 837.5 278.9 833.9C280.8 826.2 281.2 820.2 281.2 816C281.2 812.9 281 811.3 281.5 808.2C282.4 802.1 284.3 800.1 285.3 795.6C286 792.6 286.2 788.1 284.3 782.2C287.6 780.9 289.8 779.1 291.1 777.9C291.4 777.6 298.2 771 297.4 762C297.2 760.1 297 757.6 295.4 756.7C292.8 755.3 288.3 758.9 286.1 761.5C282.2 766 282 771.6 282.1 774.1C279.4 769.9 274 762.7 264.7 758.2C261 756.4 257.3 755.3 253.3 754.7C234.5 751.5 212.4 758 198.5 763C180.3 769.6 171.6 775.3 160.4 773.4C157 772.8 149.6 771.5 144.5 765.8C142.5 763.6 142.3 762.3 139.7 759.2C138.8 758.1 134.1 752.6 128.1 749.9C115.9 744.3 102.1 751.9 99.2999 753.4Z" fill="white"/>
<path d="M150.5 771.5C148.2 776.8 145 781.6 141 785.9C139.7 787.3 141.8 789.4 143.1 788C147.3 783.6 150.6 778.6 153 773C153.9 771.2 151.3 769.7 150.5 771.5Z" fill="#EC615B"/>
<path d="M151.9 772.7C149.6 779.1 146.1 784.7 141.4 789.5C140.1 790.9 142.2 793 143.5 791.6C148.6 786.4 152.3 780.3 154.8 773.5C155.4 771.7 152.5 770.9 151.9 772.7Z" fill="#EC615B"/>
<path d="M102.6 776.9C104.5 789.1 106.3 801.7 112.2 812.8C116.4 820.8 125.2 828.4 134.6 823.5C143.9 818.6 145.2 806.6 144.6 797.2C143.9 786.9 140.3 777 132.8 769.7C131.4 768.4 129.3 770.5 130.7 771.8C137 778 140.4 786.2 141.4 794.9C142.4 803.8 142.1 816.7 132.7 821.1C121.3 826.3 114.2 811.3 111.4 802.9C108.4 794.2 107 785.2 105.7 776.1C105.2 774.2 102.3 775 102.6 776.9Z" fill="#161616"/>
<path d="M98.8001 751.8C87.5001 759.7 77.2001 769.9 75.7001 784.3C75.4001 787.7 75.6001 791.1 76.4001 794.3C77.6001 799 80.2001 802.9 77.4001 807.7C73.0001 815.3 66.7001 822.4 61.5001 829.5C60.4001 831.1 63.0001 832.6 64.1001 831C69.0001 824.3 74.1001 817.7 78.8001 810.9C82.8001 805.2 81.7001 801.4 79.8001 795C74.4001 777.7 87.3001 763.4 100.4 754.3C101.9 753.3 100.4 750.7 98.8001 751.8Z" fill="#161616"/>
<path d="M61.4002 832.1C65.6002 835.9 70.2002 840 76.1002 840.6C81.5002 841.1 86.7002 838.2 90.9002 835.2C100.4 828.5 107.2 819 111.6 808.3C112.3 806.5 109.4 805.7 108.7 807.5C105.2 816.1 99.8002 824 92.7002 830C88.7002 833.3 83.5002 837.3 78.1002 837.6C72.2002 838 67.5002 833.6 63.5002 829.9C62.1002 828.7 60.0002 830.8 61.4002 832.1Z" fill="#161616"/>
<path d="M80.5998 796.7C82.0998 799.5 83.7998 802.1 85.8998 804.4C87.1998 805.9 89.2998 803.7 87.9998 802.3C86.0998 800.1 84.4998 797.7 83.1998 795.2C82.1998 793.5 79.6998 795 80.5998 796.7Z" fill="#161616"/>
<path d="M65.9999 826.8C67.9999 829.1 68.5999 832 68.2999 834.9C68.0999 836.8 71.0999 836.8 71.2999 834.9C71.6999 831.2 70.5999 827.5 68.0999 824.7C66.7999 823.3 64.6999 825.4 65.9999 826.8Z" fill="#161616"/>
<path d="M63.3001 831.2C64.5001 832.1 65.6001 833.1 66.8001 834C68.0001 835 70.2001 833.7 69.2001 832.2C68.4001 831 67.9001 829.6 67.9001 828.1C67.0001 828.4 66.0001 828.6 65.1001 828.9C65.4001 829.3 65.7001 829.7 65.9001 830.1C67.0001 831.7 69.6001 830.2 68.5001 828.6C68.2001 828.2 67.9001 827.8 67.7001 827.4C66.9001 826.3 64.9001 826.6 64.9001 828.2C64.9001 830.2 65.5001 832.1 66.6001 833.8C67.4001 833.2 68.2001 832.6 69.0001 832C67.8001 831.1 66.7001 830.1 65.5001 829.2C64.9001 828.7 64.0001 828.6 63.4001 829.2C62.8001 829.6 62.7001 830.7 63.3001 831.2Z" fill="#161616"/>
<path d="M122.7 749.6C131.3 751.7 137.1 758.3 142.3 765C147.3 771.3 150.7 774.7 159.1 774.2C176.5 773.1 193.1 766.5 209.6 761.5C226.6 756.4 248.1 750.8 264.9 759.4C282.3 768.3 288.8 789.7 280.1 807C279.2 808.7 281.8 810.2 282.7 808.5C295.2 783.5 278.6 755.4 251.4 752.5C220.2 749.2 192 767.7 161.6 770.9C155.9 771.5 151.1 771.2 147.1 766.4C144.7 763.5 142.5 760.4 140 757.6C135.4 752.5 130.1 748.3 123.3 746.6C121.6 746.2 120.8 749.1 122.7 749.6Z" fill="#161616"/>
<path d="M250.4 778.2C242.6 784.4 236.9 792.5 237.5 802.9C238.1 812.1 243.6 820 251.8 824.2C253.5 825.1 255 822.5 253.3 821.6C245.6 817.6 240.4 810.1 240.5 801.2C240.6 792.2 245.8 785.6 252.5 780.3C254 779.2 251.9 777 250.4 778.2Z" fill="#161616"/>
<path d="M252 823.4C246.4 825.1 240.9 827.1 235.5 829.5C232.5 830.9 225.1 832.9 224.1 836.6C222 844.4 241.4 841.3 244.3 841.1C250.1 840.7 255.9 840.1 261.7 839.2C266.8 838.4 273.7 838.3 278.3 835.8C281.8 834 281.5 830.1 281.7 826.6C282.2 819.7 282.8 812.9 283.3 806C283.5 804.1 280.5 804.1 280.3 806C280 810.4 279.6 814.7 279.3 819.1C279 823.1 279.9 831.1 276 833.4C273.3 835 268.6 835 265.5 835.5C260.6 836.3 255.8 837 250.8 837.5C246.7 837.9 242.6 838.2 238.5 838.3C236.3 838.4 234.1 838.6 231.9 838.5C230 838.4 226.8 839.1 228.1 836.4C228.7 835.3 232.5 834 233.7 833.5C236 832.4 238.4 831.3 240.8 830.3C244.7 828.7 248.7 827.4 252.7 826.2C254.7 825.7 253.9 822.8 252 823.4Z" fill="#161616"/>
<path d="M142.1 802.9C142.8 819.6 129.1 830.8 115.7 838C110 841 88.5 847.8 96.1 858C102.8 867 119.3 857.7 126.6 853.8C139.2 847.1 150.2 838 161.2 828.9C162.7 827.7 160.6 825.6 159.1 826.8C149.6 834.6 140.1 842.5 129.5 848.7C124.1 851.9 118.4 854.7 112.4 856.7C109 857.8 104.5 859.6 101.1 857.9C94.1 854.5 99.9 849.4 103.9 847.2C121.9 837.7 146.2 827.1 145.1 802.8C145 801 142 801 142.1 802.9Z" fill="#161616"/>
<path d="M83.7001 796.8C84.2001 793.4 86.0001 790.3 89.1001 788.7C90.8001 787.8 89.3001 785.2 87.6001 786.1C83.8001 788.1 81.4001 791.9 80.8001 796C80.5001 797.9 83.4001 798.7 83.7001 796.8Z" fill="#161616"/>
<path d="M96.2002 825.4C94.6002 828.4 91.6002 830.1 89.0002 832.2C86.3002 834.4 83.7002 836.8 81.2002 839.3C78.2002 842.4 71.5002 847.8 71.2002 852.5C70.5002 864.1 92.1002 854.1 96.2002 852.8C98.0002 852.2 97.2002 849.3 95.4002 849.9C90.9002 851.4 86.5002 853 81.9002 854.3C80.6002 854.8 79.2002 855.1 77.9002 855.2C75.4002 852.3 75.3002 849.8 77.4002 847.9C78.4002 846.2 80.2002 844.7 81.5002 843.3C84.5002 840.1 87.7002 837.1 91.1002 834.3C93.9002 832 97.0002 830.2 98.7002 826.9C99.7002 825.2 97.1002 823.7 96.2002 825.4Z" fill="#161616"/>
<path d="M160.9 830C189 830.1 216.6 821.4 239.5 805.1C241.1 804 239.6 801.4 238 802.5C215.5 818.5 188.6 827.1 160.9 827C159 826.9 159 829.9 160.9 830Z" fill="#161616"/>
<path d="M224 812.2C224.6 813.9 225.1 815.5 225.7 817.2C226.6 819.7 227.4 820.5 224.9 822C221.8 823.9 218.1 825.3 214.8 826.9C211.4 828.5 208 830 204.7 831.8C203.1 832.6 201.6 833.5 200.9 835.2C197.3 844.8 220.9 839.4 224.4 838.3C226.2 837.7 225.4 834.8 223.6 835.4C220.9 836.3 218.1 837 215.3 837.3C213.5 837.5 208.5 838.6 206.7 837.6C201.9 834.9 209.6 832.7 211.2 831.9C213.7 830.7 216.2 829.4 218.8 828.2C221.6 826.8 228.4 825.2 229.7 822.1C230.9 819.3 227.7 813.9 226.8 811.3C226.3 809.6 223.4 810.4 224 812.2Z" fill="#161616"/>
<path d="M283.5 773.7C283.4 769.8 284.1 766.1 286.2 762.7C287.1 761.3 288.4 759.4 290 758.7C298.4 755.2 296.9 763.1 296.2 765.9C294.4 772.3 289.4 777.5 283.9 780.9C282.2 781.9 283.8 784.5 285.4 783.5C290.8 780.3 295.2 775.7 297.9 769.9C299.6 766.1 301.3 760.5 298 757.1C295 754 290.2 754.8 287.1 757.2C282.2 761 280.4 767.8 280.6 773.8C280.6 775.6 283.6 775.7 283.5 773.7Z" fill="#161616"/>
<path d="M99.8002 755.2C106.4 750.8 116.9 746.3 124.6 750.3C126.3 751.2 127.8 748.6 126.1 747.7C117.3 743.1 105.9 747.6 98.3002 752.6C96.7002 753.6 98.2002 756.2 99.8002 755.2Z" fill="#161616"/>
<path opacity="0.09" d="M133 769.5C136 770.7 143.6 774.1 149 782.3C151.3 785.8 157 794.5 153.8 804.3C150.9 813.1 142.7 817 140.8 817.8C142.1 815 143.9 810.5 144.3 804.8C144.8 797.6 143 792.2 141 786.3C139.6 782 137.2 776.1 133 769.5Z" fill="#6D6C6C"/>
<path opacity="0.13" d="M103 800.8C100.2 811.7 94.9999 818.8 92.1999 822.6C86.3999 830.5 79.8999 835.8 74.8999 839.1C78.6999 838.6 84.1999 837.2 89.8999 833.8C91.4999 832.8 98.6999 828.5 104.2 819.5C107.2 814.6 108.7 810.1 109.5 807C107.8 797.6 106.2 788.2 104.5 778.7C105.1 783.6 105.4 791.5 103 800.8Z" fill="#6D6C6C"/>
<path opacity="0.07" d="M276 766.8C276.9 771.5 277.9 778.8 276.5 787.6C274.1 803.2 265.9 813.4 262.2 817.9C250.5 832.2 236 837.9 229.2 840.2C245 839.7 257.8 838.3 267.2 836.9C273.6 836 277.7 835.2 280.2 831.9C284.4 826.3 279.4 820.3 281.7 806.9C283.2 797.8 285.9 797.2 286.2 790.6C286.5 784.6 284.7 776.6 276 766.8Z" fill="#6D6C6C"/>
<path opacity="0.14" d="M226.3 812.5C227 813.6 229.3 817.3 228.1 820.8C227.8 821.6 227 823.4 222.3 825.8C214.3 830 209.8 828.3 206 832.6C205.7 832.9 203.1 835.9 204 837.9C204.9 839.8 208.9 839.6 212.3 839.4C215.6 839.2 220.3 838.5 225.8 836.4C229 834.3 232.9 832 237.6 829.9C242.8 827.6 247.6 826.1 251.6 825.1C251.2 823.8 250.3 821.9 248.8 819.8C246.1 816.2 243.6 815.7 241.3 812.5C240.3 811.1 239 808.8 238.5 805.2C234.4 807.7 230.3 810.1 226.3 812.5Z" fill="#6D6C6C"/>
<path opacity="0.25" d="M295.5 757.5C295.3 760.1 294.7 764 293 768.3C290 776 285.5 780.1 286.2 780.8C286.8 781.4 291.2 778.7 294 774.8C296.3 771.5 296.9 768.3 297 767.3C297.7 762.6 296.2 758.9 295.5 757.5Z" fill="#6D6C6C"/>
<path d="M921.6 746.2C944.2 767.4 966.7 788.7 989.3 809.9C962.9 863.6 952.3 892 957.5 895.2C963.9 899.2 994.9 863.9 1050.6 789.1C1012.2 761.1 973.8 733.1 935.4 705C930.8 718.8 926.2 732.5 921.6 746.2Z" fill="#191919"/>
<path d="M824.8 436.6C816.4 449.4 821.2 461.1 826 505.3C830.9 550.1 826.8 545.4 830.8 576.4C837.6 628.8 852.6 666.7 864.6 696.4C864.6 696.4 881.5 738.5 914.6 777.2C915.5 778.3 917.6 780.5 920.6 782.6C923.6 784.7 930 789.1 937.5 788C945.4 786.9 951.4 780.2 953.8 774.1C956.5 767.2 953.3 764 956.8 758.4C959.4 754.4 961.7 755 968.3 750C972.9 746.4 978.8 741.9 981.6 734.3C984.7 725.7 982.3 717.9 981.6 715.6C979.5 709 975.5 704.8 974.4 703.5C969.5 698.2 961.9 683.3 946.7 653.5C934.9 630.5 916.4 578.4 910.5 513.1C905.3 455.1 914.3 434.6 897.8 422.1C878.3 407.3 838.7 415.4 824.8 436.6Z" fill="white"/>
<path d="M906.1 457.8C905.2 492.6 909.5 527.3 917 561.3C924.3 594.3 933.7 627.6 946.7 658.8C953.3 674.8 961.5 690.1 972.2 703.7C973.4 705.2 975.5 703.1 974.3 701.6C954.3 676.4 943.9 645.3 934.5 615C924.3 582.3 916.2 548.9 912 514.8C909.7 495.9 908.7 476.8 909.2 457.8C909.2 455.8 906.2 455.8 906.1 457.8Z" fill="#161616"/>
<path d="M825.2 502C825.4 555.5 832.5 609.3 849.2 660.3C857.4 685.3 867.9 709.7 881 732.5C887.6 744.1 894.9 755.4 902.9 766.2C909.6 775.3 917.5 785.4 929.1 788.3C939.8 791 950.5 786.7 954.7 776.2C959 765.3 956.1 751.1 965.1 742.3C966.5 740.9 964.4 738.8 963 740.2C956.1 746.9 955.7 756.6 954.3 765.5C953.6 769.9 952.8 774.5 950.4 778.3C946.4 784.9 938.7 787.1 931.4 785.7C918.3 783.2 909.8 770.7 902.6 760.6C895.5 750.6 888.9 740.2 882.8 729.5C858.1 685.7 842.8 637 834.9 587.4C830.4 559.2 828.3 530.6 828.2 502C828.2 500 825.2 500 825.2 502Z" fill="#161616"/>
<path d="M969.8 700.9C977.9 710.5 984.2 723 979.9 735.7C977.7 742.4 972.7 744.9 967.2 748.4C962.4 751.5 958.4 755.6 955.1 760.3C954 761.9 956.6 763.4 957.7 761.8C960.5 758 963.7 754.4 967.6 751.7C970.1 750 972.9 748.7 975.4 746.9C980.1 743.5 982.7 738.2 983.7 732.6C985.9 719.8 979.9 708.3 971.9 698.7C970.7 697.3 968.6 699.5 969.8 700.9Z" fill="#161616"/>
<path opacity="0.16" d="M827.1 499.7C826.9 512.9 827.3 526.7 828.3 541.2C831.9 592.3 842.8 636.6 855.3 672.8C855.3 672.8 871 717.7 891.9 749.1C894.2 752.5 898.6 758.2 907.5 769.5C916.7 781.3 919.4 784.2 924.3 786.3C925 786.6 937.5 791.8 945.9 785.7C948.2 784.1 950 780.2 953.7 772.5C957.5 764.6 959.4 760.4 960.3 754.5C965.2 754.3 968.8 751.6 969.3 748.5C969.9 744.7 965.5 741.5 965.1 741.3C959.1 737.2 950.8 740.6 947.1 741.3C928.8 744.6 905.9 701 899 687.8C870.5 632.5 856.2 604.9 846.1 574.3C840.2 555.4 832.9 530.2 827.1 499.7Z" fill="#6D6C6C"/>
<path opacity="0.13" d="M840.3 616.3C841.2 616 842.8 620.5 858.3 651.7C888.5 712.4 895.7 721.2 903.4 728C912.6 736.2 929.1 747.4 957.5 752C957.8 753.8 961.4 773.6 949.7 782.6C944.6 786.6 938.7 786.8 937.1 786.8C919 787.4 900.2 762.7 883.6 733.3C851.3 676.1 837 617.4 840.3 616.3Z" fill="#6D6C6C"/>
<path d="M701.5 752.4C688.1 780.4 674.8 808.3 661.4 836.3C602.3 827.5 571.9 826.1 570.4 832C568.5 839.3 611.7 858.1 699.8 888.3C714.8 843.2 729.8 798.1 744.7 752.9C730.4 752.8 716 752.6 701.5 752.4Z" fill="#191919"/>
<path d="M820.4 427.4C810.1 436.2 807.1 445.6 798.8 464.8C786 494.3 771.5 523.1 758.5 552.6C732.6 611.4 724.2 624.4 704.6 670.6C693.3 697.2 693.4 699.1 687.3 710.2C681 721.6 674.5 731.2 670 747.6C667.3 757.4 666.7 764.7 669.3 772.1C670.3 775 673.4 784.1 681.5 787.2C686.7 789.2 692 788 698 786.5C702.9 785.3 706.8 783.6 709.5 782.2C711.3 784.5 714.5 787.9 719.6 790.1C729.1 794.4 738.2 791.5 742.6 790.1C745.2 789.3 754.9 785.9 762 776.4C766.9 769.9 768.3 763.4 769.2 759.9C772.8 745 780.2 731.3 785 716.7C787.6 708.7 792.6 696.5 826 647.7C862 595.1 863.8 598.2 881.4 569.3C900.5 537.9 911.2 520.7 915.9 494.5C919.7 473.3 925.3 442.2 906.7 423.8C885.6 402.4 842.9 408 820.4 427.4Z" fill="white"/>
<path d="M916.4 446.8C922.7 504.4 891.5 556.7 858.8 601.3C842.2 623.9 824.7 645.8 809.6 669.3C794 693.5 781.9 719.5 772 746.5C767 760.2 763.8 777.8 750.3 786C739 792.8 724.2 792.3 713.7 784.3C712.2 783.1 710.7 785.7 712.2 786.9C730.1 800.4 755.6 792.9 765.2 773.3C771.5 760.4 775.2 746 780.5 732.7C786.5 717.8 793.3 703.1 801.1 689.1C830.5 636.8 874.7 594.1 900.7 539.7C914.5 510.7 923 478.9 919.4 446.7C919.2 444.9 916.2 444.8 916.4 446.8Z" fill="#161616"/>
<path d="M818.8 418.4C791.4 478.3 764 538.3 736.5 598.2C722.7 628.5 708.8 658.7 695 689C688.5 703.3 681.7 717.5 675.4 731.9C670.4 743.2 665.6 755.9 667.5 768.4C669.1 778.5 675.4 789.2 686.5 790C694.5 790.6 702.6 786.8 710 784.4C718.7 781.6 727.5 778.7 736.2 775.9C738 775.3 737.2 772.4 735.4 773C728.5 775.2 721.7 777.4 714.8 779.7C707.6 782 700.4 784.9 693 786.5C678.5 789.5 670.5 777.1 670 764.1C669.5 749.7 676.7 735.8 682.5 723.1C688.9 709.2 695.2 695.3 701.6 681.3C727.1 625.6 752.6 569.9 778 514.2C792.4 482.7 806.8 451.2 821.2 419.8C822.2 418.1 819.6 416.6 818.8 418.4Z" fill="#161616"/>
<path d="M709.6 785C710.6 785.6 711.6 786.3 712.5 787C713.1 787.5 714 787.6 714.6 787C715.1 786.5 715.2 785.4 714.6 784.9C713.5 784 712.3 783.2 711.1 782.4C709.5 781.4 708 784 709.6 785Z" fill="#161616"/>
<path opacity="0.09" d="M872.2 409.6C860.1 415.6 863.8 440 862 466.7C860.7 486.4 857.4 492.4 811.5 597.1C772.9 685.2 768.3 696.8 753.2 719.7C734.5 748 715.7 769.3 702.1 783.4C705.3 783.2 708.5 783 711.7 782.8C713.8 784.8 717.2 787.4 721.9 789.4C724.2 790.4 734.5 794.8 745.3 791.2C755.9 787.7 761.1 778.5 765.1 771.4C771.1 760.7 772.7 751.2 773.5 746.8C775.7 735.1 782.6 721.8 796.3 695.1C814.8 659.2 832.8 644.5 866 595.4C893.2 555 908.2 532.3 915.3 498.1C921 470.8 919.3 447.3 917.1 432C902.4 418.1 883.6 403.9 872.2 409.6Z" fill="#6D6C6C"/>
<path opacity="0.16" d="M915.4 479.9C913.7 479.2 905.3 499.4 888.4 529.2C865.1 570 857 573.8 825.9 620.5C794.5 667.7 795 675.6 762.2 723.8C745.2 748.8 730.2 768.6 720.1 781.5C717.2 786.2 717.7 788.4 718.3 789.3C720.8 793.6 733.4 790.7 739.3 789.3C746.9 787.5 750.8 786.6 754.9 783.9C763.6 778.2 765.5 769.3 771.7 750.9C775 741 779.2 731.4 782.5 721.5C789.7 700.3 799.9 685.4 816.7 661.4C874.3 579.5 874.1 584.1 884 565.9C907.7 522.7 917.8 480.9 915.4 479.9Z" fill="#6D6C6C"/>
<path d="M631.2 128.9C628.6 133.3 628.1 137.5 627.9 139.4C626.9 147.6 629.7 154 630.9 156.5C637.5 170.8 652.6 175.7 655.3 176.5C657.1 183.2 658.9 189.9 660.9 196.7C665.4 212.6 670.1 228.2 674.9 243.4C681.3 242.5 687.7 241.6 694.1 240.7C692.3 232.2 690.1 225.4 688.5 220.9C683.7 207.1 679.2 200.2 675.3 185.2C674.3 181.2 673.6 177.8 673.2 175.7C674.8 174.6 677 172.7 679.1 170C687.4 159.2 685.4 146 685 143.2C684.3 138.9 683.2 131.1 676.6 124.5C668.2 116 657.4 115.8 655.8 115.8C646.1 115.5 636.1 120.5 631.2 128.9Z" fill="#5222D0"/>
<path d="M637 137C636.6 138.2 635.5 142.5 636.7 147.8C638.5 155.6 644.7 162.7 653 165.1C659.5 167 669.4 166.8 674.7 160.3C678.4 155.8 678.3 150.4 678.2 145.4C678.1 139.8 677.9 131.2 671.1 125.6C662.9 118.8 652 122.2 651.3 122.4C644.2 124.7 638.9 130.4 637 137Z" fill="white"/>
<path d="M655.1 200.1C654.8 201.6 654.4 203.8 654.4 206.3C654.4 207.5 654.4 210.8 655.6 215.8C656.4 218.9 656.9 219.7 660.2 227.7C663.8 236.4 664.5 238.8 667.2 239.9C669 240.7 670.9 240.4 672.1 240.1C669.2 235.5 669.4 232.8 670.1 231.2C670.7 229.7 671.7 229.4 672.3 227.5C672.5 226.8 672.8 225.5 671.7 221C670.6 216.6 670.1 216.6 669.8 214C669.4 211 670.1 210.9 669.7 208.1C669.6 207.6 669.2 204.9 667.5 201.8C665.9 199 664.9 197.2 662.9 196.6C660.3 196 657.4 197.5 655.1 200.1Z" fill="white"/>
<path d="M680 198.9C677.5 201.4 674 206.1 675.4 208.6C676.6 210.6 680.8 210.8 682.9 210.9C684.4 211 685.6 210.9 686.5 210.8C686.9 211.9 687.3 212.9 687.6 214C690.4 222.2 692.8 230.3 694.8 238.3C695.1 239.4 695.4 240.5 695.6 241.5C694.7 242.8 693 244.8 690.3 246.4C686.6 248.5 683.1 248.8 681.4 248.8C683.3 253.4 686.1 259.2 690.3 265.5C691.5 267.3 695 272.6 700.8 278.9C706.3 284.9 711.8 290.9 720.6 296.1C732.5 303.2 743.7 304.8 749.9 305.6C759.2 306.8 766.5 306.3 770.2 305.9C773.4 305.6 786.1 304 800.8 296.5C814.5 289.5 822.8 281.1 829.1 274.6C834 269.6 842.4 260.7 849.7 246.6C854.7 236.8 856.6 229.5 860.2 215.2C865.3 195 867.8 184.9 862.8 180.3C858.6 176.5 851.2 178.1 845.2 179.5C835.3 181.7 828.6 187 820.5 193.6C816.4 197 812.8 200.5 805.9 207.3C791.3 221.7 790.4 224 782.4 230.6C777.6 234.6 773.7 237.2 765.9 242.3C750.3 252.7 745.9 253.6 742.5 253.8C736.3 254.1 731.6 252 727.3 250.1C714.5 244.3 708.4 234.1 706.5 230.9C704 226.6 702.1 223.3 702 218.7C701.9 213.4 704.2 211.7 704.3 205.2C704.4 201.4 704.5 196.1 701.3 193.4C696.3 189 685.7 193.3 680 198.9Z" fill="white"/>
<path d="M700.3 224.2C709.7 240.4 724.2 257.4 745 254.9C746.9 254.7 746.9 251.7 745 251.9C725.2 254.3 711.8 238 702.8 222.7C701.9 221 699.3 222.5 700.3 224.2Z" fill="#161616"/>
<path d="M723.1 258.5C736.3 259.7 748.5 254 759.6 247.6C771.1 241 781.7 233 791.3 223.8C810.5 205.3 830.5 175.5 861.2 181C863.1 181.3 863.9 178.4 862 178.1C834.7 173.2 814.5 195.1 797.6 213C787.7 223.5 777 233.1 764.8 240.9C752.4 248.9 738.3 256.8 723.1 255.5C721.2 255.3 721.2 258.3 723.1 258.5Z" fill="#161616"/>
<path d="M676.3 243.6C691 271.5 709.1 299 742 306C772.3 312.5 803.1 301.5 825.3 280.7C838.3 268.5 848.3 253.5 855.5 237.3C856.3 235.6 853.7 234 852.9 235.8C840.8 262.8 820.3 287.4 792.3 298.6C764.1 309.8 730.6 306.2 708.2 284.9C695.6 272.9 687 257.4 678.9 242.1C678 240.3 675.4 241.9 676.3 243.6Z" fill="#161616"/>
<path d="M684.4 194.7C679.3 196.9 672.1 203.6 674.9 209.9C678 216.7 689 210.8 692.9 207.9C694.4 206.8 692.9 204.2 691.4 205.3C689.1 207 678.4 213.4 677.4 207.5C676.6 203.1 682.6 198.8 686 197.3C687.7 196.5 686.1 193.9 684.4 194.7Z" fill="#161616"/>
<path d="M685 197.5C688.8 194.6 694.8 190 699.6 194.2C703.5 197.7 702.7 203.8 702 208.3C701.1 214.1 698.8 222.2 702.5 227.4C703.6 229 706.2 227.5 705.1 225.9C701.5 220.8 704.8 211.6 705.4 206C705.9 201.8 705.7 197.5 703.3 194C698.1 186.4 689.3 190.5 683.5 194.9C682 196.1 683.5 198.7 685 197.5Z" fill="#161616"/>
<path d="M683.3 210.8C686.7 220.9 689.8 231.1 692.8 241.4C693.1 240.8 693.5 240.2 693.8 239.6C687 241.2 680 239.5 673.6 242.8C674.3 243.1 675.1 243.4 675.8 243.7C674.6 239.4 673.1 235.1 671.6 230.9C670.9 229.1 668 229.9 668.7 231.7C670.3 235.9 671.7 240.2 672.9 244.5C673.2 245.5 674.2 245.8 675.1 245.4C681.1 242.3 688.2 244 694.6 242.5C695.4 242.3 695.9 241.4 695.6 240.7C692.6 230.4 689.5 220.3 686.1 210.1C685.6 208.1 682.7 208.9 683.3 210.8Z" fill="#161616"/>
<path d="M674 244.7C678.4 251.9 692.1 249.2 695.2 242C696 240.2 693.4 238.7 692.6 240.5C690.5 245.5 679.8 248.5 676.5 243.2C675.6 241.5 673 243 674 244.7Z" fill="#161616"/>
<path d="M676.7 245.6C681.8 246.7 686.8 246.4 691.7 244.6C693.5 243.9 692.7 241 690.9 241.7C686.5 243.3 682 243.6 677.5 242.7C675.6 242.3 674.8 245.2 676.7 245.6Z" fill="#161616"/>
<path d="M675.8 245.1C679.4 239.6 686.2 238.1 691.8 241.4C693.5 242.4 695 239.8 693.3 238.8C686.1 234.7 677.7 236.7 673.1 243.6C672.1 245.2 674.7 246.8 675.8 245.1Z" fill="#161616"/>
<path d="M681.3 243.3C682.5 239.5 687.6 241.6 690 242.7C691.7 243.5 693.3 240.9 691.5 240.1C687.2 238.1 680.3 236.4 678.4 242.5C677.9 244.4 680.8 245.2 681.3 243.3Z" fill="#161616"/>
<path d="M668.8 238.6C666.2 236.9 664.5 234 664.6 230.8C664.7 229.4 665.1 228.1 665.7 226.9C666 226.4 668.8 222.8 669.5 223.3C671 224.5 673.1 222.4 671.6 221.2C667.8 218.2 663.2 224.3 662.2 227.6C660.5 232.9 662.8 238.2 667.3 241.2C668.9 242.2 670.4 239.6 668.8 238.6Z" fill="#161616"/>
<path d="M669.7 232.8C674.1 230.3 674.8 224.4 670.9 221.1C669.4 219.9 667.3 222 668.8 223.2C671.2 225.2 671 228.6 668.2 230.2C666.5 231.2 668 233.8 669.7 232.8Z" fill="#161616"/>
<path d="M665.4 239.5C667.6 241.7 671.1 242.2 673.7 240.5C675.3 239.5 673.8 236.9 672.2 237.9C670.7 238.9 668.8 238.7 667.5 237.4C666.2 236 664.1 238.1 665.4 239.5Z" fill="#161616"/>
<path d="M663 229.5C661.2 226.8 660.6 223.7 661.3 220.5C662.1 216.7 665.5 212.1 669.5 216C670.9 217.4 673 215.2 671.6 213.9C667.7 210 662.9 211.1 660.1 215.7C657.2 220.4 657.5 226.5 660.5 231C661.5 232.6 664.1 231.1 663 229.5Z" fill="#161616"/>
<path d="M659.5 222.6C659.3 221.2 658.8 220.1 658.1 218.8C656.8 216.4 656.5 214.6 657.2 211.9C658.4 207.3 662.3 203.9 667 206.7C668.7 207.7 670.2 205.1 668.5 204.1C664.2 201.6 658.7 202.6 656 206.9C654.6 209.1 653.7 212 653.7 214.6C653.6 217.9 656.1 220.2 656.6 223.4C656.9 225.3 659.8 224.5 659.5 222.6Z" fill="#161616"/>
<path d="M656.6 208C655 205.7 654.9 202.5 656.9 200.4C658.9 198.3 662.1 198.2 664.5 199.7C666.1 200.7 667.6 198.1 666 197.1C662.5 194.9 657.7 195.3 654.8 198.3C651.9 201.3 651.7 206.2 654 209.6C655.1 211.1 657.7 209.6 656.6 208Z" fill="#161616"/>
<path d="M665.9 206.3C668.1 207.4 668.9 210.5 667.2 212.4C665.9 213.8 668 216 669.3 214.5C672.2 211.3 671.4 205.7 667.4 203.7C665.7 202.9 664.1 205.4 665.9 206.3Z" fill="#161616"/>
<path d="M663.3 199.8C665.2 200.7 666.3 202.7 665.9 204.9C665.5 206.8 668.4 207.6 668.8 205.7C669.5 202.3 667.9 198.8 664.8 197.3C663.1 196.3 661.6 198.9 663.3 199.8Z" fill="#161616"/>
<path d="M669.3 217.3C670 218.4 670.2 219.8 669.6 221.1C669.3 221.8 669.4 222.7 670.1 223.2C670.7 223.6 671.8 223.4 672.2 222.7C673.2 220.5 673.1 218 671.9 215.9C670.9 214.1 668.3 215.6 669.3 217.3Z" fill="#161616"/>
<path d="M654.5 177.7C655.7 184.5 657.2 191.2 659.1 197.9C659.6 199.8 662.5 199 662 197.1C660.1 190.5 658.6 183.7 657.4 176.9C657.1 175 654.2 175.8 654.5 177.7Z" fill="#161616"/>
<path d="M671.3 176.1C673.7 184.1 676.1 192 678.4 200C679 201.8 681.8 201.1 681.3 199.2C678.9 191.2 676.5 183.3 674.2 175.3C673.6 173.4 670.7 174.2 671.3 176.1Z" fill="#161616"/>
<path d="M654.8 174.8C642.1 173.6 630.5 157.4 628.7 145.6C626.5 131.3 639.8 119.5 653 117C681.3 111.8 696.3 161.4 672.1 174.4C670.4 175.3 671.9 177.9 673.6 177C694.6 165.7 688.9 129.9 671.3 118.2C650.1 104.1 618.3 126.8 627.1 151.4C631.2 162.8 641.9 176.5 654.8 177.7C656.7 178 656.7 175 654.8 174.8Z" fill="#161616"/>
<path d="M654.7 164.3C645 162.1 637.4 153.6 637.5 143.4C637.6 132.6 646.5 123 657.4 122.6C670.5 122.2 676.9 134.9 676.7 146.5C676.6 153.2 675.6 159.6 668.7 162.3C663.4 164.3 657.6 166.1 652 163.9C650.2 163.2 649.4 166.1 651.2 166.8C657.6 169.3 665 167.2 671.1 164.5C676.9 161.9 678.6 157.3 679.4 151.2C681 137.9 675.8 121.6 660.5 119.8C647.9 118.3 636.7 128.1 634.9 140.4C633.1 152.9 642 164.4 654.1 167.2C655.8 167.6 656.6 164.7 654.7 164.3Z" fill="#161616"/>
<path d="M657.9 121.5C653.8 134.4 649.7 147.4 645.7 160.3C645.1 162.1 648 162.9 648.6 161.1C652.7 148.2 656.8 135.2 660.8 122.3C661.4 120.5 658.5 119.7 657.9 121.5Z" fill="#161616"/>
<path d="M663.8 135.9C660.7 145.2 657.3 154.4 653.8 163.5C653.1 165.3 656 166.1 656.7 164.3C660.2 155.2 663.6 145.9 666.7 136.7C667.3 134.8 664.4 134 663.8 135.9Z" fill="#161616"/>
<path opacity="0.12" d="M861.8 180.7C857.4 191.8 849.7 208.3 836.5 225.9C822.3 245 806.2 266.6 777.2 276C770 278.3 748.5 285 722.7 277C700.2 270 686.7 255.6 681.4 249.3C683.9 256 688.6 266.3 697.4 276.5C702 281.8 718.9 300.9 748 305.7C751.6 306.3 770.4 309.2 792.3 300.8C816.4 291.6 829.4 274.5 838.5 262.4C844.9 253.9 856.3 238.3 860.9 214.7C863.6 200.7 862.9 188.7 861.8 180.7Z" fill="#6D6C6C"/>
<path opacity="0.21" d="M702.3 278C709.8 282.8 723.4 290.1 741.7 292.1C764.4 294.6 781.6 287.5 794.2 282.4C819.2 272.1 836.7 256.6 847.7 244.5C843.9 253.5 835.9 268.9 820 282.4C812.5 288.8 786.6 310.8 751.4 305.7C724.6 301.8 707.8 284.3 702.3 278Z" fill="#6D6C6C"/>
<path d="M844.1 170.9C827.5 183.2 821.4 199.6 814.5 217.8C801.7 251.6 803.8 278.5 805.2 321.1C806.1 348.2 806.9 387.5 806.1 436.5C823.3 440.8 844.9 444.5 869.9 445.4C889.3 446 906.6 444.8 921.2 442.8C929.4 405.1 938 374.7 944.4 353.6C965.8 283 987.5 231.3 967.7 189.9C966.7 187.9 965.7 186.2 964.6 184.7C941.8 152.5 877.9 145.8 844.1 170.9Z" fill="#EC615B"/>
<path opacity="0.15" d="M916.3 157.9C915 165.2 912.8 176.7 909.5 190.5C890.8 268.5 872 272.8 868.7 316C865.3 359.5 882.9 375.2 868.2 407.9C860.5 425 848.7 436.4 840 443.4C853.9 444.4 868.8 445 884.7 444.9C897.2 444.8 909 444.3 920.2 443.4C927.3 412.5 934.1 387.8 939.2 370.5C941.7 362 944.7 351.9 950.4 333.1C959.7 302.3 962.1 294.7 966 280.1C971.7 258.4 974.6 247.3 975.2 236.3C976.2 219.8 977.3 201 965.5 185.2C958 175.1 947.7 169.7 942.2 166.7C932 161.2 922.6 158.9 916.3 157.9Z" fill="#6D6C6C"/>
<path opacity="0.17" d="M958.1 296.5C956 295.7 945.3 324.1 926.5 362.6C909 398.4 892.4 426.6 880.8 445.3C893.9 444.3 907.1 443.4 920.2 442.4C923.6 429.1 928.8 409.2 935.3 385C951.3 325.4 960.2 297.2 958.1 296.5Z" fill="#6D6C6C"/>
<path d="M950.8 180.2C947.5 181.4 942.8 183.4 937.4 186.5C918.4 197.4 908.3 212.4 902.1 221.4C902.1 221.4 881.2 251.8 849 292.6C839 305.3 829 317.1 816.7 329.9C791.2 356.5 779.9 362 775 364.1C762.8 369.5 752.1 374.2 738 373.1C728.7 372.4 722.9 369.5 716.5 373.4C709.7 377.5 705.2 387.3 706.1 392.7C706.2 393.3 706.6 395.2 706.8 397.9C706.9 398.6 707 401 706.8 404.5C706.5 409.9 705.9 409.4 706.1 411.4C706.7 415.7 709.7 417.9 708.8 419.3C708.2 420.3 706.6 419.4 705.4 420.7C704 422.1 704.6 424.8 704.7 425.2C705.4 428.3 708 430.1 709.1 430.7C713.4 433.5 716.3 432 727.2 432.4C734.9 432.7 737.2 433.6 741 431.7C742 431.2 743.7 430.3 746.7 426.9C755.3 417.3 754.3 410.9 761.8 404.8C764.5 402.6 767.2 401.4 768.9 400.7C774.4 398.3 778 398.4 783.3 397.2C786.9 396.5 790.5 395 797.7 392C809.4 387.2 818.4 382.5 821.9 380.6C843 369.2 862.1 354.8 866.2 351.6C888.1 334.9 902.1 320.8 920.3 302.5C933.4 289.4 947.2 274.6 960.6 254.5C964.7 248.3 972 236.8 974.4 220.6C975.5 213.3 976.6 205.1 972.4 196.8C966.6 184.7 953.9 181 950.8 180.2Z" fill="white"/>
<path d="M947.8 179.3C928.9 185.2 914.5 202.3 902.7 217.3C889.3 234.4 877.2 252.4 864.2 269.7C850.3 288.2 835.9 306.3 820.2 323.3C805.3 339.3 789 355.1 768.9 364.3C757.2 369.6 744.3 372.6 731.5 371.5C724.2 370.9 714.9 369.1 710.4 376.5C709.4 378.1 712 379.7 713 378C715.7 373.5 721.3 373.6 725.9 374C730.7 374.3 735.4 374.9 740.2 374.7C749.7 374.2 759.1 371.8 767.9 368.1C786.6 360.2 802.2 346.6 816.2 332.1C846.4 300.9 871.2 265.3 896.8 230.4C904 220.6 911.4 211 919.9 202.3C928.1 193.9 937.4 185.8 948.9 182.2C950.4 181.6 949.6 178.7 947.8 179.3Z" fill="#161616"/>
<path d="M947.5 181.2C964.2 178.9 973.5 196.6 973.4 210.9C973.3 225.1 967.3 239.1 960.3 251.2C947.3 273.9 928.4 293.3 910.1 311.8C873.9 348.1 831.7 381 781.8 395.7C775.7 397.5 768.3 398.1 762.9 401.7C757.8 405.1 755.2 411.7 751.7 416.6C749.1 420.2 746.3 423.7 743.3 427C739.4 431.2 735.8 431.6 730.5 431.2C726.5 430.9 722.5 430.6 718.4 430.3C714.3 430 708.5 430.3 706.5 425.9C705.7 424.1 703.1 425.7 703.9 427.4C706 432.1 711 432.7 715.6 433.1C719.3 433.4 723 433.7 726.7 433.9C730.3 434.2 734.4 435 738 434.3C744 433.1 748.5 425.6 752 421.2C756.2 415.8 759.7 406.9 765.8 403.5C769.2 401.6 773.5 401.1 777.2 400.1C780.9 399.1 784.5 398.1 788.1 396.9C794.6 394.8 801.1 392.3 807.4 389.6C820.6 383.9 833.2 377.1 845.3 369.3C869.5 353.7 891.5 334.8 911.8 314.5C932.4 293.9 954.1 271.8 967.1 245.3C973.9 231.4 979.5 214.6 975.1 199.2C971.6 186.8 960.3 176.6 946.9 178.4C944.8 178.6 945.6 181.5 947.5 181.2Z" fill="#161616"/>
<path d="M707.1 392C708 385.9 723.5 386.5 727.6 386.1C733.2 385.6 738.2 384.4 742.6 380.7C744.1 379.4 741.9 377.3 740.5 378.6C734.1 384 725.3 382.9 717.5 383.9C713.4 384.5 705 386 704.3 391.1C703.9 393.1 706.8 393.9 707.1 392Z" fill="#161616"/>
<path d="M704.1 392.4C709 402.1 719.6 407.4 730.2 405.1C732.1 404.7 731.3 401.8 729.4 402.2C720 404.3 710.9 399.4 706.6 390.9C705.8 389.2 703.2 390.7 704.1 392.4Z" fill="#161616"/>
<path d="M705.5 395.2C703.5 400.4 705.8 406.2 710.2 409.4C715.2 413.1 721.7 412.7 727.5 411.7C729.4 411.4 728.6 408.5 726.7 408.8C722.2 409.6 717.1 410 712.9 407.6C708.8 405.3 706.7 400.4 708.3 396C709.1 394.2 706.2 393.4 705.5 395.2Z" fill="#161616"/>
<path d="M705.7 403.5C702.9 408.1 704.1 414.2 708 417.9C712.6 422.3 719.6 421.8 724.9 419.2C726.6 418.4 725.1 415.8 723.4 416.6C719.3 418.5 714 419.1 710.3 415.9C707.2 413.2 706.2 408.6 708.3 405C709.3 403.3 706.7 401.8 705.7 403.5Z" fill="#161616"/>
<path d="M707 426.3C705 423.1 707.7 419.1 711.5 420.5C713.3 421.2 714.1 418.3 712.3 417.6C706.1 415.3 701.2 422.5 704.5 427.8C705.4 429.4 708 427.9 707 426.3Z" fill="#161616"/>
<path d="M710.3 378.5C715.9 376.5 721.8 379.2 724.2 384.6C725 386.4 727.6 384.8 726.8 383.1C723.9 376.6 716.3 373.2 709.5 375.7C707.7 376.3 708.5 379.2 710.3 378.5Z" fill="#161616"/>
<path d="M709.2 376.7C705.2 379.6 705.3 386.5 709.8 388.9C711.5 389.8 713 387.2 711.3 386.3C708.9 385 708.3 380.9 710.7 379.3C712.3 378.1 710.8 375.5 709.2 376.7Z" fill="#161616"/>
<path d="M710.1 385C710.3 382.8 711 381 712.3 379.2C711.4 379.2 710.6 379.2 709.7 379.2C710.7 380.9 710.7 382.5 709.7 384.1C710.6 384.2 711.5 384.3 712.4 384.5C712.2 383.9 712.1 379.3 713.3 380.1C714.2 380.7 712.2 383.8 711.8 384.5C712.7 384.5 713.5 384.5 714.4 384.5C714 383.8 713.7 383.1 713.7 382.3C714.1 380.1 714.7 379.9 715.4 381.8C715.9 382.2 716.4 382.5 716.8 382.9C716.5 381.8 716.8 381.2 717.7 381.4C718.6 381 718.8 381.3 718.3 382.2C719 382.4 719.7 382.6 720.4 382.7C720.7 383 720.9 383.3 721.2 383.6C720.9 385.5 723.8 386.3 724.1 384.4C724.5 381.9 722.2 378.5 719.6 380.8C717.4 382.8 719.6 386.5 722.4 385C725.1 383.5 724 379.4 721.2 378.7C718 378 716.4 381.8 717.8 384.2C718.2 384.9 719.2 385.1 719.9 384.7C722.4 383.2 722.2 379 719.4 377.9C715.8 376.4 713.5 380.7 714 383.7C714.1 384.4 714.8 384.8 715.4 384.8C719.6 385 720.6 378.8 716.7 377.5C711.3 375.7 709.8 382.5 711.8 386.1C712.4 387.2 713.8 387 714.4 386.1C715.8 384.1 718.7 376.9 714.1 376.5C709.8 376.2 708.6 382.4 709.5 385.4C709.9 386.6 711.6 386.9 712.2 385.8C713.7 383.3 713.7 380.4 712.2 377.8C711.6 376.8 710.2 376.9 709.6 377.8C708 380 707.3 382.4 707 385.1C706.9 387 709.9 386.9 710.1 385Z" fill="#161616"/>
<path d="M707.6 388.3C712.7 389.2 725.1 390.2 726.4 382.8C726.7 380.9 723.8 380.1 723.5 382C722.6 387.1 711.9 386 708.4 385.4C706.5 385.1 705.7 388 707.6 388.3Z" fill="#161616"/>
<path d="M719.7 386.8C723.5 402.1 723.1 417.8 718.4 432.8C717.8 434.6 720.7 435.4 721.3 433.6C726.1 418.1 726.6 401.8 722.6 386C722.1 384.1 719.2 384.9 719.7 386.8Z" fill="#161616"/>
<path d="M719.1 387C719.8 394.6 720.2 402.1 720.4 409.7C720.6 417 721.1 424.5 718.7 431.5C718.1 433.3 721 434.1 721.6 432.3C723.9 425.6 723.6 418.6 723.5 411.6C723.3 403.4 722.9 395.2 722.2 387C721.9 385.1 718.9 385.1 719.1 387Z" fill="#161616"/>
<path d="M723 386.9C725.2 388.5 724.8 396.4 724.9 398.9C725 402.3 725 405.6 724.8 409C724.4 416.2 723.3 423.4 721.5 430.4C721 432.3 723.9 433.1 724.4 431.2C726.6 422.4 727.8 413.5 727.9 404.4C727.9 399.8 727.7 395.2 727.2 390.6C726.9 387.9 726.7 385.9 724.5 384.3C722.9 383.2 721.4 385.8 723 386.9Z" fill="#161616"/>
<path d="M722.3 386.1C723.6 394.2 724 402.3 723.4 410.4C723.3 412.3 726.3 412.3 726.4 410.4C727 402 726.6 393.6 725.2 385.3C724.9 383.4 722 384.2 722.3 386.1Z" fill="#161616"/>
<path d="M715 386.7C718.3 397.8 719.6 409.3 718.7 420.9C718.5 423.9 715.4 438 723.5 434.2C726.5 432.8 726.8 429.3 727.1 426.5C727.7 420.8 727.8 415.1 727.8 409.4C727.8 400.4 729 389.5 723.8 381.7C722.7 380.1 720.1 381.6 721.2 383.2C725.5 389.7 724.7 398.1 724.8 405.6C724.8 409.7 724.8 413.8 724.7 417.9C724.6 419.8 724.5 421.7 724.4 423.6C724.3 424.6 723.7 432.8 720.8 429.4C720.8 429.4 721.4 425 721.5 424.5C721.7 422.7 721.9 420.8 722 419C722.2 415.3 722.2 411.6 722 408C721.6 400.5 720.2 393.1 718.1 385.9C717.4 384 714.5 384.8 715 386.7Z" fill="#161616"/>
<path d="M718.7 386.3C719.3 391.1 719.8 395.9 720.4 400.6C720.6 402.5 723.6 402.5 723.4 400.6C722.8 395.8 722.3 391 721.7 386.3C721.4 384.4 718.4 384.4 718.7 386.3Z" fill="#161616"/>
<path d="M715.7 383.4C717.8 388.8 719.5 394.4 720.6 400.1C721 402 723.9 401.2 723.5 399.3C722.4 393.6 720.8 388 718.6 382.6C717.9 380.8 715 381.6 715.7 383.4Z" fill="#161616"/>
<path opacity="0.15" d="M968.8 190.9C965 190.9 964 211.1 958.6 228.3C953.9 243.2 945.9 255.4 911.9 288.6C864.7 334.6 840.3 357.9 800.1 378.1C783.1 386.6 768.2 392.1 757.8 395.6C754.5 398.5 743.6 407.3 727.7 407.3C719.9 407.3 713.6 405.2 709.7 403.4C709 403.8 706.8 405.1 705.8 407.8C704.7 410.7 705.5 414.1 707.7 416.6C706.9 417.3 704.7 419.7 704.8 422.9C704.9 426.6 707.8 428.9 708.7 429.7C712.1 432.5 717.9 432.6 729.1 432.6C732 432.6 736.2 432.6 741.3 432.6C743.2 430.6 746 427.5 749.1 423.4C756.5 413.4 757.3 408.4 762.7 403.9C768.9 398.8 776.1 398.6 779.2 398.1C805.9 393.5 839 371.5 857.5 359.2C887 339.6 903.8 321.1 937.3 284.3C937.3 284.3 955.1 264.7 968.9 234.7C971 230.2 975.5 219.7 974.2 206.5C973.5 200.2 971.4 191 968.8 190.9Z" fill="#6D6C6C"/>
<path d="M926.7 90C927.5 114.2 926.6 127.9 930.7 151C932.6 161.8 934.9 170.5 936.6 176.3C926.3 179.6 909 183.6 887.8 181.3C873.9 179.8 862.6 176.1 854.5 172.7C858.2 165.7 862.7 155.4 865.2 142.4C867.4 131.1 867.4 121.3 866.9 113.9C856.5 109.7 846.1 105.4 835.7 101.2C834.8 95.9 834 90.6 833.1 85.4C830.2 84.5 827.2 83.6 824.3 82.7C828.2 76.8 834.3 67.5 841.5 55.9C855 34 855.8 30.6 861.2 26.3C875.8 14.5 902.6 11.5 916.5 23.6C924.7 30.8 925.5 50.6 926.7 90Z" fill="white" stroke="#161616" stroke-width="2"/>
<path d="M824.1 84.4001C829.6 86.0001 835.2 87.0001 840.9 87.6001C842.8 87.8001 842.8 84.8001 840.9 84.6001C835.5 84.0001 830.1 83.0001 824.9 81.5001C823 81.0001 822.2 83.9001 824.1 84.4001Z" fill="#161616"/>
<path d="M833.1 41.1001C836.8 40.2001 840.8 42.2001 842.2 45.8001C842.9 47.6001 845.8 46.8001 845.1 45.0001C843.1 39.8001 837.8 36.9001 832.4 38.2001C830.4 38.7001 831.2 41.6001 833.1 41.1001Z" fill="#161616"/>
<path d="M855.6 50.5999C860.1 50.3999 864.2 52.9999 865.7 57.1999C866.3 58.9999 869.2 58.1999 868.6 56.3999C866.7 50.8999 861.5 47.1999 855.7 47.4999C853.7 47.6999 853.7 50.6999 855.6 50.5999Z" fill="#161616"/>
<path d="M856.6 63.2999C855.9 61.7999 856.2 60.4999 856.4 58.8999C856.7 58.4999 856.7 58.2999 856.4 58.4999C856.1 58.5999 856.1 58.7999 856.4 59.0999C856.5 59.7999 856.7 60.4999 856.8 61.1999C856.8 61.6999 856.6 62.6999 856.7 63.0999C856.9 63.2999 857.1 63.4999 857.3 63.6999C857.3 63.3999 857.4 63.0999 857.4 62.7999C857.6 61.2999 857.8 59.7999 858 58.1999C858.2 56.6999 855.8 56.1999 855.2 57.3999C854.7 58.3999 854.5 59.2999 854.5 60.3999C854.6 62.2999 857.6 62.2999 857.5 60.3999C857.5 59.7999 857.5 59.4999 857.8 58.8999C856.9 58.5999 855.9 58.3999 855 58.0999C854.8 59.8999 854.3 61.7999 854.3 63.5999C854.3 64.8999 855 65.9999 856.3 66.1999C859.6 66.6999 859.9 62.4999 859.7 60.1999C859.4 58.0999 857.8 53.5999 854.9 55.9999C852.4 57.9999 853 62.2999 854.1 64.7999C854.8 66.4999 857.4 64.9999 856.6 63.2999Z" fill="#161616"/>
<path d="M855.6 31.2C857.6 26.5 861.6 19.1 869.1 12.2C871.7 9.80004 877.3 4.70004 884.8 2.20004C899 -2.49996 917.5 3.00004 928.5 16.3C939.3 29.3 941.4 48.1 934.1 64.2C908 53.2 881.8 42.2 855.6 31.2Z" fill="#5222D0"/>
<path d="M811.1 19.0999C851.6 35.3999 892.1 51.5999 932.5 67.8999C937.9 70.0999 940.2 61.3999 934.9 59.1999C894.4 42.8999 853.9 26.6999 813.5 10.3999C808.2 8.29992 805.8 16.9999 811.1 19.0999Z" fill="#161616"/>
<path d="M907.3 56C899.2 56.8 893.6 60.7 887 65.4C873.1 75.4 875 80.9 865.5 86.9C850.4 96.5 840.4 85.9 826.7 95.5C815 103.7 812.5 118.1 812 121.5C811.5 124.7 809.8 137.8 817.9 149.2C824.9 159.1 836.6 164 837.8 162.5C838.2 162 837.6 160.2 832.1 154C833.7 155.9 836.3 158.4 840.1 160.1C844.5 162.1 849 162.5 849.2 161.8C849.4 161.3 846.9 160.7 845.5 158.2C844.7 156.7 844.6 155.2 844.6 154C847.6 157.3 851.7 160.6 856.4 160.5C869.3 160 878.4 134.1 881.4 125.5C891.1 97.7 887 80 899.6 72.6C900.7 72 905.7 69 909.9 71C915.3 73.5 917.2 83.2 913.9 88.5C911 93 905.1 92.9 905.2 93.9C905.4 95.2 915.4 95.9 924.9 91.7C928.4 90.2 931.2 88.9 933.4 85.9C937.1 80.6 936.3 73.1 934.1 68.3C929.3 58 916.1 55.1 907.3 56Z" fill="#161616" stroke="#161616" stroke-width="2"/>
<path opacity="0.22" d="M908.7 95.5C906.9 95.2 904.3 94.6 904.3 94C904.3 93.7 905 93.4 905 93.4C905 93.3 902.2 95.5 899.4 95.2C898.1 95 897.1 94.3 896.5 93.7C898.7 104.6 900.6 117.8 900.7 133C900.9 152.3 898.4 168.8 895.6 181.5C901.6 182.2 910.2 182.4 920.1 180.3C926.3 179 931.6 177 935.7 175.1C929.7 156.7 927.9 142.7 927.4 133.4C927.1 129 926.8 118.7 926.6 113.7C926.3 104.5 926 96.9 925.9 91.8C925 92.2 923.6 92.9 921.8 93.6C919.4 94.6 914.4 96.4 908.7 95.5Z" fill="#6D6C6C"/>
<path d="M901.3 1.30005C911.6 6.30005 917.5 17.1 916.1 27.7C914.4 40.3 903.2 46.2001 902.1 46.8C913.3 51.3 924.5 55.7001 935.7 60.2001C936.6 57.6001 937.6 54 938.1 49.5C939.5 35.3 933.7 24.7 932.4 22.6C930.4 19.2 923.3 7.70005 909.3 3.10005C906.2 1.90005 903.4 1.50005 901.3 1.30005Z" fill="#321693"/>
</svg>
