<svg width="1356" height="924" viewBox="0 0 1356 924" fill="none" xmlns="http://www.w3.org/2000/svg">
<path d="M202.7 717.1C208.5 717.6 214.3 718.2 220.1 718.7C222 718.9 222 715.9 220.1 715.7C214.3 715.2 208.5 714.6 202.7 714.1C200.8 713.9 200.8 716.9 202.7 717.1Z" fill="#161616"/>
<path d="M125.2 721.9C139.6 721.9 154 721.9 168.4 721.9C172.3 721.9 172.3 715.9 168.4 715.9C154 715.9 139.6 715.9 125.2 715.9C121.4 715.9 121.4 721.9 125.2 721.9Z" fill="#161616"/>
<path d="M200.3 719.6C235.2 719.6 270 719.6 304.9 719.6C308.8 719.6 308.8 713.6 304.9 713.6C270 713.6 235.2 713.6 200.3 713.6C196.4 713.6 196.4 719.6 200.3 719.6Z" fill="#161616"/>
<path d="M297.1 720.6C314.7 718.7 329 731.5 338.8 744.7C348.1 757.1 355.8 771.1 368 781C380.7 791.3 396.8 794.4 412.7 795.7C432.4 797.3 452.2 797.8 472 797.8C494.8 797.8 517.5 796.8 540.2 795C544 794.7 544.1 788.7 540.2 789C500.1 792.2 459.7 792.7 419.5 790.2C401.9 789.1 383.5 787 369.8 774.8C357.8 764.2 350.5 749.6 340.5 737.4C329.9 724.4 314.6 712.7 296.9 714.7C293.4 715 293.3 721 297.1 720.6Z" fill="#161616"/>
<path d="M577.7 789.1C596.2 789 611.2 801.6 621.2 816.2C631.7 831.5 639.2 849 647.5 865.5C654.7 879.8 661.3 895.2 677.6 900.7C685.1 903.3 693.3 903.6 701.2 903.7C711.2 903.9 721.2 903.7 731.2 903.3C735 903.2 735.1 897.2 731.2 897.3C721.2 897.7 711.2 897.8 701.2 897.7C692.6 897.6 683.4 897.3 675.5 893.4C667.6 889.5 663 882.2 659 874.6C654.4 865.9 650.1 857.1 645.7 848.3C631.7 820.5 614.5 782.9 577.9 783C573.8 783.1 573.8 789.1 577.7 789.1Z" fill="#161616"/>
<path d="M763 901.5C798.2 901.5 833.5 901.5 868.7 901.5C872.6 901.5 872.6 895.5 868.7 895.5C833.5 895.5 798.2 895.5 763 895.5C759.2 895.5 759.2 901.5 763 901.5Z" fill="#161616"/>
<path d="M901.7 899.2C924.4 899.2 947.2 899.2 969.9 899.2C973.8 899.2 973.8 893.2 969.9 893.2C947.2 893.2 924.4 893.2 901.7 893.2C897.9 893.2 897.9 899.2 901.7 899.2Z" fill="#161616"/>
<path d="M947.7 923.2C1016 923.2 1084.4 923.2 1152.7 923.2C1156.6 923.2 1156.6 917.2 1152.7 917.2C1084.4 917.2 1016 917.2 947.7 917.2C943.9 917.2 943.9 923.2 947.7 923.2Z" fill="#161616"/>
<path d="M1219.5 885.3C1208.2 857.9 1207.5 827.2 1217.6 799.3C1218.3 797.5 1215.4 796.7 1214.7 798.5C1204.4 826.8 1205.1 858.2 1216.6 886.1C1217.3 887.9 1220.2 887.1 1219.5 885.3Z" fill="#E8E8E8"/>
<path d="M1214.3 797.7C1214.6 803.3 1217.1 808.4 1221.3 812.1C1222.8 813.4 1224.9 811.2 1223.4 810C1219.7 806.8 1217.5 802.6 1217.3 797.7C1217.2 795.8 1214.2 795.8 1214.3 797.7Z" fill="#E8E8E8"/>
<path d="M1225.1 809.7C1216.9 773.2 1241.7 739.3 1259 709.5C1258.1 709.4 1257.2 709.3 1256.3 709.1C1267.2 739.2 1277.2 770.6 1271.3 802.9C1266 832.5 1250.7 859.1 1235.8 884.8C1234.8 886.5 1237.4 888 1238.4 886.3C1253.7 859.9 1269.5 832.5 1274.5 802C1279.8 769.7 1270.1 738.4 1259.2 708.3C1258.8 707.1 1257.1 706.8 1256.5 707.9C1238.7 738.5 1213.8 773 1222.3 810.4C1222.7 812.4 1225.6 811.6 1225.1 809.7Z" fill="#E8E8E8"/>
<path d="M1274.3 758.5C1277.8 750.1 1281.6 741.9 1285.9 733.9C1287.9 730.1 1290 726.4 1292.3 722.7C1293.2 721.2 1293.7 719.3 1295.7 719.2C1297 719.1 1300.2 721.5 1301.4 722.1C1303.1 723 1304.6 720.4 1302.9 719.5C1300.5 718.3 1296.4 714.9 1293.6 716.1C1290.3 717.5 1288.2 723.8 1286.5 726.7C1280.8 736.7 1275.9 747 1271.4 757.6C1270.7 759.5 1273.6 760.2 1274.3 758.5Z" fill="#E8E8E8"/>
<path d="M1302.5 721.6C1304.8 718.6 1305.9 715.1 1304.7 711.4C1304.4 710.5 1303.6 709.6 1303.4 708.6C1302.6 705.4 1304.5 704 1306.2 701.7C1308.4 698.9 1310.6 696.1 1312.8 693.3C1321.7 681.8 1330.7 670.3 1339.6 658.8C1338.7 658.4 1337.9 658.1 1337 657.7C1339.5 680.2 1349.1 701.2 1351.7 723.7C1353.1 735.6 1351.7 747.2 1348.4 758.6C1346.8 764.2 1345 769.7 1342.9 775.1C1340.9 780.3 1337.8 786.5 1331.7 787.3C1330.6 787.4 1329.7 788.5 1330.4 789.6C1332.4 792.7 1334.5 795.7 1334.7 799.5C1334.9 803 1333.8 806.5 1332.4 809.7C1330.1 814.9 1326.9 819.8 1323.7 824.5C1316.9 834.4 1308.8 843.2 1299.7 850.9C1283.6 864.5 1265.1 875.3 1252.4 892.4C1251.2 894 1253.9 895.4 1255 893.9C1269.6 874.3 1292 863.1 1309.3 846.2C1318.1 837.6 1325.8 827.8 1331.9 817.1C1334.4 812.7 1336.9 807.9 1337.6 802.8C1338.4 797 1336.2 792.8 1333.1 788.1C1332.7 788.9 1332.2 789.6 1331.8 790.4C1340.7 789.3 1344.3 780.5 1347 773C1351.4 760.5 1355.3 747.7 1355.4 734.3C1355.6 707.9 1342.9 683.7 1340.1 657.7C1340 656.6 1338.4 655.5 1337.5 656.6C1328.8 667.8 1320 679.1 1311.3 690.3C1309.3 692.9 1307.3 695.4 1305.3 698C1303.7 700.1 1301.1 702.4 1300.2 705C1299.7 706.3 1299.7 707.3 1300.1 708.6C1301.3 712.7 1303.8 715.1 1300.4 719.5C1299.2 721 1301.4 723.1 1302.5 721.6Z" fill="#E8E8E8"/>
<path d="M1331.5 699.3C1318.9 764.1 1278.6 818.2 1252.1 877.4C1251.3 879.1 1253.9 880.7 1254.7 878.9C1281.3 819.4 1321.7 765.1 1334.4 700C1334.8 698.2 1331.9 697.4 1331.5 699.3Z" fill="#E8E8E8"/>
<path d="M1250.3 746C1248.2 791.5 1235.4 835.3 1222.7 878.7C1222.2 880.6 1225.1 881.3 1225.6 879.5C1238.4 835.8 1251.1 791.7 1253.3 746C1253.4 744.1 1250.4 744.1 1250.3 746Z" fill="#E8E8E8"/>
<path d="M1229.7 760.6C1237 775.9 1240.8 792.4 1240.8 809.4C1240.8 811.3 1243.8 811.3 1243.8 809.4C1243.7 791.9 1239.8 774.9 1232.3 759.1C1231.5 757.4 1228.9 758.9 1229.7 760.6Z" fill="#E8E8E8"/>
<path d="M1267.4 745.8C1262.7 754 1258 762.3 1253.2 770.5C1249.3 777.3 1245.4 783.8 1244.6 791.7C1244.4 793.6 1247.4 793.6 1247.6 791.7C1248.5 783.2 1253.6 775.8 1257.7 768.6C1261.8 761.5 1265.8 754.4 1269.9 747.3C1271 745.6 1268.4 744.1 1267.4 745.8Z" fill="#E8E8E8"/>
<path d="M1311.9 693C1313.7 716.6 1315.4 740.5 1311 763.9C1310.6 765.8 1313.5 766.6 1313.9 764.7C1318.4 741 1316.8 716.9 1314.9 693C1314.7 691.1 1311.7 691.1 1311.9 693Z" fill="#E8E8E8"/>
<path d="M1288.3 810.4C1309.4 785.7 1340.9 769.8 1355 739.3C1355.8 737.6 1353.2 736 1352.4 737.8C1338.4 768 1307.1 783.7 1286.1 808.3C1284.9 809.7 1287 811.9 1288.3 810.4Z" fill="#E8E8E8"/>
<path d="M425.8 716.7C477.4 713.2 529 709.7 580.6 706.3C606.4 704.6 632.2 702.8 658 701.1C683.4 699.4 709.2 696.4 734.7 697.4C783 699.3 826.2 722.6 869.1 742.5C911.9 762.3 956.5 778.2 1002.3 789.6C1054.1 802.6 1107.3 809.9 1160.7 811.6C1162.6 811.7 1162.6 808.7 1160.7 808.6C1063.7 805.5 967.3 783.5 878.8 743.6C837.6 725 797 701.9 751.5 695.8C726.7 692.5 701.7 695.1 676.9 696.7C651.1 698.4 625.3 700.2 599.5 701.9C541.6 705.8 483.7 709.7 425.8 713.6C423.9 713.8 423.9 716.8 425.8 716.7Z" fill="#E8E8E8"/>
<path d="M924.7 733.2C1006.7 736.4 1086.3 713.7 1167.2 704.9C1190 702.4 1213 701.1 1236 701.7C1237.9 701.8 1237.9 698.8 1236 698.7C1154 696.5 1074.5 719.4 993.5 727.7C970.7 730 947.7 731.1 924.8 730.2C922.8 730.1 922.8 733.1 924.7 733.2Z" fill="#E8E8E8"/>
<path d="M898.3 785.3C944.7 799.9 992.8 808.8 1041.3 811.8C1043.2 811.9 1043.2 808.9 1041.3 808.8C993 805.8 945.2 797 899.1 782.4C897.2 781.8 896.4 784.7 898.3 785.3Z" fill="#E8E8E8"/>
<path d="M450 526.6C495.4 526 539.7 515 584.7 511.2C631.2 507.2 676.4 515.4 721.9 524.3C812.2 541.8 901.7 562.8 990.4 587.1C1015.2 593.9 1039.9 601.4 1064.8 608.1C1088.7 614.5 1112.9 619.6 1137.7 620C1139.6 620 1139.6 617 1137.7 617C1092 616.3 1047.9 600 1004.4 587.9C959.8 575.5 915 563.9 869.9 553.2C825.2 542.6 780.2 532.8 735.1 523.9C691.2 515.2 646.7 505.5 601.8 507.2C550.8 509.1 501 523 450 523.7C448.1 523.7 448.1 526.7 450 526.6Z" fill="#E8E8E8"/>
<path d="M938.3 545.5C1018.8 577.3 1107.1 574.7 1191.6 564.8C1215.7 562 1239.8 558.6 1263.8 555.1C1265.7 554.8 1264.9 551.9 1263 552.2C1178.9 564.4 1092.1 576.8 1007.5 561.8C984.1 557.7 961.2 551.4 939.1 542.6C937.3 541.9 936.5 544.8 938.3 545.5Z" fill="#E8E8E8"/>
<path d="M1121.8 189.7C1096.2 180.8 1085.5 148.9 1091.6 124.3C1097.6 100.1 1119.8 81.8998 1144.5 79.4998C1168.7 77.1998 1193.2 90.7998 1204.7 112.1C1216.3 133.8 1213.5 163.1 1196 180.8C1173.3 203.8 1137.7 202.5 1111.4 186.9C1109.7 185.9 1108.2 188.5 1109.9 189.5C1135.1 204.5 1167.9 206.8 1192 188.3C1213.1 172.2 1219.8 142.8 1210.7 118.2C1201.7 93.7998 1177.1 76.6998 1151.1 76.1998C1125.1 75.6998 1099.8 92.4998 1090.7 116.9C1080.5 144.3 1091.5 182.3 1121 192.5C1122.9 193.3 1123.6 190.4 1121.8 189.7Z" fill="#E8E8E8"/>
<path d="M560.4 202.7C662 191.3 750.3 254.6 841.7 287.4C866.8 296.4 892.5 303.2 919 306.2C920.9 306.4 920.9 303.4 919 303.2C819.5 292.2 737.4 226.7 640.8 205.1C614.4 199.2 587.2 196.7 560.3 199.8C558.5 199.9 558.5 202.9 560.4 202.7Z" fill="#E8E8E8"/>
<path d="M880.5 267.5C940.9 280.1 1003.2 282.5 1064.4 274.5C1066.3 274.3 1066.3 271.2 1064.4 271.5C1003.5 279.5 941.5 277.2 881.3 264.6C879.4 264.2 878.6 267.1 880.5 267.5Z" fill="#E8E8E8"/>
<path d="M231.8 382.1C352.3 415.6 474.6 449.4 600.2 454.4C635.5 455.8 670.8 454.8 705.9 451C707.8 450.8 707.8 447.8 705.9 448C581.1 461.6 456.3 438.1 335.7 407.1C301.2 398.2 266.9 388.7 232.5 379.2C230.8 378.7 230 381.6 231.8 382.1Z" fill="#E8E8E8"/>
<path d="M162.3 247.3C166.2 247.3 166.2 241.3 162.3 241.3C158.4 241.3 158.4 247.3 162.3 247.3Z" fill="#161616"/>
<path d="M174.7 311.1C169.6 308.5 166.1 303 167.5 297.1C169.1 290.8 175.6 286.7 181.9 288.6C188.8 290.7 191.7 298.7 188.3 304.9C185 311.1 177.9 313.1 171.6 310.3C169.8 309.5 168.3 312.1 170.1 312.9C177.7 316.2 186.1 314.3 190.6 307C194.9 299.8 192.5 290.1 184.8 286.5C177.4 283 168.7 286.5 165.5 294C162.2 301.6 166.1 310 173.3 313.7C174.9 314.6 176.4 312 174.7 311.1Z" fill="#161616"/>
<path d="M170.9 296.2C173.2 297.7 175.6 299.2 177.9 300.7C179.5 301.8 181 299.2 179.4 298.1C177.1 296.6 174.7 295.1 172.4 293.6C170.8 292.6 169.3 295.2 170.9 296.2Z" fill="#161616"/>
<path d="M184.3 297.7C185.5 296.5 186.6 295.4 187.8 294.2C189.2 292.8 187 290.7 185.7 292.1C184.5 293.3 183.4 294.4 182.2 295.6C180.8 297 183 299.1 184.3 297.7Z" fill="#161616"/>
<path d="M166.5 306C165.4 307 164.3 308 163.2 309.1C161.8 310.4 163.9 312.5 165.3 311.2C166.4 310.2 167.5 309.2 168.6 308.1C170.1 306.8 167.9 304.6 166.5 306Z" fill="#161616"/>
<path d="M171.4 310.9C170.6 312.3 169.9 313.6 169.1 315C168.2 316.7 170.8 318.2 171.7 316.5C172.5 315.1 173.2 313.8 174 312.4C175 310.7 172.4 309.2 171.4 310.9Z" fill="#161616"/>
<path d="M157.1 299.7C158.6 300.5 160.1 300.7 161.7 300.4C162.5 300.3 162.9 299.3 162.7 298.6C162.5 297.7 161.7 297.4 160.9 297.6C160.1 297.7 159.3 297.6 158.6 297.2C157.9 296.8 157 297 156.5 297.7C156.1 298.3 156.3 299.4 157.1 299.7Z" fill="#161616"/>
<path d="M166.6 281.5C167.6 282.7 168.5 283.8 169.5 285C170 285.6 171.1 285.5 171.6 285C172.2 284.4 172.1 283.5 171.6 282.9C170.6 281.7 169.7 280.6 168.7 279.4C168.2 278.8 167.1 278.9 166.6 279.4C166 280 166.1 280.9 166.6 281.5Z" fill="#161616"/>
<path d="M181.1 286.5C181.9 285.2 182.6 283.8 183.4 282.5C184.4 280.8 181.8 279.3 180.8 281C180 282.3 179.3 283.7 178.5 285C177.6 286.6 180.1 288.1 181.1 286.5Z" fill="#161616"/>
<path d="M191.6 291C193.1 289.8 194.7 288.7 196.2 287.5C196.8 287 197.2 286.2 196.7 285.4C196.3 284.8 195.3 284.4 194.6 284.9C193.1 286.1 191.5 287.2 190 288.4C189.4 288.9 189 289.7 189.5 290.5C189.9 291.1 190.9 291.5 191.6 291Z" fill="#161616"/>
<path d="M192.9 302.6C194.4 303.4 196 304.2 197.5 305C199.2 305.9 200.7 303.3 199 302.4C197.5 301.6 195.9 300.8 194.4 300C192.7 299.1 191.2 301.7 192.9 302.6Z" fill="#161616"/>
<path d="M190.3 313.9C191.2 315.1 192.2 316.2 193.1 317.4C193.6 318 194.7 317.9 195.2 317.4C195.8 316.8 195.7 315.9 195.2 315.3C194.3 314.1 193.3 313 192.4 311.8C191.9 311.2 190.8 311.3 190.3 311.8C189.7 312.4 189.8 313.3 190.3 313.9Z" fill="#161616"/>
<path d="M220.7 479.6C210.7 473.2 223.4 457.3 232.4 465.8C235.7 468.9 235.3 474.1 232.5 477.4C228.9 481.8 222.6 481.4 218.1 478.6C216.5 477.6 215 480.1 216.6 481.2C222.4 484.9 230.5 484.8 235 479.1C238.9 474.2 238.6 466.7 233.4 462.8C220.9 453.3 206.2 473.8 219.2 482.2C220.9 483.3 222.4 480.7 220.7 479.6Z" fill="#161616"/>
<path d="M218.7 468.7C220.8 469.8 222.9 471 224.9 472.1C226.6 473 228.1 470.4 226.4 469.5C224.3 468.4 222.2 467.2 220.2 466.1C218.5 465.2 217 467.8 218.7 468.7Z" fill="#161616"/>
<path d="M231.8 470.5C232.5 468.8 233.9 467.5 235.5 466.7C237.2 465.8 235.7 463.2 234 464.1C231.6 465.3 229.9 467.3 228.9 469.7C228.6 470.4 229.2 471.3 229.9 471.5C230.8 471.8 231.4 471.3 231.8 470.5Z" fill="#161616"/>
<path d="M215.8 481.3C215.8 481 215.7 481.5 215.7 481.6C215.8 481.4 215.6 481.7 215.6 481.8C215.7 481.6 215.5 481.9 215.5 481.9C215.4 482 215.4 482 215.5 481.9C215.4 482 215.3 482 215.2 482C214.5 482.4 214.3 483.4 214.7 484.1C215.1 484.8 216 485 216.8 484.6C218.1 483.9 218.8 482.6 218.9 481.2C219 480.4 218.2 479.7 217.4 479.7C216.5 479.8 215.9 480.4 215.8 481.3Z" fill="#161616"/>
<path d="M223.5 482C223.5 483.2 223.5 484.3 223.5 485.5C223.5 487.4 226.5 487.4 226.5 485.5C226.5 484.3 226.5 483.2 226.5 482C226.5 480.1 223.5 480 223.5 482Z" fill="#161616"/>
<path d="M215.3 474.2C214.4 474.2 213.5 474.2 212.5 474.2C210.6 474.2 210.6 477.2 212.5 477.2C213.4 477.2 214.3 477.2 215.3 477.2C217.2 477.2 217.2 474.2 215.3 474.2Z" fill="#161616"/>
<path d="M221.5 462.2C221.3 461 221 459.9 220.8 458.7C220.6 457.9 219.7 457.4 219 457.7C218.2 457.9 217.8 458.7 218 459.5C218.2 460.7 218.5 461.8 218.7 463C218.9 463.8 219.8 464.3 220.5 464C221.2 463.8 221.6 463 221.5 462.2Z" fill="#161616"/>
<path d="M231.7 463.3C232.4 462.1 233.1 461 233.8 459.8C234.8 458.1 232.2 456.6 231.2 458.3C230.5 459.5 229.8 460.6 229.1 461.8C228.1 463.4 230.7 464.9 231.7 463.3Z" fill="#161616"/>
<path d="M236 471C236.9 471 237.8 471 238.8 471C240.7 471 240.7 468 238.8 468C237.9 468 237 468 236 468C234.1 468 234.1 471 236 471Z" fill="#161616"/>
<path d="M69.2001 435C54.3001 425.7 66.2001 399.8 83.0001 406.3C91.2001 409.4 93.2001 419.7 90.6001 427.3C87.0001 437.8 75.0001 437.3 66.3001 434.5C64.5001 433.9 63.7001 436.8 65.5001 437.4C75.3001 440.6 88.2001 440.6 92.9001 429.6C96.9001 420.4 94.2001 407.4 84.2001 403.5C64.0001 395.7 49.7001 426.4 67.7001 437.6C69.3001 438.7 70.8001 436.1 69.2001 435Z" fill="#161616"/>
<path d="M67.3999 411.6C70.9999 414.7 74.5999 417.8 78.2999 420.9C79.7999 422.1 81.8999 420 80.3999 418.8C76.7999 415.7 73.1999 412.6 69.4999 409.5C68.0999 408.3 65.8999 410.4 67.3999 411.6Z" fill="#161616"/>
<path d="M85.4002 419.3C87.5002 417 89.6002 414.7 91.6002 412.4C92.9002 411 90.8002 408.8 89.5002 410.3C87.4002 412.6 85.3002 414.9 83.3002 417.2C82.0002 418.6 84.1002 420.8 85.4002 419.3Z" fill="#161616"/>
<path d="M58.3002 420.9C56.2002 421.5 54.3002 422.6 52.8002 424.1C51.5002 425.5 53.6002 427.6 54.9002 426.2C56.1002 425 57.4002 424.2 59.0002 423.7C61.0002 423.3 60.2002 420.4 58.3002 420.9Z" fill="#161616"/>
<path d="M63.2 433.1C62 434.2 60.9 435.4 59.7 436.5C58.3 437.8 60.4 440 61.8 438.6C63 437.5 64.1 436.3 65.3 435.2C66.7 433.9 64.5 431.7 63.2 433.1Z" fill="#161616"/>
<path d="M73.8 438.1C74.1 439.9 74.4 441.8 74.6 443.6C74.7 444.4 75.7 444.8 76.4 444.6C77.3 444.4 77.6 443.6 77.4 442.8C77.1 441 76.8 439.1 76.6 437.3C76.5 436.5 75.5 436.1 74.8 436.3C74 436.5 73.6 437.3 73.8 438.1Z" fill="#161616"/>
<path d="M61.5998 412.1C60.1998 411.4 58.7998 410.7 57.4998 410C55.7998 409.1 54.2998 411.7 55.9998 412.6C57.3998 413.3 58.7998 414 60.0998 414.7C61.7998 415.6 63.2998 413 61.5998 412.1Z" fill="#161616"/>
<path d="M73.4 405.4C72.8 403.7 72.6 402 72.7 400.3C72.8 398.4 69.8 398.4 69.7 400.3C69.5 402.3 69.8 404.3 70.5 406.2C71.1 408 74 407.2 73.4 405.4Z" fill="#161616"/>
<path d="M84.3 404.5C85.2 402.9 86.1 401.3 87.1 399.6C88.1 397.9 85.5 396.4 84.5 398.1C83.6 399.7 82.7 401.3 81.7 403C80.7 404.6 83.3 406.1 84.3 404.5Z" fill="#161616"/>
<path d="M90.5999 414.2C92.5999 414.3 94.5999 413.8 96.1999 412.6C96.8999 412.1 97.1999 411.3 96.6999 410.5C96.2999 409.9 95.2999 409.5 94.5999 410C93.3999 410.9 92.0999 411.3 90.4999 411.2C88.6999 411.1 88.6999 414.1 90.5999 414.2Z" fill="#161616"/>
<path d="M93.7 424.9C94.9 425.8 96 426.7 97.2 427.7C97.8 428.2 98.7 428.3 99.3 427.7C99.8 427.2 99.9 426.1 99.3 425.6C98.1 424.7 97 423.8 95.8 422.8C95.2 422.3 94.3 422.2 93.7 422.8C93.2 423.3 93.1 424.4 93.7 424.9Z" fill="#161616"/>
<path d="M88.4998 436.4C89.3998 438.5 91.1998 440.2 93.1998 441.1C93.8998 441.4 94.7998 441.3 95.2998 440.6C95.6998 440 95.4998 438.9 94.7998 438.5C93.0998 437.8 91.8998 436.6 91.0998 434.9C90.7998 434.2 89.6998 434 88.9998 434.4C88.2998 434.7 88.1998 435.6 88.4998 436.4Z" fill="#161616"/>
<path d="M106 143C91.7002 135 107.3 110.9 121.1 121C126.4 124.9 127.6 132.2 124.4 137.8C120.7 144.3 112.3 145.6 106.1 142C104.4 141 102.9 143.6 104.6 144.6C112 148.9 122 147.4 126.7 139.9C131.2 132.7 129.5 122.7 122.3 118C105.1 106.8 87.0002 135.8 104.5 145.5C106.2 146.6 107.7 144 106 143Z" fill="#161616"/>
<path d="M105.3 126.8C108.8 128.5 112.2 130.3 115.7 132C117.4 132.9 118.9 130.3 117.2 129.4C113.7 127.7 110.3 125.9 106.8 124.2C105.1 123.4 103.6 126 105.3 126.8Z" fill="#161616"/>
<path d="M120.9 129.9C122.8 128.3 124.7 126.7 126.6 125.1C128.1 123.8 125.9 121.7 124.5 123C122.6 124.6 120.7 126.2 118.8 127.8C117.3 129 119.4 131.1 120.9 129.9Z" fill="#161616"/>
<path d="M96.3 138.1C94.4 139.5 92.5 140.8 90.6 142.2C89 143.3 90.5 145.9 92.1 144.8C94 143.4 95.9 142.1 97.8 140.7C99.4001 139.5 97.9 136.9 96.3 138.1Z" fill="#161616"/>
<path d="M105.5 142.7C104.4 144.6 103.4 146.5 102.3 148.4C101.3 150.1 103.9 151.6 104.9 149.9C106 148 107 146.1 108.1 144.2C109 142.5 106.4 141 105.5 142.7Z" fill="#161616"/>
<path d="M96.2999 129.1C94.1999 129 92.1999 128.7 90.1999 128.2C88.2999 127.7 87.4999 130.6 89.3999 131.1C91.5999 131.7 93.8999 132.1 96.2999 132.1C98.1999 132.1 98.1999 129.1 96.2999 129.1Z" fill="#161616"/>
<path d="M103.5 119.5C102.7 117.5 101.2 116 99.0998 115.3C97.2998 114.7 96.4998 117.6 98.2998 118.2C99.2998 118.5 100.2 119.3 100.6 120.3C100.9 121.1 101.6 121.6 102.4 121.3C103.2 121.2 103.8 120.3 103.5 119.5Z" fill="#161616"/>
<path d="M114.7 117.9C115.2 116 115.7 114.1 116.2 112.2C116.7 110.3 113.8 109.5 113.3 111.4C112.8 113.3 112.3 115.2 111.8 117.1C111.3 119 114.2 119.8 114.7 117.9Z" fill="#161616"/>
<path d="M113.7 146.7C114.8 148.3 115.9 150 116.9 151.6C118 153.2 120.6 151.7 119.5 150.1C118.4 148.5 117.3 146.8 116.3 145.2C115.3 143.5 112.7 145 113.7 146.7Z" fill="#161616"/>
<path d="M123.2 141.4C124.6 142.2 125.9 143 127.3 143.8C129 144.8 130.5 142.2 128.8 141.2C127.4 140.4 126.1 139.6 124.7 138.8C123.1 137.8 121.6 140.4 123.2 141.4Z" fill="#161616"/>
<path d="M129.2 132.1C130.6 131.8 131.9 131.5 133.3 131.2C135.2 130.8 134.4 127.9 132.5 128.3C131.1 128.6 129.8 128.9 128.4 129.2C126.5 129.6 127.3 132.5 129.2 132.1Z" fill="#161616"/>
<path d="M127 120.8C127.1 119.7 127.5 118.7 128.3 117.8C129.6 116.4 127.5 114.2 126.2 115.7C124.9 117.1 124.2 118.9 124.1 120.8C124 121.6 124.8 122.3 125.6 122.3C126.3 122.3 126.9 121.6 127 120.8Z" fill="#161616"/>
<path d="M15.4 254C12.9 249.7 13.8 243.7 18.5 241.4C22.7 239.3 28.4 240.7 30.4 245.2C32 249 30.9 254.1 27.1 256.1C23.1 258.3 18 256.6 15.7 252.9C14.7 251.2 12.1 252.8 13.1 254.4C16.1 259.4 22.9 261.6 28.2 258.9C33.6 256.1 35.5 248.8 32.9 243.5C30.1 237.9 22.9 236 17.4 238.7C11.1 241.7 9.40004 249.8 12.8 255.6C13.8 257.2 16.4 255.7 15.4 254Z" fill="#161616"/>
<path d="M13.3999 245.8C15.8999 247.3 18.4999 248.8 20.9999 250.4C22.6999 251.4 24.1999 248.8 22.4999 247.8C19.9999 246.3 17.3999 244.8 14.8999 243.2C13.2999 242.2 11.7999 244.8 13.3999 245.8Z" fill="#161616"/>
<path d="M25.6999 247.1C26.9999 245.9 28.1999 244.6 29.4999 243.4C30.8999 242 28.7999 239.9 27.3999 241.3C26.0999 242.5 24.8999 243.8 23.5999 245C22.1999 246.3 24.2999 248.4 25.6999 247.1Z" fill="#161616"/>
<path d="M15.7999 258C15.4999 259.2 15.0999 260.5 14.7999 261.7C14.2999 263.6 17.1999 264.4 17.6999 262.5C17.9999 261.3 18.3999 260 18.6999 258.8C19.1999 256.9 16.2999 256.1 15.7999 258Z" fill="#161616"/>
<path d="M13.3 253.5C12 254.6 10.4 255.1 8.8 255C6.9 254.9 6.9 257.9 8.8 258C11.3 258.1 13.6 257.3 15.5 255.6C16.8 254.3 14.7 252.2 13.3 253.5Z" fill="#161616"/>
<path d="M10.1 246.5C9.20001 246.2 8.20001 245.9 7.30001 245.6C6.50001 245.3 5.70001 245.9 5.50001 246.6C5.30001 247.4 5.80001 248.2 6.50001 248.4C7.40001 248.7 8.40001 249 9.30001 249.3C10.1 249.6 10.9 249 11.1 248.3C11.3 247.6 10.8 246.8 10.1 246.5Z" fill="#161616"/>
<path d="M20.6001 240.5C20.6001 238.9 20.6001 237.4 20.6001 235.8C20.6001 233.9 17.6001 233.9 17.6001 235.8C17.6001 237.4 17.6001 238.9 17.6001 240.5C17.6001 242.4 20.6001 242.4 20.6001 240.5Z" fill="#161616"/>
<path d="M28.0001 240.9C28.3001 240.1 28.9001 239.4 29.8001 239.1C30.6001 238.9 31.1001 238.1 30.8001 237.3C30.6001 236.5 29.7001 236 29.0001 236.3C27.1001 236.9 25.7001 238.3 25.1001 240.2C24.9001 241 25.4001 241.8 26.1001 242C27.0001 242.1 27.8001 241.7 28.0001 240.9Z" fill="#161616"/>
<path d="M31.6999 250.4C32.7999 250.1 33.9999 250.6 34.6999 251.6C35.7999 253.2 38.3999 251.7 37.2999 250.1C35.8999 248 33.3999 247 30.8999 247.6C28.9999 248 29.7999 250.9 31.6999 250.4Z" fill="#161616"/>
<path d="M28.9 256.1C28.1 258.4 29.5 260.9 31.8 261.6C32.6 261.9 33.4 261.3 33.6 260.6C33.8 259.8 33.3 259 32.6 258.8C31.8 258.5 31.6 257.6 31.8 257C32.5 255 29.6 254.2 28.9 256.1Z" fill="#161616"/>
<path d="M252.8 168.4C251.6 163.3 253.2 157.8 258.2 155.5C263.4 153.1 269.1 156.2 270.2 161.8C272.2 172.2 255.1 178 252.5 167C252.1 165.1 249.2 165.9 249.6 167.8C253.1 182.7 276.6 175 273.1 160.6C271.5 154 264.9 150.1 258.4 152.2C251.1 154.5 248.4 162.3 250 169.2C250.4 171.1 253.3 170.3 252.8 168.4Z" fill="#161616"/>
<path d="M251.8 159.5C254.1 160.9 256.3 162.4 258.6 163.8C260.2 164.8 261.7 162.2 260.1 161.2C257.8 159.8 255.6 158.3 253.3 156.9C251.6 155.9 250.1 158.5 251.8 159.5Z" fill="#161616"/>
<path d="M265.4 161.8C266.5 160.1 267.5 158.4 268.6 156.7C269.6 155.1 267 153.5 266 155.2C264.9 156.9 263.9 158.6 262.8 160.3C261.8 161.9 264.4 163.5 265.4 161.8Z" fill="#161616"/>
<path d="M253.3 173.3C252.7 174.1 252.1 174.8 251.5 175.6C251 176.2 250.9 177.1 251.5 177.7C252 178.2 253.1 178.3 253.6 177.7C254.2 176.9 254.8 176.2 255.4 175.4C255.9 174.8 256 173.9 255.4 173.3C254.9 172.7 253.8 172.6 253.3 173.3Z" fill="#161616"/>
<path d="M250 170C249.1 171 247.9 171.7 246.6 172C244.7 172.5 245.5 175.4 247.4 174.9C249.2 174.5 250.9 173.5 252.1 172.1C253.5 170.7 251.3 168.6 250 170Z" fill="#161616"/>
<path d="M249.8 163.2C248.8 163.3 247.9 163.1 247 162.8C246.2 162.5 245.4 163.1 245.2 163.8C245 164.6 245.5 165.4 246.2 165.6C247.3 166 248.6 166.2 249.8 166.1C250.6 166 251.3 165.4 251.3 164.6C251.3 163.9 250.6 163.1 249.8 163.2Z" fill="#161616"/>
<path d="M256.7 154.9C256 154 255.4 152.9 255 151.8C254.7 151 254 150.5 253.2 150.8C252.5 151 251.9 151.9 252.2 152.6C252.8 154.2 253.6 155.7 254.7 157.1C255.2 157.7 256.3 157.6 256.8 157.1C257.3 156.4 257.2 155.6 256.7 154.9Z" fill="#161616"/>
<path d="M265.8 152.6C266 151.4 266.1 150.2 266.3 148.9C266.4 148.1 266.1 147.3 265.3 147.1C264.6 146.9 263.6 147.3 263.5 148.1C263.3 149.3 263.2 150.5 263 151.8C262.9 152.6 263.2 153.4 264 153.6C264.6 153.8 265.6 153.4 265.8 152.6Z" fill="#161616"/>
<path d="M270 162C271.5 162.2 273.1 162.4 274.6 162.6C275.4 162.7 276.1 161.8 276.1 161.1C276.1 160.2 275.4 159.7 274.6 159.6C273.1 159.4 271.5 159.2 270 159C269.2 158.9 268.5 159.8 268.5 160.5C268.5 161.4 269.2 161.9 270 162Z" fill="#161616"/>
<path d="M268.6 171.2C269.6 172.4 270.7 173.7 271.7 174.9C272.2 175.5 273.3 175.4 273.8 174.9C274.4 174.3 274.3 173.4 273.8 172.8C272.8 171.6 271.7 170.3 270.7 169.1C270.2 168.5 269.1 168.6 268.6 169.1C268 169.6 268.1 170.5 268.6 171.2Z" fill="#161616"/>
<path d="M263 175.2C263.4 177.5 263.8 179.8 264.2 182.1C264.5 184 267.4 183.2 267.1 181.3C266.7 179 266.3 176.7 265.9 174.4C265.6 172.5 262.7 173.3 263 175.2Z" fill="#161616"/>
<path d="M302.5 364.5C299.1 361.7 296.8 357.6 297.1 353.1C297.5 347.8 302.6 343.3 308 344.1C314.1 345 316.8 352.4 316.3 357.9C315.6 365.3 307.5 368.7 301.7 363.8C300.2 362.6 298.1 364.7 299.6 365.9C305 370.4 313.1 370.3 317.3 364.2C321.7 357.9 319.2 346.9 312.9 342.7C307.3 339 299.5 341.4 296 346.9C291.8 353.4 294.7 361.9 300.3 366.5C301.8 367.9 303.9 365.8 302.5 364.5Z" fill="#161616"/>
<path d="M297.3 349.3C300.3 351.2 303.3 353.2 306.3 355.1C307.9 356.2 309.4 353.6 307.8 352.5C304.8 350.6 301.8 348.6 298.8 346.7C297.2 345.6 295.7 348.2 297.3 349.3Z" fill="#161616"/>
<path d="M312 353.3C313.4 351.1 314.9 348.9 316.3 346.7C317.4 345.1 314.8 343.6 313.7 345.2C312.3 347.4 310.8 349.6 309.4 351.8C308.4 353.4 311 354.9 312 353.3Z" fill="#161616"/>
<path d="M296.3 364.4C294.9 365.8 293.6 367.1 292.2 368.5C290.8 369.9 293 372 294.3 370.6C295.7 369.2 297 367.9 298.4 366.5C299.8 365.1 297.7 363 296.3 364.4Z" fill="#161616"/>
<path d="M302 368.5C301.6 370.5 301.2 372.6 300.7 374.6C300.3 376.5 303.2 377.3 303.6 375.4C304 373.4 304.4 371.3 304.9 369.3C305.3 367.4 302.4 366.6 302 368.5Z" fill="#161616"/>
<path d="M294 355.2C292.2 355.2 290.4 355.2 288.6 355.2C286.7 355.2 286.7 358.2 288.6 358.2C290.4 358.2 292.2 358.2 294 358.2C296 358.2 296 355.2 294 355.2Z" fill="#161616"/>
<path d="M299.5 340.6C298.5 340 298.1 338.9 298.2 337.8C298.3 337 297.5 336.3 296.7 336.3C295.8 336.3 295.3 337 295.2 337.8C295 340 296.1 342 297.9 343.2C299.6 344.3 301.1 341.7 299.5 340.6Z" fill="#161616"/>
<path d="M311.1 340.9C311.5 339.1 312.1 337.4 312.9 335.8C313.8 334.1 311.2 332.6 310.3 334.3C309.3 336.1 308.6 338.1 308.2 340.1C307.8 342 310.7 342.8 311.1 340.9Z" fill="#161616"/>
<path d="M316.8 348.8C318.4 348.5 319.9 348.7 321.4 349.3C323.2 350 324 347.1 322.2 346.4C320.2 345.6 318.1 345.5 316 345.9C314.1 346.2 314.9 349.1 316.8 348.8Z" fill="#161616"/>
<path d="M318 359.6C319.5 360.2 320.6 361.4 321.2 362.9C321.5 363.6 322.6 363.8 323.3 363.4C324.1 362.9 324.2 362.1 323.8 361.3C322.9 359.1 321 357.5 318.8 356.6C318 356.3 317.2 356.9 317 357.6C316.7 358.6 317.2 359.3 318 359.6Z" fill="#161616"/>
<path d="M316.2 366.9C315.9 369.8 316.7 372.7 318.3 375.2C319.3 376.8 321.9 375.3 320.9 373.7C319.6 371.6 319 369.4 319.3 366.9C319.4 364.9 316.4 365 316.2 366.9Z" fill="#161616"/>
<path d="M104.9 526.3C103 524.4 105.3 520.7 107.8 522.5C110.5 524.4 107.7 528 105.1 526.5C103.4 525.5 101.9 528.1 103.6 529.1C106 530.5 109.2 529.8 110.9 527.6C112.8 525.2 112 521.9 109.6 520.2C107.3 518.5 104 518.8 102.3 521.2C100.7 523.4 100.8 526.6 102.7 528.6C104.1 529.8 106.2 527.6 104.9 526.3Z" fill="#161616"/>
<path d="M102.7 520.4C101.7 520.1 100.7 519.7 99.6999 519.4C98.8999 519.1 98.0999 519.7 97.8999 520.4C97.6999 521.2 98.1999 522 98.8999 522.2C99.8999 522.5 100.9 522.9 101.9 523.2C102.7 523.5 103.5 522.9 103.7 522.2C104 521.4 103.5 520.6 102.7 520.4Z" fill="#161616"/>
<path d="M102.7 523.2C106 522.5 108.5 519.3 108.3 515.9C108.2 514 105.2 514 105.3 515.9C105.4 518.1 104 519.9 101.9 520.3C100.1 520.7 100.8 523.6 102.7 523.2Z" fill="#161616"/>
<path d="M111.7 524.4C113 524.1 114.3 523.7 115.6 523.4C117.5 522.9 116.7 520 114.8 520.5C113.5 520.8 112.2 521.2 110.9 521.5C109 522 109.8 524.9 111.7 524.4Z" fill="#161616"/>
<path d="M109 529.5C109.7 530.5 110.3 531.5 111 532.5C111.4 533.2 112.3 533.5 113.1 533C113.8 532.6 114.1 531.6 113.6 530.9C112.9 529.9 112.3 528.9 111.6 527.9C111.2 527.2 110.3 526.9 109.5 527.4C108.8 527.8 108.5 528.8 109 529.5Z" fill="#161616"/>
<path d="M105.5 524.4C103.4 525.9 101.9 527.9 100.9 530.3C100.6 531.1 101.2 531.9 101.9 532.1C102.8 532.3 103.4 531.8 103.7 531.1C104.4 529.5 105.5 528 106.9 527C107.6 526.5 107.9 525.7 107.4 524.9C107.2 524.3 106.2 524 105.5 524.4Z" fill="#161616"/>
<path d="M244.8 104.1C254.5 114.3 265 123.5 276.3 131.8C277.9 132.9 279.4 130.3 277.8 129.2C266.7 121 256.4 111.9 246.9 101.9C245.6 100.6 243.5 102.7 244.8 104.1Z" fill="#161616"/>
<path d="M148.7 341.9C178.6 340.3 208.5 345.4 236.1 357.1C237.9 357.8 239.4 355.3 237.6 354.5C209.5 342.6 179.2 337.2 148.7 338.9C146.8 339.1 146.8 342.1 148.7 341.9Z" fill="#161616"/>
<path d="M290.7 495.1C302.3 488.3 313.8 481.5 325.4 474.6C327.1 473.6 325.6 471 323.9 472C312.3 478.8 300.8 485.6 289.2 492.5C287.5 493.5 289 496.1 290.7 495.1Z" fill="#161616"/>
<path d="M160.5 531.2C177.4 515 197.2 502.4 219.1 494.1C220.9 493.4 220.1 490.5 218.3 491.2C196 499.7 175.7 512.5 158.4 529.1C157 530.4 159.1 532.6 160.5 531.2Z" fill="#161616"/>
<path d="M198.6 443.9C210.2 442.1 221.8 440.3 233.5 438.4C235.4 438.1 234.6 435.2 232.7 435.5C221.1 437.3 209.5 439.1 197.8 441C195.9 441.3 196.7 444.2 198.6 443.9Z" fill="#161616"/>
<path d="M1.49997 394.4C16.2 400.5 31.9 402.9 47.8 401.6C49.7 401.4 49.7 398.4 47.8 398.6C32.2 399.9 16.8 397.5 2.29997 391.5C0.499972 390.8 -0.300028 393.7 1.49997 394.4Z" fill="#161616"/>
<path d="M1.29988 195.6C26.6999 199.9 50.4999 210.7 70.2999 227.2C71.7999 228.4 73.8999 226.3 72.3999 225.1C52.1999 208.2 27.9999 197 1.99988 192.7C0.199885 192.4 -0.600115 195.3 1.29988 195.6Z" fill="#161616"/>
<path d="M59.8002 243.8C69.8002 249.4 80.3002 253.7 91.4002 256.7C93.3002 257.2 94.1002 254.3 92.2002 253.8C81.4002 250.9 71.1002 246.7 61.3002 241.2C59.7002 240.2 58.2002 242.8 59.8002 243.8Z" fill="#161616"/>
<path d="M111.3 84.0001C130.5 93.4001 147.1 107.1 159.9 124.2C161 125.7 163.6 124.2 162.5 122.7C149.4 105.2 132.5 91.0001 112.9 81.4001C111.1 80.6001 109.6 83.2001 111.3 84.0001Z" fill="#161616"/>
<path d="M193.7 172.4C202.3 176.6 210.9 180.9 219.4 185.1C221.1 186 222.6 183.4 220.9 182.5C212.3 178.3 203.7 174 195.2 169.8C193.5 168.9 191.9 171.5 193.7 172.4Z" fill="#161616"/>
<path d="M744.7 828.7C751.1 841 757.5 853.4 763.9 865.7C755.8 869.9 744.1 875.9 729.6 882.8C710.3 892 701 895.8 701.5 899.3C702.1 903.2 714.8 904.1 724.8 904.8C732.5 905.3 747.4 906 794.7 896.6C804.9 894.6 809.8 893.4 812.5 889.1C817.2 881.6 811.6 870.9 805 856.2C799.7 844.4 792.5 827.4 785.1 805.5C771.7 813.1 758.2 820.9 744.7 828.7Z" fill="#191919"/>
<path d="M527.1 430.9C542.1 485.5 558.3 529.7 571.6 562.4C582.6 589.3 592.1 609.8 596.1 618.2C615.5 659.1 632.4 687.9 639.4 700.2C657.4 731.5 683.2 779.1 715.5 848.7C723.2 849.7 742.2 851.1 762.8 841.1C788.5 828.7 799.5 806.9 802.5 800.4C779.8 758.5 764.7 722.9 755.2 698.3C729.3 631.5 726 594.1 699.4 507.2C686.4 464.8 673.6 428.9 663.1 401.2C617.9 411.2 572.5 421 527.1 430.9Z" fill="white" stroke="#191919" stroke-width="2"/>
<path opacity="0.09" d="M593.8 418.6C634.6 515.8 674.6 616.3 713.5 720C729.1 761.7 744.3 803 758.9 844C765.9 840.2 775 834.4 784.2 825.7C793.1 817.2 799.3 808.8 803.4 802.1C794.3 786.9 780.4 762.3 766.7 730.5C756.2 706.2 747.8 682.1 706.4 527C702 510.5 692.6 475.1 673.2 430.9C667.9 418.8 663.2 409.1 660.1 402.9C638.1 408.1 616 413.3 593.8 418.6Z" fill="#6C6D6D"/>
<path opacity="0.22" d="M641.9 407.2C659 451.1 675.7 497.2 691.7 545.2C725.5 647.2 751.4 744.4 771.2 835.2C775.9 832.3 781.4 828.4 786.9 823C794.9 815.2 800.2 807.2 803.5 801.2C785.5 768.7 773.1 741 765.1 721.7C734.9 649.1 717.4 576.2 707.4 534.8C705.8 528.2 704.9 524.2 703 517.3C692.8 480.2 683.3 465.8 670.7 426.4C669.1 421.3 666.5 413.1 663.7 402.8C656.4 404.3 649.2 405.7 641.9 407.2Z" fill="#6C6D6D"/>
<path d="M520.6 727.9C529.5 739.3 538.4 750.7 547.3 762.2C496.6 779.7 484.8 787.7 485.6 791.7C487.6 800.9 558.1 784.9 588.4 789C590.8 789.3 598.5 790.5 602.1 786.3C605.2 782.6 603.8 776.5 602.8 773.3C587 749.3 571.3 725.3 555.5 701.3C543.9 710.1 532.2 719 520.6 727.9Z" fill="#191919"/>
<path d="M674.4 433.2C681 450.7 701.3 510.3 671.6 551.5C668.7 555.6 660 566.8 622.4 587.6C584.9 608.3 550.6 621 523.9 628.9C532 642.7 542.1 658 554.7 673.8C564.6 686.2 574.4 697 583.7 706.3C564.4 723 545 739.7 525.7 756.4C507.8 748.3 478.1 732 451.8 701C434.8 681 414.7 657.2 414.9 626.2C415.1 597.4 432.9 578.2 465.9 542.7C488.3 518.6 524.8 480.2 587.3 454.8C622.1 440.6 653.2 435.3 674.4 433.2Z" fill="white" stroke="#191919" stroke-width="2"/>
<path opacity="0.17" d="M605.1 448.3C609.1 457.2 613.7 471.3 612.1 488.1C610 510.4 597.8 527.6 577.2 548.1C556.9 568.3 520.4 599.6 462.1 627.6C492.1 661.8 522.1 695.9 552.1 730.1C562.3 722.7 572.6 715.2 582.8 707.8C573.3 697.8 563.4 686.5 553.5 673.6C541.6 658.2 531.7 643.4 523.5 629.7C553.1 620 577.3 610 595.3 601.8C595.3 601.8 617.2 591.9 644.8 574.6C657.1 566.9 665 561.2 672 551.6C680.3 540.2 683.1 529.4 684.6 523.7C694.3 486 676.6 442.8 672.7 433.7C661.5 434.1 648 435.6 632.9 439.3C622.4 441.8 613 445 605.1 448.3Z" fill="#6C6D6D"/>
<path opacity="0.22" d="M682.5 522.2C664.7 537.1 644.5 552.5 621.8 567.5C580.4 595 540.8 615 506 629.6C527.2 658.2 548.3 686.8 569.5 715.4C573.9 712.4 578.3 709.4 582.8 706.3C572.4 694.8 561.6 681.8 550.7 667.2C540.6 653.6 531.8 640.5 524.2 628.1C532.6 625.9 544.2 622.5 557.7 617.6C587.1 606.9 606.8 595.7 628.1 583.4C658.1 566.1 664.6 559.2 669.2 552.7C677.3 541.6 680.8 530.1 682.5 522.2Z" fill="#6C6D6D"/>
<path d="M624.3 190.1C609.5 184 592.1 212.1 590.5 214.7C584.6 224.5 583.2 231.6 577.7 250.6C564.2 297.1 557.2 320.6 543.9 332.8C532 343.7 519.5 344.2 516.2 344.1C502.2 344 490.7 334.3 468.2 314.8C449.3 298.4 447.3 293.4 436.4 289.3C430.8 287.2 414.6 281 401.9 293.1C393.8 300.8 388.9 315 391.1 318.6C393.9 323.2 409 312.3 409.1 312.7C409.2 312.9 404.8 314.7 400.7 319.6C398.7 322 395.2 327.2 396 329C397.5 332.5 410.9 316.4 422.9 322.4C431.1 326.5 431.5 337.3 441 341.5C446.6 344 451.9 342.6 455.3 341.3C459.9 350.9 467.6 364.7 479.6 377.2C486.7 384.7 512 410.3 547.2 406.5C584.4 402.4 607.1 368 614.1 357.4C618.1 351.3 647.6 305.1 643.2 244.9C642.5 235.2 639.6 196.5 624.3 190.1Z" fill="white" stroke="#191919" stroke-width="2"/>
<path opacity="0.25" d="M622.6 190.1C617 192.6 624 220.7 618.3 257.4C612.9 292.7 598.7 316.5 592.3 327.3C583.7 341.9 572.4 360.9 553.1 370.6C527.2 383.7 498.2 374.5 478.8 357.3C473 352.2 468.1 338.8 455.2 328.4C449.6 323.9 445 321.5 439.7 318.8C426.7 312.2 415 306.2 403.1 311.4C397.4 313.9 392.3 318.6 392.6 319.5C392.9 320.4 399.5 317.4 405.4 314.6C397.5 325 396 328.2 396.4 329C396.8 329.8 399.2 327.7 404.8 324.9C410.8 321.9 415.1 319.9 419.9 321.6C422.4 322.5 424.1 324 425.2 324.9C429.2 328.5 429.9 331.8 433.9 335.9C436.4 338.4 438.6 339.6 439.7 340.2C442.1 341.5 447.3 343.7 454.6 341.9C459.6 352 482.9 396.9 523.8 405.1C544.8 409.3 561.5 402.1 568.1 399.1C604.2 382.7 622.4 343.7 627.2 332.9C641.9 299.4 651.8 247.1 636.7 209.4C633.1 200.3 626.5 188.4 622.6 190.1Z" fill="#6C6D6D"/>
<path opacity="0.29" d="M640.8 234.5C638.3 245.3 634.2 260.8 628.2 278.7C616.3 314.2 605.6 346.1 584.7 368.7C558.9 396.7 528 399 510.6 397.9C522.8 404.8 532.9 406.3 539.4 406.4C588.4 407.9 622.6 343.1 633.2 313.9C635.1 308.7 638.9 298 641.1 282.7C644.1 262.3 642.4 244.9 640.8 234.5Z" fill="#6C6D6D"/>
<path d="M546.1 210.1C530.1 227.1 526.2 246.1 520 276.4C510.6 322 515.2 359.6 519.5 393.2C523.1 421.3 528.4 444.1 532.4 459.4C537.9 463.7 570.1 488 614.8 481.5C654.8 475.6 677.7 449.1 682.9 442.7C684.6 433.2 687 419.2 689.8 402.2C705.7 303.6 714.7 254.1 702.7 230.7C695.7 217 680.2 196.7 641.4 182.1C630.2 180.9 578.3 175.9 546.1 210.1Z" fill="#EC615B"/>
<path opacity="0.19" d="M549.6 206.7C581.3 218.4 597 235.7 604.4 245.9C645.4 302.2 620.2 385.6 590.7 432C578.8 450.7 565.8 464.1 556.3 472.7C565.1 476.9 587.6 486.1 616.3 481.8C654.9 475.9 677 449.6 682.1 443.2C686.2 402.8 692.5 371.1 697.8 349.2C702.4 330 704.5 312.7 708.8 278.1C710.3 265.9 712.1 250.1 704.2 233.6C699.7 224.2 693.8 218.1 689.4 213.6C682.8 206.9 669.5 195.5 647.8 188.5C637.6 186 620.1 183.2 598.7 186.8C575.2 190.7 558.4 200.6 549.6 206.7Z" fill="#6C6D6D"/>
<path opacity="0.18" d="M700.3 223C698.5 223.1 702.3 250.8 696.4 289C685.5 359.7 650.5 408.7 637 426.1C625.7 440.6 608 460.6 582.1 480.3C591.4 481.7 603.8 482.3 618 479.6C651.7 473.3 673.1 452.6 681.3 443.7C683.4 431.5 686.8 412.4 691.1 388.8C701.2 333.6 703.2 327 704.8 309.8C709.2 262.9 702.4 223 700.3 223Z" fill="#6C6D6D"/>
<path d="M686.1 210.4C667.5 204.3 645.8 232.3 643.8 234.9C636.4 244.6 634.6 251.7 627.7 270.6C610.8 316.9 602.1 340.3 585.4 352.4C570.5 363.3 554.9 363.7 550.7 363.7C533.2 363.6 518.8 353.9 490.7 334.5C467 318.2 464.6 313.2 451 309.1C444 307 423.8 300.9 407.9 312.9C397.8 320.6 391.6 334.7 394.4 338.3C397.9 342.9 416.8 332.1 416.9 332.4C417 332.6 411.5 334.3 406.4 339.2C403.9 341.6 399.5 346.7 400.5 348.6C402.4 352.1 419.2 336.1 434.2 342C444.4 346.1 445 356.8 456.9 361C463.9 363.5 470.6 362.1 474.8 360.8C480.6 370.3 490.2 384.1 505.2 396.5C514.1 403.9 545.8 429.5 589.7 425.7C636.3 421.7 664.6 387.4 673.4 376.8C678.5 370.7 715.4 324.7 709.8 264.9C708.9 255.2 705.3 216.7 686.1 210.4Z" fill="white" stroke="#191919" stroke-width="2"/>
<path opacity="0.25" d="M684.1 210.3C677.1 212.8 685.9 240.7 678.8 277.3C672 312.4 654.3 336.1 646.2 346.8C635.4 361.3 621.3 380.2 597.1 389.9C564.7 402.9 528.4 393.7 504.1 376.7C496.9 371.6 490.8 358.3 474.6 347.9C467.6 343.4 461.9 341.1 455.2 338.4C438.9 331.8 424.3 325.9 409.4 331.1C402.2 333.6 395.9 338.3 396.2 339.1C396.5 340 404.8 337 412.2 334.2C402.3 344.6 400.4 347.8 400.9 348.6C401.5 349.4 404.4 347.3 411.4 344.5C418.9 341.5 424.3 339.5 430.3 341.2C433.4 342.1 435.6 343.6 436.9 344.5C442 348 442.8 351.4 447.8 355.4C450.9 357.9 453.7 359.1 455.1 359.7C458.1 361 464.7 363.2 473.8 361.4C480.1 371.5 509.2 416.1 560.4 424.3C586.7 428.5 607.5 421.3 615.8 418.3C661 402 683.8 363.2 689.7 352.4C708 319 720.5 267 701.6 229.5C697.2 220.5 688.9 208.6 684.1 210.3Z" fill="#6C6D6D"/>
<path opacity="0.29" d="M706.9 254.5C703.7 265.2 698.7 280.7 691.2 298.5C676.3 333.8 662.9 365.6 636.8 388.1C604.5 415.9 565.9 418.2 544.1 417.1C559.4 424 572 425.4 580.1 425.6C641.4 427 684.2 362.6 697.5 333.5C699.9 328.4 704.7 317.7 707.4 302.5C711 282.1 708.9 264.9 706.9 254.5Z" fill="#6C6D6D"/>
<path d="M403.2 194C383.7 252.2 383.1 300.9 385.2 330.6C390.5 408.7 421.5 466.3 440 499.8C452.9 523.2 465.7 541.8 475.4 554.8C478.7 555.1 482.1 555.3 485.4 555.6C486.4 542.8 488 525.3 490.8 504.8C492.8 489.9 501.2 430.7 524.9 354.4C537 315.3 554.4 267.7 579.5 215.3C568.6 212.2 557.6 209.2 546.7 206.1C538.6 238.6 518.9 256.9 507.8 254.3C497.2 251.8 488.4 229 492.2 199.7C485.4 198.6 478.5 197.5 471.7 196.4C459.3 225.7 441.8 241.8 432.6 238.7C424.3 235.9 420.7 216.8 423.2 194.2C416.6 194.1 409.9 194 403.2 194Z" fill="#161616" stroke="#161616" stroke-width="2"/>
<path d="M396.9 193.7C386.1 222.8 372.9 270.2 375.7 328.9C376.9 353.5 383 425.1 430.5 498.1C446.6 522.9 463.4 541.4 476 553.9C477 541.1 478.6 523.6 481.4 503.1C483.4 488.2 491.8 429 515.5 352.7C527.6 313.6 545 266 570.1 213.6C560.6 210.3 551.2 207 541.7 203.7C532.3 237.8 510.4 255.9 498.4 252.7C487.3 249.7 479 226.6 482.8 198.1C476.2 197.4 469.6 196.7 462.9 196C450.7 225.1 432.7 240.4 423.2 237.2C414.8 234.3 411 216 413.3 194.6C407.8 194.2 402.3 194 396.9 193.7Z" fill="white" stroke="#161616" stroke-width="2"/>
<path d="M423.6 324.7C425.3 314.9 433 306.8 442.8 304.9C457.6 302.1 462.1 319.2 461 330.8C460.8 332.7 463.8 332.7 464 330.8C465.3 318.6 460.4 300.6 445.2 301.6C433.1 302.4 422.8 312.1 420.7 324C420.3 325.8 423.2 326.6 423.6 324.7Z" fill="#4F4F4F"/>
<path d="M420.1 326.6C434.6 326.8 448.8 328.9 462.7 333.1C464.6 333.7 465.3 330.8 463.5 330.2C449.4 325.9 434.9 323.7 420.1 323.6C418.1 323.6 418.1 326.6 420.1 326.6Z" fill="#4F4F4F"/>
<path d="M417.3 325.5C413.8 336.6 412.3 347.9 412.6 359.5C412.7 361.4 415.7 361.4 415.6 359.5C415.2 348.2 416.8 337.1 420.1 326.3C420.8 324.5 417.9 323.7 417.3 325.5Z" fill="#4F4F4F"/>
<path d="M413.3 362.1C427.6 368.7 443.2 371.3 458.9 369.3C460.8 369.1 460.8 366.1 458.9 366.3C443.8 368.2 428.7 366 414.8 359.6C413.1 358.7 411.6 361.3 413.3 362.1Z" fill="#4F4F4F"/>
<path d="M461.8 332.9C461.8 344.4 460.9 355.8 458.9 367.2C458.6 369.1 461.5 369.9 461.8 368C463.8 356.4 464.8 344.7 464.8 332.9C464.8 331 461.8 331 461.8 332.9Z" fill="#4F4F4F"/>
<path d="M437.3 342.7C436.6 342 438 339.9 438.9 340.3C439.8 340.7 439.4 342.9 438.4 342.4C438.2 342.3 438.2 342 438.1 342C438.3 342.1 438.3 342 438.2 342C438 342.1 438 342.4 437.7 342.5C436.5 343 437.1 340.7 437.6 340.7C438.1 340.7 438.3 343 437.9 343.2C437.4 343.3 436.9 342.2 436.9 341.9C436.8 341.4 436.9 340.9 437.3 340.6C438.3 339.8 439.1 340.7 439.3 341.7C439.4 342.2 439.3 342.9 439 343.3C438.9 343.4 438.4 343.5 438.3 343.4C437.7 341.6 434.8 342.4 435.4 344.2C436.6 347.6 441.1 346.8 442.1 343.7C443.1 340.5 440.8 336.8 437.2 337.5C433.9 338.2 433 342.2 435 344.7C436.1 346 438 346.8 439.5 345.8C440.9 344.9 441.2 343.1 441.1 341.6C440.9 339.9 440 338.2 438.2 337.8C436.4 337.4 435 338.8 434.4 340.4C433.8 341.9 434 343.7 435.2 344.8C436.3 345.8 438.1 345.8 439.3 345.1C440.8 344.3 441.7 342.4 441 340.8C440.4 339.4 438.7 338.7 437.2 339.2C435.6 339.7 434.9 341.5 435.3 343C435.7 344.6 437.3 345.6 439 345.5C443.1 345.1 443.7 338.9 439.9 337.5C436 336.1 432.4 342 435.3 344.9C436.6 346.1 438.7 344 437.3 342.7Z" fill="#4F4F4F"/>
<path d="M436.5 343.3C435.9 346.7 435.2 350.1 434.6 353.5C434.2 355.4 437.1 356.2 437.5 354.3C438.1 350.9 438.8 347.5 439.4 344.1C439.7 342.2 436.8 341.4 436.5 343.3Z" fill="#4F4F4F"/>
<path d="M435.4 343.1C434.7 346.7 434.3 350.3 434.3 353.9C434.3 355.8 437.3 355.8 437.3 353.9C437.3 350.5 437.6 347.2 438.3 343.9C438.7 342 435.8 341.2 435.4 343.1Z" fill="#4F4F4F"/>
<path d="M438.1 343.1C437.1 346.6 436 350 435 353.5C434.5 355.4 437.3 356.1 437.9 354.3C438.9 350.8 440 347.4 441 343.9C441.5 342 438.6 341.2 438.1 343.1Z" fill="#4F4F4F"/>
<path d="M437.3 341.6C439.2 341.6 439.2 338.6 437.3 338.6C435.4 338.6 435.4 341.6 437.3 341.6Z" fill="#4F4F4F"/>
<path d="M477.3 202C475.7 215.6 477.7 229 483 241.6C483.4 242.5 484.7 241.7 484.3 240.8C479.1 228.5 477.2 215.2 478.8 201.9C478.9 201 477.4 201 477.3 202Z" fill="#4F4F4F"/>
<path d="M406.2 200.1C405.4 211.5 406.9 222.7 410.8 233.5C411.1 234.4 412.6 234 412.2 233.1C408.3 222.5 406.8 211.4 407.6 200.1C407.8 199.1 406.3 199.1 406.2 200.1Z" fill="#4F4F4F"/>
<path d="M547.5 211.3C551.3 213.5 555.2 215.4 559.3 217C560.2 217.4 560.6 215.9 559.7 215.6C555.8 214 552 212.2 548.3 210.1C547.4 209.5 546.6 210.8 547.5 211.3Z" fill="#4F4F4F"/>
<path d="M539.6 36.2001C537.8 41.8001 536 47.4001 534.4 53.3001C527.5 77.2001 522.9 100.1 519.8 121.4C524.8 121.6 529.7 121.7 534.7 121.9C533.5 126.6 529.5 143.7 538.3 162.5C546.5 180.1 560.7 188.2 565.2 190.5C563.9 197.1 562.7 203.7 561.4 210.3C565 212 585.8 221.6 609.6 212.3C629.4 204.6 638.5 188.8 640.8 184.4C631.3 168.4 628.7 154.3 627.9 146.2C626.5 132.3 628.8 120.9 630.8 110.7C632.9 100.3 635.6 91.9001 637.8 85.9001C644.6 67.3001 637.8 35.4001 617.4 21.4001C597.3 7.5001 563.7 12.2001 539.6 36.2001Z" fill="white" stroke="#161616" stroke-width="2"/>
<path d="M532.5 122.4C535.1 122.4 537.8 122.4 540.4 122.5C541.4 122.5 541.4 121 540.4 121C537.8 120.9 535.1 120.9 532.5 120.9C531.5 120.9 531.5 122.4 532.5 122.4Z" fill="#161616"/>
<path d="M623.4 62C612.2 63.2 608.9 72.4 592.4 90.2C575.7 108.2 565.2 119.5 548.5 124.5C537.7 127.7 532.9 125.8 527.6 131.2C518.4 140.5 521.2 158.4 524.6 167.8C528.5 178.7 535.7 185.9 541.7 191.8C547.4 197.5 552.8 201.4 556.7 203.9C553.2 196.6 553.2 194.4 553.9 193.9C555.6 192.7 560.6 201.2 567.9 201.3C570 201.3 573.9 200.6 583.8 188.9C590.5 180.9 595.1 175.5 598.9 167.3C606.9 149.6 599.9 143.5 605.5 119.5C606.4 115.8 612.9 87.5 623.3 87C627.1 86.8 630.4 90.4 631.9 93C634.9 98.5 633.5 106.3 627.8 112.5C629.5 111.7 645.4 103.8 647.5 87.8C647.8 85.3 649 76 642.9 69C635.7 60.8 624.3 61.9 623.4 62Z" fill="#161616" stroke="#161616" stroke-width="2"/>
<ellipse cx="546.3" cy="86.1215" rx="3.8001" ry="6.80018" transform="rotate(7.91457 546.3 86.1215)" fill="#161616"/>
<path d="M539.3 79.9999C544.2 77.7999 549.3 76.3999 554.5 75.4999C556.4 75.1999 555.6 72.2999 553.7 72.5999C548.2 73.4999 542.9 75.0999 537.7 77.3999C536 78.1999 537.5 80.7999 539.3 79.9999Z" fill="#161616"/>
<path d="M535 46.4998C536.9 40.1998 540.8 29.9998 549.3 19.9998C552.3 16.4998 558.6 8.99979 567.6 4.69979C584.8 -3.60021 609 0.599788 624.9 15.8998C640.4 30.8998 645.9 54.6998 639 76.6998C604.4 66.5998 569.7 56.5998 535 46.4998Z" fill="#5222D0"/>
<path d="M476.4 39.5001C529.9 54.0001 583.4 68.6001 636.9 83.1001C642.5 84.6001 644.9 75.9001 639.3 74.4001C585.8 59.9001 532.3 45.3001 478.8 30.8001C473.2 29.3001 470.8 38.0001 476.4 39.5001Z" fill="#161616"/>
<path d="M588.4 0.800074C601.9 5.80007 610.9 18.5001 610.9 32.4001C610.9 44.5001 604 55.8001 593.1 61.8001C608.4 66.1001 623.6 70.3001 638.9 74.6001C640.3 70.6001 641.9 64.4001 641.9 56.9001C642 39.4001 633.6 27.0001 630.8 23.2001C627.8 19.1001 617.1 5.40007 598.8 1.80007C594.6 0.800074 590.9 0.700074 588.4 0.800074Z" fill="#321693"/>
</svg>
