<svg width="1255" height="851" viewBox="0 0 1255 851" fill="none" xmlns="http://www.w3.org/2000/svg">
<path d="M533.2 683.5C533.2 646.3 533.2 609 533.2 571.8C533.2 569.9 530.2 569.9 530.2 571.8C530.2 609 530.2 646.3 530.2 683.5C530.2 685.5 533.2 685.5 533.2 683.5Z" fill="#E8E8E8"/>
<path d="M532.5 571.6C589.4 571.6 646.2 571.6 703.1 571.6C705 571.6 705 568.6 703.1 568.6C646.2 568.6 589.4 568.6 532.5 568.6C530.6 568.6 530.6 571.6 532.5 571.6Z" fill="#E8E8E8"/>
<path d="M701.6 572.7C701.6 607.9 701.6 643.2 701.6 678.4C701.6 680.3 704.6 680.3 704.6 678.4C704.6 643.2 704.6 607.9 704.6 572.7C704.6 570.8 701.6 570.7 701.6 572.7Z" fill="#E8E8E8"/>
<path d="M543.8 585.7C540.6 583.2 542.9 578 547 579.3C548.9 579.9 550.2 582 549.2 583.9C548.1 586 545.2 586.2 543.8 584.3C542.7 582.8 540.1 584.3 541.2 585.8C543.5 588.8 547.9 589.7 550.7 586.8C553.5 584 552.9 579.3 549.7 577.2C546.9 575.3 542.7 575.6 540.6 578.4C538.5 581.2 538.9 585.5 541.7 587.7C543.2 589 545.3 586.9 543.8 585.7Z" fill="#E8E8E8"/>
<path d="M684.6 583.2C682 578.5 688.8 573.6 691.9 578.6C694.8 583.3 688.1 587.1 684.8 583.5C683.5 582.1 681.4 584.2 682.7 585.6C685.3 588.4 689.7 588.7 692.8 586.5C696.1 584.2 696.5 579.8 694.2 576.6C691.9 573.4 687.6 572.2 684.3 574.6C681.2 576.9 680 581.3 682 584.7C682.9 586.4 685.5 584.9 684.6 583.2Z" fill="#E8E8E8"/>
<path d="M551.7 594.4C589.4 594.4 627 594.4 664.7 594.4C666.6 594.4 666.6 591.4 664.7 591.4C627 591.4 589.4 591.4 551.7 591.4C549.8 591.4 549.8 594.4 551.7 594.4Z" fill="#E8E8E8"/>
<path d="M554.8 600.6C580.6 600.6 606.4 600.6 632.2 600.6C634.1 600.6 634.1 597.6 632.2 597.6C606.4 597.6 580.6 597.6 554.8 597.6C552.9 597.6 552.9 600.6 554.8 600.6Z" fill="#E8E8E8"/>
<path d="M641 601.3C649.1 601.3 657.2 601.3 665.3 601.3C667.2 601.3 667.2 598.3 665.3 598.3C657.2 598.3 649.1 598.3 641 598.3C639 598.3 639 601.3 641 601.3Z" fill="#E8E8E8"/>
<path d="M1077.8 255.4C1131.1 255.4 1184.4 255.4 1237.6 255.4C1239.5 255.4 1239.5 252.4 1237.6 252.4C1184.3 252.4 1131 252.4 1077.8 252.4C1075.9 252.4 1075.9 255.4 1077.8 255.4Z" fill="#E8E8E8"/>
<path d="M1162.9 252.7C1162.9 265.1 1162.9 277.5 1162.9 290C1162.9 291.9 1165.9 291.9 1165.9 290C1165.9 277.6 1165.9 265.2 1165.9 252.7C1165.9 250.8 1162.9 250.8 1162.9 252.7Z" fill="#E8E8E8"/>
<path d="M1117.3 293.3C1157.3 293.3 1197.4 293.3 1237.4 293.3C1239.3 293.3 1239.3 290.3 1237.4 290.3C1197.4 290.3 1157.3 290.3 1117.3 290.3C1115.4 290.3 1115.4 293.3 1117.3 293.3Z" fill="#E8E8E8"/>
<path d="M1206.1 295.3C1206.1 307.6 1206.1 319.8 1206.1 332.1C1206.1 334 1209.1 334 1209.1 332.1C1209.1 319.8 1209.1 307.6 1209.1 295.3C1209.1 293.4 1206.1 293.4 1206.1 295.3Z" fill="#E8E8E8"/>
<path d="M444.8 118.6C441.5 113.6 443.3 106.9 449.1 104.7C454.5 102.7 460.8 105.9 462.4 111.5C463.9 116.6 460.3 122.3 455.2 123.7C449 125.4 443.3 120.1 443 114.1C442.9 112.2 439.9 112.2 440 114.1C440.3 121.5 446.8 128.1 454.5 126.9C461.8 125.8 467.3 117.9 465.2 110.7C463.1 103.5 455.1 99.1001 448 101.8C440.5 104.6 437.7 113.4 442.1 120.1C443.2 121.7 445.8 120.2 444.8 118.6Z" fill="#E8E8E8"/>
<path d="M428.2 99.4002C431.5 93.8002 436.3 89.5002 442.5 87.4002C444.3 86.8002 443.5 83.9002 441.7 84.5002C434.8 86.8002 429.2 91.6002 425.6 97.9002C424.6 99.6002 427.2 101.1 428.2 99.4002Z" fill="#E8E8E8"/>
<path d="M439.7 77.5998C440.4 80.3998 441.2 83.0998 441.9 85.8998C442.4 87.7998 445.3 86.9998 444.8 85.0998C444.1 82.2998 443.3 79.5998 442.6 76.7998C442.1 74.9998 439.2 75.7998 439.7 77.5998Z" fill="#E8E8E8"/>
<path d="M442.1 77.0001C445.4 76.7001 448.7 76.4001 452 76.3001C452.4 76.3001 453.9 76.0001 454.2 76.2001C454.6 76.5001 454.6 78.0001 454.7 78.4001C455 80.1001 455.2 81.8001 455.4 83.5001C455.6 85.4001 458.7 85.4001 458.4 83.5001C458.1 81.1001 457.8 78.7001 457.5 76.3001C457.3 75.1001 457 74.0001 455.8 73.4001C454.1 72.6001 451.7 73.2001 449.9 73.3001C447.3 73.4001 444.8 73.7001 442.2 73.9001C440.2 74.2001 440.2 77.2001 442.1 77.0001Z" fill="#E8E8E8"/>
<path d="M426.1 97.5998C424 96.7998 419.4 93.7998 417.7 96.4998C416.7 98.0998 416.9 100.9 416.6 102.7C416.1 105.8 415.6 108.9 415.1 112.1C415 112.8 415.2 113.4 415.8 113.8C418.1 115.2 420.3 115.8 423 115.4C424.9 115.2 424.9 112.2 423 112.4C420.9 112.7 419.2 112.3 417.3 111.2C417.5 111.8 417.8 112.3 418 112.9C418.6 109.1 419.2 105.3 419.8 101.5C419.9 100.6 420.1 99.6998 420.2 98.7998C420.4 97.6998 419.3 98.2998 420.2 98.5998C421.9 99.0998 423.6 99.8998 425.3 100.5C427.1 101.2 427.9 98.2998 426.1 97.5998Z" fill="#E8E8E8"/>
<path d="M421.8 114.9C421.9 121 424.4 126.7 429.1 130.7C430.6 131.9 432.7 129.8 431.2 128.6C427.1 125.1 424.9 120.3 424.8 114.9C424.7 113 421.7 113 421.8 114.9Z" fill="#E8E8E8"/>
<path d="M429.5 129.4C426.6 131.6 421.6 134.2 424.9 138.2C428.2 142.2 433.8 145.2 438.3 147.5C440 148.4 441.5 145.8 439.8 144.9C436.6 143.3 433.6 141.5 430.8 139.3C429.6 138.4 426.5 136.6 427.4 134.8C427.9 133.6 430.6 132.3 431.6 131.5C433.1 130.4 431 128.3 429.5 129.4Z" fill="#E8E8E8"/>
<path d="M440.2 147.3C442 144.8 443.6 142.3 445.1 139.6C446.1 137.9 443.5 136.4 442.5 138.1C441 140.8 439.3 143.3 437.6 145.8C436.4 147.3 439.1 148.8 440.2 147.3Z" fill="#E8E8E8"/>
<path d="M442.9 138.3C444 141.2 447.2 141.4 450 141.8C454 142.5 457.9 142.6 461.7 141.3C463.5 140.7 462.7 137.8 460.9 138.4C458.5 139.2 456 139.4 453.4 139.2C452.2 139.1 446.3 138.8 445.7 137.4C445.1 135.8 442.2 136.5 442.9 138.3Z" fill="#E8E8E8"/>
<path d="M459.1 140.3C459.8 142.7 460.2 147.4 462.2 149.1C463.8 150.5 466.8 149.3 468.4 148.9C471.8 148.1 475.1 146.9 478.3 145.5C480.4 144.5 482.7 143.9 483 141.4C483.2 139.5 480.2 139.5 480 141.4C479.9 142 474.2 144 473.9 144.1C472.3 144.7 470.7 145.2 469.1 145.6C467.2 146.1 465.4 147.1 463.9 145.1C462.9 143.8 462.6 140.9 462.2 139.4C461.4 137.6 458.5 138.4 459.1 140.3Z" fill="#E8E8E8"/>
<path d="M482.9 141.4C482 138.1 480.6 135 478.5 132.3C477.3 130.8 474.7 132.3 475.9 133.8C477.8 136.3 479.2 139.1 480 142.2C480.5 144.1 483.4 143.3 482.9 141.4Z" fill="#E8E8E8"/>
<path d="M476.4 134.1C478.6 133.9 479.5 132.2 480.2 130.3C481.4 127.2 482.4 124 483.1 120.7C483.5 118.8 480.6 118 480.2 119.9C479.8 121.8 479.3 123.7 478.7 125.6C478.5 126.4 477.3 131 476.4 131.1C474.5 131.3 474.5 134.3 476.4 134.1Z" fill="#E8E8E8"/>
<path d="M456.5 85.3998C460.9 86.2998 464.5 88.5998 467.4 91.9998C468.6 93.4998 470.8 91.3998 469.5 89.8998C466.3 86.0998 462.1 83.4998 457.3 82.4998C455.4 82.1998 454.6 85.0998 456.5 85.3998Z" fill="#E8E8E8"/>
<path d="M469.3 90.6999C470.4 89.2999 471.4 87.7999 472.5 86.3999C473.1 85.4999 473.8 84.6999 474.4 83.7999C475.3 83.3999 476 83.6999 476.5 84.6999C479.3 86.5999 481.7 90.1999 484 92.6999C483.9 92.0999 483.8 91.4999 483.8 90.8999C482.3 93.8999 480.4 96.5999 478 98.8999C476.6 100.3 478.7 102.4 480.1 101C482.7 98.3999 484.8 95.5999 486.4 92.2999C486.7 91.6999 486.6 90.9999 486.2 90.4999C484 88.1999 481.8 85.7999 479.7 83.4999C478.6 82.2999 477.4 80.4999 475.7 80.1999C471.9 79.5999 468.6 86.7999 466.9 89.0999C465.6 90.6999 468.2 92.1999 469.3 90.6999Z" fill="#E8E8E8"/>
<path d="M476 101.5C476.8 102.6 477.3 103.8 477.6 105.1C478.1 107 481 106.2 480.5 104.3C480.1 102.8 479.5 101.3 478.6 100C478.1 99.3002 477.3 99.0002 476.5 99.5002C475.9 99.8002 475.6 100.8 476 101.5Z" fill="#E8E8E8"/>
<path d="M480 105.7C483 105.3 485.9 104.7 488.8 103.9C490.7 103.4 489.9 100.5 488 101C485.1 101.8 482.1 102.4 479.2 102.8C477.3 103.1 478.1 106 480 105.7Z" fill="#E8E8E8"/>
<path d="M487 103.6C488.4 108.4 489.1 113.3 489.3 118.4C489.4 120.3 492.4 120.3 492.3 118.4C492.1 113.1 491.3 107.9 489.9 102.8C489.3 100.9 486.4 101.7 487 103.6Z" fill="#E8E8E8"/>
<path d="M489.5 118.1C487.1 119.1 484.7 119.2 482.2 118.3C480.4 117.7 479.6 120.6 481.4 121.2C484.3 122.2 487.4 122.1 490.3 121C492.1 120.3 491.3 117.4 489.5 118.1Z" fill="#E8E8E8"/>
<path d="M375.3 84.8999C362.4 84.0999 355.9 69.6999 362.7 58.9999C368 50.4999 380.8 48.2999 388.8 54.0999C396.4 59.6999 398.3 71.7999 392.6 79.2999C386.6 87.1999 374.8 87.9999 367.2 82.1999C365.7 80.9999 364.2 83.5999 365.7 84.7999C374.9 91.7999 389.5 89.8999 395.9 79.9999C402.3 70.0999 398.5 55.2999 387.9 49.9999C377.3 44.7999 363.4 49.4999 358.7 60.3999C353.3 73.0999 361.7 87.0999 375.4 87.9999C377.2 87.9999 377.2 84.9999 375.3 84.8999Z" fill="#E8E8E8"/>
<path d="M331.9 86.2001C327.7 75.5001 327.2 64.2001 331.1 53.4001C331.8 51.6001 328.9 50.8001 328.2 52.6001C324.1 63.9001 324.6 75.9001 329 87.0001C329.7 88.8001 332.6 88.0001 331.9 86.2001Z" fill="#E8E8E8"/>
<path d="M316.2 46.2999C320.7 48.1999 325.1 50.1999 329.6 52.0999C331.4 52.8999 332.9 50.2999 331.1 49.4999C326.6 47.5999 322.2 45.5999 317.7 43.6999C316 42.9999 314.4 45.4999 316.2 46.2999Z" fill="#E8E8E8"/>
<path d="M316.9 42.7001C319.8 38.1001 322.7 32.9001 326.4 28.8001C327.4 27.7001 328.9 25.7001 330.6 25.9001C331.4 26.0001 332.9 27.3001 333.6 27.7001C336.1 29.2001 338.6 30.7001 341.1 32.2001C342.8 33.2001 344.3 30.6001 342.6 29.6001C339.1 27.5001 335.7 25.1001 332 23.3001C330.2 22.4001 328.9 22.0001 327.1 23.0001C324.8 24.4001 323 28.2001 321.5 30.3001C319 33.9001 316.6 37.5001 314.2 41.2001C313.3 42.8001 315.9 44.3001 316.9 42.7001Z" fill="#E8E8E8"/>
<path d="M328.9 87.3002C326.3 88.9002 321.1 90.8002 319.3 93.3002C318.5 94.4002 318.5 95.2002 318.9 96.5002C319.9 99.2002 324.3 102.5 326.2 104.6C329.7 108.4 333.2 112.2 336.7 116C337 116.4 337.7 116.6 338.2 116.4C342.4 115 345.5 112.5 347.7 108.7C348.7 107 346.1 105.5 345.1 107.2C344.1 108.9 342.7 110.9 340.9 111.9C338.6 113.1 338 112.7 336.2 111.1C333.3 108.7 330.9 105.3 328.3 102.5C327 101.1 325.7 99.6002 324.3 98.2002C323.8 97.7002 321.6 95.7002 321.6 95.3002C321.6 94.5002 329.6 90.4002 330.3 90.0002C332.1 88.9002 330.6 86.3002 328.9 87.3002Z" fill="#E8E8E8"/>
<path d="M347.4 109.9C355.5 116 365.4 118.5 375.4 116.5C377.3 116.1 376.5 113.2 374.6 113.6C365.4 115.4 356.4 112.9 349 107.3C347.4 106.1 345.9 108.7 347.4 109.9Z" fill="#E8E8E8"/>
<path d="M375 115.4C374.9 121.3 372.9 130.6 381.4 130C390.2 129.3 399.3 125.7 407.2 122C408.9 121.2 407.4 118.6 405.7 119.4C400.1 122 394.3 124.1 388.4 125.6C385.4 126.3 381.9 127.9 379.5 125.8C377.1 123.7 378.1 118.5 378.1 115.4C378 113.4 375 113.4 375 115.4Z" fill="#E8E8E8"/>
<path d="M408.1 120.8C406.7 115.8 405 110.9 403.1 106.1C402.4 104.3 399.5 105.1 400.2 106.9C402.1 111.7 403.8 116.6 405.2 121.6C405.7 123.4 408.6 122.6 408.1 120.8Z" fill="#E8E8E8"/>
<path d="M400.6 106.3C405.3 108.1 410.1 102.1 413.1 99.2C417.4 95.1 421 90.5 423 84.8C423.6 83 420.7 82.2 420.1 84C418.6 88.4 416 92 412.8 95.3C410.7 97.4 404.6 104.6 401.4 103.4C399.6 102.7 398.8 105.6 400.6 106.3Z" fill="#E8E8E8"/>
<path d="M420.2 86.8999C423 87.9999 425.8 89.0999 428.6 90.2999C430.2 90.8999 432.6 92.3999 434.4 91.9999C437.9 91.1999 439.6 84.8999 440.8 82.0999C442.9 77.1999 444.6 72.1999 445.8 66.9999C446.5 64.1999 448.3 59.8999 445.3 58.0999C443.7 57.0999 442.2 59.6999 443.8 60.6999C444.9 61.3999 442 69.9999 441.6 71.2999C440.5 74.9999 439.1 78.6999 437.5 82.1999C436.8 83.6999 436.2 85.5999 435.2 86.7999C433.6 88.7999 433.7 88.6999 431 88.0999C427.6 87.2999 424.1 85.3999 420.9 84.0999C419.2 83.2999 418.4 86.1999 420.2 86.8999Z" fill="#E8E8E8"/>
<path d="M446.1 58.3C440.7 55.9 435.2 54.6 429.3 54.5C427.4 54.5 427.4 57.5 429.3 57.5C434.6 57.6 439.7 58.7 444.6 60.9C446.3 61.6 447.8 59.1 446.1 58.3Z" fill="#E8E8E8"/>
<path d="M429 57.2999C431.1 54.1999 428.5 50.6999 426.8 47.9999C424.2 43.5999 421.1 39.4999 417.9 35.4999C416.7 33.9999 414.6 36.0999 415.8 37.5999C418.1 40.3999 420.3 43.3999 422.4 46.4999C423.7 48.4999 428 53.4999 426.5 55.7999C425.4 57.3999 428 58.8999 429 57.2999Z" fill="#E8E8E8"/>
<path d="M343.5 32.3999C349.3 27.4999 356.3 25.0999 363.9 24.8999C365.8 24.7999 365.8 21.7999 363.9 21.8999C355.5 22.0999 347.8 24.8999 341.4 30.2999C339.9 31.4999 342.1 33.5999 343.5 32.3999Z" fill="#E8E8E8"/>
<path d="M363.6 22.3999C362.4 17.9999 360.9 13.6999 359.9 9.19992C358.6 3.69992 366.2 4.69992 369.9 4.39992C373.4 4.09992 380 2.19992 382.2 5.59992C384.4 9.09992 385 14.8999 385.4 18.7999C385.6 20.6999 388.6 20.6999 388.4 18.7999C387.8 12.5999 386.1 6.79992 383.5 1.19992C383.3 0.799917 382.7 0.399917 382.2 0.499917C377.1 0.899917 372.1 1.29992 367 1.69992C364.4 1.89992 360.3 1.39992 358 3.09992C356.2 4.49992 356.3 6.79992 356.6 8.79992C357.3 13.5999 359.3 18.4999 360.6 23.1999C361.2 24.9999 364.1 24.2999 363.6 22.3999Z" fill="#E8E8E8"/>
<path d="M386.3 23.2002C388.5 23.3002 390.6 23.9002 392.6 24.8002C394.3 25.6002 395.9 23.0002 394.1 22.2002C391.6 21.1002 389 20.4002 386.3 20.2002C384.4 20.1002 384.4 23.1002 386.3 23.2002Z" fill="#E8E8E8"/>
<path d="M394.7 23.3001C397.3 18.9002 399.6 14.3001 401.6 9.60015C402.4 7.80015 399.8 6.30015 399 8.10015C397 12.8001 394.7 17.4001 392.1 21.8001C391.2 23.4001 393.8 25.0002 394.7 23.3001Z" fill="#E8E8E8"/>
<path d="M400.9 11.1002C408.8 14.4002 416.2 18.7002 423.2 23.8002C424.8 25.0002 426.2 22.3002 424.7 21.2002C417.6 15.9002 409.9 11.6002 401.7 8.2002C399.9 7.4002 399.1 10.3002 400.9 11.1002Z" fill="#E8E8E8"/>
<path d="M423.2 24.6001C421.9 28.8001 419.4 32.3001 415.6 34.7001C414 35.7001 415.5 38.3001 417.1 37.3001C421.5 34.5001 424.6 30.4001 426 25.4001C426.7 23.5001 423.8 22.7001 423.2 24.6001Z" fill="#E8E8E8"/>
<path d="M1109.5 586.8C1112.2 615.8 1117 644.5 1123.9 672.8C1124.4 674.7 1127.3 673.9 1126.8 672C1120 644 1115.2 615.5 1112.5 586.8C1112.3 584.8 1109.3 584.8 1109.5 586.8Z" fill="#E8E8E8"/>
<path d="M1111 587.3C1125.2 591.1 1140.9 589.8 1155.4 589.9C1171.4 590 1187.4 589.9 1203.4 589.7C1205.3 589.7 1205.3 586.7 1203.4 586.7C1188 586.9 1172.7 587 1157.3 586.9C1142.4 586.8 1126.2 588.3 1111.7 584.4C1109.9 583.9 1109.1 586.8 1111 587.3Z" fill="#E8E8E8"/>
<path d="M1202.6 587.9C1201.9 616.9 1197.8 645.6 1190.5 673.7C1190 675.6 1192.9 676.4 1193.4 674.5C1200.8 646.2 1204.9 617.1 1205.6 587.9C1205.6 586 1202.6 586 1202.6 587.9Z" fill="#E8E8E8"/>
<path d="M1123.7 673.5C1128.2 676.3 1133.2 677.2 1138.4 677.7C1145.8 678.4 1153.2 678.7 1160.6 678.9C1167.8 679.1 1175 679 1182.2 678.7C1186.7 678.5 1191.2 678.1 1194.4 674.5C1195.7 673.1 1193.6 670.9 1192.3 672.4C1188.6 676.6 1181.5 675.7 1176.4 675.9C1170.5 676 1164.6 676 1158.8 675.8C1148.3 675.5 1134.6 676.5 1125.4 670.9C1123.6 669.9 1122.1 672.5 1123.7 673.5Z" fill="#E8E8E8"/>
<path d="M1112.7 586.7C1142.8 591.5 1173.3 586.6 1203.5 590.2C1205.4 590.4 1205.4 587.4 1203.5 587.2C1173.6 583.7 1143.3 588.6 1113.5 583.8C1111.6 583.5 1110.8 586.4 1112.7 586.7Z" fill="#E8E8E8"/>
<path d="M1113.4 616C1118.8 627.7 1124.6 639.1 1131.1 650.3C1136.7 660 1142.7 669.4 1150.7 677.3C1152.1 678.7 1154.2 676.5 1152.8 675.2C1144.6 667 1138.5 657.2 1132.8 647.2C1126.7 636.6 1121.2 625.7 1116.1 614.6C1115.2 612.7 1112.6 614.2 1113.4 616Z" fill="#E8E8E8"/>
<path d="M1119.7 586.8C1134.7 618.6 1152.7 649 1173.3 677.5C1174.4 679 1177 677.6 1175.9 676C1155.2 647.5 1137.3 617.1 1122.3 585.3C1121.5 583.5 1118.9 585.1 1119.7 586.8Z" fill="#E8E8E8"/>
<path d="M1145.7 589.7C1157.7 617 1172.8 642.7 1190.8 666.4C1192 667.9 1194.6 666.4 1193.4 664.9C1175.4 641.2 1160.3 615.5 1148.3 588.2C1147.6 586.4 1145 587.9 1145.7 589.7Z" fill="#E8E8E8"/>
<path d="M1166.9 589.2C1174.9 607 1184.8 623.8 1196.5 639.4C1197.6 640.9 1200.2 639.4 1199.1 637.9C1187.4 622.3 1177.5 605.5 1169.5 587.7C1168.7 586 1166.1 587.5 1166.9 589.2Z" fill="#E8E8E8"/>
<path d="M1187.6 591C1191.5 598.9 1195.8 606.6 1200.5 614.1C1201.5 615.7 1204.1 614.2 1203.1 612.6C1198.4 605.1 1194.1 597.4 1190.2 589.5C1189.3 587.8 1186.7 589.3 1187.6 591Z" fill="#E8E8E8"/>
<path d="M1136.5 585.3C1124 575.9 1114.8 563.1 1109.8 548.3C1109.6 548.9 1109.3 549.4 1109.1 550C1111 549 1112.9 548 1114.8 547C1115.7 546.5 1115.7 545.4 1115.1 544.6C1105.8 533.3 1107.9 515 1106.9 501.2C1105.7 485.1 1104 469.1 1101.9 453.1C1101.1 453.5 1100.4 454 1099.6 454.4C1119.2 467.4 1131.1 488.2 1139.7 509.5C1149.4 533.5 1157.9 559.4 1157.3 585.6C1157.3 587.5 1160.3 587.5 1160.3 585.6C1160.9 558.2 1151.9 530.8 1141.4 505.8C1132.6 484.8 1120.5 464.6 1101.1 451.8C1100.2 451.2 1098.7 452 1098.8 453.1C1101.2 471.1 1103 489.1 1104.2 507.2C1105.1 520.5 1103.9 535.8 1112.8 546.8C1112.9 546 1113 545.2 1113.1 544.4C1111.2 545.4 1109.3 546.4 1107.4 547.4C1106.8 547.7 1106.5 548.5 1106.7 549.1C1112 564.7 1121.7 578.1 1134.8 587.9C1136.5 589 1138 586.4 1136.5 585.3Z" fill="#E8E8E8"/>
<path d="M1154.4 539.2C1157.2 532.9 1160.1 526.5 1162.9 520.2C1164.2 517.3 1165.5 514.4 1166.8 511.6C1167.8 509.4 1171.4 498.9 1175.7 503.6C1176.5 504.5 1177.9 504 1178.2 502.9C1182.4 490.3 1192 481.1 1200.7 471.6C1209.9 461.6 1218.5 451 1226.3 440C1225.4 439.7 1224.4 439.5 1223.5 439.2C1223.3 479.2 1222.2 525.1 1189.8 553.6C1188.9 554.4 1189.5 555.8 1190.5 556.1C1199.5 559.1 1193.2 569.8 1189.6 574.4C1186.3 578.6 1182.5 582.4 1178.5 585.9C1177 587.2 1179.2 589.3 1180.6 588C1186.8 582.6 1194.7 575.4 1197.4 567.3C1199.3 561.6 1197.3 555.2 1191.4 553.2C1191.6 554 1191.8 554.9 1192.1 555.7C1225.1 526.6 1226.5 479.9 1226.7 439.1C1226.7 437.5 1224.7 437.2 1223.9 438.3C1215.2 450.5 1205.7 461.9 1195.5 472.8C1187.3 481.5 1179.3 490.4 1175.5 501.9C1176.3 501.7 1177.2 501.5 1178 501.2C1173.2 496 1168 501.9 1165.9 506.3C1161.1 516.6 1156.6 527 1151.9 537.4C1151 539.4 1153.6 541 1154.4 539.2Z" fill="#E8E8E8"/>
<path d="M1109.2 473.1C1127.8 509.2 1140.9 547.9 1148.2 587.9C1148.5 589.8 1151.4 589 1151.1 587.1C1143.8 546.9 1130.5 507.9 1111.8 471.6C1110.9 469.9 1108.3 471.4 1109.2 473.1Z" fill="#E8E8E8"/>
<path d="M1161.8 583.5C1172.4 550.3 1190.8 520.5 1209.1 491C1210.1 489.4 1207.5 487.8 1206.5 489.5C1188.1 519.2 1169.6 549.2 1158.9 582.7C1158.4 584.5 1161.2 585.3 1161.8 583.5Z" fill="#E8E8E8"/>
<path d="M1189.9 478.8C1184.4 497.9 1181 517.4 1179.5 537.3C1179.4 539.2 1182.4 539.2 1182.5 537.3C1184 517.8 1187.4 498.5 1192.8 479.6C1193.3 477.8 1190.5 477 1189.9 478.8Z" fill="#E8E8E8"/>
<path d="M1105.9 511.6C1120.3 518.8 1131.6 530.3 1138.5 544.9C1139.3 546.6 1141.9 545.1 1141.1 543.4C1134 528.5 1122.2 516.4 1107.4 509.1C1105.7 508.2 1104.2 510.8 1105.9 511.6Z" fill="#E8E8E8"/>
<path d="M1130.3 491.5C1129.2 499.6 1128.5 507.8 1128.1 516C1128 517.9 1131 517.9 1131.1 516C1131.5 507.8 1132.3 499.7 1133.3 491.5C1133.6 489.5 1130.6 489.6 1130.3 491.5Z" fill="#E8E8E8"/>
<path d="M1212.4 454.7C1208.4 466.3 1206 478.3 1205.2 490.5C1205.1 492.4 1208.1 492.4 1208.2 490.5C1209 478.5 1211.4 466.8 1215.3 455.5C1216 453.7 1213.1 452.9 1212.4 454.7Z" fill="#E8E8E8"/>
<path d="M142.1 270.6C153.1 275.6 165.8 279.2 177.3 273.8C187.8 268.9 194.7 258.3 205.6 254.3C219.6 249.3 233 259.9 246 263.5C259.4 267.2 273.6 266.1 286.4 260.9C288.2 260.2 287.4 257.3 285.6 258C272.2 263.5 257.3 264.3 243.5 259.6C232.3 255.8 221.3 248.3 209 250.4C198.8 252.1 191.6 260.2 183.8 266.2C178.5 270.3 172.7 273.2 165.9 273.5C158.2 273.8 150.6 271.1 143.7 268C141.9 267.2 140.4 269.8 142.1 270.6Z" fill="#E8E8E8"/>
<path d="M224.3 233.8C233.9 239.2 244.8 241.6 255.8 240.5C267.6 239.3 276.7 233.7 286.6 227.6C308.3 214.3 335.3 212.4 358.8 222C360.6 222.7 361.4 219.8 359.6 219.1C339.2 210.7 315.8 210.8 295.5 219.5C284.1 224.4 274.7 233.2 262.5 236.2C250.1 239.3 236.9 237.3 225.8 231.1C224.1 230.3 222.6 232.9 224.3 233.8Z" fill="#E8E8E8"/>
<path d="M449.8 321.3C496.7 321.3 543.7 321.3 590.6 321.3C592.5 321.3 592.5 318.3 590.6 318.3C543.7 318.3 496.7 318.3 449.8 318.3C447.9 318.3 447.9 321.3 449.8 321.3Z" fill="#E8E8E8"/>
<path d="M497 346.5C497 337.5 497 328.5 497 319.5C497 317.6 494 317.6 494 319.5C494 328.5 494 337.5 494 346.5C494 348.5 497 348.5 497 346.5Z" fill="#E8E8E8"/>
<path d="M546.9 317.1C546.9 305.9 546.9 294.7 546.9 283.6C546.9 281.7 543.9 281.7 543.9 283.6C543.9 294.8 543.9 306 543.9 317.1C543.9 319 546.9 319 546.9 317.1Z" fill="#E8E8E8"/>
<path d="M504.5 277.7C529 277.7 553.6 277.7 578.1 277.7C580 277.7 580 274.7 578.1 274.7C553.6 274.7 529 274.7 504.5 274.7C502.6 274.7 502.6 277.7 504.5 277.7Z" fill="#E8E8E8"/>
<path d="M648.9 49.5998C632 31.1998 663.7 -4.50022 681.8 17.5998C689.2 26.5998 690.1 40.0998 684.3 50.0998C678.3 60.5998 663.1 64.5998 654.2 55.2998C652.9 53.8998 650.7 55.9998 652.1 57.3998C659.1 64.6998 670.7 65.3998 679.1 59.9998C688.6 53.8998 692.3 41.5998 690.8 30.7998C689.4 20.9998 682.9 10.7998 673.1 7.89978C662.6 4.89978 652.2 12.2998 646.6 20.7998C640.5 30.1998 638.9 42.9998 646.9 51.6998C648.1 53.0998 650.2 50.9998 648.9 49.5998Z" fill="#EC615B"/>
<path d="M684.1 84.8C683 82.2 684.1 79 686.4 77.4C689.1 75.5 692.5 76.7 694.2 79.3C697.8 84.8 690.8 90.2 685.8 87C684.2 85.9 682.7 88.5 684.3 89.6C687.8 91.9 692.5 91.3 695.6 88.5C699 85.4 698.9 80.3 696.1 76.8C689.4 68.7 677.7 77.2 681.5 86.3C682.2 88 684.8 86.5 684.1 84.8Z" fill="#EC615B"/>
<path d="M40.6 664.7C40 660.8 43 657.3 46.7 656.8C50 656.4 52 659 54.3 660.7C56.7 662.5 59.9 664.1 63 662.7C66.6 660.9 65.7 655.8 69.6 654.2C75.9 651.5 81 657.9 84.4 662.2C85.2 663.2 87 662.4 87 661.1C86.7 652.3 101.3 657.9 106 657.8C107.9 657.8 107.9 654.8 106 654.8C100.5 654.9 95 651.7 89.5 653.7C86.1 654.9 83.8 657.5 83.9 661.1C84.8 660.7 85.6 660.4 86.5 660C82.7 655.2 78.1 649.9 71.3 650.5C69.3 650.7 67.3 651.4 65.8 652.8C63.5 654.9 63.3 660.5 59.1 659.9C55.9 659.4 53.6 655.3 50.6 654.1C48.4 653.2 46 653.3 43.8 654.3C39.4 656.2 37 660.6 37.8 665.3C38 667.4 40.9 666.6 40.6 664.7Z" fill="#EC615B"/>
<path d="M36.3 651.5C37.8 647.5 39.8 642.6 44.7 642.4C47.8 642.3 51 644.3 53.7 645.5C57.7 647.1 61.9 648 65.4 644.9C69.6 641.2 71.4 631.8 78.3 637.4C81.7 640.2 84.2 643.7 89 644C89.9 644 90.4 643.3 90.5 642.5C90.9 638 94.2 634.5 98.7 634C100.6 633.8 100.6 630.8 98.7 631C92.4 631.8 88.1 636.2 87.5 642.5C88 642 88.5 641.5 89 641C83.2 640.7 80.8 633.2 75 632.5C69 631.7 67.3 638.1 64.2 641.8C58.9 648 50.5 639.2 44 639.5C37.8 639.8 35.1 645.7 33.3 650.8C32.7 652.5 35.6 653.3 36.3 651.5Z" fill="#EC615B"/>
<path d="M401.9 479C397.4 471.3 405.4 460.9 413.9 465.6C423.6 470.9 417.9 485 407.4 482.9C405.5 482.5 404.7 485.4 406.6 485.8C419.7 488.4 428.1 471.2 416.3 463.5C405.2 456.3 393 469.6 399.3 480.5C400.3 482.2 402.9 480.7 401.9 479Z" fill="#5222D0"/>
<path d="M421.5 498.7C421.3 495.7 422.9 491.8 426.5 492C428.1 492.1 429.9 493.1 430 494.8C430.1 496.4 428.5 498.1 426.9 497.8C425 497.4 424.2 500.3 426.1 500.7C432.4 502 435.5 493.2 430 490C423.9 486.4 418.1 492.7 418.5 498.7C418.6 500.7 421.6 500.7 421.5 498.7Z" fill="#5222D0"/>
<path d="M409.8 686.6C502 686.6 594.2 686.6 686.4 686.6C712.3 686.6 738.1 686.6 764 686.6C765.9 686.6 765.9 683.6 764 683.6C671.8 683.6 579.6 683.6 487.4 683.6C461.5 683.6 435.7 683.6 409.8 683.6C407.9 683.6 407.9 686.6 409.8 686.6Z" fill="#161616"/>
<path d="M611.5 700.7C695 700.7 778.5 700.7 862 700.7C885.6 700.7 909.2 700.7 932.9 700.7C934.8 700.7 934.8 697.7 932.9 697.7C849.4 697.7 765.9 697.7 682.4 697.7C658.8 697.7 635.2 697.7 611.5 697.7C609.6 697.7 609.6 700.7 611.5 700.7Z" fill="#161616"/>
<path d="M857.8 684.2C958.2 684.2 1058.6 684.2 1159 684.2C1187.6 684.2 1216.2 684.2 1244.8 684.2C1246.7 684.2 1246.7 681.2 1244.8 681.2C1144.4 681.2 1044 681.2 943.6 681.2C915 681.2 886.4 681.2 857.8 681.2C855.9 681.2 855.9 684.2 857.8 684.2Z" fill="#161616"/>
<path d="M1073.6 699.5C1133.4 699.5 1193.2 699.5 1253 699.5C1254.9 699.5 1254.9 696.5 1253 696.5C1193.2 696.5 1133.4 696.5 1073.6 696.5C1071.7 696.5 1071.7 699.5 1073.6 699.5Z" fill="#161616"/>
<path d="M1.70002 707.7C75 707.7 148.3 707.7 221.6 707.7C242.5 707.7 263.4 707.7 284.3 707.7C286.2 707.7 286.2 704.7 284.3 704.7C211 704.7 137.7 704.7 64.4 704.7C43.5 704.7 22.6 704.7 1.70002 704.7C-0.199976 704.7 -0.199976 707.7 1.70002 707.7Z" fill="#161616"/>
<path d="M95.5 725.3C159.6 725.3 223.7 725.3 287.8 725.3C289.7 725.3 289.7 722.3 287.8 722.3C223.7 722.3 159.6 722.3 95.5 722.3C93.6 722.3 93.6 725.3 95.5 725.3Z" fill="#161616"/>
<path d="M440.3 732.3C516.9 732.3 593.5 732.3 670.2 732.3C672.1 732.3 672.1 729.3 670.2 729.3C593.6 729.3 517 729.3 440.3 729.3C438.4 729.3 438.4 732.3 440.3 732.3Z" fill="#161616"/>
<path d="M279.6 779.2C348.4 779.2 417.2 779.2 486 779.2C487.9 779.2 487.9 776.2 486 776.2C417.2 776.2 348.4 776.2 279.6 776.2C277.7 776.2 277.7 779.2 279.6 779.2Z" fill="#161616"/>
<path d="M760.5 746.4C821.5 746.4 882.5 746.4 943.4 746.4C945.3 746.4 945.3 743.4 943.4 743.4C882.4 743.4 821.4 743.4 760.5 743.4C758.5 743.4 758.5 746.4 760.5 746.4Z" fill="#161616"/>
<path opacity="0.15" d="M689.4 732.6C685.4 757.1 738 784.5 765 798.6C830.5 832.8 951.3 862.2 1033.2 792.2C1047.8 779.7 1081.5 746.7 1096 682.6C771.8 677.9 693.9 704.8 689.4 732.6Z" fill="#6D6C6C"/>
<path opacity="0.13" d="M753.3 764.5C754 776.5 777.2 784.9 791.6 790C838.6 806.9 882.5 792 911.9 781.5C979.1 757.6 1055.2 704.8 1047 685.7C1032.6 651.9 750.9 721.9 753.3 764.5Z" fill="#6D6C6C"/>
<path opacity="0.15" d="M416 681.5C360.2 737.8 304.3 794 248.5 850.3C188 830.3 127.4 810.2 66.9 790.2C183.2 753.9 299.6 717.7 416 681.5Z" fill="#6D6C6C"/>
<path d="M188.5 430.3C185.9 435.8 188.7 443.1 194.3 457.2C197.3 464.8 200.3 470.9 202.5 475C210.2 472.1 217.9 469.2 225.6 466.3C223.3 463.7 219.9 459.2 217.4 452.8C211.2 436.7 217.9 425.4 212.1 421C206.5 416.9 192.5 421.7 188.5 430.3Z" fill="white"/>
<path d="M268 754.3C276 760 292.2 742.4 301.5 748.2C305.7 750.8 303.7 755.3 308.4 758.3C313.4 761.6 319 758.5 333.4 754.7C350.9 750.1 359.9 747.8 366.5 752.3C372.3 756.2 372.9 763.2 375.8 762.8C378.4 762.4 380.9 756.1 379 751.9C375.2 743.7 355 745.5 351.2 745.8C331.7 747.6 323.7 756.1 316.9 751.4C310.7 747.1 314.5 738 308 734.5C303.4 732 300.2 736.1 284.2 739.7C272.6 742.3 266.7 741.9 265.2 745.8C264.2 748.4 265.3 752.5 268 754.3Z" fill="white" stroke="#161616" stroke-width="2"/>
<path d="M345 712.8C353.2 716.2 358.9 711.4 367.6 710.4C386 708.2 393.1 725.7 405.9 721.3C414.9 718.2 420.9 706.3 418.8 703.6C417.9 702.4 415.5 702.7 413.6 703.2C413.4 704.6 411.9 714.3 405.5 716.5C402.1 717.7 398.7 716.3 392.6 713.7C385.3 710.6 384.6 708.7 379.7 706.8C375.2 705.1 373.3 705.9 362 706C345.3 706.2 338.8 704.8 338.2 706.8C337.7 708.4 341.4 711.3 345 712.8Z" fill="white" stroke="#161616" stroke-width="2"/>
<path d="M330.3 727.2C342.3 725.3 354 723.6 364.7 717.6C373.8 712.5 381.5 705.2 387.4 696.6C388.5 695 385.9 693.5 384.8 695.1C378.9 703.7 371.1 710.8 361.9 715.7C351.8 721.1 340.7 722.5 329.6 724.3C327.6 724.6 328.4 727.5 330.3 727.2Z" fill="#161616"/>
<path d="M103.9 351.6C99.9 354.8 95.9 358 91.9 361.1C102 395.5 112 429.8 122.1 464.2C169.3 448.5 216.5 432.8 263.7 417.1C264.5 414 265.3 410.9 266.2 407.9C212 389.1 157.9 370.4 103.9 351.6Z" fill="#161616" stroke="#161616" stroke-width="2"/>
<path d="M96.1 528.7C111.3 518.9 126.6 509.1 141.8 499.4C178.6 588.9 215.3 678.5 252.1 768C236.1 775.8 220 783.6 204 791.5C182.4 753.3 160 708.6 139.5 657.8C120.8 611.5 106.8 568.1 96.1 528.7Z" fill="#161616" stroke="#161616" stroke-width="2"/>
<path d="M139.6 499.4C146.7 529.4 155.5 561.2 166.6 594.4C189.5 663.2 216.9 722.8 244 772.7C306.6 738.3 369.1 703.9 431.7 669.5C410.5 622.2 389.6 567.7 371.9 506.5C361.7 471.2 353.6 437.4 347.3 405.6C278 436.9 208.8 468.1 139.6 499.4Z" fill="white" stroke="#161616" stroke-width="2"/>
<path d="M235.7 606.1C242.2 629.2 251.6 651.2 263.6 671.9C264.6 673.6 267.2 672.1 266.2 670.4C254.2 649.9 245 628.1 238.6 605.3C238.1 603.5 235.2 604.3 235.7 606.1Z" fill="#161616"/>
<path d="M237.3 605C270.6 589.3 304.2 574.3 338.2 560.1C340 559.4 339.2 556.5 337.4 557.2C303.2 571.5 269.3 586.5 235.7 602.4C234 603.3 235.5 605.8 237.3 605Z" fill="#161616"/>
<path d="M337.3 560C345 581.9 353.7 603.4 363.3 624.5C364.1 626.3 366.7 624.7 365.9 623C356.3 602.1 347.8 580.9 340.2 559.2C339.6 557.4 336.7 558.2 337.3 560Z" fill="#161616"/>
<path d="M266.4 673C272 669 278 666 284.6 664.1C286.4 663.6 285.7 660.7 283.8 661.2C277 663.2 270.6 666.3 264.9 670.4C263.3 671.5 264.8 674.1 266.4 673Z" fill="#161616"/>
<path d="M278.7 663C279.3 656 281.8 648.8 287.8 644.6C293.8 640.4 301.6 640.5 307 645.6C316.2 654.4 318.3 670.8 318.2 682.8C318.2 684.7 321.2 684.7 321.2 682.8C321.3 669.1 318.3 645.7 303.4 639.7C288 633.5 276.8 649.6 275.7 663C275.6 664.9 278.6 664.9 278.7 663Z" fill="#161616"/>
<path d="M286.8 661.7C287.2 655.1 295.7 647.9 301.5 652.8C305.2 655.9 306.9 661.4 307.9 666C310.1 675.8 308.8 686 307 695.8C306.7 697.7 309.5 698.5 309.9 696.6C312.4 683 314.8 665.1 305.8 653.2C302.8 649.3 298.1 646.6 293.3 648.8C288.7 650.8 284.1 656.8 283.8 661.9C283.7 663.6 286.7 663.6 286.8 661.7Z" fill="#161616"/>
<path d="M306.6 696.5C308.1 700.2 312.2 699.7 314.6 697.1C318.2 693.3 320.3 687.7 321.2 682.6C321.5 680.7 318.6 679.9 318.3 681.8C317.8 684.7 317 687.4 315.7 690C315.3 690.8 310.7 698.5 309.5 695.6C308.8 693.9 305.9 694.7 306.6 696.5Z" fill="#161616"/>
<path d="M304.9 642.3C309.3 636.3 314.4 630.1 321.6 627.2C329.8 624 336.4 626.4 342.3 632.4C345.9 636 349.2 638.7 354.5 639.2C358.9 639.6 363.2 639.1 366.7 642.5C369.5 645.2 371.1 649 372.5 652.5C373.2 654.3 376.1 653.5 375.4 651.7C373.1 646 370.1 639.3 363.8 637.1C358.6 635.4 353.2 637.2 348.5 633.8C345.4 631.6 343.2 628.4 340.1 626.1C325.9 615.6 310.6 629.6 302.4 640.7C301.2 642.4 303.8 643.9 304.9 642.3Z" fill="#161616"/>
<path d="M310.4 645.9C315.3 639.4 327.2 627.8 335.1 636.2C338.7 640 340.9 644.8 346.6 645.5C351.4 646.1 355.8 643.5 360.3 646.5C363.9 648.9 364.2 653.5 367.6 655.9C371 658.3 375.8 656.5 375.3 652C375.1 650.1 372.1 650.1 372.3 652C369.7 653.8 368 653.4 367.2 650.6C366.7 649.5 366.1 648.5 365.5 647.5C364.8 646.5 364.1 645.7 363.1 644.9C361 643.1 358.2 642 355.4 641.9C350.8 641.7 346.4 643.9 342.4 640.3C340.4 638.5 339 636 337.2 634C327.7 623.7 314 636.2 307.8 644.3C306.7 645.9 309.3 647.4 310.4 645.9Z" fill="#161616"/>
<path d="M312.3 649.3C319.7 643.9 327.7 639.7 336.4 636.7C338.2 636.1 337.4 633.2 335.6 633.8C326.7 636.8 318.4 641.1 310.8 646.7C309.2 647.8 310.7 650.4 312.3 649.3Z" fill="#161616"/>
<path d="M345.3 633.6C352.3 630.9 359.2 627.9 365.8 624.4C367.5 623.5 366 620.9 364.3 621.8C357.9 625.1 351.3 628.1 344.5 630.7C342.7 631.4 343.5 634.3 345.3 633.6Z" fill="#161616"/>
<path d="M311.5 632.3C317.5 612.2 328.9 593.3 347.4 582.5C349.1 581.5 347.6 578.9 345.9 579.9C326.7 591.1 314.9 610.6 308.6 631.5C308.1 633.4 311 634.2 311.5 632.3Z" fill="#161616"/>
<path d="M320.1 625.8C326.8 611.3 334.8 596.5 349 588.1C350.7 587.1 349.2 584.5 347.5 585.5C332.8 594.2 324.4 609.3 317.5 624.3C316.7 626 319.3 627.5 320.1 625.8Z" fill="#161616"/>
<path d="M257.3 653.5C265 652.9 272.7 652.1 280.5 653.2C281.4 653.3 281.9 651.9 280.9 651.8C273 650.7 265.2 651.4 257.4 652C256.4 652.1 256.4 653.6 257.3 653.5Z" fill="#161616"/>
<path d="M253.8 647.8C263.4 645.4 273 645.6 282.6 648.3C283.5 648.6 283.9 647.1 283 646.9C273.2 644.1 263.3 643.9 253.4 646.4C252.4 646.6 252.8 648.1 253.8 647.8Z" fill="#161616"/>
<path d="M310.2 630.1C308.9 632.6 307.5 635 306.2 637.5C305.7 638.3 307 639.1 307.5 638.3C308.8 635.8 310.2 633.4 311.5 630.9C311.9 630 310.6 629.2 310.2 630.1Z" fill="#161616"/>
<path d="M349.5 590.3C352 598.4 351.4 606.1 348.3 613.9C347.3 616.4 346 619.1 346.1 621.9C346.2 624.8 348.2 626.7 348.6 629.5C348.7 630.5 350.2 630 350 629.1C349.7 627.3 349.5 627.3 349 625.7C347.8 622 347.4 620.9 348.5 617.3C349.6 614 351.2 611 351.9 607.6C353.2 601.6 352.8 595.6 350.9 589.8C350.6 589 349.2 589.4 349.5 590.3Z" fill="#161616"/>
<path d="M354.7 603.6C356.4 611.6 346.9 620.9 353.9 627.9C354.6 628.6 355.6 627.5 355 626.8C348.7 620.5 357.8 610.7 356.2 603.1C355.9 602.2 354.5 602.6 354.7 603.6Z" fill="#161616"/>
<path d="M262.7 664.7C267.2 663.3 271.7 662.7 276.3 662.9C277.3 662.9 277.3 661.4 276.3 661.4C271.5 661.3 266.9 661.9 262.3 663.3C261.3 663.5 261.7 664.9 262.7 664.7Z" fill="#161616"/>
<path d="M259.8 661.9C265.6 660.7 271.4 660 277.3 660C278.3 660 278.3 658.5 277.3 658.5C271.2 658.6 265.3 659.2 259.4 660.5C258.4 660.7 258.8 662.1 259.8 661.9Z" fill="#161616"/>
<path d="M286.9 661.9C292.6 658.7 298.5 656 304.5 653.6C305.4 653.3 305 651.8 304.1 652.2C297.9 654.6 291.9 657.4 286.1 660.6C285.3 661.1 286 662.4 286.9 661.9Z" fill="#161616"/>
<path d="M285.7 661.4C292.1 658.6 298.4 655.9 304.8 653.1C305.7 652.7 304.9 651.4 304 651.8C297.6 654.6 291.3 657.3 284.9 660.1C284 660.5 284.8 661.8 285.7 661.4Z" fill="#161616"/>
<path d="M286.1 662.2C292.5 659.3 298.9 656.3 305.4 653.4C306.3 653 305.5 651.7 304.6 652.1C298.2 655 291.8 658 285.3 660.9C284.4 661.3 285.2 662.6 286.1 662.2Z" fill="#161616"/>
<path d="M281.1 605.2C276.9 618.4 278 632.4 284.3 644.8C284.7 645.7 286 644.9 285.6 644C279.5 632 278.5 618.4 282.5 605.5C282.9 604.6 281.4 604.2 281.1 605.2Z" fill="#161616"/>
<path d="M281.9 605.5C283.5 605 285 604.9 286.6 605.1C287.6 605.2 287.5 603.7 286.6 603.6C284.9 603.4 283.1 603.5 281.5 604.1C280.6 604.4 281 605.8 281.9 605.5Z" fill="#161616"/>
<path d="M285.2 604C282.9 616.9 281.8 630.2 288.7 641.9C289.2 642.7 290.5 642 290 641.1C283.3 629.8 284.4 616.8 286.6 604.3C286.8 603.5 285.3 603.1 285.2 604Z" fill="#161616"/>
<path d="M280.7 601.4C279.7 600.6 278.7 599.7 277.8 598.9C277.1 598.3 276 599.3 276.7 600C277.7 600.8 278.7 601.7 279.6 602.5C280.4 603.1 281.5 602 280.7 601.4Z" fill="#161616"/>
<path d="M282.9 598.2C282.6 597.4 282.2 596.6 281.9 595.7C281.8 595.3 281.4 595.1 281 595.2C280.6 595.3 280.3 595.7 280.5 596.1C280.8 596.9 281.2 597.7 281.5 598.6C281.6 599 282 599.2 282.4 599.1C282.7 599.1 283.1 598.6 282.9 598.2Z" fill="#161616"/>
<path d="M287 600.1C287.1 599.1 287.6 598.1 288.5 597.5C289.3 596.9 288.5 595.6 287.7 596.2C286.5 597.1 285.7 598.3 285.5 599.7C285.4 600.1 285.6 600.5 286 600.6C286.4 600.7 286.9 600.5 287 600.1Z" fill="#161616"/>
<path d="M289.1 602.9C289.9 603.6 290.8 603.8 291.8 603.6C292.7 603.4 292.3 601.9 291.4 602.2C291 602.3 290.5 602.2 290.2 601.9C289.4 601.2 288.3 602.3 289.1 602.9Z" fill="#161616"/>
<path d="M264.4 454.5C266.9 461.1 269.5 467.7 272 474.3C272.3 475.2 273.8 474.8 273.4 473.9C270.9 467.3 268.3 460.7 265.8 454.1C265.5 453.2 264.1 453.6 264.4 454.5Z" fill="#161616"/>
<path d="M265.3 454C283.4 446.5 301.4 438.7 319.1 430.5C320 430.1 319.2 428.8 318.3 429.2C300.6 437.4 282.8 445.2 264.8 452.6C264 452.9 264.4 454.4 265.3 454Z" fill="#161616"/>
<path d="M273.8 475C291.8 467.3 309.3 458.6 326.4 449C327.2 448.5 326.5 447.2 325.6 447.7C308.5 457.3 291 466 273 473.7C272.2 474.1 273 475.4 273.8 475Z" fill="#161616"/>
<path d="M319 430.1C321.9 435.8 324.3 441.6 326.4 447.6C326.7 448.5 328.2 448.1 327.8 447.2C325.7 441.1 323.2 435.1 320.2 429.3C319.9 428.5 318.6 429.3 319 430.1Z" fill="#161616"/>
<path d="M299.2 458.1C307.4 454.7 315.1 450.5 322.6 445.7C323.4 445.2 322.7 443.9 321.8 444.4C314.5 449.2 306.8 453.2 298.8 456.6C297.9 457 298.3 458.4 299.2 458.1Z" fill="#161616"/>
<path d="M417.5 667C415.8 666.7 414.6 665 415.4 663.3C416.3 661.5 418.7 661.5 420.1 662.7C421.3 663.8 421.8 665.6 420.6 666.9C419.7 667.8 418 668.2 416.9 667.3C416.2 666.7 415.1 667.8 415.8 668.4C417.6 669.8 420.1 669.5 421.7 667.9C423.6 665.9 422.7 662.9 420.7 661.4C418.5 659.8 415.2 660.2 414 662.8C412.8 665.3 414.4 668 417.1 668.5C418.1 668.6 418.5 667.2 417.5 667Z" fill="#161616"/>
<path d="M247.8 762.3C245.3 761.4 245.4 758.3 246.9 756.5C247.5 755.8 248.4 755.2 249.2 754.8C250.9 754 251.9 755.6 252.4 757C253.1 758.9 253.2 761.5 251.4 762.9C249.9 764 247.5 764.1 246.5 762.4C246 761.6 244.7 762.3 245.2 763.2C246.6 765.7 250 765.9 252.2 764.2C255.1 762 254.6 757.5 252.8 754.7C250.8 751.5 246.9 753.6 245.1 756.1C243.3 758.7 244.1 762.6 247.2 763.6C248.4 764 248.7 762.6 247.8 762.3Z" fill="#161616"/>
<path d="M150.8 505.4C149.4 505.9 149.2 504.2 149.5 503.3C149.8 502.6 150.3 502.1 150.9 501.7C152.2 501 153.9 501.1 154.8 502.3C155.6 503.3 155.8 505 154.7 505.8C153.7 506.6 152.2 506.4 151.3 505.4C150.7 504.6 149.6 505.7 150.2 506.5C151.6 508.3 154.6 508.2 156.1 506.5C157.7 504.6 156.9 501.6 154.9 500.3C152.7 499 149.7 499.9 148.4 502C147.7 503.1 147.4 504.7 148.2 505.8C148.9 506.8 150 507.2 151.1 506.8C152.1 506.5 151.7 505.1 150.8 505.4Z" fill="#161616"/>
<path d="M337.2 423.5C336 422.1 335.1 419.9 336.1 418.2C336.8 417 338.6 416.2 339.8 417C341.1 417.9 341.4 420.1 340.8 421.5C340.1 423.2 337.9 424.1 336.5 422.7C335.8 422 334.7 423.1 335.4 423.8C337.1 425.5 340.1 425.2 341.5 423.2C343 421.2 342.9 417.6 340.9 416C339.1 414.5 336.4 415.3 335.1 417C333.3 419.4 334.4 422.5 336.1 424.6C336.8 425.3 337.9 424.2 337.2 423.5Z" fill="#161616"/>
<path d="M229.5 608.3C236.4 631.2 247 652.6 257.7 673.9C258.1 674.8 259.4 674 259 673.1C248.3 651.9 237.7 630.7 230.9 607.9C230.6 607 229.2 607.4 229.5 608.3Z" fill="#161616"/>
<path d="M227.7 600.1C242.8 593.1 257.9 586.1 272.9 579C273.8 578.6 273 577.3 272.1 577.7C257 584.8 242 591.8 226.9 598.8C226.1 599.2 226.9 600.5 227.7 600.1Z" fill="#161616"/>
<path d="M250.5 584.6C258.8 581.1 266.7 577.1 274.3 572.3C275.1 571.8 274.4 570.5 273.5 571C266 575.7 258.2 579.7 250 583.1C249.2 583.6 249.6 585 250.5 584.6Z" fill="#161616"/>
<path d="M259 452.9C260.8 457.8 262.7 462.7 264.5 467.6C264.8 468.5 266.3 468.1 265.9 467.2C264.1 462.3 262.2 457.4 260.4 452.5C260.1 451.6 258.7 452 259 452.9Z" fill="#161616"/>
<path d="M319.8 723.2C345.8 707.9 372.1 693 398.6 678.6C399.4 678.1 398.7 676.8 397.8 677.3C371.3 691.7 345 706.6 319 721.9C318.2 722.4 319 723.7 319.8 723.2Z" fill="#161616"/>
<path d="M329.6 715.8C331.2 718 332.8 720.3 334.4 722.5C335 723.3 336.3 722.5 335.7 721.7C334.1 719.5 332.5 717.2 330.9 715C330.4 714.3 329.1 715 329.6 715.8Z" fill="#161616"/>
<path d="M381.5 687C383.1 689.4 384.7 691.8 386.3 694.2C386.8 695 388.1 694.2 387.6 693.4C386 691 384.4 688.6 382.8 686.2C382.2 685.4 380.9 686.2 381.5 687Z" fill="#161616"/>
<path d="M103.7 352.6C113.1 385.7 122.4 418.7 131.8 451.8C176.7 437.1 221.6 422.5 266.5 407.8C257.3 377.6 248.1 347.3 238.9 317.1C193.9 328.9 148.8 340.8 103.7 352.6Z" fill="white" stroke="#161616" stroke-width="2"/>
<path d="M187.8 441.1C189.7 451.8 193 462 197.8 471.8C198.7 473.5 201.2 472 200.4 470.3C195.7 460.8 192.5 450.8 190.7 440.3C190.3 438.4 187.4 439.2 187.8 441.1Z" fill="#161616"/>
<path d="M210.3 434.4C212.1 444.3 214.1 454.2 219.8 462.7C220.9 464.3 223.5 462.8 222.4 461.2C216.8 452.9 214.9 443.2 213.2 433.6C212.8 431.7 210 432.5 210.3 434.4Z" fill="#161616"/>
<path d="M193.6 452.8C196.6 446.7 207 442.3 213.5 442.8C214.9 442.9 214.9 440.7 213.5 440.5C208.8 440.1 204.6 442 200.5 444C196.9 445.8 193.6 447.8 191.7 451.6C191 453 193 454.1 193.6 452.8Z" fill="#161616"/>
<path d="M196.3 462.8C198.6 459.6 201.9 457.7 205.5 456.3C208.5 455.1 213.1 452.9 216.3 454.5C217.6 455.1 218.7 453.2 217.4 452.6C213.4 450.6 208.8 452.6 204.9 454.2C200.7 455.9 197.1 458 194.4 461.7C193.5 462.8 195.4 464 196.3 462.8Z" fill="#161616"/>
<path d="M132.3 370.6C142.7 374.2 153.1 377.9 163.5 381.5C165.3 382.1 166.1 379.2 164.3 378.6C153.9 375 143.5 371.3 133.1 367.7C131.3 367 130.5 369.9 132.3 370.6Z" fill="#161616"/>
<path d="M139.8 389.4C146.8 380.7 154.1 372.3 161.5 364.1C162.8 362.7 160.7 360.5 159.4 362C151.9 370.2 144.7 378.7 137.7 387.3C136.5 388.7 138.6 390.9 139.8 389.4Z" fill="#161616"/>
<path d="M206.7 350.6C215.8 356.1 225 361.4 234.2 366.7C235.9 367.7 237.4 365.1 235.7 364.1C226.5 358.8 217.3 353.5 208.2 348C206.6 347 205 349.6 206.7 350.6Z" fill="#161616"/>
<path d="M228.9 343.3C221.8 351.4 215 359.8 208.4 368.4C207.2 369.9 209.8 371.4 211 369.9C217.4 361.5 224.1 353.4 231 345.4C232.3 344 230.1 341.9 228.9 343.3Z" fill="#161616"/>
<path d="M174.2 403.1C187.4 399.2 200.6 395.4 213.9 391.5C215.7 391 215 388.1 213.1 388.6C199.9 392.5 186.7 396.3 173.4 400.2C171.6 400.8 172.4 403.7 174.2 403.1Z" fill="#161616"/>
<path d="M137.9 444.6C136.8 443.9 136.5 442.2 137.3 441.2C138.2 440.1 140 440.2 140.9 441.2C141.8 442.2 141.5 444.1 140.4 444.9C139.2 445.7 137.7 445.3 136.8 444.2C136.2 443.5 135.1 444.5 135.7 445.3C137.1 447 140 447.4 141.7 445.8C143.3 444.3 143.4 441.5 141.8 440C140.2 438.5 137.4 438.7 136.1 440.4C134.7 442.2 135.3 444.8 137.2 446C138 446.4 138.7 445.1 137.9 444.6Z" fill="#161616"/>
<path d="M238.3 410.9C238.9 412.2 239.4 413.6 240 414.9C240.4 415.8 241.8 415.4 241.4 414.5C240.8 413.2 240.3 411.8 239.7 410.5C239.3 409.7 237.9 410 238.3 410.9Z" fill="#161616"/>
<path d="M239.2 411.5C247.6 408.6 255.9 405.8 264.3 402.9C265.2 402.6 264.8 401.1 263.9 401.5C255.5 404.4 247.2 407.2 238.8 410.1C237.9 410.3 238.3 411.8 239.2 411.5Z" fill="#161616"/>
<path opacity="0.23" d="M252.6 450.2C245.3 464.4 235.7 486.1 228.7 513.7C218.6 553.4 205.1 606.5 230.5 655.4C255.7 703.8 305.8 722.3 324.3 728.1C298.2 742.5 272.2 756.9 246.1 771.3C226.1 736.5 205.2 695.4 186.3 648C164.3 593 149.9 542.1 140.2 498.1C177.8 482.2 215.2 466.2 252.6 450.2Z" fill="#6D6C6C"/>
<path opacity="0.2" d="M236.6 604.5C246.1 626.8 255.5 649.1 265 671.4C298.4 655.2 331.7 639 365.1 622.8C356.1 601.1 347.1 579.5 338.2 557.8C304.3 573.3 270.4 588.9 236.6 604.5Z" fill="#6D6C6C"/>
<path opacity="0.21" d="M292.9 644.9C298.8 643.1 304.3 647 305.4 647.8C312.5 653 313.5 662.5 314.5 672.8C315.1 678.3 315.3 686.7 313.5 696.9C311.7 697.2 310 697.5 308.2 697.9C309.2 694.4 316.9 665.7 304.4 654.6C303.1 653.5 299.5 650.3 295.3 650.8C287.4 651.7 283.8 664.2 282.8 663.8C281.7 663.2 283.2 647.8 292.9 644.9Z" fill="#6D6C6C"/>
<path opacity="0.23" d="M306.8 643.4C306.2 642.9 311.4 631.8 322.2 629C323.6 628.6 329.5 627.2 335.7 630C342.5 633 341.5 637.4 347.7 640.6C355 644.3 359.1 639.7 365.5 643.5C372.3 647.5 373.5 657 372.7 657.5C371.7 658 367.6 645.9 359.2 645C356 644.7 354.2 646.2 348.6 645.5C346.2 645.2 344.1 644.9 341.9 643.6C337.7 641.1 338.1 638 334.7 635.4C330.9 632.5 325.9 633.2 323.6 633.5C313.2 634.7 307.4 644 306.8 643.4Z" fill="#6D6C6C"/>
<path opacity="0.2" d="M175 335C172.4 337.6 155.5 355.1 157.7 380.7C159.6 402.9 175 422.5 197.2 430.7C175.9 437.3 154.5 443.9 133.2 450.4C123.9 417.7 114.6 385 105.3 352.2C128.5 346.6 151.7 340.8 175 335Z" fill="#6D6C6C"/>
<path d="M881.9 716.8C899.2 705.1 916.4 693.4 933.7 681.7C944.2 682.5 960.1 682.7 978.8 678.8C998.8 674.6 1024.4 665.1 1023.5 659.2C1023.4 658.3 1022.5 656.6 1010.6 653.8C992.9 649.6 978.9 649.6 968.8 649.2C960.8 648.9 949.1 648.1 934.6 645.9C913 658.6 891.5 671.2 869.9 683.9C873.8 694.8 877.8 705.8 881.9 716.8Z" fill="#161616"/>
<path d="M837.7 491.3C828.3 499.9 829.2 510.8 823.7 527.4C818.1 544.4 808.7 558.4 764 598.9C694.6 661.8 677.7 664 671.9 689.5C666.6 712.9 674.1 740.2 691.1 756.6C713.6 778.2 746.5 774.7 770.7 772.1C831.5 765.5 875.7 731.4 898.9 709.5C897.2 696 895.5 682.5 893.7 669C904 658.5 917.4 641.8 926.1 618.1C947.5 559.8 922.4 506.7 916.5 495C888.6 484.1 854.9 475.7 837.7 491.3Z" fill="#EC615B"/>
<path opacity="0.18" d="M875.5 481.3C870 504.4 861.8 522 855.4 533.6C844.9 552.6 833.8 565.5 822.7 578.1C810.7 591.9 804.4 597.1 785.6 615.2C729.1 669.6 726.8 679.6 726.2 685.7C725.5 694.4 726.9 713.3 755.4 738.4C773.6 724.1 789.7 715.7 800.7 710.7C828.5 698 842.2 698.9 869.2 683.5C880.7 677 891.1 671.2 901.5 660.3C929.4 631 932.6 593.7 933.8 580.4C937.3 539.7 923.1 508.2 915.7 494.3C902.3 490 888.9 485.6 875.5 481.3Z" fill="#6D6C6C"/>
<path opacity="0.17" d="M911.2 647.6C877 657.8 833.1 675.8 789.6 709.2C776.7 719.1 765.3 729.3 755.3 739.2C789.9 733.7 825.7 726.9 862.7 718.5C875.1 715.7 887.2 712.8 899.2 709.8C897.2 696.4 895.2 682.9 893.2 669.5C899.2 662.1 905.2 654.8 911.2 647.6Z" fill="#6D6C6C"/>
<path opacity="0.12" d="M897.6 488.4C904.5 497.8 914.8 514.4 920 537.5C926.1 564.8 921.8 586.6 919.5 597.5C909.8 643 881.6 672.5 868.3 684.7C876.9 680.6 890 673 902.1 659.6C919.5 640.5 925.2 620.4 928.3 608.9C942 558.3 922.9 511.5 915.8 496.1C909.6 493.5 903.6 490.9 897.6 488.4Z" fill="#6D6C6C"/>
<path d="M933 728.9C950.3 717.2 967.5 705.5 984.8 693.8C995.3 694.6 1011.2 694.8 1029.9 690.9C1049.9 686.7 1075.5 677.2 1074.6 671.3C1074.5 670.4 1073.6 668.7 1061.7 665.9C1044 661.7 1030 661.7 1019.9 661.3C1011.9 661 1000.2 660.2 985.7 658C964.1 670.7 942.6 683.3 921 696C925 706.9 929 717.9 933 728.9Z" fill="#161616"/>
<path d="M888.9 503.4C880.3 514.7 893.7 529.6 889.1 552.8C884.6 575.4 866.9 586 825.2 615.7C739.7 676.8 731 691.9 727.5 705.9C722.2 727 726.9 752.7 742.2 768.7C763.4 790.8 797.7 786.8 821.8 784.2C882.6 777.6 926.8 743.5 950 721.6C948.3 708.1 946.6 694.6 944.8 681.1C955.1 670.6 968.5 653.9 977.2 630.2C998.6 571.9 973.5 518.8 967.6 507.1C914.7 489.8 895.6 494.5 888.9 503.4Z" fill="#EC615B"/>
<path opacity="0.18" d="M926.7 493.4C930.7 499.7 973.1 567.1 947.1 613.5C937.6 630.5 917.2 647.5 912.6 651.4C894.2 666.8 880.7 672.2 868.4 679.7C850.2 690.7 826.9 710.8 806.7 750.5C824.9 736.2 841 727.8 852 722.8C879.8 710.1 893.5 711 920.5 695.6C932 689.1 942.4 683.3 952.8 672.4C980.7 643.1 983.9 605.8 985.1 592.5C988.6 551.8 974.4 520.3 967 506.4C953.5 502 940.1 497.7 926.7 493.4Z" fill="#6D6C6C"/>
<path opacity="0.17" d="M962.4 659.6C928.2 669.8 884.3 687.8 840.8 721.2C827.9 731.1 816.5 741.3 806.5 751.2C841.1 745.7 876.9 738.9 913.9 730.5C926.3 727.7 938.4 724.8 950.4 721.8C948.4 708.4 946.4 694.9 944.4 681.5C950.4 674.2 956.4 666.9 962.4 659.6Z" fill="#6D6C6C"/>
<path opacity="0.12" d="M948.8 500.5C955.7 509.9 966 526.5 971.2 549.6C977.3 576.9 973 598.7 970.7 609.6C961 655.1 932.8 684.6 919.5 696.8C928.1 692.7 941.2 685.1 953.3 671.7C970.7 652.6 976.4 632.5 979.5 621C993.2 570.4 974.1 523.6 967 508.2C960.8 505.6 954.8 503 948.8 500.5Z" fill="#6D6C6C"/>
<path d="M878.6 261.3C873.1 258.6 863.8 266.9 860 270.3C841.7 286.7 838 305.9 825.9 336.8C822 346.7 816 361 807.3 378.1C797.6 388.7 783.4 401.8 764.2 413.4C752.6 420.4 741.5 425.4 731.9 429C726.2 427.2 715.1 424.5 702 427.2C694 428.8 685.4 430.6 681 437.4C673.2 449.5 683.6 470.2 696.6 480.5C700.7 483.8 707.6 489.2 716.4 488.3C727.7 487.1 737.8 475.7 740.9 459.6C758.2 456.1 793.4 446.5 825.3 417.1C832.4 410.5 850.1 393.1 863.6 365C874.8 341.8 877.1 323.9 881 294.4C884.2 269.9 882.3 263.2 878.6 261.3Z" fill="white" stroke="#161616" stroke-width="2"/>
<path opacity="0.08" d="M875.7 260.3C870.8 260.3 869.8 287.8 861.7 314.9C850.4 352.9 828.9 378 819.2 389.2C808.4 401.5 776.3 437.3 722.1 452.1C705.2 456.7 690.6 458.1 680.2 458.4C681.6 462.2 688.5 479.8 705.6 485.7C708.8 486.8 714.7 488.8 721.5 487C732.1 484.2 740.2 473.2 742.5 459.1C761.5 454.7 800 443.1 830.7 411.5C844.2 397.7 853 383.3 855.5 379.1C866.3 360.9 870.7 346.1 875.8 328.9C884.9 298.4 883.7 284.7 882.1 276.2C881.5 273.3 879.1 260.3 875.7 260.3Z" fill="#6D6C6C"/>
<path opacity="0.15" d="M874.4 325C873.1 324.5 867.2 345.1 846.5 373.9C835.8 388.7 822.3 407.4 799.5 423.4C785.1 433.5 765.4 442.2 725.9 459.6C705.9 468.4 694.4 472.9 694.8 478.6C695.2 484.4 707.5 489.7 717.7 488.1C729.2 486.3 738.9 475.5 741.2 460.8C751.7 457.7 765.9 452.7 781.8 444.9C788.4 441.7 810.7 430.7 827.5 416.3C868.1 381.5 876.5 325.9 874.4 325Z" fill="#6D6C6C"/>
<path d="M876.7 253.4C854 268.3 846.9 293.3 839.5 319.1C838 324.2 832 346.4 831.6 377.7C831.3 408.2 836.7 416.5 837.3 442C837.7 459.1 835.9 483.7 825.2 514.2C833.4 522.1 858.2 543.7 897.4 549.2C938.2 555 969.1 539.6 978.9 534.2C979.8 522.5 981 504.3 981 482C981.1 387.7 960.8 338.3 990.3 304.1C994.2 299.6 1000.9 293.2 1011.7 287.7C1004 278.9 969.7 241.4 920.2 242C910.8 242 893.4 242.4 876.7 253.4Z" fill="white" stroke="#161616" stroke-width="2"/>
<path opacity="0.1" d="M941.1 244.5C929.4 267.7 915.5 303 914.7 346.7C913.9 387.8 925.3 406 922.2 442.6C920.1 467.8 910.9 503.6 878 545.4C885.4 547.7 894.1 549.7 903.8 550.6C938.1 553.7 965.6 541.6 979.6 533.9C981.8 505.6 981.7 482.8 981.3 467.9C980 422.5 976.1 387.5 976.1 387.5C974.1 373.2 974 361 974.4 351.9C975 338.9 975.4 331.2 979 322C981.5 315.7 987.2 304.6 1000.8 294.4C1004.6 292.3 1008.5 290.2 1012.3 288.1C1002.5 275.9 984.7 257.6 957.2 248.5C951.6 246.6 946.2 245.3 941.1 244.5Z" fill="#6D6C6C"/>
<path opacity="0.12" d="M1012.3 287.5C1004.5 280.4 996.6 273.3 988.8 266.3C962.9 292.6 951.5 317.7 946.3 338.1C941.6 356.7 944.8 360.6 942.9 426.5C941.4 478.4 938.9 493.9 930.3 510.3C920.5 529.1 906.7 541.5 897 548.8C905.6 550.6 918.7 552.2 934.3 549.9C954.8 546.9 969.8 538.6 977.9 533.2C979.7 507.7 980 485.7 979.6 468.3C978 385 962.3 343.7 987.6 309.3C995.5 298.6 1005 291.8 1012.3 287.5Z" fill="#6D6C6C"/>
<path d="M680.6 428.6C697.9 464 715.1 499.4 732.4 534.8C763.2 516.7 793.9 498.5 824.7 480.4C808.6 448.2 792.5 416 776.4 383.8C744.5 398.7 712.6 413.7 680.6 428.6Z" fill="white" stroke="#161616" stroke-width="2"/>
<ellipse cx="747.8" cy="451.1" rx="27.2" ry="27.6" fill="white" stroke="#161616" stroke-width="2"/>
<path d="M779.4 454.7C775 461.8 775.9 470.7 781.1 476C787.4 482.5 796.7 480.5 797.2 480.4C808.8 502.5 820.4 524.5 832 546.6C837.9 544.3 843.9 542 849.8 539.6C836.2 518 822.5 496.4 808.9 474.7C809.4 474.3 816.8 468.9 816.3 460.3C815.9 452.6 809.2 445.7 800.2 444.6C804.2 448.9 805 454.9 802.4 459.4C799.4 464.7 793.2 465 792.8 465.1C787.2 465.5 781.6 461.3 779.4 454.7Z" fill="white" stroke="#161616" stroke-width="2"/>
<path d="M732.9 436.2C732.9 436.3 732.9 436.4 732.9 436.5C732.9 437.3 733.6 438 734.4 438C735.2 438 735.9 437.3 735.9 436.5C735.9 436.4 735.9 436.3 735.9 436.2C735.9 435.4 735.2 434.7 734.4 434.7C733.6 434.7 732.9 435.3 732.9 436.2Z" fill="#161616"/>
<ellipse cx="791.6" cy="452.9" rx="11.6" ry="11.8" fill="white" stroke="#161616" stroke-width="2"/>
<path d="M728.9 431.9C730.3 433.4 731.9 434.9 733.4 436.3C734.9 437.6 737 435.4 735.5 434.2C733.9 432.8 732.4 431.4 731 429.8C729.7 428.4 727.6 430.5 728.9 431.9Z" fill="#161616"/>
<path d="M721.9 460.4C724.5 459.4 726.9 458.2 729.3 456.7C730.9 455.6 729.4 453 727.8 454.1C725.7 455.5 723.5 456.6 721.2 457.5C719.3 458.2 720.1 461.1 721.9 460.4Z" fill="#161616"/>
<path d="M737.4 476C739.1 473.9 740.8 471.7 742.3 469.4C743.4 467.8 740.8 466.3 739.7 467.9C738.3 470 736.8 472 735.3 473.9C734.1 475.3 736.2 477.5 737.4 476Z" fill="#161616"/>
<path d="M759.9 466.9C762.2 467.6 764.3 468.7 766.1 470.2C767.6 471.4 769.7 469.3 768.2 468.1C766 466.2 763.5 464.8 760.6 464C758.9 463.4 758.1 466.3 759.9 466.9Z" fill="#161616"/>
<path d="M766.1 449.6C767.8 448.6 769.6 447.8 771.4 447.1C773.2 446.5 772.4 443.6 770.6 444.2C768.5 444.9 766.5 445.9 764.6 447C762.9 447.9 764.4 450.5 766.1 449.6Z" fill="#161616"/>
<path d="M756.7 425C756 426.4 755.3 427.8 754.6 429.1C753.7 430.8 756.3 432.3 757.2 430.6C757.9 429.2 758.6 427.8 759.3 426.5C760.1 424.8 757.6 423.3 756.7 425Z" fill="#161616"/>
<path d="M780 451.9C781.6 452.1 783.2 452.2 784.8 452.4C785.6 452.5 786.3 451.7 786.3 450.9C786.3 450 785.6 449.5 784.8 449.4C783.2 449.2 781.6 449.1 780 448.9C779.2 448.8 778.5 449.6 778.5 450.4C778.5 451.3 779.2 451.8 780 451.9Z" fill="#161616"/>
<path d="M790.4 441.9C790.7 442.8 791 443.7 791.3 444.6C791.6 445.4 792.3 445.9 793.1 445.6C793.8 445.4 794.4 444.5 794.1 443.8C793.8 442.9 793.5 442 793.2 441.1C792.9 440.3 792.2 439.8 791.4 440.1C790.7 440.3 790.1 441.1 790.4 441.9Z" fill="#161616"/>
<path d="M787.5 463.7C788.3 462.3 789.2 461 790.2 459.8C790.7 459.2 790.8 458.3 790.2 457.7C789.7 457.2 788.6 457.1 788.1 457.7C786.9 459.1 785.8 460.6 784.9 462.2C784 463.8 786.6 465.4 787.5 463.7Z" fill="#161616"/>
<path d="M797.8 452.8C799.4 453 800.9 452.6 802.4 452C803.1 451.7 803.3 450.6 802.9 449.9C802.5 449.1 801.6 449 800.8 449.4C799.8 449.8 798.7 449.9 797.7 449.8C796.9 449.7 796.2 450.6 796.2 451.3C796.3 452.2 797 452.7 797.8 452.8Z" fill="#161616"/>
<path d="M794.7 460.1C795.5 461.1 796.3 462.1 797.1 463.1C797.6 463.7 798.7 463.6 799.2 463.1C799.8 462.5 799.7 461.6 799.2 461C798.4 460 797.6 459 796.8 458C796.3 457.4 795.2 457.5 794.7 458C794 458.6 794.2 459.5 794.7 460.1Z" fill="#161616"/>
<path d="M678.6 429.7C694.7 465.3 711.8 500.5 729.9 535.1C730.8 536.8 733.4 535.3 732.5 533.6C714.3 499 697.2 463.8 681.2 428.2C680.4 426.5 677.8 428 678.6 429.7Z" fill="#161616"/>
<path d="M678 429.2C693.9 465.3 711.1 500.7 729.7 535.4C730.6 537.1 733.2 535.6 732.3 533.9C713.7 499.2 696.4 463.7 680.6 427.7C679.8 425.9 677.2 427.5 678 429.2Z" fill="#161616"/>
<path d="M735.3 522.9C733.3 522.2 733.3 519.2 734.5 517.8C735.7 516.5 738 516.2 739.3 517.6C742.3 520.6 738.2 524.6 734.9 522.9C734 522.5 733.3 523.8 734.1 524.2C736.4 525.4 739.4 524.9 741 522.7C742.5 520.6 741.8 517.4 739.6 516C737.4 514.6 734.2 515.4 732.9 517.6C731.5 519.9 732.2 523.5 734.9 524.5C735.8 524.6 736.2 523.2 735.3 522.9Z" fill="#161616"/>
<path d="M735.5 520.9C736.5 520.9 736.5 519.4 735.5 519.4C734.5 519.4 734.5 520.9 735.5 520.9Z" fill="#161616"/>
<path d="M737.9 518.7C737.9 518.6 737.9 518.6 737.9 518.5C737.9 517.5 736.4 517.5 736.4 518.5C736.4 518.6 736.4 518.6 736.4 518.7C736.4 519.6 737.9 519.6 737.9 518.7Z" fill="#161616"/>
<path d="M737 521.2C737 521.3 737 521.3 737 521.4C737 522.4 738.5 522.4 738.5 521.4C738.5 521.3 738.5 521.3 738.5 521.2C738.5 520.2 737 520.2 737 521.2Z" fill="#161616"/>
<path d="M680.2 428.1C696.4 420.5 712.7 412.9 728.9 405.2C744.6 397.9 760.1 389.9 776.2 383.6C777.1 383.3 776.7 381.8 775.8 382.2C760.2 388.4 745.1 396 729.9 403.1C713.1 411 696.2 418.9 679.4 426.8C678.6 427.2 679.3 428.5 680.2 428.1Z" fill="#161616"/>
<path d="M690.2 432.3C687.9 431.2 690.7 427.9 692.6 429.5C694.4 431.1 692.3 433.8 690.3 432.6C689.5 432.1 688.7 433.4 689.5 433.9C691.1 434.8 693.2 434.4 694.3 432.9C695.3 431.4 694.8 429.2 693.4 428.1C691.9 427 689.8 427.5 688.7 428.9C687.5 430.4 687.9 432.7 689.6 433.5C690.3 434 691.1 432.7 690.2 432.3Z" fill="#161616"/>
<path d="M783.8 442.5C778.9 445.2 776.7 450.5 778.2 455.9C778.5 456.8 779.9 456.4 779.6 455.5C778.2 450.7 780.2 446.1 784.5 443.8C785.4 443.3 784.6 442 783.8 442.5Z" fill="#161616"/>
<path d="M779.5 451.9C780.3 445.2 788.4 437.4 795.1 442.4C795.9 443 796.6 441.7 795.9 441.1C788.2 435.4 779 444.2 778 451.9C777.9 452.9 779.4 452.8 779.5 451.9Z" fill="#161616"/>
<path d="M722.5 463.3C717.1 448.5 721.8 430 738.6 425.8C739.5 425.6 739.1 424.1 738.2 424.4C720.6 428.8 715.4 448.2 721 463.8C721.4 464.6 722.9 464.2 722.5 463.3Z" fill="#161616"/>
<path d="M719.1 448.5C719.2 459.9 723 472.6 735.4 475.7C736.3 475.9 736.7 474.5 735.8 474.3C724.2 471.3 720.7 459.2 720.6 448.5C720.6 447.5 719.1 447.5 719.1 448.5Z" fill="#161616"/>
<path d="M719 457.4C721.9 470.6 732.9 479.5 746.4 479.7C747.4 479.7 747.4 478.2 746.4 478.2C733.6 478 723.2 469.5 720.5 457C720.3 456.1 718.8 456.5 719 457.4Z" fill="#161616"/>
<path opacity="0.18" d="M776.2 460.4C776.9 462 780.8 470.1 790.1 473.3C795.7 475.2 800.7 474.4 803 473.8C804.8 477.4 806.6 480.9 808.5 484.5C818.9 504.6 829.5 524.2 840.2 543.3C837.5 544.6 834.7 545.9 832 547.1C820.2 524.8 808.5 502.4 796.7 480.1C794.9 480.5 790 481.3 785.2 478.7C779.1 475.5 775.6 468.3 776.2 460.4Z" fill="#6D6C6C"/>
<path opacity="0.29" d="M778.9 473C785.1 475.1 791.3 477.2 797.5 479.3C811.3 500.6 825 522 838.8 543.3C836.4 543.9 834.1 544.6 831.7 545.2C820 523.8 808.4 502.4 796.7 480.9C795.1 481.1 791.1 481.6 786.6 479.5C782.2 477.6 779.8 474.3 778.9 473Z" fill="#6D6C6C"/>
<path opacity="0.17" d="M726.2 432C723.8 433.2 709.2 441.1 705.1 458.3C704.8 459.4 700.3 480 711.9 489.5C722.5 498.1 743.7 495.4 758.7 478.3C756.4 478.2 742.2 477.1 732.4 464.9C721.1 450.5 725.7 433.6 726.2 432Z" fill="#6D6C6C"/>
<path opacity="0.18" d="M725.9 433.6C724.7 435 712.5 449.5 717.4 466.7C718.1 469.1 722.5 484.2 736 486.9C745.8 488.9 755.3 483.3 760.1 476.2C767.9 464.6 763.5 447.7 753 439C741.9 430 727.7 433.2 725.9 433.6Z" fill="#6D6C6C"/>
<path d="M987.8 294.4C991.6 290.3 999.4 281.8 1006.6 283.6C1020.3 286.9 1022 323.9 1022.6 334.9C1023.7 358.2 1021.3 396.9 997.5 445.5C986.5 458.5 971.2 474.3 950.7 489.4C927 506.9 904.3 517.6 886.9 524.3C878.1 532.2 870.1 537.8 864.2 541.4C855.6 546.8 851.2 549.5 844.6 550.6C841.2 551.2 829.8 553.1 819.3 545.8C809.3 538.8 806.9 528.2 806.4 525.5C804.8 517.6 806.4 511.1 807.4 507.9C818.2 506 828.9 504.1 839.7 502.2C820 499.1 815.9 496.6 815.9 494.9C815.9 491.3 832.1 487.2 846.8 487.9C860.4 488.5 871.1 493.2 877.8 496.8C893.2 482.9 905.9 472 914.8 464.6C927.5 454 934.6 448.6 944.1 438.9C954.6 428.2 962.1 418.5 966.8 412C967.2 392.5 968.2 376 969.2 363.5C972.7 319.7 977.7 305.3 987.8 294.4Z" fill="white" stroke="#161616" stroke-width="2"/>
<path d="M805.6 516.7C815.4 521.5 826.3 521.3 836.1 516.5C837.8 515.7 836.3 513.1 834.6 513.9C825.8 518.1 815.9 518.3 807.1 514.1C805.4 513.3 803.8 515.9 805.6 516.7Z" fill="#161616"/>
<path d="M805.7 525C814.3 533.8 826.6 534.3 837.8 530.8C839.6 530.2 838.8 527.3 837 527.9C826.8 531.1 815.7 531 807.9 522.9C806.5 521.5 804.3 523.6 805.7 525Z" fill="#161616"/>
<path d="M811.4 539.6C821.3 545.7 833.7 545.7 843.7 539.6C845.3 538.6 843.8 536 842.2 537C833.2 542.5 822 542.5 813 537C811.3 536 809.7 538.6 811.4 539.6Z" fill="#161616"/>
<path opacity="0.17" d="M1001 284.5C1001.9 290 1002.8 295.6 1003.7 301.2C1005.3 311.4 1006.8 321.5 1008.2 331.5C1008.2 331.5 1012.3 371.7 996.5 411.1C982.5 445.9 958.2 465.4 933.7 485.1C911.5 502.9 890.6 519.8 858.2 524.4C836.1 527.6 817.4 523.8 805.6 520.3C805.8 523.7 806.8 530.4 811.2 537.1C813.3 540.2 819.8 549.1 831.1 551.4C834.2 552 839.9 552.6 851 548.3C858.9 545.3 872.3 538.8 885.7 524.3C902.9 518 916.7 510.9 927 504.9C934.7 500.4 954.1 488.6 975.5 468.7C984.9 459.9 992.3 451.8 997.4 445.7C1003.3 434.4 1009.5 420.2 1014.2 403.3C1021.7 377 1022 357.6 1022.4 332.4C1022.4 332.4 1022.6 321.8 1017.8 300.8C1015.9 292.5 1013.8 285.8 1008.6 284C1005.8 283 1002.9 283.7 1001 284.5Z" fill="#6D6C6C"/>
<path opacity="0.17" d="M812 539.1C817.2 540.5 825.6 542.2 835.4 540.7C846 539.1 849.6 535.3 870.5 526.1C884.3 520 884.4 521 895.9 515.7C908.9 509.7 918.2 504.2 925.5 499.8C953.2 483.1 979.8 462.4 990.5 453.9C975.8 469.8 954.7 489 926.1 505.6C911.9 513.9 898.3 520.1 886.1 524.8C882.9 528.2 877.7 533.2 870.5 538.1C860 545.3 849.7 552.4 836.7 551.4C833.2 551.2 822.7 549.8 812 539.1Z" fill="#6D6C6C"/>
<path d="M801.4 114.1C793.9 116.8 786.6 130.9 791.5 186.9C781.8 217 787.8 247.9 807.3 265.6C822 278.9 839.6 280.3 843 280.5C866.1 281.9 889.5 269 898.6 250.2C900.2 247 903.3 240.3 902.7 231.7C901.6 216.7 889.8 206.6 885.5 202.8C843.3 165 819.2 107.7 801.4 114.1Z" fill="#5222D0"/>
<path d="M879.2 219.5C879.1 226 886.7 229.7 891.9 243.8C894.4 250.7 895.2 256.8 895.4 260.5C899.1 261.3 909.8 263 921.3 257.5C929.4 253.6 934.2 247.9 936.5 244.8C928.4 228.6 920.3 212.4 912.2 196.1C884.9 205.9 879.3 214 879.2 219.5Z" fill="white" stroke="#161616" stroke-width="2"/>
<path d="M803.4 107.2C794.7 125.7 798.6 144.6 801.3 157.2C803.9 169.6 811.5 193.8 833.8 213.1C849.3 226.5 865.4 231.8 874.2 234.1C881.9 230.8 893.7 224.7 904.8 213.3C916.2 201.6 921.3 190 926.1 179.2C935.1 158.5 941.3 144.3 938.9 126.4C936.3 106 923.1 84.2999 902.1 73.5999C866 55.0999 818.4 75.4999 803.4 107.2Z" fill="white" stroke="#161616" stroke-width="2"/>
<path d="M836.7 146.5C838.2 153.3 839.9 160.1 841.9 166.8C843.8 173.3 845.6 180.6 848.6 186.7C852.9 195.4 860.8 180 862.7 176.5C863.6 174.8 861.1 173.3 860.1 175C859.3 176.5 853.8 186.6 852.3 186.2C849.7 185.5 847.5 174.8 846.8 172.5C844 163.7 841.6 154.8 839.6 145.8C839.1 143.9 836.2 144.7 836.7 146.5Z" fill="#161616"/>
<path d="M805.3 153.2C812.5 153.2 819.6 152.2 826.6 150.4C828.5 149.9 827.7 147 825.8 147.5C819.1 149.3 812.2 150.2 805.3 150.2C803.4 150.2 803.3 153.2 805.3 153.2Z" fill="#161616"/>
<path d="M859.5 139.1C865.6 131.8 875.7 129.9 883.9 135.1C885.5 136.1 887 133.5 885.4 132.5C876.2 126.6 864.4 128.6 857.4 136.9C856.2 138.4 858.3 140.6 859.5 139.1Z" fill="#161616"/>
<path d="M818.5 165.7C817.3 165.4 816.3 161.1 817.4 160.5C818.5 160 818.5 162.6 818.5 163C818.6 163.9 818.5 165.4 818.8 166.3C818.8 166.5 818.8 166.6 818.8 166.8C819 166.7 819.2 166.5 819.4 166.4C819.4 166.3 818.5 165.4 818.3 165.1C817.9 164.4 817.8 163.6 817.9 162.8C817.9 162.5 818 162.3 818.1 162C817.7 162 817.3 162 816.8 162C816.7 162.1 817.2 163.3 817.2 163.5C817.3 163.9 817.4 164.7 817.6 165C817.7 165.2 817.7 165.4 817.8 165.6C818.7 165.6 819.1 165.2 818.8 164.6C818.5 162.7 815.6 163.5 815.9 165.4C816.2 167.1 817.6 169 819.6 168.1C821.8 167.1 820.6 164.3 820.1 162.7C819.6 161.1 819 158.5 816.7 159.4C814.9 160.1 814.7 162.6 814.9 164.2C815.2 166 816.2 167.9 817.8 168.9C819.7 170.1 821.7 168.9 821.8 166.8C821.8 165.6 821.6 164.3 821.5 163C821.4 161.8 821.4 160.5 820.9 159.4C820.2 157.7 818.4 156.7 816.6 157.5C812.5 159.2 813.4 167.7 817.7 168.6C819.6 169 820.4 166.1 818.5 165.7Z" fill="#161616"/>
<path d="M872.3 153.5C871.3 152.9 871.1 151.8 871 150.7C871 150.4 870.9 148 871 148C871.2 147.9 871.9 150.6 872 151.2C872.2 152.7 872.1 154.2 871.8 155.7C872.6 155.5 873.5 155.3 874.3 155C872.4 153.4 871.3 151 871.8 148.5C871.6 148.8 871.3 149.1 871.1 149.4C871.3 149.3 871.5 152 871.5 152.3C871.6 153.1 871.8 153.8 872.3 154.5C873.3 156.1 875.9 154.6 874.9 153C873.8 151.3 874.8 149.2 873.3 147.6C872.3 146.5 870.4 145.8 869.2 147C868.1 148.1 868.6 151 869 152.3C869.6 154.2 870.6 155.8 872.1 157.1C872.9 157.8 874.4 157.6 874.6 156.4C875.2 153.5 875.1 150.5 874.1 147.7C873.4 145.8 871.8 143.7 869.6 144.9C867.7 146 867.7 148.7 867.9 150.6C868.1 152.8 868.8 154.8 870.7 156C872.4 157.1 873.9 154.5 872.3 153.5Z" fill="#161616"/>
<path d="M880.3 170.9C882.2 170.9 882.2 167.9 880.3 167.9C878.3 167.9 878.3 170.9 880.3 170.9Z" fill="#161616"/>
<path d="M889.2 161.1C889.3 161.1 889.4 161.1 889.5 161.1C890.3 161.1 891 160.4 891 159.6C891 158.8 890.3 158.1 889.5 158.1C889.4 158.1 889.3 158.1 889.2 158.1C888.4 158.1 887.7 158.8 887.7 159.6C887.7 160.4 888.3 161.1 889.2 161.1Z" fill="#161616"/>
<path d="M887.4 168.8C887.4 168.9 887.4 169 887.4 169.1C887.4 169.9 888.1 170.6 888.9 170.6C889.7 170.6 890.4 169.9 890.4 169.1C890.4 169 890.4 168.9 890.4 168.8C890.4 168 889.7 167.3 888.9 167.3C888 167.3 887.4 168 887.4 168.8Z" fill="#161616"/>
<path d="M849.1 206.7C858 204.2 866.4 207.4 874.6 210.8C876.4 211.5 877.2 208.6 875.4 207.9C866.7 204.3 857.7 201.1 848.3 203.8C846.5 204.4 847.3 207.3 849.1 206.7Z" fill="#161616"/>
<path d="M788 140.8C777.7 113.3 797.6 85.6 800.2 82C802.1 79.5 823.7 51.2 859.4 52C875 52.3 886.8 58 892.9 61.6C901.7 62.2 918.4 64.6 935.1 76C965.2 96.4 971.1 129.6 972.1 136.1C979.9 143.2 990.9 154.7 1000 171.4C1002.7 176.4 1007.1 184.5 1009.9 194.7C1011.8 202 1023.2 244.1 996.3 266.6C980.8 279.6 957.5 282 939.9 274.1C922 266.1 912.7 248.6 911.5 246.3C910.7 244.8 910.2 243.6 909.8 242.8C893.6 206.3 919.4 169.4 921.1 167.1C921.9 166.8 932.1 162.9 934.2 153.2C936 145 931.8 134.3 925.1 133.6C920.7 133.1 915.9 137.1 912.9 142.7C905.5 139 896.5 133.7 887.2 126.2C874.7 116 866.2 105.3 860.6 97C850.2 100.1 829.2 108.1 811.8 128.3C803.8 137.6 798.8 147 795.7 154.4C793.4 151.3 790.3 146.8 788 140.8Z" fill="#5222D0"/>
<path opacity="0.13" d="M845.7 102.5C854.5 107.2 872.7 118.7 885 141C890 150.1 900.3 168.7 896.3 193C892.7 214.8 879.5 228.7 874.2 233.8C877 232.6 880.9 231.4 885.8 230.8C890.1 230.3 893.8 230.6 896.6 231C899.1 234.8 901.8 239.7 904.2 245.6C906.7 251.8 908.1 257.5 908.9 262.1C913 260.8 917.1 259.6 921.2 258.3C922 259.8 923.2 261.9 925.1 264.1C934 274.9 947.3 276.9 952.7 277.7C968.7 280.1 981.1 274.4 985.7 272.3C985.7 272.3 995.2 267.8 1002 261C1017 246.2 1018.2 211.6 1002.8 175.6C1001.9 179.1 998 192.5 984.9 200.8C971 209.6 952.1 209.4 938.3 199.2C922.6 187.6 921.7 169.1 921.6 166.6C923.3 166.1 926.2 164.9 929 162.3C929.6 161.8 934.7 156.7 934.7 148.9C934.7 144.1 932.8 134.5 926.2 133.3C921.5 132.4 915.9 136 913.2 142.2C903.9 137.7 891.3 130.3 879 118.4C871 110.7 865.1 103 860.7 96.3999C857.5 97.2999 853.9 98.4999 850.2 100.2C848.5 101.1 847.1 101.8 845.7 102.5Z" fill="#6D6C6C"/>
<path opacity="0.15" d="M920.8 167.2C918.2 169.3 914.3 172.9 910.8 178.2C902.8 190.1 904.4 199 897.5 212.7C895.5 216.8 892 222.6 885.9 229C890.8 227.7 895.7 226.3 900.7 225C901.8 229.5 903.1 234.1 904.5 238.8C906.9 246.9 909.4 254.5 912.1 261.7C914.8 260.6 917.4 259.4 920.1 258.3C916.6 254.1 911.5 247.2 908.2 237.5C902.7 221.4 905.3 207.5 906.9 199.6C909.7 185 916 174.1 920.8 167.2Z" fill="#6D6C6C"/>
<path opacity="0.33" d="M832.7 213.1C834 215.1 838.8 222.8 836.7 232.1C834.1 243.5 822.8 250.2 813 251.1C803.2 252.1 795.8 247.2 793.6 245.6C795.2 249.8 798.1 256 803.5 262C818.4 278.6 844.2 284.6 865.8 277.4C880.5 272.5 889.7 262.7 894.3 256.9C894 253.7 893.3 249.8 891.9 245.5C889.7 238.8 886.5 233.8 883.9 230.5C881 232 878.2 233.5 875.3 235.1C869.6 234 861.8 231.9 853.3 227.6C843.9 223 837.2 217.4 832.7 213.1Z" fill="#6D6C6C"/>
<path d="M886.2 230.8C891.9 227.6 897 223.8 901.7 219.4C903.1 218.1 901 215.9 899.6 217.3C895.1 221.6 890.1 225.2 884.7 228.3C883 229.1 884.5 231.7 886.2 230.8Z" fill="#161616"/>
<path d="M887.5 232.2C893.1 227.6 898.4 222.7 903.5 217.6C904.9 216.2 902.7 214.1 901.4 215.5C896.3 220.6 890.9 225.5 885.4 230.1C883.9 231.4 886 233.5 887.5 232.2Z" fill="#161616"/>
</svg>
