<svg width="1191" height="1038" viewBox="0 0 1191 1038" fill="none" xmlns="http://www.w3.org/2000/svg">
<path d="M1.70039 982.3C37.2004 982.3 72.7004 982.3 108.2 982.3C110.1 982.3 110.1 979.3 108.2 979.3C72.7004 979.3 37.2004 979.3 1.70039 979.3C-0.199609 979.3 -0.199609 982.3 1.70039 982.3Z" fill="#161616"/>
<path d="M114.6 1011.3C189.9 1011.3 265.1 1011.3 340.4 1011.3C342.3 1011.3 342.3 1008.3 340.4 1008.3C265.1 1008.3 189.9 1008.3 114.6 1008.3C112.7 1008.3 112.7 1011.3 114.6 1011.3Z" fill="#161616"/>
<path d="M401.7 983.9C475.2 983.9 548.6 983.9 622.1 983.9C695.2 983.9 768.4 983.9 841.5 983.9C883.1 983.9 924.6 983.9 966.2 983.9C968.1 983.9 968.1 980.9 966.2 980.9C892.7 980.9 819.3 980.9 745.8 980.9C672.7 980.9 599.5 980.9 526.4 980.9C484.8 980.9 443.3 980.9 401.7 980.9C399.8 980.9 399.8 983.9 401.7 983.9Z" fill="#161616"/>
<path d="M727.5 962.9C812.9 962.9 898.3 962.9 983.7 962.9C1008 962.9 1032.2 962.9 1056.5 962.9C1058.4 962.9 1058.4 959.9 1056.5 959.9C971.1 959.9 885.7 959.9 800.3 959.9C776 959.9 751.8 959.9 727.5 959.9C725.6 959.9 725.6 962.9 727.5 962.9Z" fill="#161616"/>
<path d="M896.9 1016.1C972.5 1016.1 1048.2 1016.1 1123.8 1016.1C1145.5 1016.1 1167.1 1016.1 1188.8 1016.1C1190.7 1016.1 1190.7 1013.1 1188.8 1013.1C1113.2 1013.1 1037.5 1013.1 961.9 1013.1C940.2 1013.1 918.6 1013.1 896.9 1013.1C894.9 1013.1 894.9 1016.1 896.9 1016.1Z" fill="#161616"/>
<path d="M914 54.1001C934.3 64.0001 940.7 87.4001 943 108.1C946.1 135.9 945.4 164.6 945.2 192.5C944.8 253.5 941.2 314.5 937.9 375.4C931.4 497.1 924.8 618.8 918.3 740.5C914.6 809 910.9 877.5 907.3 946C907.2 947.9 910.2 947.9 910.3 946C917 821.6 923.7 697.2 930.3 572.9C933.6 511 936.9 449.2 940.3 387.3C943.6 325.7 947.4 264.1 948.2 202.4C948.4 185.2 948.4 168 948 150.7C947.7 136 947.6 121.2 945.9 106.6C943.3 85.3001 936.4 61.5001 915.6 51.4001C913.8 50.7001 912.3 53.3001 914 54.1001Z" fill="#E8E8E8"/>
<path d="M861.5 34.3001C884.3 38.1001 905.7 46.9001 924.6 60.1001C926.2 61.2001 927.7 58.6001 926.1 57.5001C907 44.2001 885.2 35.3001 862.3 31.4001C860.4 31.0001 859.6 33.9001 861.5 34.3001Z" fill="#E8E8E8"/>
<path d="M773 5.0999C804.1 8.2999 837.6 12.3999 861.5 34.6999C862.9 35.9999 865 33.8999 863.6 32.5999C839.1 9.6999 805 5.3999 773 2.0999C771 1.8999 771.1 4.8999 773 5.0999Z" fill="#E8E8E8"/>
<path d="M860.8 34.8C856.5 66.8 838.8 96.3 812.5 115C810.9 116.1 812.4 118.7 814 117.6C841.3 98.1 859.4 68 863.8 34.8C864.1 32.9 861.1 32.9 860.8 34.8Z" fill="#E8E8E8"/>
<path d="M771.1 3.40022C797.3 35.2002 811.4 75.9002 810.6 117.1C810.6 119 813.6 119 813.6 117.1C814.3 75.1002 799.9 33.7002 773.2 1.30022C772 -0.199783 769.9 1.90022 771.1 3.40022Z" fill="#E8E8E8"/>
<path d="M786.8 38.3C774.8 37.5 763.7 52.6 769.5 63.8C773.8 72.1 790.1 76.5 795.8 67.5C796.8 65.9 794.2 64.4 793.2 66C788.7 73.2 774.7 68.3 772 61.8C768 52.4 777.2 40.6 786.9 41.3C788.7 41.4 788.7 38.4 786.8 38.3Z" fill="#E8E8E8"/>
<path d="M770.3 2.8C771.4 16.8 773.6 30.7 777 44.3C777.5 46.2 780.4 45.4 779.9 43.5C776.6 30.1 774.4 16.5 773.3 2.8C773.1 0.9 770.1 0.9 770.3 2.8Z" fill="#E8E8E8"/>
<path d="M789 72.9002C795.6 87.9002 802.2 102.9 808.7 117.9C809.5 119.7 812.1 118.1 811.3 116.4C804.7 101.4 798.1 86.4002 791.6 71.4002C790.9 69.7002 788.3 71.2002 789 72.9002Z" fill="#E8E8E8"/>
<path d="M789.8 71.5999C793.7 82.7999 797.7 93.9999 803.8 104.3C804.8 106 807.3 104.5 806.4 102.8C801 92.6999 797.1 82.0999 794.6 70.9999C793.8 71.4999 792.9 71.9999 792.1 72.4999C792.2 72.5999 792.2 72.5999 792.3 72.6999C792.2 72.0999 792.1 71.4999 792.1 70.8999C792 70.9999 792 71.0999 791.9 71.1999C792.7 71.0999 793.5 70.9999 794.3 70.8999C794.2 70.6999 803.1 62.5999 803.7 62.0999C802.9 61.8999 802 61.6999 801.2 61.3999C803.3 70.4999 804.7 79.6999 805.6 88.9999C806.6 88.8999 807.6 88.6999 808.5 88.5999C806.8 82.0999 804.6 75.6999 802 69.4999C801.3 67.7999 798.7 68.3999 799.1 70.2999C800.8 78.3999 802.4 86.4999 804.1 94.6999C805.1 94.3999 806 94.1999 807 93.8999C804.8 87.0999 802.4 80.4999 799.7 73.8999C799 72.0999 796.3 72.7999 796.8 74.6999C798.8 82.1999 800.8 89.7999 802.8 97.2999C803.7 96.8999 804.6 96.4999 805.5 96.0999C802.7 89.5999 800 83.0999 797.2 76.4999C796.5 74.9999 793.9 76.0999 794.5 77.6999C798.5 88.4999 802.5 99.2999 806.3 110.2C806.9 112 809.7 111.3 809.2 109.4C807.7 104.1 806.6 98.6999 806.1 93.1999C805.1 93.2999 804.1 93.4999 803.2 93.5999C805 99.7999 806.8 106 808.6 112.2C809.1 114.1 811.9 113.3 811.5 111.4C809.9 104.4 808.8 97.2999 808.1 90.0999C807.1 90.1999 806.1 90.3999 805.2 90.4999C806.5 97.7999 807.7 105.1 809.5 112.3C809.9 113.9 812.6 113.6 812.4 111.9C811.6 102.9 810.1 93.9999 807.9 85.1999C807.4 83.2999 804.6 84.0999 805 85.9999C805.7 89.0999 805.7 92.0999 805.3 95.2999C806.2 94.9999 807.2 94.7999 808.1 94.4999C805.6 90.1999 804 85.7999 803.4 80.8999C803.2 79.3999 801.5 78.7999 800.6 80.0999C799.9 81.0999 799.3 82.0999 798.6 83.0999C799.5 83.0999 800.3 83.0999 801.2 83.0999C799.9 80.0999 799.4 77.2999 799.5 73.9999C798.5 73.9999 797.5 73.9999 796.5 73.9999C796.3 74.6999 796.1 75.3999 795.9 76.0999C796.7 76.2999 797.6 76.4999 798.4 76.7999C797.9 74.1999 797.9 72.1999 798.1 69.6999C797.1 69.7999 796.1 69.9999 795.2 70.0999C795 71.1999 794.9 72.2999 794.7 73.3999C795.6 73.3999 796.4 73.3999 797.3 73.3999C797.7 71.9999 798.2 70.5999 798.6 69.1999C797.9 68.8999 797.1 68.5999 796.4 68.2999C795.9 69.8999 795.4 71.4999 794.9 73.0999C795.7 73.5999 796.6 74.0999 797.4 74.5999C798.1 71.3999 799.5 69.0999 801.9 66.7999C801.1 66.5999 800.2 66.3999 799.4 66.0999C799.8 68.7999 799.5 70.9999 798.6 73.5999C799.6 73.6999 800.6 73.8999 801.5 73.9999C801.5 71.7999 801.8 69.8999 802.6 67.7999C801.6 67.6999 800.6 67.4999 799.7 67.3999C799.7 69.1999 799.8 70.9999 799.8 72.7999C799.8 74.3999 802.5 74.8999 802.7 73.1999C803 71.3999 803.3 69.5999 803.6 67.7999C802.6 67.7999 801.7 67.7999 800.7 67.7999C800.7 68.7999 800.6 69.7999 800.6 70.8999C799.8 72.6999 802.4 74.1999 803.2 72.3999C804.1 70.3999 804.3 69.1999 803.6 66.9999C803.2 65.6999 801 65.4999 800.7 66.9999C800.4 68.7999 800.1 70.5999 799.8 72.3999C800.8 72.4999 801.8 72.6999 802.7 72.7999C802.7 70.9999 802.6 69.1999 802.6 67.3999C802.6 65.6999 800.2 65.3999 799.7 66.9999C798.8 69.3999 798.5 71.4999 798.5 73.9999C798.5 75.6999 800.9 75.9999 801.4 74.3999C802.5 71.2999 802.7 68.5999 802.2 65.2999C802 64.0999 800.4 63.9999 799.7 64.5999C797 67.0999 795.3 70.0999 794.4 73.6999C794.1 75.0999 795.8 76.2999 796.9 75.1999C799 72.8999 799.7 70.5999 799.1 67.4999C798.9 66.5999 797.6 66.0999 796.9 66.5999C793.9 68.5999 793.1 71.5999 794.5 74.8999C795 75.9999 796.5 75.6999 797.1 74.8999C798.4 72.9999 798.6 71.3999 797.9 69.2999C797.3 67.5999 795.1 67.9999 795 69.6999C794.7 72.3999 794.9 74.8999 795.4 77.5999C795.6 78.6999 797.2 78.9999 797.9 78.2999C799.1 76.9999 799.6 75.9999 799.4 74.0999C799.2 72.1999 796.4 72.0999 796.4 74.0999C796.3 77.8999 797 81.1999 798.5 84.6999C799 85.7999 800.5 85.4999 801.1 84.6999C801.8 83.6999 802.4 82.6999 803.1 81.6999C802.2 81.3999 801.2 81.1999 800.3 80.8999C801 86.3999 802.6 91.2999 805.4 95.9999C806.2 97.3999 808 96.5999 808.2 95.1999C808.7 91.6999 808.5 88.5999 807.8 85.0999C806.8 85.3999 805.9 85.5999 804.9 85.8999C807.1 94.3999 808.5 103.1 809.3 111.8C810.3 111.7 811.3 111.5 812.2 111.4C810.5 104.2 809.2 96.8999 807.9 89.5999C807.6 87.8999 804.8 88.2999 805 89.9999C805.7 97.4999 806.8 104.8 808.5 112.1C809.5 111.8 810.4 111.6 811.4 111.3C809.6 105.1 807.8 98.8999 806 92.6999C805.5 91.0999 802.9 91.3999 803.1 93.0999C803.7 98.8999 804.7 104.5 806.3 110.1C807.3 109.8 808.2 109.6 809.2 109.3C805.3 98.3999 801.4 87.5999 797.4 76.7999C796.5 77.1999 795.6 77.5999 794.7 77.9999C797.5 84.4999 800.2 90.9999 803 97.5999C803.7 99.1999 806.2 97.9999 805.7 96.3999C803.7 88.8999 801.7 81.2999 799.7 73.7999C798.7 74.0999 797.8 74.2999 796.8 74.5999C799.4 81.1999 801.8 87.8999 804.1 94.5999C804.7 96.3999 807.4 95.6999 807 93.7999C805.3 85.6999 803.7 77.5999 802 69.3999C801 69.6999 800.1 69.8999 799.1 70.1999C801.7 76.3999 803.9 82.7999 805.6 89.2999C806 90.8999 808.7 90.5999 808.5 88.8999C807.6 79.2999 806.1 69.8999 804 60.4999C803.7 59.3999 802.3 59.0999 801.5 59.7999C798.7 62.3999 793.8 65.4999 791.9 68.8999C791 70.5999 791 71.4999 792.1 72.7999C792.8 73.5999 793.9 73.1999 794.5 72.4999C794.6 72.3999 794.6 72.2999 794.7 72.1999C795.1 71.6999 794.9 70.7999 794.5 70.3999C794.4 70.2999 794.4 70.2999 794.3 70.1999C793.2 69.0999 791.5 70.1999 791.8 71.6999C794.3 83.0999 798.3 93.9999 803.9 104.2C804.8 103.7 805.6 103.2 806.5 102.7C800.6 92.5999 796.6 81.6999 792.8 70.6999C792 68.9999 789.1 69.7999 789.8 71.5999Z" fill="#E8E8E8"/>
<path d="M771.9 7.10021C774.8 17.8002 776.9 28.6002 778.3 39.5002C778.4 40.6002 779.5 41.4002 780.6 40.8002C783.9 39.0002 787.2 37.7002 790.9 36.8002C791.8 36.6002 792.3 35.4002 791.8 34.6002C787.2 27.7002 782.9 20.6002 778.9 13.4002C778 11.7002 775.5 13.2002 776.3 14.9002C779 20.8002 781.1 26.9002 782.8 33.1002C783.7 32.7002 784.6 32.3002 785.5 31.9002C783.2 27.5002 781.6 23.0002 780.6 18.1002C779.7 18.5002 778.8 18.9002 777.9 19.3002C781.6 24.7002 783.6 30.6002 783.9 37.1002C784.8 36.7002 785.6 36.4002 786.5 36.0002C784.2 33.9002 782.9 31.6002 782.2 28.5002C781.5 29.1002 780.7 29.6002 780 30.2002C782.1 31.8002 782.8 33.6002 782.3 35.7002C783.2 35.4002 784.2 35.2002 785.1 34.9002C782.6 31.6002 780.6 28.1002 778.8 24.4002C778.1 25.1002 777.4 25.8002 776.7 26.5002C779.5 28.3002 783.2 46.2002 790.3 38.1002C792.9 35.1002 791.4 31.3002 789.7 28.2002C786.9 23.0002 783.4 18.2002 779.8 13.6002C778.7 12.2002 776.6 14.0002 777.4 15.4002C781.3 22.1002 784.2 29.1002 786.1 36.6002C787 36.2002 787.9 35.8002 788.8 35.4002C788.4 34.5002 788 33.7002 787.6 32.8002C786.9 33.5002 786.2 34.2002 785.5 34.9002C785.5 34.8002 785.5 34.8002 785.5 34.7002C784.9 35.2002 784.2 35.7002 783.6 36.1002C784.9 36.6002 786.3 37.1002 787.6 37.6002C789.4 38.3002 790.2 35.4002 788.4 34.7002C787.1 34.2002 785.7 33.7002 784.4 33.2002C783.5 32.8002 782.5 33.8002 782.5 34.6002C782.4 42.5002 793.6 36.2002 787 32.2002C785.6 31.4002 784.3 33.0002 784.9 34.3002C785.3 35.2002 785.7 36.0002 786.1 36.9002C786.8 38.5002 789.2 37.3002 788.8 35.7002C786.8 27.9002 783.9 20.7002 779.8 13.8002C779 14.4002 778.2 15.0002 777.4 15.6002C779.6 18.5002 781.7 21.4002 783.7 24.4002C784.5 25.6002 785.3 26.8002 786 28.1002C786.6 29.0002 787.1 30.0002 787.5 31.0002C789.1 33.1002 787.9 34.3002 783.8 34.5002C782.4 33.4002 782.2 29.7002 781.6 28.1002C780.8 26.1002 779.8 24.8002 778 23.7002C776.6 22.9002 775.4 24.5002 775.9 25.8002C777.7 29.6002 779.7 33.0002 782.2 36.3002C783.1 37.5002 784.8 37.1002 785 35.5002C785.4 32.0002 784.1 29.4002 781.2 27.4002C780.1 26.6002 778.7 27.9002 779 29.1002C779.8 32.6002 781.5 35.5002 784.1 37.9002C785 38.7002 786.7 38.2002 786.7 36.8002C786.4 29.7002 784.2 23.3002 780.3 17.5002C779.3 16.1002 777.2 17.0002 777.6 18.7002C778.7 23.8002 780.4 28.6002 782.8 33.2002C783.6 34.7002 786 33.7002 785.5 32.0002C783.8 25.5002 781.5 19.2002 778.7 13.1002C777.8 13.6002 777 14.1002 776.1 14.6002C780.1 21.9002 784.4 28.9002 789 35.8002C789.3 35.1002 789.6 34.3002 789.9 33.6002C786 34.5002 782.4 35.9002 778.9 37.9002C779.7 38.3002 780.4 38.8002 781.2 39.2002C779.8 28.0002 777.7 16.9002 774.7 6.00021C774.3 4.40021 771.4 5.20021 771.9 7.10021Z" fill="#E8E8E8"/>
<path d="M772 58.1001C769.7 52.4001 775.2 47.1001 779.6 44.5001C783.9 41.9001 788.7 41.0001 793.7 41.3001C795.1 41.4001 795.5 39.7001 794.8 38.7001C793.9 37.6001 793.1 36.5001 792.2 35.4001C791.4 34.4001 789.5 35.2001 789.6 36.5001C789.3 34.5001 786.5 35.7001 785.2 35.7001C780.4 35.6001 782.3 34.7001 782.1 32.0001C781.7 28.7001 779.8 25.3001 779 22.1001C777.8 17.4001 777.2 12.7001 776.8 7.9001C776.7 6.0001 773.7 6.0001 773.8 7.9001C774.2 13.6001 775 19.2001 776.5 24.7001C777.2 27.1001 778.9 30.1001 778.6 32.6001C778.5 33.7001 777.7 34.5001 777.7 35.6001C777.8 37.9001 780.1 39.3001 782.2 39.3001C784.5 39.3001 786.8 38.8001 789.2 38.9001C790.5 39.0001 790.7 39.3001 791.9 38.5001C792.3 38.2001 792.7 37.7001 792.6 37.2001C792.6 37.0001 792.5 36.7001 792.5 36.5001C791.6 36.9001 790.8 37.2001 789.9 37.6001C790.8 38.7001 791.6 39.8001 792.5 40.9001C792.9 40.0001 793.2 39.2001 793.6 38.3001C783.8 37.7001 763.7 45.8001 769 58.9001C769.8 60.7001 772.7 59.9001 772 58.1001Z" fill="#E8E8E8"/>
<path d="M777.7 41.3002C773.3 44.9002 769.9 50.0002 769.2 55.8002C768.6 60.9002 771.7 65.4002 775.5 68.6002C785.7 77.3002 796.6 67.6002 803 59.4002C804.2 57.9002 802.1 55.8002 800.9 57.3002C795.7 64.0002 786.6 73.8002 777.7 66.5002C773.8 63.3002 771.4 58.9002 772.7 53.8002C773.8 49.6002 776.5 46.1002 779.9 43.4002C781.4 42.2002 779.2 40.1002 777.7 41.3002Z" fill="#E8E8E8"/>
<path d="M807.6 78.3002C807.6 78.2002 807.6 78.1002 807.5 78.0002C807.3 78.6002 807 79.1002 806.8 79.7002C806.9 79.6002 807 79.6002 807.1 79.5002C806.4 79.3002 805.7 79.1002 805 79.0002C806.4 81.2002 806.4 85.2002 806.8 87.7002C807.3 91.0002 807.8 94.4002 808.2 97.7002C808.8 103.4 809.1 109.1 809.3 114.9C809.3 116.8 812.3 116.8 812.3 114.9C812.1 107.9 811.7 100.9 810.8 93.9002C810.5 91.2002 810.1 88.6002 809.6 85.9002C809.2 83.2002 809.1 79.7002 807.6 77.4002C807.2 76.7002 806.3 76.5002 805.5 76.9002C805.4 77.0002 805.3 77.0002 805.2 77.1002C804.6 77.4002 804.3 78.2002 804.5 78.8002C804.5 78.9002 804.5 79.0002 804.6 79.1002C805.2 81.0002 808.1 80.2002 807.6 78.3002Z" fill="#E8E8E8"/>
<path d="M772.9 7.6999C776.4 12.0999 779 16.9999 780.7 22.3999C781.3 24.1999 784.2 23.3999 783.6 21.5999C781.7 15.6999 778.9 10.3999 775 5.5999C773.9 3.9999 771.7 6.1999 772.9 7.6999Z" fill="#E8E8E8"/>
<path d="M692.2 23.0999C705.9 26.9999 719.7 30.3999 733.7 33.1999C735.6 33.5999 736.4 30.6999 734.5 30.2999C720.5 27.4999 706.7 24.0999 693 20.1999C691.2 19.5999 690.4 22.4999 692.2 23.0999Z" fill="#E8E8E8"/>
<path d="M657.2 69.8C683.4 67.7 709.3 62.8 734.6 55.2C736.4 54.6 735.7 51.7 733.8 52.3C708.8 59.8 683.2 64.7 657.2 66.7C655.3 66.9 655.3 69.9 657.2 69.8Z" fill="#E8E8E8"/>
<path d="M752.4 71.3001C746.4 75.0001 740.8 79.2001 735.5 83.8001C734 85.1001 736.2 87.2001 737.6 85.9001C742.7 81.5001 748.2 77.5001 753.9 73.9001C755.6 72.9001 754.1 70.3001 752.4 71.3001Z" fill="#E8E8E8"/>
<path d="M754.3 103.4C732.9 121.9 711.4 140.4 690 158.9C688.5 160.2 690.7 162.3 692.1 161C713.5 142.5 735 124 756.4 105.5C757.9 104.3 755.8 102.1 754.3 103.4Z" fill="#E8E8E8"/>
<path d="M762.4 126.2C755.9 138.6 749.3 151.1 742.8 163.5C741.9 165.2 744.5 166.7 745.4 165C751.9 152.6 758.5 140.1 765 127.7C765.9 126 763.3 124.5 762.4 126.2Z" fill="#E8E8E8"/>
<path d="M780 133.2C776.7 152.7 774.7 172.4 773.9 192.2C773.8 194.1 776.8 194.1 776.9 192.2C777.7 172.7 779.7 153.2 782.9 134C783.2 132.1 780.3 131.3 780 133.2Z" fill="#E8E8E8"/>
<path d="M869.6 37.2999C895.2 33.8999 918.3 50.5999 930.9 71.7999C945.8 96.7999 946.3 127.7 945.6 156C944.1 220.1 941.4 284.1 938.8 348.1C933.6 477 927.1 605.9 919.5 734.8C915.2 807.2 910.5 879.5 905.4 951.9C905.1 955.8 911.1 955.7 911.4 951.9C920.7 819.8 928.7 687.7 935.4 555.5C942.1 423.6 948 291.6 951.6 159.6C952.4 128.7 952.2 94.7999 935.4 67.5999C921.7 45.3999 896.8 27.7999 869.7 31.3999C865.8 31.7999 865.8 37.7999 869.6 37.2999Z" fill="#E8E8E8"/>
<path d="M864.2 35.9999C871.4 36.1999 878.6 36.2999 885.6 37.8999C892.9 39.5999 898.5 43.6999 905 46.9999C906.7 47.8999 908.2 45.2999 906.5 44.3999C899.7 40.9999 893.9 36.7999 886.4 34.9999C879.1 33.2999 871.6 33.0999 864.2 32.8999C862.3 32.8999 862.3 35.8999 864.2 35.9999Z" fill="#E8E8E8"/>
<path d="M864.2 37.9998C885.6 40.0998 905.9 47.8998 923.3 60.5998C924.9 61.6998 926.4 59.0998 924.8 57.9998C906.9 45.0998 886.1 37.1998 864.2 34.9998C862.3 34.7998 862.3 37.7998 864.2 37.9998Z" fill="#E8E8E8"/>
<path d="M859.9 30.9998C869.3 32.7998 878.5 35.1998 887.5 37.9998C889.3 38.5998 890.1 35.6998 888.3 35.0998C879.2 32.1998 870 29.8998 860.7 28.0998C858.8 27.6998 858 30.5998 859.9 30.9998Z" fill="#E8E8E8"/>
<path d="M862.1 30.7C873.8 32 885.2 34.5 896.3 38.1C898.1 38.7 898.9 35.8 897.1 35.2C885.7 31.5 874 29 862.1 27.7C860.2 27.5 860.2 30.5 862.1 30.7Z" fill="#E8E8E8"/>
<path d="M825.3 13.4002C840.7 18.8002 855.4 25.6002 869.4 33.8002C871.1 34.8002 872.6 32.2002 870.9 31.2002C856.6 22.8002 841.6 15.9002 826 10.5002C824.3 9.9002 823.5 12.8002 825.3 13.4002Z" fill="#E8E8E8"/>
<path d="M821.1 12.4002C836.8 18.2002 851.9 25.2002 866.4 33.5002C868.1 34.5002 869.6 31.9002 867.9 30.9002C853.1 22.5002 837.8 15.4002 821.8 9.5002C820.1 8.9002 819.3 11.8002 821.1 12.4002Z" fill="#E8E8E8"/>
<path d="M844.3 86.8998C853.4 70.8998 861.3 54.2998 868 37.0998C868.7 35.2998 865.8 34.4998 865.1 36.2998C858.5 53.1998 850.7 69.5998 841.7 85.3998C840.8 86.9998 843.4 88.4998 844.3 86.8998Z" fill="#E8E8E8"/>
<path d="M863.899 35.9002C862.099 38.9002 860.799 42.0002 859.899 45.4002C859.399 47.3002 862.299 48.1002 862.799 46.2002C863.599 43.1002 864.799 40.2002 866.499 37.4002C867.499 35.7002 864.899 34.2002 863.899 35.9002Z" fill="#E8E8E8"/>
<path d="M87.5 550.3C87.5 555.1 87.5 559.9 87.5 564.7C87.5 566.6 90.5 566.6 90.5 564.7C90.5 559.9 90.5 555.1 90.5 550.3C90.5 548.4 87.5 548.4 87.5 550.3Z" fill="#E8E8E8"/>
<path d="M89.0002 566.8C159.1 566.8 229.2 566.8 299.3 566.8C301.2 566.8 301.2 563.8 299.3 563.8C229.2 563.8 159.1 563.8 89.0002 563.8C87.1002 563.8 87.1002 566.8 89.0002 566.8Z" fill="#E8E8E8"/>
<path d="M90.5998 551.3C159.8 551.3 229.1 551.3 298.3 551.3C300.2 551.3 300.2 548.3 298.3 548.3C229.1 548.3 159.8 548.3 90.5998 548.3C88.6998 548.3 88.6998 551.3 90.5998 551.3Z" fill="#E8E8E8"/>
<path d="M296.7 550.9C296.9 555.7 296.8 560.5 296.2 565.3C296 567.2 299 567.2 299.2 565.3C299.8 560.5 300 555.7 299.7 550.9C299.6 548.9 296.6 548.9 296.7 550.9Z" fill="#E8E8E8"/>
<path d="M208.1 483.5C202.4 505.1 205.6 527.4 210.8 548.7C211.3 550.6 214.1 549.8 213.7 547.9C208.6 527 205.4 505.4 211 484.3C211.5 482.4 208.6 481.6 208.1 483.5Z" fill="#E8E8E8"/>
<path d="M255.8 487.5C256.5 492 257.2 496.4 257.9 500.9C258.2 502.8 261.1 502 260.8 500.1C260.1 495.6 259.4 491.2 258.7 486.7C258.4 484.8 255.5 485.6 255.8 487.5Z" fill="#E8E8E8"/>
<path d="M259.6 501.4C267.7 495.3 272.3 507.2 272.4 513.4C272.5 521.2 268.8 528.2 260.3 528.8C258.4 528.9 258.4 531.9 260.3 531.8C271.9 531.1 276.3 520.9 275.2 510.5C274.4 502.5 266.7 492.4 258.1 498.9C256.5 500 258 502.6 259.6 501.4Z" fill="#E8E8E8"/>
<path d="M259 529.8C258.4 535.8 257.3 541.6 255.9 547.5C255.4 549.4 258.3 550.2 258.8 548.3C260.3 542.2 261.4 536.1 262.1 529.8C262.2 527.8 259.2 527.9 259 529.8Z" fill="#E8E8E8"/>
<path d="M261.7 506.1C264.9 503.5 266.2 511.7 266.3 512.8C266.4 514.1 266.2 515.5 265.9 516.8C265.1 519.9 263.4 522.4 261 524.4C259.5 525.6 261.6 527.7 263.1 526.5C267.7 522.7 270.1 516.6 269.1 510.7C268.4 506.3 264.5 499.9 259.6 504C258.1 505.2 260.2 507.3 261.7 506.1Z" fill="#E8E8E8"/>
<path d="M259.2 503.6C258.8 510.6 258.9 517.6 259.4 524.7C259.5 526.6 262.5 526.6 262.4 524.7C261.9 517.7 261.8 510.7 262.2 503.6C262.3 501.6 259.3 501.6 259.2 503.6Z" fill="#E8E8E8"/>
<path d="M213.1 486.9C225.2 490.8 237.8 491.8 250.4 489.9C252.3 489.6 251.5 486.7 249.6 487C237.5 488.8 225.5 487.8 213.9 484C212.1 483.4 211.3 486.3 213.1 486.9Z" fill="#E8E8E8"/>
<path d="M220 479.3C214.1 475.6 221 467.5 222 462.8C223 458.1 220.3 455.8 218.5 451.8C215.9 446 221.9 441.7 222.8 436.1C223.6 431.2 219.6 427.1 225 423.1C226.5 422 225.1 419.4 223.5 420.5C220.2 422.9 218.2 426.6 218.9 430.8C219.4 433.9 220.2 435.5 218.7 438.7C218 440.3 217 441.7 216.2 443.3C215.2 445.5 214.3 447.8 214.6 450.3C214.8 452.8 216.1 453.9 217.3 455.9C220.8 461.8 217.6 464.8 215.6 470.4C214.1 474.6 214.5 479.2 218.5 481.7C220.1 482.9 221.6 480.3 220 479.3Z" fill="#E8E8E8"/>
<path d="M237.8 407.6C236.3 411.5 234.4 415.9 234.1 420.1C233.8 423.9 236.6 426 237.5 429.4C238.6 433.5 234.7 436.9 234.3 440.9C233.8 446.1 238.4 449.5 233.9 454.5C232.6 455.9 234.7 458.1 236 456.6C238.3 454.1 239.5 451.1 239.1 447.7C238.8 445.2 237 443.1 237.4 440.4C237.7 438.3 239.3 436.4 240 434.4C241.2 431.2 240.7 428.7 239.1 425.8C235.9 419.8 238.5 414.3 240.7 408.4C241.4 406.6 238.5 405.8 237.8 407.6Z" fill="#E8E8E8"/>
<path d="M252.6 437.4C247.9 442.3 245.7 449 247 455.8C247.4 458 248.5 460.2 248.6 462.5C248.8 465.4 247 466.8 246.2 469.3C245.1 472.5 249 477.1 246.6 479.6C245.3 481 247.4 483.1 248.7 481.7C250.2 480.1 250.6 478.3 250.2 476.1C249.8 473.7 248.4 472 249.4 469.5C250 468 251.2 467.2 251.6 465.5C252.4 461.7 250.4 458.1 249.8 454.4C248.9 448.9 250.9 443.5 254.7 439.5C256.1 438.1 253.9 436 252.6 437.4Z" fill="#E8E8E8"/>
<path d="M105.6 548.3C105.3 544.4 105.2 540.6 105.3 536.7C104.8 537.2 104.3 537.7 103.8 538.2C119.9 536.6 136.1 535.8 152.3 535.6C160.1 535.5 167.9 535.6 175.6 535.9C177.5 536 179.5 536 181.4 536.1C182.7 536.2 186 535.7 187.2 536.4C190.1 538.1 188.9 547.3 189 550.2C189.1 552.1 192.1 552.1 192 550.2C191.9 546.1 192.6 540.7 191.5 536.8C191 535.1 190.4 534.2 188.6 533.5C185 532.2 179.3 532.9 175.5 532.8C171 532.6 166.4 532.5 161.9 532.5C142.5 532.3 123 533.2 103.7 535.1C102.9 535.2 102.2 535.7 102.2 536.6C102 540.5 102.1 544.3 102.5 548.2C102.7 550.2 105.7 550.2 105.6 548.3Z" fill="#E8E8E8"/>
<path d="M130.6 533.9C130.6 532.1 129.9 528.3 130.7 526.7C132 523.8 137.4 524.6 140 524.5C145.7 524.3 151.3 524 157 523.8C162.3 523.6 167.6 523.4 173 523.2C176.4 523.1 180.2 522.1 181.6 525.9C182.4 528.1 182.1 531.5 182.3 533.8C182.5 535.7 185.5 535.7 185.3 533.8C184.9 529.8 186.1 521.4 180.9 520C178 519.2 174 520.1 170.9 520.2C166.2 520.4 161.6 520.6 156.9 520.8C148.7 521.1 139.7 520.4 131.7 521.9C126 522.9 127.6 529.6 127.5 533.9C127.6 535.8 130.6 535.8 130.6 533.9Z" fill="#E8E8E8"/>
<path d="M163.2 535.8C164.9 540.4 165.5 545 164.9 549.8C164.7 551.7 167.7 551.7 167.9 549.8C168.6 544.7 168 539.8 166.1 535C165.4 533.2 162.5 534 163.2 535.8Z" fill="#E8E8E8"/>
<path d="M163.4 522.8C165.2 526.9 165.6 531.2 164.8 535.6C164.4 537.5 167.3 538.3 167.7 536.4C168.7 531.2 168.1 526.2 166 521.3C165.2 519.5 162.7 521 163.4 522.8Z" fill="#E8E8E8"/>
<path d="M174.7 521.9C175.4 525.5 176.1 529.2 176.5 532.8C176.7 534.7 179.7 534.7 179.5 532.8C179 528.9 178.4 524.9 177.6 521.1C177.2 519.2 174.3 520 174.7 521.9Z" fill="#E8E8E8"/>
<path d="M179.8 536.3C181.3 540.3 181.6 544.3 180.7 548.4C180.3 550.3 183.1 551.1 183.6 549.2C184.7 544.6 184.4 539.9 182.7 535.5C182 533.7 179.1 534.5 179.8 536.3Z" fill="#E8E8E8"/>
<path d="M71.4004 278.6C71.4004 282.7 71.6004 286.8 71.9004 290.8C72.1004 292.7 75.1004 292.7 74.9004 290.8C74.5004 286.7 74.3004 282.7 74.4004 278.6C74.4004 276.7 71.4004 276.7 71.4004 278.6Z" fill="#E8E8E8"/>
<path d="M74.2004 294.1C146.3 294.1 218.3 294.1 290.4 294.1C292.3 294.1 292.3 291.1 290.4 291.1C218.3 291.1 146.3 291.1 74.2004 291.1C72.3004 291.1 72.3004 294.1 74.2004 294.1Z" fill="#E8E8E8"/>
<path d="M73.7998 279.7C145.9 279.7 217.9 279.7 290 279.7C291.9 279.7 291.9 276.7 290 276.7C217.9 276.7 145.9 276.7 73.7998 276.7C71.7998 276.7 71.7998 279.7 73.7998 279.7Z" fill="#E8E8E8"/>
<path d="M289.4 278.6C289.4 283.3 289.4 287.9 289.4 292.6C289.4 294.5 292.4 294.5 292.4 292.6C292.4 287.9 292.4 283.3 292.4 278.6C292.4 276.7 289.4 276.7 289.4 278.6Z" fill="#E8E8E8"/>
<path d="M82.4001 235.4C85.7001 249.4 89.0001 263.4 92.5001 277.3C93.0001 279.2 95.9001 278.4 95.4001 276.5C91.9001 262.6 88.6001 248.6 85.3001 234.6C84.9001 232.7 82.0001 233.5 82.4001 235.4Z" fill="#E8E8E8"/>
<path d="M83.8004 235.2C91.2004 235 98.5004 234.7 105.8 234.2C109.3 234 112.8 233.7 116.3 233.4C120.3 233 124.7 232.1 128.5 233.9C130.2 234.7 131.8 232.1 130 231.3C123.8 228.3 116.1 230.4 109.5 230.9C100.9 231.5 92.3004 232 83.6004 232.2C81.8004 232.2 81.8004 235.2 83.8004 235.2Z" fill="#E8E8E8"/>
<path d="M127.5 232.8C126.3 247.6 123.7 262.2 119.9 276.6C119.4 278.5 122.3 279.3 122.8 277.4C126.7 262.8 129.3 247.9 130.5 232.8C130.6 230.9 127.6 230.9 127.5 232.8Z" fill="#E8E8E8"/>
<path d="M92.9004 231.6C87.1004 224.7 82.5004 217.6 79.6004 209C77.1004 201.7 75.7004 194.1 74.3004 186.5C73.7004 187.1 73.1004 187.7 72.5004 188.3C90.9004 194.6 100.1 212.5 103.7 230.5C104.1 232.4 107 231.6 106.6 229.7C102.8 210.6 92.7004 192.1 73.3004 185.5C72.1004 185.1 71.3004 186.3 71.5004 187.3C73.1004 196 74.7004 204.7 77.9004 212.9C80.9004 220.6 85.5004 227.3 90.8004 233.6C92.0004 235.2 94.1004 233.1 92.9004 231.6Z" fill="#E8E8E8"/>
<path d="M101.8 212.6C99.2003 203.3 107.9 196.5 112.9 189.9C117.7 183.6 121.6 176.7 124.8 169.4C123.9 169.3 123 169.2 122.1 169C127 189.1 131.7 213.2 116.1 230C114.8 231.4 116.9 233.5 118.2 232.1C134.5 214.4 130.1 189.4 124.9 168.2C124.6 167 122.7 166.6 122.2 167.8C118.2 177.2 112.8 185.6 106.2 193.4C101.3 199.1 96.8003 205.5 99.0003 213.4C99.4003 215.2 102.3 214.5 101.8 212.6Z" fill="#E8E8E8"/>
<path d="M172.2 277.3C172.2 271.6 172.2 265.9 172.2 260.3C172.2 258.4 169.2 258.4 169.2 260.3C169.2 266 169.2 271.7 169.2 277.3C169.2 279.3 172.2 279.3 172.2 277.3Z" fill="#E8E8E8"/>
<path d="M170.7 261.4C207 261.4 243.2 261.4 279.5 261.4C281.4 261.4 281.4 258.4 279.5 258.4C243.2 258.4 207 258.4 170.7 258.4C168.8 258.4 168.8 261.4 170.7 261.4Z" fill="#E8E8E8"/>
<path d="M278.4 261.2C278.4 266.7 278.4 272.3 278.4 277.8C278.4 279.7 281.4 279.7 281.4 277.8C281.4 272.3 281.4 266.7 281.4 261.2C281.4 259.2 278.4 259.2 278.4 261.2Z" fill="#E8E8E8"/>
<path d="M192.3 259.4C192.3 256.1 192.3 252.7 192.3 249.4C192.3 247.5 189.3 247.5 189.3 249.4C189.3 252.7 189.3 256.1 189.3 259.4C189.3 261.4 192.3 261.4 192.3 259.4Z" fill="#E8E8E8"/>
<path d="M190.8 249.6C219.3 249.6 247.9 249.6 276.4 249.6C278.3 249.6 278.3 246.6 276.4 246.6C247.9 246.6 219.3 246.6 190.8 246.6C188.9 246.6 188.9 249.6 190.8 249.6Z" fill="#E8E8E8"/>
<path d="M275.4 248.1C275.4 251.9 275.4 255.7 275.4 259.5C275.4 261.4 278.4 261.4 278.4 259.5C278.4 255.7 278.4 251.9 278.4 248.1C278.4 246.1 275.4 246.1 275.4 248.1Z" fill="#E8E8E8"/>
<path d="M215.5 246.8C215.5 241.6 215.5 236.3 215.5 231.1C215.5 229.2 212.5 229.2 212.5 231.1C212.5 236.3 212.5 241.6 212.5 246.8C212.5 248.7 215.5 248.7 215.5 246.8Z" fill="#E8E8E8"/>
<path d="M215.3 231.7C234.4 231.7 253.4 231.7 272.5 231.7C274.4 231.7 274.4 228.7 272.5 228.7C253.4 228.7 234.4 228.7 215.3 228.7C213.4 228.7 213.4 231.7 215.3 231.7Z" fill="#E8E8E8"/>
<path d="M271.9 229.7C271.9 235.4 271.9 241.1 271.9 246.7C271.9 248.6 274.9 248.6 274.9 246.7C274.9 241 274.9 235.3 274.9 229.7C274.9 227.8 271.9 227.8 271.9 229.7Z" fill="#E8E8E8"/>
<path d="M251.9 231C253.3 236.4 253.6 241.7 253.1 247.2C252.9 249.1 255.9 249.1 256.1 247.2C256.7 241.4 256.3 235.8 254.8 230.2C254.3 228.3 251.4 229.1 251.9 231Z" fill="#E8E8E8"/>
<path d="M260.9 231.9C261.4 236.3 261.6 240.6 261.4 245C261.3 246.9 264.3 246.9 264.4 245C264.6 240.6 264.5 236.3 263.9 231.9C263.7 230 260.7 230 260.9 231.9Z" fill="#E8E8E8"/>
<path d="M248.7 248.9C249.2 252.2 249.1 255.6 248.7 259C248.5 260.9 251.5 260.9 251.7 259C252.2 255.4 252.1 251.8 251.6 248.1C251.3 246.2 248.4 247 248.7 248.9Z" fill="#E8E8E8"/>
<path d="M256.3 248.4C256.9 251.1 256.7 253.7 255.8 256.4C255.2 258.2 258.1 259 258.7 257.2C259.8 254.1 259.9 250.9 259.2 247.6C258.8 245.8 255.9 246.6 256.3 248.4Z" fill="#E8E8E8"/>
<path d="M233.7 259.9C234.3 265.9 234.4 271.8 234 277.8C233.9 279.7 236.9 279.7 237 277.8C237.4 271.8 237.3 265.9 236.7 259.9C236.5 258 233.5 258 233.7 259.9Z" fill="#E8E8E8"/>
<path d="M264.5 260.3C265.2 265.9 265.2 271.4 264.3 277C264 278.9 266.9 279.7 267.2 277.8C268.1 272 268.3 266.2 267.5 260.3C267.3 258.4 264.3 258.4 264.5 260.3Z" fill="#E8E8E8"/>
<path d="M372.8 95.3999C372.8 112.8 372.8 130.2 372.8 147.6C372.8 149.5 375.8 149.5 375.8 147.6C375.8 130.2 375.8 112.8 375.8 95.3999C375.8 93.3999 372.8 93.3999 372.8 95.3999Z" fill="#E8E8E8"/>
<path d="M330.8 149.8C358.3 149.8 385.9 149.8 413.4 149.8C415.3 149.8 415.3 146.8 413.4 146.8C385.9 146.8 358.3 146.8 330.8 146.8C328.9 146.8 328.9 149.8 330.8 149.8Z" fill="#E8E8E8"/>
<path d="M398.9 150.4C398.9 167.5 398.9 184.7 398.9 201.8C398.9 203.7 401.9 203.7 401.9 201.8C401.9 184.7 401.9 167.5 401.9 150.4C401.9 148.5 398.9 148.5 398.9 150.4Z" fill="#E8E8E8"/>
<path d="M843 936.6C840.4 940.9 844.1 945.9 852.6 964.7C865.6 993.4 865 1000 862.9 1004.4C859.4 1011.6 851.9 1012.5 852.6 1016C853.6 1021.1 870.1 1025 875.9 1018.7C878.5 1015.9 878.1 1012 877.3 1004.3C873.7 972.4 873 970.1 871.8 960.4C869.7 943.2 870.8 938.8 866.3 935C859.6 929.7 846.6 930.8 843 936.6Z" fill="#161616" stroke="#161616" stroke-width="3"/>
<path d="M998.6 932.2C1006.1 926.9 1019.2 932.5 1026 939.1C1031.7 944.5 1030.4 948.1 1037 952.8C1038.5 953.9 1045.4 958.8 1054.1 958.3C1060.8 957.9 1062.1 954.6 1067.1 955.6C1070.6 956.2 1072.1 958.2 1078.8 964.5C1089.3 974.5 1093.2 976.8 1092.5 978.2C1091.8 979.5 1088.5 978.8 1074 976.8C1063.4 975.3 1057.9 974.6 1054.1 974.4C1045.4 974 1045 975.1 1032.2 975.4C1019 975.8 1012.3 975.8 1007.5 973.3C996.8 967.7 994 955.3 993.8 954.1C993.5 952.5 990.6 937.8 998.6 932.2Z" fill="#161616" stroke="#161616" stroke-width="3"/>
<path d="M853.3 894.1C859.8 894.3 862.6 901.9 868.4 908.5C883.5 925.9 909.8 926.5 931.4 927C972.2 927.9 983.2 912.4 1002.7 922.9C1013.4 928.7 1023.5 940.6 1023.3 953.7C1023 970.8 1005.1 982.9 992.5 987.3C981.3 991.2 975.2 988.8 944.5 983.2C895.1 974.1 885.3 975.5 866.4 964.7C855.6 958.5 845.9 950.6 839.7 938.7C837.1 933.7 833 925.4 834.9 915.4C836.8 904.9 845.2 893.8 853.3 894.1Z" fill="#161616" stroke="#161616" stroke-width="3"/>
<path d="M997.2 923.6C999.3 920.7 1007.6 928 1016.4 924.3C1023.9 921.1 1027.3 911.8 1029.4 905.8C1033.3 895.1 1030.7 891.3 1034.9 887.3C1038.9 883.4 1042.4 885.9 1054.1 882.5C1062 880.2 1068.4 878.4 1071.9 872.9C1074.7 868.5 1072.7 866.3 1074.6 855.1C1075.2 851.7 1077.5 838.1 1080.8 838C1083.2 837.9 1086.1 845.1 1086.3 851.7C1086.4 854.4 1086 856.3 1082.2 868.8C1079.8 876.6 1078.6 880.5 1078.1 881.1C1073.2 887.2 1066.7 884.2 1054.1 890C1048 892.8 1042.1 895.5 1039 901.6C1036.2 907.2 1038.6 909.7 1035.6 918C1032.8 925.6 1028.3 930.1 1027.4 931C1024.1 934.3 1017.4 940.8 1009.6 939.2C1000.8 937.6 995.1 926.5 997.2 923.6Z" fill="#161616" stroke="#161616" stroke-width="3"/>
<path d="M973.9 970.9C972.7 973.3 969.3 980.2 970.5 988.7C971.7 997.4 977.1 1004.9 980.8 1009.9C985.9 1017 988.9 1018.5 988.3 1021.5C987.2 1028.1 972.4 1028.6 972.5 1031.8C972.7 1035 987.7 1036.6 999.2 1035.9C1007.8 1035.4 1009.8 1033.9 1010.9 1032.5C1013.3 1029.1 1010.6 1025.1 1009.5 1016.1C1008.7 1009.7 1009.3 1005.2 1010.2 997.6C1011.7 985.1 1014.1 984.3 1015 975C1015.7 967.6 1016.9 955.3 1010.9 951C1002.7 945.2 981.8 955.3 973.9 970.9Z" fill="#161616" stroke="#161616" stroke-width="3"/>
<path d="M770.4 907.8C772 915.9 780.8 921 793.7 926.3C807.4 932 846.2 948 853.3 937.3C855.1 934.6 854.5 930.8 853.3 928.4C850.3 922.7 842.1 923.3 827.9 920.9C815.5 918.8 804 916.9 792.3 910.6C781.5 904.9 775.1 898 771.7 900.3C769.3 902 770.3 907.3 770.4 907.8Z" fill="#161616" stroke="#161616" stroke-width="3"/>
<path d="M754.8 872.5C757.9 877.7 761.7 882.4 766.2 886.6C767.6 887.9 769.7 885.8 768.3 884.5C764 880.5 760.4 876 757.4 871C756.4 869.3 753.8 870.8 754.8 872.5Z" fill="#161616"/>
<path d="M741.9 880C745 883.8 749 886.5 753.5 888.1C755.3 888.8 756.1 885.9 754.3 885.2C750.2 883.7 746.7 881.2 744 877.9C742.8 876.4 740.7 878.5 741.9 880Z" fill="#161616"/>
<path d="M742.4 899.7C745.2 900 748 900.2 750.9 900.5C752.8 900.7 752.8 897.7 750.9 897.5C748.1 897.2 745.3 897 742.4 896.7C740.5 896.5 740.5 899.5 742.4 899.7Z" fill="#161616"/>
<path d="M824.5 879.7C821 881.1 815.5 883.7 810.1 888.6C805.5 892.8 801.1 896.8 800.5 902.3C799.4 912.3 811.6 921.8 821.1 925.6C822.8 926.3 842.9 933.9 854 922.2C861.5 914.2 859.8 902.8 859.5 901C857.2 886.1 843.8 879.1 842.4 878.4C839 873.8 835.5 869.3 832.1 864.7C829.6 869.7 827.1 874.7 824.5 879.7Z" fill="#161616" stroke="#161616" stroke-width="3"/>
<path d="M815.2 893.2C816.7 897.5 820.7 900.4 825.3 900.3C827.2 900.2 827.2 897.2 825.3 897.3C822.1 897.4 819.1 895.4 818.1 892.4C817.4 890.6 814.5 891.4 815.2 893.2Z" fill="white"/>
<path d="M800.6 900.3C801.5 900.3 801.9 900.6 802 901.3C801.7 901.6 801.5 902 801.2 902.3C800.6 902.5 800.5 902.2 800.3 902C800.2 901.9 800.3 901.8 800.2 901.9C800.1 902 800.1 902.3 800 902.5C800.6 902.2 801.2 901.8 801.8 901.5C801.9 901.6 801.9 901.6 801.8 901.5C801.9 901.5 801.9 901.6 801.9 901.6C802 901.7 801.9 901.7 801.9 901.5C802 901.6 802 901.6 801.9 901.5C801.8 900.7 800.8 900.3 800.1 900.5C799.3 900.7 798.9 901.5 799.1 902.3C799.3 903.3 800.1 904.1 801.1 904.4C801.9 904.7 802.6 904.1 802.9 903.4C803.3 902.5 803.4 901.5 802.9 900.7C802.4 899.8 801.3 899.3 800.3 899.6C799.3 899.9 798.8 901 799 902C799.3 903 800.3 903.7 801.3 903.4C802.1 903.2 802.6 902.4 802.3 901.6C802.2 900.6 801.4 900.1 800.6 900.3Z" fill="white"/>
<path d="M800 902.9C801.5 908 807.5 910.5 812.1 908.1C813.8 907.2 812.3 904.6 810.6 905.5C807.6 907 803.8 905.2 802.9 902.1C802.4 900.2 799.5 901 800 902.9Z" fill="white"/>
<path d="M125.9 818.5C128.1 818.9 131.3 819.5 135.3 820C154.4 822.8 168 822.7 184.8 822.9C194.9 823 209.8 823.3 228.5 824C248.4 822.6 268.4 821.2 288.3 819.7C260.8 816.9 233.3 814 205.8 811.2C179.1 813.6 152.5 816 125.9 818.5Z" fill="#5222D0"/>
<path d="M184.7 880.6C190.4 881.8 196.1 883 201.8 884.2C221.6 883 243.3 880 266.2 874C270.6 872.9 274.9 871.7 279 870.4C247.6 873.8 216.2 877.2 184.7 880.6Z" fill="#5222D0"/>
<path d="M127.2 959.5C127.3 967.9 127.4 976.4 127.5 984.8C173.7 990.7 220 996.6 266.2 1002.5C266.2 994.1 266.2 985.6 266.2 977.2C294.5 964.6 322.7 952 351 939.4C343.1 938.2 335.2 937 327.3 935.8C326.4 937.2 325.5 938.6 324.7 940.1C290.4 950.7 256.1 961.4 221.8 972C190.3 967.8 158.7 963.6 127.2 959.5Z" fill="#5222D0"/>
<path d="M75.7998 845.2C110.4 849.4 145.1 853.6 179.7 857.8C218.3 855.1 256.9 852.3 295.5 849.6C287.1 846.9 278.7 844.3 270.3 841.6C252.9 842.9 235.4 844.2 218 845.5C185.1 843.2 152.3 840.8 119.4 838.5C104.9 840.7 90.2998 842.9 75.7998 845.2Z" fill="#EC615B"/>
<path d="M205.7 906.5C216.4 908.1 227.2 909.7 237.9 911.3C267.5 903.6 297 896 326.6 888.3C316.8 886.8 307.1 885.4 297.3 883.9C266.7 891.5 236.2 899 205.7 906.5Z" fill="#EC615B"/>
<path d="M82.5996 931.9C128.2 938.4 173.7 945 219.3 951.5C233.4 948.5 248.1 945 263.4 940.8C284.4 935.1 303.9 928.8 322 922.4C315.2 921.2 308.4 920 301.6 918.8C280.3 924.7 259 930.6 237.6 936.5C199.8 931.3 162 926.2 124.2 921C110.4 924.7 96.4996 928.3 82.5996 931.9Z" fill="#EC615B"/>
<path d="M119.6 821.4C119.6 827.4 119.6 833.5 119.6 839.5C119.6 841.4 122.6 841.4 122.6 839.5C122.6 833.5 122.6 827.4 122.6 821.4C122.6 819.5 119.6 819.5 119.6 821.4Z" fill="#161616"/>
<path d="M121.6 822C157 823.2 192.5 824.3 227.9 825.5C229.8 825.6 229.8 822.6 227.9 822.5C192.5 821.3 157 820.2 121.6 819C119.6 818.9 119.6 821.9 121.6 822Z" fill="#161616"/>
<path d="M121.6 841.8C153.8 842.4 186 843.9 218.1 846.3C220 846.4 220 843.4 218.1 843.3C186 841 153.8 839.5 121.6 838.8C119.6 838.8 119.6 841.8 121.6 841.8Z" fill="#161616"/>
<path d="M228.9 825.9C249.4 824.1 270 822.9 290.5 822.2C292.4 822.1 292.4 819.1 290.5 819.2C269.9 819.8 249.4 821.1 228.9 822.9C227 823 226.9 826 228.9 825.9Z" fill="#161616"/>
<path d="M218.6 846.4C242.7 844 266.9 841.7 291 839.3C292.9 839.1 292.9 836.1 291 836.3C266.9 838.7 242.7 841 218.6 843.4C216.7 843.6 216.7 846.6 218.6 846.4Z" fill="#161616"/>
<path d="M227.4 825.5C226.7 826.6 226.2 827.7 226 829C225.7 831.2 226.6 832.9 225.5 835.1C224.2 837.9 223.4 840.1 223.9 843.2C224.2 845.1 227.1 844.3 226.8 842.4C226.3 839.1 228 837.6 229 834.9C229.9 832.1 228.2 829.7 230 827C231 825.4 228.4 823.8 227.4 825.5Z" fill="#161616"/>
<path d="M122 821.1C149 817.4 176.1 814.8 203.4 813.1C205.3 813 205.3 810 203.4 810.1C175.9 811.8 148.5 814.5 121.3 818.2C119.3 818.5 120.1 821.3 122 821.1Z" fill="#161616"/>
<path d="M201.4 813.2C230.5 813.4 259.5 816 288.1 821C290 821.3 290.8 818.4 288.9 818.1C260 813 230.7 810.3 201.4 810.1C199.5 810.2 199.5 813.2 201.4 813.2Z" fill="#161616"/>
<path d="M127.5 831.3C136.1 833.3 145.1 831.2 153.9 831.3C163.7 831.4 173.5 832.5 183.3 833.7C185.2 833.9 185.2 830.9 183.3 830.7C174.2 829.7 165 828.6 155.8 828.4C146.9 828.2 137.1 830.5 128.3 828.5C126.4 827.9 125.6 830.8 127.5 831.3Z" fill="#161616"/>
<path d="M167.1 837.8C182.4 838.3 197.8 839 213.1 839.9C215 840 215 837 213.1 836.9C197.8 836 182.4 835.3 167.1 834.8C165.2 834.7 165.2 837.7 167.1 837.8Z" fill="#161616"/>
<path d="M192.1 832.5C200.9 833.2 209.8 834.1 218.6 835.2C220.5 835.4 220.5 832.4 218.6 832.2C209.8 831.1 201 830.2 192.1 829.5C190.1 829.3 190.2 832.3 192.1 832.5Z" fill="#161616"/>
<path d="M234.8 834C241.8 835 248.6 833.3 255.5 832.3C263.7 831 272 830 280.3 829.5C282.2 829.4 282.2 826.4 280.3 826.5C273.6 826.9 266.9 827.7 260.3 828.6C252.3 829.7 243.8 832.3 235.7 831.2C233.7 830.8 232.9 833.7 234.8 834Z" fill="#161616"/>
<path d="M247.4 839.2C253.6 839.9 259.3 837.7 265.3 836.5C272.3 835 279.5 834.4 286.6 834.3C288.5 834.3 288.5 831.3 286.6 831.3C280.4 831.4 274.3 831.9 268.2 832.9C261.4 834.1 254.4 837.1 247.4 836.3C245.5 836 245.5 839 247.4 839.2Z" fill="#161616"/>
<path d="M287.9 823.4C288 828.5 288.1 833.5 288.3 838.6C288.3 840.5 291.3 840.5 291.3 838.6C291.2 833.5 291.1 828.5 290.9 823.4C290.9 821.4 287.9 821.4 287.9 823.4Z" fill="#161616"/>
<path d="M73.5995 845.9C73.6995 852.6 73.4995 859.3 72.9995 866C72.8995 867.9 75.8995 867.9 75.9995 866C76.4995 859.3 76.6995 852.6 76.5995 845.9C76.4995 843.9 73.4995 843.9 73.5995 845.9Z" fill="#161616"/>
<path d="M75.1004 868.9C110.1 873.3 145.2 877.1 180.4 880.5C182.3 880.7 182.3 877.7 180.4 877.5C145.2 874.1 110.1 870.3 75.1004 865.9C73.1004 865.7 73.2004 868.7 75.1004 868.9Z" fill="#161616"/>
<path d="M179.8 859.1C179.5 865.5 179.1 871.8 178.8 878.2C178.7 880.1 181.7 880.1 181.8 878.2C182.1 871.8 182.5 865.5 182.8 859.1C182.9 857.2 179.9 857.2 179.8 859.1Z" fill="#161616"/>
<path d="M181.3 859.7C219.9 858.2 258.5 855.3 296.9 851.2C298.8 851 298.8 848 296.9 848.2C258.5 852.3 219.9 855.1 181.3 856.7C179.4 856.8 179.4 859.8 181.3 859.7Z" fill="#161616"/>
<path d="M181.8 881.3C219.9 876.8 258.1 872.9 296.4 869.4C298.3 869.2 298.3 866.2 296.4 866.4C258.2 869.9 220 873.9 181.8 878.3C179.9 878.5 179.9 881.5 181.8 881.3Z" fill="#161616"/>
<path d="M295.6 850.8C295.6 856.2 295.7 861.6 295.7 867C295.7 868.9 298.7 868.9 298.7 867C298.7 861.6 298.6 856.2 298.6 850.8C298.6 848.8 295.6 848.8 295.6 850.8Z" fill="#161616"/>
<path d="M75.4997 845.7C90.4997 843.7 105.5 841.9 120.6 840.5C122.5 840.3 122.5 837.3 120.6 837.5C105.3 838.9 89.9997 840.7 74.6997 842.8C72.7997 843 73.5997 845.9 75.4997 845.7Z" fill="#161616"/>
<path d="M77.0002 847.7C111.6 850.2 146.1 853.8 180.5 858.5C182.4 858.8 183.2 855.9 181.3 855.6C146.7 850.9 111.9 847.2 77.0002 844.7C75.1002 844.6 75.1002 847.6 77.0002 847.7Z" fill="#161616"/>
<path d="M269.7 842.6C278.7 844.3 287.6 846.6 296.3 849.6C298.1 850.2 298.9 847.3 297.1 846.7C288.4 843.8 279.6 841.4 270.5 839.7C268.6 839.3 267.8 842.2 269.7 842.6Z" fill="#161616"/>
<path d="M91.8 861.5C109.8 860.6 127 866.9 144.9 867.2C146.8 867.2 146.8 864.2 144.9 864.2C127 863.9 109.7 857.6 91.8 858.5C89.9 858.6 89.9 861.6 91.8 861.5Z" fill="#161616"/>
<path d="M126.2 857.6C139.4 862.5 153.7 859.5 167.3 862.5C169.2 862.9 170 860 168.1 859.6C154.5 856.6 140.2 859.6 127 854.7C125.2 854 124.4 856.9 126.2 857.6Z" fill="#161616"/>
<path d="M187.7 870.7C220.9 863.2 255.4 862.4 289.2 860.4C291.1 860.3 291.1 857.3 289.2 857.4C255 859.5 220.4 860.2 186.9 867.8C185 868.2 185.8 871.1 187.7 870.7Z" fill="#161616"/>
<path d="M243.2 868.2C255 868.5 266.8 867.4 278.3 864.9C280.2 864.5 279.4 861.6 277.5 862C266.2 864.4 254.7 865.5 243.2 865.2C241.3 865.1 241.3 868.1 243.2 868.2Z" fill="#161616"/>
<path d="M94.7998 870.5C94.7998 878 94.7998 885.4 94.7998 892.9C94.7998 894.8 97.7998 894.8 97.7998 892.9C97.7998 885.4 97.7998 878 97.7998 870.5C97.7998 868.6 94.7998 868.6 94.7998 870.5Z" fill="#161616"/>
<path d="M95.9004 894.8C112.1 899.6 130 899.7 146.8 901.3C164.6 903 182.5 904.8 200.3 906.5C202.2 906.7 202.2 903.7 200.3 903.5C183.1 901.8 165.9 900.2 148.7 898.5C131.6 896.8 113.2 896.8 96.7004 891.9C94.9004 891.4 94.1004 894.3 95.9004 894.8Z" fill="#161616"/>
<path d="M200.2 883.3C200.3 890.2 200.3 897 200.1 903.9C200.1 905.8 203.1 905.8 203.1 903.9C203.3 897 203.3 890.2 203.2 883.3C203.2 881.3 200.2 881.3 200.2 883.3Z" fill="#161616"/>
<path d="M184.2 882.8C189.7 883.3 195.2 884.2 200.6 885.5C202.5 886 203.3 883.1 201.4 882.6C195.7 881.2 190 880.3 184.2 879.8C182.2 879.7 182.2 882.7 184.2 882.8Z" fill="#161616"/>
<path d="M202.1 884.9C230.1 882.6 257.9 878.4 285.4 872.1C287.3 871.7 286.5 868.8 284.6 869.2C257.4 875.4 229.9 879.6 202.1 881.9C200.2 882 200.2 885 202.1 884.9Z" fill="#161616"/>
<path d="M202.1 906.9C233.9 900.8 265.5 893.3 296.6 884.4C298.5 883.9 297.7 881 295.8 881.5C264.6 890.4 233.1 898 201.3 904C199.5 904.4 200.3 907.3 202.1 906.9Z" fill="#161616"/>
<path d="M295.1 868.3C295.2 873.3 295.1 878.3 294.7 883.2C294.5 885.1 297.5 885.1 297.7 883.2C298.1 878.2 298.2 873.2 298.1 868.3C298.1 866.4 295.1 866.4 295.1 868.3Z" fill="#161616"/>
<path d="M285.4 872.1C288.8 872.1 292.2 871.6 295.5 870.8C297.4 870.3 296.6 867.4 294.7 867.9C291.6 868.7 288.6 869.1 285.4 869.1C283.5 869.1 283.5 872.1 285.4 872.1Z" fill="#161616"/>
<path d="M112.7 888C136.9 890.9 161 893.7 185.2 896.2C187.1 896.4 187.1 893.4 185.2 893.2C161 890.7 136.8 888 112.7 885C110.8 884.8 110.8 887.8 112.7 888Z" fill="#161616"/>
<path d="M103.4 879.7C113.6 880.7 123.8 881.5 134 882C135.9 882.1 135.9 879.1 134 879C123.8 878.5 113.6 877.7 103.4 876.7C101.5 876.6 101.5 879.6 103.4 879.7Z" fill="#161616"/>
<path d="M146.8 885.2C159.7 885.2 172.5 886.1 185.3 888.1C187.2 888.4 188 885.5 186.1 885.2C173.1 883.2 160 882.2 146.8 882.2C144.9 882.2 144.8 885.2 146.8 885.2Z" fill="#161616"/>
<path d="M207 894.9C221.4 892.6 235.7 890 250 887.1C251.9 886.7 251.1 883.8 249.2 884.2C234.9 887.1 220.6 889.7 206.2 892C204.3 892.3 205.1 895.2 207 894.9Z" fill="#161616"/>
<path d="M234.2 896.1C251.5 890.3 269.3 886 287.3 883.4C289.2 883.1 288.4 880.2 286.5 880.5C268.4 883.1 250.7 887.3 233.4 893.2C231.6 893.9 232.4 896.8 234.2 896.1Z" fill="#161616"/>
<path d="M278 880.7C282.9 879.2 287.8 878.3 292.9 877.9C294.8 877.8 294.8 874.8 292.9 874.9C287.6 875.3 282.3 876.2 277.2 877.8C275.4 878.4 276.2 881.3 278 880.7Z" fill="#161616"/>
<path d="M117.6 898.7C117.5 905.8 117.3 912.9 117.2 920C117.2 921.9 120.2 921.9 120.2 920C120.3 912.9 120.5 905.8 120.6 898.7C120.7 896.8 117.7 896.8 117.6 898.7Z" fill="#161616"/>
<path d="M119 922C157.8 927.2 196.7 932.4 235.5 937.5C237.4 937.8 237.4 934.8 235.5 934.5C196.7 929.3 157.8 924.1 119 919C117.1 918.7 117.1 921.7 119 922Z" fill="#161616"/>
<path d="M204.5 907.5C216.1 909.3 227.7 910.8 239.4 911.9C241.3 912.1 241.3 909.1 239.4 908.9C228 907.8 216.6 906.4 205.3 904.6C203.4 904.3 202.6 907.2 204.5 907.5Z" fill="#161616"/>
<path d="M239.8 911.6C269.6 908.8 296.9 895.2 326.2 890.2C328.1 889.9 327.3 887 325.4 887.3C296.3 892.2 269.3 905.7 239.8 908.5C237.9 908.8 237.9 911.8 239.8 911.6Z" fill="#161616"/>
<path d="M296.4 884.9C306.5 886.4 316.7 887.5 326.9 888.1C328.8 888.2 328.8 885.2 326.9 885.1C316.9 884.5 307 883.5 297.2 882C295.3 881.7 294.5 884.6 296.4 884.9Z" fill="#161616"/>
<path d="M236.3 911.3C236 919.1 235.8 927 235.5 934.8C235.4 936.7 238.4 936.7 238.5 934.8C238.8 927 239 919.1 239.3 911.3C239.4 909.3 236.4 909.3 236.3 911.3Z" fill="#161616"/>
<path d="M237.1 937.6C267 930.4 296.5 921.9 325.7 912.2C327.5 911.6 326.7 908.7 324.9 909.3C295.7 919 266.2 927.4 236.3 934.7C234.4 935.1 235.2 938 237.1 937.6Z" fill="#161616"/>
<path d="M324.9 888.8C325.7 896.1 325.9 903.4 325.5 910.7C325.4 912.6 328.4 912.6 328.5 910.7C328.8 903.4 328.6 896.1 327.9 888.8C327.7 886.9 324.7 886.9 324.9 888.8Z" fill="#161616"/>
<path d="M126.7 913.6C126 913.7 125.4 913.8 124.7 913.8C122.8 914 122.8 916.6 124.7 916.8C150.1 919.5 175.3 923.6 200.6 927.6C202.5 927.9 203.3 925 201.4 924.7C175.9 920.6 150.4 916.5 124.7 913.8C124.7 914.8 124.7 915.8 124.7 916.8C125.4 916.7 126 916.6 126.7 916.6C128.6 916.4 128.6 913.4 126.7 913.6Z" fill="#161616"/>
<path d="M134.5 909.2C142.1 911.1 149.7 912.9 157.4 914.4C159.3 914.8 160.1 911.9 158.2 911.5C150.5 910 142.9 908.3 135.3 906.3C133.5 905.9 132.7 908.8 134.5 909.2Z" fill="#161616"/>
<path d="M166.2 913.1C186.3 916.2 206.3 919.3 226.4 922.4C228.3 922.7 229.1 919.8 227.2 919.5C207.1 916.4 187.1 913.3 167 910.2C165.1 910 164.3 912.9 166.2 913.1Z" fill="#161616"/>
<path d="M252.9 917.6C269.6 917.2 284.7 909.1 301.1 906.6C303 906.3 302.2 903.4 300.3 903.7C284.2 906.2 269.4 914.2 252.9 914.6C251 914.7 251 917.7 252.9 917.6Z" fill="#161616"/>
<path d="M247.5 927.7C254.8 925.9 262.1 924.1 269.4 922.2C271.3 921.7 270.5 918.8 268.6 919.3C261.3 921.1 254 922.9 246.7 924.8C244.8 925.2 245.6 928.1 247.5 927.7Z" fill="#161616"/>
<path d="M297.2 914.3C305.8 912 314.4 909.7 323 907.3C324.9 906.8 324.1 903.9 322.2 904.4C313.6 906.7 305 909 296.4 911.4C294.5 911.9 295.3 914.8 297.2 914.3Z" fill="#161616"/>
<path d="M79.0998 932.9C94.9998 931.2 110.7 927.9 125.9 922.9C127.7 922.3 126.9 919.4 125.1 920C110.1 924.9 94.7998 928.2 79.0998 929.9C77.1998 930.1 77.1998 933.1 79.0998 932.9Z" fill="#161616"/>
<path d="M77.8999 932.6C78.1999 939.4 78.5999 946.1 78.8999 952.9C78.9999 954.8 81.9999 954.8 81.8999 952.9C81.5999 946.1 81.1999 939.4 80.8999 932.6C80.7999 930.7 77.7999 930.7 77.8999 932.6Z" fill="#161616"/>
<path d="M80.5997 954.9C126.8 961 172.9 967.1 219.1 973.1C221 973.4 221 970.3 219.1 970.1C172.9 964 126.8 957.9 80.5997 951.9C78.6997 951.6 78.7997 954.6 80.5997 954.9Z" fill="#161616"/>
<path d="M79.6997 934.2C124.3 940.5 168.9 946.2 213.6 951.4C215.5 951.6 215.5 948.6 213.6 948.4C169.2 943.3 124.8 937.6 80.4997 931.3C78.6997 931.1 77.7997 934 79.6997 934.2Z" fill="#161616"/>
<path d="M219.2 973.7C254.9 963.4 290.4 952.4 325.6 940.6C327.4 940 326.6 937.1 324.8 937.7C289.5 949.4 254.1 960.5 218.4 970.8C216.5 971.3 217.3 974.2 219.2 973.7Z" fill="#161616"/>
<path d="M231.1 950.2C262.8 943.1 294 934.1 324.6 923.1C326.4 922.5 325.6 919.6 323.8 920.2C293.2 931.2 262 940.2 230.3 947.3C228.4 947.7 229.2 950.6 231.1 950.2Z" fill="#161616"/>
<path d="M322.8 922.2C322.9 927.9 323 933.5 323.1 939.2C323.1 941.1 326.1 941.1 326.1 939.2C326 933.5 325.9 927.9 325.8 922.2C325.7 920.3 322.7 920.3 322.8 922.2Z" fill="#161616"/>
<path d="M300.1 920.5C307.8 921.3 315.4 922.1 323.1 922.8C325 923 325 920 323.1 919.8C315.4 919 307.8 918.2 300.1 917.5C298.2 917.3 298.2 920.3 300.1 920.5Z" fill="#161616"/>
<path d="M90.6004 949.2C112.7 950.5 134.6 953.2 156.4 957.1C158.3 957.4 159.1 954.5 157.2 954.2C135.2 950.2 113 947.6 90.6004 946.2C88.6004 946.1 88.7004 949.1 90.6004 949.2Z" fill="#161616"/>
<path d="M148.7 948.9C166.4 951.5 184.1 954.5 201.7 957.8C203.6 958.2 204.4 955.3 202.5 954.9C184.9 951.6 167.2 948.6 149.5 946C147.6 945.7 146.8 948.6 148.7 948.9Z" fill="#161616"/>
<path d="M217.7 956.1C217.9 960.5 218.2 964.9 218.4 969.2C218.5 971.1 221.5 971.1 221.4 969.2C221.2 964.8 220.9 960.4 220.7 956.1C220.6 954.2 217.6 954.2 217.7 956.1Z" fill="#161616"/>
<path d="M234.4 957C249.2 953.7 263.9 950 278.6 946C280.5 945.5 279.7 942.6 277.8 943.1C263.2 947.1 248.4 950.8 233.6 954.1C231.7 954.5 232.5 957.4 234.4 957Z" fill="#161616"/>
<path d="M233.9 962.5C237.8 962.1 241.6 961.5 245.3 960.4C247.2 959.9 246.4 957 244.5 957.5C241 958.5 237.5 959.1 233.9 959.5C232 959.7 232 962.7 233.9 962.5Z" fill="#161616"/>
<path d="M287.9 946.6C297.2 943.6 306.5 940.6 315.7 937.7C317.5 937.1 316.7 934.2 314.9 934.8C305.6 937.8 296.3 940.8 287.1 943.7C285.3 944.3 286.1 947.2 287.9 946.6Z" fill="#161616"/>
<path d="M305.9 936.1C309.9 934.9 314 933.8 318 932.6C319.9 932.1 319.1 929.2 317.2 929.7C313.2 930.9 309.1 932 305.1 933.2C303.3 933.7 304 936.6 305.9 936.1Z" fill="#161616"/>
<path d="M125.1 960.5C126.1 968.3 126.5 976.1 126.2 984C126.1 985.9 129.1 985.9 129.2 984C129.5 976.1 129.1 968.3 128.1 960.5C127.9 958.6 124.9 958.6 125.1 960.5Z" fill="#161616"/>
<path d="M128.8 986.1C175 992.1 221.1 998 267.3 1004C269.2 1004.2 269.2 1001.2 267.3 1001C221.1 995 175 989.1 128.8 983.1C126.9 982.8 126.9 985.8 128.8 986.1Z" fill="#161616"/>
<path d="M265 978.6C265.5 986.4 265.9 994.3 266.4 1002.1C266.5 1004 269.5 1004 269.4 1002.1C268.9 994.3 268.5 986.4 268 978.6C267.9 976.7 264.9 976.6 265 978.6Z" fill="#161616"/>
<path d="M266.9 1003.8C295.8 989.8 324.8 975.9 353.7 961.9C355.4 961.1 353.9 958.5 352.2 959.3C323.3 973.3 294.3 987.2 265.4 1001.2C263.6 1002.1 265.2 1004.7 266.9 1003.8Z" fill="#161616"/>
<path d="M266.5 978.2C296.1 967.6 324.9 955 352.8 940.4C354.5 939.5 353 936.9 351.3 937.8C323.7 952.2 295.1 964.7 265.7 975.3C263.9 976 264.7 978.9 266.5 978.2Z" fill="#161616"/>
<path d="M350.1 939.2C350.3 946.7 350.5 954.2 350.7 961.6C350.8 963.5 353.8 963.5 353.7 961.6C353.5 954.1 353.3 946.6 353.1 939.2C353.1 937.2 350.1 937.2 350.1 939.2Z" fill="#161616"/>
<path d="M325.8 937.6C334.1 937.7 342.4 938.3 350.6 939.5C352.5 939.8 353.3 936.9 351.4 936.6C342.9 935.4 334.4 934.7 325.8 934.6C323.9 934.6 323.9 937.6 325.8 937.6Z" fill="#161616"/>
<path d="M220.8 974C230.9 975.8 241.1 976.9 251.4 977.3C253.3 977.4 253.3 974.4 251.4 974.3C241.4 973.9 231.5 972.9 221.6 971.1C219.7 970.7 218.9 973.6 220.8 974Z" fill="#161616"/>
<path d="M275.3 982.7C286.3 980 296.8 976.2 307 971.3C308.7 970.5 307.2 967.9 305.5 968.7C295.6 973.5 285.3 977.1 274.6 979.8C272.6 980.2 273.4 983.1 275.3 982.7Z" fill="#161616"/>
<path d="M276.5 990.5C285.3 987.2 293.8 983.3 302 978.8C303.7 977.9 302.2 975.3 300.5 976.2C292.5 980.6 284.3 984.4 275.7 987.6C273.9 988.3 274.6 991.2 276.5 990.5Z" fill="#161616"/>
<path d="M312.4 965.5C323.5 961.6 334.5 957.1 345.3 952.2C347.1 951.4 345.5 948.8 343.8 949.6C333.3 954.4 322.6 958.7 311.6 962.5C309.8 963.2 310.6 966.1 312.4 965.5Z" fill="#161616"/>
<path d="M316.7 972.1C327.6 967.4 338 961.8 348 955.3C349.6 954.2 348.1 951.7 346.5 952.7C336.6 959.2 326.1 964.8 315.2 969.5C313.4 970.3 314.9 972.8 316.7 972.1Z" fill="#161616"/>
<path d="M685.8 695.9C706.3 771.5 726.8 847.1 747.2 922.7C753 944.3 758.9 965.8 764.7 987.4C765.7 991.1 771.5 989.5 770.5 985.8C750 910.2 729.5 834.6 709.1 759C703.3 737.4 697.4 715.9 691.6 694.3C690.6 690.6 684.8 692.2 685.8 695.9Z" fill="#161616"/>
<path d="M626.7 699.1C627.6 782.3 628.5 865.6 629.3 948.8C629.5 972.3 629.8 995.9 630 1019.4C630 1023.3 636 1023.3 636 1019.4C635.1 936.2 634.2 852.9 633.4 769.7C633.2 746.2 632.9 722.6 632.7 699.1C632.7 695.3 626.7 695.3 626.7 699.1Z" fill="#161616"/>
<path d="M543 688.4C525.2 769.7 508 851.1 491.4 932.7C486.7 955.8 482.1 978.9 477.5 1001.9C476.7 1005.7 482.5 1007.3 483.3 1003.5C499.6 921.9 516.4 840.4 533.9 759C538.8 736 543.8 713 548.9 690C549.6 686.2 543.8 684.6 543 688.4Z" fill="#161616"/>
<path d="M501.4 902.6C544.7 903 587.9 904 631.1 905.7C635 905.9 635 899.9 631.1 899.7C587.9 898 544.6 897 501.4 896.6C497.6 896.6 497.6 902.6 501.4 902.6Z" fill="#161616"/>
<path d="M633.3 904.4C637.3 905 640.4 903.4 644.1 901.9C648.6 900.1 653.1 898.2 657.6 896.3C665.6 892.9 673.6 889.5 681.6 886C698.9 878.4 716 870.5 732.9 862.4C736.4 860.7 733.3 855.6 729.9 857.2C714.4 864.7 698.8 871.9 683 878.9C675.1 882.4 667.2 885.8 659.2 889.2C655.1 890.9 651.1 892.6 647 894.3C643.8 895.6 638.3 899.1 634.8 898.6C631.1 898.1 629.4 903.9 633.3 904.4Z" fill="#161616"/>
<path d="M604.6 700.8C596.6 771.8 588.6 842.8 580.6 913.9C578.3 934 576.1 954.2 573.8 974.3C573.4 978.1 579.4 978.1 579.8 974.3C587.8 903.3 595.8 832.3 603.8 761.2C606.1 741.1 608.3 720.9 610.6 700.8C611.1 697 605.1 697 604.6 700.8Z" fill="#161616"/>
<path d="M588.1 870.1C635.6 869 682.9 866 730.3 862.9C734.1 862.7 734.2 856.6 730.3 856.9C682.9 860 635.6 862.9 588.1 864.1C584.2 864.2 584.2 870.2 588.1 870.1Z" fill="#161616"/>
<path d="M502.5 902.3C532.4 893.6 561.2 881.8 590.1 870.2C593.6 868.8 592.1 863 588.5 864.4C559.6 876 530.8 887.8 500.9 896.5C497.2 897.5 498.8 903.3 502.5 902.3Z" fill="#161616"/>
<path d="M650.9 619.5C676.6 622.9 697.9 630 714.2 637C714.5 655.1 714.7 673.1 715 691.2C696.2 699.6 667.4 709.7 631.1 712.6C584.6 716.3 547.3 706.4 525.8 698.9C524.9 678.6 524.1 658.3 523.2 638C546.8 627.8 593.3 611.9 650.9 619.5Z" fill="white" stroke="#161616" stroke-width="3"/>
<path d="M531.4 642.7C539.2 651.4 550.4 654.5 561.7 655.9C576.3 657.8 591.3 658.4 606.1 658.9C636.5 659.9 667.3 658.2 696.2 647.8C698 647.2 697.2 644.3 695.4 644.9C667.9 654.8 638.7 656.8 609.8 656C596 655.6 582.2 654.8 568.4 653.6C555.9 652.5 542.4 650.4 533.6 640.6C532.2 639.1 530.1 641.3 531.4 642.7Z" fill="#161616"/>
<path d="M516.6 296.9C509.8 297.6 505.6 302.8 497.3 313.6C474.9 342.6 458.7 368.1 457.3 370.3C454.4 374.8 444.5 388.4 424.6 415.6C387.9 465.9 379.4 475.2 382.6 488.3C386.3 503.6 403 517.2 415.3 515C422.5 513.7 426.8 507.2 433.3 496.3C441.7 482.1 452.5 462.9 464 439C494 418.6 513.7 397.2 526 381.7C551 350.2 550.2 336.6 549.3 331C546.5 313.2 530.3 295.6 516.6 296.9Z" fill="white" stroke="#161616" stroke-width="3"/>
<path opacity="0.09" d="M537.6 309.5C532.7 310.1 531.6 324.3 529.7 333.1C523.1 363.5 499.2 366.6 459.6 411.7C443 430.7 431.2 448.3 420.3 464.8C409.7 480.8 401.4 494.8 395.4 505.4C396.4 507.3 399 511.3 403.9 513.3C410.5 515.9 416.9 513 419 512C426.9 508.3 428.3 502.6 441.3 480.6C449.6 466.5 449.5 468 453.1 460.9C459.7 447.8 459.2 443.9 464.9 437.3C469.9 431.4 473.5 431.7 483.2 424.2C488.2 420.4 497 413.6 506.8 403.9C509.7 401.1 521.4 389.3 533.7 371.1C543.4 356.8 545.7 350 546.8 346.2C550.8 332.4 548.3 324.3 547.5 322C545.7 316.9 541.4 309 537.6 309.5Z" fill="#3D3D3D"/>
<path opacity="0.18" d="M464.9 435.9C463.6 435.1 458.4 443.4 446.6 456.9C417.1 490.4 394.9 500.8 398.1 509.3C400 514.2 409.2 515.9 415.8 514.5C425.2 512.5 430.2 503.3 440 485C464 440.1 465.7 436.4 464.9 435.9Z" fill="#3D3D3D"/>
<path d="M378.4 878.6C381.2 909.8 383.9 941 386.7 972.2C343.2 994 322.4 1007.8 324.5 1013.7C327 1020.9 364.2 1016 435.9 998.9C434.5 955.5 433.1 912 431.8 868.6C414 871.9 396.2 875.2 378.4 878.6Z" fill="#161616" stroke="#161616" stroke-width="3"/>
<path d="M521.1 521.6C505.8 532.9 484.3 548.8 458.7 568.2C378.1 629.3 368 638.6 359.1 655.7C350.3 672.5 347.3 700.8 341.2 757.5C337 796.4 336.7 826.4 336.9 843.5C337.1 862.6 338.1 878.9 339.1 891.5C343.8 895.7 361.6 910.4 388.6 910.9C420.5 911.4 440.9 891.6 444.5 888C441.4 869.6 438.9 849.7 437.3 828.5C434.4 789.7 435.3 754.5 438 723.8C459.4 706.9 489.4 682.5 524 651.4C597.9 585 602.8 569.3 600 558.2C593.6 533.4 546.2 524.7 521.1 521.6Z" fill="white" stroke="#161616" stroke-width="3"/>
<path opacity="0.12" d="M554.4 529.2C543.7 532.8 549.4 557 542.2 579.5C534 605.2 515.1 612.1 468.3 647.7C453.1 659.2 431.4 676.9 406.6 701.3C407 746.2 405.6 793.9 401.7 844.2C399.9 867 397.7 889.3 395.2 910.8C401.8 909.9 410.2 908 419.6 904.3C430.1 900.1 438.3 894.8 444 890.5C440.8 871.5 438.3 850.9 436.7 828.8C433.9 790 434.9 754.8 437.5 724C455.3 709 469.8 697.2 479.7 689.1C493.1 678.2 499.9 672.9 511.4 663.1C518 657.5 524.7 651.6 541.4 636.3C584.4 597.1 596.2 584.7 599.1 567.3C600.5 558.4 598.7 553.6 597.5 551.1C593.8 543.8 586.1 540.5 570.7 534C561.5 530.3 556.9 528.3 554.4 529.2Z" fill="#3D3D3D"/>
<path opacity="0.15" d="M436.6 723.3C432 743.2 427.9 764.3 424.4 786.6C417.7 829.4 414.7 869.2 413.8 905.2C424.1 900.1 434.4 894.9 444.7 889.8C441 865.2 438.1 838 436.6 808.6C435.1 777.7 435.3 749.2 436.6 723.3Z" fill="#3D3D3D"/>
<path opacity="0.09" d="M590.9 545.4C583.8 544.8 577.4 561.1 573 570.6C563.5 591.4 537.7 618.6 486.1 672.9C473.7 686 457 703 436.6 722.4C442 718.5 449.3 713.3 457.7 707C476.7 692.7 488 683.1 524.3 651.8C524.3 651.8 537.4 640.5 590.9 584.4C593.7 581.5 600.5 574.1 600.6 564.1C600.8 555.7 596.2 545.9 590.9 545.4Z" fill="#3D3D3D"/>
<path d="M552.8 286.6C552.4 286.6 550.8 286.7 548.6 286.9C544.1 287.3 537 288.1 528.6 290.3C521.8 292 516.4 294 513.2 295.3C507.5 307 500.3 325.1 497.6 348C493.7 380.6 501.5 401.6 506.8 434.1C510.4 456.4 513.4 488.7 509.3 529.6C517.9 537.6 540.3 556.3 574.5 561.1C622.8 568 658.3 542 665.6 536.4C667.8 522.6 669.9 508.6 672 494.4C672 494.4 675.1 473 678.1 449.5C685.2 394.8 692.5 321.1 693.4 311.9C667.7 285.9 646.4 279.9 631.6 279.4C612.4 278.7 568.4 285.8 552.8 286.6Z" fill="#EC615B"/>
<path opacity="0.17" d="M590.6 308.3C595.9 313.8 603 322.2 609.4 333.6C640.2 388.2 621.1 451.9 612.6 480.2C606.7 500 595.5 529.1 573.3 560.4C581.8 561.9 592.4 562.7 604.5 561.5C633.4 558.6 654.3 545.2 664.8 537.3C672 489.6 678.7 440.7 684.7 390.7C687.8 364.9 690.6 339.5 693.3 314.2C688.8 308.6 681.4 300.5 670.3 293.6C661.5 288.1 648.8 280.1 633 280.9C608.2 282.3 592.9 304.9 590.6 308.3Z" fill="#3D3D3D"/>
<path d="M363.7 364.7C364.7 364.7 365.8 364.7 366.8 364.7C367.1 363.6 367.4 362.4 367.7 361.3C368.9 363.8 370.9 367.9 373.4 373C384.4 395.3 386.6 399 388.6 405.7C390.2 411.2 392.1 419.1 392.7 429.2C394.6 427.9 397.4 426.1 401 424.1C420.4 413.5 436.6 413.4 451.2 410.8C462.1 408.8 477.4 404.4 495.3 393.7C494.2 395.2 493.1 396.8 492 398.3C493.7 398.9 495.5 399.6 497.2 400.2C498.2 401.5 499.5 403.6 500.6 406.3C506.4 420.6 497.8 436.3 489.5 450.7C455.6 510.3 452.1 513.4 446 516.4C443.5 517.7 418.3 530 400.4 518.6C396.7 516.3 390 510.8 381.4 471.9C375.5 445.4 374.8 430.6 369.2 395.8C367 382.6 365 371.8 363.7 364.7Z" fill="white" stroke="#191919" stroke-width="2"/>
<path d="M369.4 370.2C377.9 388.4 386.3 406.9 388.9 426.9C389 427.4 389.7 427.4 389.7 426.9C387.1 406.7 378.7 388.1 370.1 369.8C369.8 369.4 369.2 369.7 369.4 370.2Z" fill="#191919"/>
<path d="M366.1 367C371.1 377.6 375.2 388.5 378.6 399.7C378.7 400.2 379.5 400 379.3 399.5C375.9 388.2 371.7 377.3 366.7 366.6C366.6 366.2 365.9 366.5 366.1 367Z" fill="#191919"/>
<path d="M379.8 399.1C383.1 408.1 385.3 417.4 386.6 426.9C386.7 427.4 387.4 427.4 387.4 426.9C386.1 417.3 383.9 408 380.6 398.9C380.4 398.4 379.7 398.6 379.8 399.1Z" fill="#191919"/>
<path d="M371.2 384.8C375.8 396.1 379.8 407.7 383.1 419.5C383.2 420 384 419.8 383.8 419.3C380.5 407.5 376.5 395.9 371.9 384.6C371.7 384.2 371 384.4 371.2 384.8Z" fill="#191919"/>
<path d="M394.4 431.7C406.9 423.4 420.9 418 435.8 415.9C436.3 415.8 436.1 415.1 435.6 415.2C420.6 417.3 406.6 422.7 394 431C393.7 431.3 394 432 394.4 431.7Z" fill="#191919"/>
<path d="M400.7 430.4C413.7 422.5 428.4 419.5 443 416.2C458.5 412.7 473.6 408 488.3 402C488.7 401.8 488.5 401.1 488.1 401.3C472.9 407.6 457.2 412.3 441.1 415.9C427 419.1 412.8 422.2 400.3 429.8C399.9 430 400.3 430.7 400.7 430.4Z" fill="#191919"/>
<path d="M398.3 434C413.7 426.7 429.4 422.2 445.9 418.2C462.1 414.2 477.8 408 493.6 402.6C494.1 402.4 493.9 401.7 493.4 401.9C477.1 407.5 460.8 414 444 417.9C428.1 421.7 412.8 426.4 397.9 433.4C397.4 433.5 397.8 434.2 398.3 434Z" fill="#191919"/>
<path d="M363.1 364.5C370.4 387.6 377.8 410.6 385.1 433.7C388.7 434.9 392.3 436.1 395.9 437.3C430.1 426 464.2 414.8 498.4 403.5C499.6 404.5 500.8 405.5 502 406.6C505.9 454.1 509.9 501.5 513.8 549C512.4 549.9 511.1 550.7 509.7 551.6C475 556.9 440.4 562.2 405.7 567.5C400.7 566.3 395.8 565.1 390.8 563.9C386.4 544.4 381.9 525 377.5 505.5C371 459.4 364.5 413.3 358 367.2C359.7 366.2 361.4 365.3 363.1 364.5Z" fill="white" stroke="#191919" stroke-width="2"/>
<path d="M383.5 434.3C385.1 477.6 388.2 521 390.6 564.3C390.7 565.7 392.9 565.7 392.9 564.3C390.5 521 387.4 477.7 385.8 434.3C385.7 432.8 383.4 432.8 383.5 434.3Z" fill="#191919"/>
<path d="M393.9 437C395.3 449.3 395.9 461.6 395.9 474C395.9 475.4 398.1 475.4 398.2 474C398.2 461.6 397.6 449.3 396.2 437C395.9 435.6 393.7 435.6 393.9 437Z" fill="#191919"/>
<path opacity="0.16" d="M456.1 418.5C456.5 428.5 456.2 450.9 443.4 475C429.8 500.6 409.9 513.8 401.3 518.8C400.9 510.6 400.4 502.4 400 494.3C396.6 500 393.3 505.7 389.9 511.4C390.6 529.2 391.4 547 392.1 564.9C396.9 565.9 401.7 566.9 406.6 568C440.3 562.6 474.1 557.2 507.8 551.8C509.6 551.1 511.3 550.3 513.1 549.6C509.3 501.5 505.5 453.5 501.7 405.4C486.5 409.7 471.3 414.1 456.1 418.5Z" fill="#6C6D6D"/>
<path opacity="0.1" d="M394.4 438C393.7 438 392.9 456.5 393.4 476.6C394 505.2 396.7 517.7 395.9 545C395.6 553.9 395.1 561.2 394.7 565.9C398.4 566.4 402.2 566.9 405.9 567.4C405.2 562.5 404.2 555.4 403.2 546.9C395.3 483.3 395.5 438 394.4 438Z" fill="#6C6D6D"/>
<path d="M421.3 443.6C445.1 438 468.5 431 491.5 422.6C493.3 421.9 492.5 419 490.7 419.7C467.7 428 444.3 435 420.5 440.7C418.7 441.2 419.5 444.1 421.3 443.6Z" fill="#191919"/>
<path d="M367.3 446.6C366.2 447 366.3 449 365.4 458.3C364.8 464.6 364.6 464.7 364.8 466.2C365.3 470.4 366.8 471.2 367.3 476C367.6 479.1 367 479.5 367.5 482.1C368.1 485.3 369.5 487.7 370.6 489.2C370.6 490.2 370.8 491.9 371.6 493.6C373.2 496.7 376.9 499.4 378.9 498.4C380 497.9 380.3 495.8 380.8 491.7C381.3 487.9 381 487.7 381.4 483.3C381.8 479.7 382.1 479 381.8 477.2C381.5 475 380.7 474.3 379.9 472C378.8 468.8 379.3 467.6 378.6 464.3C377.6 458.8 375 454.9 373.6 452.8C372.2 450.6 369.2 446 367.3 446.6Z" fill="white"/>
<path d="M366.6 445.7C361.2 457.4 366.6 470.5 378.8 474.8C380.2 475.3 380.8 473.1 379.4 472.6C368.6 468.8 363.8 457.2 368.6 446.8C369.1 445.5 367.2 444.4 366.6 445.7Z" fill="#191919"/>
<path d="M367 447.5C374.2 454.2 378.4 463 379 472.8C379.1 474.2 381.3 474.2 381.3 472.8C380.7 462.4 376.3 453 368.6 445.9C367.5 444.9 365.9 446.5 367 447.5Z" fill="#191919"/>
<path d="M364 459.7C361.4 471.4 368.3 482.5 380.2 485C381.6 485.3 382.2 483.1 380.8 482.8C370.2 480.6 363.8 470.9 366.2 460.2C366.5 458.8 364.3 458.2 364 459.7Z" fill="#191919"/>
<path d="M366.2 474.4C364.1 483.3 369.5 491.8 378.5 493.5C379.9 493.8 380.5 491.6 379.1 491.3C371.3 489.9 366.5 482.8 368.3 475C368.7 473.6 366.6 473 366.2 474.4Z" fill="#191919"/>
<path d="M369.1 488.7C368.7 493 371.2 497.3 375.2 498.9C376.9 499.6 379.1 499.7 380.4 498.2C381.8 496.6 381.2 494.2 380.4 492.5C379.9 491.2 377.7 491.8 378.2 493.1C378.7 494.2 379.7 496.4 378.1 497.1C376.9 497.6 375 496.4 374.1 495.7C372 494 371 491.4 371.3 488.7C371.5 487.2 369.2 487.3 369.1 488.7Z" fill="#191919"/>
<path d="M379.4 493.4C381.6 493.4 382.5 491.2 382.8 489.3C383.2 487 382.8 484.6 381.6 482.6C380.9 481.3 378.9 482.5 379.7 483.7C380.4 484.9 380.8 486.2 380.8 487.5C380.8 488.2 380.6 491.1 379.4 491.1C378 491.1 378 493.4 379.4 493.4Z" fill="#191919"/>
<path d="M382.2 484.2C383.6 482.9 383.6 480.4 383.3 478.6C383 476.3 382 474.3 380.4 472.6C379.4 471.5 377.8 473.1 378.8 474.2C379.8 475.3 380.6 476.6 380.9 478.2C381.1 479.3 381.4 481.7 380.5 482.6C379.5 483.6 381.1 485.2 382.2 484.2Z" fill="#191919"/>
<path d="M486.3 806.3C490 828.7 493.6 851.2 497.3 873.6C456.2 902.8 437.1 920 440 925.4C443.4 931.7 477 921.6 540.8 895.1C538.5 858.5 536.2 822 533.8 785.4C518 792.4 502.1 799.3 486.3 806.3Z" fill="#161616" stroke="#161616" stroke-width="3"/>
<path d="M666.1 535.7C667.7 549 668.3 570.3 660.4 594.3C657 604.5 651.3 621.2 636.3 636.9C626.7 646.9 609.9 664.5 585.4 663.8C565.6 663.2 551.6 651.1 546.5 646.2C545 665 544.2 685.4 544.6 707.3C545.2 741 548.5 771.5 552.9 798.1C540.9 820.3 517.9 834 493.6 833.3C462.4 832.4 444.7 808.3 442.7 805.5C435.5 737.8 434.9 681.5 436.2 639.7C437.3 605.6 439.7 577.4 460.3 554.5C480.4 532.1 507 527 514 525.8C565.2 516.7 603.9 552.8 608.5 557.3C615.9 557.8 630.4 557.6 646 550.1C655.2 545.6 661.8 540 666.1 535.7Z" fill="white" stroke="#161616" stroke-width="3"/>
<path d="M548.1 617.1C545.3 629.6 543.8 642.3 543.5 655.1C543.5 657 546.5 657 546.5 655.1C546.8 642.5 548.2 630.1 550.9 617.9C551.4 616 548.5 615.2 548.1 617.1Z" fill="#161616"/>
<path d="M548.8 633.1C550.2 630 551.5 626.9 552.9 623.7C553.7 621.9 551.1 620.4 550.3 622.2C548.9 625.3 547.6 628.4 546.2 631.6C545.4 633.3 548 634.8 548.8 633.1Z" fill="#161616"/>
<path d="M604.8 555.8C611.5 562.2 616.1 571.4 621.1 579.2C622.1 580.8 624.7 579.3 623.7 577.7C618.5 569.7 613.8 560.4 606.9 553.7C605.5 552.3 603.4 554.4 604.8 555.8Z" fill="#161616"/>
<path opacity="0.09" d="M634.2 553.7C634.4 558.5 634.4 565.1 633.6 573C631.7 591.5 630.1 607.2 619.9 614C608 622 589.9 614.4 583.2 611.5C560 601.7 557.3 585.3 544 584.1C528.3 582.7 512 603.7 504.2 620.2C484.9 660.7 506.8 692.4 509.2 765.1C510.1 794.3 507.5 817.9 505.5 832.3C510.7 831.7 517.5 830.2 524.8 826.7C541.7 818.6 550.2 804.7 553.4 798.7C552.7 793.2 551.7 784.7 550.3 774.4C546.9 749.3 545.8 746.6 544.7 735.8C544.2 730.9 543.8 725.4 544.7 689.8C545 679.3 545.3 664.8 545.9 647.5C548.6 649.4 552.3 651.8 557.1 654.3C560.4 656 572 662.1 582.6 663.6C599.5 666 613.9 656.5 621.2 651.8C641.1 638.7 649.7 620.3 655.4 607.6C668.1 579.5 668.5 553.1 667.2 536.7C663.7 540.5 657.2 546.6 647.3 550.4C642.3 552.4 637.8 553.3 634.2 553.7Z" fill="#3D3D3D"/>
<path opacity="0.11" d="M663.4 557.4C661.1 556.6 654.2 570.1 653.4 571.7C646.9 584.6 647.1 592.9 644.7 600.9C640 616.9 624.8 633 609.3 637C583.2 643.7 561.3 614.8 549.6 623.9C544.1 628.2 544.4 638 546.5 643.8C552.5 660.5 579.7 661.7 583.2 661.8C606.9 662.6 624.3 647.9 629.8 643.1C665 612.7 667.6 558.9 663.4 557.4Z" fill="#3D3D3D"/>
<path opacity="0.11" d="M548.3 622.7C546.6 622.4 541.3 639.2 537.7 655.7C530.4 689.3 531.3 715.2 531.5 727.8C531.8 751.2 529.8 784.7 519.7 827.3C523.8 826.3 530.1 824.1 536.5 819.2C546.3 811.7 550.5 802.3 552 798.1C550 776.2 548.6 757.6 547.6 743.4C545.2 709.1 544 691.6 544.5 675.6C545.6 643.7 550.2 623.1 548.3 622.7Z" fill="#3D3D3D"/>
<path d="M503.3 459.1C504.2 456.5 510.2 456.5 511.8 456.5C518.8 456.5 524.4 461.1 526.2 465C526.7 466.1 526.8 467 526.8 467.5C527 470.2 525.4 472.9 524 473.8C518.8 477.1 501.5 464.2 503.3 459.1Z" fill="white" stroke="#161616" stroke-width="3"/>
<path d="M685.7 305.1C701.6 314.9 699.7 342.6 697.3 377.3C694.6 415.6 685.4 442.5 681.9 452.3C675.7 469.2 668.8 482.9 663.1 492.7C642.5 501.5 609.7 511.9 569.1 510.1C554.4 509.4 541.3 507.3 530 504.6C516.5 513.9 505.6 513.8 500.9 513.3C493.6 512.6 484 509.3 484.1 506.1C484.1 503.9 488.8 502.1 490.9 501.3C496 499.3 500.5 499.5 500.5 499.3C500.5 499.1 496.8 499.3 492.9 498.9C490.3 498.6 485.2 498.2 480.8 495.9C479.2 495.1 471.3 491.2 469.8 483.6C468.4 476.7 472.6 468.9 480.3 464.3C487.4 462.4 499.9 460.1 515 462.8C526.2 464.8 534.8 468.8 540.5 471.9C567.4 465.3 594.3 458.6 621.1 452C621.6 446.4 622.5 438.2 623.6 428.1C627.1 396.2 628.8 380.2 631.5 366.7C638.1 333.5 642.4 311.8 659.2 304.2C666.7 300.9 677.6 300.1 685.7 305.1Z" fill="white" stroke="#161616" stroke-width="3"/>
<path opacity="0.18" d="M670 302.8C673.3 323.3 676.3 353.6 673.6 390C670.6 430.1 668.9 450.1 654.7 466.7C633.4 491.6 587.5 504.1 551.8 494C538 490.1 518.1 481.2 493.7 486.2C486.7 487.6 476 490.9 476.2 493.5C476.4 495.5 483.6 497.5 488.7 498.1C492.6 498.5 495.1 498.2 495.3 499C495.9 500.9 484.6 504.1 484.9 507.4C485.1 510.2 494 512.4 501.3 512.6C506.9 512.8 516.8 512.1 528.8 505.2C539.4 507.7 551.5 509.8 564.8 510.6C607.3 513.2 642.1 502.1 663.8 492.7C668.2 484.8 673.8 473.7 679.2 459.9C695.9 417.5 697.8 382.2 698.1 372.6C698.7 358.2 698.2 338 693.5 314.1C692.8 312.6 689.8 306.9 682.9 303.9C677.1 301.4 671.8 302.4 670 302.8Z" fill="#3D3D3D"/>
<path opacity="0.21" d="M643.3 493.2C627.8 495.6 618.8 498.1 611.8 499.5C583.4 505.5 560.4 502.8 552.3 501.8C544 500.9 537.2 499.5 532.5 498.5C526.8 500.8 518.3 503.7 507.7 504.9C494.1 506.4 484.4 504.4 484.1 506.1C483.8 507.7 492.1 511.9 500.9 512.9C514.3 514.4 525.2 507.9 530.1 504.5C536.3 506.2 545.2 508.4 556.1 509.7C614 516.8 664.9 492.8 664.3 490.6C664.2 489.9 657.2 491 643.3 493.2Z" fill="#3D3D3D"/>
<path d="M475.8 493.4C485.2 489.4 495.4 488.6 505.3 490.9C507.2 491.3 508 488.4 506.1 488C495.3 485.5 484.5 486.4 474.3 490.8C472.5 491.6 474.1 494.2 475.8 493.4Z" fill="#161616"/>
<path d="M470.5 483.8C481.6 479.8 493.2 478.5 504.9 480C506.8 480.2 506.8 477.2 504.9 477C493 475.5 481 476.8 469.7 480.9C467.9 481.6 468.7 484.5 470.5 483.8Z" fill="#161616"/>
<path d="M473.3 473.6C484.3 470.4 495.5 469.2 506.9 470C508.8 470.1 508.8 467.1 506.9 467C495.3 466.2 483.7 467.5 472.5 470.7C470.6 471.2 471.4 474.1 473.3 473.6Z" fill="#161616"/>
<path d="M526.2 145.2C498.3 167.8 499.4 213.8 510.4 243.5C517.3 262.3 528.5 275.2 535.7 282.3C537.5 289.9 539.2 297.6 541 305.2C549.8 307.1 561.4 308.6 574.9 307.4C605.3 304.6 626.7 289.8 636.2 282.1C629.5 265.5 622.8 248.9 616.1 232.2C615.2 226.1 613.9 216.7 612.3 205.3C608.2 175.4 608.4 173.8 606.6 169C605.8 167 594.5 138.4 568 133.3C546.5 129.2 528.8 143 526.2 145.2Z" fill="white" stroke="#161616" stroke-width="3"/>
<path d="M503.2 221.7C501.6 228 499.9 237.8 501.1 249.7C501.9 257.6 503.2 271.3 513.1 284.5C523.8 298.8 538.3 304.2 544.4 306.2C543.9 304.6 543.4 302.6 543.1 300.3C542.8 297.8 542.9 295.6 543.1 293.9C549.7 297.4 556.3 301 562.8 304.5C579.4 289.3 584.9 275.5 586.8 265.4C588.3 257.5 589.2 243 592.8 216.6C593.4 211.9 594.7 203.4 600.1 201.3C602.6 200.3 606 200.7 608.3 202.6C614.9 208.1 608.2 223.8 609.6 224.3C611 224.7 622.5 208.9 618.6 190.7C616.6 181.3 611.1 174.8 607.9 171.6C600.7 182.9 592.7 194.5 583.9 206.4C578.3 214 572.7 221.2 567.2 228.1C565.1 229.2 562 230.5 558.4 230.2C555.6 230 554.6 229 552.5 228.4C544.7 226.2 540.5 235.3 532.9 234.1C526.6 233.1 526 226.4 519.1 226.2C515.8 226.1 514.4 227.6 511 226.9C507.4 226.1 504.9 223.7 503.2 221.7Z" fill="#161616" stroke="#161616" stroke-width="3"/>
<path d="M535.4 195C533 205.9 531.5 216.9 530.9 228C530.8 229.2 532.2 229.8 533.2 229.3C537.1 227.3 541 225.3 545 223.3C546.7 222.4 545.2 219.8 543.5 220.7C539.6 222.7 535.7 224.7 531.7 226.7C532.5 227.1 533.2 227.6 534 228C534.7 217.1 536.1 206.4 538.4 195.8C538.7 193.9 535.8 193.1 535.4 195Z" fill="#161616"/>
<path d="M519.7 201.1C520.8 202.8 521 205.4 520.1 205.9C519 206.5 515.9 204.2 515.5 201.6C515.4 200.8 515.5 199.4 516.2 199C517.2 198.5 518.9 199.8 519.7 201.1Z" fill="#161616" stroke="#161616" stroke-width="3"/>
<path d="M514.5 190.8C518 189 522.2 189.3 525.4 191.8C526.9 193 529 190.9 527.5 189.7C523.3 186.3 517.8 185.7 513 188.2C511.3 189.1 512.8 191.7 514.5 190.8Z" fill="#161616"/>
<path d="M549.4 192.3C554.4 189 561.2 190.1 564.6 195.1C565.7 196.7 568.3 195.2 567.2 193.6C562.9 187.4 554.3 185.5 547.9 189.7C546.3 190.8 547.8 193.4 549.4 192.3Z" fill="#161616"/>
<path d="M481.2 173.2C521.1 175.5 561 178.9 600.7 183.2C606.5 183.8 606.4 174.8 600.7 174.2C561 169.9 521.1 166.5 481.2 164.2C475.4 163.9 475.4 172.9 481.2 173.2Z" fill="#161616"/>
<path d="M507.1 167.1C507.7 161 510.2 145.3 522.4 132.6C538.3 116 567.6 109 590.4 123.1C608.3 134.2 617.8 155.6 614.6 177.4C578.7 174 542.9 170.5 507.1 167.1Z" fill="#5222D0"/>
<path opacity="0.69" d="M557.5 118.7C552.8 122.6 552.8 130.7 554.5 139.4C556.3 148.9 560.9 160.5 567.9 172.3C583.4 174.1 599 175.9 614.5 177.7C615.2 174.4 615.8 169.5 615.2 163.6C615.2 163.6 614.2 152.9 608.5 143.2C597.1 124 567.3 110.5 557.5 118.7Z" fill="#3A1DA3"/>
<path opacity="0.24" d="M606.2 229C602.7 230.9 599.2 230.4 598 230.2C599.5 233.1 602.6 239.3 604.8 248C606.8 256.2 609.7 267.4 605.9 280.3C602.5 291.8 595.3 299.4 590.4 303.6C596.4 302.5 604.3 300.4 613 296.1C623.1 291.1 630.3 285.1 635 280.5C627.6 259.6 620.3 238.7 612.9 217.8C612.9 218.2 612.5 225.7 606.2 229Z" fill="#3D3D3D"/>
<path opacity="0.19" d="M571.2 179.8C572.3 184.6 573.3 191.8 572.1 200.3C570.1 214.6 563.2 224.5 559.5 229C561.7 228.3 563.9 227.6 566.1 226.9C570.5 221.6 574.9 216 579.3 210.2C586.5 200.7 593.2 191.4 599.2 182.3C589.9 181.6 580.5 180.7 571.2 179.8Z" fill="#3D3D3D"/>
<path d="M557.6 202C558.7 203.7 558.9 206.3 558 206.8C556.9 207.4 553.8 205.1 553.4 202.5C553.3 201.7 553.4 200.3 554.1 199.9C555.1 199.4 556.7 200.7 557.6 202Z" fill="#161616" stroke="#161616" stroke-width="3"/>
<circle cx="513.8" cy="208.9" r="18.1" stroke="#161616" stroke-width="2"/>
<circle cx="555.9" cy="208.9" r="18.1" stroke="#161616" stroke-width="2"/>
<path d="M534 209.5C534.4 209 535.2 208.8 535.7 209.2C536.3 209.7 537.2 209.8 537.8 209.2C538.3 208.7 538.4 207.6 537.8 207.1C536.1 205.6 533.4 205.6 531.9 207.4C531.4 208 531.3 208.9 531.9 209.5C532.4 210.1 533.5 210.1 534 209.5Z" fill="#161616"/>
<path d="M497.2 210.1C499.1 209.1 501 208 502.8 206.8C504.4 205.8 502.9 203.2 501.3 204.2C499.5 205.4 497.6 206.5 495.7 207.5C493.9 208.4 495.5 211 497.2 210.1Z" fill="#161616"/>
<path d="M575.1 209.8C583.4 207.7 591.8 205.7 600.1 203.6C602 203.1 601.2 200.2 599.3 200.7C591 202.8 582.6 204.8 574.3 206.9C572.4 207.4 573.2 210.3 575.1 209.8Z" fill="#161616"/>
</svg>
