<svg width="1301" height="1038" viewBox="0 0 1301 1038" fill="none" xmlns="http://www.w3.org/2000/svg">
<path d="M254.2 862.6C345.8 862.6 437.4 862.6 529 862.6C620.3 862.6 711.6 862.6 802.8 862.6C854.4 862.6 906.1 862.6 957.7 862.6C959.6 862.6 959.6 859.6 957.7 859.6C866.1 859.6 774.5 859.6 682.9 859.6C591.6 859.6 500.3 859.6 409.1 859.6C357.5 859.6 305.8 859.6 254.2 859.6C252.3 859.6 252.3 862.6 254.2 862.6Z" fill="#E8E8E8"/>
<path d="M976.2 800.4C975.4 829.2 978.3 858 984.9 886.1C985.3 888 988.2 887.2 987.8 885.3C981.3 857.5 978.4 829 979.3 800.4C979.2 798.5 976.2 798.5 976.2 800.4Z" fill="#E8E8E8"/>
<path d="M1095.3 802.7C1098.1 829.3 1096.4 856.2 1090.3 882.2C1089.9 884.1 1092.7 884.9 1093.2 883C1099.4 856.7 1101.2 829.6 1098.3 802.7C1098.1 800.8 1095.1 800.8 1095.3 802.7Z" fill="#E8E8E8"/>
<path d="M986.1 888.9C1020.7 897.7 1057.3 896.5 1091.2 885.3C1093 884.7 1092.2 881.8 1090.4 882.4C1056.9 893.4 1021 894.7 986.9 886C985 885.6 984.2 888.5 986.1 888.9Z" fill="#E8E8E8"/>
<path d="M977.6 801.8C1016.5 810.1 1056.8 809.9 1095.6 801.3C1097.5 800.9 1096.7 798 1094.8 798.4C1056.5 806.9 1016.7 807 978.4 798.9C976.5 798.5 975.7 801.4 977.6 801.8Z" fill="#E8E8E8"/>
<path d="M1001.3 802.9C996.1 791.2 1000.8 776.9 1004.7 765.4C1008.7 753.5 1014.4 742.2 1021.4 731.8C1020.6 731.9 1019.8 732 1019 732.1C1021.3 734.7 1023.8 736.5 1026.9 738C1028.1 738.5 1029.4 737.7 1029.1 736.3C1027.9 730.9 1025.8 725.6 1028.2 720.2C1029.9 716.4 1032.3 712.6 1034.3 709C1033.6 709.2 1032.9 709.4 1032.2 709.5C1034.3 710.8 1036.4 712 1038.5 713.3C1039.9 714.2 1041.1 712.5 1040.6 711.2C1038.5 706.6 1037.1 702 1040 697.4C1041.7 694.6 1043.9 692.1 1045.8 689.5C1050 683.9 1054.4 678.3 1058.8 672.8C1067.2 662.3 1075.9 652.1 1084.9 642.1C1084.1 642 1083.3 641.9 1082.5 641.8C1095.3 658.6 1103.4 678.7 1105.6 699.7C1106.7 709.8 1106.4 720.2 1104.6 730.2C1103.7 735.3 1102.4 740.3 1100.8 745.2C1100.5 746.2 1100.1 747.2 1099.8 748.1C1098.7 750.9 1096.9 752.1 1094 752.7C1092 753.1 1090.9 752.8 1089.2 754.1C1088.4 754.7 1088.2 755.7 1088.9 756.5C1091.1 758.8 1092 759.2 1091.2 762.3C1090.7 764.3 1089.5 766.4 1088.6 768.4C1086.8 772.4 1084.8 776.3 1082.7 780.1C1078.4 787.9 1073.5 795.3 1068 802.3C1066.8 803.8 1068.9 805.9 1070.1 804.4C1080.7 790.8 1089.1 775.9 1095.4 759.9C1095.6 759.4 1095.4 758.8 1095 758.4C1093.7 757.1 1092.4 755.7 1091 754.4C1090.9 755.2 1090.8 756 1090.7 756.8C1093 755.2 1095.6 756.3 1098 755.3C1099.9 754.6 1100.9 753.2 1101.7 751.4C1103.9 746.7 1105.3 741.3 1106.5 736.3C1109 725.3 1109.8 714 1109 702.8C1107.3 680.2 1099 658.3 1085.2 640.3C1084.7 639.6 1083.6 639.2 1082.8 640C1071.7 652.3 1061 665 1050.8 678C1046.2 683.8 1041.3 689.6 1037.3 695.9C1033.7 701.6 1035.4 707 1037.9 712.8C1038.6 712.1 1039.3 711.4 1040 710.7C1037.9 709.4 1035.8 708.2 1033.7 706.9C1033 706.5 1032 706.7 1031.6 707.4C1029.1 712 1025.2 717.1 1023.8 722.2C1022.6 726.7 1025.1 732.6 1026.1 737C1026.8 736.4 1027.6 735.9 1028.3 735.3C1025.4 734 1023.1 732.3 1021 729.9C1020.3 729.1 1019.1 729.4 1018.6 730.2C1010.8 741.8 1004.7 754.5 1000.5 767.9C996.9 779.5 993.4 792.7 998.5 804.3C999.5 806.1 1002.1 804.6 1001.3 802.9Z" fill="#E8E8E8"/>
<path d="M1082.7 664.8C1078.7 710.1 1047.7 746.4 1034.8 789C1034.2 790.9 1037.1 791.6 1037.7 789.8C1050.6 746.9 1081.7 710.5 1085.7 664.8C1085.9 662.8 1082.8 662.9 1082.7 664.8Z" fill="#E8E8E8"/>
<path d="M1044.9 688.9C1048.1 705.4 1051.8 721.7 1056 737.9C1056.5 739.8 1059.4 739 1058.9 737.1C1054.7 720.9 1051 704.5 1047.8 688.1C1047.5 686.2 1044.6 687 1044.9 688.9Z" fill="#E8E8E8"/>
<path d="M1078.7 699.5C1087.4 693.2 1094.9 685.7 1101.4 677C1102.6 675.5 1100 674 1098.8 675.5C1092.7 683.7 1085.5 690.9 1077.2 696.9C1075.7 698.1 1077.2 700.7 1078.7 699.5Z" fill="#E8E8E8"/>
<path d="M1069.4 656.7C1072.1 665.3 1073.7 675.8 1080.3 682.3C1081.7 683.7 1083.8 681.5 1082.4 680.2C1076.3 674.1 1074.7 663.8 1072.2 655.9C1071.7 654.1 1068.8 654.9 1069.4 656.7Z" fill="#E8E8E8"/>
<path d="M995.3 802.1C989.2 797.3 985.5 790.6 982.4 783.6C978.9 775.4 975.9 767 973.2 758.5C968.1 742.2 964.4 725.4 962.2 708.5C957.7 673.1 961.3 637.3 957 601.8C956.1 602.1 955.1 602.3 954.2 602.6C965.4 627.8 991.6 642.9 1013.4 657.9C1013.2 657.2 1013 656.5 1012.9 655.8C1009.9 660.1 1006.9 664.4 1003.9 668.7C1003.2 669.7 1004.1 671 1005.2 671C1009.1 671 1012.5 670.5 1016.2 669.2C1015.6 669 1015.1 668.7 1014.5 668.5C1018.2 674.2 1021.9 679.9 1025.6 685.6C1025.7 685 1025.8 684.4 1025.8 683.8C1024 685.5 1022.5 687.4 1021 689.5C1020.5 690.2 1021 691.6 1021.9 691.7C1030.1 692.9 1033 700.7 1035.1 707.7C1035.7 709.5 1038.6 708.8 1038 706.9C1035.5 699 1031.9 690.1 1022.7 688.8C1023 689.5 1023.3 690.3 1023.6 691C1024.9 689 1026.2 687.6 1027.9 686C1028.4 685.6 1028.5 684.7 1028.1 684.2C1024.4 678.5 1020.7 672.8 1017 667.1C1016.7 666.6 1016 666.2 1015.3 666.4C1011.9 667.5 1008.6 668.1 1005.1 668C1005.5 668.8 1006 669.5 1006.4 670.3C1009.4 666 1012.4 661.7 1015.4 657.4C1015.9 656.7 1015.5 655.8 1014.9 655.3C993.5 640.6 967.8 625.9 956.8 601.1C956.2 599.8 953.8 600.4 954 601.9C958.4 638.7 954.5 675.9 959.7 712.6C962.2 730.3 966.3 747.7 972 764.6C976.6 778.3 981.4 795 993.1 804.3C994.7 805.4 996.8 803.3 995.3 802.1Z" fill="#E8E8E8"/>
<path d="M954.8 604.8C962.9 627.2 969.7 650.8 980.6 672.1C986 682.6 991.9 692.9 997 703.6C1002.5 715.2 1007.4 727 1012.4 738.7C1013.1 740.5 1015.7 738.9 1015 737.2C1010.3 726 1005.5 714.8 1000.4 703.8C995.4 693 989.6 682.7 984 672.2C972.8 650.8 965.9 626.8 957.6 604.1C957 602.2 954.1 603 954.8 604.8Z" fill="#E8E8E8"/>
<path d="M958.6 680.8C969.4 682.1 981.2 682.7 989.4 690.8C990.8 692.2 992.9 690 991.5 688.7C982.7 680.1 970.2 679.3 958.6 677.9C956.7 677.6 956.7 680.6 958.6 680.8Z" fill="#E8E8E8"/>
<path d="M987.5 640.3C985.7 646.8 984.5 653.5 984 660.3C983.6 666.1 982.9 672.9 984.9 678.5C985.5 680.3 988.4 679.5 987.8 677.7C985.9 672.4 986.6 665.8 987 660.2C987.5 653.7 988.7 647.3 990.4 641C990.9 639.2 988 638.4 987.5 640.3Z" fill="#E8E8E8"/>
<path d="M965.4 735.3C973.2 735.5 980.7 735.6 988.3 737.7C995.8 739.8 1003.2 742 1010.7 744.2C1012.6 744.7 1013.4 741.8 1011.5 741.3C1003.5 739 995.6 736.5 987.5 734.4C980.2 732.5 972.9 732.6 965.4 732.4C963.5 732.2 963.5 735.2 965.4 735.3Z" fill="#E8E8E8"/>
<path d="M1074.8 799.3C1081.5 798.4 1088.1 798.4 1094.8 799.3C1094.5 798.6 1094.2 797.8 1093.9 797.1C1093.3 798 1087.3 798.1 1086.1 798.2C1083.4 798.6 1080.6 799 1077.9 799.6C1077.5 799.7 1074.8 800 1074.7 800.3C1074.9 799.8 1078.9 799.9 1079.5 799.9C1082.4 799.9 1085.3 800.2 1088.2 800.4C1088.2 799.4 1088.2 798.4 1088.2 797.4C1085.7 797.3 1083.5 797.6 1081 798.3C1079.4 798.7 1079.7 801.2 1081.4 801.2C1085.3 801.2 1088.8 800.4 1092.6 799.4C1094.5 798.9 1093.7 796 1091.8 796.5C1088.4 797.4 1085 798.2 1081.4 798.2C1081.5 799.2 1081.7 800.2 1081.8 801.1C1083.9 800.5 1086 800.3 1088.2 800.3C1090.1 800.3 1090.1 797.4 1088.2 797.3C1083.8 797.1 1077.4 795.5 1073.4 798C1071.8 799 1069.5 801.6 1071.6 803.2C1072.5 803.9 1073.5 803.5 1074.6 803.4C1077.6 802.8 1080.5 802.1 1083.5 801.6C1087 801 1094 801.9 1096.4 798.6C1096.9 797.9 1096.4 796.5 1095.5 796.4C1088.5 795.4 1081.7 795.4 1074.7 796.3C1072.9 796.5 1072.9 799.5 1074.8 799.3Z" fill="#E8E8E8"/>
<path d="M978.9 801.2C980.3 800.8 981.7 800.5 983.1 800.4C983.8 800.4 984.4 800.3 985.1 800.4C985.4 800.4 986.8 800.3 986.9 800.4C986.8 799.9 986.6 799.4 986.5 798.9C986.5 799 986.4 799.1 986.4 799.1C987 798.8 987.6 798.4 988.2 798.1C988.1 798.1 988 798.1 988 798.1C988.3 798.4 988.7 798.8 989 799.1C989 799 989 798.9 988.9 798.9C988.4 797 985.6 797.8 986 799.7C986 799.8 986 799.9 986.1 799.9C986.2 800.4 986.7 800.8 987.1 800.9C987.2 800.9 987.3 800.9 987.3 800.9C988.1 801.1 988.8 800.7 989.1 799.9C989.1 799.8 989.2 799.7 989.2 799.7C989.4 799.2 989.2 798.6 988.8 798.2C987.7 797.1 985.3 797.3 983.9 797.3C981.9 797.3 979.8 797.7 977.9 798.2C976.3 798.8 977.1 801.7 978.9 801.2Z" fill="#E8E8E8"/>
<path d="M981.2 821.3C1017.7 827.6 1055.6 830.6 1091.6 819.8C1093.4 819.2 1092.7 816.4 1090.8 816.9C1055.4 827.5 1018 824.6 982 818.4C980.1 818.1 979.3 821 981.2 821.3Z" fill="#E8E8E8"/>
<path d="M1106.9 862.4C1171 862.4 1235.2 862.4 1299.3 862.4C1301.2 862.4 1301.2 859.4 1299.3 859.4C1235.2 859.4 1171 859.4 1106.9 859.4C1104.9 859.4 1104.9 862.4 1106.9 862.4Z" fill="#E8E8E8"/>
<path d="M1058.4 926.7C1118.8 926.7 1179.3 926.7 1239.7 926.7C1241.6 926.7 1241.6 923.7 1239.7 923.7C1179.3 923.7 1118.8 923.7 1058.4 923.7C1056.5 923.7 1056.5 926.7 1058.4 926.7Z" fill="#E8E8E8"/>
<path d="M1085.9 926.4C1078.7 932.4 1071.5 938.3 1064.4 944.3C1062.9 945.5 1065 947.6 1066.5 946.4C1073.7 940.4 1080.9 934.5 1088 928.5C1089.5 927.3 1087.3 925.1 1085.9 926.4Z" fill="#E8E8E8"/>
<path d="M1065.3 947.5C1067.2 947.5 1067.2 944.5 1065.3 944.5C1063.4 944.5 1063.4 947.5 1065.3 947.5Z" fill="#E8E8E8"/>
<path d="M1095.8 944.5C1034.9 944.5 974 944.5 913.1 944.5C911.2 944.5 911.2 947.5 913.1 947.5C974 947.5 1034.9 947.5 1095.8 947.5C1097.7 947.5 1097.7 944.5 1095.8 944.5Z" fill="#E8E8E8"/>
<path d="M912.8 975.5C923.6 966.5 934.7 957.9 946.1 949.6C947.6 948.5 946.2 945.9 944.6 947C933 955.4 921.7 964.2 910.7 973.3C909.2 974.6 911.3 976.7 912.8 975.5Z" fill="#E8E8E8"/>
<path d="M2.4001 920.9C73.0001 920.9 143.6 920.9 214.2 920.9C234.2 920.9 254.2 920.9 274.2 920.9C276.1 920.9 276.1 917.9 274.2 917.9C203.6 917.9 133 917.9 62.4001 917.9C42.4001 917.9 22.4001 917.9 2.4001 917.9C0.500098 917.9 0.500098 920.9 2.4001 920.9Z" fill="#E8E8E8"/>
<path d="M39.3002 947C48.8002 938.9 58.4002 930.8 67.9002 922.7C69.4002 921.4 67.2002 919.3 65.8002 920.6C56.3002 928.7 46.7002 936.8 37.2002 944.9C35.7002 946.1 37.9002 948.3 39.3002 947Z" fill="#E8E8E8"/>
<path d="M4.9001 949.9C70.5001 949.9 136.1 949.9 201.7 949.9C203.6 949.9 203.6 946.9 201.7 946.9C136.1 946.9 70.5001 946.9 4.9001 946.9C3.0001 946.9 3.0001 949.9 4.9001 949.9Z" fill="#E8E8E8"/>
<path d="M178.8 949.3C171.3 957.7 163.6 965.9 155.8 974.1C154.5 975.5 156.6 977.6 157.9 976.2C165.7 968 173.3 959.8 180.9 951.4C182.3 950 180.1 947.9 178.8 949.3Z" fill="#E8E8E8"/>
<path d="M127.6 978.9C185.3 978.9 242.9 978.9 300.6 978.9C302.5 978.9 302.5 975.9 300.6 975.9C242.9 975.9 185.3 975.9 127.6 975.9C125.7 975.9 125.7 978.9 127.6 978.9Z" fill="#E8E8E8"/>
<path d="M86.6999 870.6C111.1 870.6 135.5 870.6 160 870.6C161.9 870.6 161.9 867.6 160 867.6C135.6 867.6 111.2 867.6 86.6999 867.6C84.7999 867.6 84.7999 870.6 86.6999 870.6Z" fill="#E8E8E8"/>
<path d="M178.5 880.4C186 880.4 193.6 880.4 201.1 880.4C203 880.4 203 877.4 201.1 877.4C193.6 877.4 186 877.4 178.5 877.4C176.5 877.4 176.5 880.4 178.5 880.4Z" fill="#E8E8E8"/>
<path d="M124.2 345.7C124.2 362 124.2 378.4 124.2 394.7C124.2 396.6 127.2 396.6 127.2 394.7C127.2 378.4 127.2 362 127.2 345.7C127.2 343.8 124.2 343.8 124.2 345.7Z" fill="#E8E8E8"/>
<path d="M73.9001 397.1C114.1 397.1 154.3 397.1 194.5 397.1C196.4 397.1 196.4 394.1 194.5 394.1C154.3 394.1 114.1 394.1 73.9001 394.1C72.0001 394.1 72.0001 397.1 73.9001 397.1Z" fill="#E8E8E8"/>
<path d="M158.1 398.5C158.1 411.1 158.1 423.6 158.1 436.2C158.1 438.1 161.1 438.1 161.1 436.2C161.1 423.6 161.1 411.1 161.1 398.5C161.1 396.5 158.1 396.5 158.1 398.5Z" fill="#E8E8E8"/>
<path d="M124.8 441.4C156.8 441.4 188.9 441.4 220.9 441.4C222.8 441.4 222.8 438.4 220.9 438.4C188.9 438.4 156.8 438.4 124.8 438.4C122.8 438.4 122.8 441.4 124.8 441.4Z" fill="#E8E8E8"/>
<path d="M931.8 310.6C931.8 314.6 931.8 318.5 931.8 322.5C931.8 324.4 934.8 324.4 934.8 322.5C934.8 318.5 934.8 314.6 934.8 310.6C934.8 308.7 931.8 308.7 931.8 310.6Z" fill="#E8E8E8"/>
<path d="M934.2 313C1003 313 1071.8 313 1140.6 313C1142.5 313 1142.5 310 1140.6 310C1071.8 310 1003 310 934.2 310C932.3 310 932.3 313 934.2 313Z" fill="#E8E8E8"/>
<path d="M936 324C1004.2 324 1072.4 324 1140.5 324C1142.4 324 1142.4 321 1140.5 321C1072.3 321 1004.1 321 936 321C934.1 321 934.1 324 936 324Z" fill="#E8E8E8"/>
<path d="M1140.1 310.6C1139.7 314.7 1139.9 318.8 1140.6 322.9C1140.9 324.8 1143.8 324 1143.5 322.1C1142.8 318.3 1142.7 314.4 1143.1 310.6C1143.3 308.7 1140.3 308.7 1140.1 310.6Z" fill="#E8E8E8"/>
<path d="M948.3 310.7C948.3 282.8 948.3 254.9 948.3 227C948.3 225.1 945.3 225.1 945.3 227C945.3 254.9 945.3 282.8 945.3 310.7C945.3 312.7 948.3 312.7 948.3 310.7Z" fill="#E8E8E8"/>
<path d="M948.3 227.5C956.8 224.1 965.8 224.6 973.7 229.3C975.4 230.3 976.9 227.7 975.2 226.7C966.7 221.7 956.6 220.9 947.5 224.6C945.7 225.3 946.5 228.2 948.3 227.5Z" fill="#E8E8E8"/>
<path d="M973.2 228.6C973.2 255.4 973.2 282.3 973.2 309.1C973.2 311 976.2 311 976.2 309.1C976.2 282.3 976.2 255.4 976.2 228.6C976.2 226.7 973.2 226.7 973.2 228.6Z" fill="#E8E8E8"/>
<path d="M976.6 251C982.7 248.5 989.1 248.9 994.8 252.4C996.5 253.4 998 250.8 996.3 249.8C990 246 982.6 245.3 975.8 248.1C974 248.8 974.8 251.7 976.6 251Z" fill="#E8E8E8"/>
<path d="M994.2 252.3C994.2 271.1 994.2 289.8 994.2 308.6C994.2 310.5 997.2 310.5 997.2 308.6C997.2 289.8 997.2 271.1 997.2 252.3C997.2 250.4 994.2 250.4 994.2 252.3Z" fill="#E8E8E8"/>
<path d="M948.7 250.5C957.2 248.6 965.6 249.2 973.8 252.1C975.6 252.7 976.4 249.8 974.6 249.2C965.9 246.1 956.9 245.7 947.9 247.6C946.1 248 946.9 250.9 948.7 250.5Z" fill="#E8E8E8"/>
<path d="M974.5 285.2C980.9 283.5 987.3 283.3 993.8 284.7C995.7 285.1 996.5 282.2 994.6 281.8C987.6 280.3 980.7 280.4 973.7 282.3C971.9 282.8 972.6 285.7 974.5 285.2Z" fill="#E8E8E8"/>
<path d="M1032 309.7C1032 304.1 1032 298.5 1032 292.9C1032 291 1029 291 1029 292.9C1029 298.5 1029 304.1 1029 309.7C1029 311.6 1032 311.6 1032 309.7Z" fill="#E8E8E8"/>
<path d="M1030.5 293.8C1063 293.8 1095.4 293.8 1127.9 293.8C1129.8 293.8 1129.8 290.8 1127.9 290.8C1095.4 290.8 1063 290.8 1030.5 290.8C1028.5 290.8 1028.5 293.8 1030.5 293.8Z" fill="#E8E8E8"/>
<path d="M1128.9 295.4C1130.8 295.4 1130.8 292.4 1128.9 292.4C1126.9 292.4 1126.9 295.4 1128.9 295.4Z" fill="#E8E8E8"/>
<path d="M1127.4 293.9C1127.4 299 1127.4 304.1 1127.4 309.2C1127.4 311.1 1130.4 311.1 1130.4 309.2C1130.4 304.1 1130.4 299 1130.4 293.9C1130.4 292 1127.4 292 1127.4 293.9Z" fill="#E8E8E8"/>
<path d="M1050.9 291.8C1050.9 286.5 1050.9 281.3 1050.9 276C1050.9 274.1 1047.9 274.1 1047.9 276C1047.9 281.3 1047.9 286.5 1047.9 291.8C1047.9 293.7 1050.9 293.7 1050.9 291.8Z" fill="#E8E8E8"/>
<path d="M1049.4 277C1081.3 277 1113.2 277 1145.2 277C1147.1 277 1147.1 274 1145.2 274C1113.3 274 1081.4 274 1049.4 274C1047.5 274 1047.5 277 1049.4 277Z" fill="#E8E8E8"/>
<path d="M1144.2 275.5C1144.2 279.9 1144.2 284.3 1144.2 288.7C1144.2 290.6 1147.2 290.6 1147.2 288.7C1147.2 284.3 1147.2 279.9 1147.2 275.5C1147.2 273.5 1144.2 273.5 1144.2 275.5Z" fill="#E8E8E8"/>
<path d="M1126.8 294.3C1132.6 294.3 1138.4 294.3 1144.2 294.3C1146.1 294.3 1146.1 291.3 1144.2 291.3C1138.4 291.3 1132.6 291.3 1126.8 291.3C1124.8 291.3 1124.8 294.3 1126.8 294.3Z" fill="#E8E8E8"/>
<path d="M1144 288.8C1143.8 289.9 1143.8 290.9 1144.1 291.9C1144.3 292.7 1145.2 293.2 1145.9 292.9C1146.7 292.7 1147.2 291.8 1146.9 291.1C1146.8 290.6 1146.7 290 1146.8 289.6C1146.9 288.8 1146.6 287.9 1145.8 287.8C1145.1 287.6 1144.1 288 1144 288.8Z" fill="#E8E8E8"/>
<path d="M1072.2 276.2C1073.5 281.3 1073.8 286.5 1073.1 291.8C1072.9 293.7 1075.9 293.7 1076.1 291.8C1076.8 286.3 1076.4 280.8 1075.1 275.4C1074.6 273.6 1071.7 274.4 1072.2 276.2Z" fill="#E8E8E8"/>
<path d="M1094.8 293.6C1095.5 298.6 1095.1 303.5 1093.9 308.3C1093.4 310.2 1096.3 311 1096.8 309.1C1098.2 303.7 1098.5 298.3 1097.7 292.8C1097.5 290.9 1094.6 291.7 1094.8 293.6Z" fill="#E8E8E8"/>
<path d="M1075.2 415.3C1075.2 423.2 1075.2 431 1075.2 438.9C1075.2 440.8 1078.2 440.8 1078.2 438.9C1078.2 431 1078.2 423.2 1078.2 415.3C1078.2 413.3 1075.2 413.3 1075.2 415.3Z" fill="#E8E8E8"/>
<path d="M1052 439.3C1072 439.3 1092 439.3 1112 439.3C1113.9 439.3 1113.9 436.3 1112 436.3C1092 436.3 1072 436.3 1052 436.3C1050.1 436.3 1050.1 439.3 1052 439.3Z" fill="#E8E8E8"/>
<path d="M1017.9 102.9C1017.9 120.9 1017.9 139 1017.9 157C1017.9 158.9 1020.9 158.9 1020.9 157C1020.9 139 1020.9 120.9 1020.9 102.9C1020.9 101 1017.9 101 1017.9 102.9Z" fill="#E8E8E8"/>
<path d="M1021.7 102.8C1044.5 102.8 1067.2 102.8 1090 102.8C1091.9 102.8 1091.9 99.7998 1090 99.7998C1067.2 99.7998 1044.5 99.7998 1021.7 99.7998C1019.8 99.7998 1019.8 102.8 1021.7 102.8Z" fill="#E8E8E8"/>
<path d="M1090.1 102.4C1090.1 119.8 1090.1 137.2 1090.1 154.5C1090.1 156.4 1093.1 156.4 1093.1 154.5C1093.1 137.1 1093.1 119.7 1093.1 102.4C1093.1 100.5 1090.1 100.5 1090.1 102.4Z" fill="#E8E8E8"/>
<path d="M1019 158.7C1043.2 158.7 1067.4 158.7 1091.6 158.7C1093.5 158.7 1093.5 155.7 1091.6 155.7C1067.4 155.7 1043.2 155.7 1019 155.7C1017.1 155.7 1017.1 158.7 1019 158.7Z" fill="#E8E8E8"/>
<path d="M1024.6 109.1C1024.6 122.8 1024.6 136.4 1024.6 150.1C1024.6 152 1027.6 152 1027.6 150.1C1027.6 136.4 1027.6 122.8 1027.6 109.1C1027.6 107.2 1024.6 107.2 1024.6 109.1Z" fill="#E8E8E8"/>
<path d="M1026.8 110.3C1045.5 110.3 1064.3 110.3 1083 110.3C1084.9 110.3 1084.9 107.3 1083 107.3C1064.3 107.3 1045.5 107.3 1026.8 107.3C1024.9 107.3 1024.9 110.3 1026.8 110.3Z" fill="#E8E8E8"/>
<path d="M1081.9 109.1C1081.9 121.8 1081.9 134.4 1081.9 147.1C1081.9 149 1084.9 149 1084.9 147.1C1084.9 134.4 1084.9 121.8 1084.9 109.1C1084.9 107.2 1081.9 107.2 1081.9 109.1Z" fill="#E8E8E8"/>
<path d="M1026.8 151.6C1045.4 151.6 1064 151.6 1082.7 151.6C1084.6 151.6 1084.6 148.6 1082.7 148.6C1064.1 148.6 1045.5 148.6 1026.8 148.6C1024.9 148.6 1024.9 151.6 1026.8 151.6Z" fill="#E8E8E8"/>
<path d="M1062.2 133.6C1054.3 127.6 1066.1 115.1 1071.6 122.6C1076.7 129.4 1068.4 137.6 1061.3 133.8C1059.6 132.9 1058.1 135.5 1059.8 136.4C1064.4 138.9 1070.5 138.2 1073.8 133.9C1077.2 129.6 1076.8 122.8 1072.5 119.2C1068 115.5 1061.6 118 1058.5 122.2C1055.2 126.8 1056.2 132.8 1060.7 136.2C1062.3 137.3 1063.7 134.7 1062.2 133.6Z" fill="#E8E8E8"/>
<path d="M1052.7 148.4C1052.3 140.5 1062 137.5 1068.1 137.5C1075.6 137.5 1078 144.2 1081.1 149.9C1082 151.6 1084.6 150.1 1083.7 148.4C1081.6 144.6 1079.6 139.6 1076.1 136.8C1072.9 134.3 1068.9 134.4 1065.1 134.8C1058.1 135.6 1049.2 139.9 1049.7 148.4C1049.8 150.3 1052.8 150.3 1052.7 148.4Z" fill="#E8E8E8"/>
<path d="M1028.1 141.2C1030.3 137.1 1038.4 138.7 1041.4 140.3C1044.5 142 1046.3 144.8 1047.1 148.2C1047.5 150.1 1050.4 149.3 1050 147.4C1048.8 142.2 1045.2 138.1 1040 136.4C1035.6 135 1028.1 134.9 1025.6 139.6C1024.6 141.4 1027.2 142.9 1028.1 141.2Z" fill="#E8E8E8"/>
<path d="M1033.9 133.8C1030.6 133.7 1031.4 128.8 1032.8 127.1C1034.6 124.9 1038.2 124.6 1040.3 126.7C1042 128.3 1042.5 131.3 1041.1 133.2C1040.1 134.6 1038.6 134.9 1037 134.9C1036.4 134.9 1033.9 135 1033.5 134.5C1032.4 132.9 1029.8 134.4 1030.9 136C1032.1 137.8 1034.6 137.9 1036.6 137.9C1039 138 1041.3 137.4 1043 135.6C1046.2 132.1 1045.1 126.2 1041.3 123.6C1037.2 120.9 1031.5 122.4 1029.4 126.8C1027.6 130.7 1028.9 136.6 1033.9 136.7C1035.9 136.9 1035.9 133.9 1033.9 133.8Z" fill="#E8E8E8"/>
<path d="M421.9 368.7C426.6 372.5 432.4 370.9 436.8 367.2C443 362.1 446.1 353.4 447.3 345.7C450.4 326.1 442.5 307.5 439.4 288.5C433.8 253.2 449.2 215.4 477.8 194.2C491.7 183.8 514.6 172.7 509.2 151.4C508.7 149.5 505.8 150.3 506.3 152.2C511.4 172.5 487.8 182.8 474.9 192.6C463.3 201.5 453.9 213 447.2 225.9C440.6 238.4 436.6 252.3 435.5 266.4C434.2 283.5 438.7 299.4 442.4 315.9C444.6 325.9 446 336.4 444.1 346.6C443.2 351.3 441.6 355.9 439.1 360C436.3 364.4 429.6 371.2 424 366.7C422.6 365.4 420.4 367.5 421.9 368.7Z" fill="#E8E8E8"/>
<path d="M508.1 150.2C496.8 150.7 486.9 141.9 487.5 130.3C488.1 118.2 502.4 107 514.5 110.2C525.3 113.1 533.6 125 530.9 136.1C528.2 147.2 515.7 149.6 506.1 151.2C504.2 151.5 505 154.4 506.9 154.1C519.3 152.1 533.7 147.7 534.5 132.7C535.1 120.5 524.2 107.3 511.7 106.8C498.5 106.2 485.2 117 484.5 130.4C483.9 143.6 495.2 153.8 508.1 153.3C510 153.1 510 150.1 508.1 150.2Z" fill="#E8E8E8"/>
<path d="M493.3 142.4C498.1 130.3 523.7 128.3 526.7 142.7C527.1 144.6 530 143.8 529.6 141.9C525.9 124.3 496.2 126.9 490.4 141.6C489.7 143.4 492.6 144.1 493.3 142.4Z" fill="#E8E8E8"/>
<path d="M508.3 128.9C506.2 127.4 505.4 124.5 506.8 122.3C508.4 119.6 511.8 119.3 514.4 120.7C516.4 121.8 516.8 124.3 515.6 126.2C514.1 128.5 510.9 128.8 508.4 128.2C506.5 127.8 505.7 130.7 507.6 131.1C511.6 132 516.4 131.1 518.4 127.2C520.2 123.7 518.9 119.5 515.3 117.8C511.3 116 506.5 116.8 504.2 120.7C501.9 124.4 503.4 129 506.8 131.4C508.4 132.7 509.9 130.1 508.3 128.9Z" fill="#E8E8E8"/>
<path d="M550.7 98.0998C561.2 70.2998 591.4 56.0998 619.5 54.1998C638.1 52.8998 656.7 55.7998 674.9 59.2998C692.1 62.6998 710 68.0998 727.6 67.4998C742.1 66.9998 757 60.9998 763.8 47.4998C764.7 45.7998 762.1 44.2998 761.2 45.9998C753.3 61.5998 735.1 65.5998 719 64.2998C700.2 62.7998 681.7 57.1998 663.2 54.0998C633.2 49.0998 601.2 48.3998 574.5 65.2998C562.4 72.9998 552.8 83.7998 547.7 97.2998C547.1 99.0998 550 99.8998 550.7 98.0998Z" fill="#E8E8E8"/>
<path d="M775.9 45.7998C802.3 45.7998 828.8 45.7998 855.2 45.7998C857.1 45.7998 857.1 42.7998 855.2 42.7998C828.8 42.7998 802.3 42.7998 775.9 42.7998C773.9 42.7998 773.9 45.7998 775.9 45.7998Z" fill="#E8E8E8"/>
<path d="M774.8 42.6001C770.1 38.0001 775.2 30.2001 778.9 26.7001C783.4 22.3001 789.6 20.6001 795.6 23.0001C796.1 23.2001 797.1 22.9001 797.3 22.3001C800.9 13.9001 809.4 7.80014 818.7 8.20014C828.4 8.60014 836.6 15.9001 839 25.1001C839.2 26.0001 840.4 26.5001 841.2 26.0001C845.6 23.3001 850.1 26.5001 851.9 30.6001C853.5 34.4001 853.1 38.7001 852.7 42.8001C852.5 44.7001 855.5 44.7001 855.7 42.8001C856.3 36.8001 856.7 29.7001 851.9 25.1001C848.5 21.9001 843.8 20.9001 839.8 23.4001C840.5 23.7001 841.3 24.0001 842 24.3001C839.3 14.3001 830.7 6.30014 820.2 5.30014C809.4 4.20014 799 10.9001 794.8 20.8001C795.4 20.6001 795.9 20.3001 796.5 20.1001C788.5 16.9001 780.1 20.3001 774.9 26.9001C771 31.8001 767.6 39.7001 772.9 44.8001C774.1 46.1001 776.2 44.0001 774.8 42.6001Z" fill="#E8E8E8"/>
<path d="M831.7 57.3001C844 55.9001 851.2 68.8001 853.1 79.2001C855.1 89.9001 853.2 100.6 852.1 111.3C850.4 127.4 851.5 146.8 866.8 156.2C868.4 157.2 870 154.6 868.3 153.6C847.4 140.8 856.1 112.3 856.9 92.7001C857.5 77.8001 851.6 52.1001 831.7 54.3001C829.8 54.5001 829.8 57.5001 831.7 57.3001Z" fill="#E8E8E8"/>
<path d="M883.4 139.3C874.4 162 865.5 184.7 856.5 207.3C855.8 209.1 858.7 209.9 859.4 208.1C868.4 185.4 877.3 162.7 886.3 140.1C887 138.3 884.1 137.6 883.4 139.3Z" fill="#E8E8E8"/>
<path d="M884.8 141.2C900.4 140.4 915.9 140.8 931.4 142.6C930.9 142 930.4 141.3 930 140.7C922.6 164.4 916.6 188.4 911.8 212.7C911.4 214.6 914.3 215.4 914.7 213.5C919.5 189.2 925.6 165.2 932.9 141.5C933.2 140.5 932.4 139.7 931.5 139.6C916 137.8 900.5 137.4 884.9 138.2C882.9 138.3 882.9 141.3 884.8 141.2Z" fill="#E8E8E8"/>
<path d="M857.2 210.2C866.4 210.6 875.5 211.1 884.7 211.7C893.6 212.2 903.1 212 911.5 215.4C913.3 216.1 914.1 213.2 912.3 212.5C904.3 209.2 895.2 209.4 886.7 208.9C876.9 208.3 867.1 207.8 857.2 207.3C855.3 207.1 855.3 210.1 857.2 210.2Z" fill="#E8E8E8"/>
<path d="M886.2 151.2C895.8 151.4 905.4 152.1 914.9 153.4C916.8 153.7 917.6 150.8 915.7 150.5C905.9 149.1 896.1 148.3 886.2 148.1C884.2 148.1 884.2 151.1 886.2 151.2Z" fill="#E8E8E8"/>
<path d="M883.3 158C888.7 157.8 894.1 157.9 899.5 158.4C901.4 158.6 901.4 155.6 899.5 155.4C894.1 154.9 888.7 154.7 883.3 155C881.4 155.1 881.4 158.1 883.3 158Z" fill="#E8E8E8"/>
<path d="M876.7 171.5C888.2 170.8 899.1 169.8 910.4 172.6C912.3 173.1 913.1 170.2 911.2 169.7C899.6 166.9 888.5 167.8 876.7 168.5C874.7 168.6 874.7 171.6 876.7 171.5Z" fill="#E8E8E8"/>
<path d="M877.2 180.3C883.8 179.8 890.4 179.8 897 180.4C898.9 180.6 898.9 177.6 897 177.4C890.4 176.8 883.8 176.8 877.2 177.3C875.3 177.5 875.2 180.5 877.2 180.3Z" fill="#E8E8E8"/>
<path d="M872 191.9C881 191.3 889.8 191.6 898.7 192.8C900.6 193.1 900.6 190.1 898.7 189.8C889.8 188.6 880.9 188.3 872 188.9C870.1 189 870.1 192 872 191.9Z" fill="#E8E8E8"/>
<path d="M374.4 57.6999C378.4 63.0999 384.2 65.2999 390.1 67.9999C397.1 71.1999 403.5 75.4999 408.7 81.1999C420.5 93.8999 424.4 111 424.7 127.9C425.4 159.6 414.7 192.8 429.1 222.8C429.9 224.5 432.5 223 431.7 221.3C416.6 189.7 430 154.3 427.4 121.1C426.3 106.7 422.2 92.5999 412.9 81.3999C408.5 76.0999 403.1 71.4999 397.1 68.0999C390.4 64.2999 381.7 62.5999 377 56.1999C375.9 54.6999 373.3 56.1999 374.4 57.6999Z" fill="#E8E8E8"/>
<path d="M340.2 15.4001C337.6 12.1001 337.8 9.8001 340.8 8.5001C342.1 7.8001 343.4 7.3001 344.9 7.0001C346.8 6.6001 348.9 6.5001 350.9 6.6001C356.9 6.9001 363 8.5001 362.7 15.8001C362.4 24.4001 360.8 32.9001 358.7 41.2001C356.5 49.7001 353.8 58.0001 350.9 66.3001C350.3 68.1001 349.8 70.2001 348.9 71.9001C347.1 75.0001 344.3 74.9001 341.3 74.9001C337.6 74.9001 332.9 75.4001 329.3 74.4001C325.3 73.3001 324.4 69.3001 328.3 66.7001C330.1 65.5001 332.6 65.3001 334.7 65.3001C337.4 65.3001 339.8 65.9001 342.1 64.1001C346.5 60.7001 347.2 51.5001 348.2 46.6001C349.7 39.5001 352.2 30.8001 351.7 23.6001C351.3 18.1001 345.9 17.9001 342 15.6001C340.3 14.6001 338.8 17.2001 340.5 18.2001C343.6 20.0001 348.1 20.2001 348.7 24.3001C349.4 29.1001 347.4 35.6001 346.5 40.4001C345.6 45.0001 344.6 49.6001 343.4 54.1001C342.5 57.5001 342.1 61.6001 337.6 62.5001C335.8 62.9001 333.6 62.3001 331.7 62.6001C326.9 63.3001 322.2 66.7001 322.9 72.1001C323.8 78.9001 331.9 77.7001 336.9 77.9001C343.1 78.1001 349.3 79.0001 352.1 72.4001C355.6 64.2001 358.1 55.2001 360.5 46.7001C363 37.9001 364.9 28.8001 365.6 19.7001C366.2 12.6001 366.5 6.9001 358.6 5.0001C351.7 3.3001 342.2 2.5001 336.8 8.1001C333.2 11.8001 334.1 19.1001 340.3 18.6001C342.1 18.2001 342.1 15.2001 340.2 15.4001Z" fill="#E8E8E8"/>
<path d="M328.1 26.0998C328 25.9998 327.9 25.8998 327.8 25.7998C327.4 25.3998 326.8 25.2998 326.3 25.3998C323.4 26.3998 322.3 31.0998 321.5 33.6998C320.1 38.4998 319.8 43.3998 320.5 48.3998C320.7 50.2998 323.7 50.2998 323.5 48.3998C323.1 44.8998 323 41.4998 323.6 37.9998C323.9 36.1998 327 29.1998 325.9 28.1998C327.3 29.5998 329.4 27.4998 328.1 26.0998Z" fill="#E8E8E8"/>
<path d="M318 15.1C308.8 26.8 302.9 40.9 306.8 55.9C307.3 57.8 310.2 57 309.7 55.1C306.1 41.3 311.7 28 320.1 17.2C321.3 15.7 319.2 13.6 318 15.1Z" fill="#E8E8E8"/>
<path d="M305.4 1.59984C290.1 21.6998 282.9 47.0998 285.5 72.2998C285.7 74.1998 288.7 74.1998 288.5 72.2998C286 47.5998 292.9 22.8998 308 3.09984C309.1 1.59984 306.5 0.099836 305.4 1.59984Z" fill="#E8E8E8"/>
<path d="M284.1 103.8C276.4 107.5 269.2 112.6 263.5 119C257.7 125.6 255.9 132.7 255 141.3C253 161 245.7 182.6 225.9 190.9C224.1 191.6 224.9 194.5 226.7 193.8C242.5 187.2 251.7 172.2 255.6 156C257.9 146.3 256.8 134.8 261.9 126.1C267.1 117.2 276.5 110.7 285.6 106.3C287.4 105.6 285.9 103 284.1 103.8Z" fill="#E8E8E8"/>
<path d="M183.6 244C177 244.2 169.5 241.4 167.1 234.6C164.3 226.6 170.3 218.8 176.7 214.7C189.1 206.7 205.8 203.6 220.2 203.4C227.5 203.3 235.8 203.4 242.2 207.3C250.4 212.3 251.8 221.7 245.4 228.8C235.7 239.6 219 240.7 205.6 241.7C203.7 241.8 203.7 244.8 205.6 244.7C219 243.7 234 242.5 244.8 233.5C254.7 225.3 255.4 211.7 243.8 204.6C231.8 197.3 213.5 199.7 200.5 202.5C188 205.2 170.9 210.1 165.3 223C159.5 236.2 170.6 247.2 183.8 246.8C185.6 246.9 185.6 243.9 183.6 244Z" fill="#E8E8E8"/>
<path d="M183.1 245.2C180.6 249.2 178.2 253.2 175.7 257.1C174.9 258.4 176.5 259.8 177.8 259.2C183.9 255.9 190.5 253.8 196.7 250.9C200.1 249.4 203.4 247.6 206.6 245.6C207.7 244.9 209 244.5 209.3 243.1C209.5 242.4 209.1 241.4 208.3 241.3C208.2 241.3 208.1 241.3 208 241.2C207.3 241.1 206.3 241.4 206.2 242.2C206.2 242.3 206.2 242.3 206.2 242.4C205.8 244.3 208.7 245.1 209.1 243.2C209.1 243.1 209.1 243.1 209.1 243C208.5 243.3 207.9 243.7 207.3 244C207.4 244 207.5 244 207.6 244.1C207.3 243.5 206.9 242.9 206.6 242.3C206.3 243.3 200.7 245.6 199.5 246.3C196.5 247.9 193.4 249.2 190.2 250.5C185.5 252.4 180.9 254.2 176.5 256.6C177.2 257.3 177.9 258 178.6 258.7C181.1 254.7 183.5 250.7 186 246.8C186.7 245.1 184.1 243.6 183.1 245.2Z" fill="#E8E8E8"/>
<path d="M186.4 227.9C186.3 227.7 186.3 227.3 186.6 227.3C187.4 227.3 186.5 228.3 186.4 228.4C185.9 228.7 184.2 229.1 184.3 228.1C184.4 226.9 186.7 225.6 187.1 227.4C187.2 227.9 186.8 228.5 186.3 228.6C186 228.7 185.8 228.7 185.6 228.5C185.5 228.4 185.3 228.3 185.5 228.3C187.4 228.4 187.4 225.4 185.5 225.3C183.5 225.1 182 227.2 182.5 229.1C183 231 185.2 232 187 231.5C188.8 231 190.2 229.4 190.2 227.5C190.2 225.6 188.7 224 187 223.6C183.3 222.7 179.4 228.1 182.6 230.8C185.2 233 190.4 231 190.1 227.3C189.9 225.3 187.7 223.7 185.7 224.4C183.7 225.1 182.9 227.6 183.9 229.4C184.7 231.1 187.3 229.6 186.4 227.9Z" fill="#E8E8E8"/>
<path d="M208.5 225.2C208.4 224.6 208.1 223.8 208.7 223.3C209 223 209.5 223 209.9 223C210.9 223.2 210.7 224.3 210 224.8C209.6 225.1 209.2 225.1 208.9 224.7C208.6 224.3 208.7 224.2 209 224C209.2 223.9 208.6 224 209.1 223.9C210.3 223.7 208.3 225.1 208.6 224.1C208 226 210.9 226.7 211.5 224.9C212 223.1 210.3 221.3 208.5 221.6C206.4 222 205.9 224.5 207.2 226C208.4 227.4 210.6 227.1 211.5 225.5C212.4 223.9 211.8 221.8 210 221.2C208.2 220.6 206.2 221.7 205.8 223.5C205.3 225.5 206.7 227.5 208.7 228C212.3 228.8 215.3 223.9 212.7 221.2C211.4 219.9 209.3 219.8 207.7 220.5C205.5 221.6 205.4 223.9 205.8 226C205.9 227.9 208.8 227.1 208.5 225.2Z" fill="#E8E8E8"/>
<path d="M230.7 218.5C231.1 218.5 231.5 218.6 232 218.6V218.5C232.1 218.4 232.1 218.2 232.2 218.1C232.3 217.9 232.6 217.7 232.8 217.6C233.3 217.4 233.8 217.4 234.1 217.9C234.5 218.7 233.8 220.2 232.8 219.6C232.2 219.2 232.1 218.2 233 218.4C233.2 218.4 233.3 218.5 233.4 218.6C233.4 218.6 233.4 218.8 233.4 218.6C233.4 218.4 233.4 218.7 233.3 218.7C233 218.9 232.9 219.1 232.6 218.9C231.9 218.4 230.9 218.8 230.5 219.4C230.1 220.2 230.4 221 231 221.5C233.9 223.6 237.8 219.4 235.5 216.6C233.4 214.1 228.9 215.7 229.1 219C229.2 220.7 230.5 222.2 232.1 222.6C233.7 223 235.4 222.2 236.3 220.8C238.3 217.7 235.5 213.4 231.8 214.6C230.1 215.2 228.6 216.9 228.8 218.8C229 220.9 232 222 233.1 219.9C234.1 218.3 231.6 216.8 230.7 218.5Z" fill="#E8E8E8"/>
<path d="M291.1 131.3C303.4 124.5 314.1 115.5 323 104.6C324.2 103.1 322.1 101 320.9 102.5C312.2 113.2 301.7 122 289.6 128.7C287.9 129.6 289.4 132.2 291.1 131.3Z" fill="#E8E8E8"/>
<path d="M440.7 133.9C438.5 146.5 437.6 159.2 438.2 172C438.3 173.9 441.3 173.9 441.2 172C440.6 159.5 441.4 147 443.6 134.7C443.9 132.8 441 132 440.7 133.9Z" fill="#E8E8E8"/>
<path d="M425.4 426.2C425.4 410.9 432.6 396.4 444.9 387.2C446.4 386.1 444.9 383.5 443.4 384.6C430.2 394.4 422.5 409.7 422.5 426.2C422.4 428.1 425.4 428.1 425.4 426.2Z" fill="#E8E8E8"/>
<path d="M592.9 830C594.5 844.4 597 860.2 601 877.3C606.4 900.4 613.3 920.6 620.2 937.6C618.3 939.3 612.6 943.8 604.2 944.4C598.9 944.8 594.7 943.5 592.3 942.6C588.7 930.1 585.2 917.1 582 903.6C575.4 875.8 570.6 849.3 567.1 824.6C575.8 826.4 584.4 828.2 592.9 830Z" fill="#191919"/>
<path d="M817.4 820.6C816.1 834.9 813.9 850.8 810.2 867.9C805 892.1 798.1 913.1 791.1 930.8C792.1 931.7 797.8 937.1 806.6 936.7C814.2 936.4 819.1 931.9 820.3 930.8C822.6 918.7 824.8 906.5 827 894.3C831.8 867.6 836.1 841.3 840.2 815.3C832.6 817 825 818.8 817.4 820.6Z" fill="#191919"/>
<path d="M638.6 780.7C640.9 796 643.6 811.8 646.7 828C651.2 851.5 656.3 873.9 661.7 895.1C659.4 896.5 654.8 898.8 648.5 899.2C643.2 899.5 639 898.3 636.6 897.4C633.6 883.2 630.7 868.8 627.8 854.4C622.5 827.7 617.6 801.4 612.9 775.4C621.5 777.1 630 778.9 638.6 780.7Z" fill="#191919"/>
<path d="M779.7 777.7C777 792.8 774.6 808.6 772.5 825C769.6 847.6 767.6 869.2 766.4 889.8C768.1 890.9 772.1 893.2 777.8 893.5C783.9 893.7 788.4 891.3 790.1 890.3C789.1 878.5 788.7 865.4 789.3 851.4C790.5 820.3 796.2 793.5 802.5 772.4C794.9 774.1 787.3 775.9 779.7 777.7Z" fill="#191919"/>
<path d="M957.4 443.1C974.9 474.3 961.4 508.8 928.6 594.5C912.8 635.7 883.9 711.4 843.1 819.3C803 833.9 736.6 851.9 654.5 846.2C606.8 842.9 566.8 832.6 536.5 822C532 813.9 516.4 783.6 528.1 754.2C534.6 737.9 547.7 726.2 575.5 712.4C602.9 698.8 651.2 679.7 721.4 676.2C693.9 539.3 741 427.1 814.3 401.2C862.4 384.3 933.3 400.2 957.4 443.1Z" fill="white" stroke="#191919" stroke-width="2"/>
<path d="M951 454.4C922 491.1 915.4 540.4 904.3 584.5C892.4 631.7 878.7 678.8 858.2 723.1C846.9 747.4 833.6 770.8 817.7 792.4C816.6 794 819.2 795.5 820.3 793.9C848.2 755.9 867.9 712.8 883.1 668.4C898.5 623.2 908.7 576.6 920.7 530.5C927.5 504.3 936.2 478.1 953.2 456.6C954.3 455 952.2 452.9 951 454.4Z" fill="#191919"/>
<path d="M537.1 800.3C603.8 824.8 676.5 832 746.7 821.1C766.8 818 786.7 813.4 806.2 807.4C808 806.8 807.3 803.9 805.4 804.5C737.4 825.5 664.4 828.7 594.8 813.9C575.5 809.8 556.4 804.2 537.9 797.4C536.1 796.7 535.3 799.6 537.1 800.3Z" fill="#191919"/>
<path d="M771.9 721.7C788.7 727.2 803 738.3 812.6 753.3C813.6 754.9 816.2 753.4 815.2 751.8C805.2 736.2 790.3 724.6 772.7 718.8C770.8 718.2 770 721.1 771.9 721.7Z" fill="#191919"/>
<path d="M471.1 851.2C479.1 863.2 487.1 875.3 495 887.3C443.8 933.3 437.2 946.4 441 949.6C448.6 955.9 503.1 927.9 508.7 925C529 914.6 544.3 904.5 554.5 897.3C550.9 887.5 546.1 876.5 539.5 864.9C530.8 849.6 521.2 836.7 512.1 826.2C498.4 834.4 484.7 842.8 471.1 851.2Z" fill="#191919"/>
<path d="M770.3 615.5C773.9 623.3 777.7 634.4 778.3 647.8C779.2 668 772.6 684.1 767.6 693.4C764.9 696.9 760.1 702.7 753 709C753 709 736.9 723.2 711.3 734.1C685.2 745.3 609.3 758.8 506.2 761.4C509.2 774.2 514.6 789.9 524.2 806.8C529.5 816.1 535.3 824.3 541 831.4C537.2 836.4 526.4 849.1 504.9 857.1C484.2 864.8 465.2 863.9 457.7 863.3C446.9 853.4 435.8 841.6 425.5 827.5C395.2 785.8 388.1 745.5 386.8 719.6C394.3 714.2 405.3 706.8 419.7 698.9C449.7 682.4 477.2 673.4 499.8 666.7C538.7 655.3 575.9 647.4 661.5 632.9C688.3 628.4 725.4 622.2 770.3 615.5Z" fill="white" stroke="#191919" stroke-width="2"/>
<path opacity="0.19" d="M675.3 632.7C672.4 651.8 664.2 676.6 638.8 692C614.1 707 593.4 700.9 543.9 712.9C508.3 721.5 461.2 732.9 448.1 758.2C434.4 784.8 460.3 822.3 505.6 853.1C509.4 852.6 514.2 851.6 519.3 849.6C532.4 844.4 538.8 835.9 541.2 832.2C535.4 825.2 529.4 817.1 523.9 807.8C513.5 790.4 507.9 774.2 504.7 761.1C557.7 758.9 602.2 754.3 636 749.9C676.7 744.6 704.9 739.3 731.8 724.1C754.3 711.4 763.3 698.9 766.5 694.1C776.2 679.4 777 666 777.4 658.5C778.4 640.2 772.4 625.3 767.4 615.9C736.7 621.5 706 627.1 675.3 632.7Z" fill="#6C6D6D"/>
<path opacity="0.19" d="M768.4 618C766.4 636.6 759.3 666 731 689.2C713.6 703.5 694.9 709.9 621.5 729.7C589.1 738.4 549.9 748.7 505.3 759.9C562 759.3 608.1 754.6 641.2 750.1C675.5 745.4 692.3 741.3 709.7 733.8C726.2 726.7 759.5 712.3 773.1 682C786.2 652.6 773 626.2 768.4 618Z" fill="#6C6D6D"/>
<path opacity="0.22" d="M505.6 761.4C505.2 774.6 505.8 789.7 508.3 806.3C510.7 822.7 514.6 837.4 518.8 850.2C522.2 848.2 526.1 845.5 529.9 842.2C534.5 838.2 537.9 834.4 540.4 831.1C534.6 823.5 528.7 814.7 523.2 804.8C514.3 788.8 509 774 505.6 761.4Z" fill="#6C6D6D"/>
<path d="M501 908.6C508.7 923.7 516.3 938.8 524 954C474.8 1011.8 468.4 1028.2 472.1 1032.2C479.4 1040.2 531.8 1004.9 537.2 1001.3C556.7 988.2 571.5 975.5 581.3 966.5C577.8 954.2 573.2 940.4 566.8 925.7C558.5 906.5 549.2 890.3 540.5 877C527.3 887.6 514.1 898.1 501 908.6Z" fill="#191919"/>
<path d="M788.6 612.4C792.1 622.3 795.7 636.1 796.3 653C797.2 678.4 790.8 698.6 786 710.3C783.4 714.7 778.8 722 772 730C772 730 756.6 747.9 732 761.6C706.9 775.6 633.9 792.7 534.9 795.9C537.8 812 542.9 831.7 552.2 852.9C557.3 864.6 562.9 874.9 568.4 883.8C564.8 890.1 554.4 906 533.7 916.1C513.8 925.8 495.6 924.7 488.3 923.8C477.9 911.4 467.2 896.5 457.4 878.8C428.2 826.4 421.4 775.7 420.2 743.2C427.4 736.5 438 727.1 451.8 717.2C480.7 696.5 507 685.1 528.8 676.7C566.1 662.4 602 652.5 684.3 634.2C709.7 628.5 745.5 620.8 788.6 612.4Z" fill="white" stroke="#191919" stroke-width="2"/>
<path opacity="0.19" d="M697.3 634C694.5 658 686.6 689.1 662.2 708.5C638.5 727.4 618.5 719.7 571 734.8C536.8 745.6 491.5 760 478.9 791.8C465.7 825.2 490.6 872.4 534.1 911C537.8 910.4 542.4 909.1 547.3 906.6C559.9 900.1 566 889.4 568.3 884.7C562.7 875.9 556.9 865.7 551.6 854C541.6 832.1 536.2 811.8 533.2 795.3C584.2 792.5 626.9 786.8 659.5 781.3C698.7 774.7 725.7 768 751.6 748.9C773.2 732.9 781.9 717.2 784.9 711.2C794.2 692.7 795 675.9 795.4 666.5C796.3 643.5 790.6 624.8 785.8 613C756.3 619.9 726.8 626.9 697.3 634Z" fill="#6C6D6D"/>
<path opacity="0.19" d="M786.7 615.5C784.8 638.8 778 675.8 750.8 705C734 723 716.1 731 645.6 755.9C614.4 766.9 576.8 779.8 533.9 793.9C588.4 793.1 632.8 787.3 664.6 781.6C697.6 775.7 713.8 770.6 730.4 761.2C746.3 752.2 778.2 734.2 791.4 696C803.9 659 791.2 625.9 786.7 615.5Z" fill="#6C6D6D"/>
<path opacity="0.22" d="M534.2 795.8C533.8 812.4 534.4 831.4 536.8 852.2C539.2 872.9 542.8 891.3 546.9 907.3C550.2 904.7 553.9 901.4 557.6 897.2C562 892.2 565.3 887.4 567.7 883.3C562.1 873.7 556.4 862.7 551.2 850.2C542.6 830.2 537.4 811.5 534.2 795.8Z" fill="#6C6D6D"/>
<path d="M495.3 457C493.4 456.1 489.6 454.4 489.7 452.5C489.9 449.4 500.2 447.3 507.9 447.4C513.1 447.4 522.7 448.5 533.9 456.3C523.4 459.6 507.9 462.6 495.3 457Z" fill="white" stroke="#191919" stroke-width="2"/>
<path d="M735.8 327.3C716.8 324.8 699.7 353.3 698.1 355.9C692.3 365.8 691.6 372.4 687.6 390.5C677.9 434.6 672.7 457 658.3 470.5C645.3 482.6 630.1 485.5 626.1 486.1C609 488.8 593.5 482.4 563.3 469.5C537.8 458.6 534.7 454.6 520.8 453C513.7 452.2 493 449.9 479.3 463.2C470.5 471.7 466.6 485.3 469.8 488.1C473.9 491.7 490.7 479 490.9 479.3C491 479.5 485.9 481.9 481.7 487.1C479.6 489.6 476 495 477.3 496.4C479.6 499.2 493.7 482.2 509.2 485.2C519.8 487.2 521.8 496.8 534.1 498.6C541.3 499.7 547.6 497.5 551.6 495.6C558.6 503.2 570 514 586.5 522.8C596.3 528 630.9 545.9 673.2 535.5C718.1 524.5 740.7 489.4 747.8 478.4C751.8 472.1 781.2 425.1 767 372.4C764.5 363.9 755.4 329.9 735.8 327.3Z" fill="white" stroke="#191919" stroke-width="2"/>
<path opacity="0.25" d="M733.8 327.6C727.3 331 739.9 354.6 738.3 388.4C736.8 420.9 722.9 444.9 716.7 455.9C708.3 470.6 697.2 489.8 675.1 502.3C645.4 519.1 608.6 516.6 582.4 505.2C574.6 501.8 566.7 490.8 549.5 484.1C542 481.2 536.1 480 529.2 478.6C512.3 475.3 497.3 472.3 483.4 479.3C476.8 482.7 471.3 487.9 471.7 488.6C472.1 489.3 479.8 485.4 486.6 481.7C478.4 492.6 477.1 495.7 477.7 496.3C478.4 496.9 480.9 494.6 487.3 491C494.2 487.2 499.2 484.5 505.3 485C508.4 485.3 510.8 486.3 512.2 486.9C517.7 489.3 519 492.1 524.5 494.9C527.9 496.6 530.7 497.3 532.2 497.6C535.4 498.3 542 499.2 550.7 496.1C558.3 504.1 593.2 539.5 644.3 538.8C670.6 538.4 689.9 528.6 697.5 524.7C739.2 503 755.8 464.5 760 453.9C773 421.1 777.6 372.5 753.8 342C748.1 334.6 738.3 325.3 733.8 327.6Z" fill="#6C6D6D"/>
<path d="M471.6 488.1C475.5 482.3 480.6 477.7 486.7 474.4C488 473.7 486.8 471.8 485.6 472.5C479.2 476 473.8 480.9 469.7 487C468.8 488.2 470.8 489.3 471.6 488.1Z" fill="#191919"/>
<path d="M472.8 475.2C476.7 469.1 483 465.9 489.3 462.8C490.6 462.2 489.5 460.2 488.2 460.9C481.5 464.1 474.9 467.6 470.8 474.1C470.1 475.3 472 476.4 472.8 475.2Z" fill="#191919"/>
<path opacity="0.29" d="M762.5 363.6C761 373.7 758.3 388.3 753.5 405.5C744.1 439.5 735.6 470.1 713.4 494.4C685.9 524.4 648.6 532.6 627.2 535.1C643.1 538.8 655.6 538.1 663.5 537C723.5 528.6 755.9 464.1 764.7 435.9C766.2 430.9 769.4 420.6 769.8 406.5C770.5 387.7 765.9 372.6 762.5 363.6Z" fill="#6C6D6D"/>
<path opacity="0.26" d="M511.2 484C516.9 486.8 524.7 489.9 534.3 491.7C541.9 493.1 548.7 493.4 554.1 493.2C540.4 500.5 533.3 499.6 529.3 497.2C526.8 495.7 524 492.7 516.3 487.4C514.2 485.9 512.4 484.7 511.2 484Z" fill="#6C6D6D"/>
<path d="M309 648.4C309 696.4 309 744.5 309 792.5C309 798.3 318 798.3 318 792.5C318 744.5 318 696.4 318 648.4C318 642.7 309 642.6 309 648.4Z" fill="#161616"/>
<path d="M472.6 646.5C472.6 654.2 472.6 661.9 472.6 669.6C472.6 675.4 481.6 675.4 481.6 669.6C481.6 661.9 481.6 654.2 481.6 646.5C481.6 640.7 472.6 640.7 472.6 646.5Z" fill="#161616"/>
<path d="M184.8 642.5C233.3 596.8 281.8 551 330.4 505.3C408.9 506.7 487.3 508.1 565.8 509.5C553 553.9 540.2 598.2 527.4 642.6C413.2 642.5 299 642.5 184.8 642.5Z" fill="white" stroke="#191919" stroke-width="2"/>
<path d="M187.7 647.7C275.4 647.7 363 647.7 450.7 647.7C475.3 647.7 499.8 647.7 524.4 647.7C530.2 647.7 530.2 638.7 524.4 638.7C436.7 638.7 349.1 638.7 261.4 638.7C236.8 638.7 212.3 638.7 187.7 638.7C181.9 638.7 181.9 647.7 187.7 647.7Z" fill="#161616"/>
<path d="M213.4 646.2C213.4 745.7 213.4 845.2 213.4 944.6C213.4 972.5 213.4 1000.3 213.4 1028.2C213.4 1034 222.4 1034 222.4 1028.2C222.4 928.7 222.4 829.2 222.4 729.8C222.4 701.9 222.4 674.1 222.4 646.2C222.4 640.4 213.4 640.4 213.4 646.2Z" fill="#161616"/>
<path d="M487.7 646.2C487.7 745.7 487.7 845.2 487.7 944.6C487.7 972.5 487.7 1000.3 487.7 1028.2C487.7 1034 496.7 1034 496.7 1028.2C496.7 928.7 496.7 829.2 496.7 729.8C496.7 701.9 496.7 674.1 496.7 646.2C496.7 640.4 487.7 640.4 487.7 646.2Z" fill="#161616"/>
<path d="M217.9 831.9C288.5 831.9 359.1 831.9 429.7 831.9C449.7 831.9 469.7 831.9 489.7 831.9C495.5 831.9 495.5 822.9 489.7 822.9C419.1 822.9 348.5 822.9 277.9 822.9C257.9 822.9 237.9 822.9 217.9 822.9C212.1 822.9 212.1 831.9 217.9 831.9Z" fill="#161616"/>
<path d="M564.6 509.5C553.2 554 540.1 598.1 525.1 641.5C523.8 645.2 529.6 646.7 530.9 643.1C545.9 599.6 559 555.6 570.4 511.1C571.3 507.4 565.6 505.8 564.6 509.5Z" fill="#161616"/>
<path d="M85.8002 1038C138.9 1038 191.9 1038 245 1038C250.8 1038 250.8 1029 245 1029C191.9 1029 138.9 1029 85.8002 1029C80.0002 1029 80.0002 1038 85.8002 1038Z" fill="#161616"/>
<path d="M267.3 1036C279.5 1036 291.8 1036 304 1036C309.8 1036 309.8 1027 304 1027C291.8 1027 279.5 1027 267.3 1027C261.5 1027 261.5 1036 267.3 1036Z" fill="#161616"/>
<path d="M426.5 1037.3C474.3 1037.3 522.1 1037.3 570 1037.3C575.8 1037.3 575.8 1028.3 570 1028.3C522.2 1028.3 474.4 1028.3 426.5 1028.3C420.7 1028.3 420.7 1037.3 426.5 1037.3Z" fill="#161616"/>
<path d="M602.7 1034.1C611.2 1034.1 619.7 1034.1 628.3 1034.1C634.1 1034.1 634.1 1025.1 628.3 1025.1C619.8 1025.1 611.3 1025.1 602.7 1025.1C596.9 1025.1 596.9 1034.1 602.7 1034.1Z" fill="#161616"/>
<path d="M37.6 1006.3C58.3 1006.3 79 1006.3 99.6 1006.3C105.4 1006.3 105.4 997.3 99.6 997.3C78.9 997.3 58.2 997.3 37.6 997.3C31.8 997.3 31.8 1006.3 37.6 1006.3Z" fill="#161616"/>
<path d="M475 623.6C413.3 622 351.5 620.5 289.8 618.9C326.4 583.9 362.9 548.8 399.5 513.8C441.7 516 484 518.2 526.2 520.4C509.1 554.9 492.1 589.2 475 623.6Z" fill="white" stroke="#191919" stroke-width="2"/>
<path d="M397.4 513.1C361.5 547.8 325.6 582.6 289.7 617.3C288.1 561.7 286.4 506 284.8 450.4C321.2 427.4 357.6 404.4 394 381.4C395 425.3 396.2 469.2 397.4 513.1Z" fill="white" stroke="#191919" stroke-width="2"/>
<path d="M288.1 455.7C291 505.2 292.9 554.8 293.9 604.4C293.9 605.4 295.4 605.4 295.4 604.4C294.4 554.8 292.5 505.2 289.6 455.7C289.5 454.8 288 454.8 288.1 455.7Z" fill="#191919"/>
<path d="M288.9 455.9C322.4 434.1 355.9 412.3 389.4 390.5C390.2 390 389.5 388.7 388.6 389.2C355.1 411 321.6 432.8 288.1 454.6C287.3 455.2 288 456.5 288.9 455.9Z" fill="#191919"/>
<path d="M389 390.4C388.9 430.3 390.1 470.3 392.7 510.1C392.8 511.1 394.3 511.1 394.2 510.1C391.7 470.2 390.4 430.3 390.5 390.4C390.5 389.5 389 389.5 389 390.4Z" fill="#191919"/>
<path d="M294.9 606.5C327.7 574.8 360.6 543.1 393.4 511.5C394.1 510.8 393 509.8 392.3 510.4C359.5 542.1 326.6 573.8 293.8 605.4C293.2 606.1 294.2 607.2 294.9 606.5Z" fill="#191919"/>
<path d="M446.8 589.5C452.9 579.8 459 570 464.9 560.1C465.4 559.3 464.1 558.5 463.6 559.3C457.7 569.2 451.6 579 445.5 588.7C444.9 589.5 446.2 590.3 446.8 589.5Z" fill="#191919"/>
<path d="M464.5 559.8C472.4 560.1 480.3 560.1 488.2 559.7C489.2 559.7 489.2 558.2 488.2 558.2C480.3 558.5 472.4 558.5 464.5 558.3C463.5 558.3 463.5 559.8 464.5 559.8Z" fill="#191919"/>
<path d="M487.2 559.3C482.7 569.1 478.1 578.9 473.5 588.7C473.1 589.6 474.4 590.3 474.8 589.5C479.4 579.7 484 569.9 488.5 560.1C488.9 559.1 487.6 558.4 487.2 559.3Z" fill="#191919"/>
<path d="M446.3 590.3C455.1 591.6 464.4 591 473.3 590.6C474.3 590.6 474.3 589.1 473.3 589.1C464.6 589.5 455.4 590.1 446.7 588.9C445.7 588.7 445.3 590.2 446.3 590.3Z" fill="#191919"/>
<path d="M479.1 559.4C475.1 569.4 470.5 579.1 465.3 588.5C464.8 589.3 466.1 590.1 466.6 589.3C471.8 579.7 476.5 569.9 480.6 559.8C480.9 558.9 479.5 558.5 479.1 559.4Z" fill="#191919"/>
<path d="M334.2 604.7C356.2 577.5 379 550.9 402.5 524.9C403.1 524.2 402.1 523.1 401.4 523.8C377.9 549.7 355.1 576.3 333.1 603.6C332.5 604.4 333.6 605.4 334.2 604.7Z" fill="#191919"/>
<path d="M360.8 606.4C380.5 578.9 401.3 552.3 423.1 526.5C423.7 525.8 422.7 524.7 422 525.4C400.1 551.3 379.3 578 359.5 605.6C358.9 606.4 360.2 607.2 360.8 606.4Z" fill="#191919"/>
<path d="M389.4 610.5C406.5 581.9 425.2 554.3 445.4 527.8C446 527 444.7 526.3 444.1 527C423.9 553.5 405.2 581.1 388.1 609.7C387.6 610.5 388.9 611.3 389.4 610.5Z" fill="#191919"/>
<path d="M413.4 613C430.2 581.7 450.1 552.2 472.9 525C473.5 524.3 472.5 523.2 471.8 523.9C448.9 551.2 428.9 580.8 412 612.2C411.6 613.1 412.9 613.9 413.4 613Z" fill="#191919"/>
<path d="M347 588.5C372.6 585.8 398.2 589 423.7 592.4C424.7 592.5 424.6 591 423.7 590.9C398.3 587.5 372.7 584.2 347 587C346.1 587.1 346.1 588.6 347 588.5Z" fill="#191919"/>
<path d="M359.9 573.9C384.1 573 408.3 574.8 432.1 579.4C433 579.6 433.4 578.1 432.5 578C408.6 573.4 384.2 571.6 359.9 572.5C359 572.4 359 573.9 359.9 573.9Z" fill="#191919"/>
<path d="M371.5 559.8C394.8 558.3 418.1 560.4 440.8 566C441.7 566.2 442.1 564.8 441.2 564.6C418.4 558.9 395 556.8 371.5 558.3C370.5 558.4 370.5 559.9 371.5 559.8Z" fill="#191919"/>
<path d="M383.5 545.7C405.9 545.8 428.1 548.1 450 552.6C450.9 552.8 451.3 551.3 450.4 551.2C428.4 546.7 406 544.4 383.5 544.3C382.6 544.2 382.6 545.7 383.5 545.7Z" fill="#191919"/>
<path d="M395.4 532.6C416.7 533 437.9 535.5 458.6 540.2C459.5 540.4 459.9 539 459 538.8C438.1 534.1 416.8 531.5 395.4 531.2C394.4 531.1 394.4 532.6 395.4 532.6Z" fill="#191919"/>
<path d="M464 547.8C454.2 562.2 444.5 576.6 434.7 591C434.2 591.8 435.5 592.6 436 591.8C445.8 577.4 455.5 563 465.3 548.6C465.9 547.7 464.6 547 464 547.8Z" fill="#191919"/>
<path d="M298.4 526C310.9 520.7 324.4 523.7 337.6 523.5C348.7 523.4 359.3 520.3 368.8 514.7C369.6 514.2 368.9 512.9 368 513.4C356.3 520.3 343.9 522.5 330.5 521.9C319.3 521.4 308.2 520.3 297.6 524.8C296.8 525.1 297.5 526.4 298.4 526Z" fill="#191919"/>
<path d="M332.1 519.8C353.5 507.7 363.4 482.2 385.7 471.5C386.6 471.1 385.8 469.8 384.9 470.2C362.5 481 352.7 506.4 331.3 518.5C330.5 519 331.2 520.3 332.1 519.8Z" fill="#191919"/>
<path d="M359.3 448.5C355.6 445.6 356.2 440.9 358.3 437.2C359.3 435.4 360.8 433.5 362.5 432.4C365.6 430.4 368.5 432 370.9 434.1C371.6 434.7 372.7 433.7 372 433C367 428.8 362.3 429.2 358.2 434.6C354.9 439 353.2 445.6 358.2 449.6C359 450.2 360.1 449.1 359.3 448.5Z" fill="#191919"/>
<path d="M667.3 375.4C639.9 405.8 632.5 439.2 628.5 458.1C621.2 493.1 628.9 507.1 629.4 573.6C629.6 601.9 628.4 624.8 627.5 639.2C633.7 644 672.1 672.6 723.4 663.2C761.4 656.3 784.3 632.5 791.5 624.4C793.2 614.9 795.6 600.9 798.4 583.9C813.2 492.2 820.5 445.7 811.3 412.4C805.8 392.2 792.2 360.2 753.6 327.1C737.4 330.5 698.5 340.9 667.3 375.4Z" fill="#EC615B"/>
<path opacity="0.19" d="M695.2 357C704.7 385.4 709.8 409.7 712.8 427.5C720.7 474.6 732.6 545.2 699.1 613.6C688.4 635.4 675.9 651.4 667.1 661.3C678.7 664 701.7 667.7 729.1 660.6C761.7 652.2 782.1 633.3 790.5 624.7C797 587.5 802.2 555.6 806.2 530.7C813.1 486.9 814.7 473.6 814 454.9C813.2 430.9 812.1 405.7 797.7 378.5C783.9 352.5 764.5 336.9 752.6 328.9C742.9 330.6 729.2 334.2 714.7 342.6C706.7 347.4 700.2 352.5 695.2 357Z" fill="#6C6D6D"/>
<path opacity="0.18" d="M808.8 404.7C807 404.8 810.8 432.5 804.9 470.7C794 541.4 759 590.4 745.5 607.8C734.2 622.3 716.5 642.3 690.6 662C699.9 663.4 712.3 664 726.5 661.3C760.2 655 781.6 634.3 789.8 625.4C791.9 613.2 795.3 594.1 799.6 570.5C809.7 515.3 811.7 508.7 813.3 491.5C817.7 444.6 810.9 404.7 808.8 404.7Z" fill="#6C6D6D"/>
<path d="M491.1 479C489.2 477.7 485.4 475.3 485.8 473.3C486.6 470.1 498.1 469.6 506.4 471C512 471.9 522.2 474.8 532.9 484.9C520.9 486.6 503.6 487.1 491.1 479Z" fill="white" stroke="#191919" stroke-width="2"/>
<path d="M773.4 383.2C753.3 377.3 729.8 404.4 727.7 407C719.7 416.5 717.8 423.3 710.3 441.7C692.1 486.7 682.6 509.4 664.6 521.2C648.5 531.8 631.6 532.2 627.1 532.2C608.2 532.1 592.6 522.7 562.2 503.9C536.6 488 534 483.2 519.2 479.2C511.7 477.2 489.7 471.2 472.6 482.9C461.7 490.3 455 504.1 458 507.6C461.8 512.1 482.2 501.5 482.3 501.9C482.4 502.1 476.4 503.8 471 508.6C468.3 510.9 463.5 515.9 464.6 517.7C466.6 521.1 484.8 505.5 501 511.3C512 515.2 512.6 525.7 525.5 529.8C533.1 532.2 540.3 530.9 544.9 529.6C551.1 538.9 561.6 552.2 577.8 564.3C587.5 571.5 621.7 596.3 669.2 592.6C719.6 588.7 750.2 555.4 759.7 545.1C765.2 539.2 805.1 494.5 799 436.3C798.1 426.8 794.2 389.4 773.4 383.2Z" fill="white" stroke="#191919" stroke-width="2"/>
<path opacity="0.25" d="M771.2 383.2C763.6 385.7 773.1 412.8 765.4 448.3C758.1 482.4 738.9 505.4 730.2 515.9C718.5 530 703.2 548.4 677.1 557.8C642.1 570.4 602.8 561.5 576.5 545C568.7 540 562.1 527.1 544.6 517C537 512.6 530.9 510.4 523.6 507.7C506 501.3 490.2 495.5 474.1 500.6C466.4 503 459.5 507.6 459.9 508.4C460.3 509.3 469.2 506.4 477.2 503.7C466.5 513.8 464.5 516.9 465 517.7C465.6 518.5 468.8 516.4 476.3 513.8C484.5 510.9 490.2 509 496.8 510.6C500.1 511.4 502.5 512.9 504 513.8C509.5 517.2 510.4 520.5 515.8 524.4C519.1 526.8 522.1 528 523.7 528.6C527 529.9 534 532 543.9 530.2C550.7 540 582.2 583.4 637.5 591.4C666 595.5 688.5 588.5 697.4 585.6C746.2 569.8 770.9 532 777.3 521.5C797.1 489.1 810.6 438.5 790.2 402.1C785.4 393 776.4 381.5 771.2 383.2Z" fill="#6C6D6D"/>
<path d="M459.8 507.9C465.1 502.4 471.3 498.4 478.5 496C479.9 495.5 479.3 493.4 477.9 493.8C470.4 496.4 463.7 500.6 458.2 506.3C457.2 507.4 458.8 509 459.8 507.9Z" fill="#191919"/>
<path d="M463.4 494.5C468.7 488.6 476.1 486.3 483.5 484.2C484.9 483.8 484.3 481.6 482.9 482C475.2 484.3 467.4 486.8 461.9 492.9C460.8 494 462.4 495.5 463.4 494.5Z" fill="#191919"/>
<path opacity="0.29" d="M795.9 426.2C792.5 436.6 787 451.6 778.9 469C762.8 503.3 748.3 534.2 720 556.1C685.1 583.1 643.3 585.4 619.8 584.3C636.3 591 650 592.4 658.7 592.6C724.9 594 771.3 531.3 785.7 503.1C788.2 498.1 793.4 487.7 796.4 472.9C800.3 453 798 436.3 795.9 426.2Z" fill="#6C6D6D"/>
<path opacity="0.26" d="M503.4 510.3C509 514.2 516.9 518.8 527 522.4C535 525.2 542.3 526.6 548.1 527.3C532 532.6 524.5 530.5 520.6 527.3C518.2 525.3 515.7 521.6 508.2 514.7C506.3 512.8 504.6 511.3 503.4 510.3Z" fill="#6C6D6D"/>
<path d="M618.4 181.5C617.3 187.9 616.2 194.3 615.3 201C611.4 228.2 609.8 253.9 609.7 277.8C615.2 277.2 620.6 276.6 626.1 276.1C625.5 281.4 623.8 300.8 636.2 320C647.9 338.1 664.7 344.7 669.9 346.5C669.3 356.3 668.8 366 668.2 375.8C679 366.2 693.7 354.9 712.4 344.8C726.7 337.1 740.2 331.8 751.7 328.2C738.8 312.2 733.9 297.1 731.8 288.4C728.2 273.4 728.9 260.5 729.6 249.1C730.3 237.4 732 227.7 733.5 220.9C738.2 199.5 725.9 165.6 701.4 153.4C677.2 141.3 641.1 151.5 618.4 181.5Z" fill="white" stroke="#161616" stroke-width="2"/>
<path d="M623.8 276.8C626.6 276.4 629.5 276.1 632.3 275.8C633.3 275.7 633.3 274.2 632.3 274.3C629.3 274.6 626.4 275 623.4 275.4C622.5 275.4 622.9 276.9 623.8 276.8Z" fill="#161616"/>
<path d="M714 197C701.9 200.1 699.7 210.6 684.4 232.5C668.9 254.7 659.1 268.6 641.6 276.7C630.3 281.9 624.7 280.5 619.7 287.2C611.1 298.8 616.9 317.9 622 327.7C627.9 339 636.9 345.8 644.3 351.4C651.4 356.7 657.9 360.2 662.5 362.3C657.6 354.8 657.3 352.5 657.9 351.8C659.5 350.2 666.3 358.8 674.3 357.7C676.6 357.4 680.7 356.1 689.8 341.8C696 332.1 700.2 325.4 703 315.8C709.1 295.2 700.5 289.6 703 262.5C703.4 258.4 706.2 226.3 717.6 224.2C721.7 223.4 725.9 226.8 727.9 229.4C732.1 234.9 731.6 243.7 726.4 251.3C728.1 250.1 744.4 239.1 744.2 221.2C744.2 218.4 744.1 208.1 736.3 201.4C727.4 193.8 715 196.8 714 197Z" fill="#161616" stroke="#161616" stroke-width="2"/>
<ellipse cx="633.4" cy="235" rx="4.2" ry="7.5" fill="#161616"/>
<ellipse cx="601.4" cy="238.5" rx="4.2" ry="7.5" fill="#161616"/>
<path d="M595.1 226.2C597.8 223.1 602 222.8 605 225.8C606.4 227.2 608.5 225 607.1 223.7C603 219.7 596.7 219.8 592.9 224.1C591.8 225.6 593.9 227.7 595.1 226.2Z" fill="#161616"/>
<path d="M627.9 221C631.4 218.1 636 218.5 639 221.8C640.3 223.2 642.4 221.1 641.1 219.7C636.9 215.2 630.4 215 625.7 218.9C624.3 220.1 626.4 222.2 627.9 221Z" fill="#161616"/>
<path d="M615 193.4C616.1 186.2 618.9 174.4 626.6 162.2C629.3 157.9 635.1 148.8 644.3 142.6C661.9 130.9 689 131.8 708.7 146.2C728 160.3 737.6 185.5 733.4 210.5C693.9 204.9 654.5 199.2 615 193.4Z" fill="#5222D0"/>
<path d="M550.4 194.3C611.1 202.1 671.9 209.9 732.6 217.6C738.3 218.3 738.3 209.3 732.6 208.6C671.9 200.8 611.1 193 550.4 185.3C544.7 184.5 544.7 193.5 550.4 194.3Z" fill="#161616"/>
<path d="M666.4 135.3C682 138.7 693.8 151.3 695.8 166.4C697.6 179.6 691.8 193 680.8 201.2C698.1 203.5 715.5 205.9 732.8 208.2C733.7 203.6 734.5 196.6 733.4 188.4C730.8 169.2 719.7 156.9 716.1 153.2C712.2 149.2 698.4 135.8 677.9 134.6C673.2 134.4 669.2 134.8 666.4 135.3Z" fill="#321693"/>
</svg>
