<svg width="1232" height="957" viewBox="0 0 1232 957" fill="none" xmlns="http://www.w3.org/2000/svg">
<path d="M141.7 932.6H369C372.9 932.6 372.9 926.6 369 926.6C293.2 926.6 217.4 926.6 141.7 926.6C137.8 926.6 137.8 932.6 141.7 932.6Z" fill="#E8E8E8"/>
<path d="M215.8 909.1H443.9H508.6C512.5 909.1 512.5 903.1 508.6 903.1C432.6 903.1 356.6 903.1 280.5 903.1C258.9 903.1 237.3 903.1 215.8 903.1C212 903.1 212 909.1 215.8 909.1Z" fill="#E8E8E8"/>
<path d="M503.7 872.1H658.1C662 872.1 662 866.1 658.1 866.1C606.6 866.1 555.1 866.1 503.7 866.1C499.8 866.1 499.8 872.1 503.7 872.1Z" fill="#E8E8E8"/>
<path d="M635.9 956.1H957.4H1047.3C1051.2 956.1 1051.2 950.1 1047.3 950.1C940.1 950.1 832.9 950.1 725.8 950.1C695.8 950.1 665.9 950.1 635.9 950.1C632 950.1 632 956.1 635.9 956.1Z" fill="#E8E8E8"/>
<path d="M889.2 932.6H1101.7C1105.6 932.6 1105.6 926.6 1101.7 926.6C1030.9 926.6 960 926.6 889.2 926.6C885.3 926.6 885.3 932.6 889.2 932.6Z" fill="#E8E8E8"/>
<path d="M329.3 204.6C324.1 205.5 315.9 207.6 307.3 212.9C301.9 216.2 290.9 224.2 284 238.9C281.5 244.1 275.9 256.2 278.7 271.2C282.8 293.4 302.3 304.5 305.4 306.2C315.3 291.1 325.1 275.9 335 260.8C333 242.1 331.1 223.4 329.3 204.6V204.6Z" fill="#EC615B"/>
<path d="M336.7 259C351.3 251.1 365.8 243.2 380.4 235.2C383.6 239.2 389.6 248.1 389.5 260.1C389.5 262.8 389.2 265.3 388.7 267.6C371.3 264.7 354 261.8 336.7 259H336.7Z" fill="#5222D0"/>
<path d="M180.1 328C181.9 351.5 183.6 375.1 185.4 398.6C191.8 398.2 198.2 397.7 204.5 397.3C202.4 373.4 200.3 349.6 198.2 325.7C192.1 326.5 186.1 327.2 180.1 328Z" fill="#5222D0"/>
<path d="M215.8 352.5C216.8 367 217.8 381.4 218.9 395.9C225.3 395.3 231.7 394.8 238 394.2C236.6 379.7 235.3 365.3 233.9 350.8C227.8 351.3 221.8 351.9 215.8 352.5Z" fill="#EC615B"/>
<path fill-rule="evenodd" clip-rule="evenodd" d="M443.3 442.1C344.1 451.2 245 460.2 145.8 469.3C136.7 324.1 127.5 178.9 118.4 33.6001C217.3 30.1001 316.3 26.6001 415.2 23.1001C424.6 162.8 434 302.5 443.3 442.1V442.1Z" stroke="#161616" stroke-width="2"/>
<path d="M220.7 6.10003C221.8 14 223 21.9 224.1 29.8C224.4 31.7 227.3 30.9 227 29C225.9 21.1 224.7 13.2 223.6 5.30003C223.3 3.40003 220.4 4.20003 220.7 6.10003Z" fill="#E8E8E8"/>
<path d="M222.8 5.9C245.3 4.4 267.9 3.5 290.4 3C292.3 3 292.3 0 290.4 0C267.8 0.5 245.3 1.5 222.8 2.9C220.9 3 220.9 6 222.8 5.9Z" fill="#E8E8E8"/>
<path d="M289.5 1.8C290.5 10.3 291.3 18.7 291.8 27.2C291.9 29.1 294.9 29.1 294.8 27.2C294.3 18.7 293.5 10.2 292.5 1.8C292.2 -0.1 289.2 -0.1 289.5 1.8Z" fill="#E8E8E8"/>
<path d="M222.9 5.8C223.6 13.2 224.3 20.7 225 28.1C225.1 28.9 225.6 29.6 226.5 29.6C248 29.8 269.4 26.4 291 27.1C292.9 27.2 292.9 24.2 291 24.1C269.5 23.4 248.1 26.7 226.5 26.6L228 28.1C227.3 20.7 226.6 13.2 225.9 5.8C225.7 3.9 222.7 3.9 222.9 5.8Z" fill="#E8E8E8"/>
<path d="M224.5 6.80005C227.8 8.80005 232.1 7.80005 235.7 7.60005C241.7 7.30005 247.7 7.00005 253.7 6.70005C265.7 6.10005 277.6 5.40005 289.6 4.80005C289.1 4.30005 288.6 3.80005 288.1 3.30005C288.4 9.80005 288.7 16.3 289 22.9C289.1 24.8 292.1 24.8 292 22.9C291.7 16.4 291.4 9.90005 291.1 3.30005C291.1 2.50005 290.4 1.80005 289.6 1.80005C279 2.40005 268.3 2.90005 257.7 3.50005C252.4 3.80005 247.1 4.10005 241.7 4.30005C237.5 4.50005 229.7 6.50005 226 4.20005C224.4 3.20005 222.9 5.80005 224.5 6.80005Z" fill="#E8E8E8"/>
<path d="M224.4 7.39997C225.9 13.5 226.9 19.7 227.5 26C228.5 25.9 229.5 25.7 230.4 25.6C229.3 20.2 229.6 14.9 230.6 9.39997C229.6 9.29997 228.6 9.09997 227.7 8.99997C227.9 15 228.3 20.7 230.6 26.2C231.3 27.8 233.8 26.6 233.3 25C231.6 18.6 230 12.3 231.7 5.69997C230.7 5.69997 229.8 5.69997 228.8 5.69997C229.7 11.7 230.6 17.7 231.5 23.7C231.8 25.6 234.7 24.8 234.4 22.9C233.5 16.9 232.6 10.9 231.7 4.89997C231.5 3.39997 229.1 3.59997 228.8 4.89997C227 12 228.6 18.9 230.4 25.8C231.3 25.4 232.2 25 233.1 24.6C231 19.6 230.8 14.2 230.6 8.89997C230.6 7.29997 228 6.79997 227.7 8.49997C226.6 14.5 226.2 20.3 227.5 26.3C227.8 27.9 230.6 27.6 230.4 25.9C229.8 19.4 228.7 12.9 227.2 6.49997C226.8 4.69997 224 5.49997 224.4 7.39997Z" fill="#E8E8E8"/>
<path d="M232.1 12.7C233.2 10.9 234.3 9.1 235.4 7.3C234.5 6.8 233.7 6.3 232.8 5.8C231.5 8.7 230.3 11.6 229 14.5C228.4 15.9 230.2 17.8 231.4 16.3C233.4 13.8 235.3 11.2 237.3 8.7C236.5 8.2 235.6 7.7 234.8 7.2C234 9.6 233 11.8 231.6 14C230.7 15.4 232.9 17.2 234 15.8C235.5 13.9 237 12 238.6 10.1C237.8 9.5 237 8.9 236.2 8.3C234.2 13 232.2 17.6 230.2 22.3C229.6 23.7 231.4 25.6 232.6 24.1C236.2 19.6 239.9 15 243.5 10.5C242.7 9.9 241.9 9.3 241.1 8.7C238.4 13.1 235.7 17.6 233 22C232.3 23.1 233.4 24.6 234.7 24.2C236.3 23.7 236.5 23.5 237.7 22.5C236.9 22 236 21.5 235.2 21C234.6 22.7 233.6 24 232.1 25.1C230.6 26.2 231.9 28.7 233.6 27.7C235.2 26.8 236.7 26.2 238.5 26C237.9 25.4 237.3 24.8 236.7 24.2C234.1 22.9 233.3 21.1 234.3 18.7C234.6 17.4 235.1 16.2 235.7 15.1C236.5 13.7 238 10.3 239.5 13.3C240.6 15.5 236 27.8 235.4 20.2C235.3 18.2 235.5 16.2 236.1 14.4C236.5 13 237.1 11.7 237.8 10.4C238.8 8.4 239.3 8.4 239.4 10.4C241.3 14.4 239 20.7 237.1 24.2C238 24.3 238.9 24.4 239.8 24.6C239 21.8 238.7 19.1 239.3 16.3C239.5 15.2 240.5 9.9 241.6 11.6C243.9 14.9 240.1 22.4 238.5 25.3C239.4 25.6 240.4 25.8 241.3 26.1C241 23.4 240.9 20.8 241.4 18.1C241.7 16.3 242.8 10.5 244.7 10.3C247.4 10 242.2 22.3 241 24.1C241.9 24.2 242.8 24.3 243.7 24.5C242.8 20 242.8 10.4 248.9 8.9C248.3 8.6 247.7 8.2 247.1 7.9C248.2 14 246.5 19.9 242.3 24.4C243.1 24.6 244 24.8 244.8 25.1C244.1 22.3 244 19.6 244.7 16.8C245.1 15.3 247.2 9 249.2 9.5C250.6 9.8 248.8 15.6 248.4 16.9C247.3 20.1 245.6 22.9 243.1 25.3C243.9 25.5 244.8 25.7 245.6 26C244 19.3 246.8 12.6 252.7 9C252 8.7 251.2 8.4 250.5 8.1C252.8 14.2 246.9 22.1 243 26.2C243.8 26.4 244.7 26.6 245.5 26.9C244.8 24 244.8 21.2 245.7 18.3C246 17.4 249 10.6 250.4 11.1C252.4 11.8 249 17.9 248.4 18.8C247.7 20.1 246.4 22.4 245.1 23.2C243.6 24.2 243.7 24.4 243.6 22.2C243.5 19.2 245.5 15.8 247.2 13.6C248.1 12.4 249.6 10.5 251 10C252.6 9.3 252.4 9.1 252.2 11.2C251.5 17.4 248 23 243.6 27.3C244.4 27.5 245.3 27.7 246.1 28C245.2 22.1 247.2 16 251.6 11.9C252.9 10.7 254.4 9.9 254.9 12.4C255.1 13.4 253.9 15.8 253.5 16.7C252.1 20 250.1 22.8 247.6 25.3H249.7C247.9 23.2 250.2 18.6 251.3 16.6C251.8 15.7 256.1 9.1 257.3 9.7C258.7 10.4 255.6 17.1 255.2 17.8C253.8 20.5 252 22.9 249.9 25.1C250.8 25.5 251.6 25.8 252.5 26.2C252.6 18.9 256 12.7 262.2 8.8C261.4 8.4 260.7 7.9 259.9 7.5C260 14.2 257.6 20.1 252.8 24.8C253.7 25.2 254.5 25.5 255.4 25.9C256 18.6 259.4 12.3 265 7.6C264.2 7.5 263.4 7.4 262.6 7.3C265.8 12.1 258.8 21.1 256 24.7C256.9 25.1 257.7 25.4 258.6 25.8C258.7 23 259.2 20.4 260.3 17.8C260.9 16.2 263.4 10.7 265.2 10.3C267.6 9.8 265.1 14.4 264.3 16.1C262.9 19 261 21.5 258.8 23.8C259.6 24.3 260.5 24.8 261.3 25.3C262.2 19.1 264.7 10.9 271.2 8.6C270.6 8.1 269.9 7.6 269.3 7.2C268.5 14 265.5 19.8 260.5 24.4C261.4 24.8 262.2 25.1 263.1 25.5C263.4 22.3 264.1 19.2 265.5 16.2C266.4 14.3 268.8 9.3 271 8.9C272.1 8.7 271 10.4 270.6 11.5C270 13.1 269.2 14.6 268.4 16C266.8 18.8 264.8 21.3 262.5 23.6C263.4 24 264.2 24.3 265.1 24.7C265.5 18.3 268.5 12.8 273.5 8.9C272.8 8.3 272 7.8 271.3 7.2C270.5 11.9 268.1 15.6 264.9 19.1C263 21.2 262.4 20.7 262.2 17.9C262 14.1 264.3 10.3 268.1 9.3C267.5 8.8 266.8 8.3 266.2 7.9C265.9 13.9 264.1 19.3 260.9 24.3C261.8 24.6 262.8 24.8 263.7 25.1C264 22.1 264.8 19.2 266.2 16.5C267.1 14.7 269.4 10.2 271.4 9.7C274.3 8.9 271.4 14.6 270.7 16C269.3 18.8 267.4 21.2 265.2 23.5C266.1 23.9 266.9 24.2 267.8 24.6C267.4 17.3 271.8 10.9 278.7 8.7C278.1 8.2 277.4 7.7 276.8 7.3C276 14.4 272.6 20.4 267.1 25C268 25.4 268.8 25.7 269.7 26.1C270.5 19.2 274 13.3 279.7 9.3C279 9 278.2 8.7 277.5 8.4C279.1 13.6 273.6 20.4 270.6 24.1C271.5 24.5 272.3 24.8 273.2 25.2C273.6 20.1 276.5 10.8 282.6 9.9C282 9.3 281.4 8.7 280.8 8.1C279.7 13.8 277.4 18.9 273.7 23.4C274.6 23.8 275.4 24.1 276.3 24.5C276.6 18.4 279 13.1 283.2 8.8C282.4 8.7 281.6 8.6 280.8 8.5C283.1 12.7 278.4 20.1 276.3 23.8L279 25C280 20.2 280.8 12.1 285.3 9.2C284.7 9.1 284.1 9 283.5 9C286 11.8 281.2 21.2 280.1 24C281.1 24.3 282 24.5 283 24.8C284.4 19.7 285.7 14.7 287.1 9.6C286.1 9.5 285.1 9.3 284.2 9.2C284.4 14 283.7 18.5 282.1 23.1C283.1 23.2 284.1 23.4 285 23.5C285.5 19 285 12 287.6 8.2C286.7 8.1 285.8 8 284.9 7.8C286.3 12.7 285.8 17.4 285.1 22.5C286.1 22.6 287.1 22.8 288 22.9C287.6 17.3 287.2 11.6 286.8 6C285.9 6.4 285.1 6.7 284.2 7.1C288 11 286.5 16.1 284.8 20.6C285.7 20.5 286.6 20.4 287.5 20.2C286.4 18.1 284.2 14.6 284.3 12.1C283.3 10.5 283.7 9.7 285.6 9.8C286.5 11.4 286.8 13.1 286.4 14.8C287.3 14.4 288.1 14.1 289 13.7C287.4 11.8 286.6 10 286.1 7.7C285.4 8.3 284.6 8.8 283.9 9.4C284.3 10.5 284.7 11.7 285.1 12.8C286 12.9 286.9 13 287.8 13.2C287.1 11.2 286.8 9.4 286.9 7.3C286.3 7.8 285.6 8.3 285 8.7C288.9 10.3 286.2 20.7 285.7 23.4C286.2 23 286.7 22.7 287.1 22.3C279.5 22.5 271.9 22.7 264.3 22.9C262.4 23 262.4 25.8 264.3 25.9C271 26.1 277.6 25.1 284.2 24.1C283.9 23.1 283.7 22.2 283.4 21.2C275.6 23.3 267.8 24.7 259.8 25.3C257.9 25.4 257.9 28.2 259.8 28.3C267.6 28.6 275.2 25.9 283 26.2C282.9 25.2 282.7 24.2 282.6 23.3C276.6 25.3 270.6 25.9 264.3 25.2V28.2C271.5 27.5 278.7 26.8 285.9 26.1C285.8 25.1 285.6 24.1 285.5 23.2C280.7 24.6 276 25.1 271 24.9V27.9C275.9 27.9 280.6 27.3 285.3 26.1C287.2 25.6 286.4 22.8 284.5 23.2C278.9 24.4 273.3 25 267.6 25V28C274.4 27.1 281.2 26 288 24.6C289.6 24.3 289.3 21.5 287.6 21.7C281.1 22.5 274.7 22.4 268.3 21.4C266.4 21.1 265.6 24 267.5 24.3C274.2 25.3 280.9 25.5 287.6 24.7C287.5 23.7 287.3 22.7 287.2 21.8C280.7 23.1 274.2 24.3 267.6 25.1C265.7 25.3 265.6 28.1 267.6 28.1C273.6 28.1 279.4 27.5 285.3 26.2C285 25.2 284.8 24.3 284.5 23.3C280 24.4 275.6 25 271 25C269.1 25 269.1 27.9 271 28C276.2 28.2 281.2 27.6 286.3 26.2C287.9 25.7 287.6 23.1 285.9 23.3C278.7 24 271.5 24.7 264.3 25.4C262.4 25.6 262.4 28.2 264.3 28.4C270.9 29.1 277.2 28.4 283.4 26.4C285 25.9 284.7 23.5 283 23.5C275.2 23.2 267.6 25.9 259.8 25.6V28.6C268.1 28 276.2 26.6 284.2 24.4C286.1 23.9 285.3 21.2 283.4 21.5C277 22.5 270.7 23.4 264.3 23.2V26.2C271.9 26 279.5 25.8 287.1 25.6C287.7 25.6 288.4 25.1 288.5 24.5C289.5 18.9 292.6 9 285.7 6.1C284.7 5.7 283.9 6.7 283.8 7.5C283.6 10 283.9 11.9 284.8 14.2C285.2 15.3 286.9 15.8 287.5 14.6C288.9 11.7 288.1 8.8 285.2 7.1C284 6.4 282.7 7.5 283 8.8C283.6 11.7 284.8 13.9 286.7 16.2C287.6 17.3 289.2 16.3 289.3 15.1C289.6 11.9 286.8 2.4 281.7 5.3C277.1 8 283.2 18.9 284.7 22C285.3 23.3 287 22.7 287.4 21.6C289.6 15.9 290.6 9.9 286 5.2C285.1 4.3 283.3 4.9 283.4 6.3C283.8 11.9 284.2 17.6 284.6 23.2C284.7 24.8 287.3 25.4 287.5 23.6C288.3 18.1 288.9 12.8 287.3 7.3C286.9 6 285.3 5.9 284.6 6.9C281.5 11.3 282.1 18.6 281.6 23.7C281.4 25.5 284 25.6 284.5 24.1C286.2 19.3 286.9 14.5 286.7 9.4C286.6 7.7 284.2 7.3 283.8 9C282.4 14.1 281.1 19.1 279.7 24.2C279.2 26.1 281.9 26.8 282.6 25C284.4 20.4 289.2 11.6 285.2 7C284.8 6.5 283.9 6.4 283.4 6.8C277.9 10.4 276.9 18.5 275.7 24.4C275.4 26 277.6 27.1 278.4 25.6C281.1 20.7 285.9 12.8 282.9 7.2C282.4 6.4 281.2 6.2 280.5 6.9C275.7 11.9 273.1 17.8 272.7 24.7C272.6 25.9 274.4 26.8 275.3 25.8C279.4 20.9 282 15.4 283.2 9.2C283.4 8 282.5 7.2 281.4 7.4C273.9 8.5 270.3 19.1 269.8 25.6C269.7 26.9 271.5 27.6 272.4 26.7C276.3 22 282.1 14.6 280.1 8.1C279.8 7.2 278.7 6.6 277.9 7.2C271.3 11.8 267.3 18.5 266.4 26.5C266.2 27.9 268.1 28.3 269 27.6C275.1 22.5 278.6 15.6 279.5 7.8C279.6 6.8 278.5 6.1 277.6 6.4C269.4 9 264 16.6 264.5 25.2C264.6 26.5 266.1 27.2 267.1 26.3C269.4 24 281.4 7.7 273.9 5.9C270.8 5.1 267.3 9.9 265.8 11.9C262.7 16 261.1 20.7 260.5 25.8C260.3 27.4 262.6 27.7 263.3 26.6C266.9 21.2 268.8 15.2 269.1 8.7C269.1 7.7 268.1 7 267.2 7.3C263.1 8.4 260.6 11.4 259.6 15.5C258.9 18.1 258.2 23 261 24.7C263.7 26.4 265.9 23.4 267.4 21.6C270.6 17.9 273.2 13.9 274 9C274.2 7.9 273 6.4 271.8 7.3C265.8 11.9 262.4 18.2 261.9 25.7C261.8 27 263.6 27.6 264.5 26.8C266.9 24.4 279.7 8.6 272.8 6C269.7 4.8 266.4 9.8 265 11.8C261.9 16.2 260.4 21.1 259.9 26.4C259.8 27.8 261.6 28.3 262.5 27.5C268.1 22.3 271.4 15.8 272.2 8.2C272.3 7.3 271.2 6.5 270.3 6.8C262.7 9.5 259.4 18.2 258.3 25.6C258.1 27 259.7 28.3 260.8 27.1C263.2 24.6 274.6 8.9 267.6 6.9C264.4 6 260.9 11.5 259.5 13.7C256.9 17.7 255.7 22.3 255.5 27C255.4 28.2 257.2 29.1 258.1 28.1C261.9 23.4 269.3 13.4 265.2 7.1C264.6 6.2 263.6 6.2 262.8 6.8C256.6 12 253 19.2 252.3 27.3C252.2 28.6 254 29.2 254.9 28.4C260.2 23.1 262.9 16.4 262.8 9C262.8 7.9 261.5 7.1 260.5 7.7C253.4 12.1 249.4 19.4 249.3 27.7C249.3 29 251 29.7 251.9 28.8C255.7 24.8 258.8 20 260.1 14.6C260.7 12.3 261.1 7.8 257.4 8C253.5 8.2 249.4 15 248 18C246.5 21.4 244.9 25.8 247.6 28.9C248.1 29.5 249.2 29.4 249.7 28.9C253.7 25 256.7 20.1 257.8 14.6C258.3 12.1 258.5 7.9 254.9 7.9C251.1 7.9 247 13.5 245.5 16.4C243.1 20.7 242.5 25.4 243.3 30.2C243.5 31.4 245.1 31.6 245.8 30.9C250.3 26.5 253.6 21 255 14.8C255.6 12.1 256.4 7.5 252.4 7.6C245.5 7.8 236 25.1 242.5 29.6C243 29.9 243.6 29.8 244 29.6C247.5 27.9 259.9 11.1 252.3 8.9C249.1 7.9 245.5 13.3 244.3 15.6C242 19.9 241.5 24.6 242.6 29.2C242.8 30.3 244.4 30.7 245.1 29.9C249.8 24.9 256.1 16 253.4 8.9C253.1 8 252.1 7.5 251.2 8C244.1 12.3 240.8 20.4 242.7 28.4C243 29.5 244.4 29.8 245.2 29.1C249.2 25.2 251.4 20.3 252.4 14.8C252.8 12.4 253.7 8 250.6 7C247.3 6 244.2 11.6 243.1 14C241.1 18.3 240.8 23 241.9 27.7C242.2 28.8 243.6 29.2 244.4 28.4C249.4 23 251.4 16.2 250 9C249.8 8.2 248.9 7.8 248.2 8C240.4 9.9 239.6 20.9 240.9 27.3C241.2 28.7 243 28.6 243.6 27.7C246.2 24 247.9 19.9 248.3 15.3C248.5 13.1 249.1 8.5 246.1 7.7C243.1 6.9 241.3 11.3 240.4 13.4C238.3 18.1 237.8 23.1 238.4 28.2C238.6 29.6 240.4 30.4 241.2 29C244.3 23.6 246.9 15.5 244.1 9.5C243.9 9 243.3 8.7 242.8 8.8C235.4 8.9 235.8 23 237.1 27.7C237.4 28.9 239.2 29.2 239.8 28.1C242.6 23.2 244.4 16 242 10.5C240.3 6.6 237.2 8.4 235.3 11.3C232.6 15.5 230.9 23.4 233.6 28C235.7 31.6 238.4 28.9 239.9 26.2C241.7 22.9 244.6 14.8 241.6 11.3C238.9 8.2 235.4 12.5 233.9 14.7C231.6 18.2 229.4 24.6 232.3 28.4C234.5 31.3 238.5 30.7 239.7 27.4C240.2 26.2 238.9 25.4 237.9 25.6C235.8 25.9 234.1 26.5 232.3 27.6C232.8 28.5 233.3 29.3 233.8 30.2C235.9 28.6 237.3 26.8 238.3 24.3C238.9 22.8 236.8 22 235.8 22.8C235.2 23.1 234.7 23.4 234.1 23.7C234.7 24.4 235.2 25.2 235.8 25.9C238.5 21.5 241.2 17 243.9 12.6C244.8 11.2 242.6 9.4 241.5 10.8C237.9 15.3 234.2 19.9 230.6 24.4C231.4 25 232.2 25.6 233 26.2C235 21.5 237 16.9 239 12.2C239.6 10.8 237.8 8.9 236.6 10.4C235.1 12.3 233.6 14.2 232 16.1C232.8 16.7 233.6 17.3 234.4 17.9C235.9 15.5 237 13.1 237.9 10.4C238.3 9 236.3 7.7 235.4 8.9C233.4 11.4 231.5 14 229.5 16.5C230.3 17.1 231.1 17.7 231.9 18.3C233.2 15.4 234.4 12.5 235.7 9.6C236.5 7.9 234.1 6.4 233.1 8.1C232 9.9 230.9 11.7 229.8 13.5C228.5 12.9 231.1 14.4 232.1 12.7Z" fill="#E8E8E8"/>
<path d="M286.4 4.20001C286.4 7.60001 286.5 11.1 286.6 14.5C286.7 17 287.8 22.3 286.2 24.2C285.2 25.4 286.5 27.5 288 26.6C288.7 26.1 288.9 26 289.5 25.4C290.1 24.6 290 23.2 288.8 22.9C287 22.5 285.7 22.5 283.9 23.1C282.1 23.7 282.8 26.6 284.7 26C285.8 25.9 286.9 25.9 288 25.8C287.8 25 287.6 24.1 287.3 23.3C287 23.6 286.7 23.8 286.5 24.1C287.1 24.9 287.7 25.7 288.3 26.5C290.5 23.9 289.9 22.1 289.7 18.6C289.5 13.9 289.4 9.10001 289.4 4.40001C289.4 2.20001 286.4 2.20001 286.4 4.20001Z" fill="#E8E8E8"/>
<path d="M138.5 91.3C179.6 89 220.8 88.1 262 88.6C263.9 88.6 263.9 85.6 262 85.6C220.8 85.1 179.6 86 138.5 88.3C136.6 88.4 136.6 91.4 138.5 91.3Z" fill="#E8E8E8"/>
<path d="M143.8 118.7C173.3 115.6 202.9 114 232.5 114C234.4 114 234.4 111 232.5 111C202.9 111 173.3 112.5 143.8 115.7C141.9 115.9 141.8 118.9 143.8 118.7Z" fill="#E8E8E8"/>
<path d="M146.5 169.8C185.9 165.7 225.4 163.4 265 163.1C266.9 163.1 266.9 160.1 265 160.1C225.4 160.4 185.9 162.7 146.5 166.8C144.6 167 144.6 170 146.5 169.8Z" fill="#E8E8E8"/>
<path d="M308.3 306.6C288.9 299.1 277.4 277.6 279.3 257.2C281.3 236.5 296.7 218.8 315.2 210.5C327.9 204.8 341.9 203.6 354.4 210.3C364.2 215.5 372.6 223.5 378.5 232.9C390.8 252.5 389.9 276.2 376.9 295.4C369.1 306.9 354.4 310.2 341.5 312.2C328.7 314.2 315.2 313.5 304.4 305.6C302.8 304.5 301.3 307.1 302.9 308.2C312.9 315.5 325.2 317 337.2 315.8C349.1 314.6 363.2 312 372.8 304.4C382.3 296.9 388 282.7 390 271.1C391.9 260 389.8 248.8 385.1 238.6C374.6 215.9 350.4 197.7 324.7 204C302.5 209.4 282.9 227.3 277.5 249.8C271.7 273.7 284.2 300.4 307.4 309.4C309.3 310.2 310.1 307.3 308.3 306.6Z" fill="#E8E8E8"/>
<path d="M329.4 204.5C330.6 223 331.8 241.5 333.1 260C333.2 261.9 336.2 261.9 336.1 260C334.9 241.5 333.7 223 332.4 204.5C332.3 202.6 329.3 202.6 329.4 204.5Z" fill="#E8E8E8"/>
<path d="M335.9 261.8C351.1 253.5 366.1 244.8 380.9 235.6C382.5 234.6 381 232 379.4 233C364.7 242.2 349.7 250.9 334.4 259.2C332.7 260.2 334.2 262.8 335.9 261.8Z" fill="#E8E8E8"/>
<path d="M336.5 262.3C353.7 262.3 370.7 266.4 387.6 269.3C389.5 269.6 390.3 266.7 388.4 266.4C371.3 263.5 354 259.3 336.5 259.3C334.6 259.3 334.6 262.3 336.5 262.3Z" fill="#E8E8E8"/>
<path d="M333.9 260.3C324.3 276.2 314.7 292 305 307.9C304 309.6 306.6 311.1 307.6 309.4C317.2 293.5 326.8 277.7 336.5 261.8C337.5 260.2 334.9 258.6 333.9 260.3Z" fill="#E8E8E8"/>
<path d="M163.6 402C207.1 398.7 250.5 394.9 293.8 390.4C295.7 390.2 295.7 387.2 293.8 387.4C250.4 391.8 207 395.7 163.6 399C161.7 399.2 161.7 402.2 163.6 402Z" fill="#E8E8E8"/>
<path d="M178.4 328.3C180 351.3 181.7 374.4 183.3 397.4C183.4 399.3 186.4 399.3 186.3 397.4C184.7 374.4 183 351.3 181.4 328.3C181.2 326.4 178.2 326.4 178.4 328.3Z" fill="#E8E8E8"/>
<path d="M181.3 328.6C187 327.6 192.7 327.3 198.5 327.6C198 327.1 197.5 326.6 197 326.1C198.5 349.5 200.7 372.8 203.4 396C203.6 397.9 206.6 397.9 206.4 396C203.6 372.8 201.5 349.4 200 326.1C199.9 325.3 199.4 324.6 198.5 324.6C192.4 324.3 186.5 324.7 180.5 325.7C178.6 326.1 179.5 329 181.3 328.6Z" fill="#E8E8E8"/>
<path d="M212.8 352C215.1 365.9 216.5 380 217 394.1C217.1 396 220.1 396 220 394.1C219.5 379.7 218.1 365.4 215.7 351.2C215.4 349.3 212.5 350.1 212.8 352Z" fill="#E8E8E8"/>
<path d="M216.4 353.5C222.2 353.5 227.9 353.2 233.6 352.4C233.1 351.9 232.6 351.4 232.1 350.9C233.5 364.8 235 378.6 236.4 392.5C236.6 394.4 239.6 394.4 239.4 392.5C238 378.6 236.5 364.8 235.1 350.9C235 350.2 234.5 349.3 233.6 349.4C227.9 350.1 222.1 350.5 216.4 350.5C214.5 350.5 214.5 353.5 216.4 353.5Z" fill="#E8E8E8"/>
<path d="M248.4 328.1C250.8 349.7 252.3 371.3 252.9 393.1C253 395 256 395 255.9 393.1C255.2 371.4 253.7 349.7 251.4 328.1C251.2 326.2 248.2 326.2 248.4 328.1Z" fill="#E8E8E8"/>
<path d="M249.9 329.3C253.1 329.5 256.4 329.6 259.6 329.8C264.1 330 264.2 330.1 264.3 334.6C264.6 341.1 264.9 347.5 265.3 354C266.2 366.4 267.6 378.7 269.9 390.9C270.3 392.8 273.1 392 272.8 390.1C269.9 374.7 268.5 359 267.7 343.3C267.5 339.7 267.4 336.2 267.2 332.6C267.1 331.2 267.3 329.1 266.2 327.9C265 326.7 262.9 326.9 261.4 326.8C257.5 326.6 253.7 326.4 249.8 326.2C248 326.2 248 329.2 249.9 329.3Z" fill="#E8E8E8"/>
<path d="M288.8 423.3C327.4 420.6 365.9 415.7 403.9 408.6C405.8 408.2 405 405.4 403.1 405.7C365.3 412.8 327.1 417.6 288.8 420.3C286.8 420.4 286.8 423.4 288.8 423.3Z" fill="#E8E8E8"/>
<path d="M347.6 404.2C364 402.5 380.5 400.8 396.9 399.1C398.8 398.9 398.8 395.9 396.9 396.1C380.5 397.8 364 399.5 347.6 401.2C345.7 401.4 345.7 404.4 347.6 404.2Z" fill="#E8E8E8"/>
<path d="M375.6 384.2C383.1 383.9 390.7 383.6 398.2 383.3C400.1 383.2 400.1 380.2 398.2 380.3C390.7 380.6 383.1 380.9 375.6 381.2C373.6 381.3 373.6 384.3 375.6 384.2Z" fill="#E8E8E8"/>
<path d="M296.4 47.9001C298.3 53.4001 299.1 59.0001 298.8 64.8001C298.7 66.7001 301.7 66.7001 301.8 64.8001C302.1 58.7001 301.3 52.9001 299.3 47.1001C298.6 45.3001 295.7 46.1001 296.4 47.9001Z" fill="#E8E8E8"/>
<path d="M298.9 48.2C326.4 45.4 353.9 43.6 381.5 42.7C383.4 42.6 383.4 39.6 381.5 39.7C353.9 40.6 326.3 42.4 298.9 45.2C297 45.4 297 48.4 298.9 48.2Z" fill="#E8E8E8"/>
<path d="M301.8 66.3999C329.2 64.3999 356.5 62.3999 383.9 60.3999C385.8 60.2999 385.8 57.2999 383.9 57.3999C356.5 59.3999 329.2 61.3999 301.8 63.3999C299.9 63.4999 299.9 66.4999 301.8 66.3999Z" fill="#E8E8E8"/>
<path d="M381.9 43.1999C382.8 49.3999 383.7 55.4999 384.6 61.6999C384.9 63.5999 387.8 62.7999 387.5 60.8999C386.6 54.6999 385.7 48.5999 384.8 42.3999C384.5 40.4999 381.6 41.2999 381.9 43.1999Z" fill="#E8E8E8"/>
<path d="M865.5 124.6C865.6 128.4 865.8 132.1 866.3 135.9C866.6 137.8 869.6 137.8 869.3 135.9C868.8 132.2 868.5 128.4 868.5 124.6C868.5 122.7 865.5 122.7 865.5 124.6Z" fill="#E8E8E8"/>
<path d="M867.7 126.1H1061.8C1063.7 126.1 1063.7 123.1 1061.8 123.1C997.1 123.1 932.4 123.1 867.7 123.1C865.8 123.1 865.8 126.1 867.7 126.1Z" fill="#E8E8E8"/>
<path d="M1060 125.8V132.4C1060 134.3 1063 134.3 1063 132.4C1063 130.2 1063 128 1063 125.8C1063 123.8 1060 123.8 1060 125.8Z" fill="#E8E8E8"/>
<path d="M869.5 137H1061.1C1063 137 1063 134 1061.1 134C997.2 134 933.3 134 869.5 134C867.5 134 867.5 137 869.5 137Z" fill="#E8E8E8"/>
<path d="M869.2 90.1C871.7 101.4 873.8 112.8 875.5 124.2C875.8 126.1 878.7 125.3 878.4 123.4C876.6 112 874.5 100.6 872.1 89.3C871.6 87.4 868.8 88.2 869.2 90.1Z" fill="#E8E8E8"/>
<path d="M871 89.8999C884.1 90.2999 897.8 91.8999 910.9 90.2999C912.8 90.0999 912.8 87.0999 910.9 87.2999C897.8 88.8999 884.1 87.2999 871 86.8999C869.1 86.7999 869.1 89.7999 871 89.8999Z" fill="#E8E8E8"/>
<path d="M909.4 90.9001C908 101.7 906.7 112.5 905.3 123.4C905.1 125.3 908.1 125.3 908.3 123.4C909.7 112.6 911 101.8 912.4 90.9001C912.6 89.0001 909.6 89.0001 909.4 90.9001Z" fill="#E8E8E8"/>
<path d="M885.9 86.6001C883.9 85.7001 881.5 84.8001 880 83.2001C877.4 80.6001 877.6 77.1001 877.2 73.7001C876.6 69.2001 874.1 65.2001 873.8 60.6001C873 61.0001 872.3 61.5001 871.5 61.9001C880.8 67.9001 889 76.4001 888.7 88.2001C888.6 90.1001 891.6 90.1001 891.7 88.2001C892.1 75.3001 883.2 65.9001 873 59.3001C872.1 58.7001 870.7 59.5001 870.7 60.6001C870.9 63.3001 871.7 65.7001 872.6 68.3001C873.9 71.9001 873.9 75.4001 874.6 79.1001C875.7 84.6001 879.5 87.0001 884.3 89.2001C886.1 89.9001 887.6 87.4001 885.9 86.6001Z" fill="#E8E8E8"/>
<path d="M888.8 73.8C887.7 66.2 892.7 58.9 895.5 52.2C897.7 46.9 899.3 41.5 899 35.7C898 35.8 897 36 896.1 36.1C899.8 53.4 904.4 69.8 896.5 86.8C895.7 88.5 898.3 90.1 899.1 88.3C902.7 80.5 904.6 72.1 904.2 63.5C903.7 54 901 44.6 899 35.3C898.7 33.6 896 34 896.1 35.7C896.7 49.6 883.9 60.8 886 74.6C886.2 76.5 889.1 75.7 888.8 73.8Z" fill="#E8E8E8"/>
<path d="M937.7 15.8999C938.9 52.2999 939.3 88.5999 938.6 125C938.6 126.9 941.6 126.9 941.6 125C942.2 88.5999 941.9 52.1999 940.7 15.8999C940.7 13.8999 937.7 13.8999 937.7 15.8999Z" fill="#E8E8E8"/>
<path d="M940 16.4C944.3 12.8 951.6 14.4 956.4 15.9C958.2 16.5 959 13.6 957.2 13C951.1 11.1 943.1 9.9 937.9 14.3C936.4 15.5 938.5 17.6 940 16.4Z" fill="#E8E8E8"/>
<path d="M955.2 15.8999C955.4 51.7999 955.6 87.5999 955.8 123.5C955.8 125.4 958.8 125.4 958.8 123.5C958.6 87.5999 958.4 51.7999 958.2 15.8999C958.2 13.8999 955.2 13.8999 955.2 15.8999Z" fill="#E8E8E8"/>
<path d="M942.2 40.1001C946.2 36.8001 952.1 37.1001 955.8 40.6001C957.2 41.9001 959.3 39.8001 957.9 38.5001C952.9 33.8001 945.3 33.7001 940.1 38.0001C938.6 39.2001 940.7 41.3001 942.2 40.1001Z" fill="#E8E8E8"/>
<path d="M940.9 28.6001C945.3 24.8001 951.6 24.7001 956.2 28.2001C957.8 29.4001 959.2 26.7001 957.7 25.6001C951.9 21.3001 944.1 21.9001 938.7 26.5001C937.3 27.8001 939.5 29.9001 940.9 28.6001Z" fill="#E8E8E8"/>
<path d="M958.3 41.6C962.8 41.6 967.2 42.1 971.6 43.2C971.2 42.7 970.9 42.2 970.5 41.8C971.1 68.8 970.8 95.7 969.4 122.7C969.3 124.6 972.3 124.6 972.4 122.7C973.8 95.8 974.1 68.8 973.5 41.8C973.5 41.2 973 40.5 972.4 40.4C967.7 39.2 963.1 38.7 958.3 38.7C956.3 38.6 956.3 41.6 958.3 41.6Z" fill="#E8E8E8"/>
<path d="M959 70C963 67.4 967.8 67.3 971.9 69.7C973.6 70.7 975.1 68.1 973.4 67.1C968.4 64.1 962.3 64.2 957.5 67.4C955.9 68.4 957.4 71 959 70Z" fill="#E8E8E8"/>
<path d="M958.5 55.6999C962 53.9999 966 53.8999 969.6 55.3999C971.4 56.0999 972.9 53.5999 971.1 52.7999C966.4 50.7999 961.6 50.8999 957 53.0999C955.3 53.9999 956.8 56.5999 958.5 55.6999Z" fill="#E8E8E8"/>
<path d="M980.1 123C980.1 121.3 979 115.1 980 113.9C981.4 112.2 989.1 112.8 991.1 112.7C998 112.3 1005 112 1011.9 111.9C1025.8 111.7 1039.7 112.2 1053.5 113.3C1053 112.8 1052.5 112.3 1052 111.8C1052.6 116.3 1052.9 120.8 1052.8 125.4C1052.8 127.3 1055.8 127.3 1055.8 125.4C1055.8 120.8 1055.6 116.3 1055 111.8C1054.9 110.9 1054.4 110.4 1053.5 110.3C1036.4 109 1019.1 108.6 1002 109.2C998 109.3 994.1 109.5 990.1 109.8C987.2 110 981.8 109.4 979.1 110.7C975.2 112.5 977 119.8 977.1 123.1C977.1 124.9 980.1 125 980.1 123Z" fill="#E8E8E8"/>
<path d="M990.4 109.3C990.2 108.2 989.2 104.9 989.4 103.8C990.1 100.8 993 101.5 995.2 101.5C998.8 101.4 1002.5 101.4 1006.1 101.3C1013.7 101.2 1021.3 101 1029 100.9C1036.3 100.8 1043.6 100.6 1050.9 100.5C1054.9 100.4 1058.9 100.4 1062.8 100.3C1065.6 100.3 1067.2 99.3001 1068.1 102.9C1068.5 104.5 1068.2 106.6 1068.1 108.2C1068 110.1 1071 110.1 1071.1 108.2C1071.2 105.6 1072 100.5 1069.9 98.3001C1068 96.4001 1064.1 97.3001 1061.8 97.4001C1050.5 97.6001 1039.3 97.8001 1028 98.0001C1017.1 98.2001 1006.1 98.4001 995.2 98.6001C993 98.6001 988.3 97.7001 986.7 99.7001C984.8 102 987.1 107.7 987.5 110.2C987.9 112 990.8 111.2 990.4 109.3Z" fill="#E8E8E8"/>
<path d="M1052.9 113.2C1057.4 113.3 1062 113.4 1066.5 113.1C1068.7 112.9 1070.9 112.1 1070.7 109.5C1070.5 107.6 1067.5 107.6 1067.7 109.5C1067.8 110.6 1054.2 110.3 1052.9 110.2C1051 110.1 1051 113.1 1052.9 113.2Z" fill="#E8E8E8"/>
<path d="M999.2 99.2001C999.1 97.5001 998.6 95.2001 998.8 93.5001C999 91.5001 998.5 91.2001 1000.8 90.9001C1004 90.5001 1008.1 91.6001 1011.3 91.8001C1018 92.3001 1024.8 92.6001 1031.5 92.7001C1038.2 92.8001 1045 92.8001 1051.7 92.5001C1054.7 92.4001 1058.3 91.6001 1061.3 92.0001C1062.7 91.4001 1063.8 91.8001 1064.5 93.1001C1065.6 93.6001 1066 94.5001 1065.9 95.6001C1066.2 96.4001 1066.3 97.4001 1066.6 98.3001C1067.3 100.1 1070.2 99.3001 1069.5 97.5001C1068.6 95.3001 1069.2 92.0001 1067.4 90.1001C1065.8 88.4001 1063.5 88.8001 1061.3 88.9001C1051.4 89.4001 1041.4 89.7001 1031.5 89.6001C1021.9 89.4001 1012.3 88.9001 1002.7 88.0001C1000.7 87.8001 997.6 87.0001 996.2 89.0001C994.6 91.4001 996 96.5001 996.2 99.1001C996.4 101.1 999.4 101.1 999.2 99.2001Z" fill="#E8E8E8"/>
<path d="M1075.9 198.2V242.7C1075.9 244.6 1078.9 244.6 1078.9 242.7C1078.9 227.9 1078.9 213 1078.9 198.2C1078.9 196.3 1075.9 196.3 1075.9 198.2Z" fill="#E8E8E8"/>
<path d="M1078.4 198.2H1156.4C1158.3 198.2 1158.3 195.2 1156.4 195.2C1130.4 195.2 1104.4 195.2 1078.4 195.2C1076.5 195.2 1076.5 198.2 1078.4 198.2Z" fill="#E8E8E8"/>
<path d="M1155 197.2V241.7C1155 243.6 1158 243.6 1158 241.7C1158 226.9 1158 212 1158 197.2C1158 195.3 1155 195.3 1155 197.2Z" fill="#E8E8E8"/>
<path d="M1077.4 245.2H1155.4C1157.3 245.2 1157.3 242.2 1155.4 242.2C1129.4 242.2 1103.4 242.2 1077.4 242.2C1075.5 242.2 1075.5 245.2 1077.4 245.2Z" fill="#E8E8E8"/>
<path d="M1111.4 195.2C1111.4 192.6 1111.6 190.2 1112.3 187.7C1112.6 186.6 1113 184.9 1113.7 184.1C1114 183.1 1114.7 182.8 1115.9 183.2C1117.5 182.5 1118.3 183 1118.4 184.8C1119.6 189 1119.8 193.8 1120.4 198.2C1120.7 200.1 1123.6 199.3 1123.3 197.4C1122.7 193 1122.5 188.3 1121.3 184C1120.7 181.6 1118.9 179.1 1116.2 178.9C1109.5 178.5 1108.3 190.7 1108.3 195.2C1108.5 197.1 1111.5 197.1 1111.4 195.2Z" fill="#E8E8E8"/>
<path d="M1080.8 204.7V237.7C1080.8 239.6 1083.8 239.6 1083.8 237.7C1083.8 226.7 1083.8 215.7 1083.8 204.7C1083.8 202.8 1080.8 202.8 1080.8 204.7Z" fill="#E8E8E8"/>
<path d="M1083.9 204.7H1151.9C1153.8 204.7 1153.8 201.7 1151.9 201.7C1129.2 201.7 1106.5 201.7 1083.9 201.7C1082 201.7 1082 204.7 1083.9 204.7Z" fill="#E8E8E8"/>
<path d="M1150 203.7V238.7C1150 240.6 1153 240.6 1153 238.7C1153 227 1153 215.4 1153 203.7C1153 201.8 1150 201.8 1150 203.7Z" fill="#E8E8E8"/>
<path d="M1082.9 239.2H1147.9C1149.8 239.2 1149.8 236.2 1147.9 236.2C1126.2 236.2 1104.5 236.2 1082.9 236.2C1081 236.2 1081 239.2 1082.9 239.2Z" fill="#E8E8E8"/>
<path d="M1085.7 225.9C1087.9 222.7 1089.9 222 1091.6 223.6C1091.9 223.8 1092.1 224 1092.4 224.2C1093.1 224.5 1093.6 225 1094.3 225.2C1095.5 225.6 1096.9 225.5 1098.1 225C1099 224.6 1099.8 223.9 1100.1 222.9C1100.6 221.3 1099.4 221 1099.3 219.6C1098.8 219 1099 218.4 1099.9 217.6C1100.1 215.3 1101.5 214.8 1103.9 216.2C1104.5 216.2 1105.1 216.4 1105.6 216.3C1107.4 216 1107.6 215.4 1108.9 214.3C1113.1 210.9 1117.8 212.6 1118.9 218C1119 218.7 1119.5 223.3 1118.7 223.8C1117.9 222.8 1117.1 221.9 1116.3 220.9C1118.9 221.3 1120.8 222.7 1121.9 224.9C1122.5 225.9 1123.8 225.8 1124.5 224.9C1126.5 222.8 1128.5 222.7 1130.5 224.7C1131.2 224 1131.9 223.3 1132.6 222.6C1131.8 221.9 1131.1 221.2 1130.3 220.5C1127.7 218.3 1127.9 215.8 1131 212.9C1135.2 213.1 1137.4 217.2 1135.6 220.9C1133.3 225.4 1127.8 226 1123.3 225.6V228.6C1129.8 229 1136.4 229.4 1142.9 229.8C1144.8 229.9 1144.8 226.9 1142.9 226.8C1136.4 226.4 1129.8 226 1123.3 225.6C1121.4 225.5 1121.4 228.4 1123.3 228.6C1128.5 229.1 1134.2 228.1 1137.5 223.5C1140.1 219.8 1139.9 214.2 1136.1 211.3C1133.2 209.1 1128.8 209.5 1126.4 212.4C1122.8 216.9 1127 221.8 1130.4 224.8C1131.8 226.1 1133.9 224.1 1132.5 222.7C1129.3 219.3 1124.4 219.9 1121.8 223.5H1124.4C1121.9 219.4 1117.2 216.4 1112.5 218.9C1108.9 220.9 1107.6 226.1 1110.9 229.1C1114.3 232.2 1119.2 229.8 1121 226.3C1123 222.3 1122.6 216 1119.7 212.4C1116.8 208.8 1111.7 208.4 1108.1 211.1C1105.6 213 1107.1 213.3 1102.9 213C1101.5 212.9 1100.3 212.6 1098.9 213C1097.4 213.4 1096 214.3 1095.3 215.8C1094.8 216.9 1094.6 217.9 1095.1 219.1C1095.2 219.5 1096.3 220.4 1096.2 220.7C1095.8 222.9 1090 218.9 1089 218.7C1084.5 218 1081.5 222.8 1082.8 226.7C1083.4 228.5 1086.3 227.8 1085.7 225.9Z" fill="#E8E8E8"/>
<path d="M1171.4 141.4V175.8C1171.4 177.7 1174.4 177.7 1174.4 175.8C1174.4 164.3 1174.4 152.9 1174.4 141.4C1174.4 139.5 1171.4 139.5 1171.4 141.4Z" fill="#E8E8E8"/>
<path d="M1174.6 141.2H1229.8C1231.7 141.2 1231.7 138.2 1229.8 138.2C1211.4 138.2 1193 138.2 1174.6 138.2C1172.6 138.2 1172.6 141.2 1174.6 141.2Z" fill="#E8E8E8"/>
<path d="M1173.7 178.2H1228.9C1230.8 178.2 1230.8 175.2 1228.9 175.2C1210.5 175.2 1192.1 175.2 1173.7 175.2C1171.8 175.2 1171.8 178.2 1173.7 178.2Z" fill="#E8E8E8"/>
<path d="M1228.3 141V176.3C1228.3 178.2 1231.3 178.2 1231.3 176.3C1231.3 164.5 1231.3 152.8 1231.3 141C1231.3 139 1228.3 139 1228.3 141Z" fill="#E8E8E8"/>
<path d="M1174.8 142.7V175.4C1174.8 177.3 1177.8 177.3 1177.8 175.4C1177.8 164.5 1177.8 153.6 1177.8 142.7C1177.8 140.7 1174.8 140.7 1174.8 142.7Z" fill="#E8E8E8"/>
<path d="M1175.9 175.6H1228.6C1230.5 175.6 1230.5 172.6 1228.6 172.6C1211 172.6 1193.5 172.6 1175.9 172.6C1173.9 172.6 1173.9 175.6 1175.9 175.6Z" fill="#E8E8E8"/>
<path d="M1176.7 143.3H1227.7C1229.6 143.3 1229.6 140.3 1227.7 140.3C1210.7 140.3 1193.7 140.3 1176.7 140.3C1174.8 140.3 1174.8 143.3 1176.7 143.3Z" fill="#E8E8E8"/>
<path d="M1227 142.2V173.6C1227 175.5 1230 175.5 1230 173.6C1230 163.1 1230 152.6 1230 142.2C1230 140.3 1227 140.3 1227 142.2Z" fill="#E8E8E8"/>
<path d="M1186.4 167.7C1194.7 163.7 1204.1 161.8 1212.5 166.7C1214.2 167.7 1215.7 165.1 1214 164.1C1204.7 158.6 1194.2 160.6 1184.9 165.1C1183.1 165.9 1184.7 168.5 1186.4 167.7Z" fill="#E8E8E8"/>
<path d="M1186.4 163.5C1184.6 161.3 1189.2 160.6 1189.8 159.4C1190.3 158.5 1189.6 155.7 1189.9 155.8C1190.8 156 1191.8 155.4 1191.8 154.4C1191.7 149.7 1196.8 157.2 1196.6 156.9C1197.2 157.6 1197.8 158.3 1198.8 158.7C1200.2 159.3 1203.2 157.7 1204 158.3C1204.9 159.1 1206.1 158.7 1206.5 157.6C1207.3 157.3 1208.1 157 1209 156.8C1208.9 158.1 1210.7 158.8 1211.6 157.9C1214.3 160 1214.7 161.7 1212.7 162.9C1211.2 164.2 1213.4 166.3 1214.8 165C1217.4 162.8 1219.2 159 1216.8 155.9C1214.8 153.3 1211.5 153.5 1209.4 155.8C1210.3 156.2 1211.1 156.5 1212 156.9C1212.2 154.7 1210.9 152.9 1208.5 152.7C1205.9 152.5 1204.4 154.7 1203.6 156.9C1204.4 156.7 1205.3 156.5 1206.1 156.2C1204.4 154.8 1204.1 155.4 1202.2 155.3C1197.1 155.1 1198.6 151.9 1195.3 150C1192 148.1 1188.8 151 1188.8 154.4C1189.4 153.9 1190.1 153.4 1190.7 153C1189.2 152.7 1187.4 152.6 1186.4 153.9C1185.3 155.3 1187 156.4 1186.6 157.4C1186 159 1183.1 158.5 1182.4 160.6C1181.7 162.6 1183.1 164.4 1184.3 165.8C1185.5 167.2 1187.6 165 1186.4 163.5Z" fill="#E8E8E8"/>
<path d="M1198.4 137.2C1197.8 135.9 1197.5 134.6 1197.8 133.2C1197.9 132.3 1198.7 129.4 1200.1 129.8C1201.1 130.1 1202.1 132.7 1202.3 133.6C1202.8 135.2 1202.9 136.7 1202.7 138.4C1202.5 140.3 1205.5 140.3 1205.7 138.4C1206 135.7 1205.6 133.1 1204.3 130.7C1203.3 128.7 1201.4 126 1198.8 126.8C1196.8 127.4 1195.5 129.9 1195 131.8C1194.4 134.2 1194.7 136.6 1195.8 138.8C1196.7 140.5 1199.2 139 1198.4 137.2Z" fill="#E8E8E8"/>
<path d="M1175.8 192.9V238.8C1175.8 240.7 1178.8 240.7 1178.8 238.8C1178.8 223.5 1178.8 208.2 1178.8 192.9C1178.8 190.9 1175.8 190.9 1175.8 192.9Z" fill="#E8E8E8"/>
<path d="M1177.3 191.8H1223.8C1225.7 191.8 1225.7 188.8 1223.8 188.8C1208.3 188.8 1192.8 188.8 1177.3 188.8C1175.3 188.8 1175.3 191.8 1177.3 191.8Z" fill="#E8E8E8"/>
<path d="M1222.3 190.3V238.7C1222.3 240.6 1225.3 240.6 1225.3 238.7C1225.3 222.6 1225.3 206.4 1225.3 190.3C1225.3 188.4 1222.3 188.4 1222.3 190.3Z" fill="#E8E8E8"/>
<path d="M1178.5 242.2H1222.5C1224.4 242.2 1224.4 239.2 1222.5 239.2C1207.8 239.2 1193.2 239.2 1178.5 239.2C1176.6 239.2 1176.6 242.2 1178.5 242.2Z" fill="#E8E8E8"/>
<path d="M1192.2 208.2C1191.5 214 1195.2 220.3 1201.4 221C1207.9 221.7 1212.7 216.7 1212.5 210.4C1212.4 208.5 1209.4 208.5 1209.5 210.4C1209.7 215.1 1206.1 218.9 1201.2 217.9C1196.7 217 1194.8 212.4 1195.2 208.2C1195.4 206.3 1192.4 206.3 1192.2 208.2Z" fill="#E8E8E8"/>
<path d="M1202.3 220.3C1202.1 221.7 1203 222.8 1202.6 224.1C1202 226.1 1199.4 228 1198.1 229.5C1195.9 232.1 1194.3 234.7 1194.2 238.2C1194.1 240.1 1197.1 240.1 1197.2 238.2C1197.4 233.6 1201.3 230.9 1203.9 227.5C1204.7 226.5 1205.5 225.4 1205.8 224.2C1206.1 222.8 1205.1 221.7 1205.3 220.3C1205.5 218.4 1202.5 218.4 1202.3 220.3Z" fill="#E8E8E8"/>
<path d="M1195.4 220.2C1191.9 220 1185.3 217.8 1186.9 212.9C1187.7 210.3 1191 210.2 1192.4 208.4C1194.3 206.1 1192.7 204.8 1191.2 203.1C1189.8 201.5 1186.9 200.9 1190.8 197.4C1193 195.4 1196.6 197.9 1198.4 199.4C1199.5 200.4 1199.7 201.5 1201.2 202.2C1202.2 202.7 1203.5 202.9 1204.6 202.5C1206.4 201.7 1208.4 196.4 1210.3 203C1210.5 203.8 1211.4 204.3 1212.1 204C1212.2 206.1 1212.3 208.1 1212.3 210.2C1211.1 211.7 1213.2 213.8 1214.4 212.3C1216.3 209.9 1218.5 206.9 1217.1 203.7C1216 201.3 1213.6 200.4 1211.2 201.1C1211.8 201.4 1212.4 201.8 1213 202.1C1212.2 199.4 1210.9 196.6 1207.8 196.4C1206.8 196.3 1205.9 196.5 1205.1 197C1205.3 196.9 1203.9 198.5 1203.9 198.5C1201.8 199.6 1201.2 197.7 1200 196.5C1197.9 194.2 1196.2 192.9 1192.8 193.4C1190.2 193.8 1186.5 195.6 1185.6 198.3C1184.5 201.5 1187.2 202.4 1188.4 204.8C1189.7 205.3 1189.7 205.9 1188.3 206.6C1188 207.2 1187.6 207.5 1187.1 207.7C1186.7 208 1186.1 208.2 1185.7 208.6C1184.9 209.5 1184.3 210.4 1183.9 211.5C1181.6 218.8 1189.1 222.7 1195.1 223.1C1197.3 223.3 1197.3 220.3 1195.4 220.2Z" fill="#E8E8E8"/>
<path d="M1196.5 190C1196.4 188.5 1195.9 185.8 1197.7 184.9C1199.6 184 1199.3 186.9 1199.1 187.9C1198.7 189.8 1201.6 190.6 1202 188.7C1202.3 187.1 1202.5 185.3 1201.7 183.8C1200.9 182.4 1199.4 181.6 1197.9 181.8C1193.8 182.3 1193.3 186.7 1193.6 190C1193.6 191.9 1196.6 191.9 1196.5 190Z" fill="#E8E8E8"/>
<path d="M1179.5 192.6V236.7C1179.5 238.6 1182.5 238.6 1182.5 236.7C1182.5 222 1182.5 207.3 1182.5 192.6C1182.5 190.6 1179.5 190.6 1179.5 192.6Z" fill="#E8E8E8"/>
<path d="M1181.3 238.9H1221.2C1223.1 238.9 1223.1 235.9 1221.2 235.9C1207.9 235.9 1194.6 235.9 1181.3 235.9C1179.4 235.9 1179.4 238.9 1181.3 238.9Z" fill="#E8E8E8"/>
<path d="M1222.3 237.8C1222.3 222.4 1222.3 206.9 1222.3 191.5C1222.3 189.6 1219.3 189.6 1219.3 191.5V237.8C1219.3 239.7 1222.3 239.7 1222.3 237.8Z" fill="#E8E8E8"/>
<path d="M1182 193H1221.5C1223.4 193 1223.4 190 1221.5 190C1208.3 190 1195.2 190 1182 190C1180.1 190 1180.1 193 1182 193Z" fill="#E8E8E8"/>
<path d="M623.2 733.4C616.5 728 607.4 726.9 600 730.6C591.3 735 586.6 745.3 588.8 755.6C590.6 769.3 592.4 783.1 594.2 796.8C557.7 813.5 540.3 824.4 541.8 829.4C543.6 835.5 573.2 832.9 630.7 821.8C628.2 792.3 625.7 762.9 623.2 733.4Z" fill="#191919"/>
<path d="M598.8 408.8C597.4 428.9 595.1 461.5 591.2 501.9C586.4 552.6 584.4 603.7 577.6 654.2C570.6 706.6 562.9 742.5 580.6 755C587 759.5 594.7 759.5 600.2 758.8C606 757.3 611.8 755.7 617.6 754.2C623.3 757 631 759.7 637.2 756.5C655.4 747.2 638.2 699.5 639.5 631.1C640.4 586 649.1 541 660.7 481.9C669.5 436.8 676.2 413.4 663.7 401.9C648.5 387.8 614.8 401.3 598.8 408.8Z" fill="white" stroke="#161616" stroke-width="2"/>
<path opacity="0.14" d="M627.5 399.4C631.3 417.1 635.6 443.9 635.3 476.5C634.8 529.1 622.5 562.3 613.6 601.8C605.5 637.6 597.7 689.8 601.2 757.1C606.5 756.1 611.9 755 617.2 754C618.4 754.9 623.3 758.2 630.1 757.6C631.1 757.5 637.7 756.8 642 751.9C647.3 745.9 646.2 737 645.6 732.7C643.3 714 642.8 695.1 640.9 676.3C638.9 656.5 639.2 641.1 639.3 631.8C639.4 624.8 639.9 611.7 642.4 590.4C646.8 553.3 650.8 547 659.5 493.1C666.1 452.5 663.2 459.9 665.7 450.7C668 442.5 671.9 430.6 669.8 415.5C668.8 408.4 667 404.4 664.1 401.5C658.1 395.6 649.2 395.7 643.9 395.8C636.8 395.9 631 397.9 627.5 399.4Z" fill="#6D6C6C"/>
<path opacity="0.1" d="M656 501.4C648.5 518 640.6 539.8 635.8 566.1C627.4 612.5 635.7 636.1 628.6 685.7C626 704 621.1 727 611.5 753C615.1 753.5 618.7 754 622.4 754.6C627.8 756.5 634.6 757.9 639.5 754.6C648.3 748.7 645.3 731.4 643.1 711.1C643.1 711.1 640.4 686.1 640 638.6C639.8 612.3 642.2 592.9 645.7 564.6C648.8 539.2 652.6 517.7 656 501.4Z" fill="#6D6C6C"/>
<path d="M749.4 725.8C742.7 720.4 733.6 719.3 726.2 723C717.5 727.4 712.8 737.7 715 748C716.8 761.7 718.6 775.5 720.4 789.2C683.9 805.9 666.5 816.8 668 821.8C669.8 827.9 699.4 825.3 756.9 814.2C754.3 784.7 751.8 755.3 749.4 725.8Z" fill="#191919"/>
<path d="M712.1 405.7C717.9 453.2 724.1 502.2 730.7 553.1C735.2 588.1 736.3 596.4 739.8 610C745.8 633.6 753.9 653.7 760.9 690.2C764.2 707.2 765.9 721 758 731.4C752.1 739.2 740.6 745.4 738 743C736.9 741.9 737.6 739.1 738.6 736.6C736.2 738.9 721 753.2 708.9 748.2C701.8 745.3 698.9 737 697.5 732.5C683.3 689 681 645.4 681 645.4C680.1 628.6 677.9 611.4 673.6 576.9C670.4 551.6 664.4 515 651.5 470.5C649.6 469.3 631 456.9 629.8 434C629.7 432.3 629 415 639.9 403.3C654.3 387.8 685.1 386.7 712.1 405.7Z" fill="white" stroke="#161616" stroke-width="2"/>
<path d="M631.4 417.7C627.8 428.1 626.8 439.8 632.5 449.7C637.4 458.2 645.3 467.5 654.9 470.5C656.7 471.1 657.5 468.2 655.7 467.6C646.9 464.9 639.5 456 635.1 448.2C629.8 439 631 428.2 634.3 418.5C635 416.7 632.1 415.9 631.4 417.7Z" fill="white"/>
<path d="M628.4 436.3C629.3 451.9 639.3 464.9 654.5 469.2C656.4 469.7 657.2 466.8 655.3 466.3C641.5 462.4 632.3 450.6 631.4 436.3C631.3 434.4 628.3 434.4 628.4 436.3Z" fill="white"/>
<path opacity="0.14" d="M672.7 392.7C675.3 400.5 679.3 413.1 683.7 428.7C696.5 473.9 718.6 552.2 720 646.4C720.2 662.1 720.8 742 728 742.4C729.7 742.5 732.5 738.1 736.3 739.1C738.9 739.8 739 742.2 741.3 743.1C746.3 745 754.6 736.4 758.6 730.1C760 727.9 763.2 722.9 763.9 715.8C764.3 712.6 764 710.3 762.9 703.5C761.3 693 760.5 687.8 759.9 685.2C755.6 664.9 747.9 645.4 741.6 617.9C738.9 606.3 737.1 595.9 734.9 583.9C734.2 580.1 732.3 569 730.2 555.2C725.5 523.6 724 501.9 720.9 474.2C719.2 459.1 716.6 437.8 712.6 411.9C711.6 409.7 709.8 406.3 706.6 403.2C705.5 402.2 702.1 399.1 692.9 396.2C688.4 394.6 681.5 392.9 672.7 392.7L672.7 392.7Z" fill="#6D6C6C"/>
<path opacity="0.2" d="M737.7 603C743.2 628.6 746.9 650.5 749.4 667.7C753.4 695.7 753.6 705.9 748.4 716.7C740.6 733 724.4 742.7 725.4 744C725.8 744.5 728.4 743.5 737.4 737.7C737.7 740.1 738.4 742.8 740.4 743.7C745.5 745.9 756.8 734.9 761.7 724.4C768.4 709.9 763.5 695 759 680.7C753.4 662.6 745.9 636.8 737.7 603Z" fill="#6D6C6C"/>
<path d="M604.7 235.7C594.9 234.4 585.9 247.2 568.4 272.7C556.4 290.1 548 305.4 542.5 316C530.6 315.4 518.7 314.8 506.8 314.1C495.7 313.5 484.6 312.9 473.5 312.2C469.1 310.7 462.5 308.5 454.4 306.6C441.3 303.4 414.2 298.1 412.5 302.8C412 304.3 413.8 307.4 425.4 314.7C424.6 316.7 421.7 325.1 425.4 334.8C426 336.3 429.3 344.4 437.1 348.6C447.1 353.9 460.9 351 471 341.1C478.8 345.8 521.1 370.5 560.9 353.6C573.9 348.1 583 339.7 591.1 332.3C605.8 318.8 625.1 301.1 625.6 276.5C626 258.7 616.6 237.3 604.7 235.7Z" fill="white" stroke="#161616" stroke-width="2"/>
<path d="M411.7 304C415.6 307.9 419.4 312.1 423.8 315.4C428.1 318.6 433 320.4 438 322.1C439.4 322.6 440 320.4 438.6 319.9C433.3 318.1 428.2 316.1 423.8 312.5C420 309.4 416.7 305.8 413.3 302.4C412.3 301.4 410.7 303 411.7 304Z" fill="#161616"/>
<path d="M459 314.3C455.2 315.7 451.7 317.9 449 320.9C447.1 323 444.3 326.3 445 329.3C445.7 332.7 449.9 332.7 452.7 332.7C457.2 332.6 461.5 331.3 465.4 329C466.6 328.3 465.5 326.3 464.3 327.1C461.8 328.6 459.1 329.7 456.2 330.2C453.7 330.6 446.4 331.5 447.7 326.8C449 322 455.4 318.1 459.7 316.5C460.9 316 460.3 313.8 459 314.3Z" fill="#161616"/>
<path d="M424.1 316.5C422 323.2 422 329.7 429.2 332.9C434.5 335.3 442.2 334.1 444.9 328.4C445.5 327.1 443.6 326 443 327.3C440.8 332 434.5 332.8 430.1 330.8C424 328.1 424.6 322.6 426.3 317.1C426.7 315.7 424.6 315.1 424.1 316.5Z" fill="#161616"/>
<path d="M423.6 331.3C424 337 427.5 342.6 433.5 343.7C438.8 344.7 443.7 341.5 445.6 336.7C446.1 335.4 444 334.8 443.4 336.1C441.8 340.1 437.3 342.5 433 341.3C428.6 340 426.1 335.6 425.8 331.3C425.8 329.9 423.5 329.9 423.6 331.3Z" fill="#161616"/>
<path d="M445.2 337.8C453 336.4 450.4 350.3 444.7 349.8C443.3 349.7 443.3 351.9 444.7 352.1C449.5 352.5 452.1 346.6 452.4 342.6C452.7 338.2 448.9 335 444.6 335.8C443.2 335.9 443.8 338 445.2 337.8Z" fill="#161616"/>
<path d="M444.6 329.7C444.6 329.6 444.7 329.6 444.7 329.5C444.3 329.6 444 329.7 443.6 329.8C444.4 330 444.5 332.6 444.4 333.1C444.3 334.4 443.8 335.6 442.8 336.6C441.8 337.6 443.4 339.2 444.4 338.2C445.9 336.7 446.7 334.6 446.6 332.4C446.5 330.8 446 328 444.1 327.6C443.7 327.5 443.3 327.6 443 327.9C443 328 442.9 328 442.9 328.1C442.1 329.2 443.6 330.8 444.6 329.7Z" fill="#161616"/>
<path d="M439.2 322.3C441.6 322.4 443.1 324.7 442.5 327C442.1 328.4 444.3 329 444.7 327.6C445.7 323.9 443.2 320.2 439.3 320.1C437.7 320 437.7 322.3 439.2 322.3Z" fill="#161616"/>
<path opacity="0.12" d="M619.5 251.8C616.6 260.3 611.8 271.8 604.2 284.4C596.4 297.3 587.7 311.6 570.8 323.6C564.6 328 545.9 341 518.2 342C492.1 342.9 472.9 332.7 465.3 328.1C459.3 332.6 455.2 332.9 452.5 332.3C450.1 331.7 449.2 330.5 445 329.2C441.4 328.1 438.5 327.9 436.9 327.8C431.1 327.4 425.1 327 423.5 329.7C421.4 333.4 428.2 341.3 433.5 345.6C435.9 347.5 440.1 350.8 446 351.7C459.9 353.9 470.2 341.8 470.8 341.1C474.2 343.2 479.1 346.1 485.3 348.9C495.4 353.6 509.7 360.1 528.7 360C550.3 360 565.9 351.5 569.1 349.7C572.9 347.5 580 341.3 594.1 328.8C607.2 317.2 612 312.1 616.4 305.1C619 301 622.3 295.7 624.2 288.4C628.3 272.8 622.8 258.6 619.5 251.8V251.8Z" fill="#6D6C6C"/>
<path opacity="0.15" d="M624.8 263.8C622.9 270.4 619.6 279.7 613.9 290C608.6 299.6 594.6 324.3 564.9 339.5C556.1 344 540.9 351.6 519.8 351.2C496.4 350.7 479.6 340.7 472.5 335.9C468.5 338.4 462.5 341.6 454.7 343.7C444.3 346.4 436.8 345.5 436.6 347C436.4 348.5 443.6 351.7 451.1 351.5C461.6 351.2 469 344.3 471.7 341.5C478.6 346.5 504.4 364.1 538.2 359.6C564.3 356.1 580.8 341.4 595.3 328.4C606.1 318.7 618.6 307.2 623.4 288C625.9 278.2 625.5 269.6 624.8 263.8V263.8Z" fill="#6D6C6C"/>
<path d="M594.1 236.1C592.1 238.4 588.6 243.3 585.6 266.7C581.6 298.5 583.7 323.7 585.6 342.5C587.8 364.8 590.9 391.7 595.4 422.3C612.8 427.7 641.7 433.8 676.4 428.3C692.1 425.8 705.5 421.5 716.3 417C714 392 714.3 371.8 715 358.5C718.4 289.8 721.5 270.7 721.5 270.7C723.8 257 725.9 248.5 720.8 240.8C715.7 232.9 706 230.2 675.1 228.2C628.2 225 604.6 223.7 594.1 236.1Z" fill="#EC615B"/>
<path opacity="0.14" d="M661.6 228.4C664.7 239.4 667.3 251.1 669.5 263.5C680.9 328.7 672.9 386.5 661.6 429.6C667.4 429.2 673.5 428.5 680 427.4C693.8 425.1 705.9 421.5 715.9 417.8C714.5 397.9 714.1 380.9 714.1 367.4C714.2 329.7 717.5 300.9 718.9 289.4C720.7 275.4 722.6 263.7 724.2 255.2C724.6 252.8 725 248.4 722.9 243.8C720.5 238.5 716 235.7 714.1 234.6C707.6 230.7 701 230.7 697.4 230.7C688.8 230.4 677.4 229.9 661.6 228.4V228.4Z" fill="#6D6C6C"/>
<path opacity="0.16" d="M723.4 252C705.7 297.9 702 330.7 702.4 352.8C702.5 361.1 703.4 381 692.8 401.9C686.3 414.6 677.8 423.5 671.3 429.1C677.3 428.3 683.9 427.1 691 425.2C700.1 422.8 708 419.8 714.7 416.9C713.8 391.1 713.9 363.1 715.6 333.2C717.1 304 719.9 276.9 723.4 252V252Z" fill="#6D6C6C"/>
<path d="M709.8 236.4C722.1 231 738.8 246.8 749.6 256.9C761.4 268 785.3 290.5 786.5 327.3C787.5 358 772.2 380.2 764.6 389.5C752.7 404 739.2 411.6 731.2 415.3C731.1 418.7 730.6 424.1 728.3 430C727 433.2 720.4 450 707.8 450.7C706.1 450.8 700.3 450.8 693.6 444.5C693.2 444.5 691.2 444.2 689.9 442.4C688.7 440.7 688.6 438.2 689.8 436.2C689.5 436 686.9 434.7 686.3 431.6C685.6 428.2 687.9 425.7 688.1 425.6C688.2 423.9 688.6 421.7 690.2 420.6C692 419.4 693.9 420.4 696.8 420.2C698.7 420 701.4 419.3 704.6 416.5C701 415.5 692.9 412.9 693.1 410C693.2 406.6 704.9 404.6 707.5 404.1C713.9 403 719.4 403.2 723.1 403.5C725.3 399.5 728.5 393.6 732.3 386.5C738.7 374.5 741.9 368.5 743.8 364.2C747.4 356.2 751.4 344.1 752.5 327.2C748 322.8 741.1 316.5 732.3 309.6C713.3 294.8 706.9 294.5 701.7 286.1C691.9 270.4 696.6 242.2 709.8 236.4Z" fill="white" stroke="#161616" stroke-width="2"/>
<path d="M687.1 424.4C688.7 432.2 700.7 430.4 705.5 427.6C706.7 426.9 705.6 424.9 704.4 425.7C700.9 427.8 690.5 430.1 689.3 423.9C689 422.4 686.8 423 687.1 424.4Z" fill="#161616"/>
<path d="M688.3 436.9C694.3 441.2 703.1 439.2 709.4 436.3C710.7 435.7 709.6 433.8 708.3 434.4C702.7 436.9 694.8 438.7 689.5 435C688.3 434.1 687.2 436.1 688.3 436.9Z" fill="#161616"/>
<path d="M692.8 445.7C699 448.7 706.2 448.3 711.9 444.3C713.1 443.5 712 441.5 710.8 442.4C705.8 445.9 699.5 446.5 694 443.8C692.7 443.1 691.5 445 692.8 445.7Z" fill="#161616"/>
<path opacity="0.18" d="M705.5 240.2C703.5 247 726.9 253.5 747.4 275.5C754.5 283.1 769 298.6 772.4 321.6C776.7 350.1 761.8 372.9 756.3 381.1C745.7 397.2 732.8 406.7 725 411.6C725 414.4 724.6 424.6 716.8 433.2C715.2 435 708.9 441.9 699.7 442.9C694.4 443.5 689.6 442 689.4 442.6C689.3 443.2 693 444 697.8 447.3C700.9 449.4 701 450.3 702.5 451C708.7 453.9 718.5 445.1 719.6 444.2C729.8 434.9 731 421.1 731.2 416C733.5 414.7 736.6 412.9 740.2 410.5C743.9 408 754.8 400.8 763.4 391.3C765.7 388.8 777.4 375.5 783.1 354.2C785.1 346.7 790.6 325 781.8 301.3C777.9 291 772.9 284.3 763.9 272.6C755.9 262.1 750 256.9 738.6 246.8C730.4 239.5 725.5 236.1 718.9 235.7C714.4 235.4 706.6 236.5 705.5 240.2Z" fill="#6D6C6C"/>
<path opacity="0.18" d="M774 286C777.4 294.4 782.3 309.7 781.6 329.2C780.9 350.4 774 365.8 771.3 371.1C758.9 396.1 739.3 409.5 729.7 415.1C737.5 412.2 748.8 406.7 759.5 396.4C790.8 366.2 786.2 323.6 785.8 320.6C784 305.6 778.6 293.9 774 286V286Z" fill="#6D6C6C"/>
<path d="M659.4 159.4C665.4 179.5 667.6 191.2 676.1 209.6C680.1 218.2 683.9 225 686.6 229.5C677.9 233.6 663.8 238.9 645.7 239.6C635 240 625.8 238.6 618.7 237C619.4 231.5 619.8 224.6 619.3 216.8C618.6 207 616.5 198.7 614.5 192.6C604.9 191.4 595.2 190.1 585.6 188.9C583.7 184.7 581.8 180.4 579.9 176.2C577.3 176.1 574.6 176 572 175.9C574 170.1 577 161 580.5 149.7C587 128.4 586.9 125.4 590.4 120.6C600.1 107.5 621.8 99.1001 636.1 106.2C644.6 110.3 649.6 126.7 659.4 159.4Z" fill="white" stroke="#161616" stroke-width="2"/>
<path d="M572.2 177.5C577.2 177.6 582.1 177.2 587 176.5C588.9 176.2 588.1 173.3 586.2 173.6C581.5 174.3 576.9 174.6 572.2 174.5C570.3 174.5 570.3 177.5 572.2 177.5Z" fill="#161616"/>
<path d="M570.3 139.3C573.1 137.8 576.8 138.6 578.6 141.2C579.7 142.8 582.3 141.3 581.2 139.7C578.4 135.7 573.1 134.4 568.8 136.7C567.1 137.6 568.6 140.2 570.3 139.3Z" fill="#161616"/>
<path d="M593.9 142.8C597.5 141.7 601.4 142.9 603.5 146.1C604.6 147.7 607.2 146.2 606.1 144.6C603.2 140.4 598 138.4 593.1 140C591.3 140.5 592 143.4 593.9 142.8Z" fill="#161616"/>
<path d="M594.6 154C594.5 152.9 594.7 151.8 595.3 150.8C595.4 150.6 595.6 150.3 595.8 150.1C595.4 149.6 595.2 149.5 595.3 150C595.1 150.2 595.2 151.2 595.1 151.5C595 152 594.8 152.5 594.6 153C594.5 153.2 594.4 153.4 594.3 153.5C594.8 154.4 595.1 154.5 595.3 153.8C595.7 153.4 595.9 152.5 596.2 152C596.5 151.4 596.8 150.8 597.1 150.2C597.9 148.7 596 147.2 594.7 148.4C594 149.1 593.6 149.8 593.3 150.7C592.8 152.6 595.7 153.4 596.2 151.5C596.3 151 596.5 150.8 596.8 150.5C596 149.9 595.2 149.3 594.4 148.7C593.7 150.1 592.9 151.5 592.3 153C591.8 154.1 591.9 155.4 593 156.1C595.7 157.8 597.4 154.3 597.9 152.2C598.3 150.2 598.3 146 595 146.9C592.4 147.7 591.4 151.5 591.5 153.8C591.7 155.9 594.7 155.9 594.6 154Z" fill="#161616"/>
<path d="M586.9 125.8C587.6 121.5 589.3 114.3 594 106.9C595.7 104.3 599.2 98.8001 604.9 95.1001C615.8 88.0001 632.5 88.6001 644.6 97.3001C656.5 105.8 662.4 121 659.8 136.2C635.6 132.8 611.2 129.3 586.9 125.8H586.9Z" fill="#5222D0"/>
<path d="M547.1 126.1C584.6 130.8 622 135.5 659.5 140.2C665.2 140.9 665.2 131.9 659.5 131.2C622 126.5 584.6 121.8 547.1 117.1C541.3 116.4 541.4 125.4 547.1 126.1Z" fill="#161616"/>
<path d="M635.6 135.2C629 137.6 625.1 142.2 620.7 147.5C611.3 158.9 614.1 163.1 607.5 170.2C597 181.5 586.3 174.8 576.9 185.9C568.9 195.3 570 208 570.3 210.9C570.6 213.7 572 225 581.3 232.8C589.4 239.5 600.2 241 600.9 239.5C601.1 239 600.3 237.6 594.3 233.6C596 234.8 598.8 236.3 602.3 237C606.4 237.7 610.3 237 610.3 236.4C610.3 235.9 608.1 236 606.4 234.2C605.4 233.1 605 231.9 604.7 230.8C608 232.9 612.1 234.8 616 233.6C626.7 230.4 628.6 206.7 629.2 198.8C631.2 173.4 623.9 159.5 632.8 150.5C633.5 149.7 637.1 146.1 641.1 146.9C646.1 147.8 649.9 155.5 648.3 160.6C646.9 165 641.9 166.2 642.2 167.1C642.7 168.1 651.1 166.5 658.2 160.9C660.8 158.9 662.9 157.2 664 154.2C665.9 148.9 663.7 142.9 660.7 139.3C654.5 132.1 642.8 132.6 635.6 135.2Z" fill="#161616" stroke="#161616" stroke-width="2"/>
<path opacity="0.22" d="M645.5 168C643.9 168.2 641.6 168.2 641.5 167.7C641.4 167.4 642 167 642 167C642 167 640.1 169.4 637.7 169.7C636.6 169.8 635.6 169.5 634.9 169.1C639.1 178 643.4 188.7 647.1 201.1C651.1 214.7 653.4 227 654.7 237.6C659 237.6 665.1 237.1 672.1 234.9C677.8 233.1 682.3 230.7 685.7 228.6C676.7 214.5 672.1 203.2 669.5 195.5C668.3 191.9 665.7 183.4 664.5 179.2C662.2 171.6 660.3 165.3 659.1 161.1C658.5 161.7 657.4 162.6 656.1 163.5C654.2 164.9 650.5 167.5 645.5 168Z" fill="#6D6C6C"/>
<path d="M618.6 90.6999C628.3 92.5999 635.6 100.4 636.8 109.5C638.1 120.4 630.1 127.9 629.3 128.5C639.7 129.8 650 131 660.4 132.3C660.6 129.9 660.7 126.6 660 122.8C658 110.6 650.8 103 649.3 101.5C646.9 99.0999 638.4 90.9999 625.7 90.2999C622.8 90.1999 620.3 90.4999 618.6 90.6999Z" fill="#321693"/>
<path d="M398.5 528.4C399 533.8 399.4 539.3 399.9 544.7L909 545.6C910.5 540.2 912 534.7 913.5 529.3C741.9 529 570.2 528.7 398.5 528.4Z" fill="white"/>
<path d="M405.3 529.1H410.7C412.6 529.1 412.6 526.1 410.7 526.1C408.9 526.1 407.1 526.1 405.3 526.1C403.3 526.1 403.3 529.1 405.3 529.1Z" fill="#161616"/>
<path d="M399.8 532H600.5C600.5 532 734.3 532 801.2 532H915C918.9 532 918.9 526 915 526C848.1 526 781.2 526 714.3 526C647.4 526 580.5 526 513.6 526C475.7 526 437.7 526 399.8 526C396 526 396 532 399.8 532Z" fill="#161616"/>
<path d="M401.2 546.8H796.4H908.2C912.1 546.8 912.1 540.8 908.2 540.8C776.5 540.8 644.7 540.8 513 540.8C475.7 540.8 438.5 540.8 401.2 540.8C397.3 540.8 397.3 546.8 401.2 546.8Z" fill="#161616"/>
<path d="M417.1 561.4V812.7V884.5C417.1 888.4 423.1 888.4 423.1 884.5C423.1 800.7 423.1 716.9 423.1 633.2C423.1 609.3 423.1 585.3 423.1 561.4C423.1 557.6 417.1 557.6 417.1 561.4Z" fill="#161616"/>
<path d="M834.9 557.4V784.9V849.5C834.9 853.4 840.9 853.4 840.9 849.5C840.9 773.7 840.9 697.8 840.9 622C840.9 600.5 840.9 579 840.9 557.4C840.9 553.5 834.9 553.5 834.9 557.4Z" fill="#161616"/>
<path d="M3.8 814.5H232.6H462.4H591.3C595.2 814.5 595.2 808.5 591.3 808.5C515 808.5 438.8 808.5 362.5 808.5C285.9 808.5 209.3 808.5 132.7 808.5C89.7 808.5 46.8 808.5 3.8 808.5C-0.1 808.5 -0.1 814.5 3.8 814.5Z" fill="#161616"/>
<path d="M706.3 817.2H909H1110.7H1225.5C1229.4 817.2 1229.4 811.2 1225.5 811.2C1157.9 811.2 1090.4 811.2 1022.8 811.2C955.6 811.2 888.3 811.2 821.1 811.2C782.8 811.2 744.6 811.2 706.3 811.2C702.4 811.2 702.4 817.2 706.3 817.2Z" fill="#161616"/>
<path d="M418.3 561.3V807.1V877.1C418.3 881 424.3 881 424.3 877.1C424.3 795.2 424.3 713.2 424.3 631.3C424.3 608 424.3 584.7 424.3 561.3C424.3 557.4 418.3 557.4 418.3 561.3Z" fill="#161616"/>
<path d="M419.6 562.6V807.4V877.1C419.6 881 425.6 881 425.6 877.1C425.6 795.5 425.6 713.9 425.6 632.3C425.6 609.1 425.6 585.9 425.6 562.6C425.6 558.8 419.6 558.8 419.6 562.6Z" fill="#161616"/>
<path d="M834.4 555.9V778.6V842.2C834.4 846.1 840.4 846.1 840.4 842.2C840.4 768 840.4 693.7 840.4 619.5C840.4 598.3 840.4 577.1 840.4 555.9C840.4 552.1 834.4 552.1 834.4 555.9Z" fill="#161616"/>
<path d="M835.8 557.3V778.1V841C835.8 844.9 841.8 844.9 841.8 841C841.8 767.4 841.8 693.8 841.8 620.2C841.8 599.2 841.8 578.2 841.8 557.3C841.8 553.4 835.8 553.4 835.8 557.3Z" fill="#161616"/>
<path d="M404.5 547.3C409.7 553.6 414.3 560.2 418.4 567.2C420.4 570.5 425.6 567.5 423.6 564.2C419.2 556.8 414.2 549.8 408.7 543.1C406.2 540.1 402 544.3 404.5 547.3Z" fill="#161616"/>
<path d="M424.8 565.1C432.2 558.9 439.5 552.6 446.9 546.4C449.8 543.9 445.6 539.7 442.7 542.2C435.3 548.4 428 554.7 420.6 560.9C417.6 563.4 421.9 567.6 424.8 565.1Z" fill="#161616"/>
<path d="M817.7 550.4C823.9 554.3 830.1 558.2 836.3 562.1C839.6 564.2 842.6 559 839.3 556.9C833.1 553 826.9 549.1 820.7 545.2C817.4 543.2 814.4 548.4 817.7 550.4Z" fill="#161616"/>
<path d="M853.8 543.3C848.6 547.5 843.6 552 838.9 556.7C836.2 559.4 840.4 563.7 843.1 560.9C847.8 556.2 852.8 551.7 858 547.5C861 545.1 856.8 540.9 853.8 543.3Z" fill="#161616"/>
<path d="M822.4 550.7C830.4 551.9 838.2 552.2 846.2 551.4C845.7 549.5 845.2 547.7 844.7 545.8C841.4 547.9 838 548.5 834.1 548.9C831.9 549.2 829.7 552.2 832 554C835.1 556.5 838.2 557.3 842.1 556.3C845.8 555.4 844.3 549.6 840.5 550.5C839 551.1 837.5 550.8 836.2 549.7C835.5 551.4 834.8 553.1 834.1 554.8C838.9 554.3 843.6 553.6 847.7 550.8C850 549.3 849.4 544.9 846.2 545.2C838.8 545.9 831.3 545.8 823.9 544.7C820.2 544.3 818.6 550.1 822.4 550.7Z" fill="#161616"/>
<path d="M851.4 545C848.6 544.4 845.8 544.8 843.4 546.4C842.1 547.3 841.5 549 842.3 550.5C843.1 551.8 845.1 552.5 846.4 551.6C847.5 550.8 848.6 550.5 849.7 550.8C851.3 551.1 852.9 550.3 853.4 548.7C853.9 547.2 853 545.3 851.4 545Z" fill="#161616"/>
<path d="M411.3 550.1C413.1 551.3 419.8 554.4 419.5 557L422.5 554C422.1 554 420.9 549.4 420.6 548.6C419.7 550.1 418.9 551.6 418 553.1C424 552.8 429.7 551.6 435.2 549.4C434.2 547.7 433.3 546.1 432.3 544.4C428.9 547.9 425.3 551.2 421.4 554.2L425.5 558.3C429.1 552.2 424 547.2 418.8 544.6C418.3 546.5 417.8 548.3 417.3 550.2C421.4 550 425.5 549.9 429.6 550.1C433.5 550.3 433.4 544.3 429.6 544.1C425.5 543.9 421.4 543.9 417.3 544.2C414.5 544.4 413 548.4 415.8 549.8C417.6 550.7 422 552.6 420.4 555.3C419 557.7 422 561.3 424.5 559.4C428.8 556.1 432.9 552.6 436.6 548.7C438.5 546.7 436.6 542.5 433.7 543.7C428.6 545.7 423.5 546.9 418.1 547.2C415.7 547.3 414.6 549.6 415.5 551.7C417.2 555.5 417.1 560.1 422.6 560C424.4 560 425.4 558.6 425.6 557C426.4 551 418.5 547.6 414.5 545C411.1 542.8 408.1 548 411.3 550.1Z" fill="#161616"/>
<path d="M444.1 525.3C444.1 520.4 444.1 515.5 444.1 510.5C444.1 508.6 441.1 508.6 441.1 510.5V525.3C441.1 527.3 444.1 527.3 444.1 525.3Z" fill="#E8E8E8"/>
<path d="M442.6 511.8H525.6C527.5 511.8 527.5 508.8 525.6 508.8C497.9 508.8 470.3 508.8 442.6 508.8C440.7 508.8 440.7 511.8 442.6 511.8Z" fill="#E8E8E8"/>
<path d="M524.1 510.3V524.4C524.1 526.3 527.1 526.3 527.1 524.4C527.1 519.7 527.1 515 527.1 510.3C527.1 508.3 524.1 508.3 524.1 510.3Z" fill="#E8E8E8"/>
<path d="M446.4 517.4H509.9C511.8 517.4 511.8 514.4 509.9 514.4C488.7 514.4 467.6 514.4 446.4 514.4C444.5 514.4 444.5 517.4 446.4 517.4Z" fill="#E8E8E8"/>
<path d="M460.5 523.1H509.2C511.1 523.1 511.1 520.1 509.2 520.1C493 520.1 476.7 520.1 460.5 520.1C458.6 520.1 458.6 523.1 460.5 523.1Z" fill="#E8E8E8"/>
<path d="M463.9 510C463.9 506.6 463.9 503.3 463.9 499.9C463.9 498 460.9 498 460.9 499.9V510C460.9 511.9 463.9 511.9 463.9 510Z" fill="#E8E8E8"/>
<path d="M464.3 500.8H536.6C538.5 500.8 538.5 497.8 536.6 497.8C512.5 497.8 488.4 497.8 464.3 497.8C462.4 497.8 462.4 500.8 464.3 500.8Z" fill="#E8E8E8"/>
<path d="M526.5 511.1H535.9C537.8 511.1 537.8 508.1 535.9 508.1C532.8 508.1 529.6 508.1 526.5 508.1C524.6 508.1 524.6 511.1 526.5 511.1Z" fill="#E8E8E8"/>
<path d="M535.1 499.6V509.3C535.1 511.2 538.1 511.2 538.1 509.3C538.1 506.1 538.1 502.8 538.1 499.6C538.1 497.6 535.1 497.6 535.1 499.6Z" fill="#E8E8E8"/>
<path d="M478.8 505.8H496.1C498 505.8 498 502.8 496.1 502.8C490.3 502.8 484.6 502.8 478.8 502.8C476.8 502.8 476.8 505.8 478.8 505.8Z" fill="#E8E8E8"/>
<path d="M508.6 508.3H524C525.9 508.3 525.9 505.3 524 505.3C518.9 505.3 513.7 505.3 508.6 505.3C506.7 505.3 506.7 508.3 508.6 508.3Z" fill="#E8E8E8"/>
<path d="M480.7 496.4C478.3 494.1 477.8 490.6 478 487.4C478.4 482.1 483.2 481.9 487.2 483.5C489 484.2 489.8 481.3 488 480.6C483.5 478.8 477.6 478.9 475.6 484.2C473.9 488.7 475.1 495.2 478.6 498.5C480 499.9 482.1 497.7 480.7 496.4Z" fill="#E8E8E8"/>
<path d="M486.7 482C496.1 477.8 500 493.6 491.9 497.6C490.2 498.5 491.7 501 493.4 500.2C505 494.4 498.2 473.6 485.2 479.4C483.4 480.2 485 482.8 486.7 482Z" fill="#E8E8E8"/>
<path d="M487 481.2C486.5 478 485.3 475.1 483.4 472.5C482.3 470.9 479.7 472.4 480.8 474C482.5 476.4 483.6 479 484.1 482C484.4 483.9 487.3 483.1 487 481.2Z" fill="#E8E8E8"/>
<path d="M485.6 476.1C485.9 475.3 486.3 474.6 486.8 473.9C487 473.6 487.3 473.2 487.6 472.9C487.7 472.7 487.9 472.6 488.1 472.4C487.6 471.4 487.3 471.2 487.1 471.7C486.6 472.2 486.1 473.5 485.8 474.2C485.3 475.1 484.7 475.9 484.1 476.7C483 478.3 485.6 479.8 486.7 478.2C487.8 476.7 488.8 475.1 489.6 473.4C490.3 472 490.7 470.2 488.9 469.5C485.9 468.4 483.6 473.1 482.8 475.2C482 477.1 484.9 477.9 485.6 476.1Z" fill="#E8E8E8"/>
<path d="M977 677.4C977.4 682.1 977.8 686.9 978.2 691.6C1024.3 691.2 1070.4 690.8 1116.5 690.4C1116 685.9 1115.5 681.4 1115 677C1068.9 677.2 1023 677.3 977 677.4Z" fill="white"/>
<path d="M977.9 693.2H1116.1C1120 693.2 1120 687.2 1116.1 687.2C1070 687.2 1024 687.2 977.9 687.2C974.1 687.2 974 693.2 977.9 693.2Z" fill="#161616"/>
<path d="M978.8 679.5H1114.4C1118.3 679.5 1118.3 673.5 1114.4 673.5C1069.2 673.5 1024 673.5 978.8 673.5C974.9 673.5 974.9 679.5 978.8 679.5Z" fill="#161616"/>
<path d="M974.1 677.4V687.6C974.1 691.5 980.1 691.5 980.1 687.6C980.1 684.2 980.1 680.8 980.1 677.4C980.1 673.5 974.1 673.5 974.1 677.4Z" fill="#161616"/>
<path d="M1113.1 677.4V691C1113.1 694.9 1119.1 694.9 1119.1 691C1119.1 686.5 1119.1 681.9 1119.1 677.4C1119.1 673.5 1113.1 673.5 1113.1 677.4Z" fill="#161616"/>
<path d="M1045.7 691.9V864.2C1045.7 868.1 1051.7 868.1 1051.7 864.2C1051.7 806.8 1051.7 749.4 1051.7 691.9C1051.7 688 1045.7 688 1045.7 691.9Z" fill="#161616"/>
<path d="M1045.5 863.3C1035.2 869.4 1024.9 875.5 1014.5 881.6C1011.2 883.6 1014.2 888.8 1017.5 886.8C1027.8 880.7 1038.1 874.6 1048.5 868.5C1051.9 866.5 1048.8 861.3 1045.5 863.3Z" fill="#161616"/>
<path d="M1047.2 867.6C1058.9 874.1 1070.5 880.7 1082.2 887.2C1085.6 889.1 1088.6 883.9 1085.2 882C1073.5 875.5 1061.9 868.9 1050.2 862.4C1046.8 860.5 1043.8 865.7 1047.2 867.6Z" fill="#161616"/>
<path d="M1016.3 889C1038.5 888.8 1060.6 888.1 1082.8 887C1086.6 886.8 1086.7 880.8 1082.8 881C1060.7 882.1 1038.5 882.8 1016.3 883C1012.4 883 1012.4 889 1016.3 889Z" fill="#161616"/>
<path d="M1019.6 694.1C1028.6 706.9 1036.8 720.3 1044.2 734.1C1046 737.5 1051.2 734.5 1049.4 731.1C1042 717.3 1033.8 703.9 1024.8 691.1C1022.6 687.9 1017.4 690.9 1019.6 694.1Z" fill="#161616"/>
<path d="M1079.7 689.8C1066.6 702.3 1055.4 716.5 1046.3 732.1C1044.3 735.4 1049.5 738.5 1051.5 735.1C1060.4 719.9 1071.3 706.2 1084 694.1C1086.8 691.4 1082.5 687.1 1079.7 689.8Z" fill="#161616"/>
<path d="M835.3 807.4C834.5 821.7 833.8 836 833 850.3C794.8 866.9 776.4 877.8 777.9 882.8C779.6 888.8 809 886.7 865.9 876.7C866.3 852.2 866.7 827.7 867 803.2C856.5 804.6 845.9 806 835.3 807.4Z" fill="#161616"/>
<path d="M953.9 575.7C945.4 583.3 933.3 594.3 919.2 607.9C885.6 640.5 860.9 664.4 844.2 689.1C830.4 709.6 809.9 748.6 808.3 812.4C822.1 816.2 839.5 819.4 859.7 819.2C866.5 819.1 873 818.7 878.9 818C876.3 803.5 874.2 780.8 879.5 754.2C883.2 735.5 889.4 720.5 895 709.6C940 689.6 970.4 665.1 989.8 646.4C1009.4 627.5 1031.7 605.9 1025.7 590.6C1020.2 576.1 990.9 570.5 953.9 575.7Z" fill="#EC615B"/>
<path opacity="0.18" d="M1001.2 575.8C986.1 595.9 968 617.7 946.3 639.9C919.1 667.8 892.2 690.3 868.1 708.2C859.7 745.1 851.3 782 842.9 818.8C846.5 819.4 850.6 819.9 855.1 819.9C864.2 820.1 872 818.8 878 817.2C876.1 804.6 874.8 787.3 877.2 767.2C880.2 742.4 887.8 722.9 894 710C916.6 699.6 934.5 689 947.4 680.6C947.4 680.6 987.8 654.4 1019.1 614.2C1019.8 613.3 1022.2 610.2 1024.1 605.4C1025.6 601.5 1027.5 596.7 1026 591.7C1024.6 587.2 1021.2 584.7 1017.6 582.2C1014.8 580.3 1009.3 577 1001.2 575.8Z" fill="#6D6C6C"/>
<path opacity="0.16" d="M893.2 710.5C888.9 718.5 884.7 726.9 880.6 735.7C866.8 765.4 857.2 793.8 850.5 819.6C859.7 819.2 868.8 818.8 878 818.5C875.9 806.4 874.3 790.1 876.1 771.2C878.6 744.5 886.7 723.7 893.2 710.5Z" fill="#6D6C6C"/>
<path d="M897 821.2C901.6 835.5 906.2 849.8 910.8 864.1C876.8 884.5 860.7 896.8 862.6 900.9C864.9 905.9 894.2 898.5 950.6 878.7C942.8 856 935 833.3 927.2 810.6C917.1 814 907 817.6 897 821.2Z" fill="#161616"/>
<path d="M1061.9 595.1C1069 631.2 1058.3 651.5 1053.2 659.3C1043 674.9 1029.4 679.7 989.7 699.4C974.2 707.1 950.6 719.1 921.7 735C923.7 747.7 926.9 762.3 932 778.2C936.8 793.2 942.4 806.3 947.8 817.3C942.5 822.4 931.8 831.4 915.5 836.6C897.9 842.3 882.8 840.6 875.4 839.3C859.7 808.3 855.7 781.1 854.6 764.5C853.3 744.5 851.8 721.8 863.5 699.4C872.5 682.2 881.2 680.6 917.6 652.8C972.3 611.1 977.8 595.5 1006 589.7C1029.1 585 1049.6 590.5 1061.9 595.1Z" fill="#EC615B"/>
<path opacity="0.22" d="M1024.5 588.4C1025 600 1024.1 618.2 1014.8 636.8C1007 652.5 996.6 663.7 962.3 686.9C931.8 707.5 907.5 723.4 891.8 733.6C901.8 767.1 911.8 800.6 921.8 834.1C924.8 833.1 928.4 831.6 932.1 829.5C938.9 825.6 943.7 820.9 946.8 817.3C942.4 807.9 938 797.4 934.1 785.9C927.7 767.5 923.7 750.3 921.2 735.4C946 721.6 963.4 712.6 973.6 707.5C988.8 699.9 996.3 696.1 1004 692.4C1006.6 691.2 1012.4 688.5 1020 684.5C1028.5 680.1 1032.7 678 1036.5 675.4C1039.6 673.3 1047.4 667.8 1053.7 658.7C1062.7 645.7 1063.5 632.1 1064.1 622.2C1064.5 615.8 1064.4 606.5 1062 595.6C1056.8 593.4 1049.8 591 1041.4 589.6C1034.9 588.4 1029.2 588.2 1024.5 588.4Z" fill="#6D6C6C"/>
<path opacity="0.11" d="M1064 615.1C1062.4 620.4 1059.5 628.1 1054.4 636.4C1038.7 661.6 1014.7 671.6 997.9 680C978 690 951.2 706.5 921.4 735C929.8 730.3 940.1 724.7 952.1 718.3C973.3 707 983.8 701.4 994.7 696.2C1003.2 692.2 1012.9 687.9 1027.4 680.2C1037.8 674.7 1043.5 671.3 1048.9 665C1055 657.9 1057.7 650.8 1059.5 646C1061.7 640 1064.8 629.3 1064 615.1V615.1Z" fill="#6D6C6C"/>
<path opacity="0.17" d="M921 736C921.1 744.4 921.7 753.4 922.8 762.9C925.6 787.2 931.5 808.1 937.8 825C939.6 824 941.7 822.6 943.9 820.7C945.3 819.5 946.5 818.3 947.4 817.2C943.2 808.5 939.1 798.8 935.2 788.3C928.3 769.3 923.9 751.6 921 736L921 736Z" fill="#6D6C6C"/>
<path d="M996 399.3C983.5 403.5 981.3 418.4 972.9 435.4C972.9 435.4 959.7 462.4 930.8 484.6C920.3 492.7 897.6 507 859.7 509.5C856 508 850.3 506 843.1 504.8C832.8 503.1 818.4 500.6 808.7 508.9C804.3 512.7 799.4 519.9 801.6 524.3C804.3 529.7 816.3 527.6 836 526.7C863.3 525.5 862 528.5 881 527.3C898 526.2 924.8 524.6 952.7 508.3C979.4 492.8 993.2 472.1 996.5 466.8C1002.9 456.8 1005.8 448.7 1011.7 432.4C1019.5 411 1018.2 406.2 1016 403.4C1012.2 398.2 1003 396.9 996 399.3Z" fill="white" stroke="#161616" stroke-width="2"/>
<path d="M847.8 512.6C841.5 513.8 832.4 514.1 827.8 519.3C825.2 522.3 825.6 527.6 830.4 527.6C831.8 527.6 831.9 525.3 830.4 525.3C828 522.8 828.2 520.8 831.2 519.4C832.2 518.7 833.3 518.2 834.5 517.7C835.8 517.2 837.1 516.9 838.4 516.6C841.7 515.9 845 515.3 848.4 514.7C849.8 514.5 849.2 512.4 847.8 512.6Z" fill="#161616"/>
<path d="M800.6 521.9C806.5 529.3 815.7 520.7 822.8 522.6C824.2 523 824.8 520.8 823.4 520.4C820.3 519.6 817.6 520 814.5 521C810.4 522.3 805.4 524.5 802.1 520.3C801.3 519.2 799.7 520.8 800.6 521.9Z" fill="#161616"/>
<path d="M804.2 512.8C804.4 515.8 806.4 517 809.3 517C815.8 517 821.5 514.4 828 516.5C829.4 516.9 830 514.8 828.6 514.3C825.3 513.2 822.1 513.1 818.7 513.4C816.3 513.6 806.7 516.3 806.5 512.7C806.3 511.4 804.1 511.4 804.2 512.8Z" fill="#161616"/>
<path d="M814 506.6C815 509 816.7 510.1 819.3 510.5C824.4 511.2 828.8 511.4 833.5 513.5C834.8 514.1 836 512.1 834.6 511.6C832 510.5 829.4 509.5 826.6 509C823.4 508.4 817.5 509.4 816.1 506C815.6 504.7 813.4 505.3 814 506.6Z" fill="#161616"/>
<path opacity="0.16" d="M1008.1 399.6C1002.4 401 1004.1 416.3 1001.1 430.5C996.1 453.4 979.8 467.7 961.8 483.5C949.6 494.2 935.3 506.8 913.5 512.4C906 514.3 893.6 516.4 880.3 517.1C862.3 518 853.4 518.5 852.8 518.4C849.8 518.1 842.5 517.3 834.7 520.7C833.1 521.4 828.7 523.3 829 524.7C829.4 526.8 839.8 526.2 863.2 526C880.5 525.9 878.7 526.2 884 526C894 525.6 911.4 525 931 517.9C958.9 507.9 976.1 490.2 984 482C991.6 474 995.8 467.8 997.1 465.9C1003.3 456.6 1006.2 448.3 1011.9 432C1018.5 413 1018.5 408 1015.9 404.1C1014.1 401.8 1010.8 398.9 1008.1 399.6Z" fill="#6D6C6C"/>
<path opacity="0.13" d="M803.3 525.1C804 523.3 807 515.9 815 512C827 506.3 838.7 514 839.2 514.3C836.6 515.7 834.4 516.7 832.8 517.3C830.3 518.4 829.3 518.6 828.4 519.6C826.9 521.5 827.3 524.3 827.7 526C824.5 526.7 820.3 527.2 815.3 527C810.5 526.9 806.4 526 803.3 525.1H803.3Z" fill="#6D6C6C"/>
<path opacity="0.14" d="M1015.8 416C1011.6 430 1002.4 453.6 982.2 476.4C954.7 507.5 922.4 519.6 907.7 524.1C919 522.1 961 513.2 990.6 474.8C1008.1 452 1013.7 428.8 1015.8 416V416Z" fill="#6D6C6C"/>
<path d="M992.6 400.1C986.3 407 981.8 416.1 978.9 449.7C974.6 498.8 981.4 510.1 973.8 534.4C970.3 545.5 963.1 561.6 946.4 578.9C958.2 586.5 977.3 596.9 1002.9 602.9C1028.2 608.8 1049.7 607.9 1063.7 606.3C1081.7 551 1080.2 506.3 1076.5 478.8C1073 452.6 1065.1 392.3 1033.7 384.7C1018.8 381 1001.9 390 992.6 400.1Z" fill="white" stroke="#161616" stroke-width="2"/>
<path opacity="0.12" d="M1025.7 384.9C1025.2 389 1024.5 395.1 1023.8 402.4C1019.1 451.3 1024.6 460.2 1021 489C1019 505.4 1014.8 536.1 993.2 564.7C984.2 576.6 974.7 584.9 967.9 590C978.8 595.5 995.4 602.4 1016.6 605.6C1035.6 608.4 1051.7 607.3 1063.1 605.6C1066.3 596.4 1070.1 583.9 1073.1 568.9C1078.7 541.1 1079.1 517.4 1078.4 501C1077.1 469.3 1074.2 401.3 1039.4 387.4C1034 385.3 1029.1 384.9 1025.7 384.9Z" fill="#6D6C6C"/>
<path opacity="0.24" d="M1077.7 528.5C1076.5 528.3 1073.7 540.7 1069.6 551.9C1064.4 566.4 1054.6 585.9 1034.3 607C1044.1 606.5 1054 606.1 1063.8 605.6C1067.1 595 1071.3 579.2 1074.7 559.7C1076.9 546.6 1079.2 528.8 1077.7 528.5Z" fill="#6D6C6C"/>
<path d="M1052 398.8C1063.3 401 1068.1 418.9 1072.1 434.6C1076.1 450.4 1083.8 482.6 1073 525C1068.5 542.5 1064.5 558.8 1050.6 575.3C1032.5 596.9 1009.4 605.3 998.6 608.4C986.6 616.7 980.4 620.9 976.9 623.1C974.4 624.7 972.9 625.6 970.2 627.5C966.3 630.3 965.6 631.2 963.7 632C961.7 632.8 958.5 633.4 953.7 631.9C953.3 632 950.2 632.4 947.9 630.1C946.5 628.7 946.2 627.1 946.2 626.4C945.9 626.4 944 626.2 942.7 624.6C941.5 623.1 941.4 621 942.3 619.2C941.9 618.4 941.5 617.3 941.5 615.9C941 608.9 949.3 603.3 953.9 600.1C958.8 596.7 968.5 591.3 983.5 589.9C991.6 585.6 1003.7 577.9 1014.4 565C1017.8 561 1040.5 532.8 1038.7 494.9C1038 479 1032.3 449.4 1029.1 421.8C1028.9 419.8 1028.3 414.4 1031.2 409.2C1035.4 402.1 1045 397.5 1052 398.8Z" fill="white" stroke="#161616" stroke-width="2"/>
<path d="M942.6 619.9C944 619.9 944.1 617.6 942.6 617.6C941.2 617.6 941.2 619.9 942.6 619.9Z" fill="#161616"/>
<path d="M941.5 618.7V619.4C941.6 620.6 942.9 620.9 943.6 620C947.6 614.7 953 610.8 959.3 608.8C960.7 608.4 960.1 606.2 958.7 606.6C951.8 608.8 946 613 941.6 618.8C942.3 619 943 619.2 943.7 619.4C943.7 619.2 943.7 619 943.7 618.7C943.7 617.3 941.4 617.3 941.5 618.7Z" fill="#161616"/>
<path d="M947.1 626.8C952.2 621 958.5 616.6 965.7 613.7C967 613.2 966.5 611 965.1 611.5C957.5 614.5 950.9 619 945.5 625.1C944.6 626.3 946.2 627.9 947.1 626.8Z" fill="#161616"/>
<path d="M954.6 632.2C959.8 626.3 965.8 621.4 972.6 617.4C973.8 616.7 972.7 614.7 971.5 615.5C964.6 619.6 958.4 624.6 953.1 630.7C952.1 631.7 953.7 633.3 954.6 632.2Z" fill="#161616"/>
<path opacity="0.13" d="M1047.6 402.6C1043.8 408.1 1050 417.8 1053.5 425C1058.6 435.6 1059.4 447.1 1061 470.1C1063.9 511.8 1044.5 547.5 1043.1 550C1025.4 581.5 997.9 600.4 989.3 606.2C974.7 616 954 626.7 955.7 630.8C956.3 632.3 959.6 632.5 961 632.4C965.8 632.2 967.8 628.5 974.5 623.8C978 621.3 977.9 622.1 983.9 618.5C987.4 616.4 992.4 613.2 998.3 608.7C1011.7 605.1 1021.6 599.6 1027.8 595.6C1036.8 589.8 1054.1 576.5 1064.7 553.3C1068.3 545.4 1069.7 539.1 1072.5 526.6C1075.4 513.5 1080 492 1077.4 464.6C1076.2 452.2 1074.1 443.9 1071.2 433C1066.7 415.5 1062.6 400.4 1054.8 399.4C1052.2 399 1049.1 400.5 1047.6 402.6Z" fill="#6D6C6C"/>
<path opacity="0.16" d="M1076.1 457.3C1075.2 457.3 1075.4 467.8 1071.1 495.7C1067.2 520.7 1065.2 533.5 1059.7 545.2C1051.7 562.2 1040.8 572.9 1035.5 578C1020.4 592.6 1011.3 593.6 988.2 610.6C976.1 619.5 967.1 627.6 961.8 632.6C973.8 624.6 985.7 616.6 997.7 608.7C1008.7 605.5 1031.3 597.1 1049.5 575.6C1062 560.8 1066.9 546.3 1070.7 535C1083.7 494.7 1077.7 457.3 1076.1 457.3V457.3Z" fill="#6D6C6C"/>
<path d="M1007.1 355.2C1002.6 358.3 1001.8 364.3 1001.1 370.9C1000.4 377.6 1000.3 389.3 1006.4 403.8C1010.2 403.8 1014.9 403.5 1020.1 402.5C1024.2 401.7 1027.8 400.6 1030.8 399.5C1030.4 386.2 1030.1 372.9 1029.7 359.6C1021.3 353.4 1012.5 351.5 1007.1 355.2Z" fill="white" stroke="#161616" stroke-width="2"/>
<path d="M983.3 288.5C976.3 292.5 973.3 299.2 967.4 312.2C960.8 327 956.2 339.8 954.4 349.2C954.1 350.6 954.8 352 956.1 352.6C957.8 353.4 960.8 353.7 962.4 354.1C962.4 358 962.9 364.7 966.4 371.9C972.8 385 984.6 390.3 988.1 391.7C999.2 389.8 1007.4 386 1012.3 383.1C1016.8 380.6 1022.6 377.2 1028.3 370.6C1033.4 364.6 1036.1 358.6 1037.5 354.6C1039.6 354.6 1042.8 354.4 1046.1 352.6C1052.9 348.9 1058.7 339.2 1055.1 333.3C1052.4 329 1045 327.2 1037.4 330C1037.5 326.8 1037.4 322.4 1036.3 317.2C1036 315.9 1033.9 306.4 1029.1 299.7C1019.9 286.8 997.5 280.4 983.3 288.5Z" fill="white" stroke="#161616" stroke-width="2"/>
<path d="M958.1 333.8C955.6 329.9 950.1 320.1 950.9 307.1C951.2 302.7 951.8 294.3 957.9 286.4C965.3 276.8 975.6 274.3 978.6 273.7C980 271.4 982.4 268 986.4 265.2C988 264.1 992.4 261.4 1003.2 260.8C1008.9 260.5 1017.6 260.7 1028 263.7C1036.1 266.1 1041.5 269.5 1044.8 272.2C1057.5 282.2 1056.5 290.1 1072.6 306.3C1076.3 310 1078.9 311.3 1084.5 316.8C1090.4 322.5 1095.1 328 1097.7 331.3C1103.6 338.8 1114.7 353 1116.8 372.2C1117.5 378.7 1119.5 397 1108.1 411C1092.6 430.1 1057.6 431.6 1036.3 416.4C1032.3 413.6 1015.7 401.6 1016.6 382.3C1017.4 364.9 1031.9 354.5 1033.9 353C1035.6 353.7 1039.1 354.8 1042.5 353.6C1049.6 351 1052.6 340.1 1048.9 334.6C1047.4 332.4 1045 331.5 1044.3 331.3C1038.5 329.3 1033.1 333.6 1032.7 333.9C1024.9 328.2 1019 322.7 1014.9 318.4C1009.3 312.7 1006.5 308.9 1005.5 307.5C1002.4 303.1 1000.1 299.1 998.6 296.1C994 297.2 988 299.3 981.7 303.4C980.2 304.3 975.2 307.7 970 313.6C969.4 314.3 966.5 317.6 963.4 322.6C961.1 326.9 959.3 330.7 958.1 333.8Z" fill="#5222D0"/>
<path d="M978.5 342.7C978.5 342.6 978.5 342.6 978.5 342.7C978.5 342.8 978.6 343 978.6 343.2V343.3C978.5 343.5 978.4 343.6 978.3 343.8C978.5 343.6 978.3 343.7 977.9 344C977.7 343.9 977.5 343.9 977.3 343.8C977.2 343.7 977.1 343.7 977.1 343.6C977 343.4 977 343.2 976.9 343V342.9C977 342.7 977.1 342.6 977.2 342.4C977.4 342.4 977.6 342.3 977.8 342.3L978.6 343.1V343.4C978.1 343.5 977.6 343.7 977.1 343.8L977 343.7C976.9 343.5 976.8 343.4 976.7 343.2C976.8 342.9 977 342.6 977.1 342.4C977.3 342.3 977.5 342.3 977.7 342.2H977.6C977 342.3 976.5 342.7 976.5 343.3C976.5 343.9 977 344.5 977.6 344.4C978.2 344.3 978.8 344 978.9 343.3C979.1 342.7 978.8 342 978.2 341.7C977.6 341.4 977 341.6 976.7 342.1C976.1 342.9 976.5 344.2 977.5 344.3C978.4 344.4 979.2 343.7 979.2 342.8C979.2 341.9 978.3 341.3 977.4 341.5C976.5 341.8 976.1 342.7 976.5 343.6C976.8 344.2 977.6 344.3 978 344C978.7 343.9 978.7 343.2 978.5 342.7Z" fill="#161616"/>
<path d="M987.3 340.3C987.5 341.3 987.1 341.2 986.2 340C986.4 339.9 986.5 339.8 986.7 339.7C987.1 339.7 987.4 339.9 987.6 340.4C987.7 339.8 987 339.3 986.5 339.3C985.8 339.3 985.4 339.8 985.4 340.4C985.3 341.3 986.2 342 987 341.9C988 341.9 988.6 340.9 988.3 340C988 339.1 987 338.6 986.1 339.1C985.2 339.6 985.1 340.5 985.5 341.4C985.7 342 986.6 342.1 987 341.8C987.5 341.5 987.6 340.9 987.3 340.3Z" fill="#161616"/>
<path d="M984.5 346.9C985.1 346.9 985.2 347.1 984.8 347.6C984.8 348 984.7 348.2 984.4 348.2C984.3 347.8 984.3 347.3 984.2 346.9C984.5 346.8 984.7 346.8 985 347C984 345.9 982.4 347.5 983.4 348.6C984.1 349.4 985.4 349.2 985.9 348.3C986.4 347.4 985.9 346.3 985 346C984 345.7 983 346.4 982.9 347.4C982.9 348.5 984 349.3 985 349.1C986.5 348.7 985.9 346.5 984.5 346.9Z" fill="#161616"/>
<path d="M966 368.7C972.2 367.6 977.6 364 981.1 358.7C981.9 357.5 980 356.4 979.2 357.6C976 362.4 971.2 365.5 965.5 366.6C964 366.8 964.6 368.9 966 368.7Z" fill="#161616"/>
<path opacity="0.1" d="M1000 299.4C1001.8 303 1004.1 307.8 1006.7 313.5C1014.7 330.9 1015.6 335.7 1015.9 339.9C1016.3 346.2 1015.2 351 1014.3 354.4C1009.7 373 996.2 385.4 989.5 390.8C992.8 390.4 996.8 389.7 1001.2 388.2C1008 385.9 1013.3 382.8 1016.9 380.2C1016.6 383.3 1016.6 388.1 1018.4 393.5C1020.4 399.9 1024 403.9 1027 407.7C1029.3 410.6 1033.4 415.2 1039.9 418.9C1046.2 422.6 1052.1 423.9 1055.7 424.5C1064.1 426.4 1071.1 426.2 1075.8 425.8C1082.3 425.2 1092.6 424.3 1102.2 416.9C1104.6 415 1110.1 410.7 1113.4 403.1C1114.2 401.3 1115.4 397.9 1116 388.9C1116.7 378.3 1117.2 370.9 1114.7 361.5C1112.1 351.8 1107.4 344.3 1102.8 338.8C1094.8 360.3 1075.5 372.7 1058.1 370.1C1044.5 368 1036.3 357.3 1033.9 354C1039.2 355.2 1044.6 353.6 1047.7 349.7C1051.4 345.3 1052.5 337.4 1047.7 333.2C1043.9 329.9 1037.6 329.8 1032.9 333.5C1027.2 329.4 1020.7 324 1014.1 317C1008.2 310.9 1003.6 304.8 1000 299.4V299.4Z" fill="#6D6C6C"/>
<path d="M976.9 331.9C976.3 330.9 976.2 329.4 977.2 328.6C976.9 328.7 976.7 328.8 976.4 328.9H976.7C976.4 328.8 976.2 328.7 975.9 328.6C976.9 329.4 976.1 332.5 975.7 333.4C975.9 333.2 976.1 333.1 976.4 332.9C976.3 332.9 976.2 333 976.2 333C976.5 333 976.8 333.1 977.1 333.1C976.5 332.8 976.6 331.2 976.7 330.8C976.8 329.9 977 329.1 977.4 328.4C976.9 328.5 976.4 328.7 975.9 328.8C976.4 329.2 976.5 330 976.4 330.6C976.4 330.9 976.3 331.2 976.2 331.4C976.1 331.9 975.9 331.9 976.4 332C976.6 332.2 976.8 332.3 977.1 332.5C977.1 332.4 977 332.4 977 332.3C976.1 331.2 974.2 332.3 975.1 333.4C975.6 334 976.3 334.4 977.1 334.1C978 333.8 978.3 332.9 978.5 332.1C979 330.1 979 328.1 977.2 326.8C976.7 326.4 975.9 326.7 975.7 327.2C974.7 329.2 974.1 332.3 975.4 334.3C975.9 335.1 977 335.5 977.8 334.9C978.7 334.2 978.8 332.4 978.9 331.4C979.1 329.9 978.8 325.6 976.2 326.9C974.1 328 974.3 331.4 975.3 333.1C975.7 334.3 977.7 333.1 976.9 331.9Z" fill="#161616"/>
<path d="M972.3 321.7C977.6 320.8 982.1 323.7 986.2 326.8C987.4 327.7 988.5 325.7 987.3 324.9C982.7 321.4 977.7 318.7 971.7 319.6C970.3 319.7 970.9 321.9 972.3 321.7Z" fill="#161616"/>
<path d="M978.3 357.7C979.4 358.4 980.4 359.3 981.3 360.3C982.3 361.4 983.9 359.8 982.9 358.7C981.9 357.6 980.7 356.6 979.4 355.7C978.2 354.9 977.1 356.9 978.3 357.7Z" fill="#161616"/>
</svg>
