<svg width="1420" height="969" viewBox="0 0 1420 969" fill="none" xmlns="http://www.w3.org/2000/svg">
<path d="M59.4 728.4C62.1 736.4 59.2 744.4 58 752.3C57 759 57.8 764.9 61.5 770.7C63.5 773.8 66.3 777 67.1 780.7C68.1 785.3 64.7 788.5 63.2 792.5C61.7 796.5 62.7 802.2 67.7 802.9C67.5 802.1 67.3 801.2 67 800.4C64.7 802.9 64 806.6 66.1 809.5C67.7 811.7 71.1 811.9 72 814.8C72.9 817.7 71.4 821.4 70.9 824.2C69 835.9 76.1 846.1 84.5 853.4C94.3 862 105.1 869 113.9 878.7C123.1 888.8 130.7 900.4 136.4 912.8C137.2 914.5 139.8 913 139 911.3C129.4 890.6 114.9 873 96.7 859.2C86.6 851.6 74 842.6 73.5 828.6C73.4 824.1 75.6 819.6 75 815.1C74.8 813.7 74.4 812.3 73.4 811.2C71.2 808.6 64.7 807 69 802.4C69.7 801.7 69.5 800.1 68.3 799.9C61.5 798.9 67.7 790.3 68.8 787.6C69.7 785.6 70.2 783.6 70 781.4C69.5 775.7 64.9 771.4 62.4 766.5C56 754.1 66.5 740.3 62.1 727.4C61.7 725.8 58.8 726.6 59.4 728.4Z" fill="#E8E8E8"/>
<path d="M61.5 731.3C130.4 761.8 147.3 842.7 159.3 909.3C159.6 911.2 162.5 910.4 162.2 908.5C152.3 853.2 140.8 793.6 98.7 752.9C88.3 742.8 76.3 734.5 63 728.7C61.3 727.9 59.7 730.5 61.5 731.3Z" fill="#E8E8E8"/>
<path d="M66.5 738.3C103.3 785 129.5 839.7 142.9 897.6C143.3 899.5 146.2 898.7 145.8 896.8C132.3 838.3 105.8 783.3 68.7 736.1C67.4 734.6 65.3 736.8 66.5 738.3Z" fill="#E8E8E8"/>
<path d="M74.6 788.4C96.3 798.3 113.7 815.7 123.7 837.4C124.5 839.2 127.1 837.6 126.3 835.9C116.2 813.8 98.3 795.9 76.2 785.8C74.3 785 72.8 787.6 74.6 788.4Z" fill="#E8E8E8"/>
<path d="M149.3 843.2C142.7 814.7 165.3 791.7 179.3 769.7C186.1 759 191.8 747.5 196.1 735.6C198.2 729.8 199.7 723.8 201.5 717.9C203.2 712.3 205.5 706 211.6 704.3C211 704.1 210.5 703.8 209.9 703.6C212.2 708.1 213.4 713 212.9 718.1C212.6 721.3 210.2 724.8 210.5 727.8C210.7 729.6 212.3 732.4 212.9 734.2C213.6 736.5 214.1 738.8 214.4 741.1C214.8 743.9 215 746.7 215 749.5C215 751.6 213.6 757.3 214.3 758.9C213.5 757.2 211.3 758.5 211.6 760.1C214.4 777.1 218.4 794.4 219.4 811.5C220.4 828.7 213.5 843.3 204.8 857.7C189.4 883.2 173 910.4 176.1 941.5C176.3 943.4 179.3 943.4 179.1 941.5C175.7 907.4 196.1 880 211.8 851.8C219.2 838.5 223.5 824.9 222.3 809.6C221 792.8 217.2 776 214.5 759.3C213.6 759.7 212.7 760.1 211.8 760.5C211.9 760.7 212 760.9 212.1 761.1C212.3 761.6 212.9 761.8 213.4 761.8C217.1 761.9 217.5 757.7 217.8 754.9C218.6 748 218 741 216.2 734.4C215.5 731.9 213.8 729.1 214.1 726.5C214.4 724.1 215.7 721.6 216 719C216.7 713.1 215.4 707.4 212.7 702.2C212.4 701.6 211.6 701.3 211 701.5C200.7 704.5 199.1 716.7 196.5 725.5C192 740.6 185.4 755 176.9 768.3C162.3 791.2 139.7 814.5 146.6 844.1C146.9 845.9 149.8 845.1 149.3 843.2Z" fill="#E8E8E8"/>
<path d="M204.9 728.7C203.2 758.9 191 786.8 181.1 814.9C171.1 843.4 164.8 872.8 162.6 902.9C162.5 904.8 165.5 904.8 165.6 902.9C167.9 871.8 174.8 841.6 185.2 812.3C194.9 785 206.2 757.9 207.9 728.7C208 726.8 205 726.8 204.9 728.7Z" fill="#E8E8E8"/>
<path d="M162.5 797.4C163.9 811.1 167.6 824.3 173.7 836.7C174.6 838.4 177.1 836.9 176.3 835.2C170.5 823.3 166.8 810.6 165.5 797.5C165.3 795.5 162.3 795.5 162.5 797.4Z" fill="#E8E8E8"/>
<path d="M186 811.7C196.4 805.4 205.2 797.2 212.2 787.3C213.3 785.7 210.7 784.2 209.6 785.8C202.9 795.3 194.4 803.1 184.4 809.1C182.8 810.1 184.3 812.7 186 811.7Z" fill="#E8E8E8"/>
<path d="M132.6 904.8C139 916.7 143 929.5 144.5 942.9C144.7 944.8 147.7 944.8 147.5 942.9C145.9 929 141.8 915.7 135.2 903.3C134.3 901.6 131.7 903.1 132.6 904.8Z" fill="#E8E8E8"/>
<path d="M157.7 902.9C160.2 915.2 161.6 927.7 161.8 940.3C161.8 942.2 164.8 942.2 164.8 940.3C164.6 927.4 163.2 914.7 160.6 902.1C160.2 900.2 157.3 901 157.7 902.9Z" fill="#E8E8E8"/>
<path d="M1162.3 818.3C1161.1 822.3 1159.2 826.6 1158.6 830.8C1158.3 832.5 1158.2 834.1 1159.3 835.5C1160.7 837.2 1163.1 837.4 1165.1 837.7C1169.6 838.5 1174.1 839.2 1178.6 839.8C1194.8 842 1211.2 842.9 1227.5 843.2C1244.4 843.5 1261.3 843 1278.3 842.4C1282.7 842.2 1287.7 842.7 1291.9 841.9C1293.1 841.7 1294.4 841.7 1295.2 840.6C1297 838.3 1294.5 836.3 1292.2 837.5C1291.7 837.8 1291.3 838.6 1291.5 839.2C1291.6 839.3 1291.6 839.5 1291.7 839.6C1292.4 841.4 1295.3 840.6 1294.6 838.8C1294.5 838.7 1294.5 838.5 1294.4 838.4C1294.2 839 1293.9 839.5 1293.7 840.1C1293.1 839.7 1292.5 839.3 1291.9 838.9C1290.9 838.9 1290 839 1289 839C1287.4 839.1 1285.8 839.1 1284.1 839.2C1281.2 839.3 1278.2 839.4 1275.3 839.5C1269.4 839.7 1263.6 839.9 1257.7 840C1245.3 840.3 1233 840.4 1220.6 840C1208.6 839.7 1196.6 838.9 1184.7 837.5C1178.4 836.8 1172.1 835.9 1165.8 834.8C1161.7 834.1 1161.2 832.3 1162.3 828.4C1163.2 825.3 1164.2 822.1 1165.1 819C1165.7 817.2 1162.8 816.4 1162.3 818.3Z" fill="#E8E8E8"/>
<path d="M1165.1 819.9C1166.7 815 1177.7 816.2 1181.6 816.1C1187.1 815.9 1192.7 815.7 1198.2 815.6C1209.9 815.4 1221.6 815.4 1233.4 815.8C1244.8 816.1 1256.2 816.7 1267.5 817.6C1272.9 818 1278.8 817.9 1284 819.1C1289.4 820.4 1289.4 823 1290.2 827.3C1290.8 830.4 1291.4 833.5 1292 836.6C1292.4 838.5 1295.3 837.7 1294.9 835.8C1294.2 832.1 1293.4 828.3 1292.7 824.6C1292.3 822.4 1292 819.9 1290.3 818.2C1287.1 815 1280.2 815.8 1276.1 815.4C1261.5 814.1 1246.9 813.2 1232.2 812.8C1217.9 812.4 1203.5 812.4 1189.2 812.9C1182.9 813.1 1176.4 813 1170.1 813.8C1166.5 814.3 1163.2 815.5 1162 819.2C1161.6 821 1164.5 821.7 1165.1 819.9Z" fill="#E8E8E8"/>
<path d="M1168 836.5C1172.4 860.7 1175.5 885.1 1177.4 909.6C1177.5 910.5 1178 911 1178.9 911.1C1208.3 913.8 1237.8 914.5 1267.2 913.2C1269.1 913.1 1269.1 910.1 1267.2 910.2C1237.7 911.5 1208.2 910.8 1178.9 908.1C1179.4 908.6 1179.9 909.1 1180.4 909.6C1178.5 884.8 1175.4 860.2 1170.9 835.7C1170.5 833.8 1167.6 834.6 1168 836.5Z" fill="#E8E8E8"/>
<path d="M1283.5 842.5C1279.5 865.3 1274.6 888 1268.7 910.4C1268.2 912.3 1271.1 913.1 1271.6 911.2C1277.4 888.8 1282.4 866.1 1286.4 843.3C1286.7 841.4 1283.8 840.6 1283.5 842.5Z" fill="#E8E8E8"/>
<path d="M1100.6 656.6C1107.2 674.5 1112 692.9 1115.1 711.6C1115.2 712.1 1115.7 712.5 1116.1 712.6C1119.3 713.5 1122.5 714.4 1125.6 715.3C1125.3 714.7 1124.9 714.1 1124.6 713.5C1122.8 721.7 1122 730.6 1129.7 735.8C1132.2 737.5 1134.8 738.5 1135.4 741.8C1135.8 744.2 1135.6 746.6 1136.1 749C1137.1 754.1 1139.2 759 1142.2 763.2C1148.9 772.5 1159.4 776.5 1168.8 782.4C1179.2 789 1187.3 798.5 1192.7 809.5C1193.5 811.2 1196.1 809.7 1195.3 808C1190.9 799 1184.7 790.9 1176.9 784.6C1168.3 777.6 1157.2 774 1149.1 766.5C1144.8 762.6 1141.7 757.4 1139.9 751.9C1139 749.1 1138.5 746.2 1138.4 743.3C1138.3 741.7 1138.6 740.4 1137.9 739C1136.2 735.2 1131.3 734.1 1128.7 731.1C1124.8 726.6 1126.3 719.6 1127.4 714.3C1127.6 713.5 1127.2 712.7 1126.4 712.5C1124.4 711.9 1120.4 711.6 1118.8 710.4C1116.8 708.9 1116.9 704.9 1116.5 702.5C1115.5 697.2 1114.3 692 1113 686.7C1110.4 676.2 1107.2 666 1103.5 655.9C1102.9 654 1100 654.8 1100.6 656.6Z" fill="#E8E8E8"/>
<path d="M1103.8 656.7C1138.2 666.8 1167.7 690.3 1185.3 721.5C1186.2 723.2 1188.8 721.7 1187.9 720C1170 688.1 1139.8 664.1 1104.6 653.8C1102.7 653.2 1101.9 656.1 1103.8 656.7Z" fill="#E8E8E8"/>
<path d="M1181.7 717.2C1200.2 744.7 1212.6 775.8 1218.2 808.5C1218.5 810.4 1221.4 809.6 1221.1 807.7C1215.5 774.8 1202.9 743.4 1184.3 715.7C1183.2 714.1 1180.6 715.6 1181.7 717.2Z" fill="#E8E8E8"/>
<path d="M1110.4 665.1C1148.9 704.1 1180.9 749 1205.4 798C1206.3 799.7 1208.9 798.2 1208 796.5C1183.5 747.3 1151.2 702.2 1112.6 663C1111.1 661.7 1109 663.8 1110.4 665.1Z" fill="#E8E8E8"/>
<path d="M1117.5 700.1C1143 715.5 1165.4 735.5 1183.5 759.2C1184.7 760.7 1187.3 759.2 1186.1 757.7C1167.7 733.5 1145 713.1 1119 697.5C1117.4 696.5 1115.9 699.1 1117.5 700.1Z" fill="#E8E8E8"/>
<path d="M1142.9 673.7C1149.4 687.8 1153.5 702.8 1155.3 718.3C1155.5 720.2 1158.5 720.2 1158.3 718.3C1156.5 702.3 1152.2 686.9 1145.5 672.2C1144.6 670.4 1142.1 671.9 1142.9 673.7Z" fill="#E8E8E8"/>
<path d="M1212.7 768.9C1209.9 702.3 1273.2 659.7 1302 606.2C1301.1 605.9 1300.1 605.7 1299.2 605.4C1299.2 613.8 1299.1 622.2 1299.1 630.6C1299.1 634.5 1299.1 638.4 1299 642.2C1299 646.2 1300.5 659.8 1292.5 657.3C1291.3 656.9 1290.1 658.4 1290.8 659.5C1295 665.9 1296 673.8 1293.3 681.1C1292 684.6 1290.6 685.9 1290.2 689.7C1289.8 693.9 1289.4 698.2 1289 702.4C1288.2 710.9 1287.3 719.3 1286.5 727.8C1285.7 735.8 1285.8 744.6 1283.5 752.3C1281.3 759.9 1275 764.2 1268.4 767.9C1262.6 771.3 1256.8 774.6 1251.5 778.7C1241.5 786.6 1233.8 797.7 1234.1 810.8C1234.1 812.7 1237.1 812.7 1237.1 810.8C1236.7 793.4 1250.7 781.7 1264.4 773.6C1269.9 770.3 1275.9 767.5 1280.5 762.9C1285 758.4 1286.7 752.9 1287.5 746.7C1289.7 729.3 1290.9 711.8 1292.6 694.4C1293 690.3 1293.7 687.2 1295.4 683.5C1296.5 681 1297.2 678.3 1297.6 675.6C1298.3 669.3 1296.8 663.2 1293.3 657.9C1292.7 658.6 1292.2 659.4 1291.6 660.1C1301.4 663.3 1301.8 650.2 1301.8 644.1C1301.9 631.2 1301.9 618.3 1302 605.3C1302 603.8 1299.9 603.2 1299.2 604.5C1270.1 658.5 1206.6 701.3 1209.5 768.7C1209.7 770.8 1212.7 770.8 1212.7 768.9Z" fill="#E8E8E8"/>
<path d="M1293.5 633.2C1278.3 658.8 1263.1 684.4 1249.9 711.1C1243.5 724 1237.7 737.1 1232.5 750.5C1227.4 763.9 1223.4 777.8 1224.2 792.2C1224.3 794.1 1227.3 794.1 1227.2 792.2C1226.3 777.4 1230.7 763.2 1236 749.5C1241.3 735.8 1247.4 722.3 1254 709.2C1266.8 683.7 1281.4 659.1 1295.9 634.6C1297.1 633 1294.5 631.5 1293.5 633.2Z" fill="#E8E8E8"/>
<path d="M1234.8 707.3C1232.4 717.8 1231.9 728.4 1233.4 739C1233.7 740.9 1236.6 740.1 1236.3 738.2C1234.9 728.1 1235.4 718 1237.7 708.1C1238.1 706.2 1235.2 705.4 1234.8 707.3Z" fill="#E8E8E8"/>
<path d="M1264.3 656C1262.8 664.6 1263 673.2 1264.9 681.7C1265.3 683.6 1268.2 682.8 1267.8 680.9C1266 672.9 1265.8 664.9 1267.2 656.8C1267.5 654.9 1264.7 654.1 1264.3 656Z" fill="#E8E8E8"/>
<path d="M1290.9 727.2C1307.2 708 1321.2 687.1 1332.7 664.7C1331.8 664.6 1330.9 664.5 1330 664.3C1335.4 683 1334.3 702.3 1330.2 721.1C1328.2 730.2 1325.6 739.2 1322.8 748.1C1321.5 752.2 1320.1 756.3 1318.7 760.5C1317.2 765 1315.8 771.4 1310.3 772.4C1309.6 772.5 1309.2 773.2 1309.2 773.8C1309 778.9 1308.7 784.4 1306.4 789.1C1303.5 795.1 1297.7 796.7 1291.7 798.4C1282.7 800.9 1273.5 803.5 1267.2 810.8C1265.9 812.2 1268.1 814.4 1269.3 812.9C1273.7 807.8 1279.5 805.2 1285.8 803.2C1291.1 801.5 1297.1 800.8 1302 798C1310.6 793.2 1311.7 782.6 1312.1 773.8C1311.7 774.3 1311.4 774.8 1311 775.2C1318.8 773.9 1320.6 763.9 1322.7 757.7C1326.3 747.1 1329.7 736.4 1332.2 725.5C1337 705.1 1338.7 683.8 1332.8 663.4C1332.5 662.2 1330.7 661.9 1330.1 663C1318.8 685.2 1305 705.9 1288.8 724.9C1287.5 726.6 1289.6 728.7 1290.9 727.2Z" fill="#E8E8E8"/>
<path d="M1324.1 695.5C1316.4 720 1303.5 742.8 1286.4 761.9C1272.5 777.3 1251.2 790.7 1248.9 813.2C1248.7 815.1 1251.7 815.1 1251.9 813.2C1253.1 800.9 1261.1 791.4 1269.5 783C1277.8 774.7 1286.4 766.9 1293.8 757.8C1308.7 739.6 1319.9 718.7 1326.9 696.3C1327.6 694.5 1324.7 693.7 1324.1 695.5Z" fill="#E8E8E8"/>
<path d="M985.6 197.2C979.5 247.8 960.9 296.4 931.8 338.3C930.7 339.9 933.3 341.4 934.4 339.8C963.8 297.5 982.4 248.3 988.6 197.2C988.8 195.2 985.8 195.3 985.6 197.2Z" fill="#E8E8E8"/>
<path d="M986.1 198C1030.1 203.6 1074.6 203.8 1118.6 198.7C1120.5 198.5 1120.5 195.5 1118.6 195.7C1074.6 200.8 1030.1 200.6 986.1 195C984.2 194.8 984.2 197.8 986.1 198Z" fill="#E8E8E8"/>
<path d="M1118.7 200.5C1130 253.3 1123 309.1 1099.2 357.6C1098.3 359.3 1100.9 360.8 1101.8 359.1C1126 309.9 1133.1 253.4 1121.6 199.7C1121.2 197.8 1118.3 198.6 1118.7 200.5Z" fill="#E8E8E8"/>
<path d="M933.7 341C986.6 360.6 1043.8 359.7 1099.4 358.6C1101.3 358.6 1101.3 355.6 1099.4 355.6C1044.1 356.7 987.2 357.6 934.5 338.1C932.7 337.4 931.9 340.3 933.7 341Z" fill="#E8E8E8"/>
<path d="M1126.9 261.7C1152.1 251.5 1178.7 244.9 1205.8 242.3C1205.3 241.8 1204.8 241.3 1204.3 240.8C1205.1 279.4 1220.8 316.8 1247.7 344.5C1249 345.9 1251.2 343.8 1249.8 342.4C1223.4 315.3 1208.1 278.7 1207.3 240.8C1207.3 240 1206.6 239.2 1205.8 239.3C1178.4 242 1151.6 248.5 1126.1 258.8C1124.3 259.6 1125.1 262.5 1126.9 261.7Z" fill="#E8E8E8"/>
<path d="M1072.2 360.7C1076.2 374.4 1080.5 388.1 1085.6 401.4C1089.7 412.1 1095 422.5 1103.9 430C1105.4 431.2 1107.5 429.1 1106 427.9C1096.7 420 1091.5 409 1087.4 397.7C1082.9 385.3 1078.9 372.7 1075.1 360C1074.5 358.1 1071.7 358.9 1072.2 360.7Z" fill="#E8E8E8"/>
<path d="M1107.2 430.2C1152.4 398.9 1200.5 371.9 1250.6 349.3C1252.4 348.5 1250.8 345.9 1249.1 346.7C1198.9 369.2 1150.9 396.3 1105.7 427.6C1104.1 428.7 1105.6 431.3 1107.2 430.2Z" fill="#E8E8E8"/>
<path d="M995.1 211C1032.1 215.6 1069.3 218.9 1106.5 220.8C1108.4 220.9 1108.4 217.9 1106.5 217.8C1069.2 215.9 1032.1 212.6 995.1 208C993.2 207.8 993.2 210.8 995.1 211Z" fill="#E8E8E8"/>
<path d="M994.3 225.8C999.4 228.9 1006.3 228.4 1012 228.8C1020.2 229.4 1028.4 230 1036.6 230.6C1038.5 230.7 1038.5 227.7 1036.6 227.6C1029.7 227.1 1022.8 226.6 1015.9 226.1C1009.7 225.6 1001.2 226.5 995.8 223.2C994.2 222.2 992.7 224.8 994.3 225.8Z" fill="#E8E8E8"/>
<path d="M989.1 240.7C1007.7 242 1026.3 243.3 1044.8 244.6C1062.6 245.8 1081.1 248.6 1098.9 246.8C1100.8 246.6 1100.8 243.6 1098.9 243.8C1081.1 245.6 1062.6 242.9 1044.8 241.6C1026.2 240.3 1007.6 239 989.1 237.7C987.2 237.6 987.2 240.6 989.1 240.7Z" fill="#E8E8E8"/>
<path d="M985.8 265.9C1002 271.3 1019.1 271.6 1036.1 271.4C1054.8 271.3 1073.4 271.1 1092.1 270.9C1094 270.9 1094 267.9 1092.1 267.9C1074 268 1056 268.2 1037.9 268.3C1020.6 268.4 1003.2 268.4 986.6 262.9C984.7 262.4 983.9 265.3 985.8 265.9Z" fill="#E8E8E8"/>
<path d="M965.2 311.2C965.2 314.4 964.9 317.8 965.2 321.1C965.4 322.7 966.1 324.3 968 324.4C970.3 324.5 972.1 321.9 973.5 320.5C975.8 318.1 977.9 315.6 980 313.1C981.2 311.6 979.1 309.5 977.9 311C975.4 314.2 972.7 317.2 969.8 320C969.5 320.3 969.2 320.6 968.8 320.9C968.2 321.5 968 321.4 968.2 320.5C967.9 319.8 968.2 318.4 968.2 317.7C968.2 315.5 968.2 313.4 968.2 311.2C968.2 309.3 965.2 309.3 965.2 311.2Z" fill="#E8E8E8"/>
<path d="M989.4 288.2C1021.6 295.1 1054.6 297.5 1087.4 295.4C1089.3 295.3 1089.3 292.3 1087.4 292.4C1054.8 294.5 1022.1 292.1 990.2 285.3C988.3 284.9 987.5 287.8 989.4 288.2Z" fill="#E8E8E8"/>
<path d="M1107.9 393.8C1148.2 379.1 1186.7 359.9 1222.6 336.4C1224.2 335.3 1222.7 332.7 1221.1 333.8C1185.4 357.2 1147.2 376.4 1107.1 390.9C1105.3 391.6 1106.1 394.5 1107.9 393.8Z" fill="#E8E8E8"/>
<path d="M1098.6 375.1C1128.6 366.4 1157.9 355.8 1186.6 343.5C1188.4 342.7 1186.8 340.2 1185.1 340.9C1156.7 353.2 1127.5 363.6 1097.8 372.2C1096 372.8 1096.7 375.7 1098.6 375.1Z" fill="#E8E8E8"/>
<path d="M1111.6 351.1C1128.7 344 1145.8 336.8 1162.9 329.7C1177.9 323.4 1193.3 317.7 1206.6 308.1C1208.1 307 1206.7 304.4 1205.1 305.5C1191.5 315.3 1175.6 321.2 1160.3 327.6C1143.8 334.5 1127.3 341.4 1110.8 348.3C1109.1 349 1109.9 351.9 1111.6 351.1Z" fill="#E8E8E8"/>
<path d="M1125.5 320.5C1132.9 317.4 1140.4 314.4 1147.8 311.3C1149.6 310.6 1148.8 307.7 1147 308.4C1139.6 311.5 1132.1 314.5 1124.7 317.6C1122.9 318.3 1123.7 321.2 1125.5 320.5Z" fill="#E8E8E8"/>
<path d="M1129.6 281.7C1139.5 282 1149.5 277.2 1158.6 273.6C1168.1 269.8 1177.4 265.6 1186.5 261C1188.2 260.1 1186.7 257.5 1185 258.4C1176.1 262.9 1167.1 267 1157.8 270.7C1149.1 274.2 1139.2 279 1129.6 278.7C1127.6 278.6 1127.6 281.6 1129.6 281.7Z" fill="#E8E8E8"/>
<path d="M1005.4 357.9C994.1 392.8 975.2 424.9 950.3 451.9C949.4 452.9 950 454.4 951.4 454.5C997.6 456 1040.4 475.4 1081.5 495C1083.2 495.8 1084.8 493.2 1083 492.4C1041.4 472.6 998.2 453.1 951.4 451.5C951.8 452.4 952.1 453.2 952.5 454.1C977.8 426.8 996.9 394.2 1008.4 358.8C1008.9 356.9 1006 356.1 1005.4 357.9Z" fill="#E8E8E8"/>
<path d="M1084.9 494C1098.4 467.8 1113 442.2 1128.6 417.1C1129.6 415.5 1127 413.9 1126 415.6C1110.4 440.6 1095.8 466.3 1082.3 492.5C1081.4 494.2 1084 495.8 1084.9 494Z" fill="#E8E8E8"/>
<path d="M1080.5 459.4C1082.4 459.4 1082.4 456.4 1080.5 456.4C1078.5 456.4 1078.5 459.4 1080.5 459.4Z" fill="#E8E8E8"/>
<path d="M976.8 437.9C992.4 436.8 1005.6 446.2 1019.9 450.9C1027.7 453.4 1035.8 454.7 1043.6 457.3C1051.5 459.8 1058.8 463.6 1065.7 468.3C1067.3 469.4 1068.8 466.8 1067.2 465.7C1060.9 461.4 1054.1 457.8 1046.9 455.3C1038.4 452.3 1029.3 450.9 1020.7 448.1C1006.1 443.3 992.8 433.8 976.8 435C974.8 435 974.8 438 976.8 437.9Z" fill="#E8E8E8"/>
<path d="M992.6 425.1C1016 431.1 1038.4 440.4 1059.1 452.8C1060.8 453.8 1062.3 451.2 1060.6 450.2C1039.7 437.6 1017.1 428.2 993.4 422.2C991.5 421.8 990.7 424.6 992.6 425.1Z" fill="#E8E8E8"/>
<path d="M1000.2 407.6C1010.6 409.8 1020.2 414 1029 420C1030.6 421.1 1032.1 418.5 1030.5 417.4C1021.5 411.3 1011.6 407 1001 404.7C999.1 404.3 998.3 407.2 1000.2 407.6Z" fill="#E8E8E8"/>
<path d="M1006.4 391.6C1023.3 397.9 1040 404.6 1056.6 411.7C1058.4 412.5 1059.9 409.9 1058.1 409.1C1041.3 401.9 1024.3 395 1007.2 388.7C1005.3 388.1 1004.6 391 1006.4 391.6Z" fill="#E8E8E8"/>
<path d="M155.9 236.9C154.3 260.7 153.9 284.7 146.3 307.6C139.2 328.9 127.3 348.4 111.7 364.5C110.4 365.9 112.5 368 113.8 366.6C129.4 350.5 141.4 331.1 148.7 309.9C156.8 286.4 157.2 261.5 158.9 236.9C159 235 156 235 155.9 236.9Z" fill="#E8E8E8"/>
<path d="M158 237.8C197.2 237.3 236.5 237.4 275.7 238.2C285.7 238.4 295.7 238.7 305.6 239C310.7 239.2 318.5 237.7 321.2 243.1C323.1 246.9 323 253 323.6 257.2C326.2 275.6 326.7 294.3 325.3 312.8C323.7 333.8 319.5 354.5 313 374.5C312.4 376.3 315.3 377.1 315.9 375.3C328.1 337.8 332 297.8 326.8 258.7C326.3 254.6 325.6 250.5 324.9 246.5C324.4 243.6 324.1 239.9 321.5 238C319 236.1 315.5 236.4 312.6 236.3C306.9 236.1 301.3 235.9 295.6 235.8C274 235.2 252.4 234.8 230.8 234.7C206.5 234.5 182.2 234.6 158 234.9C156.1 234.9 156.1 237.9 158 237.8Z" fill="#E8E8E8"/>
<path d="M112.4 368.2C163.2 382.4 216.9 383.9 268.5 372.8C270.4 372.4 269.6 369.5 267.7 369.9C216.7 381 163.5 379.4 113.2 365.3C111.3 364.8 110.5 367.6 112.4 368.2Z" fill="#E8E8E8"/>
<path d="M315.9 245C313.6 288.7 301.6 331.4 280.8 369.8C279.9 371.5 282.5 373 283.4 371.3C304.4 332.4 316.6 289.2 318.9 245C319 243.1 316 243.1 315.9 245Z" fill="#E8E8E8"/>
<path d="M315.9 253.3C318.7 266.6 317.5 280 315.2 293.2C313.2 304.7 310.9 316.2 308.3 327.7C303.2 350.2 296.3 372.4 283.1 391.5C282 393.1 284.6 394.6 285.7 393C299.4 373.2 306.4 350.1 311.6 326.8C316.9 303 324 276.9 318.8 252.5C318.4 250.6 315.5 251.4 315.9 253.3Z" fill="#E8E8E8"/>
<path d="M318.1 262.9C321.6 308.3 314.2 354 296.5 396C295.8 397.8 298.7 398.6 299.4 396.8C317.1 354.6 324.6 308.6 321.1 262.9C321 261 318 261 318.1 262.9Z" fill="#E8E8E8"/>
<path d="M131.5 393C181.6 401.6 232.8 401.3 282.8 392.2C284.7 391.9 283.9 389 282 389.3C232.6 398.3 181.8 398.6 132.3 390.1C130.4 389.8 129.6 392.7 131.5 393Z" fill="#E8E8E8"/>
<path d="M138.1 376C135.8 379.8 132.8 383 129.2 385.6C127.6 386.7 129.1 389.3 130.7 388.2C134.7 385.3 138.1 381.8 140.6 377.6C141.7 375.9 139.1 374.4 138.1 376Z" fill="#E8E8E8"/>
<path d="M145.1 397.9C143.8 400.4 142.3 402.8 140.5 405C139.3 406.5 141.4 408.6 142.6 407.1C144.6 404.7 146.3 402.2 147.6 399.4C148.5 397.7 146 396.1 145.1 397.9Z" fill="#E8E8E8"/>
<path d="M142.2 409.1C192.5 415 243.6 411.8 292.8 399.6C294.7 399.1 293.9 396.2 292 396.7C243.1 408.8 192.3 411.9 142.2 406C140.3 405.9 140.3 408.9 142.2 409.1Z" fill="#E8E8E8"/>
<path d="M166.7 277.1C209.9 271.2 253.5 274 296.8 277C298.7 277.1 298.7 274.1 296.8 274C253.2 271 209.4 268.2 165.9 274.2C164 274.4 164.8 277.3 166.7 277.1Z" fill="#E8E8E8"/>
<path d="M154.3 321.9C194.8 322.5 235.2 324.4 275.5 327.6C277.4 327.8 277.4 324.8 275.5 324.6C235.2 321.3 194.8 319.4 154.3 318.9C152.3 318.9 152.3 321.9 154.3 321.9Z" fill="#E8E8E8"/>
<path d="M142.2 345.1C187 347.2 231.8 349.4 276.6 351.5C278.5 351.6 278.5 348.6 276.6 348.5C231.8 346.4 187 344.2 142.2 342.1C140.3 342 140.3 345 142.2 345.1Z" fill="#E8E8E8"/>
<path d="M179.2 304.3C170.7 324.5 162.6 344.8 155.1 365.4C154.4 367.2 157.3 368 158 366.2C165.5 345.9 173.4 325.8 181.8 305.9C182.5 304.1 179.9 302.5 179.2 304.3Z" fill="#E8E8E8"/>
<path d="M213.1 307.8C203.2 327.8 195 348.4 187.9 369.4C187.3 371.2 190.2 372 190.8 370.2C197.8 349.4 205.9 329 215.7 309.3C216.6 307.6 214 306.1 213.1 307.8Z" fill="#E8E8E8"/>
<path d="M251.1 310.2C239.7 328.7 231.2 348.8 225.9 369.9C225.4 371.8 228.3 372.6 228.8 370.7C234 349.8 242.4 330 253.7 311.7C254.7 310.1 252.1 308.6 251.1 310.2Z" fill="#E8E8E8"/>
<path d="M281.1 311.6C271.7 329.8 263.7 348.7 257.1 368.2C256.5 370 259.4 370.8 260 369C266.5 349.8 274.4 331.2 283.7 313.2C284.5 311.4 282 309.9 281.1 311.6Z" fill="#E8E8E8"/>
<path d="M150.1 329.2C154.5 331.2 158.2 333.9 161.5 337.4C162.8 338.8 164.9 336.7 163.6 335.3C160.2 331.6 156.2 328.7 151.6 326.6C149.8 325.9 148.3 328.4 150.1 329.2Z" fill="#E8E8E8"/>
<path d="M163.7 324.1C157.3 327.9 151.7 332.7 147 338.4C145.8 339.9 147.9 342 149.1 340.5C153.7 334.9 159 330.3 165.2 326.7C166.9 325.7 165.4 323.1 163.7 324.1Z" fill="#E8E8E8"/>
<path d="M203.8 355.5C209.4 358.8 214.2 362.9 218.4 367.8C219.6 369.3 221.8 367.1 220.5 365.7C216.2 360.6 211.1 356.3 205.3 352.9C203.7 351.9 202.2 354.5 203.8 355.5Z" fill="#E8E8E8"/>
<path d="M220.8 351.3C214.4 356.1 208.5 361.5 203.1 367.4C201.8 368.8 203.9 371 205.2 369.5C210.4 363.7 216.1 358.5 222.3 353.8C223.8 352.8 222.3 350.2 220.8 351.3Z" fill="#E8E8E8"/>
<path d="M175.9 324.7C181.1 329.5 186.3 334.2 191.5 339C192.9 340.3 195 338.2 193.6 336.9C188.4 332.1 183.2 327.4 178 322.6C176.6 321.2 174.5 323.3 175.9 324.7Z" fill="#E8E8E8"/>
<path d="M193 322.3C185.7 326.5 179.3 331.9 174.1 338.5C172.9 340 175 342.1 176.2 340.6C181.3 334.2 187.4 329 194.5 324.9C196.2 323.9 194.6 321.3 193 322.3Z" fill="#E8E8E8"/>
<path d="M213.7 344.7C206.5 340.8 205.5 331.1 212.4 326.1C217.6 322.4 228.2 319.3 232.2 326.1C235.7 332.2 231.5 339.6 226.5 343.3C218.7 349 213.2 342.7 209.6 336.2C208.7 334.5 206.1 336 207 337.7C211.6 346 219 352.5 228.2 345.8C235 340.9 239.7 330.5 233.9 323.1C227.9 315.5 214.2 319.5 208.4 325.5C201.9 332.3 204.3 342.8 212.2 347.1C213.9 348.2 215.4 345.6 213.7 344.7Z" fill="#E8E8E8"/>
<path d="M171.3 244.8C169.4 251.7 168.8 258.7 169.8 265.9C170 267.8 173.1 267.8 172.8 265.9C171.9 259 172.3 252.3 174.2 245.6C174.7 243.8 171.8 243 171.3 244.8Z" fill="#E8E8E8"/>
<path d="M173.2 246.6C210.8 242.4 248.7 241.4 286.5 243.7C286 243.2 285.5 242.7 285 242.2C285.5 248.1 285.4 253.9 284.4 259.7C284.1 261.6 287 262.4 287.3 260.5C288.3 254.4 288.6 248.4 288 242.2C287.9 241.4 287.4 240.8 286.5 240.7C248.7 238.4 210.8 239.4 173.2 243.6C171.3 243.8 171.3 246.8 173.2 246.6Z" fill="#E8E8E8"/>
<path d="M176.1 264.9C212.1 264.1 248.1 263.3 284.1 262.5C286 262.5 286 259.5 284.1 259.5C248.1 260.3 212.1 261.1 176.1 261.9C174.2 262 174.2 265 176.1 264.9Z" fill="#E8E8E8"/>
<path d="M779.3 855.7C835.5 855.7 891.6 855.7 947.8 855.7C953.6 855.7 953.6 846.7 947.8 846.7C891.6 846.7 835.5 846.7 779.3 846.7C773.5 846.7 773.5 855.7 779.3 855.7Z" fill="#161616"/>
<path d="M968.2 855.7C980.3 855.7 992.3 855.7 1004.4 855.7C1010.2 855.7 1010.2 846.7 1004.4 846.7C992.3 846.7 980.3 846.7 968.2 846.7C962.4 846.7 962.4 855.7 968.2 855.7Z" fill="#161616"/>
<path d="M1040.7 849.4C1048 849.4 1055.4 849.4 1062.7 849.4C1068.5 849.4 1068.5 840.4 1062.7 840.4C1055.4 840.4 1048 840.4 1040.7 840.4C1034.9 840.4 1034.9 849.4 1040.7 849.4Z" fill="#161616"/>
<path d="M969.8 931.3C1037 931.3 1104.2 931.3 1171.4 931.3C1177.2 931.3 1177.2 922.3 1171.4 922.3C1104.2 922.3 1037 922.3 969.8 922.3C964 922.3 964 931.3 969.8 931.3Z" fill="#161616"/>
<path d="M1184 931.3C1200.8 931.3 1217.6 931.3 1234.4 931.3C1240.2 931.3 1240.2 922.3 1234.4 922.3C1217.6 922.3 1200.8 922.3 1184 922.3C1178.2 922.3 1178.2 931.3 1184 931.3Z" fill="#161616"/>
<path d="M1265.9 929.8C1290.6 929.8 1315.2 929.8 1339.9 929.8C1345.7 929.8 1345.7 920.8 1339.9 920.8C1315.2 920.8 1290.6 920.8 1265.9 920.8C1260.1 920.8 1260.1 929.8 1265.9 929.8Z" fill="#161616"/>
<path d="M1369.8 925C1375 925 1380.3 925 1385.5 925C1391.3 925 1391.3 916 1385.5 916C1380.3 916 1375 916 1369.8 916C1364 916 1364 925 1369.8 925Z" fill="#161616"/>
<path d="M2.19995 950.5C83.2 948.5 164.2 947 245.2 946.1C268.4 945.8 291.7 945.6 314.9 945.4C316.8 945.4 316.8 942.4 314.9 942.4C233.9 943 152.9 944.2 71.8999 945.9C48.6999 946.4 25.4 946.9 2.19995 947.5C0.199951 947.6 0.199951 950.6 2.19995 950.5Z" fill="#161616"/>
<path d="M220.9 967.2C282.3 964.6 343.8 965 405.1 968.4C407 968.5 407 965.5 405.1 965.4C343.8 962 282.3 961.6 220.9 964.2C218.9 964.3 218.9 967.3 220.9 967.2Z" fill="#161616"/>
<path d="M1191.7 842.3C1187.8 851.5 1182.7 860 1176.4 867.8C1175.2 869.3 1177.3 871.4 1178.5 869.9C1185.2 861.7 1190.5 852.8 1194.6 843.1C1195.3 841.3 1192.4 840.5 1191.7 842.3Z" fill="#E8E8E8"/>
<path d="M1210.6 840.1C1202.7 857.6 1191.4 873.3 1177.3 886.4C1175.9 887.7 1178 889.8 1179.4 888.5C1193.7 875.3 1205.1 859.4 1213.2 841.6C1214 839.9 1211.4 838.4 1210.6 840.1Z" fill="#E8E8E8"/>
<path d="M1230.2 841.1C1217.7 866.5 1199.8 888.7 1177.5 906.2C1176 907.4 1178.1 909.5 1179.6 908.3C1202 890.6 1220.1 868.1 1232.7 842.5C1233.6 840.9 1231 839.4 1230.2 841.1Z" fill="#E8E8E8"/>
<path d="M1248.5 841.9C1234.9 866.6 1218 889.1 1198 909C1196.6 910.4 1198.8 912.5 1200.1 911.1C1220.2 891.1 1237.4 868.3 1251 843.4C1252.1 841.7 1249.5 840.2 1248.5 841.9Z" fill="#E8E8E8"/>
<path d="M1264.8 841.2C1251.8 866.4 1235.7 889.8 1216.6 910.8C1215.3 912.2 1217.4 914.4 1218.7 912.9C1237.9 891.7 1254.3 868.2 1267.4 842.7C1268.3 841 1265.7 839.5 1264.8 841.2Z" fill="#E8E8E8"/>
<path d="M1278 841.3C1266.1 866.7 1250.6 890.3 1231.9 911.2C1230.6 912.6 1232.7 914.8 1234 913.3C1252.9 892.1 1268.6 868.4 1280.6 842.7C1281.5 841.1 1278.9 839.5 1278 841.3Z" fill="#E8E8E8"/>
<path d="M1279.6 860.7C1270.3 879.3 1258.9 896.7 1245.6 912.7C1244.4 914.2 1246.5 916.3 1247.7 914.8C1261.2 898.6 1272.8 881 1282.2 862.2C1283.1 860.5 1280.5 859 1279.6 860.7Z" fill="#E8E8E8"/>
<path d="M405.8 1.69995C405.8 18.7 405.8 35.7 405.8 52.6C405.8 54.5 408.8 54.5 408.8 52.6C408.8 35.6 408.8 18.6 408.8 1.69995C408.8 -0.300049 405.8 -0.300049 405.8 1.69995Z" fill="#E8E8E8"/>
<path d="M351.2 55.4C401.3 55.4 451.3 55.4 501.4 55.4C503.3 55.4 503.3 52.4 501.4 52.4C451.3 52.4 401.3 52.4 351.2 52.4C349.2 52.4 349.2 55.4 351.2 55.4Z" fill="#E8E8E8"/>
<path d="M456.8 59.1C456.8 74.8 456.8 90.4 456.8 106.1C456.8 108 459.8 108 459.8 106.1C459.8 90.4 459.8 74.8 459.8 59.1C459.8 57.2 456.8 57.2 456.8 59.1Z" fill="#E8E8E8"/>
<path d="M378.6 111.6C427.4 111.6 476.1 111.6 524.9 111.6C526.8 111.6 526.8 108.6 524.9 108.6C476.1 108.6 427.4 108.6 378.6 108.6C376.7 108.6 376.7 111.6 378.6 111.6Z" fill="#E8E8E8"/>
<path d="M375.8 112.7C375.8 124.5 375.8 136.2 375.8 148C375.8 149.9 378.8 149.9 378.8 148C378.8 136.2 378.8 124.5 378.8 112.7C378.8 110.8 375.8 110.7 375.8 112.7Z" fill="#E8E8E8"/>
<path d="M1101.4 529.1C1131.7 529.1 1161.9 529.1 1192.2 529.1C1194.1 529.1 1194.1 526.1 1192.2 526.1C1161.9 526.1 1131.7 526.1 1101.4 526.1C1099.4 526.1 1099.4 529.1 1101.4 529.1Z" fill="#E8E8E8"/>
<path d="M1149.4 530.3C1149.4 542.2 1149.4 554.1 1149.4 566.1C1149.4 568 1152.4 568 1152.4 566.1C1152.4 554.2 1152.4 542.3 1152.4 530.3C1152.4 528.4 1149.4 528.4 1149.4 530.3Z" fill="#E8E8E8"/>
<path d="M1094.5 567.6C1129.4 567.6 1164.2 567.6 1199.1 567.6C1201 567.6 1201 564.6 1199.1 564.6C1164.2 564.6 1129.4 564.6 1094.5 564.6C1092.6 564.6 1092.6 567.6 1094.5 567.6Z" fill="#E8E8E8"/>
<path d="M1121.9 567.5C1121.9 577.6 1121.9 587.7 1121.9 597.8C1121.9 599.7 1124.9 599.7 1124.9 597.8C1124.9 587.7 1124.9 577.6 1124.9 567.5C1124.9 565.5 1121.9 565.5 1121.9 567.5Z" fill="#E8E8E8"/>
<path d="M1187.9 568.8C1187.9 578.9 1187.9 589 1187.9 599.1C1187.9 601 1190.9 601 1190.9 599.1C1190.9 589 1190.9 578.9 1190.9 568.8C1190.9 566.9 1187.9 566.9 1187.9 568.8Z" fill="#E8E8E8"/>
<path d="M211.3 856.9C256.7 856.9 302.1 856.9 347.5 856.9C349.4 856.9 349.4 853.9 347.5 853.9C302.1 853.9 256.7 853.9 211.3 853.9C209.3 853.9 209.3 856.9 211.3 856.9Z" fill="#E8E8E8"/>
<path d="M2.19995 858.8C30.8 858.8 59.4 858.8 88 858.8C89.9 858.8 89.9 855.8 88 855.8C59.4 855.8 30.8 855.8 2.19995 855.8C0.199951 855.8 0.199951 858.8 2.19995 858.8Z" fill="#E8E8E8"/>
<path d="M182.7 621.4C228.1 621.4 273.5 621.4 318.9 621.4C320.8 621.4 320.8 618.4 318.9 618.4C273.5 618.4 228.1 618.4 182.7 618.4C180.7 618.4 180.7 621.4 182.7 621.4Z" fill="#E8E8E8"/>
<path d="M258.8 622.6C258.8 633 258.8 643.5 258.8 653.9C258.8 655.8 261.8 655.8 261.8 653.9C261.8 643.5 261.8 633 261.8 622.6C261.8 620.7 258.8 620.7 258.8 622.6Z" fill="#E8E8E8"/>
<path d="M233.1 655.4C268.5 655.4 303.9 655.4 339.3 655.4C341.2 655.4 341.2 652.4 339.3 652.4C303.9 652.4 268.5 652.4 233.1 652.4C231.1 652.4 231.1 655.4 233.1 655.4Z" fill="#E8E8E8"/>
<path d="M313.3 656.6C313.3 667.9 313.3 679.3 313.3 690.6C313.3 692.5 316.3 692.5 316.3 690.6C316.3 679.3 316.3 667.9 316.3 656.6C316.3 654.7 313.3 654.7 313.3 656.6Z" fill="#E8E8E8"/>
<path d="M1048 867.6C1086.5 867.6 1124.9 867.6 1163.4 867.6C1165.3 867.6 1165.3 864.6 1163.4 864.6C1124.9 864.6 1086.5 864.6 1048 864.6C1046 864.6 1046 867.6 1048 867.6Z" fill="#E8E8E8"/>
<path d="M1295 856.7C1335.9 856.7 1376.7 856.7 1417.6 856.7C1419.5 856.7 1419.5 853.7 1417.6 853.7C1376.7 853.7 1335.9 853.7 1295 853.7C1293.1 853.7 1293.1 856.7 1295 856.7Z" fill="#E8E8E8"/>
<path d="M902.2 572.2C902.2 591.4 902.2 610.7 902.2 629.9C902.2 631.8 905.2 631.8 905.2 629.9C905.2 610.7 905.2 591.4 905.2 572.2C905.2 570.2 902.2 570.2 902.2 572.2Z" fill="#E8E8E8"/>
<path d="M905.5 600.7C923.5 600.7 941.6 600.7 959.6 600.7C961.5 600.7 961.5 597.7 959.6 597.7C941.6 597.7 923.5 597.7 905.5 597.7C903.6 597.7 903.6 600.7 905.5 600.7Z" fill="#E8E8E8"/>
<path d="M956.3 579.4C956.3 597.4 956.3 615.5 956.3 633.5C956.3 635.4 959.3 635.4 959.3 633.5C959.3 615.5 959.3 597.4 959.3 579.4C959.3 577.4 956.3 577.4 956.3 579.4Z" fill="#E8E8E8"/>
<path d="M921.8 638.6C950 638.6 978.3 638.6 1006.5 638.6C1008.4 638.6 1008.4 635.6 1006.5 635.6C978.3 635.6 950 635.6 921.8 635.6C919.8 635.6 919.8 638.6 921.8 638.6Z" fill="#E8E8E8"/>
<path d="M979.8 642.5C979.8 656.3 979.8 670.1 979.8 684C979.8 685.9 982.8 685.9 982.8 684C982.8 670.2 982.8 656.4 982.8 642.5C982.8 640.5 979.8 640.5 979.8 642.5Z" fill="#E8E8E8"/>
<path d="M751.6 77.8C751.6 109.1 751.6 140.4 751.6 171.7C751.6 173.6 754.6 173.6 754.6 171.7C754.6 140.4 754.6 109.1 754.6 77.8C754.6 75.9 751.6 75.9 751.6 77.8Z" fill="#E8E8E8"/>
<path d="M754.7 77.6C803.9 77.6 853.1 77.6 902.2 77.6C904.1 77.6 904.1 74.6 902.2 74.6C853 74.6 803.8 74.6 754.7 74.6C752.8 74.6 752.8 77.6 754.7 77.6Z" fill="#E8E8E8"/>
<path d="M900.9 77.3C900.9 108.3 900.9 139.3 900.9 170.2C900.9 172.1 903.9 172.1 903.9 170.2C903.9 139.2 903.9 108.2 903.9 77.3C903.9 75.4 900.9 75.4 900.9 77.3Z" fill="#E8E8E8"/>
<path d="M754.4 174.2C804.1 174.2 853.9 174.2 903.6 174.2C905.5 174.2 905.5 171.2 903.6 171.2C853.9 171.2 804.1 171.2 754.4 171.2C752.5 171.2 752.5 174.2 754.4 174.2Z" fill="#E8E8E8"/>
<path d="M818.5 74.5C818 71.8 817.9 69.1 818.4 66.4C818.9 64 820.1 59.2 822.9 62.2C824.3 63.7 824.4 67 824.8 68.9C825.3 71.4 825.8 74 826.3 76.5C826.7 78.4 829.6 77.6 829.2 75.7C828.3 71.3 827.9 66.4 826.2 62.2C825.3 60 823.6 57.4 820.9 57.5C817.9 57.6 816.7 60.8 816 63.3C814.8 67.2 814.8 71.2 815.6 75.1C815.9 77.2 818.8 76.4 818.5 74.5Z" fill="#E8E8E8"/>
<path d="M760.3 88.6C760.3 112.9 760.3 137.2 760.3 161.5C760.3 163.4 763.3 163.4 763.3 161.5C763.3 137.2 763.3 112.9 763.3 88.6C763.3 86.6 760.3 86.6 760.3 88.6Z" fill="#E8E8E8"/>
<path d="M762.6 88.4C805.8 88.4 849 88.4 892.1 88.4C894 88.4 894 85.4 892.1 85.4C848.9 85.4 805.7 85.4 762.6 85.4C760.7 85.4 760.7 88.4 762.6 88.4Z" fill="#E8E8E8"/>
<path d="M892.3 86.1C892.3 112 892.3 137.9 892.3 163.8C892.3 165.7 895.3 165.7 895.3 163.8C895.3 137.9 895.3 112 895.3 86.1C895.3 84.2 892.3 84.2 892.3 86.1Z" fill="#E8E8E8"/>
<path d="M764.2 163.7C807.1 163.7 850 163.7 892.9 163.7C894.8 163.7 894.8 160.7 892.9 160.7C850 160.7 807.1 160.7 764.2 160.7C762.3 160.7 762.3 163.7 764.2 163.7Z" fill="#E8E8E8"/>
<path d="M762.5 137.6C782.1 132.3 801.7 127.7 821.8 133.4C838.4 138.2 853.6 147.1 870.8 150C872.7 150.3 873.5 147.4 871.6 147.1C853.3 144 837.3 134.1 819.4 129.7C799.9 124.9 780.6 129.6 761.8 134.7C759.8 135.2 760.6 138.1 762.5 137.6Z" fill="#E8E8E8"/>
<path d="M831.3 137.4C849.8 135.3 868.2 128 886.9 131.9C888.8 132.3 889.6 129.4 887.7 129C868.6 125 850.1 132.2 831.3 134.3C829.4 134.6 829.4 137.7 831.3 137.4Z" fill="#E8E8E8"/>
<path d="M834.5 116.1C832.2 113.9 832 110 834.4 107.8C837 105.3 841.7 106 843.7 108.9C845.8 111.8 845.3 116.2 842.6 118.5C839.3 121.3 834.9 119.1 832.6 116.2C831.5 114.7 828.8 116.2 830 117.7C833.2 122 839.1 124.8 843.9 121.3C848.4 118 849.1 111.1 845.7 106.8C842.7 103 836.5 102.2 832.7 105.3C828.7 108.5 828.6 114.9 832.3 118.4C833.8 119.5 835.9 117.4 834.5 116.1Z" fill="#E8E8E8"/>
<path d="M953.6 783.3C956.8 776.7 962.1 768.6 970.7 766.2C983.9 762.5 993.3 775.7 1013 785.3C1048.6 802.7 1079.6 789.7 1082.5 799.4C1084.8 807.1 1066.3 819.6 1054.3 825.6C1030.2 837.6 984.7 847.3 963.7 821.6C960.6 817.8 952 805.9 953.6 783.3Z" fill="#161616" stroke="#161616" stroke-width="3"/>
<path d="M926.4 796.3C922.1 792.2 920.2 787 919.4 783.2C926.9 758.1 942.5 739 960.7 736.9C972.4 735.6 983.9 741.4 992.9 746C1007.6 753.4 1007.9 758.3 1022.1 767.1C1046 782 1063 779.3 1064.4 787.2C1065.7 794.6 1052.3 804.8 1039.2 809.4C1012.9 818.6 1004.6 799.5 963.7 801.3C949.2 802 935.7 805.1 926.4 796.3Z" fill="#161616" stroke="#161616" stroke-width="3"/>
<path d="M746 633.1C748 645.5 751.1 665.6 754.3 690.4C766.5 783.6 761.6 797.2 776.2 816.6C809.9 861.4 885 853.8 890.9 853.1C933.7 848.2 962.7 825.7 974.3 815.6C967.7 804.1 961.1 792.7 954.5 781.2C921.5 781.5 888.5 781.9 855.4 782.2C862.5 756.6 870.8 713.6 863.7 661.3C858.3 621.3 845.9 589.7 835.5 568.5C808.3 570.5 776.9 575 742.7 584.1C726.2 588.5 710.9 593.5 696.8 598.7C696.1 617.6 695.2 644.5 694.7 676.9C693 799.5 700 824.7 717.6 837.5C726.2 843.7 741.2 844.2 770.8 844.8C822.3 845.9 865.9 832.4 916.8 816.6C928.3 813 937.6 809.9 943.3 808C940.4 785.1 937.4 762.3 934.5 739.4C914.2 744.9 893 750.1 871 755.1C849.9 759.8 829.4 764 809.5 767.6" fill="#5222D0"/>
<path d="M735.1 648.9C745.5 652.8 747.3 665.9 748.3 675.5C749.7 688.4 750.5 701.3 751.3 714.3C752.9 739.6 754.6 765 760.9 789.6C761.4 791.5 764.3 790.7 763.8 788.8C756.6 760.7 755.5 731.7 753.6 703C752.8 690.7 752.5 678 749.9 665.9C748.1 657.5 744.4 649.3 735.9 646.1C734.1 645.4 733.3 648.3 735.1 648.9Z" fill="#281472"/>
<path d="M782.6 821.9C790.3 828.6 797.8 836.4 806.4 842.1C814.7 847.6 824.7 849.6 834.4 851.4C836.3 851.8 837.1 848.9 835.2 848.5C825.8 846.7 816.1 844.9 807.9 839.5C799.6 834 792.3 826.4 784.7 819.8C783.3 818.5 781.1 820.7 782.6 821.9Z" fill="#281472"/>
<path d="M857.1 771.9C868 772.1 878.6 774.1 888.8 777.8C890.6 778.5 891.4 775.6 889.6 774.9C879.1 771.1 868.2 769.1 857.1 768.9C855.1 768.8 855.1 771.8 857.1 771.9Z" fill="#281472"/>
<path opacity="0.58" d="M696.1 667.2C696.7 657.9 703.1 649.6 711.7 645.8C720.7 641.9 731.9 644.5 738.8 650C750.8 659.4 749.8 677.1 750.3 698.5C751.2 737.6 752.3 784.5 775.3 815.8C780.6 823 790.2 833.7 807.6 842.9C798.6 847.2 782.5 853.4 762.2 852.3C753.4 851.8 729.7 850.3 712.7 833C704.4 824.6 697.2 811.8 695 750.1C694.3 729 694.1 700.7 696.1 667.2Z" fill="#474747"/>
<path opacity="0.59" d="M859.7 758.4C884.6 752 909.5 745.6 934.4 739.2C935.9 753 937.3 766.9 938.8 780.7C927.5 777.6 914.7 774.7 900.8 772.4C884.7 769.8 869.9 768.5 856.7 768C857.7 764.8 858.7 761.6 859.7 758.4Z" fill="#474747"/>
<path d="M703 351C702.7 344 703.5 336.3 708.1 333.7C724.6 324.5 784.9 383.8 814.5 449.5C826.1 475.3 840.3 518.4 837.2 577.5C791.4 585.9 745.7 594.4 699.9 602.8C692.1 589.7 678.9 569.8 658.6 548.8C638.3 527.8 630.6 526.2 621.9 510.9C603.3 478.1 613.3 440.8 615.8 431.4C619.1 419.2 626.3 393 651.3 372.7C671.4 356.3 693 352.2 703 351Z" fill="white" stroke="#161616" stroke-width="3"/>
<path opacity="0.36" d="M701.3 367C713.2 375.2 754.7 405.7 771.5 464C789.8 527.8 765.5 579.9 759.5 591.8C785.7 587.4 812 583.1 838.2 578.7C839.8 553.3 839.2 508.5 819.4 457.8C794.6 394.4 753 356.5 732.4 340C722 349 711.7 358 701.3 367Z" fill="#828181"/>
<path opacity="0.4" d="M806.3 435.8C808 445.5 810 459.7 810.8 477.1C812.2 507.8 813.3 529.7 802.5 552.1C798.3 560.9 789 576.5 768.8 590.7C791.7 586.5 814.5 582.4 837.4 578.2C838.5 557.3 837.6 528.1 829.1 494.8C822.8 470.9 814.3 451 806.3 435.8Z" fill="#828181"/>
<path d="M508.7 342.7C515.7 352.9 522 361.3 527.1 367.7C539.6 383.6 544.4 387.7 551.1 389.1C556.8 390.3 562.2 389.3 565.4 388.6C574.3 386.8 577.9 383.2 583.8 380.4C591.6 376.8 594.7 378.6 620 378.9C638.3 379.1 636.3 378.1 652.7 378.4C667.1 378.7 679 379.6 687.4 380.4C685 378.5 682.6 376.7 680.3 374.8C677 373.9 667.4 370.9 659.9 361.5C653.7 353.7 652.2 345.7 651.7 342.1C653.8 341.5 657.5 340 659.9 336.5C664.9 329.1 659.7 319 657.9 315.6C655.7 311.4 651.7 303.8 646.2 304.4C642.1 304.8 638.2 309.6 637 316.1C627.6 319.1 613.4 321.9 598.7 317.1C571 308 565.3 279.2 550.2 278.8C540.4 278.7 526.5 290.1 508.7 342.7Z" fill="white"/>
<path d="M506 338.1C513.9 356.2 525.9 372.2 541 384.9C542.5 386.1 544.6 384 543.1 382.8C528.1 370.2 516.4 354.5 508.5 336.6C507.8 334.9 505.2 336.4 506 338.1Z" fill="#161616"/>
<path d="M554 359.7C554.9 364.8 556 369.8 557.3 374.8C558.5 379.1 559.4 384.3 561.6 388.2C564.7 393.7 574.6 386.9 577.8 384.4C579.3 383.2 577.2 381.1 575.7 382.3C573.5 384 569.1 387.4 566.1 387C562.8 386.6 562 380.1 561.2 377.6C559.4 371.5 558 365.3 556.9 359C556.5 357 553.6 357.8 554 359.7Z" fill="#161616"/>
<path d="M540.3 360.3C536.5 357.1 531.6 353 533.4 347.4C532.6 347.6 531.7 347.8 530.9 348.1C534.8 351.9 537.8 356.4 539.7 361.5C540 360.9 540.4 360.3 540.7 359.7C540.1 359.2 539.4 358.7 538.8 358.3C538.3 356.4 535.4 357.2 535.9 359.1C536.6 361.8 538.8 363 541.5 362.6C542.3 362.5 542.8 361.4 542.5 360.8C540.4 355.2 537.2 350.3 532.9 346.1C532.1 345.3 530.7 345.7 530.4 346.8C528.3 353.5 533.3 358.7 538.1 362.6C539.6 363.6 541.8 361.5 540.3 360.3Z" fill="#161616"/>
<path d="M530.9 349.2C533.3 352.9 535.7 356.6 538.1 360.3C539.1 361.9 541.7 360.4 540.7 358.8C538.3 355.1 535.9 351.4 533.5 347.7C532.5 346 529.9 347.5 530.9 349.2Z" fill="#161616"/>
<path d="M576.1 345C574.3 342.9 572.4 340.5 571.5 337.8C571.2 337 571.1 336.1 571.1 335.3C571.3 334 571.6 333.9 572.2 334.9C573.2 335.3 574.1 337.2 574.7 338.1C576.1 340.2 577.4 342.5 578.1 344.8C578.5 346.1 579 346.3 577.6 345.7C576.3 345.1 575.1 343.7 574.2 342.7C572.9 341.2 570.8 343.4 572.1 344.8C573.7 346.6 578.9 351.9 581 347.8C582.9 344.1 578.2 337.6 576.1 334.9C574.3 332.6 570 328 568.3 333.1C566.6 338.2 570.9 343.5 573.9 347C575.2 348.6 577.3 346.5 576.1 345Z" fill="#161616"/>
<path d="M569.5 335.4C571.8 339.1 574.1 342.8 576.4 346.5C577.4 348.1 580 346.6 579 345C576.9 341.6 575.1 338.2 573.4 334.6C572.6 335.2 571.8 335.8 571 336.4C573.3 338.6 575 341.2 576.1 344.2C576.8 346 579.7 345.2 579 343.4C577.7 339.9 575.8 336.9 573.1 334.3C571.8 333.1 570 334.6 570.7 336.1C572.4 339.7 574.2 343.2 576.3 346.5C577.2 346 578 345.5 578.9 345C576.6 341.3 574.3 337.6 572 333.9C571.1 332.3 568.5 333.8 569.5 335.4Z" fill="#161616"/>
<path d="M649.6 351.3C652.7 359.5 652.4 368.1 648.4 375.9C647.5 377.6 650.1 379.1 651 377.4C655.3 368.9 655.9 359.4 652.5 350.5C651.8 348.8 648.9 349.5 649.6 351.3Z" fill="#161616"/>
<path d="M494 278.1C492.4 280.3 477.9 300.6 485.6 326.1C493.2 351.3 515.9 360.3 518.5 361.3C517.4 355.1 515.6 339.8 523 322.8C531.8 302.3 548 292.7 553.2 289.9C556.5 294.7 569 311.7 592.8 318.4C614.1 324.3 631.7 318.4 637.5 316.2C638.6 314.4 642.8 308.2 648.1 308.4C655.7 308.7 663.2 322.5 658.7 331.9C655.9 337.8 649.3 339.8 647.5 340.3C648.6 344.6 650.9 351.1 655.9 357.6C664.3 368.7 675.3 373 681.6 375.5C687.8 377.9 738.5 397.2 768.7 365.4C785 348.3 792.8 319 782.1 298.9C773.4 282.7 758.1 282.6 716.8 264.3C667.3 242.3 674.1 235.6 644.8 226.3C629.5 221.4 573.2 203.5 529.2 234.1C509.1 248 498.9 266.8 494 278.1Z" fill="#EC615B"/>
<path d="M472.2 447.9C471.8 442.1 471.6 425.4 482.5 410.1C499.2 386.7 528 386.2 532.9 386.1C541.6 385.9 553.1 387.4 579.7 402C597 411.5 620.7 426.4 646 449.7C652.4 450.1 663 451.5 673.9 457.8C685.5 464.4 707 481.8 702.4 500.5C699.8 511.1 689.1 521.4 678.9 520.9C662.5 520.1 651.9 491.9 648.5 493.6C645.8 494.9 654 511.7 650.4 514C647.1 516.1 634.1 506 628.1 492.3C623.2 481.3 624 470.9 625 465C601 453.7 561.4 439.5 512.4 442C497.4 442.9 484 445.1 472.2 447.9Z" fill="white" stroke="#161616" stroke-width="3"/>
<path opacity="0.34" d="M472.4 445.9C476 426.5 484.5 417.6 489.4 413.7C520.1 388.9 578.3 418.8 595.6 427.6C616 438 631.3 450.7 638.7 457.2C653.5 470.3 649.8 471.1 670 490.3C683.9 503.5 693.8 511 691.8 516.4C690.1 520.8 681.7 521.2 680.9 521.2C661.4 521.9 648 491.7 647.4 490.3C652.2 507.8 651.3 513.1 649.1 514.2C644.9 516.4 632.5 504.8 627.3 491.1C623.2 480.3 624.4 470.2 625.6 464.5C610.7 457.8 591.8 451.1 569.5 446.7C529.4 438.9 495.2 441.9 472.4 445.9Z" fill="#828181"/>
<path d="M390 456.1C386.8 473.2 382.8 509.3 399.1 548.7C429.7 622.8 505.6 644.6 515.8 647.3C516.1 659 516.5 670.8 516.8 682.5C498.2 691.3 470.7 706.7 443.3 732.8C423 752.2 387.6 786.8 373.9 843.5C365.5 878.2 368 909.5 372.9 933.1C493.7 935.1 614.4 937.1 735.2 939.1C739.1 916.3 743.4 870.9 724.1 820.4C689.6 730.1 607.1 695 591.3 688.6C591 672.8 590.6 657.1 590.3 641.3C605.8 637.9 641.7 627.9 671.8 596C722 542.9 714.4 473.4 713.1 463.2C605.3 460.8 497.6 458.5 390 456.1Z" fill="white" stroke="#161616" stroke-width="3"/>
<path d="M409.3 567.2C419.2 572.6 429.8 576.7 441.1 578.3C449.3 579.4 457.1 578.7 465.3 577.8C475.7 576.6 486 575.7 496.3 573.9C506.8 572.1 516.8 569 527.2 566.7C530 566.1 532.6 565.8 535.4 566.4C540.9 567.5 544.1 570.9 548.3 574.1C554.1 578.5 561.6 578.2 567.6 574.6C570.8 572.6 573.7 570.1 576.9 568.2C581.6 565.4 586.8 564 592.3 563.6C598.2 563.2 604.2 563.6 610 564.7C616.9 566 623 568.8 629.6 570.9C642.6 575.1 646.6 561.2 656.7 556.5C668.8 550.8 685.5 551.4 698.2 554.1C700.1 554.5 700.9 551.6 699 551.2C688 548.8 677.2 548.9 666.1 550.8C661.4 551.6 656.9 552.7 652.8 555.2C648.1 558.1 645.4 562.5 641.4 566.1C635.6 571.3 628.9 567.3 622.8 565C617.3 563 611.5 561.7 605.6 561C595.8 559.8 585.4 560.2 576.5 565C569.2 569 562.9 577 553.7 573.6C549.7 572.1 547.2 568.4 543.6 566.3C540.7 564.5 537.2 563.4 533.8 563.1C527.3 562.6 520.6 565.4 514.3 567C502.4 570 490.2 572 477.9 573.3C468.3 574.3 458.4 576.1 448.7 575.8C435.3 575.4 422.5 570.9 410.9 564.5C409.1 563.6 407.6 566.2 409.3 567.2Z" fill="#161616"/>
<path d="M517.3 670.5C518.9 674.3 520.5 678.3 523.2 681.5C524.9 683.6 527.5 685.2 528.6 687.9C529.7 690.7 529.7 694.4 530.1 697.4C531.4 707.7 532.8 718 537.1 727.6C537.9 729.4 540.5 727.8 539.7 726.1C535 715.8 534.1 704.6 532.6 693.5C532.1 689.9 531.9 686.2 529.3 683.4C525.3 679 522.6 675.4 520.2 669.7C519.5 667.9 516.6 668.7 517.3 670.5Z" fill="#161616"/>
<path d="M582.7 679.2C578.3 675.8 574.9 682.1 573.3 685.5C571.7 688.7 570.5 692 569.7 695.4C568.8 699.3 569 703.8 567.2 707.4C565.5 711.1 562.7 714.2 561.1 718C559.6 721.4 558.5 725 557.5 728.6C555.2 737.6 553.9 746.9 552.3 756C552 757.9 554.9 758.7 555.2 756.8C557.6 743.1 558.8 727.8 565.7 715.5C567.3 712.7 569.4 710.3 570.5 707.3C571.3 705.2 571.4 703 571.7 700.9C572 698.7 577.6 679 580.6 681.3C582 682.5 584.2 680.4 582.7 679.2Z" fill="#161616"/>
<path d="M550.6 797C549.7 795.4 548.8 793.5 549.2 791.7C549.8 788.9 552.9 788.5 553.9 791.2C555.1 794.4 553.2 798.1 551 800.2C551.6 800.1 552.2 800 552.8 800C551.6 799.1 550.4 798.2 549.3 797.4C547.7 796.2 546.3 798.9 547.8 800C549 800.9 550.2 801.8 551.3 802.6C551.8 803 552.7 802.8 553.1 802.4C556.7 798.9 560 789.5 553.7 786.7C551.2 785.6 548.4 786.9 547 789.2C545.2 792.2 546.4 795.8 548 798.6C548.9 800.2 551.5 798.7 550.6 797Z" fill="#161616"/>
<path d="M542.7 831.4C542 830 540.9 828.1 541.2 826.4C541.4 825.4 542.7 824 543.7 824.9C544.7 825.7 544.8 828.1 544.5 829.2C544.2 830.2 542.5 831.9 541.6 830.6C540.5 829.1 537.9 830.6 539 832.1C540.6 834.4 543.9 834.6 546 832.6C548.3 830.4 548.1 826 546.4 823.5C544.7 821 541.4 821.4 539.6 823.5C537 826.3 538.6 830.2 540.1 833.1C541 834.6 543.6 833.1 542.7 831.4Z" fill="#161616"/>
<path d="M557.2 843.3C555.9 842.3 557.2 839 559 840C559.8 840.4 560.3 841.6 560.1 842.5C559.8 843.8 558.1 843.6 557.4 842.9C556 841.5 553.9 843.7 555.3 845C557.4 847 561.3 847 562.7 844.2C563.8 841.9 562.8 839 560.8 837.6C558.6 836.1 555.8 837 554.5 839.3C553.2 841.6 553.6 844.4 555.8 845.9C557.2 847 558.7 844.4 557.2 843.3Z" fill="#161616"/>
<path d="M458.9 934.8C467.2 928.1 475.5 921.4 483.8 914.7C487.8 911.5 491.6 908.1 495.9 905.3C500.2 902.5 504.9 901.2 509.7 899.4C524.7 893.6 537.9 868.7 555.1 884.3C560.7 889.3 565.3 893.7 572.6 896.1C580.9 898.8 589.1 900.4 597 904.3C612.2 911.8 624.6 923.9 632.9 938.6C633.8 940.3 636.4 938.8 635.5 937.1C629.1 925.6 620.3 915.8 609.5 908.2C604.3 904.5 598.6 901.4 592.7 899C585.9 896.2 578.8 895.1 571.9 892.6C559.5 888.1 553.1 872.3 538 876.9C531.9 878.8 527 882.9 522.3 887.1C519.5 889.6 516.7 892.1 513.5 894.1C509.4 896.7 504.7 897.6 500.3 899.5C493.3 902.5 487.5 907.8 481.6 912.5C473.3 919.2 465 925.9 456.7 932.6C455.3 933.9 457.4 936 458.9 934.8Z" fill="#161616"/>
<path d="M588.5 663.8C587.4 671.9 586.2 679.9 585.1 688C584.1 695.3 584 703.9 580.7 710.7C581.4 710.5 582.1 710.3 582.8 710.2C580 708.3 581.9 698.9 581.9 696.1C582 691.2 582.1 686.4 582.2 681.5C582.2 679.6 579.2 679.6 579.2 681.5C579 688.6 578.9 695.7 578.7 702.9C578.6 706.5 577.9 710.5 581.2 712.8C581.8 713.2 582.9 713 583.3 712.3C586.5 705.7 586.8 698 587.8 690.8C589 682.1 590.3 673.4 591.5 664.7C591.6 662.7 588.7 661.9 588.5 663.8Z" fill="#161616"/>
<path d="M515.9 651.1C514.3 659.6 515.5 667.8 519.3 675.5C520.2 677.2 522.7 675.7 521.9 674C518.5 667 517.4 659.5 518.8 651.9C519.1 650 516.2 649.2 515.9 651.1Z" fill="#161616"/>
<path d="M460.9 608.7C479.1 622 501.6 627.1 520.6 638.8C522.2 639.8 523.8 637.2 522.1 636.2C503 624.5 480.5 619.4 462.4 606.1C460.8 604.9 459.3 607.5 460.9 608.7Z" fill="#161616"/>
<path d="M519.2 624.2C528.2 629.7 534.5 638.1 537.2 648.4C537.7 650.3 540.6 649.5 540.1 647.6C537.3 636.6 530.5 627.5 520.8 621.6C519.1 620.6 517.6 623.2 519.2 624.2Z" fill="#161616"/>
<path d="M571.1 662C575.9 648.8 582.2 635.5 593.9 627.1C595.5 626 594 623.4 592.4 624.5C580 633.5 573.3 647.1 568.2 661.2C567.6 663.1 570.5 663.8 571.1 662Z" fill="#161616"/>
<path d="M480.9 927.8C491.1 916.6 504.2 908.9 518.9 905.3C520.8 904.9 520 902 518.1 902.4C502.9 906 489.3 914.1 478.8 925.6C477.5 927.2 479.6 929.3 480.9 927.8Z" fill="#161616"/>
<path d="M503.9 918.4C511.1 915.2 518.3 912 525.5 908.8C527.3 908 525.7 905.4 524 906.2C516.8 909.4 509.6 912.6 502.4 915.8C500.7 916.6 502.2 919.2 503.9 918.4Z" fill="#161616"/>
<path d="M563.6 881.1C572.4 889.2 586.6 886.4 594.7 895.2C596 896.6 598.1 894.5 596.8 893.1C588.5 884.1 574.5 887 565.7 879C564.3 877.6 562.2 879.8 563.6 881.1Z" fill="#161616"/>
<path d="M373 943.7C467.5 943.7 562 943.7 656.6 943.7C683.2 943.7 709.9 943.7 736.5 943.7C748.1 943.7 748.1 925.7 736.5 925.7C642 925.7 547.5 925.7 452.9 925.7C426.3 925.7 399.6 925.7 373 925.7C361.4 925.7 361.4 943.7 373 943.7Z" fill="#161616"/>
<path d="M387.2 462.3C472.4 462.3 557.6 462.3 642.8 462.3C666.8 462.3 690.7 462.3 714.7 462.3C726.3 462.3 726.3 444.3 714.7 444.3C629.5 444.3 544.3 444.3 459.1 444.3C435.1 444.3 411.2 444.3 387.2 444.3C375.6 444.3 375.6 462.3 387.2 462.3Z" fill="#161616"/>
<path d="M362.8 444.3C355.8 444.3 348.8 444.3 341.8 444.3C330.2 444.3 330.2 462.3 341.8 462.3C348.8 462.3 355.8 462.3 362.8 462.3C374.4 462.3 374.4 444.3 362.8 444.3Z" fill="#161616"/>
<path d="M302.5 460.3C305.2 460.3 307.9 460.3 310.6 460.3C315.3 460.3 319.8 456.2 319.6 451.3C319.4 446.4 315.6 442.3 310.6 442.3C307.9 442.3 305.2 442.3 302.5 442.3C297.8 442.3 293.3 446.4 293.5 451.3C293.7 456.1 297.4 460.3 302.5 460.3Z" fill="#161616"/>
<path d="M757.4 942.4C771.6 942.4 785.9 942.4 800.1 942.4C811.7 942.4 811.7 924.4 800.1 924.4C785.9 924.4 771.6 924.4 757.4 924.4C745.8 924.4 745.8 942.4 757.4 942.4Z" fill="#161616"/>
<path d="M830.7 944.4C833.2 944.4 835.7 944.4 838.2 944.4C842.9 944.4 847.4 940.3 847.2 935.4C847 930.5 843.2 926.4 838.2 926.4C835.7 926.4 833.2 926.4 830.7 926.4C826 926.4 821.5 930.5 821.7 935.4C821.9 940.3 825.6 944.4 830.7 944.4Z" fill="#161616"/>
<path d="M515.8 648C515.1 654.9 514.5 661.9 515.9 668.7C517.4 675.9 521.9 681 525.2 687.4C529 694.6 530.1 703.3 531.9 711.1C533.8 719.4 535.7 727.7 537.6 736C538.5 739.8 544.2 738.2 543.4 734.4C541.6 726.4 539.7 718.4 537.9 710.4C536.2 703 535 695.2 532.2 688.2C529.7 681.9 524.6 676.8 522.5 670.3C520.2 663.1 521.1 655.3 521.8 648C522.2 644.2 516.2 644.2 515.8 648Z" fill="#161616"/>
<path d="M502.2 645C507.7 647.6 513.3 648.4 519.3 647.4C523.1 646.8 521.5 641 517.7 641.6C513.4 642.3 509.1 641.7 505.2 639.8C501.7 638.1 498.7 643.3 502.2 645Z" fill="#161616"/>
<path d="M576.3 679.5C571.5 682.9 569.1 687.8 568 693.4C567.2 697.2 567 701.1 565.9 704.9C564.8 708.7 563 712.2 561.2 715.8C554.5 729.3 547.8 743.6 549.7 759C550.2 762.8 556.2 762.8 555.7 759C553.9 744.5 560.1 731.4 566.4 718.8C569.1 713.4 571.6 708.1 572.6 702.2C573.7 696.1 573.8 688.6 579.3 684.7C582.5 682.4 579.5 677.2 576.3 679.5Z" fill="#161616"/>
<path d="M517.9 813.5C521.8 813.5 521.8 807.5 517.9 807.5C514.1 807.5 514.1 813.5 517.9 813.5Z" fill="#161616"/>
<path d="M507.1 863C511 863 511 857 507.1 857C503.2 857 503.2 863 507.1 863Z" fill="#161616"/>
<path d="M538 748.3C538.3 750.3 538.6 752.4 538.9 754.4C539.1 756 541.2 756.9 542.6 756.5C544.3 756 544.9 754.4 544.7 752.8C544.4 750.8 544.1 748.7 543.8 746.7C543.6 745.1 541.5 744.2 540.1 744.6C538.4 745.1 537.8 746.7 538 748.3Z" fill="#161616"/>
<path d="M553.6 773.9C553.6 774.1 553.6 774.4 553.6 774.6C553.6 776.2 555 777.7 556.6 777.6C558.2 777.5 559.6 776.3 559.6 774.6C559.6 774.4 559.6 774.1 559.6 773.9C559.6 772.3 558.2 770.8 556.6 770.9C555 771 553.6 772.2 553.6 773.9Z" fill="#161616"/>
<path d="M636.1 572.8C645.7 569.2 653.3 562.2 662.5 557.9C673.8 552.7 685.7 559 696.9 554.7C700.5 553.3 698.9 547.5 695.3 548.9C689.2 551.2 683 549.9 676.6 549.5C671.3 549.1 666.3 549.8 661.4 551.8C651.8 555.7 644.1 563.3 634.4 567C631 568.4 632.5 574.2 636.1 572.8Z" fill="#161616"/>
<path d="M654.4 749.9C645.3 753.8 653 763.4 657.2 767.6C665.8 776.2 673.5 785.7 680.2 795.8C693.3 815.5 702.4 837.6 707.3 860.7C707.7 862.6 710.6 861.8 710.2 859.9C706 840.3 698.8 821.4 688.8 804C684 795.6 678.5 787.6 672.4 780.1C669.3 776.3 666.1 772.6 662.7 769C659.7 765.9 647.7 756 655.9 752.5C657.7 751.7 656.1 749.1 654.4 749.9Z" fill="#161616"/>
<path d="M665.5 757.6C695.8 782.8 708.1 821.3 719.2 857.7C719.8 859.5 722.7 858.8 722.1 856.9C710.8 820 698.3 781 667.6 755.4C666.1 754.2 664 756.3 665.5 757.6Z" fill="#161616"/>
<path d="M708.6 870.7C710.5 873.4 712.8 876.6 716.4 876.9C719.2 877.1 722.2 875.5 722.6 872.5C722.9 870.6 720 869.8 719.7 871.7C719.4 873.6 717.4 874.3 715.7 873.7C713.7 873 712.3 870.9 711.2 869.2C710.1 867.6 707.5 869.1 708.6 870.7Z" fill="#161616"/>
<path d="M714.5 912.9C719 914.9 724.6 913.5 727 909C729.3 904.7 727.5 898.8 723.3 896.4C719 894 713.1 895.7 710.6 899.9C708.1 904.3 709.9 909.9 713.9 912.6C715.5 913.7 717 911.1 715.4 910C712.7 908.2 711.5 904.3 713.2 901.4C714.8 898.6 718.9 897.4 721.8 899C724.7 900.5 725.9 904.6 724.4 907.5C722.9 910.5 718.9 911.6 716 910.3C714.3 909.5 712.7 912.1 714.5 912.9Z" fill="#161616"/>
<path d="M408.2 477.6C409.2 523.9 428.5 568.8 461.5 601.2C462.9 602.6 465 600.4 463.6 599.1C431.1 567.2 412.1 523.1 411.2 477.6C411.1 475.7 408.1 475.7 408.2 477.6Z" fill="#161616"/>
<path d="M411.4 476.3C408.8 473.7 405.1 473.8 402.3 476.1C398.6 479.2 399 484.8 399.4 489.2C400.4 502.3 403 515.2 406.9 527.7C414.7 552.5 427.8 575.5 445.1 594.8C446.4 596.2 448.5 594.1 447.2 592.7C433.1 577 421.9 559 414.2 539.4C410.5 530.2 407.7 520.6 405.6 510.9C404.5 505.6 403.6 500.3 403 495C402.7 492.5 402.4 490.1 402.3 487.6C402.2 486.5 402.1 485.4 402.2 484.4C402.3 482 404.9 474 409.3 478.5C410.7 479.8 412.8 477.6 411.4 476.3Z" fill="#161616"/>
<path opacity="0.25" d="M715.2 463.9C715.3 467.1 629.1 472.3 456.7 479.7C453.7 493.3 451.7 511.9 456.7 532.5C472.7 599 544.9 624.6 552.1 627C553 652.6 554 678.3 554.9 703.9C547.2 706.8 537.1 711.2 526 717.9C518.9 722.2 502 733.2 486.3 751.1C477.4 761.3 448.8 794.1 446.5 843.8C445.1 873.3 453.6 897.1 460.4 911.4C541.6 916 622.9 920.7 704.1 925.3C593.5 926.2 483 927.2 372.4 928.1C368.9 905.8 365.6 863.1 383.5 815.1C386.8 806.4 414.2 736.2 487.3 696.5C498.9 690.2 509 686.1 516 683.5C515.7 671.1 515.4 658.8 515.1 646.4C505 643.8 490 639 473.4 629.7C463.7 624.3 399.3 586.9 387.2 513.9C385.3 502.3 383.7 484 388.1 461.1C606.1 459.4 715.1 460.3 715.2 463.9Z" fill="#474747"/>
<path opacity="0.3" d="M569.8 461.4C517.9 468.7 466 476 414.1 483.2C415.5 500.5 420.9 536.2 445.4 572.4C475.7 617.1 516.8 635.5 532.7 641.7C533.6 660.7 534.6 679.7 535.5 698.7C501.6 705.3 479.3 719.1 467.1 728.1C459 734.1 385.8 787.7 394 864.8C395.4 878.1 400.2 900.9 418.6 926.1C402.8 926.3 387.1 926.5 371.3 926.6C368.1 902.1 365.2 851.6 391.4 799.5C411.4 759.9 440 735.6 456.6 721.8C478.9 703.3 500.2 691.3 515.8 683.8C516.3 671.5 516.9 659.2 517.4 646.9C497.5 642.7 457.8 631.2 427.2 595.8C425 593.3 417.4 584.3 409.8 570.8C387.6 531.4 386.1 490.2 388.2 463.3C448.9 462.6 509.4 462 569.8 461.4Z" fill="#474747"/>
<path d="M513.5 418.5C482.2 441.3 458.1 469.4 460.4 472.2C461.5 473.6 467.6 471.8 490.2 457.3C486.3 459.6 477.1 465.5 472.3 477C470.9 480.4 466.3 489.9 470.5 496.1C475 502.6 486.9 502 494.6 499.4C509.5 494.4 516.6 478.9 517.4 479.5C518.6 480.3 502 504 504.4 505.9C506.9 508 532.9 485.9 552.8 454.9C558.9 445.4 563.1 437.1 565.9 431C583.6 431.4 605.5 432.9 630.3 437C675.1 444.3 692.2 453.9 722.7 448.9C741.4 445.9 771.7 436.3 772.8 422.1C774.2 404.5 730.4 388.3 720.9 384.8C648.7 358.1 581 382.8 570 387C542.6 397.5 523.7 411.1 513.5 418.5Z" fill="white" stroke="#161616" stroke-width="3"/>
<path d="M468 494.5C468.5 495.5 468.8 495.7 469.7 496.3C470.2 496.7 471.1 496.5 471.5 496.1C481.4 484.3 490 470.6 504.1 463.3C505.8 462.4 504.3 459.8 502.6 460.7C488.2 468.1 479.5 481.9 469.4 494C470 493.9 470.6 493.8 471.2 493.8C471 493.5 470.8 493.3 470.6 493C469.7 491.3 467.1 492.8 468 494.5Z" fill="#161616"/>
<path d="M477.4 502.2C483.5 503.6 489.1 495.3 492.7 491.4C498.6 485 504.2 478.6 511.9 474.2C513.6 473.2 512.1 470.7 510.4 471.6C504.6 474.9 499.9 479.3 495.4 484.1C493.1 486.6 490.9 489.1 488.5 491.6C486.3 494 481.7 500.1 478.2 499.3C476.3 498.9 475.5 501.8 477.4 502.2Z" fill="#161616"/>
<path opacity="0.33" d="M468.4 483.4C492.4 466.5 498.2 462.6 498.3 462.8C498.5 463 488.9 468.8 480.6 479.9C476.4 485.6 473.7 491 472 495C472.3 495.6 473.2 497.2 475 498.2C477.3 499.5 479.4 499.2 480.1 499.1C480.7 498.8 481.6 498.3 482.6 497.6C486.1 495.3 488.2 492.6 489 491.7C489.4 491.2 495.7 483.3 498.6 480.2C501.2 477.4 505.6 473.8 512.8 471.2C506.9 480.2 500.9 489.3 495 498.3C501.1 495.3 505.1 491.9 507.6 489.3C510.1 486.8 510.9 485.3 515.4 479.7C519.6 474.5 522.7 471.2 523.9 469.8C534.4 457.8 550.1 429.2 560.1 419.6C581.5 398.9 616 415.8 684.1 416.3C718.5 416.6 747 412.3 766.6 408.4C768.3 409.6 771.5 412.3 772.7 416.7C772.7 416.7 774.2 422.2 770.4 429.1C766.2 436.9 745.2 450.9 700.5 449.7C664 448.7 652.9 438.7 604 433.2C587.6 431.4 574.1 430.9 565.5 430.7C557.4 449.9 548.1 464 540.8 473.5C524.7 494.6 506.5 509.3 503.8 507.3C503.6 507.2 503.1 506.7 502.8 505.8C502.1 503.8 503.6 501.5 504.4 500.3C505.9 497.9 507.8 494.7 510.2 490.1C508.6 492.1 506 494.8 502.2 497.1C491.9 503.4 475.1 505.4 469.4 497.2C468.6 496.2 466 492 468.4 483.4Z" fill="#828181"/>
<path opacity="0.51" d="M579.5 430.6C579.6 429.7 602.5 430.3 627.8 431.6C693.5 435 710.7 439.8 736.1 430.6C752.1 424.8 763.5 416.3 769.7 411.1C771.6 414.8 773.6 420.3 772.1 425.8C768.4 439.2 746.9 443.6 733 446.4C725.3 448 712.2 449.9 691.5 448.1C673.1 446.6 665.8 443.6 646.3 439.5C607.3 431.4 579.4 431.5 579.5 430.6Z" fill="#828181"/>
</svg>
