<svg width="1283" height="1053" viewBox="0 0 1283 1053" fill="none" xmlns="http://www.w3.org/2000/svg">
<circle cx="888" cy="222.3" r="16.3" fill="#EC615B"/>
<circle cx="905.3" cy="185.8" r="7.6" fill="#EC615B"/>
<circle cx="407" cy="86.6999" r="7.8" fill="#EC615B"/>
<circle cx="917.4" cy="994.2" r="13.2" fill="#EC615B"/>
<circle cx="316.7" cy="1046.5" r="6.1" fill="#EC615B"/>
<circle cx="392.9" cy="595.7" r="6.3" fill="#EC615B"/>
<circle cx="405.3" cy="628" r="6.1" fill="#5222D0"/>
<circle cx="398" cy="792.7" r="11.4" fill="#5222D0"/>
<circle cx="878.9" cy="149" r="7.2" fill="#5222D0"/>
<circle cx="605" cy="162.5" r="6.3" fill="#5222D0"/>
<circle cx="43.3" cy="656.8" r="4.8" fill="#5222D0"/>
<circle cx="900.7" cy="1028.4" r="12" fill="#5222D0"/>
<circle cx="1029.2" cy="6.6999" r="6.3" fill="#5222D0"/>
<path d="M417.1 289.9C416.1 283.7 415.2 271.3 425.1 272.3C428.7 272.7 430.7 275.9 434.7 274.5C442.2 271.9 440.5 262.2 443.6 256.6C448.7 247.6 458.6 260.7 466.2 256.4C468.7 255 469.3 252.4 469.2 249.7C469 239.6 477.9 240.3 485.2 242.3C487.1 242.8 487.9 239.9 486 239.4C478.6 237.4 466.3 236.7 466 247.4C465.9 250 467.3 252.6 463.5 254.2C462.3 254.7 460.3 254.1 459.2 253.8C456.6 253 454.3 251.2 451.6 250.5C448.1 249.5 444.7 250.2 442.3 253C439.3 256.6 439.4 261.5 438 265.7C436.5 270.2 433.6 272.8 428.7 270.6C426.7 269.7 424.9 268.9 422.6 269.2C412.3 270.6 412.8 283.1 414.1 290.7C414.5 292.6 417.4 291.8 417.1 289.9Z" fill="#5222D0"/>
<path d="M428.9 295.7C429.7 289.5 434.7 286.8 440.5 286.8C443.6 286.8 446.7 287.3 449.7 286.2C456.5 283.6 455.2 276.2 456.8 270.4C459.8 259.4 473.7 266.2 481.4 264.4C486.6 263.1 491 257.9 488.8 252.4C488.1 250.6 485.2 251.4 485.9 253.2C489.3 261.5 477.7 262 472.8 261.4C469.2 261 465.7 260.4 462.1 261.3C456.4 262.8 454.2 267 453.4 272.4C452.7 277.4 452.8 282.9 446.3 283.7C442.8 284.1 439.3 283.1 435.8 283.9C430.2 285.2 426.6 289.9 425.9 295.5C425.6 297.6 428.6 297.6 428.9 295.7Z" fill="#5222D0"/>
<path d="M635.5 50.1C632 54.5 628.3 59.9 630 65.8C631.4 70.6 635.2 72.4 639.8 72.1C642.5 71.9 645.3 71.2 647.5 73.6C649.2 75.4 648.1 79.2 647.6 81.2C646.8 84.3 645.3 87.3 645.6 90.6C646.1 95.1 649.7 98.6 654.3 97.6C656.2 97.2 655.4 94.3 653.5 94.7C644.8 96.7 650.8 82.2 651.2 78.7C651.5 75.8 651 72.6 648.8 70.5C646.6 68.4 643.9 68.6 641.1 68.9C636.7 69.4 632.6 68 632.4 62.7C632.3 58.7 635.1 55.1 637.5 52.1C638.9 50.8 636.7 48.6 635.5 50.1Z" fill="#5222D0"/>
<path d="M659.1 48.5999C654.4 50.5999 651.4 55.4999 652.6 60.5999C653.2 62.8999 654.6 65.0999 656.6 66.4999C659 68.2999 661.8 67.8999 664.2 69.3999C668.7 72.0999 665.1 77.3999 665.3 81.5999C665.4 83.6999 665.9 85.5999 667.7 86.8999C670.4 88.9999 674.4 88.2999 675.5 84.8999C676.1 83.0999 673.2 82.2999 672.6 84.0999C668.8 83.5999 667.5 81.8999 668.6 78.9999C668.8 77.9999 669 76.9999 669.2 75.9999C669.4 74.9999 669.5 73.9999 669.5 72.9999C669.5 70.8999 668.9 68.6999 667.3 67.1999C664.9 64.9999 661.2 65.8999 658.6 64.0999C653.3 60.3999 655.2 53.3999 660.6 51.0999C662.4 50.3999 660.8 47.8999 659.1 48.5999Z" fill="#5222D0"/>
<path d="M5.20003 639.7C2.90003 636.1 2.90003 631.7 5.20003 628C7.50003 624.4 10.7 624.3 14.4 622.9C19.5 620.8 19.6 615.5 19.3 610.7C19.2 609 19.1 607.2 19.6 605.5C20.9 601.5 24.3 602.6 27.4 603.1C29.2 603.4 30.9 603.1 32.4 602.1C34.3 600.8 35.5 598.5 36.1 596.3C36.6 594.5 36.7 592.6 37.1 590.8C37.3 589.5 37.7 588.3 38.3 587.2C39.9 584.7 41.8 584.5 44.1 586.7C44.6 588.6 47.5 587.8 47 585.9C45.2 579.4 37.2 582.3 35.2 586.9C34.3 589 34.2 591.3 33.7 593.5C33.4 594.8 33.2 596.2 32.5 597.4C31 600.1 28.2 599.6 25.6 599.3C22.5 599 20.1 598.7 18.1 601.6C15.8 604.9 16.4 608.8 16.4 612.6C16.5 617.2 15.5 619 11 620.5C9.20003 621.1 7.70003 621.4 6.10003 622.6C0.300033 626.7 -1.19997 635.2 2.60003 641.1C3.60003 642.8 6.20003 641.3 5.20003 639.7Z" fill="#EC615B"/>
<path d="M17.7 646.6C13.5 646 15.1 641.4 17 639.6C18.4 638.3 20.3 637.5 22.1 636.6C24.3 635.5 26.5 634.2 28.1 632.3C32.4 626.9 26.2 619.7 32.2 615.4C38.2 611.2 54.3 609.3 49.6 598.1C48.9 596.3 46.3 597.9 47 599.6C50.4 607.7 33.9 610.1 29.7 613.5C28.2 614.7 26.9 616.3 26.3 618.2C25.1 622.4 28.6 626.7 25.5 630.7C21.9 635.1 14.2 635.1 12.4 641.3C11.3 644.8 13.2 649 17 649.6C18.8 649.8 19.6 646.9 17.7 646.6Z" fill="#EC615B"/>
<path d="M1113.9 414.2C1112.6 411.9 1112.8 409.4 1114.2 407.2C1116.4 404 1119 404.7 1122.4 405C1124.7 405.2 1126.8 405.7 1129 404.4C1132.9 402 1132.3 397 1133 393.2C1134.6 384.3 1142.3 392.4 1147.5 389.6C1149.4 388.6 1150.1 386.7 1150.5 384.7C1151.2 380.8 1151.4 369.2 1158.9 373.9C1160.5 374.9 1162.1 372.3 1160.4 371.3C1153.7 367.2 1148.3 374 1147.7 380.3C1147.3 383.9 1147.7 387.4 1142.9 386.9C1141.2 386.7 1139.5 385.8 1137.8 385.6C1135.1 385.3 1132.7 386.1 1131.2 388.5C1129.5 391.3 1130.1 394.8 1129.4 397.8C1127.9 404.6 1122.1 400.8 1117.4 401.6C1111.1 402.7 1108.2 410.3 1111.2 415.6C1112.2 417.4 1114.8 415.9 1113.9 414.2Z" fill="#EC615B"/>
<path d="M1128.8 420.5C1127.1 415.9 1132.4 410.8 1137 413.2C1137.6 413.5 1138.4 413.5 1138.8 413C1141.1 410.5 1141.7 407.6 1142.7 404.4C1144.5 398.6 1148.8 397.8 1154 396.2C1159.1 394.6 1164.8 390.4 1162.7 384.4C1162 382.6 1159.1 383.4 1159.8 385.2C1162.7 393.1 1148.5 393.7 1144.3 396.6C1139.2 400.2 1140.7 406.7 1136.8 410.9C1137.4 410.8 1138 410.7 1138.6 410.7C1131.9 407.2 1123.4 414.1 1126 421.4C1126.6 423.1 1129.5 422.4 1128.8 420.5Z" fill="#EC615B"/>
<path d="M724.9 446.7C725.1 446.7 727.3 452.1 728.2 452.8C729.6 453.9 731.3 454 733 453.7C736 453.2 737.9 451 740.5 449.6C746.1 446.4 746.1 451.9 748.3 455C750.8 458.7 753.5 456.9 756.4 455.1C758.3 453.9 760.1 453.1 761.8 454.8C762.7 455.7 763.3 457.2 764 458.3C765.1 459.9 766.3 461.2 768.1 462C769.8 462.8 771.4 460.2 769.6 459.4C765.5 457.6 765 450.8 760.1 450.1C757.8 449.8 756.8 451.1 755 452.1C752.8 453.4 751.5 454.3 750.1 451.8C749.5 450.8 749.4 449.4 748.7 448.4C745.5 443.1 740.5 446 736.5 448.6C735.8 449.1 735.1 449.6 734.3 450C732.6 449.5 730.8 449 729.1 448.5C728.4 447.8 728.4 446.1 727.8 445.2C726.8 443.8 725.8 443.4 724.2 443.7C722.2 444.1 723 447 724.9 446.7Z" fill="#EC615B"/>
<path d="M748.4 437.1C751.4 432.4 758.3 442.2 761.1 443.4C762.8 444.1 764.4 444.1 766.2 443.6C767 443.4 767.7 443 768.4 442.7C771.1 441.6 773.4 442.3 775.6 444.2C778.8 446.9 779.7 450.5 784.3 451.5C787 452.1 789.5 451.3 790.7 448.7C791.5 447 788.9 445.4 788.1 447.2C785.3 453.2 777.6 441.4 775.6 440.1C771.9 437.7 769.6 439.7 765.9 440.5C760 441.7 758.1 435.1 753.2 433.5C750.3 432.5 747.5 433 745.9 435.7C744.7 437.3 747.3 438.8 748.4 437.1Z" fill="#EC615B"/>
<path d="M1122.1 611.9C1175.2 611.9 1228.3 611.9 1281.5 611.9C1283.4 611.9 1283.4 608.9 1281.5 608.9C1228.4 608.9 1175.3 608.9 1122.1 608.9C1120.2 608.9 1120.2 611.9 1122.1 611.9Z" fill="#E8E8E8"/>
<path d="M1165.6 611.2C1165.6 626.7 1165.6 642.1 1165.6 657.6C1165.6 659.5 1168.6 659.5 1168.6 657.6C1168.6 642.1 1168.6 626.7 1168.6 611.2C1168.6 609.3 1165.6 609.3 1165.6 611.2Z" fill="#E8E8E8"/>
<path d="M1239.8 609.7C1239.8 588.1 1239.8 566.5 1239.8 544.9C1239.8 543 1236.8 543 1236.8 544.9C1236.8 566.5 1236.8 588.1 1236.8 609.7C1236.8 611.7 1239.8 611.7 1239.8 609.7Z" fill="#E8E8E8"/>
<path d="M1204.5 546.1C1224.6 546.1 1244.7 546.1 1264.8 546.1C1266.7 546.1 1266.7 543.1 1264.8 543.1C1244.7 543.1 1224.6 543.1 1204.5 543.1C1202.6 543.1 1202.6 546.1 1204.5 546.1Z" fill="#E8E8E8"/>
<path d="M1165 186C1165 204.7 1165 223.4 1165 242C1165 243.9 1168 243.9 1168 242C1168 223.3 1168 204.6 1168 186C1168 184.1 1165 184.1 1165 186Z" fill="#E8E8E8"/>
<path d="M1118.3 246.3C1154.4 246.3 1190.4 246.3 1226.5 246.3C1228.4 246.3 1228.4 243.3 1226.5 243.3C1190.4 243.3 1154.4 243.3 1118.3 243.3C1116.3 243.3 1116.3 246.3 1118.3 246.3Z" fill="#E8E8E8"/>
<path d="M1225.5 245.9C1225.5 258.3 1225.5 270.7 1225.5 283.1C1225.5 285 1228.5 285 1228.5 283.1C1228.5 270.7 1228.5 258.3 1228.5 245.9C1228.5 244 1225.5 244 1225.5 245.9Z" fill="#E8E8E8"/>
<path d="M221.2 127.7C256.5 127.7 291.9 127.7 327.2 127.7C329.1 127.7 329.1 124.7 327.2 124.7C291.9 124.7 256.5 124.7 221.2 124.7C219.3 124.7 219.2 127.7 221.2 127.7Z" fill="#E8E8E8"/>
<path d="M322.8 127.4C322.8 137 322.8 146.6 322.8 156.2C322.8 158.1 325.8 158.1 325.8 156.2C325.8 146.6 325.8 137 325.8 127.4C325.8 125.4 322.8 125.4 322.8 127.4Z" fill="#E8E8E8"/>
<path d="M290.7 125C290.7 109.6 290.7 94.3001 290.7 78.9001C290.7 77.0001 287.7 77.0001 287.7 78.9001C287.7 94.3001 287.7 109.6 287.7 125C287.7 127 290.7 127 290.7 125Z" fill="#E8E8E8"/>
<path d="M11.5 435.9C35.9 435.9 60.2999 435.9 84.7 435.9C86.6 435.9 86.6 432.9 84.7 432.9C60.2999 432.9 35.9 432.9 11.5 432.9C9.59995 432.9 9.59995 435.9 11.5 435.9Z" fill="#E8E8E8"/>
<path d="M56.2 405.8C56.2 414.8 56.2 423.8 56.2 432.8C56.2 434.7 59.2 434.7 59.2 432.8C59.2 423.8 59.2 414.8 59.2 405.8C59.2 403.9 56.2 403.9 56.2 405.8Z" fill="#E8E8E8"/>
<path d="M38.6001 407.3C51.6001 407.3 64.6001 407.3 77.6001 407.3C79.5001 407.3 79.5001 404.3 77.6001 404.3C64.6001 404.3 51.6001 404.3 38.6001 404.3C36.6001 404.3 36.6001 407.3 38.6001 407.3Z" fill="#E8E8E8"/>
<path d="M479 1037.8C511.6 1037.8 544.2 1037.8 576.8 1037.8C578.7 1037.8 578.7 1034.8 576.8 1034.8C544.2 1034.8 511.6 1034.8 479 1034.8C477 1034.8 477 1037.8 479 1037.8Z" fill="#E8E8E8"/>
<path d="M539.2 1034.8C539.2 1027.8 539.2 1020.8 539.2 1013.7C539.2 1011.8 536.2 1011.8 536.2 1013.7C536.2 1020.7 536.2 1027.7 536.2 1034.8C536.2 1036.8 539.2 1036.8 539.2 1034.8Z" fill="#E8E8E8"/>
<path d="M530.1 1013.8C543.6 1013.8 557.2 1013.8 570.7 1013.8C572.6 1013.8 572.6 1010.8 570.7 1010.8C557.2 1010.8 543.6 1010.8 530.1 1010.8C528.2 1010.8 528.2 1013.8 530.1 1013.8Z" fill="#E8E8E8"/>
<path d="M13.8 985.2C46.4 985.2 79 985.2 111.6 985.2C113.5 985.2 113.5 982.2 111.6 982.2C79 982.2 46.4 982.2 13.8 982.2C11.9 982.2 11.9 985.2 13.8 985.2Z" fill="#E8E8E8"/>
<path d="M59 946C59 957.5 59 969.1 59 980.6C59 982.5 62 982.5 62 980.6C62 969.1 62 957.5 62 946C62 944.1 59 944.1 59 946Z" fill="#E8E8E8"/>
<path d="M59.0001 941.5C46.0001 941.5 32.9001 941.5 19.9001 941.5C18.0001 941.5 18.0001 944.5 19.9001 944.5C32.9001 944.5 46.0001 944.5 59.0001 944.5C60.9001 944.5 60.9001 941.5 59.0001 941.5Z" fill="#E8E8E8"/>
<path d="M1100.9 897.2C1097.6 893.9 1098.4 887.5 1103.5 886.4C1106.2 885.8 1108.8 887.5 1111.4 887.8C1113.4 888.1 1115.5 887.9 1116.8 886.1C1118.8 883.5 1117.2 880.5 1117.1 877.6C1116.9 868.5 1127.7 869.1 1133.1 872.3C1134.3 873 1135.6 871.8 1135.3 870.6C1132.7 858.1 1147 849.5 1156.8 857.8C1158.3 859 1160.4 856.9 1158.9 855.7C1146.8 845.5 1129.1 855.9 1132.4 871.5C1133.1 870.9 1133.9 870.4 1134.6 869.8C1130 867 1124.1 865.6 1119.2 868.7C1117.4 869.8 1115.8 871.5 1115 873.5C1114.4 874.9 1114.1 876.2 1114.2 877.7C1114.3 880.4 1115.2 880.2 1113.2 882.8C1111 885.7 1110.8 884.4 1107.7 883.7C1106.6 883.4 1105.6 883.2 1104.4 883.3C1101.9 883.4 1099.6 884.6 1098 886.4C1094.5 890.3 1095.4 895.8 1098.9 899.3C1100.2 900.7 1102.3 898.6 1100.9 897.2Z" fill="#E8E8E8"/>
<path d="M1120.4 900.2C1119.3 891.1 1134.2 891 1138.4 884.7C1139.5 883.1 1139.9 881.3 1140.6 879.6C1141.9 876.5 1144.2 874.5 1147.6 873.6C1153.1 872.2 1158.8 874.7 1163.8 876.8C1165.6 877.5 1166.4 874.6 1164.6 873.9C1155.4 870.1 1143 867.2 1137.9 878.4C1136.1 882.4 1135.5 884.6 1131.3 886.7C1128.8 887.9 1126.2 888.6 1123.8 890C1120 892.2 1117 895.6 1117.5 900.2C1117.7 902.1 1120.7 902.1 1120.4 900.2Z" fill="#E8E8E8"/>
<path d="M690.3 609.4C692.3 614.4 694.3 619.5 696.3 624.5C696.5 623.9 696.8 623.4 697 622.8C695.9 623.5 694.8 624.2 693.7 625C692 621 692.7 620 695.9 621.8C697.8 623 698.7 625.6 699.1 627.7C700 632.5 699 637.5 697.4 642.1C697 643.3 698.2 644.1 699.2 643.9C705.2 642.7 707.6 649.9 706.4 654.4C705.5 657.7 703.7 660.6 701.9 663.5C700.9 665.1 703.5 666.6 704.5 665C707.7 660 711.4 653.8 709.2 647.6C707.5 643 703.3 640.1 698.4 641C699 641.6 699.6 642.2 700.2 642.8C702.2 637 703.5 629.7 701 623.8C699.3 619.9 695.4 616.9 691 618.2C687.6 619.2 685.9 622.6 687.5 625.9C690.2 631.4 694.9 627.7 698.4 625.4C698.9 625.1 699.3 624.3 699.1 623.7C697.1 618.7 695.1 613.6 693.1 608.6C692.5 606.9 689.6 607.6 690.3 609.4Z" fill="#E8E8E8"/>
<path d="M98.9001 136.3C97.0001 131.5 103.4 130.2 106.4 131.9C108.7 133.2 110.2 135.5 111.6 137.6C112.9 139.5 114.3 141.6 115 143.8C115.8 145.7 115.7 147.5 114.7 149.3C111.2 150.9 109.4 150.5 109.3 148.2C108.4 144.9 111.9 142.7 114.9 142.8C118 142.9 120.9 144.7 123 146.9C126.6 150.7 127.9 155.7 127.4 160.8C128.3 160.5 129.3 160.3 130.2 160C128.2 157.1 130.1 154 132.8 152.5C135.1 151.3 137.7 151.6 139.9 152.8C143.5 154.7 146 158.2 148.3 161.4C149.4 163 152 161.5 150.9 159.9C147.1 154.6 141.4 147.2 133.9 148.9C128.4 150.1 124 156.5 127.6 161.5C128.5 162.8 130.2 162.2 130.4 160.7C131.3 151.2 124.3 138.2 113.1 139.8C109.1 140.4 106.2 143.2 106.2 147.3C106.2 150.5 108.2 153.8 111.6 154C115.6 154.3 118.3 150.4 118.5 146.8C118.8 141.8 114.9 136.4 111.9 132.7C109.1 129.4 105 126.6 100.6 128.3C97.0001 129.6 94.6001 133.2 96.1001 136.9C96.7001 138.9 99.6001 138.1 98.9001 136.3Z" fill="#E8E8E8"/>
<path d="M625.7 283C621.5 280.5 624.5 273.1 629.2 276.2C633.7 279.2 627.7 284.3 624.8 280.8C623.6 279.3 621.5 281.4 622.7 282.9C625 285.7 629.4 285.5 632 283.2C635 280.5 634.2 276.1 631.1 273.9C628 271.7 623.5 272.1 621.6 275.7C619.7 279.1 621 283.7 624.3 285.6C625.8 286.5 627.3 284 625.7 283Z" fill="#E8E8E8"/>
<path d="M944.3 64.3C942.1 61.2 945.9 56.5 949.4 57.9C949.1 57.7 948.8 57.4 948.5 57.2C950.4 60.5 947.6 65 943.9 64.8C944.4 65.2 944.9 65.5 945.3 65.9C944.7 64.2 944 62.4 943.4 60.7C942.7 58.9 939.8 59.7 940.5 61.5C941.1 63.2 941.8 65 942.4 66.7C942.6 67.4 943.1 67.8 943.8 67.8C947 68 949.8 66 951.2 63.2C952.3 61 952.9 56.4 950.2 55C944.3 52.1 938.2 60.9 941.7 65.8C942.8 67.4 945.4 65.9 944.3 64.3Z" fill="#E8E8E8"/>
<path d="M1025.7 213C1025.2 210.7 1026.9 208.2 1029.2 207.7C1031.3 207.3 1033.2 209 1033.7 210.9C1035 215.4 1029.1 217.5 1026.3 214.4C1025 213 1022.9 215.1 1024.2 216.5C1029.4 222.3 1039.4 216.6 1036.2 209.2C1034.8 205.9 1031.3 203.8 1027.8 204.9C1024.1 206.1 1021.9 210 1022.7 213.8C1023.3 215.7 1026.2 214.9 1025.7 213Z" fill="#E8E8E8"/>
<path d="M701.1 1040.7C697.3 1038.9 697.6 1033.7 701.1 1031.7C704.5 1029.8 707.7 1031.5 710.8 1032.9C713.4 1034.1 716.4 1035.2 718.7 1032.9C720.8 1030.9 720.4 1027.8 720.5 1025.2C720.9 1015.1 730.7 1017.1 737.4 1019.6C739.2 1020.3 740 1017.4 738.2 1016.7C732.3 1014.4 724.1 1012.2 719.4 1018C718 1019.7 717.6 1021.7 717.5 1023.8C717.4 1025.2 718 1028.3 717.2 1029.6C715 1032.9 712 1029.9 709.7 1028.9C705.3 1027 699 1027.5 696.3 1032.1C694 1036 695.4 1041.3 699.5 1043.2C701.3 1044.1 702.8 1041.5 701.1 1040.7Z" fill="#E8E8E8"/>
<path d="M749.5 805C746.5 841.7 748.1 878.5 754.3 914.8C754.6 916.7 757.5 915.9 757.2 914C751.1 878 749.5 841.4 752.5 805C752.7 803.1 749.7 803.1 749.5 805Z" fill="#E8E8E8"/>
<path d="M751.5 807.3C767.1 812.7 783.2 816.3 799.6 818.1C815 819.7 832.7 821.4 847.5 815.6C849.3 814.9 848.5 812 846.7 812.7C832.3 818.4 814.8 816.7 799.6 815.1C783.5 813.4 767.6 809.7 752.3 804.4C750.4 803.7 749.7 806.6 751.5 807.3Z" fill="#E8E8E8"/>
<path d="M775.3 811.4C770.1 803.3 765.8 794.7 762.8 785.5C761.4 781.1 760.2 776.7 759.3 772.2C758.8 769.5 758.3 766.8 758 764.1C758 763.8 756.9 756.7 759 757.7C760 758.2 761.7 757.3 761.2 756C755.7 742.1 752.7 727.5 752.4 712.5C751.9 713 751.4 713.5 750.9 714C751.7 714.3 752.4 714.6 753.2 714.9C754.2 716.1 756.1 714.8 755.7 713.4C753.7 707 752.4 700.4 752 693.6C751.9 692 752.2 674 753.3 674.3C754.5 674.6 755.3 673.5 755.1 672.5C753.2 661.2 752.3 649.7 752.8 638.3C753 632.6 753.5 627 754.4 621.4C755.2 616.3 755.6 610.1 759.6 606.4C758.8 606.3 758 606.2 757.2 606.1C765.6 621.9 770.3 639.2 774.6 656.4C778.8 673.3 782.5 690.4 785.7 707.6C792.2 743.1 796.3 779 798.1 815.1C798.2 817 801.2 817 801.1 815.1C799.3 778.8 795.2 742.6 788.6 706.8C785.3 689 781.5 671.3 777.1 653.7C772.8 636.8 768.1 620 759.8 604.5C759.3 603.6 758.1 603.6 757.4 604.2C754 607.3 753 611.4 752.2 615.7C751.1 621.8 750.3 628.1 749.9 634.3C749.1 647.3 749.9 660.3 752.1 673.2C752.7 672.6 753.3 672 753.9 671.4C748.1 669.8 748.8 682.3 748.7 685.1C748.3 694.9 749.8 704.7 752.7 714.1C753.5 713.6 754.4 713.1 755.2 712.6C753.9 711.1 752.8 710.6 750.8 710.8C750 710.9 749.3 711.4 749.3 712.3C749.6 727.5 752.6 742.4 758.2 756.6C758.9 756 759.7 755.5 760.4 754.9C750.4 750.1 756.2 772.7 757 776.1C760 789.1 765.4 801.5 772.6 812.7C773.8 814.5 776.4 813 775.3 811.4Z" fill="#E8E8E8"/>
<path d="M791.2 711.5C790.3 705.1 790.1 698.6 790.9 692.2C791.1 690.6 794.9 671.8 796.8 672.6C797.8 673.1 799 672.5 799.1 671.3C799.7 658.5 803.7 647.1 808.4 635.3C813.1 623.6 817.7 612.3 825.5 602.2C824.8 602.2 824.1 602.2 823.4 602.2C829.1 608.7 828.4 618.6 828.7 626.7C829.1 635.8 829.4 644.9 829.5 654C829.7 671.9 829.4 689.8 828.6 707.7C826.9 744.3 822.8 780.8 816.6 816.9C816.3 818.8 819.2 819.6 819.5 817.7C826 780.1 830.1 742 831.8 703.8C832.6 684.6 832.8 665.4 832.4 646.2C832.2 636.6 832 627 831.3 617.4C830.9 611.1 829.9 604.9 825.5 600C825 599.4 823.9 599.4 823.4 600C815.7 610 810.9 621 806.3 632.7C801.2 645.3 796.9 657.5 796.2 671.3C797 670.9 797.7 670.4 798.5 670C792.4 667.3 790.4 680.3 789.6 683.8C787.4 693.2 787.2 702.7 788.6 712.2C788.5 714.2 791.4 713.4 791.2 711.5Z" fill="#E8E8E8"/>
<path d="M755.7 917.3C787 927.4 820.9 926.9 851.9 915.9C853.7 915.3 852.9 912.4 851.1 913C820.6 923.8 787.3 924.3 756.5 914.4C754.6 913.8 753.8 916.7 755.7 917.3Z" fill="#E8E8E8"/>
<path d="M847.1 814.6C848.3 830.8 849.6 847 850.7 863.2C851.8 879.7 852.2 896.4 849.5 912.8C849.2 914.7 852.1 915.5 852.4 913.6C855.1 897.5 854.9 881.3 853.8 865.1C852.7 848.3 851.4 831.4 850.1 814.6C850 812.7 847 812.7 847.1 814.6Z" fill="#E8E8E8"/>
<path d="M313.4 943C333.8 932.1 354.3 921.2 374.7 910.3C384.3 911.9 397.5 914 413.3 916.2C444.9 920.6 495.8 927.7 560.2 929.6C624.6 931.5 672.9 927.4 691.3 925.6C735.6 921.4 762.4 915.7 784.3 909.8C804.2 904.4 820.6 898.5 832.3 894C841.9 897.2 852.6 901.5 864 907.4C870.5 910.8 876.5 914.3 881.8 917.8C863 923.2 837.7 930.1 807.6 937.1C744.2 951.9 695.6 958.9 685.4 960.4C627.1 968.7 544 980.4 439.5 968.3C407 964.4 363.7 957.3 313.4 943Z" fill="white"/>
<path d="M312.3 943.1C312.8 947.3 313.4 951.4 313.9 955.6C321.4 957.7 332.4 960.7 346 963.7C372 969.5 398.4 973.5 432.9 976.2C560.3 986.2 662.1 977.3 662.1 977.3C713 972.8 762.4 968.2 826.2 949.6C850.2 942.6 869.8 935.5 883.8 930C882.7 925.3 881.6 920.6 880.5 915.9C876.6 917.5 870.8 919.8 863.7 922.4C815.5 940 775.8 945.8 740.4 950.1C662.6 959.7 623.7 964.4 566.6 965.3C501.6 966.4 414.4 962.5 312.3 943.1Z" fill="#161616"/>
<path d="M311.6 945C311.6 948.2 311.6 951.4 311.6 954.6C311.6 956.5 314.6 956.5 314.6 954.6C314.6 951.4 314.6 948.2 314.6 945C314.6 943 311.6 943 311.6 945Z" fill="#161616"/>
<path d="M312.7 957.4C387.4 977.6 465.4 980.2 542.3 981.3C616.2 982.3 690.6 979.1 763.4 965.6C804.4 958 844.8 946.9 883.8 931.8C885.6 931.1 884.8 928.2 883 928.9C814.2 955.6 741.1 969.2 667.6 974.9C593.5 980.6 518.7 979.3 444.6 974.8C400.3 972 356.4 966.2 313.5 954.6C311.6 954 310.8 956.9 312.7 957.4Z" fill="#161616"/>
<path d="M883.8 929.7C884.4 925.5 884.6 921.2 884.2 917C884 915.1 881 915.1 881.2 917C881.5 921 881.5 925 880.9 928.9C880.6 930.7 883.5 931.6 883.8 929.7Z" fill="#161616"/>
<path d="M314 944.7C335 934.7 355.6 924 375.8 912.4C377.5 911.4 376 908.9 374.3 909.8C354.1 921.3 333.5 932.1 312.5 942.1C310.7 942.9 312.2 945.5 314 944.7Z" fill="#161616"/>
<path d="M375 911C494.3 933.7 618.3 937.9 738.6 920.7C770.6 916.1 802.4 909 832 895.8C833.8 895 832.2 892.4 830.5 893.2C803.9 905 775.5 911.9 746.8 916.4C717.6 921 688.1 923.8 658.6 925.7C598.7 929.5 538.5 928.5 478.8 922.8C444.2 919.5 409.9 914.5 375.8 908.1C373.9 907.8 373.1 910.7 375 911Z" fill="#161616"/>
<path d="M831.4 895.3C849.2 901.1 865.9 909.2 881.5 919.5C883.1 920.6 884.6 918 883 916.9C867.2 906.5 850.2 898.3 832.2 892.4C830.3 891.8 829.5 894.7 831.4 895.3Z" fill="#161616"/>
<path d="M314.2 943.1C349.5 955 386.3 960.6 423.3 963.6C460.8 966.6 498.6 967.5 536.2 967.5C610.9 967.5 685.8 962.4 759.4 949C801.2 941.4 842.6 931.1 882.9 917.6C884.7 917 883.9 914.1 882.1 914.7C811.2 938.3 737.5 952.1 663.1 958.9C589.1 965.7 514.3 966.1 440.1 961.7C397.7 959.1 355.2 953.8 314.8 940.2C313.2 939.6 312.4 942.5 314.2 943.1Z" fill="#161616"/>
<path d="M371.8 372C494 343.7 619.8 337.5 744.8 336.3C780.2 335.9 815.6 336 851 336C852.9 336 852.9 333 851 333C725.6 332.8 599.6 332.7 475.1 350C440.1 354.9 405.4 361.1 371 369.1C369.1 369.6 369.9 372.5 371.8 372Z" fill="#161616"/>
<path d="M857.2 333.3C858.5 379.8 859.3 433.7 859 493.6C858.8 528.4 858.5 511.8 855.4 656.6C853.6 740 853.1 771.4 847.2 819.6C843.4 851 838.8 876.8 835.4 894.3C861.2 901.5 885.8 908.3 907.4 914.3C940.8 923.6 949.7 926.1 963 928C983.6 930.8 1008.7 931.2 1037.7 925.3C1048.4 837.7 1054.3 763 1057.7 705.8C1069.9 504.8 1058.5 412.2 1054.1 379.7C1048.1 335.9 1040.7 299.9 1035 275C1013.6 279.1 996.2 283.5 984 286.8C942.1 298.3 908.9 311.8 881.1 323.2C870.8 327.5 862.5 331 857.2 333.3Z" fill="white"/>
<path d="M167.8 276.8C167 285.4 166.1 296 165.3 305.2C148.7 494.5 140.4 589.2 137.7 650.1C134.9 715.5 134.7 810.3 148.6 928.2C149.7 930.6 151.7 933.9 155.3 936.6C160 940.1 164.3 940 172.8 942.4C179.5 944.3 183 946.2 186.2 947.4C195.4 951 216 955.1 242.2 954.1C279.8 952.6 308.7 941.1 329.9 932.4C349.8 924.3 365.7 915.6 376.7 909C370.5 853.3 365.9 794.5 363.3 732.8C358 601.6 363.3 481.1 374.2 373.7C369.6 371.9 362.9 369.4 355 366.2C341.4 360.7 308.8 347.4 251.4 319.4C228.7 308.4 200.3 294.1 167.8 276.8Z" fill="white"/>
<path d="M1034.4 274.6C1035.6 281.2 1037.2 290.3 1039 301.2C1041.5 316.7 1047.1 353.4 1051.2 401.6C1055.4 451.8 1056.4 495 1056.5 529.4C1056.8 599.2 1054.2 650.4 1047.4 769.8C1045.3 807 1042.2 861.5 1038.3 928C1042.4 927.7 1046.4 927.5 1050.5 927.2C1052.5 910.6 1055.2 885.9 1057.3 855.7C1058.9 833.9 1059.6 818 1060.3 800.9C1063.8 722.5 1064.4 723.4 1065.6 691.4C1068 628.3 1067.5 579.8 1067.1 536.2C1066.8 506.1 1065.9 477.6 1064.1 420.6C1062.8 381.8 1061.5 347.4 1052.7 302.7C1050.4 291.3 1048.2 281.8 1046.6 275.3C1042.5 275.1 1038.5 274.9 1034.4 274.6Z" fill="#161616"/>
<path d="M152.5 278.6C151.8 282.1 150.7 287.5 149.6 294.1C146.4 313.2 145.6 327.6 145.3 332.3C143.1 366.3 138.7 382.9 132.3 458.4C131.1 472.2 130.2 484.3 128.4 508.6C124.7 558.2 122.9 583 121.6 611C120.2 642.3 120 664.4 119.7 708.6C119.4 746.8 119.2 774.4 120.2 810.5C121 839.3 122.6 878.4 126.5 925C134.6 927.4 142.6 929.8 150.7 932.2C150.6 927.7 150.3 919.6 149.7 909.5C147.3 864.6 143.4 846.4 142.5 809C142.2 797.5 142.4 789.9 142.5 779C143.6 700.8 142.3 665.1 143 614.3C144.2 531.4 149.8 466.6 154.6 411.4C159.1 359.2 164.2 314.5 168.6 279.5C163.1 279.2 157.8 278.9 152.5 278.6Z" fill="#161616"/>
<path d="M854.8 335C858.5 408.4 858 482 857 555.4C855.9 627.2 855.4 699.2 849.9 770.9C846.8 811.7 841.9 852.4 834.3 892.7C833.9 894.6 836.8 895.4 837.2 893.5C850.5 823 855.4 751.3 857.6 679.7C859.9 606.6 860.9 533.3 860.8 460.1C860.7 418.4 860 376.7 857.9 335C857.7 333.1 854.7 333.1 854.8 335Z" fill="#161616"/>
<path d="M858.5 335C914 307.5 972.9 287.7 1033.7 276C1035.6 275.6 1034.8 272.7 1032.9 273.1C971.9 284.9 912.7 304.9 857 332.4C855.3 333.3 856.8 335.9 858.5 335Z" fill="#161616"/>
<path d="M1032.7 275.1C1049.2 358.2 1054.2 443.1 1054.1 527.7C1053.9 612.3 1048.9 696.7 1044.8 781.2C1042.4 829.9 1040 878.5 1037.6 927.2C1037.5 929.1 1040.5 929.1 1040.6 927.2C1044.9 841 1049.4 754.8 1053.3 668.5C1057.1 583.9 1059.5 499.1 1053.8 414.6C1050.6 367.5 1044.9 320.6 1035.7 274.4C1035.2 272.4 1032.3 273.2 1032.7 275.1Z" fill="#161616"/>
<path d="M834.8 893.3C839.3 898.5 847.3 899.5 853.6 901.4C862.2 904 870.9 906.6 879.5 909.2C896.9 914.4 914.2 919.9 931.8 924.3C966.2 932.7 1001.5 934.4 1036.4 928.4C1038.3 928.1 1037.5 925.2 1035.6 925.5C1001.2 931.4 966.4 929.7 932.6 921.4C916.5 917.5 900.7 912.5 884.9 907.7C876.9 905.3 868.9 902.9 860.9 900.5C856.9 899.3 852.9 898.1 848.9 896.9C844.7 895.6 840 894.7 837 891.2C835.6 889.8 833.5 891.9 834.8 893.3Z" fill="#161616"/>
<path d="M1034.7 275.2C1038.4 276.1 1042.1 277 1045.9 277.9C1047.8 278.4 1048.6 275.5 1046.7 275C1043 274.1 1039.3 273.2 1035.5 272.3C1033.6 271.9 1032.8 274.8 1034.7 275.2Z" fill="#161616"/>
<path d="M1045.7 276.9C1055.7 317.3 1058.4 359.5 1061.3 401C1064.3 443.4 1065.9 485.9 1066.6 528.5C1067.8 613 1064.9 697.5 1060.1 781.9C1057.4 829.7 1054 877.5 1050.5 925.3C1050.4 927.2 1053.4 927.2 1053.5 925.3C1059.8 840.3 1065.5 755.3 1068.2 670.1C1070.9 585.1 1070.7 499.9 1065.3 414.9C1062.4 368.7 1059.8 321.3 1048.7 276.2C1048.1 274.2 1045.2 275 1045.7 276.9Z" fill="#161616"/>
<path d="M1039.2 928.9C1043.6 928.5 1047.9 928.1 1052.3 927.7C1054.2 927.5 1054.2 924.5 1052.3 924.7C1047.9 925.1 1043.6 925.5 1039.2 925.9C1037.3 926.1 1037.3 929.1 1039.2 928.9Z" fill="#161616"/>
<path d="M371.7 372.9C365 442.2 361 511.7 359.7 581.3C358.4 651.2 359.8 721.2 364 791C366.3 830.2 369.6 869.3 373.6 908.3C373.8 910.2 376.8 910.2 376.6 908.3C369.4 839.1 364.9 769.6 363.1 700C361.3 630.1 362.2 560.1 365.9 490.3C368 451.1 370.9 412 374.6 372.9C374.9 371 371.9 371 371.7 372.9Z" fill="#161616"/>
<path d="M169.7 279.2C234.6 315.3 302 346.9 371.2 373.8C373 374.5 373.8 371.6 372 370.9C303 344.1 235.9 312.6 171.2 276.6C169.5 275.6 168 278.2 169.7 279.2Z" fill="#161616"/>
<path d="M166.6 278.5C155.5 363.1 147.8 448.2 143.6 533.5C139.4 618.8 138.8 704.2 141.6 789.5C143.2 837.4 145.9 885.3 149.7 933.1C149.9 935 152.9 935 152.7 933.1C145.9 848 142.7 762.6 142.9 677.3C143.1 591.9 146.9 506.6 154.1 421.5C158.2 373.7 163.4 326.1 169.6 278.5C169.8 276.6 166.8 276.6 166.6 278.5Z" fill="#161616"/>
<path d="M149.6 935C205.3 965.3 272 958.8 328.6 934.8C345.6 927.6 362 918.9 377.8 909.4C379.4 908.4 377.9 905.8 376.3 906.8C323.6 938.7 261.8 961 199.5 949.4C182.6 946.3 166.2 940.6 151.1 932.4C149.5 931.5 147.9 934.1 149.6 935Z" fill="#161616"/>
<path d="M127.5 926.7C134.5 930 141.7 932.8 149 935.3C150.8 935.9 151.6 933 149.8 932.4C142.7 930 135.8 927.3 129 924.1C127.2 923.3 125.7 925.9 127.5 926.7Z" fill="#161616"/>
<path d="M150.5 279.2C139.7 363 130.7 447 124.8 531.3C119 615.2 116.2 699.3 118 783.4C119 831 121.4 878.6 125.5 926C125.7 927.9 128.7 927.9 128.5 926C121.3 841.9 119.2 757.5 121.2 673.1C123.1 589 128.9 505 137.2 421.2C141.9 373.8 147.4 326.4 153.5 279.1C153.8 277.3 150.8 277.3 150.5 279.2Z" fill="#161616"/>
<path d="M152.2 281.3C158 280.1 163.8 279.7 169.8 280C171.7 280.1 171.7 277.1 169.8 277C163.6 276.7 157.5 277.2 151.4 278.4C149.5 278.8 150.3 281.7 152.2 281.3Z" fill="#161616"/>
<path d="M893.1 341.8C897.3 457.8 897.1 573.9 892.3 689.9C891 722.4 889.3 754.8 887.2 787.3C887.1 789.2 890.1 789.2 890.2 787.3C897.5 671.5 900.3 555.4 898.6 439.3C898.1 406.8 897.3 374.3 896.1 341.8C896 339.9 893 339.9 893.1 341.8Z" fill="#161616"/>
<path d="M941.6 300.2C945.6 380.9 947.6 461.8 947.5 542.6C947.5 623.4 945.5 704.3 941.5 785C939.3 830.7 936.4 876.3 932.9 921.9C932.8 923.8 935.8 923.8 935.9 921.9C942.1 841.3 946.3 760.6 948.6 679.8C950.8 599 951.1 518.1 949.4 437.3C948.4 391.6 946.8 345.9 944.6 300.2C944.5 298.3 941.5 298.3 941.6 300.2Z" fill="#161616"/>
<path d="M999.8 282.4C1005.4 366.3 1008.8 450.4 1009.7 534.6C1010.6 619.1 1009.2 703.5 1005.4 787.9C1003.3 835.2 1000.4 882.5 996.7 929.7C996.6 931.6 999.6 931.6 999.7 929.7C1006.1 845.8 1010.3 761.7 1012 677.6C1013.7 593.2 1013.1 508.7 1010.1 424.2C1008.4 376.9 1006 329.6 1002.8 282.3C1002.7 280.4 999.7 280.4 999.8 282.4Z" fill="#161616"/>
<path d="M882.8 824.8C880.5 851 876.3 877 870.2 902.6C869.8 904.5 872.6 905.3 873.1 903.4C879.3 877.5 883.5 851.3 885.8 824.8C886 822.9 883 822.9 882.8 824.8Z" fill="#161616"/>
<path d="M202.5 298.7C190.5 382.6 185.4 467.4 184.6 552.1C183.9 637.3 187.4 722.4 192.6 807.4C195.5 855.5 198.9 903.5 202.3 951.6C202.4 953.5 205.4 953.5 205.3 951.6C199.3 866.9 193.3 782.2 190 697.4C186.7 612.8 186.2 528 191.1 443.4C193.9 395.3 198.5 347.2 205.3 299.5C205.7 297.7 202.8 296.8 202.5 298.7Z" fill="#161616"/>
<path d="M260 326.7C252.4 407.8 247.3 489.2 245.6 570.7C244 652.1 245.9 733.5 252.6 814.7C256.3 859.8 261.5 904.7 268.3 949.4C268.6 951.3 271.5 950.5 271.2 948.6C259 868 252 786.6 249.4 705.1C246.8 624.7 248.3 544.1 252.7 463.8C255.2 418.1 258.7 372.4 263 326.8C263.2 324.8 260.2 324.8 260 326.7Z" fill="#161616"/>
<path d="M317.6 350.6C307.8 426.3 302.1 502.5 300.6 578.8C299.1 655.1 301.7 731.5 308.4 807.5C312.2 849.9 317.2 892.1 323.5 934.2C323.8 936.1 326.7 935.3 326.4 933.4C315.1 858 307.9 782.1 304.8 706C301.7 630.1 302.8 554 307.9 478.1C310.8 435.5 315 392.9 320.5 350.5C320.9 348.7 317.9 348.7 317.6 350.6Z" fill="#161616"/>
<path opacity="0.12" d="M977.4 289.2C988.5 334.5 997.5 387.6 1000.5 447.1C1008 598.5 972.4 722.2 941.4 801.6C919.5 836.7 897.7 871.8 875.8 906.9C897.1 916.1 928.7 926.8 968.1 930C995.3 932.2 1018.9 930.2 1037.3 927.2C1037.5 922.8 1040.8 855.9 1041 851.5C1051.9 627.4 1052.6 612.1 1053 596.7C1054.8 534 1054.5 444 1043.8 331.7C1040.1 312.6 1036.4 293.5 1032.7 274.5C1014.4 279.3 995.9 284.2 977.4 289.2Z" fill="#3F3F3F"/>
<path opacity="0.13" d="M279.5 338.1C276.9 349 273 365.3 268.4 385.2C248 474 233 539.3 225 599.4C210.8 705.3 197.1 807.9 255.5 892.1C272.5 916.6 291.1 933.1 303.5 942.9C291.5 947.6 276.6 951.9 259.2 954C210.8 959.7 172 944 153 934.6C145.8 868.3 140.8 797.3 139.2 722.2C135.6 556 149.1 406.6 169.7 278.1C206.2 298.1 242.8 318.1 279.5 338.1Z" fill="#3F3F3F"/>
<path d="M174.6 230.5C173.3 231.5 174.3 235.4 176.1 242.1C176.8 244.7 177.5 246.7 177.9 248C177.1 253.4 176.4 258.8 175.6 264.2C174 264.4 169.9 265.3 166.1 268.6C162.6 271.7 161.2 275.3 160.7 276.9C163.9 277.2 167.8 277.9 172 279.2C178.1 281.1 182.9 283.7 186.4 285.9C186.4 287.1 186.6 289.4 188.2 291.1C189.6 292.5 191.3 292.7 192.3 292.9C195.9 293.5 200.2 294.3 205.7 295.5C208.1 296.9 212.1 299.2 217 301.9C233.6 310.9 239.6 312.4 256.2 321.2C266.9 326.9 266 327.1 273.5 330.7C285 336.3 294.9 339.6 301.6 341.5C304.4 338.4 308.9 332.4 311.4 323.7C313.4 316.8 313.3 310.8 312.9 306.9C314.6 307.8 317.3 308.8 320.4 308.4C328.4 307.5 333.5 298.4 335.1 291.9C336.5 286.2 335.2 282.6 334.1 275.9C331.6 260.9 329.4 247.5 335.6 239C340.8 231.9 351.5 228.6 360.1 219.1C360.9 218.2 362.4 216.5 361.9 215.7C361 214.2 354 216.8 350.6 218.3C348.4 219.3 331.9 226.9 326.9 244.1C326.1 246.8 326 254.6 325.9 270.1C325.8 281.4 326 287.8 321.5 291.5C319.2 293.4 315.8 294.5 312.7 293.8C308.1 292.8 305.9 288.3 303.9 285.3C298.7 277.4 291.3 274.1 282.2 269.6C275.1 266.1 269 264.8 256.7 262.1C245.1 259.6 241.6 259.9 236.6 256.2C231 252 227.9 246.1 226.3 242.8C224.7 239.7 222.2 234.8 221.1 227.8C220.5 223.7 220.6 220.8 219.6 220.6C217.8 220.2 216.9 228.5 210.8 231.4C207.1 233.2 204.7 231.5 198.2 231.7C194 231.8 189.2 232.7 183.8 235.1C182 233.8 176.4 229.2 174.6 230.5Z" fill="black"/>
<path d="M177.6 263.4C175.5 246.9 190.5 231.9 207.1 233.6C222.8 235.2 233.2 254.3 232.7 268.6C232.6 270.5 235.6 270.5 235.7 268.6C236.2 252.8 224.4 232 207.1 230.6C188.9 229.1 172.3 245.2 174.6 263.4C174.9 265.2 177.9 265.3 177.6 263.4Z" fill="black"/>
<path d="M177.3 273.8C183.4 285.7 196.5 294.1 210.2 292.3C222.7 290.6 233.3 280.5 235.2 268C235.5 266.1 232.6 265.3 232.3 267.2C230.6 278.6 221.2 287.8 209.8 289.3C197.3 291 185.5 283.2 179.9 272.3C179 270.6 176.4 272.1 177.3 273.8Z" fill="black"/>
<path d="M188.1 288.3C187.8 284.5 198.6 282.9 201.3 282.3C206.2 281.2 211.2 280.6 216.2 280.6C225.5 280.6 234.4 283 242.3 287.9C243.9 288.9 245.5 286.3 243.8 285.3C233.6 279 221.7 276.8 209.9 277.9C203.7 278.5 197.6 279.8 191.7 281.8C188.5 282.9 184.7 284.3 185 288.3C185.2 290.2 188.3 290.2 188.1 288.3Z" fill="black"/>
<path d="M231.1 253.7C237.4 261.3 247.6 263.1 256.7 265.1C268.8 267.9 281.3 270.4 291.9 277.1C313.8 290.9 317.9 321 300.6 340.3C299.3 341.7 301.4 343.9 302.7 342.4C318.1 325.3 318.5 299.1 302.6 282.1C294.2 273.1 282.2 268.4 270.5 265.3C258.6 262.2 241.5 261.7 233.1 251.5C232 250.1 229.9 252.2 231.1 253.7Z" fill="black"/>
<path d="M301.1 306C296.1 299.4 287.3 297.1 279.6 300.3C270.1 304.2 269.6 315.9 270.7 324.8C270.9 326.7 273.9 326.7 273.7 324.8C272.8 317.8 272.7 307 279.9 303.5C286.1 300.4 294.2 302 298.4 307.6C299.6 309.1 302.2 307.6 301.1 306Z" fill="black"/>
<path d="M273.3 323.4C267.8 319.2 262.1 315.6 255 317.5C254.2 317.7 253.8 318.6 254 319.3C255.8 326.3 266.8 329.2 272.6 331.7C281.5 335.6 290.6 338.9 299.8 341.8C301.6 342.4 302.4 339.5 300.6 338.9C293.2 336.6 286 334.1 278.8 331.1C274.9 329.5 271.1 327.8 267.3 326C263.9 324.4 257.8 322.5 256.8 318.5C256.5 319.1 256.1 319.7 255.8 320.3C262 318.6 267.1 322.3 271.7 325.9C273.3 327.2 274.8 324.6 273.3 323.4Z" fill="black"/>
<path d="M185.4 288C189.3 294.4 197.2 295.5 204.1 296.5C214.3 298 224.5 298 234.7 296.9C236.6 296.7 236.6 293.7 234.7 293.9C226.5 294.8 218.3 295 210.1 294.2C203.2 293.5 192.1 293.1 187.9 286.5C187 284.8 184.4 286.3 185.4 288Z" fill="black"/>
<path d="M162.1 277.8C163.4 270.8 169.5 267.2 176.3 266.9C175.8 266.5 175.3 266.2 174.9 265.8C175.4 268.2 176.1 270.5 177.1 272.7C177.8 274.5 180.7 273.7 180 271.9C179.1 269.6 178.4 267.4 177.8 265C177.7 264.4 177 263.9 176.4 263.9C168.4 264.3 160.8 268.7 159.3 277C158.9 278.9 161.8 279.7 162.1 277.8Z" fill="black"/>
<path d="M179.5 246.8C178 242.5 176.9 238 176.5 233.4C176.5 233 176.4 232.6 176.4 232.2C176.3 231.3 176.4 231.4 176.8 232.5C177.7 233.1 178.6 233.8 179.5 234.5C181 235.8 182.4 237.2 183.6 238.7C184.9 240.2 187 238 185.7 236.6C184 234.6 176.9 226.4 173.9 229.6C172.4 231.2 173.5 234.9 173.8 236.7C174.3 240.4 175.3 244.1 176.5 247.6C177.3 249.4 180.2 248.7 179.5 246.8Z" fill="black"/>
<path d="M213.3 232.8C214.2 231.2 215.1 229.6 216.1 228C216.5 227.3 216.9 226.7 217.2 226C217.8 225 217.8 224.1 219 224.4C220.4 224.7 219.9 228 219.9 229.2C219.9 231.1 220 233 220 234.9C220 236.8 223 236.8 223 234.9C223 231.8 223.1 228.7 222.9 225.6C222.8 223.6 222.1 221.4 219.9 220.7C217.9 220.1 216.5 221.4 215.5 222.9C213.8 225.6 212.3 228.5 210.7 231.2C209.7 233 212.3 234.5 213.3 232.8Z" fill="black"/>
<path d="M309.1 298.2C309.7 305.8 318.2 308.3 324.1 304.6C332.8 299.2 334.7 287 333.6 277.8C332.1 265.2 329.1 253.5 333.4 241C337.5 229.1 347.7 219.4 360.6 218.6C362.5 218.5 362.5 215.5 360.6 215.6C343 216.7 331 231.7 328.5 248.3C327 258.2 329.2 267.4 330.5 277.1C331.3 283.5 330.9 289.6 328 295.5C326.7 298 324.9 300.5 322.5 302.1C318.8 304.4 312.4 303.7 312 298.3C312 296.3 309 296.2 309.1 298.2Z" fill="black"/>
<path d="M310.7 303.6C313.8 311.9 324.6 308.2 329.3 303.4C337 295.6 335.3 282.6 334.7 272.7C334.6 270.8 331.6 270.8 331.7 272.7C332.1 279 332.7 285.8 331.6 292.1C331.1 295.1 330 297.9 328 300.3C325.8 303 316.2 309.8 313.6 302.8C312.9 301 310 301.8 310.7 303.6Z" fill="black"/>
<path d="M360.7 215.5C349.3 219.9 337.8 226.1 333.2 238.1C327.9 251.9 331.7 266.9 331.4 281.2C331.4 283.1 334.4 283.1 334.4 281.2C334.7 268.7 331.7 255.9 334.7 243.5C338 229.9 349.3 223.1 361.5 218.4C363.3 217.7 362.5 214.8 360.7 215.5Z" fill="black"/>
<path d="M358.4 217.2C347.9 222 338.3 230.4 333.4 241.1C330.8 246.7 331.2 252.9 331.2 259C331.2 266.8 331.5 274.7 332.1 282.5C332.2 284.4 335.2 284.4 335.1 282.5C334.7 276.2 334.4 270 334.3 263.7C334.2 257.1 333.3 249.3 335.8 243.1C340.1 232.6 349.8 224.5 359.9 219.8C361.7 219 360.2 216.4 358.4 217.2Z" fill="black"/>
<path d="M183.5 253.4C186.3 258.3 193.4 256.6 194.1 251.2C194.2 250.2 192.7 250.3 192.6 251.2C192.1 255.3 186.9 256.1 184.8 252.7C184.3 251.8 183 252.6 183.5 253.4Z" fill="white"/>
<path d="M204.7 249.5C207.8 254.8 215.7 252.7 215.8 246.6C215.8 245.6 214.3 245.6 214.3 246.6C214.2 251.3 208.4 252.8 206 248.8C205.5 247.9 204.2 248.6 204.7 249.5Z" fill="white"/>
<path d="M198.7 256.1C199.4 259 198.8 261.9 197 264.3C196.4 265.1 197.7 265.8 198.3 265.1C200.3 262.4 200.9 259 200.2 255.7C199.9 254.8 198.4 255.2 198.7 256.1Z" fill="white"/>
<path d="M199.3 256C199 259.8 201.1 263.4 204.6 265C205.5 265.4 206.2 264.1 205.4 263.7C202.4 262.3 200.5 259.3 200.8 256C200.8 255 199.3 255 199.3 256Z" fill="white"/>
<path d="M174.9 264.9C183.7 264.2 189.3 271.4 195.2 276.7C195.9 277.3 197 276.3 196.3 275.6C190.1 270 184.1 262.7 174.9 263.3C174 263.4 174 264.9 174.9 264.9Z" fill="white"/>
<path d="M191.3 282.5C202.6 275.3 216 272.9 229.1 275.8C230 276 230.4 274.6 229.5 274.4C216 271.5 202.2 273.9 190.6 281.3C189.7 281.7 190.5 283 191.3 282.5Z" fill="white"/>
<path d="M219.7 296.2C229 296.8 237.8 293.9 244.9 287.8C245.6 287.2 244.6 286.1 243.8 286.7C237 292.5 228.6 295.3 219.7 294.7C218.8 294.7 218.8 296.2 219.7 296.2Z" fill="white"/>
<path d="M217 225.2C214.8 228.9 214.3 233.2 215.6 237.3C215.9 238.2 217.3 237.8 217 236.9C215.8 233.2 216.2 229.3 218.2 226C218.8 225.1 217.5 224.3 217 225.2Z" fill="white"/>
<path d="M177.4 234.5C179.8 236 181.3 238.3 181.9 241C182.1 241.9 183.5 241.5 183.3 240.6C182.6 237.5 180.8 234.9 178.1 233.2C177.3 232.7 176.6 234 177.4 234.5Z" fill="white"/>
<path d="M230.3 250.5C232.2 252.8 234.4 254.8 236.9 256.3C237.7 256.8 238.5 255.5 237.7 255C235.3 253.5 233.1 251.6 231.4 249.4C230.7 248.7 229.7 249.8 230.3 250.5Z" fill="white"/>
<path d="M292 299.6C289.9 294.3 279.8 297.9 276.5 300C270.6 303.9 268 311.2 270.2 317.9C270.5 318.8 271.9 318.4 271.6 317.5C269.9 312.2 271.3 306.5 275.5 302.6C277.3 300.9 279.7 299.7 282.1 299.1C283.8 298.6 289.6 297.5 290.5 299.9C290.9 300.9 292.3 300.5 292 299.6Z" fill="white"/>
<path d="M271.4 318C263.6 314.7 255.3 314.4 247.2 316.9C246.3 317.2 246.7 318.6 247.6 318.3C255.5 315.8 263.4 316.2 271 319.4C271.9 319.8 272.3 318.3 271.4 318Z" fill="white"/>
<path d="M546.1 733.9C542 743.7 542 751 541.4 769.8C540.7 793 538.7 816.1 538.5 839.2C538.3 858.7 538 888.2 537.2 926.6C569.2 928.4 604.6 928.8 643 926.9C679.6 925.1 713.4 921.4 743.9 916.8C729.5 868.1 720 832.6 713.2 805.1C709.6 790.4 704.3 768.4 689.7 742.7C681.7 728.6 673.4 718 667.3 710.9C665.7 709.5 630.4 679.8 589.6 693.8C587.6 694.6 557.9 705.4 546.1 733.9Z" fill="#EC615B"/>
<path d="M605 792.2C611.7 804.1 618.4 816 625 827.9C625.9 829.6 628.5 828.1 627.6 826.4C620.9 814.5 614.2 802.6 607.6 790.7C606.7 789 604.1 790.5 605 792.2Z" fill="#C64F4F"/>
<path d="M604.2 791.6C619.6 810.8 628.5 832.7 633.3 856.7C637.8 879.4 640.7 902.4 642.4 925.5C642.5 927.4 645.5 927.4 645.4 925.5C643.6 901.8 640.6 878.1 636 854.8C631.2 830.7 621.8 808.7 606.4 789.5C605.2 787.9 603 790.1 604.2 791.6Z" fill="#C64F4F"/>
<path opacity="0.19" d="M628.3 691.5C631.8 698.5 636.8 708.8 642.4 721.2C658.7 757.4 675.6 795.6 684.6 842.6C688.3 861.6 691.8 889.1 690.3 923.4C698.7 923 707.6 922.3 716.9 921.3C726.2 920.3 735.1 919.1 743.5 917.7C740.9 908.9 736.7 894.9 732 877.6C718.9 829.2 717.1 814.1 705.9 782.2C697.6 758.5 689.9 742.4 678.8 727C668.8 713.1 659.4 704.4 647.5 698.3C640.1 694.5 633.2 692.6 628.3 691.5Z" fill="#3F3F3F"/>
<path opacity="0.11" d="M604.4 792.7C608.3 807.3 611.7 824.7 613.3 844.3C616.1 878.2 612.5 907.1 608.1 928.7C619.6 928 631 927.3 642.5 926.6C641.3 903.9 638.7 884.8 636.2 870.3C629.9 833.4 623.3 819.7 618 810.9C613 802.8 608 796.7 604.4 792.7Z" fill="#3F3F3F"/>
<path d="M476.3 563.5C473 565.7 471 569.9 467.1 578.2C463.9 585 462.4 590.3 460 598.2C453.4 620.6 454.1 616.8 451.8 625.3C448.8 636.6 443.4 656.4 440.4 682.5C437.5 707.8 438.1 727.3 438.2 732C439.3 761.7 444.5 783.8 448 798C454.2 823.5 462.5 844.7 479 887C482.6 896.1 485.6 903.6 487.7 908.8C486.2 909 483.8 909.3 480.9 909.7C465.8 911.5 463.7 911.1 457.6 912.4C449.8 914.1 442.8 915.8 440.1 921.7C438.9 924.4 438.4 928.2 439.9 929.5C441.8 931.1 445.5 927.5 451.9 925.4C457.3 923.7 462.1 923.8 465.4 924.3C462.8 929.4 461.3 934 460.4 937.3C458.2 944.9 456.5 951.1 459.3 955.5C460.7 957.7 463.4 959.7 465.6 959.1C466.8 958.8 467.9 957.7 470.9 949.8C473.8 941.9 474 939.4 476.4 936.3C478.5 933.7 480.9 932.3 482.5 931.5C481.7 934 480.8 937.7 480.4 942.2C480.2 944.9 479.9 947.4 480.4 950.6C480.8 953.5 481.7 959.7 486.3 963.1C487.1 963.7 490.4 966.2 492.4 964.9C494.1 963.9 493.6 961.1 494.3 952.1C494.9 944.5 495.5 942.4 496 941.2C497.3 937.7 499.3 935.2 500.8 933.7C500.3 940.9 500.4 946.9 500.6 951.3C501 958.4 501.7 961.6 504 963.6C505.3 964.7 507.5 965.8 509.3 965C511.1 964.2 511.7 961.7 512.2 958.6C514.4 946.9 513.1 943.5 515.6 937.6C516.6 935.3 517.7 932.5 520.4 930.5C526.1 926.3 534.2 928.8 535.3 929.1C540.1 930.6 541.9 933.2 544.3 932.1C546.3 931.2 547.4 928.3 547.5 925.9C547.6 920 541.1 915.5 535.5 911.8C532.7 909.9 528.5 907.4 522.9 905.4C518 895.7 511.8 881.6 506.7 863.7C503.3 851.7 501.7 842.5 500.2 833.8C494.9 803.3 496.8 791.6 490.9 761.3C489.5 754 488.1 748.2 487.3 744.9C487.7 739.9 488.4 732.1 489.4 722.6C492.7 691.6 494.9 672.2 501.6 649.4C506.9 631.5 512.3 616.8 512.3 616.8C519.1 598.5 521.3 596 520.5 590.1C517.7 571.5 488.6 555.3 476.3 563.5Z" fill="white"/>
<path d="M468.6 573C450.8 614.1 439.6 658 437.2 702.8C434.7 748.5 442.6 793.2 457.4 836.4C465.8 861.1 476 885.1 486.4 909.1C487.2 910.9 489.7 909.3 489 907.6C471 866 453.4 823.8 445 779.2C436.7 735.2 438.4 689.7 448 646C453.4 621.5 461.2 597.6 471.2 574.6C471.9 572.8 469.4 571.2 468.6 573Z" fill="#161616"/>
<path d="M505.9 630.1C493.3 668.2 486.7 708.1 486 748.2C486 750.1 489 750.1 489 748.2C489.7 708.3 496.3 668.8 508.8 630.9C509.4 629.1 506.5 628.3 505.9 630.1Z" fill="#161616"/>
<path d="M475.5 730C484.4 742.4 488 757.2 490.1 772C492.3 787.1 493.3 802.4 495.5 817.5C499.9 848.2 507.1 878.8 521.6 906.3C522.5 908 525.1 906.5 524.2 904.8C509.1 876.2 502 844.3 497.8 812.5C494.1 784.6 495.2 752.3 478.1 728.5C477 727 474.4 728.5 475.5 730Z" fill="#161616"/>
<path d="M486 907.7C476.7 908.2 467.4 909.1 458.3 910.8C451.8 912.1 444.9 914.2 440.4 919.4C437.8 922.5 434.5 929.9 440.2 932C442.7 932.9 444.9 931.2 447 930C452.2 927 457.6 923.9 463.8 925.6C465.7 926.1 466.5 923.2 464.6 922.7C459.5 921.3 454.9 922.5 450.3 924.8C448.9 925.5 447.6 926.2 446.3 927C445.5 927.4 444.8 927.9 444 928.4C443.1 926.8 442.1 925.2 441.2 923.6C441.4 921.1 446.4 918.2 448.2 917.2C453.1 914.6 458.8 913.7 464.2 912.9C471.5 911.8 478.8 911.1 486.1 910.7C488 910.6 488 907.6 486 907.7Z" fill="#161616"/>
<path d="M477.8 916.6C469.9 917.9 463.4 923.3 460.4 930.6C457.2 938.2 454.5 949.5 458.2 957.3C461 963.2 467.9 965.3 470.5 958.1C472.1 953.6 471.8 948.7 473.4 944.2C475.4 938.6 478.8 933.8 483.8 930.5C485.4 929.4 483.9 926.8 482.3 927.9C477.6 931 474.1 935.2 471.8 940.3C470.6 942.9 469.7 945.6 469.1 948.4C468.6 950.7 468.3 962.3 462.8 958.9C459.7 957 459.4 950.9 459.5 947.8C459.7 943.2 460.9 937.9 462.4 933.5C464.9 926.1 470.8 920.8 478.5 919.5C480.5 919.2 479.7 916.3 477.8 916.6Z" fill="#161616"/>
<path d="M487.2 924C481 928 478.8 936.7 478.2 943.7C477.6 951.2 479.7 959.3 485.3 964.6C488.6 967.7 493.7 969.3 494.6 963.5C496.1 953.8 492.2 940.1 502.8 934.3C504.5 933.4 503 930.8 501.3 931.7C497.5 933.8 495.1 937.2 493.6 941.3C491.5 947.3 492.7 953.4 491.8 959.6C491.4 962.4 490.6 965.4 487.5 962.5C486.4 961.5 485.4 960.2 484.6 958.9C482.7 955.9 481.6 952.5 481.3 949C480.6 942 482.4 930.8 488.8 926.6C490.3 925.5 488.8 922.9 487.2 924Z" fill="#161616"/>
<path d="M501.4 932C499.5 939.2 497.7 946.7 498.9 954.2C499.4 957.8 501.5 966.6 506.1 967.5C511.3 968.5 513.4 959.3 513.9 955.9C515 948.5 513.6 939.6 519.4 933.9C520.8 932.5 518.7 930.4 517.3 931.8C510.3 938.7 512.7 948.7 510.6 957.5C509.9 960.7 507.9 965.5 504.6 961.8C502.8 959.9 502.3 956.2 501.9 953.7C500.9 946.7 502.6 939.7 504.4 932.9C504.8 931 501.9 930.2 501.4 932Z" fill="#161616"/>
<path d="M523 908C528.9 910.4 535 913 539.6 917.6C541.7 919.7 544.3 922.9 544.9 925.9C546.4 934.2 540.2 928.9 537.9 927.9C531.6 925.1 519.1 927.1 515.5 933.5C514.6 935.2 517.2 936.7 518.1 935C520 931.5 525.2 930.6 528.8 930.1C531 929.8 533.5 929.6 535.6 930.2C538 930.9 539.5 933 541.8 933.7C545.1 934.7 547.6 932.4 548.1 929.2C549 924 544.5 918.2 541 914.8C536.1 910.1 529.8 907.5 523.6 905C522 904.4 521.3 907.3 523 908Z" fill="#161616"/>
<path opacity="0.13" d="M502.8 597.8C491.3 598.5 484.4 627.9 480.6 644.2C476.3 662.5 472.4 687.7 473.2 724.4C473.9 757.2 478.1 782.2 479.5 790.9C485.8 828.3 495.7 859.7 505.4 884.3C508.6 893.3 511.7 902.3 514.9 911.2C513.1 918.6 511.3 926.2 509.6 934.1C507.4 944.5 505.4 954.7 503.8 964.5C505.7 964.7 508.3 964.6 510.1 962.8C512.4 960.5 512.1 956.8 512.2 953.6C512.3 950.6 512.6 936.1 519.1 930.7C523.1 927.4 529.5 927.4 533.9 929C538.4 930.7 540.4 934 543.4 933C545.7 932.3 547.3 929.5 547.6 927.3C548.6 920 534.6 912.5 532.3 911.3C527.8 908.9 525.7 908.6 522.8 905.6C519.2 901.8 518 897.3 517.5 895.3C509.2 863.7 505.1 865.7 499.5 829.4C495.3 802 498 803.6 493.7 781.8C490.7 766.4 488.2 760.1 487.4 746.8C486.5 732.2 488.2 720.8 490 710.7C497.5 669.4 511.9 619.4 515.4 607.5C512.2 602.5 507.8 597.5 502.8 597.8Z" fill="#3F3F3F"/>
<path d="M706.9 186.7C703.8 186.6 701.4 192.2 700.8 193.7C699.9 195.9 698.5 200.2 699.5 206.3C699.5 206.3 700.1 210.5 702.1 235.9C702.6 241.6 702.7 249.9 701.2 260.3C697.2 271.3 693.4 279.9 690.8 285.5C682 304.3 676.1 311.8 663.8 335.6C659.2 344.5 658.8 345.9 653.4 356.9C639.9 384.2 630 401.3 619.9 419.6C611 435.6 598.5 459.1 583.8 489.3C583.1 491.9 579.6 505.8 587.7 518C596.3 530.9 614.3 536.7 631.7 531.1C634.4 527.3 638.2 521.4 641.7 513.7C645.1 506.2 646.7 500.4 647.8 496.7C648.9 493 653.3 480.5 662.2 455.3C665 447.5 668.4 438.2 675.3 420C685.8 392.1 691 378.2 694.5 369.5C702.4 349.7 708.4 336 720.2 309.4C726.4 295.4 734 278.5 742.8 259.3C747.9 256.4 754.9 251.9 762.4 245.4C773.2 236.1 778.6 228.2 789 213.2C795.7 203.4 800.8 194.8 799.4 186.2C799.2 185 798.7 181.5 796.8 181C794.4 180.3 791.4 185.1 788.1 189.3C784.7 193.6 779.6 199.2 772 205C774.6 197.8 777.2 192.2 779 188.5C783.1 180.1 786.5 174.7 788.6 165.4C790.9 155.5 788.8 153.7 788.2 153.2C785.5 151.2 780.9 155 778.2 152.8C775.8 150.7 777.9 146.1 776 145C774.1 143.9 769.9 147.2 766.9 150.7C761.7 156.7 760.5 162.5 758.6 168.1C756.8 173.6 753.5 181.1 747.3 189.4C745.8 189.6 743.8 189.7 742.9 188.5C741.9 187.1 743.3 184.8 744.6 181.1C744.9 180.2 744.7 180.7 746.8 171.5C747.6 168 749.1 161.5 750.3 156.3C752 148.8 752.8 145.7 751.2 142.4C750.9 141.7 749.6 139 747.7 138.9C745.5 138.8 743.8 142.3 742.5 145C737.2 155.9 734.5 161.4 733.8 163.3C730.3 172.8 725.6 187.3 724.9 192.3C724.8 192.9 724.6 195 723.6 197.7C723.1 199 722.8 199.5 722.5 200.3C720 205.9 722.1 209.6 719.5 211.6C719.2 211.8 717.7 212.9 716.5 212.5C715.2 212.1 714.6 210.4 713.9 204.7C712.9 196.9 713.5 194.6 711.7 191.2C710.5 189.7 709 186.8 706.9 186.7Z" fill="white"/>
<path d="M702.1 233C702.8 225.7 701.7 218.6 701.3 211.3C701.1 207.8 701.1 204.2 701.6 200.7C701.9 198.7 702.3 196.7 702.9 194.8C703.9 191.9 704 189.5 707.2 189.4C710.2 189.3 710 191.1 710.5 193.6C711 195.8 711.1 198.1 711.2 200.3C711.4 203.4 711.5 206.6 712.2 209.6C712.9 212.7 714.8 215.3 718.3 214.2C720.1 213.6 719.4 210.7 717.5 211.3C714 212.3 714.3 200.5 714.1 198.5C713.8 195.3 713.5 192 712.3 189C710.6 184.8 706.7 182.7 703.4 186.6C699.1 191.6 698.2 200.6 698.2 206.8C698.2 215.6 699.9 224.2 699.1 233C699 234.9 702 234.9 702.1 233Z" fill="#161616"/>
<path d="M719.5 213C724.5 203.3 726 192.3 728.9 181.9C732 170.7 735.9 159.7 741.7 149.7C743 147.5 744.3 144.4 746.2 142.7C749.9 139.3 749.9 145.8 749.6 148.6C749 154.8 747.4 161.1 746 167.2C744.7 172.8 742.9 178.2 741.6 183.8C740.9 186.9 740.9 189.6 743.1 192C744.4 193.4 746.5 191.3 745.2 189.9C742.7 187.2 745.3 181.8 746.1 178.9C747 175.6 747.9 172.3 748.6 169C750 162.9 751.4 156.7 752.3 150.4C752.8 147.1 753.5 141.3 750.6 138.8C748.1 136.7 745.6 138.7 743.9 140.7C736.6 149.8 732.1 161.8 728.5 172.8C724.4 185.5 723.1 199.7 716.9 211.6C716 213.2 718.6 214.7 719.5 213Z" fill="#161616"/>
<path d="M743.8 192.3C746.8 192.6 747.9 190.4 749.3 188C751.5 184.2 753.5 180.2 755.4 176.3C759.1 168.7 761.7 160.4 766.2 153.3C767.2 151.7 768.4 149.7 770 148.5C771.3 147 773 146.5 775.2 147.2C775.5 148.6 775.7 150 775.7 151.4C775.8 156.3 774.2 161.2 772.5 165.8C769.1 174.9 765.3 183.9 761.6 193C760.9 194.8 763.8 195.6 764.5 193.8C766.6 188.6 788.2 143 774.1 142.7C771.3 142.6 768.1 146.1 766.5 148C763.7 151.3 761.7 155.1 759.9 159C757.8 163.7 755.9 168.4 753.7 173C752.4 175.8 750.9 178.7 749.5 181.4C748.6 183.2 746.4 189.4 743.9 189.2C741.9 189.1 741.9 192.1 743.8 192.3Z" fill="#161616"/>
<path d="M779.2 155.5C780.3 149.7 786.6 153.7 787.4 157.4C788.1 160.5 786.9 163.6 785.9 166.5C784.4 170.9 782.7 175.2 780.9 179.4C777.4 187.6 773.3 195.4 768.7 203.1C767.7 204.8 770.3 206.3 771.3 204.6C775.6 197.5 779.4 190.1 782.8 182.6C785.7 176.1 789.2 168.9 790.3 161.8C791 157.3 789.7 151.5 784.7 149.9C781 148.7 777 151 776.3 154.8C776 156.6 778.9 157.4 779.2 155.5Z" fill="#161616"/>
<path d="M773.4 205.8C777.2 201.5 780.9 197.2 784.7 192.9C786.7 190.6 788.5 188.1 790.7 186.1C791.4 185.5 792.1 185 792.7 184.4C794.4 185 796.1 185.6 797.9 186.2C798.4 187.1 797.2 189.7 796.9 190.5C793.8 200 789.3 209 784 217.4C773.3 234.3 758.6 248.5 741.4 258.8C739.7 259.8 741.3 262.4 742.9 261.4C764.3 248.6 781.9 229.8 793 207.5C795.7 202.1 798.3 196.4 800 190.6C801 187.2 801.6 182.6 797.7 180.8C793.9 179 789.9 182.5 787.5 185C781.8 190.9 776.6 197.5 771.2 203.7C770 205.1 772.1 207.2 773.4 205.8Z" fill="#161616"/>
<path d="M699.5 229.9C700.2 239.1 700.9 248.5 699.4 257.7C697.9 266.8 694.1 275.2 689.9 283.4C681.4 300 672.5 316.4 663.8 332.9C646.4 365.9 629 398.8 611.6 431.8C601.6 450.7 591.6 469.7 581.6 488.6C580.7 490.3 583.3 491.8 584.2 490.1C620.1 422 656.7 354.2 692 285.7C696.2 277.6 700.1 269.3 701.8 260.4C703.8 250.3 703.1 240.1 702.3 229.9C702.4 228 699.4 228 699.5 229.9Z" fill="#161616"/>
<path d="M741.2 258.1C709.2 325.7 681.3 394.9 656.7 465.5C649.5 486 642.3 506.5 633.6 526.4C632.8 528.2 635.4 529.7 636.2 527.9C651.1 494 662 458.5 674.8 423.9C687.9 388.3 702.1 353 717.2 318.2C725.8 298.5 734.6 279 743.8 259.6C744.6 257.9 742 256.4 741.2 258.1Z" fill="#161616"/>
<path opacity="0.1" d="M786.4 154.3C782.3 153.7 776.8 170.5 773.6 178.9C763.9 204.7 755.7 207.7 734.9 242.7C727.2 255.6 716.6 275 705.9 300.3C673.9 367.7 642 435.2 610 502.6C617.8 512.1 625.5 521.7 633.3 531.2C637.2 520.1 642.9 503.8 650 484.1C662.9 448.6 679.6 402.9 703.2 347.3C712.6 325.3 725.6 295.6 742.3 260.7C746.9 257.8 753.3 253.3 760.3 247.1C769.7 238.9 782.1 227.8 790.6 209.7C793.3 204.1 796.7 195.5 798.5 184.2C797.2 183.6 795.3 182.9 793.2 183.3C789.6 184 787.7 187.5 786.2 189.9C780.4 198.8 771.9 204.7 770.8 204C770.2 203.5 771.9 200.6 776.5 191.2C785.9 171.9 782 177 785.7 170.5C787.8 166.8 789.9 163.6 789.2 159.5C789.2 157.7 788.1 154.6 786.4 154.3Z" fill="#3F3F3F"/>
<path opacity="0.13" d="M780.3 222.5C775.3 225.7 768.2 230.4 760.1 236.6C750.8 243.6 740.8 251.2 732.4 260.8C721 273.8 716 286.7 713 294.2C685.5 364.4 652.8 440.6 643.5 461.8C638.4 473.4 630.4 490.9 619.8 511.9C624.6 518.2 629.5 524.5 634.3 530.8C648.1 488.7 664 444.6 682.2 398.9C701.8 349.8 722.1 303.9 742.5 261.2C748 257.5 754.2 252.8 760.5 246.7C769.4 238.2 775.8 229.6 780.3 222.5Z" fill="#3F3F3F"/>
<path d="M514.4 512C510.7 514.5 502.4 520.3 493.9 529.7C485.1 539.4 480 548.5 475.8 556.2C472.5 562.1 470.1 567.3 468.4 571.1C471 576.1 475.2 583.8 481 593C491.3 609.3 499.3 618.1 513.1 635.8C518.9 643.2 527.3 654.3 537.3 668.3C538.9 675.8 540.3 683.7 541.5 692C543.9 709 544.8 724.8 544.8 739C548.5 743 554.9 748.8 564.3 752.9C579.9 759.8 594.1 757.8 601.5 756.6C617.9 754.1 629.1 746.8 636.8 741.7C650.8 732.5 660.3 721.5 666.6 712.4C665.3 696.8 663.6 680.7 661.5 664C659.7 649.8 657.7 636 655.5 622.6C655.3 612.1 654.3 597.8 650.9 581.2C648.1 567.3 644.7 551.1 634.6 531.9C622 508 606.3 493.5 600.2 488.2C594.8 483.5 589.9 480 586.3 477.5C571.7 486.8 559.1 492.6 550.5 496.1C534.5 502.7 527 503.7 514.4 512Z" fill="white"/>
<path d="M470 571.5C473.1 559.7 481.7 548.7 489.1 539.1C496.9 529.1 505.7 520 516.2 512.7C517.8 511.6 516.3 509 514.7 510.1C503.9 517.6 494.8 526.9 486.8 537.2C479.1 547.1 470.4 558.3 467.2 570.6C466.7 572.6 469.6 573.3 470 571.5Z" fill="#161616"/>
<path d="M467.8 572.5C488.4 608.5 512.8 642.3 540.5 673.2C541.8 674.6 543.9 672.5 542.6 671.1C515.1 640.4 490.9 606.8 470.4 571C469.4 569.3 466.8 570.8 467.8 572.5Z" fill="#161616"/>
<path d="M552.4 497.5C563.6 489.6 575.9 483.7 589 479.9C590.9 479.4 590.1 476.5 588.2 477C574.8 480.9 562.3 486.9 550.9 494.9C549.3 496 550.8 498.6 552.4 497.5Z" fill="#161616"/>
<path d="M586.5 480.7C634.3 514 654.8 572.4 652.5 628.9C652.4 630.8 655.4 630.8 655.5 628.9C657.9 571.2 636.7 512 588 478.1C586.5 477 585 479.6 586.5 480.7Z" fill="#161616"/>
<path d="M534 667.3C539.2 678 539.8 691.3 540.9 702.9C542.1 714.7 542.5 726.6 542.5 738.5C542.5 740.4 545.5 740.4 545.5 738.5C545.6 725.3 545 712.1 543.5 699C542.3 687.9 541.5 675.9 536.6 665.7C535.7 664 533.2 665.5 534 667.3Z" fill="#161616"/>
<path d="M544.4 739.1C559.4 757.5 585 762.7 607.3 757C619.7 753.8 631.2 747.7 641.5 740.1C651.8 732.5 661.6 723.7 667.4 712.1C668.3 710.4 665.7 708.9 664.8 710.6C659.2 721.7 649.8 730.2 639.9 737.5C630.3 744.6 619.6 750.4 608 753.7C586.2 759.8 561.1 755.1 546.4 737C545.3 735.5 543.2 737.6 544.4 739.1Z" fill="#161616"/>
<path d="M653.6 624.4C658.5 653.7 663.3 683 665 712.6C665.1 714.5 668.1 714.5 668 712.6C666.2 682.7 661.4 653.1 656.5 623.6C656.2 621.7 653.3 622.5 653.6 624.4Z" fill="#161616"/>
<path opacity="0.13" d="M556.2 493.5C567.3 506.6 582.5 527 595.2 554.6C613.8 595 617.5 629.9 620.3 659.6C622.5 682.2 623.7 713.7 619.3 751.3C627.8 747.6 639.8 741.2 651.4 730.1C657.8 723.9 662.6 717.7 666.2 712.3C662.9 684.4 659.6 656.4 656.3 628.5C656.9 605.5 653.3 586.9 649.9 574.3C639.4 535.3 619.2 510.2 612.4 502.3C603.1 491.4 594 483.4 587.3 478.1C576.9 483.3 566.6 488.4 556.2 493.5Z" fill="#3F3F3F"/>
<path opacity="0.14" d="M630.7 528.5C628.9 529 633.1 545.3 637.1 569.4C637.1 569.4 643.2 606 644.5 641.4C645.4 664.8 644.2 699 633.7 741.5C638.5 739.1 644.4 735.6 650.5 730.7C657.9 724.7 663.2 718.4 666.8 713.4C665.5 673.1 662.1 652.2 658.9 640.4C658.3 638.1 656.7 632.7 655.4 625.1C653 610.9 654.2 604.8 652.9 593C651.9 583.6 650 577.4 646.5 565.9C641.2 548.6 632.7 527.9 630.7 528.5Z" fill="#3F3F3F"/>
<path d="M513 347.5C506.4 351.2 498 356.8 489.9 365.3C473.1 383.2 467.7 403.2 465.8 413.1C464.3 412.9 460.2 412.6 456.9 415.2C452 419 451.9 426.5 453.8 430.9C454.5 432.5 455.5 433.8 457.6 436.4C460.1 439.5 461.7 441.4 464.3 442.5C465.4 443 467.9 443.7 471.5 442.9C472.6 446.2 474.4 450.8 477.1 456.1C480.6 462.9 485.9 473 496.5 481.8C499.6 484.4 504.4 487.8 510.9 490.9C513.3 494 517.7 500.5 518.2 509.3C519.2 524.8 507.9 537.7 497.2 543.4C478.6 553.3 458.4 543.4 451 539.7C447 537.7 426.9 527.3 418.5 504.5C408.3 477 421.6 449.5 429.5 433.1C437.5 416.6 441.2 417.7 447.3 401.6C455.4 380.3 451.1 372.8 460.4 356.5C464 350.1 471.3 337.3 486.6 331.3C499.7 326.2 511.8 328.8 517 330.3C521.3 327.7 528.9 324 538.5 324C561.3 324 575.9 345.6 579.4 350.8C589.8 366.1 584.3 370.8 593.6 392.3C605.3 419.4 616.7 417.8 627.2 443.2C632.3 455.6 640.8 476.1 631.4 495.7C621.7 515.9 599.6 521.8 596.8 522.5C591.7 523.8 578 527.2 564.3 519.9C563 519.2 545.8 509.8 544.4 493.7C543.9 487.8 545.6 482.3 546 481.1C548.1 474.6 551.7 470.4 552.8 469C557.1 463.7 562.3 453.9 565.9 434.4C567.6 434.3 570.4 433.9 573.2 432.3C579.1 428.9 581.9 422 581.6 416C581.5 414.6 581.1 406.6 575.3 403.9C572.9 402.8 570.4 403.1 569 403.4C550.4 384.6 531.7 366.1 513 347.5Z" fill="#5222D0"/>
<path d="M513 347.4C501.9 353.9 494.2 361.1 489.3 366.4C473 384.1 467.8 402.6 466.7 406.9C466 409.6 465.5 411.8 465.3 413.4C464.2 413 461.7 412.3 459.2 413.4C455.4 415.1 454.6 419.7 454.2 422C453.2 427.3 455.2 431.5 456 433.1C457.1 435.4 458.9 439.1 463.2 441C466.7 442.6 470 442 471.4 441.7C472.8 445.3 474.8 450.3 477.9 456C482.6 465 487 473.3 495.5 480.7C498.8 483.6 504.2 487.6 512 490.7C513.6 493.2 515.8 497.1 517 502.2C518 506.2 518.2 509.6 518.1 512.2C520.7 513.5 525.6 515.5 531.7 515.4C543.4 515.2 551.1 507.9 552.9 506.1C551 500.4 549.3 493.4 548.6 485.3C548.3 481.6 548.2 478.1 548.2 474.9C551.3 471.6 555.1 466.9 558.2 460.6C563.7 449.7 564.6 439.6 564.7 433.7C566.1 433.9 568.9 434.2 571.9 433C576.1 431.3 578 427.6 579.1 425.5C579.4 425 583.6 416.4 579.8 407.9C578.9 406 577.4 402.5 574.4 402.2C572.2 402 570.4 403.7 569.7 404.4C565.6 399.5 557.9 390.4 547.1 377.9C537.8 367 531.9 360.2 522 353.2C518.4 350.6 515.2 348.7 513 347.4Z" fill="white"/>
<path d="M499.2 453.5C498.2 455.8 502.9 459.9 505.1 461.6C509.7 465 514.6 465.5 516.4 465.6C518.5 465.8 525.4 466.3 531.7 461.8C533.2 460.7 537.4 457.8 539 452.4C540.1 448.5 539.8 443.1 537.7 442.2C536.1 441.6 534.6 443.6 531.2 446C525.2 450.1 519 451.1 513.7 451.9C504.7 453.3 500.2 451.5 499.2 453.5Z" fill="black"/>
<path d="M467.5 430.4C471.1 445.4 476.9 460.1 486.5 472.3C495 483.2 507.6 493.7 522.3 492.3C535.9 491 547 480.4 554.2 469.6C562.7 457 566.8 441.9 566.4 426.7C566.3 424.8 563.3 424.8 563.4 426.7C563.8 440.6 560.2 454.2 552.9 466C546 477.1 534.6 488.8 520.7 489.4C506 490 493.9 478 486.1 466.8C478.3 455.6 473.5 442.7 470.3 429.5C469.9 427.7 467 428.5 467.5 430.4Z" fill="#161616"/>
<path d="M510 490.9C514.2 497.3 516.3 504.3 516.3 512C516.3 513.9 519.3 513.9 519.3 512C519.3 503.9 517 496.2 512.6 489.4C511.6 487.7 509 489.2 510 490.9Z" fill="#161616"/>
<path d="M517.7 513.2C529.9 520.2 545.7 516.8 554 505.6C555.2 504.1 552.6 502.6 551.4 504.1C544 514 529.8 516.8 519.2 510.6C517.5 509.7 516 512.3 517.7 513.2Z" fill="#161616"/>
<path d="M546.5 477.5C546.6 486.6 548 495.6 550.9 504.3C551.5 506.1 554.4 505.3 553.8 503.5C551.1 495 549.6 486.4 549.5 477.5C549.5 475.5 546.5 475.5 546.5 477.5Z" fill="#161616"/>
<path d="M470.5 439.9C469.2 441.3 466 440.8 464.5 440C463.3 439.4 462.2 438.5 461.3 437.6C459.3 435.7 457.7 433.4 456.7 430.9C454.7 426.2 453.8 412.7 462.7 415.1C464.6 415.6 465.4 412.7 463.5 412.2C452.5 409.3 450.8 423.9 453.6 431.2C455.8 437.1 465.9 449.3 472.7 442C473.9 440.6 471.8 438.5 470.5 439.9Z" fill="#161616"/>
<path d="M571 404.9C572.2 400.9 577.4 408.6 578 410C579.2 413.2 579.6 416.7 579.1 420.1C578.3 426.9 572.9 433.4 565.4 431.5C563.5 431 562.7 433.9 564.6 434.4C576.7 437.5 583.2 424.9 582.1 414.6C581.6 410.1 579.8 404.3 575.5 401.9C572.7 400.4 569.1 400.8 568.1 404C567.5 406 570.4 406.7 571 404.9Z" fill="#161616"/>
<path d="M481.2 383.7C484.5 377.4 490.3 373.3 497.3 372.3C499.2 372 498.4 369.1 496.5 369.4C488.8 370.5 482.2 375.3 478.6 382.2C477.7 383.9 480.3 385.4 481.2 383.7Z" fill="#161616"/>
<path d="M527.4 368.3C535.8 366.3 544.2 370.5 548 378.1C548.9 379.8 551.4 378.3 550.6 376.6C546.2 367.7 536.2 363.1 526.6 365.4C524.7 365.9 525.5 368.8 527.4 368.3Z" fill="#161616"/>
<path d="M505.6 380.6C507.5 391.2 508 402.1 506.9 412.9C506.5 416.2 504.9 420.9 506.4 424.2C508 427.8 512.3 430.9 515 433.7C516.3 435.1 518.5 433 517.1 431.6C515.3 429.7 513.5 427.9 511.7 426C508.9 423.1 508.6 422.2 509.2 418C509.7 414.2 510.2 410.3 510.4 406.4C510.8 397.5 510.1 388.6 508.5 379.9C508.2 377.9 505.3 378.7 505.6 380.6Z" fill="#161616"/>
<path d="M493 406.3C491.5 403.9 490.8 401.3 491 398.5C491 397.9 491.4 395.3 491.9 395.2C492.2 395.2 492.7 398.7 492.8 399.1C493 400.4 493.1 401.8 493.1 403.1C493.1 403.5 493 406.8 493 404.8C492.9 401.9 493.1 399 493.2 396.1C492.2 396.2 491.2 396.4 490.3 396.5C490.8 399.6 491.1 402.7 491.1 405.9C492.1 405.9 493.1 405.9 494.1 405.9C494.1 405.5 494.1 405.1 494.1 404.7C494.1 402.8 491.1 402.8 491.1 404.7C491.1 405.1 491.1 405.5 491.1 405.9C491.1 407.8 494.1 407.8 494.1 405.9C494.1 402.5 493.8 399.1 493.2 395.7C492.9 394 490.3 394.5 490.3 396.1C490.2 399.3 489.8 402.8 490.2 406C490.4 407.5 491.1 408.9 492.8 409.2C497.8 410.2 496.3 400.4 495.9 398C495.6 396.1 495.3 393.2 493.5 392.1C492 391.2 490.4 392.1 489.5 393.5C487 397.7 488.4 403.9 490.7 407.7C491.4 409.4 494 407.9 493 406.3Z" fill="#161616"/>
<path d="M539.2 401C537.7 398.6 537 396 537.2 393.2C537.2 392.6 537.6 390 538.1 389.9C538.4 389.9 538.9 393.4 539 393.8C539.2 395.1 539.3 396.5 539.3 397.8C539.3 398.2 539.2 401.5 539.2 399.5C539.1 396.6 539.3 393.7 539.4 390.8C538.4 390.9 537.4 391.1 536.5 391.2C537 394.3 537.3 397.4 537.3 400.6C538.3 400.6 539.3 400.6 540.3 400.6C540.3 400.2 540.3 399.8 540.3 399.4C540.3 397.5 537.3 397.5 537.3 399.4C537.3 399.8 537.3 400.2 537.3 400.6C537.3 402.5 540.3 402.5 540.3 400.6C540.3 397.2 540 393.8 539.4 390.4C539.1 388.7 536.5 389.2 536.5 390.8C536.4 394 536 397.5 536.4 400.7C536.6 402.2 537.3 403.6 539 403.9C544 404.9 542.5 395.1 542.1 392.7C541.8 390.8 541.5 387.9 539.7 386.8C538.2 385.9 536.6 386.8 535.7 388.2C533.2 392.4 534.6 398.6 536.9 402.4C537.6 404.2 540.2 402.7 539.2 401Z" fill="#161616"/>
<path d="M478.2 415.5C480.1 415.5 480.1 412.5 478.2 412.5C476.3 412.5 476.3 415.5 478.2 415.5Z" fill="#161616"/>
<path d="M490 417.7C490.1 417.7 490.2 417.7 490.4 417.7C491.2 417.7 491.9 417 491.9 416.2C491.9 415.4 491.2 414.7 490.4 414.7C490.3 414.7 490.2 414.7 490 414.7C489.2 414.7 488.5 415.4 488.5 416.2C488.5 417 489.1 417.7 490 417.7Z" fill="#161616"/>
<path d="M483 426.9C484.9 426.9 484.9 423.9 483 423.9C481.1 423.9 481 426.9 483 426.9Z" fill="#161616"/>
<path d="M539.8 414C539.9 414 540 414 540.2 414C541 414 541.7 413.3 541.7 412.5C541.7 411.7 541 411 540.2 411C540.1 411 540 411 539.8 411C539 411 538.3 411.7 538.3 412.5C538.3 413.3 538.9 414 539.8 414Z" fill="#161616"/>
<path d="M550.8 406.6C552.7 406.6 552.7 403.6 550.8 403.6C548.9 403.6 548.9 406.6 550.8 406.6Z" fill="#161616"/>
<path d="M549.3 414.7C549.4 414.7 549.5 414.7 549.7 414.7C550.5 414.7 551.2 414 551.2 413.2C551.2 412.4 550.5 411.7 549.7 411.7C549.6 411.7 549.5 411.7 549.3 411.7C548.5 411.7 547.8 412.4 547.8 413.2C547.9 414 548.5 414.7 549.3 414.7Z" fill="#161616"/>
<path d="M501.7 455.8C500.1 453.5 497.5 450.2 498.6 447.2C499.9 443.8 504 444.3 506.7 444.7C510 445.2 512.7 445.8 515.9 444.8C518.5 444 520.8 442.3 523.2 441C528.9 437.8 535.6 437.5 537.4 445C542.5 465.5 506.3 471.3 500.7 453.3C500.1 451.5 497.2 452.2 497.8 454.1C504.7 476.2 547.5 468 540 443.5C538.7 439.4 535.6 435.9 531.2 435.4C524 434.7 519.3 441.9 512.4 442.4C507.3 442.8 501.1 438.9 497 443.7C493.3 448 496.3 453.5 499 457.3C500.2 458.9 502.8 457.4 501.7 455.8Z" fill="#161616"/>
<path d="M495.9 450.1C498.1 456.2 509.1 454.3 513.9 453.6C523.1 452.2 531.5 448.2 538.6 442.3C540.1 441.1 538 438.9 536.5 440.2C531.3 444.6 525.3 447.8 518.7 449.6C515.8 450.4 500.5 453.8 498.9 449.4C498.1 447.5 495.2 448.3 495.9 450.1Z" fill="#161616"/>
<path d="M513.7 494C525.4 497 541 489.6 547.6 479.9C548.7 478.3 546.1 476.8 545 478.4C539.2 486.9 524.7 493.7 514.5 491.1C512.6 490.6 511.8 493.5 513.7 494Z" fill="#161616"/>
<path d="M514.8 494.9C525.2 501.4 542.3 492.2 547.3 482.3C548.2 480.6 545.6 479.1 544.7 480.8C540.5 489.2 525.2 497.9 516.3 492.4C514.6 491.3 513.1 493.9 514.8 494.9Z" fill="#161616"/>
<path opacity="0.2" d="M556.3 388.9C557 392.5 557.9 398.2 558.5 405.1C559.9 423.5 562.3 454.3 543.7 474.8C539.7 479.2 531.2 487 515.5 491.4C520.5 491.2 526.6 490.6 533.2 488.9C536.5 488.1 539.5 487.1 542.2 486C542.6 494.9 542.9 503.8 543.3 512.7C546.7 510.5 550 508.4 553.4 506.2C548.8 496 548.8 488.1 549.4 483.1C550.3 476.1 552.9 470.4 555.5 464.7C557.8 459.7 560.2 455.7 562.1 452.9C562.3 455 562.8 457.2 564.2 459.3C570.3 468.4 589.4 469.3 601.4 461.5C612.5 454.3 617.9 439.7 615.1 424.7C617 426.3 619 428.2 620.9 430.5C622.4 432.3 626.3 437.5 631.7 455.8C633.4 461.5 634.2 464.4 634.7 467.3C635.3 471.3 636.4 478.9 634.3 487.5C630.7 502.3 620 510.8 616.8 513.2C614.5 514.9 607.5 520 597 522.4C592 523.5 577 527.1 562.9 518.9C557.6 515.8 554.7 513.5 553.1 510.7C551.4 507.6 551.2 504.7 551 502.5C550.1 488.8 549.7 481.9 550.6 477.2C553.3 463.6 559.4 462.2 562.8 446.7C564 441.1 564.3 436.4 564.4 433.4C565.7 433.6 567.7 433.8 570.1 433.2C575.1 431.9 577.6 427.8 578.5 426.3C582.1 420.6 583.7 410.4 578.1 405.7C577.3 405 574.5 402.9 569.1 403.3C565 398.5 560.7 393.7 556.3 388.9Z" fill="#3F3F3F"/>
<path opacity="0.13" d="M508.9 421.3C514 422.8 519.2 424.4 524.3 425.9C523 427.1 521.7 428.2 520.3 429.4C519 430.5 517.8 431.4 516.5 432.4C514.9 431.2 512.6 429.1 510.8 425.9C509.8 424.2 509.2 422.6 508.9 421.3Z" fill="#3F3F3F"/>
<path opacity="0.16" d="M428.7 433.8C417.8 472.3 425.9 503.4 442.2 510.2C455 515.5 478.1 508 482.4 494.9C483 493.2 483.6 490.2 481.3 481C479.3 472.9 475.2 460.7 466 446.8C464.4 445.8 462.3 444.2 460.3 441.8C456.8 437.5 455.8 432.9 455.5 430.7C458.4 433.7 462.6 437.5 465.3 436.3C467.9 435.1 469.5 431.5 468.6 427.9C469.5 432.5 470.9 438.8 473.5 446.1C476.9 455.8 480.3 465.2 488.2 474.1C491.8 478.2 498.9 484.9 510.9 489.7C512.9 492.2 516.6 497.6 517.8 505.5C518 506.7 518.7 512.2 516.9 519.1C516.5 520.7 514.1 529.4 506.2 536.9C497 545.7 486 547.3 482.4 547.8C455.3 551.4 434.3 527.7 430.6 523.6C426.9 519.4 420.8 512.4 417.3 501.6C411.7 484.4 416 468.9 419.1 457.6C422 447 425.9 439 428.7 433.8Z" fill="#3F3F3F"/>
</svg>
