<svg width="1160" height="951" viewBox="0 0 1160 951" fill="none" xmlns="http://www.w3.org/2000/svg">
<path d="M81.1999 704.5C85.9999 733.4 91.7999 762 98.6999 790.5C99.1999 792.4 102 791.6 101.6 789.7C94.6999 761.3 88.7999 732.6 84.0999 703.7C83.6999 701.8 80.7999 702.6 81.1999 704.5Z" fill="#E8E8E8"/>
<path d="M178.1 708.5C172.7 734.1 168.1 760 164.4 785.9C164.1 787.8 167 788.6 167.3 786.7C171 760.7 175.6 734.9 181 709.3C181.4 707.4 178.5 706.6 178.1 708.5Z" fill="#E8E8E8"/>
<path d="M99.3001 791.5C121.1 801.3 146.8 802.2 166.7 787.4C168.2 786.3 166.7 783.7 165.2 784.8C146.3 798.9 121.7 798.3 100.9 788.9C99.1001 788.1 97.5001 790.7 99.3001 791.5Z" fill="#E8E8E8"/>
<path d="M82.0999 704.2C89.4999 707.6 97.1999 708.3 105.2 708.8C114.2 709.3 123.2 709.6 132.2 709.7C148.8 710 166 710.8 181.7 704.3C183.5 703.6 182.7 700.7 180.9 701.4C166.1 707.6 149.9 707 134.2 706.8C125.8 706.7 117.5 706.4 109.1 706C100.4 705.6 91.5999 705.4 83.5999 701.7C81.7999 700.8 80.2999 703.4 82.0999 704.2Z" fill="#E8E8E8"/>
<path d="M178.8 703.3C172.9 730.9 167.7 758.7 163.4 786.6C163.1 788.5 166 789.3 166.3 787.4C170.6 759.5 175.7 731.7 181.7 704.1C182.1 702.2 179.2 701.4 178.8 703.3Z" fill="#E8E8E8"/>
<path d="M90.4999 751.1C97.0999 766.7 105.5 781.5 115.6 795.1C116.7 796.6 119.3 795.1 118.2 793.6C108.1 779.9 99.6999 765.2 93.0999 749.6C92.2999 747.8 89.7999 749.4 90.4999 751.1Z" fill="#E8E8E8"/>
<path d="M83.2001 706.7C96.7001 738.6 114 768.7 134.8 796.4C135.9 797.9 138.6 796.4 137.4 794.9C116.6 767.2 99.3001 737.1 85.8001 705.2C85.1001 703.4 82.5001 704.9 83.2001 706.7Z" fill="#E8E8E8"/>
<path d="M106.3 708C118.2 737.7 133.4 765.8 151.8 791.9C152.9 793.5 155.5 792 154.4 790.4C136.1 764.5 120.9 736.6 109.2 707.2C108.5 705.5 105.6 706.2 106.3 708Z" fill="#E8E8E8"/>
<path d="M125.8 708.6C136.3 733.6 149.1 757.6 164 780.3C165.1 781.9 167.7 780.4 166.6 778.8C151.8 756.3 139.1 732.6 128.7 707.8C128 706.1 125.1 706.9 125.8 708.6Z" fill="#E8E8E8"/>
<path d="M144.2 710.8C150.6 726.7 158.4 741.9 167.6 756.4C168.6 758 171.2 756.5 170.2 754.9C161.1 740.7 153.4 725.7 147.1 710.1C146.4 708.2 143.5 709 144.2 710.8Z" fill="#E8E8E8"/>
<path d="M159.6 709.4C163.3 718.1 167.5 726.5 172.3 734.6C173.3 736.3 175.9 734.8 174.9 733.1C170.1 725 165.9 716.6 162.2 707.9C161.5 706.1 158.9 707.6 159.6 709.4Z" fill="#E8E8E8"/>
<path d="M171.8 707C173.2 710.3 174.8 713.5 176.8 716.5C177.9 718.1 180.5 716.6 179.4 715C177.6 712.2 176 709.3 174.7 706.2C173.9 704.4 171 705.2 171.8 707Z" fill="#E8E8E8"/>
<path d="M122.8 706.1C121.3 696.2 120.9 686.2 121.4 676.1C120.8 676.6 120.1 677.1 119.5 677.5C121.6 678.3 125.5 680.7 127.8 679.6C129.8 678.6 129.4 675.6 129.5 673.7C129.9 668.2 130.5 663.3 133.4 658.5C135.9 654.4 139.2 650.8 142.2 647C154.2 632 165.2 616.2 175.3 599.8C174.4 599.8 173.6 599.8 172.7 599.8C177.7 608.5 179.4 620.1 180.5 630C181.6 639.8 181.2 649.7 178.5 659.2C176 668 171.9 676.2 167 683.9C162.1 691.4 156.3 699.8 149.2 705.4C147.7 706.6 149.8 708.7 151.3 707.5C158.8 701.6 165 692.7 170.1 684.7C175.3 676.6 179.5 667.8 181.9 658.5C184.5 648.6 184.7 638.3 183.4 628.2C182.1 618.3 180.4 607.1 175.4 598.4C174.8 597.4 173.4 597.5 172.8 598.4C163.2 614 152.8 629.1 141.4 643.5C136.9 649.2 131.2 654.8 128.6 661.7C127.4 664.8 127 668 126.8 671.3C126.7 672.2 127.1 676.3 126.3 676.8C125.7 677.2 121.2 675 120.4 674.7C119.4 674.4 118.6 675.2 118.5 676.1C117.9 686.4 118.5 696.6 120 706.8C120.2 708.8 123.1 708 122.8 706.1Z" fill="#E8E8E8"/>
<path d="M61.5 608.8C64.4 627 68.9 645 75 662.4C80.5 678 86.9 692.7 98 705.1C99.3 706.5 101.4 704.4 100.1 703C88.5 690.1 82.1 674.3 76.6 658C71.1 641.7 67 624.9 64.3 607.9C64.1 606.1 61.2 606.9 61.5 608.8Z" fill="#E8E8E8"/>
<path d="M61.7999 606.9C67.6999 612.4 74.9999 615.4 82.8999 616.5C85.7999 616.9 94.6999 615.9 95.8999 618.9C96.4999 620.4 95.2999 624.5 95.0999 626.2C94.7999 629.2 94.4999 632.3 94.0999 635.3C93.9999 636.4 95.0999 636.9 95.9999 636.7C99.4999 636.2 103 635.7 106.5 635.2C111.1 634.6 113.2 637.8 116.4 640.7C121.9 645.8 127.3 651 132.8 656.1C134.2 657.4 136.3 655.3 134.9 654C127.9 647.4 121.1 639.9 113.5 633.9C108.6 630 101 633 95.1999 633.8C95.7999 634.3 96.4999 634.8 97.0999 635.2C97.6999 629.8 99.4999 623.2 98.8999 617.8C98.5999 615.2 96.7999 614.4 94.3999 614.2C83.0999 613.3 72.6999 613.1 63.7999 604.8C62.4999 603.4 60.2999 605.5 61.7999 606.9Z" fill="#E8E8E8"/>
<path d="M62 605.3C63.7 642.3 80.6 675.8 99.3 707C100.3 708.7 102.9 707.1 101.9 705.5C83.5 674.7 66.7 641.8 65 605.3C64.9 603.3 61.9 603.3 62 605.3Z" fill="#E8E8E8"/>
<path d="M83.3999 703.4C88.0999 703.6 92.6999 703.5 97.3999 703C99.2999 702.8 99.2999 699.8 97.3999 700C92.6999 700.5 88.0999 700.6 83.3999 700.4C81.3999 700.3 81.3999 703.3 83.3999 703.4Z" fill="#E8E8E8"/>
<path d="M87 704.7C91 704.6 94.9 705.3 98.6 706.8C100.4 707.5 101.9 705 100.1 704.2C95.9 702.4 91.6 701.5 87 701.6C85.1 701.8 85.1 704.8 87 704.7Z" fill="#E8E8E8"/>
<path d="M149.4 708.8C159.3 704.7 169.6 703.1 180.3 704.2C182.2 704.4 182.2 701.4 180.3 701.2C169.4 700.2 158.7 701.7 148.6 706C146.9 706.6 147.6 709.5 149.4 708.8Z" fill="#E8E8E8"/>
<path d="M156 707.6C162.2 705.1 169 706.3 175.4 705.2C177.3 704.9 176.5 702 174.6 702.3C168.1 703.4 161.4 702.1 155.2 704.7C153.5 705.5 154.3 708.4 156 707.6Z" fill="#E8E8E8"/>
<path d="M156.8 703.4C164.4 704.2 172 704.3 179.7 703.7C181.6 703.6 181.6 700.6 179.7 700.7C172 701.2 164.4 701.1 156.8 700.4C154.9 700.2 154.9 703.2 156.8 703.4Z" fill="#E8E8E8"/>
<path d="M173.8 607.2C166.5 643.3 138.1 670.7 130.4 706.7C130.1 708.1 132.3 708.7 132.6 707.3C140.3 671.3 168.7 643.9 176 607.8C176.3 606.4 174.1 605.8 173.8 607.2Z" fill="#E8E8E8"/>
<path d="M61.2999 604.8C63.7999 629.2 70.6999 652.7 81.8999 674.5C82.5999 675.8 84.4999 674.7 83.7999 673.4C72.8999 652 65.9999 628.8 63.5999 604.8C63.3999 603.4 61.0999 603.3 61.2999 604.8Z" fill="#E8E8E8"/>
<path d="M63.1999 605.5C71.0999 611.7 80.0999 615.7 90.0999 617.2C91.4999 617.4 92.0999 615.2 90.6999 615C81.1999 613.6 72.3999 609.9 64.7999 603.9C63.5999 603 61.9999 604.6 63.1999 605.5Z" fill="#E8E8E8"/>
<path d="M139.1 648.9C141.8 657.7 143 666.6 142.6 675.7C142.5 677.1 144.8 677.1 144.9 675.7C145.2 666.3 144 657.2 141.3 648.3C140.9 646.9 138.7 647.5 139.1 648.9Z" fill="#E8E8E8"/>
<path d="M172.9 602.1C174.1 606.1 173.8 610.2 171.9 614C171.2 615.3 173.2 616.4 173.8 615.1C176 610.8 176.4 606.1 175 601.5C174.7 600.1 172.5 600.7 172.9 602.1Z" fill="#E8E8E8"/>
<path d="M154.6 656.4C164.7 648.7 174.8 641 182.8 630.9C183.7 629.8 182.1 628.2 181.2 629.3C173.4 639.2 163.5 646.9 153.5 654.4C152.4 655.3 153.5 657.3 154.6 656.4Z" fill="#E8E8E8"/>
<path d="M63.8 609.4C72.2 624.5 81.4 639 91.5 653C101 666.2 113.1 678.5 118.3 694.1C118.8 695.5 120.9 694.9 120.5 693.5C115.3 678.2 103.9 666.2 94.5 653.3C84 638.9 74.4 623.8 65.7 608.2C65.1 607 63.1 608.2 63.8 609.4Z" fill="#E8E8E8"/>
<path d="M85.1 615.7C84.5 625.9 85.4 636 87.7 645.9C88 647.3 90.2 646.7 89.9 645.3C87.6 635.5 86.8 625.7 87.4 615.7C87.5 614.2 85.2 614.2 85.1 615.7Z" fill="#E8E8E8"/>
<path d="M115.4 641C112.4 652.5 110.6 664.1 109.9 675.9C109.8 677.3 112.1 677.3 112.2 675.9C112.9 664.3 114.7 652.8 117.6 641.6C118 640.2 115.8 639.6 115.4 641Z" fill="#E8E8E8"/>
<path d="M85.8 682.6C89.7 685.3 96 685.9 100.6 686.5C105.5 687.2 110.2 687.1 114.9 686C116.3 685.7 115.7 683.5 114.3 683.8C109.2 684.9 104.4 684.8 99.3 684C95.5 683.4 90 682.8 86.9 680.6C85.7 679.9 84.6 681.8 85.8 682.6Z" fill="#E8E8E8"/>
<path d="M993.9 786.2C1048.7 786.2 1103.4 786.2 1158.2 786.2C1159.6 786.2 1159.7 783.9 1158.2 783.9C1103.4 783.9 1048.7 783.9 993.9 783.9C992.4 783.9 992.4 786.2 993.9 786.2Z" fill="#E8E8E8"/>
<path d="M1038.3 783C1035.4 783.9 1029.4 753.5 1029.1 750.7C1027.8 739.7 1028.1 728.5 1029.9 717.5C1029.2 717.5 1028.5 717.5 1027.7 717.5C1029.7 723.1 1033 727.4 1037.8 730.9C1039 731.7 1040.1 729.8 1038.9 729C1034.6 725.9 1031.6 721.9 1029.8 717C1029.5 716.1 1027.8 715.8 1027.6 717C1025.4 730.3 1025.4 743.9 1027.7 757.2C1028.9 764.2 1030.7 771 1033.2 777.7C1034 779.9 1035.3 786.5 1038.9 785.3C1040.3 784.7 1039.7 782.5 1038.3 783Z" fill="#E8E8E8"/>
<path d="M1039.5 728.6C1037.2 717.1 1041 706 1045.8 695.6C1050.1 686.3 1055 677.4 1060 668.5C1069.7 651.2 1079.7 633.9 1086.8 615.3C1086.1 615.3 1085.4 615.3 1084.6 615.3C1090.4 632.6 1094.2 650.4 1095.7 668.6C1096.4 677.5 1096.5 686.5 1096.3 695.4C1096.2 699.8 1096.6 704.7 1095.7 709C1094.7 714.1 1090.8 716.8 1086.7 719.4C1085.9 719.9 1086 720.8 1086.7 721.3C1088 722.3 1089.1 722.5 1090.8 722.6C1091.7 722.6 1092.9 722.3 1093.8 722.5C1098.3 723.6 1097.6 727.1 1097.3 729.9C1096.6 736.6 1095.3 743.3 1093.5 749.8C1089.9 762.4 1084.3 774.3 1076.9 785.1C1076.1 786.3 1078 787.4 1078.8 786.2C1087.6 773.3 1093.9 758.9 1097.3 743.7C1098.1 740.3 1098.7 736.8 1099.1 733.3C1099.5 730.4 1100.4 726.8 1099.4 723.9C1097.3 718 1091.6 722.3 1087.8 719.4C1087.8 720 1087.8 720.7 1087.8 721.3C1093.5 717.6 1097.7 713.9 1098.1 706.8C1098.7 695.9 1098.8 684.9 1098.2 674.1C1097.1 653.8 1093.2 633.8 1086.7 614.6C1086.3 613.5 1084.9 613.6 1084.5 614.6C1076.7 635.3 1065.1 654.3 1054.4 673.6C1045.3 690.1 1033.3 709.4 1037.2 729.1C1037.6 730.6 1039.8 730 1039.5 728.6Z" fill="#E8E8E8"/>
<path d="M1099.1 678C1101.8 672.7 1104.5 667.4 1107.2 662C1108.5 659.5 1109.8 657 1111 654.4C1111.6 653.3 1112.1 652.2 1112.7 651C1113.1 650.2 1113.5 649.4 1113.9 648.7C1114.7 646.8 1116.4 646.3 1119.1 647.1C1119.1 648 1120.4 648.7 1121 647.9C1134.4 632.2 1145.9 615.1 1155.5 596.8C1154.8 596.6 1154.1 596.4 1153.4 596.2C1153.1 610.4 1152.9 624.7 1153.6 638.9C1153.9 645.4 1154.5 652 1155.4 658.5C1155.8 661.5 1157 665 1156.9 668.1C1157.7 670 1157.2 671.6 1155.3 672.8C1154.7 674.8 1153.4 676 1151.5 676.3C1149.8 677.1 1147.7 677.5 1145.9 677.9C1144.8 678.2 1144.8 679.8 1145.9 680.1C1154.9 682.4 1151.8 693.8 1150.5 700.2C1149.8 703.7 1149.6 707.6 1145.1 707.9C1143.3 708 1142.2 707.4 1140.4 707.9C1139.6 708.1 1139.4 708.9 1139.7 709.6C1140.5 711.5 1141.8 711.5 1143.1 712.8C1146.4 716 1144 722.8 1143.1 726.5C1141.5 733.4 1139.4 740.1 1136.8 746.7C1131.6 760.1 1124.5 772.5 1115.8 783.9C1114.9 785.1 1116.9 786.2 1117.7 785C1127.2 772.5 1134.8 758.8 1140.1 744C1142.8 736.6 1144.9 728.9 1146.4 721.2C1146.8 719 1148 715.6 1147 713.4C1145.9 710.9 1142.6 710.8 1141.5 708.3C1141.3 708.9 1141.1 709.4 1140.8 710C1143.8 709.2 1147.7 711.8 1150.2 709.1C1152.8 706.4 1152.7 699.7 1153.4 696.2C1154.7 689.2 1154.7 680 1146.3 677.9C1146.3 678.6 1146.3 679.3 1146.3 680.1C1150.6 678.9 1159.1 678 1159.6 672.3C1159.8 669.5 1158.7 666.4 1158.2 663.7C1157.4 658.7 1156.8 653.7 1156.3 648.6C1154.8 631.2 1155.1 613.7 1155.4 596.2C1155.4 595.1 1153.8 594.6 1153.3 595.6C1143.9 613.7 1132.4 630.7 1119.2 646.2C1119.8 646.5 1120.5 646.7 1121.1 647C1120.9 640.9 1114.2 643.3 1112 646.8C1106.1 656.1 1101.8 666.9 1096.8 676.7C1096.5 678.1 1098.4 679.3 1099.1 678Z" fill="#E8E8E8"/>
<path d="M1152 600.4C1141.7 664.8 1110.5 723 1090.4 784.6C1090 786 1092.1 786.6 1092.6 785.2C1112.6 723.7 1143.9 665.5 1154.2 601C1154.4 599.6 1152.3 599 1152 600.4Z" fill="#E8E8E8"/>
<path d="M1108.1 655C1109 676.6 1111.2 698.1 1114.4 719.5C1114.6 720.9 1116.8 720.3 1116.6 718.9C1113.4 697.7 1111.3 676.4 1110.4 655C1110.3 653.5 1108 653.5 1108.1 655Z" fill="#E8E8E8"/>
<path d="M1131.6 682.3C1138.7 671.1 1148.7 662.3 1157 652.1C1157.9 651 1156.3 649.4 1155.4 650.5C1147 660.9 1136.9 669.8 1129.7 681.2C1128.8 682.4 1130.8 683.5 1131.6 682.3Z" fill="#E8E8E8"/>
<path d="M1083.8 619.1C1083.1 675.6 1053.3 727.9 1057.1 784.8C1057.2 786.2 1059.4 786.2 1059.4 784.8C1055.6 727.9 1085.4 675.6 1086.1 619.1C1086.1 617.6 1083.8 617.6 1083.8 619.1Z" fill="#E8E8E8"/>
<path d="M1045.5 691.5C1048.6 708.4 1053.4 724.9 1059.8 740.8C1060.3 742.1 1062.5 741.5 1062 740.2C1055.6 724.3 1050.8 707.8 1047.7 690.9C1047.4 689.4 1045.3 690 1045.5 691.5Z" fill="#E8E8E8"/>
<path d="M1069.9 704.5C1079.8 693.2 1091.3 681.2 1097.5 667.4C1098.1 666.1 1096.2 664.9 1095.6 666.3C1089.4 679.9 1078.1 691.8 1068.3 702.9C1067.4 704 1069 705.6 1069.9 704.5Z" fill="#E8E8E8"/>
<path d="M1070 646.5C1071.5 655.5 1073.6 664.4 1076 673.2C1076.4 674.6 1078.6 674 1078.2 672.6C1075.7 663.8 1073.7 654.9 1072.2 645.9C1071.9 644.5 1069.8 645.1 1070 646.5Z" fill="#E8E8E8"/>
<path d="M1096.1 774.5C1104.9 768.9 1113.9 763.5 1122.5 757.5C1129.4 752.7 1137.1 747.5 1141.4 740.2C1142.1 738.9 1140.2 737.8 1139.5 739.1C1134.9 747 1125.9 752.6 1118.5 757.6C1110.8 762.8 1102.9 767.6 1095.1 772.6C1093.7 773.3 1094.9 775.3 1096.1 774.5Z" fill="#E8E8E8"/>
<path d="M55.2 791.2C72.7 791.2 90.2 791.2 107.7 791.2C109.1 791.2 109.2 788.9 107.7 788.9C90.2 788.9 72.7 788.9 55.2 788.9C53.7 789 53.7 791.2 55.2 791.2Z" fill="#E8E8E8"/>
<path d="M163.9 792C177.5 792 191 792 204.6 792C206 792 206.1 789.7 204.6 789.7C191 789.7 177.5 789.7 163.9 789.7C162.5 789.7 162.5 792 163.9 792Z" fill="#E8E8E8"/>
<path d="M575.5 131.8C575.5 202.1 575.5 272.4 575.5 342.7C575.5 362.6 575.5 382.5 575.5 402.4C575.5 403.8 577.8 403.9 577.8 402.4C577.8 332.1 577.8 261.8 577.8 191.5C577.8 171.6 577.8 151.7 577.8 131.8C577.7 130.4 575.5 130.4 575.5 131.8Z" fill="#E8E8E8"/>
<path d="M576.8 132.9C650.9 132.9 725 132.9 799.2 132.9C820.1 132.9 841.1 132.9 862 132.9C863.4 132.9 863.5 130.6 862 130.6C787.9 130.6 713.8 130.6 639.6 130.6C618.7 130.6 597.7 130.6 576.8 130.6C575.4 130.7 575.4 132.9 576.8 132.9Z" fill="#E8E8E8"/>
<path d="M577.5 405.2C650.6 405.2 723.7 405.2 796.8 405.2C817.4 405.2 838 405.2 858.6 405.2C860 405.2 860.1 402.9 858.6 402.9C785.5 402.9 712.4 402.9 639.3 402.9C618.7 402.9 598.1 402.9 577.5 402.9C576.1 403 576.1 405.2 577.5 405.2Z" fill="#E8E8E8"/>
<path d="M860.9 132.5C860.9 202.4 860.9 272.3 860.9 342.1C860.9 362.1 860.9 382 860.9 402C860.9 403.4 863.2 403.5 863.2 402C863.2 332.1 863.2 262.2 863.2 192.4C863.2 172.4 863.2 152.5 863.2 132.5C863.2 131.1 860.9 131 860.9 132.5Z" fill="#E8E8E8"/>
<path d="M858.1 405.2C859.8 405.3 861.6 404.6 862.7 403.3C863.6 402.2 862.1 400.6 861.1 401.7C860.3 402.6 859.3 403 858.1 402.9C856.7 402.9 856.7 405.1 858.1 405.2Z" fill="#E8E8E8"/>
<path d="M576.4 288.5C649.8 288.5 723.2 288.5 796.6 288.5C817.5 288.5 838.5 288.5 859.4 288.5C860.8 288.5 860.9 286.2 859.4 286.2C786 286.2 712.6 286.2 639.2 286.2C618.3 286.2 597.3 286.2 576.4 286.2C575 286.3 575 288.5 576.4 288.5Z" fill="#E8E8E8"/>
<path d="M591.2 259.4C673.6 259.4 756 259.4 838.3 259.4C839.7 259.4 839.8 257.1 838.3 257.1C755.9 257.1 673.5 257.1 591.2 257.1C589.7 257.2 589.7 259.4 591.2 259.4Z" fill="#E8E8E8"/>
<path d="M590.6 227.1C670.5 227.1 750.4 227.1 830.3 227.1C831.7 227.1 831.8 224.8 830.3 224.8C750.4 224.8 670.5 224.8 590.6 224.8C589.2 224.8 589.2 227.1 590.6 227.1Z" fill="#E8E8E8"/>
<path d="M605.5 191.5C675.7 191.5 745.9 191.5 816 191.5C817.4 191.5 817.5 189.2 816 189.2C745.8 189.2 675.6 189.2 605.5 189.2C604 189.3 604 191.5 605.5 191.5Z" fill="#E8E8E8"/>
<path d="M627.2 152.8C691.5 152.8 755.9 152.8 820.2 152.8C821.6 152.8 821.7 150.5 820.2 150.5C755.9 150.5 691.5 150.5 627.2 150.5C625.8 150.6 625.8 152.8 627.2 152.8Z" fill="#E8E8E8"/>
<path d="M582.1 288.5C582.1 323.7 582.1 358.9 582.1 394C582.1 395.4 584.4 395.5 584.4 394C584.4 358.8 584.4 323.6 584.4 288.5C584.3 287.1 582.1 287.1 582.1 288.5Z" fill="#E8E8E8"/>
<path d="M583.2 396.3C653 396.3 722.9 396.3 792.7 396.3C812.7 396.3 832.6 396.3 852.6 396.3C854 396.3 854.1 394 852.6 394C782.8 394 712.9 394 643.1 394C623.1 394 603.2 394 583.2 394C581.8 394 581.8 396.3 583.2 396.3Z" fill="#E8E8E8"/>
<path d="M853.1 290.6C853.1 325.1 853.1 359.5 853.1 394C853.1 395.4 855.4 395.5 855.4 394C855.4 359.5 855.4 325.1 855.4 290.6C855.3 289.2 853.1 289.2 853.1 290.6Z" fill="#E8E8E8"/>
<path d="M584.5 355.3C584.1 348.3 590.7 343.9 597 347.5C597.5 347.8 598.2 347.6 598.5 347.1C600.2 344.1 600 341.3 600.4 338C600.8 335.1 601.8 332.4 605.1 332C606.7 331.8 608.3 332.6 609.9 332.3C612.2 331.8 613.1 330.4 614.2 328.4C616.2 324.5 617.4 321 621 318.2C629.9 311 639.9 318.4 643.1 327.6C646.1 336.4 643.9 346.4 643.8 355.5C643.8 356.3 644.5 356.7 645.2 356.6C659.4 353.7 666.9 372.4 654.5 380.1C653.7 380.6 653.8 381.9 654.8 382.2C659.9 383.8 666.7 388.3 662.7 394.6C661.9 395.8 663.9 397 664.6 395.7C669.4 388.2 662 382.1 655.4 380C655.5 380.7 655.6 381.4 655.7 382.1C661.9 378.2 665.1 370.4 662.3 363.4C659.5 356.4 651.7 353 644.6 354.5C645.1 354.9 645.5 355.2 646 355.6C646.1 345.3 648.8 333.9 644 324.2C640.8 317.6 634.1 311.9 626.3 313.3C622.8 313.9 619.7 316 617.3 318.6C614.3 321.8 612.6 329.7 608.1 330.3C604.5 330.8 602.2 329.2 599.8 332.8C597.1 336.8 598.8 342 596.5 346.2C597 346.1 597.5 345.9 598 345.8C590.4 341.5 581.6 346.7 582.1 355.6C582.3 356.8 584.6 356.8 584.5 355.3Z" fill="#E8E8E8"/>
<path d="M709.4 287.5C709.4 323.2 709.4 358.9 709.4 394.6C709.4 396 711.7 396.1 711.7 394.6C711.7 358.9 711.7 323.2 711.7 287.5C711.6 286 709.4 286 709.4 287.5Z" fill="#E8E8E8"/>
<path d="M716.3 288C716.3 323.5 716.3 359.1 716.3 394.6C716.3 396 718.6 396.1 718.6 394.6C718.6 359.1 718.6 323.5 718.6 288C718.5 286.6 716.3 286.5 716.3 288Z" fill="#E8E8E8"/>
<path d="M784.4 394.1C782.3 392.4 779.9 390.4 779.2 387.6C777.9 382.1 781.7 381.4 784.8 379.4C786.6 378.2 788.4 376.8 788.8 374.6C789.3 372.1 787.6 370.2 786.5 368.1C783.9 362.8 783.2 355.7 788.2 351.4C792.7 347.5 803.2 352 805.7 345.1C806.4 343 805.5 341.5 804.7 339.7C802.5 334.5 800.9 329.4 801.4 323.7C801.7 319.6 802.3 317.8 807 317.2C809 316.9 808.5 317.7 810.2 316.5C810.7 316.1 811 315.4 811.4 315C814 312.4 815.1 309.8 819.3 309.7C830.4 309.5 830.3 324.4 830.8 331.9C831.1 335.7 831.5 345.4 837 345.8C839.3 346 839.8 344.2 840.8 342.6C843.8 338.1 847.2 335.3 852.9 335.7C854.3 335.8 854.3 333.6 852.9 333.4C848 333 843.1 335 840.2 339.1C840.3 339 839 341.4 838.9 341.4C837.7 341.8 834.6 339.7 834.1 338.9C833 337 833.2 333.9 833 331.8C832.8 328.5 832.8 325.1 832.3 321.8C831.5 316.7 829.2 311.1 824.4 308.6C820.2 306.4 814.9 307.3 811.6 310.7C810.8 311.6 810.3 313.1 809.4 313.8C808 314.8 805.7 314.1 804.1 314.6C802.2 315.2 801.1 316.4 800.2 318.2C797.6 323.6 798.8 331.2 800.8 336.6C801.2 337.8 802.4 339.5 802.6 340.8C802.4 341.7 802.2 342.6 802 343.5C802.3 346.3 801 347.4 798 347C797.2 347.1 796.4 347 795.7 347C792.8 347 790.2 347.2 787.7 348.9C783.3 351.9 781.5 357.4 782.2 362.5C782.7 366.2 784.7 368.5 785.8 371.9C787.6 377.3 781.1 378 778.3 381.2C773.8 386.3 778.3 392.5 782.5 396C783.9 396.6 785.5 395 784.4 394.1Z" fill="#E8E8E8"/>
<path d="M178.5 281.8C178.5 278.4 178.5 275.1 178.5 271.7C178.5 270.3 176.2 270.2 176.2 271.7C176.2 275.1 176.2 278.4 176.2 281.8C176.2 283.3 178.5 283.3 178.5 281.8Z" fill="#E8E8E8"/>
<path d="M177.3 271.8C230 271.8 282.7 271.8 335.4 271.8C336.8 271.8 336.9 269.5 335.4 269.5C282.7 269.5 230 269.5 177.3 269.5C175.9 269.5 175.9 271.8 177.3 271.8Z" fill="#E8E8E8"/>
<path d="M180.7 283.5C232.3 283.5 283.9 283.5 335.5 283.5C336.9 283.5 337 281.2 335.5 281.2C283.9 281.2 232.3 281.2 180.7 281.2C179.2 281.2 179.2 283.5 180.7 283.5Z" fill="#E8E8E8"/>
<path d="M335.4 271.2C335.4 274.7 335.4 278.3 335.4 281.8C335.4 283.2 337.7 283.3 337.7 281.8C337.7 278.3 337.7 274.7 337.7 271.2C337.7 269.7 335.4 269.7 335.4 271.2Z" fill="#E8E8E8"/>
<path d="M189.2 270.3C189.2 230.2 189.2 190.1 189.2 150C189.2 148.6 186.9 148.5 186.9 150C186.9 190.1 186.9 230.2 186.9 270.3C186.9 271.8 189.2 271.8 189.2 270.3Z" fill="#E8E8E8"/>
<path d="M188.9 151.2C196.9 151.2 204.8 151.2 212.8 151.2C214.2 151.2 214.3 148.9 212.8 148.9C204.8 148.9 196.9 148.9 188.9 148.9C187.5 148.9 187.5 151.2 188.9 151.2Z" fill="#E8E8E8"/>
<path d="M210.8 151.7C210.8 191.1 210.8 230.5 210.8 269.9C210.8 271.3 213.1 271.4 213.1 269.9C213.1 230.5 213.1 191.1 213.1 151.7C213.1 150.3 210.8 150.3 210.8 151.7Z" fill="#E8E8E8"/>
<path d="M212.4 173.4C221.3 173.4 230.3 173.4 239.2 173.4C240.6 173.4 240.7 171.1 239.2 171.1C230.3 171.1 221.3 171.1 212.4 171.1C210.9 171.1 210.9 173.4 212.4 173.4Z" fill="#E8E8E8"/>
<path d="M237.2 172.7C237.2 204.4 237.2 236.1 237.2 267.8C237.2 269.2 239.5 269.3 239.5 267.8C239.5 236.1 239.5 204.4 239.5 172.7C239.5 171.2 237.2 171.2 237.2 172.7Z" fill="#E8E8E8"/>
<path d="M195.6 164.2C196.1 167.6 196.2 171 195.8 174.4C195.6 175.8 197.9 175.8 198.1 174.4C198.5 170.8 198.4 167.2 197.8 163.6C197.6 162.2 195.4 162.8 195.6 164.2Z" fill="#E8E8E8"/>
<path d="M200.3 163.8C201 167.3 201.2 170.8 201.2 174.4C201.2 175.8 203.4 175.8 203.5 174.4C203.6 170.6 203.2 166.9 202.5 163.2C202.2 161.8 200.1 162.4 200.3 163.8Z" fill="#E8E8E8"/>
<path d="M219.2 190.3C223.3 190.9 227.5 191.5 231.7 191.8C233.1 191.9 233.1 189.7 231.7 189.5C227.7 189.2 223.8 188.7 219.8 188.1C218.4 187.9 217.7 190 219.2 190.3Z" fill="#E8E8E8"/>
<path d="M223.3 197.3C226.1 197.1 228.9 196.9 231.7 196.8C233.1 196.7 233.1 194.5 231.7 194.5C228.9 194.7 226.1 194.9 223.3 195C221.8 195.2 221.8 197.4 223.3 197.3Z" fill="#E8E8E8"/>
<path d="M248.3 268.7C248.3 263.1 248.3 257.5 248.3 251.9C248.3 250.5 246 250.4 246 251.9C246 257.5 246 263.1 246 268.7C246 270.1 248.3 270.1 248.3 268.7Z" fill="#E8E8E8"/>
<path d="M248.4 253.4C273.4 253.4 298.4 253.4 323.4 253.4C324.8 253.4 324.9 251.1 323.4 251.1C298.4 251.1 273.4 251.1 248.4 251.1C247 251.2 247 253.4 248.4 253.4Z" fill="#E8E8E8"/>
<path d="M322.3 253.1C322.3 258.8 322.3 264.6 322.3 270.3C322.3 271.7 324.6 271.8 324.6 270.3C324.6 264.6 324.6 258.8 324.6 253.1C324.5 251.7 322.3 251.7 322.3 253.1Z" fill="#E8E8E8"/>
<path d="M263.4 251.1C263.4 247.3 263.4 243.6 263.4 239.8C263.4 238.4 261.1 238.3 261.1 239.8C261.1 243.6 261.1 247.3 261.1 251.1C261.1 252.5 263.4 252.5 263.4 251.1Z" fill="#E8E8E8"/>
<path d="M262.2 239.6C283.8 239.6 305.5 239.6 327.1 239.6C328.5 239.6 328.6 237.3 327.1 237.3C305.5 237.3 283.8 237.3 262.2 237.3C260.8 237.4 260.8 239.6 262.2 239.6Z" fill="#E8E8E8"/>
<path d="M326.5 238.5C326.5 243.4 326.5 248.3 326.5 253.2C326.5 254.6 328.8 254.7 328.8 253.2C328.8 248.3 328.8 243.4 328.8 238.5C328.7 237 326.5 237 326.5 238.5Z" fill="#E8E8E8"/>
<path d="M324.6 254.4C325.5 254.1 326.4 253.9 327.3 254.1C328.7 254.4 329.3 252.2 327.9 251.9C326.6 251.6 325.2 251.7 324 252.2C323.4 252.4 323 253 323.2 253.6C323.4 254.1 324 254.6 324.6 254.4Z" fill="#E8E8E8"/>
<path d="M276.7 239.6C278 243.6 278.4 247.8 277.8 252C277.6 253.4 279.8 254 280 252.6C280.7 248 280.3 243.5 278.9 239C278.4 237.6 276.3 238.2 276.7 239.6Z" fill="#E8E8E8"/>
<path d="M288.2 241.3C289.6 241.3 289.7 239 288.2 239C286.8 239 286.8 241.3 288.2 241.3Z" fill="#E8E8E8"/>
<path d="M288.9 239.1L288.8 239C288.8 239.5 288.8 240.1 288.8 240.6C288.9 240.5 288.9 240.5 289 240.4C288.5 240.5 288.1 240.5 287.6 240.6C287.3 240.2 287.3 240.4 287.6 241.2C287.7 241.7 287.8 242.1 287.8 242.6C287.9 243.6 287.9 244.6 287.9 245.6C287.8 247.7 287.4 249.6 286.7 251.6C286.2 253 288.4 253.6 288.9 252.2C289.9 249.5 290.3 246.7 290.2 243.9C290.1 242.3 290.2 239.6 288.7 238.6C288.3 238.4 287.6 238.4 287.3 238.8C287.2 238.9 287.2 238.9 287.1 239C286.7 239.5 286.6 240.1 287.1 240.6L287.2 240.7C288.4 241.7 290 240.1 288.9 239.1Z" fill="#E8E8E8"/>
<path d="M212.9 207.5C220.9 209.3 228.9 209.6 237.1 208.4C238.5 208.2 237.9 206 236.5 206.2C228.8 207.3 221.1 207 213.5 205.3C212 205 211.4 207.2 212.9 207.5Z" fill="#E8E8E8"/>
<path d="M174.8 111.6C234.3 111.6 293.8 111.6 353.4 111.6C354.8 111.6 354.9 109.3 353.4 109.3C293.9 109.3 234.4 109.3 174.8 109.3C173.4 109.3 173.4 111.6 174.8 111.6Z" fill="#E8E8E8"/>
<path d="M175.9 109.9C175.9 107.6 175.9 105.2 175.9 102.9C175.9 101.5 173.6 101.4 173.6 102.9C173.6 105.2 173.6 107.6 173.6 109.9C173.7 111.4 175.9 111.4 175.9 109.9Z" fill="#E8E8E8"/>
<path d="M174.3 103.5C233.8 103.5 293.3 103.5 352.9 103.5C354.3 103.5 354.4 101.2 352.9 101.2C293.4 101.2 233.9 101.2 174.3 101.2C172.8 101.3 172.8 103.5 174.3 103.5Z" fill="#E8E8E8"/>
<path d="M352.2 102.9C352.4 105 352.6 107.2 352.9 109.3C353 110.7 355.3 110.7 355.2 109.3C355 107.2 354.8 105 354.5 102.9C354.3 101.5 352.1 101.5 352.2 102.9Z" fill="#E8E8E8"/>
<path d="M189.2 100.7C189.2 82.0001 189.2 63.4001 189.2 44.7001C189.2 43.3001 186.9 43.2001 186.9 44.7001C186.9 63.4001 186.9 82.0001 186.9 100.7C186.9 102.1 189.2 102.1 189.2 100.7Z" fill="#E8E8E8"/>
<path d="M188 45.3C192.2 45.3 196.5 45.3 200.7 45.3C202.1 45.3 202.2 43 200.7 43C196.5 43 192.2 43 188 43C186.6 43.1 186.6 45.3 188 45.3Z" fill="#E8E8E8"/>
<path d="M199.4 45.2998C199.4 63.6998 199.4 82.1998 199.4 100.6C199.4 102 201.7 102.1 201.7 100.6C201.7 82.1998 201.7 63.6998 201.7 45.2998C201.6 43.7998 199.4 43.7998 199.4 45.2998Z" fill="#E8E8E8"/>
<path d="M209.2 100.3C209.2 67.9001 209.2 35.6001 209.2 3.20013C209.2 1.80013 206.9 1.70013 206.9 3.20013C206.9 35.6001 206.9 67.9001 206.9 100.3C206.9 101.7 209.2 101.7 209.2 100.3Z" fill="#E8E8E8"/>
<path d="M208.4 2.6999C216.2 2.6999 223.9 2.6999 231.7 2.6999C233.1 2.6999 233.2 0.399902 231.7 0.399902C223.9 0.399902 216.2 0.399902 208.4 0.399902C206.9 0.499902 206.9 2.6999 208.4 2.6999Z" fill="#E8E8E8"/>
<path d="M230.8 1.9001C230.8 34.7001 230.8 67.5001 230.8 100.3C230.8 101.7 233.1 101.8 233.1 100.3C233.1 67.5001 233.1 34.7001 233.1 1.9001C233.1 0.500098 230.8 0.500098 230.8 1.9001Z" fill="#E8E8E8"/>
<path d="M207.8 20.4C215.6 24.8 224 22.9 232 20C233.4 19.5 232.8 17.3 231.4 17.8C224 20.4 216.2 22.5 208.9 18.4C207.6 17.7 206.5 19.7 207.8 20.4Z" fill="#E8E8E8"/>
<path d="M209.4 38.0001C212.3 39.8001 215.6 39.6001 218.9 39.5001C223.2 39.5001 227.4 39.1001 231.6 38.1001C233 37.7001 232.4 35.6001 231 35.9001C227.5 36.8001 224 37.1001 220.5 37.2001C217.3 37.3001 213.3 37.8001 210.5 36.0001C209.3 35.3001 208.2 37.2001 209.4 38.0001Z" fill="#E8E8E8"/>
<path d="M245.6 100.9C245.6 98.5999 245.6 96.2999 245.6 93.9999C245.6 92.5999 243.3 92.4999 243.3 93.9999C243.3 96.2999 243.3 98.5999 243.3 100.9C243.4 102.3 245.6 102.4 245.6 100.9Z" fill="#E8E8E8"/>
<path d="M245.1 94.8C268.7 94.8 292.2 94.8 315.8 94.8C317.2 94.8 317.3 92.5 315.8 92.5C292.2 92.5 268.7 92.5 245.1 92.5C243.7 92.5 243.7 94.8 245.1 94.8Z" fill="#E8E8E8"/>
<path d="M315.3 94C315.3 96.7 315.3 99.4 315.3 102.2C315.3 103.6 317.6 103.7 317.6 102.2C317.6 99.5 317.6 96.8 317.6 94C317.6 92.5 315.3 92.5 315.3 94Z" fill="#E8E8E8"/>
<path d="M256.9 86.0998C257.1 88.4998 257.3 90.8998 257.6 93.2998C257.7 94.6998 260 94.6998 259.9 93.2998C259.7 90.8998 259.5 88.4998 259.2 86.0998C259 84.6998 256.7 84.6998 256.9 86.0998Z" fill="#E8E8E8"/>
<path d="M258 86.5998C277.7 86.5998 297.4 86.5998 317.1 86.5998C318.5 86.5998 318.6 84.2998 317.1 84.2998C297.4 84.2998 277.7 84.2998 258 84.2998C256.6 84.3998 256.6 86.5998 258 86.5998Z" fill="#E8E8E8"/>
<path d="M315.3 87.1001C315.3 89.0001 315.3 90.9001 315.3 92.8001C315.3 94.2001 317.6 94.3001 317.6 92.8001C317.6 90.9001 317.6 89.0001 317.6 87.1001C317.6 85.6001 315.3 85.6001 315.3 87.1001Z" fill="#E8E8E8"/>
<path d="M284.3 84.5998C284.3 80.9998 284.3 77.4998 284.3 73.8998C284.3 72.4998 282 72.3998 282 73.8998C282 77.4998 282 80.9998 282 84.5998C282 85.9998 284.3 85.9998 284.3 84.5998Z" fill="#E8E8E8"/>
<path d="M283.2 74.4001C291.1 74.4001 298.9 74.4001 306.8 74.4001C308.2 74.4001 308.3 72.1001 306.8 72.1001C298.9 72.1001 291.1 72.1001 283.2 72.1001C281.7 72.1001 281.7 74.4001 283.2 74.4001Z" fill="#E8E8E8"/>
<path d="M305.6 73.8999C305.6 77.6999 305.6 81.3999 305.6 85.1999C305.6 86.5999 307.9 86.6999 307.9 85.1999C307.9 81.3999 307.9 77.6999 307.9 73.8999C307.9 72.3999 305.6 72.3999 305.6 73.8999Z" fill="#E8E8E8"/>
<path d="M288.3 71.3002C282.6 65.6002 282.4 54.4002 282.4 46.9002C281.8 47.2002 281.1 47.4002 280.5 47.7002C287.2 54.9002 291.5 63.5002 293.1 73.2002C293.3 74.6002 295.5 74.0002 295.3 72.6002C293.6 62.5002 289.1 53.6002 282.1 46.1002C281.4 45.4002 280.2 45.9002 280.2 46.9002C280.1 55.1002 280.6 66.7002 286.8 72.9002C287.7 73.9002 289.3 72.4002 288.3 71.3002Z" fill="#E8E8E8"/>
<path d="M294.3 68.1998C296.3 58.4998 303.6 51.1998 306.6 41.8998C305.9 41.6998 305.2 41.4998 304.4 41.2998C303.5 45.5998 304.6 50.0998 304.2 54.4998C303.6 60.6998 301.8 66.6998 299 72.2998C298.3 73.5998 300.3 74.6998 300.9 73.3998C303.3 68.5998 305.1 63.5998 306 58.2998C306.9 52.8998 305.5 47.0998 306.6 41.8998C306.9 40.4998 304.9 39.8998 304.4 41.2998C301.4 50.5998 294.2 57.8998 292.1 67.5998C291.8 68.9998 294 69.5998 294.3 68.1998Z" fill="#E8E8E8"/>
<path d="M420.7 378.2C451.6 378.2 482.6 378.2 513.5 378.2C514.9 378.2 515 375.9 513.5 375.9C482.6 375.9 451.6 375.9 420.7 375.9C419.3 376 419.3 378.2 420.7 378.2Z" fill="#E8E8E8"/>
<path d="M466.8 378.2C466.8 387 466.8 395.8 466.8 404.6C466.8 406 469.1 406.1 469.1 404.6C469.1 395.8 469.1 387 469.1 378.2C469.1 376.8 466.8 376.8 466.8 378.2Z" fill="#E8E8E8"/>
<path d="M455 406.3C478.2 406.3 501.5 406.3 524.7 406.3C526.1 406.3 526.2 404 524.7 404C501.5 404 478.2 404 455 404C453.6 404.1 453.6 406.3 455 406.3Z" fill="#E8E8E8"/>
<path d="M501.1 406.9C501.1 415.1 501.1 423.4 501.1 431.6C501.1 433 503.4 433.1 503.4 431.6C503.4 423.4 503.4 415.1 503.4 406.9C503.4 405.5 501.1 405.4 501.1 406.9Z" fill="#E8E8E8"/>
<path d="M712.3 703.2C743.6 703.2 775 703.2 806.3 703.2C807.7 703.2 807.8 700.9 806.3 700.9C775 700.9 743.6 700.9 712.3 700.9C710.8 700.9 710.8 703.2 712.3 703.2Z" fill="#E8E8E8"/>
<path d="M763.1 701.2C763.1 691.3 763.1 681.4 763.1 671.5C763.1 670.1 760.8 670 760.8 671.5C760.8 681.4 760.8 691.3 760.8 701.2C760.9 702.7 763.1 702.7 763.1 701.2Z" fill="#E8E8E8"/>
<path d="M740.3 671.6C767 671.6 793.7 671.6 820.4 671.6C821.8 671.6 821.9 669.3 820.4 669.3C793.7 669.3 767 669.3 740.3 669.3C738.8 669.3 738.8 671.6 740.3 671.6Z" fill="#E8E8E8"/>
<path d="M810.3 670.5C810.3 661.7 810.3 652.8 810.3 644C810.3 642.6 808 642.5 808 644C808 652.8 808 661.7 808 670.5C808.1 671.9 810.3 671.9 810.3 670.5Z" fill="#E8E8E8"/>
<path d="M924.3 337.8C924.3 358.3 924.3 378.9 924.3 399.4C924.3 400.8 926.6 400.9 926.6 399.4C926.6 378.9 926.6 358.3 926.6 337.8C926.6 336.4 924.3 336.4 924.3 337.8Z" fill="#E8E8E8"/>
<path d="M927.3 338C960.4 338 993.4 338 1026.5 338C1027.9 338 1028 335.7 1026.5 335.7C993.4 335.7 960.4 335.7 927.3 335.7C925.8 335.7 925.8 338 927.3 338Z" fill="#E8E8E8"/>
<path d="M1024.5 337.2C1024.5 356.8 1024.5 376.5 1024.5 396.1C1024.5 397.5 1026.8 397.6 1026.8 396.1C1026.8 376.5 1026.8 356.8 1026.8 337.2C1026.8 335.8 1024.5 335.8 1024.5 337.2Z" fill="#E8E8E8"/>
<path d="M926.5 400.8C960 400.8 993.4 400.8 1026.9 400.8C1028.3 400.8 1028.4 398.5 1026.9 398.5C993.4 398.5 960 398.5 926.5 398.5C925 398.6 925 400.8 926.5 400.8Z" fill="#E8E8E8"/>
<path d="M1024.9 396.2C1024.4 397.6 1024.4 399 1024.6 400.5C1024.7 401.1 1025.4 401.4 1026 401.3C1026.6 401.1 1026.9 400.5 1026.8 399.9C1026.6 398.9 1026.8 397.8 1027.1 396.8C1027.5 395.4 1025.4 394.8 1024.9 396.2Z" fill="#E8E8E8"/>
<path d="M929 341.2C929 358.7 929 376.1 929 393.6C929 395 931.3 395.1 931.3 393.6C931.3 376.1 931.3 358.7 931.3 341.2C931.2 339.8 929 339.8 929 341.2Z" fill="#E8E8E8"/>
<path d="M930.1 396.4C960.2 396.4 990.3 396.4 1020.4 396.4C1021.8 396.4 1021.9 394.1 1020.4 394.1C990.3 394.1 960.2 394.1 930.1 394.1C928.6 394.2 928.6 396.4 930.1 396.4Z" fill="#E8E8E8"/>
<path d="M1022.4 394.9C1022.4 377.7 1022.4 360.5 1022.4 343.3C1022.4 341.9 1020.1 341.8 1020.1 343.3C1020.1 360.5 1020.1 377.7 1020.1 394.9C1020.1 396.3 1022.4 396.3 1022.4 394.9Z" fill="#E8E8E8"/>
<path d="M930.5 342.8C960.6 342.8 990.7 342.8 1020.8 342.8C1022.2 342.8 1022.3 340.5 1020.8 340.5C990.7 340.5 960.6 340.5 930.5 340.5C929.1 340.5 929 342.8 930.5 342.8Z" fill="#E8E8E8"/>
<path d="M930.8 373.3C942.7 370.5 955.4 374.5 967.1 376.8C979 379.1 990.8 381.4 1002.7 383.7C1004.1 384 1004.7 381.8 1003.3 381.5C990.1 378.9 977 376.4 963.8 373.8C952.8 371.6 941.3 368.5 930.1 371.1C928.8 371.5 929.4 373.7 930.8 373.3Z" fill="#E8E8E8"/>
<path d="M974.1 377.9C976.5 379.3 979.1 378.5 981.7 378C986 377.2 990.2 376 994.4 374.7C1003.5 372 1012.6 369 1022.1 368.2C1023.5 368.1 1023.5 365.8 1022.1 365.9C1014.4 366.5 1007 368.5 999.7 370.7C995.8 371.9 991.9 373.1 987.9 374.2C984.7 375.1 978.2 377.7 975.2 375.9C974 375.2 972.9 377.2 974.1 377.9Z" fill="#E8E8E8"/>
<path d="M979.5 360.9C974.5 357.3 983.2 350.4 986.6 355.7C988.1 358.1 986.7 360.7 984.2 361.6C982 362.3 979.6 361.5 977.7 360.4C976.4 359.7 975.3 361.6 976.6 362.3C980 364.2 984.4 365.1 987.6 362.2C990.4 359.7 990.1 355.3 987.2 353C980.7 347.8 971.2 357.7 978.4 362.8C979.5 363.6 980.6 361.7 979.5 360.9Z" fill="#E8E8E8"/>
<path d="M566 904.3C648.2 904.3 730.4 904.3 812.5 904.3C813.9 904.3 814 902 812.5 902C730.3 902 648.1 902 566 902C564.6 902.1 564.6 904.3 566 904.3Z" fill="#E8E8E8"/>
<path d="M701.1 925.8C766.1 925.8 831.2 925.8 896.2 925.8C897.6 925.8 897.7 923.5 896.2 923.5C831.2 923.5 766.1 923.5 701.1 923.5C699.6 923.5 699.6 925.8 701.1 925.8Z" fill="#E8E8E8"/>
<path d="M698.9 880.7C758.6 880.7 818.2 880.7 877.9 880.7C879.3 880.7 879.4 878.4 877.9 878.4C818.2 878.4 758.6 878.4 698.9 878.4C697.5 878.5 697.5 880.7 698.9 880.7Z" fill="#E8E8E8"/>
<path d="M764.8 881.2C760.7 888.7 756.2 895.8 751.1 902.7C750.2 903.9 752.2 905 753 903.8C758 896.9 762.6 889.8 766.7 882.3C767.4 881.1 765.5 880 764.8 881.2Z" fill="#E8E8E8"/>
<path d="M810.6 906C809 911.9 807 917.6 804.4 923.2C803.8 924.5 805.7 925.6 806.3 924.3C809 918.6 811.1 912.7 812.7 906.6C813.2 905.2 811 904.6 810.6 906Z" fill="#E8E8E8"/>
<path d="M2.3 846.8C31.9 846.8 61.6 846.8 91.2 846.8C93.1 846.8 93.1 843.8 91.2 843.8C61.6 843.8 31.9 843.8 2.3 843.8C0.4 843.8 0.4 846.8 2.3 846.8Z" fill="#E8E8E8"/>
<path d="M40.1 874.8C90.9 874.8 141.6 874.8 192.4 874.8C194.3 874.8 194.3 871.8 192.4 871.8C141.6 871.8 90.9 871.8 40.1 871.8C38.2 871.8 38.2 874.8 40.1 874.8Z" fill="#E8E8E8"/>
<path d="M89.8001 845.9C81.9001 854.1 74.0001 862.2 66.2001 870.4C64.9001 871.8 67.0001 873.9 68.3001 872.5C76.2001 864.3 84.1001 856.2 91.9001 848C93.3001 846.6 91.2001 844.5 89.8001 845.9Z" fill="#E8E8E8"/>
<path d="M162.3 923C239.4 923 316.4 923 393.5 923C395.4 923 395.4 920 393.5 920C316.4 920 239.4 920 162.3 920C160.4 920 160.4 923 162.3 923Z" fill="#E8E8E8"/>
<path d="M276.4 898.9C331.8 898.9 387.3 898.9 442.7 898.9C444.6 898.9 444.6 895.9 442.7 895.9C387.3 895.9 331.8 895.9 276.4 895.9C274.4 895.9 274.4 898.9 276.4 898.9Z" fill="#E8E8E8"/>
<path d="M357.2 896.6C349.1 904.6 341.1 912.6 333 920.6C331.6 922 333.7 924.1 335.1 922.7C343.2 914.7 351.2 906.7 359.3 898.7C360.7 897.4 358.5 895.3 357.2 896.6Z" fill="#E8E8E8"/>
<path d="M147.7 950.2C184 950.2 220.2 950.2 256.5 950.2C258.4 950.2 258.4 947.2 256.5 947.2C220.2 947.2 184 947.2 147.7 947.2C145.8 947.2 145.8 950.2 147.7 950.2Z" fill="#E8E8E8"/>
<path d="M266.8 921.1C262.8 930.2 258.7 939.3 254.7 948.3C253.9 950 256.5 951.6 257.3 949.8C261.3 940.7 265.4 931.6 269.4 922.6C270.2 920.8 267.6 919.3 266.8 921.1Z" fill="#E8E8E8"/>
<path d="M467.1 858C351.1 858.6 319.1 857.4 196.2 858C178.5 858.1 164 858.2 154.2 858.2C179.9 835.8 205.6 813.5 231.3 791.1C240.1 790.9 253.1 790.7 269 790.6C325.5 790.1 359.8 790.7 402 791.1C439.9 791.4 435.5 790.9 510.8 790.6C677.6 790.1 691.5 792.8 761.2 791.1C774.3 790.8 814.1 789.7 867.7 790.2C880.9 790.3 891.6 790.5 898.2 790.7C899.7 790.3 904.5 788.7 907.8 783.9C908.7 782.6 910.7 779.5 910.5 775.2C910.2 767.9 903.4 763.7 902.8 763.4C917.7 768.6 929.9 773 938.3 776.1C983.1 792.8 1018.9 808.6 1046.2 820.7C1053.6 824 1059.7 826.7 1063.5 828.4C1064.7 828.2 1070.1 827.3 1074.9 830.7C1075.7 831.3 1080.8 834.9 1080.4 839.8C1080 844.1 1075.5 846.6 1073.1 848C1067.5 851.2 1061.9 851.2 1060.8 851.2C1046.3 851.3 1045.5 856.3 1010.3 858.5C991 859.7 983.3 858.7 955.7 858C942 857.7 939.9 857.9 895.6 858C895.6 858 842.4 858.2 760.4 858C714 857.9 698 857.7 662.5 857.5C609.9 857.3 561.6 857.6 467.1 858Z" fill="white"/>
<path d="M229.9 789.7C203.7 812.3 177.5 834.9 151.3 857.5C149.8 858.8 152 860.9 153.4 859.6C179.6 837 205.8 814.4 232 791.8C233.5 790.6 231.4 788.5 229.9 789.7Z" fill="#161616"/>
<path d="M231.8 792.3C318.8 792.3 405.8 792.3 492.7 792.3C579.3 792.3 666 792.3 752.6 792.3C801.6 792.3 850.6 792.3 899.6 792.3C901.5 792.3 901.5 789.3 899.6 789.3C812.6 789.3 725.6 789.3 638.7 789.3C552.1 789.3 465.4 789.3 378.8 789.3C329.8 789.3 280.8 789.3 231.8 789.3C229.9 789.3 229.9 792.3 231.8 792.3Z" fill="#161616"/>
<path d="M153.7 859.5C262.2 859.5 370.6 859.5 479.1 859.5C587.2 859.5 695.4 859.5 803.5 859.5C864.4 859.5 925.3 859.5 986.2 859.5C988.1 859.5 988.1 856.5 986.2 856.5C877.7 856.5 769.3 856.5 660.8 856.5C552.7 856.5 444.5 856.5 336.4 856.5C275.5 856.5 214.6 856.5 153.7 856.5C151.7 856.5 151.7 859.5 153.7 859.5Z" fill="#161616"/>
<path d="M891.6 759.2C899.5 759.2 906.7 763.8 908.6 771.7C910.4 779.4 906.2 786.9 898.7 789.5C896.9 790.1 897.7 793 899.5 792.4C907.9 789.4 913.2 781.3 911.7 772.3C910.1 762.4 901.3 756.1 891.5 756.1C889.7 756.2 889.7 759.2 891.6 759.2Z" fill="#161616"/>
<path d="M892.4 759.7C949 781.3 1005.2 804.2 1060.9 828.3C1062.7 829.1 1064.2 826.5 1062.4 825.7C1006.5 801.5 950.1 778.6 893.2 756.8C891.3 756.1 890.6 759 892.4 759.7Z" fill="#161616"/>
<path d="M1062.6 829.3C1067.7 829.1 1074.1 830.5 1077.4 834.8C1082.5 841.4 1075 845.8 1069.6 847.4C1060.7 850.1 1050.8 851 1041.6 852.5C1031.4 854.1 1021.2 855.4 1010.9 855.9C1001.5 856.4 992 855.8 982.6 856.3C980.7 856.4 980.7 859.4 982.6 859.3C995.9 858.5 1009.2 859.3 1022.6 858C1035.7 856.7 1048.8 854.4 1061.8 852.2C1068.8 851 1081.4 849 1082.2 839.8C1083.1 830.3 1070 826.1 1062.6 826.4C1060.7 826.4 1060.7 829.4 1062.6 829.3Z" fill="#161616"/>
<path d="M340.7 584.6C321 600.5 328.3 633.7 335 709.7C338.2 746.2 340.3 780.7 341.5 812.9C334.1 817.2 319.2 826.5 320.8 830.9C322.7 836.2 347.7 831.6 354.7 830.3C374.4 830.3 390.3 832.1 401.7 834C410.9 835.5 420.7 837.6 422 834.8C423.1 832.4 417.6 827.5 412.3 823.4C402.3 817.7 392.3 812 382.2 806.3C379.3 777.4 378.9 753.9 379 738.1C379.3 686.4 383.1 646.3 383.1 646.3C387 604.6 391.3 589.4 381.5 581.3C371.8 573.5 352.5 575.1 340.7 584.6Z" fill="white" stroke="#161616" stroke-width="2"/>
<path d="M346 833.2C352.2 831.8 357.9 829.3 363.2 825.9C364 825.4 363.3 824.1 362.4 824.6C357.2 828 351.6 830.4 345.6 831.8C344.7 831.9 345.1 833.4 346 833.2Z" fill="#161616"/>
<path d="M354.3 831.3C358.3 830.2 361.8 826.6 365.8 827.2C371.5 828 377.4 830.4 382.9 832C383.8 832.3 384.2 830.8 383.3 830.6C377.3 828.9 371.3 827.2 365.3 825.6C364.4 825.3 363.7 825 362.8 825.2C362.1 825.4 360.2 827.2 359.2 827.8C357.5 828.8 355.7 829.4 353.8 829.9C352.9 830.1 353.3 831.5 354.3 831.3Z" fill="#161616"/>
<path d="M358.2 830.1C361.8 829.3 365.2 829.3 368.9 830.1C371.6 830.7 374 831.3 376.7 831C377.6 830.9 377.7 829.4 376.7 829.5C373.1 829.9 369.9 828.6 366.4 828.2C363.5 827.9 360.6 828.1 357.7 828.7C356.9 828.9 357.3 830.3 358.2 830.1Z" fill="#161616"/>
<path d="M360 828.5C365.9 828.5 371.7 829.2 377.5 830.7C378.4 830.9 378.8 829.5 377.9 829.3C372 827.7 366.1 827 360 827C359 827 359 828.5 360 828.5Z" fill="#161616"/>
<path opacity="0.11" d="M351 580.7C356 583.7 350.4 601.2 348.7 606.8C343.5 624.5 344.5 648.7 346.4 697.2C347.5 723.9 351 761.2 361.7 806.3C396.1 822.2 412.8 831.7 411.7 834.7C410.7 837.5 394.6 834.9 363.4 826.7C359.1 828.6 352.5 831.1 344.1 832.4C342.5 832.6 323.2 835.5 321.4 830.7C319.6 825.9 335.9 815.6 341.9 811.9C340.3 787 338.9 765.9 337.9 749.9C336 720 335.9 716.7 335.1 707.8C332 673.5 329.6 671 328.3 647.6C325.7 600.5 334.4 589.3 340.2 584.5C341.6 583.6 347.8 578.8 351 580.7Z" fill="#6D6C6C"/>
<path opacity="0.19" d="M328.3 618.8C338.3 710.8 346.3 779.1 349.3 799.5C349.6 801.7 350.3 806.3 353.3 811.4C362.2 827 382.6 831.5 395.9 833C377.6 828.3 367.1 828.4 360.7 829.6C359.8 829.8 357.4 830.2 353.9 830.7C349.8 831.3 343.1 832.3 334.6 832.4C330.8 832.5 325.7 832.4 319.8 831.8C320.2 830.7 320.9 829 322.1 827.3C324 824.4 326.3 822.7 330.6 819.9C333.6 817.9 337.5 815.6 342 813.1C337.4 748.4 332.9 683.6 328.3 618.8Z" fill="#6D6C6C"/>
<path d="M674.6 795.7C687.5 795.3 700.7 794.7 714 794C722.4 793.6 730.6 793.1 738.9 792.5C745 789.6 751.2 786.8 757.3 783.9C761.3 788.2 767.7 794.4 776.4 800.5C807.9 822.6 840.1 822.4 839.9 827.9C839.7 831.6 824.9 834.5 813.4 835.3C784.5 837.3 761.2 827.5 747.8 820.2C725.8 823.9 703.8 827.5 681.8 831.2C679.4 819.4 677 807.6 674.6 795.7Z" fill="#161616"/>
<path d="M571.5 569C550.4 590.5 544 624.3 554.6 656.1C540.7 707.1 526.7 758 512.8 809C512 811.5 509.4 820.5 513.7 829.4C518.8 839.9 531.3 846.1 544.8 844.5C596.4 843 647.9 841.5 699.5 840.1C702.8 817 706 793.9 709.3 770.8C679.4 772.9 649.4 774.9 619.5 777C631.5 750.7 648.5 711.1 665.7 661.4C690.5 590.1 688.9 575.4 681.7 565.4C663.6 540.3 604 535.9 571.5 569Z" fill="#EC615B"/>
<path opacity="0.25" d="M571.2 615.4C569.1 609.5 563.4 593.8 558.2 594.4C552.4 595 548.7 615.7 549.9 632.5C550.7 642.5 553.1 650.6 555.2 656C553.7 661.1 551.2 669.9 548.1 680.8C523.3 768.7 526.1 760.3 523.2 771C518.4 788.4 514.5 802.5 512 811.3C511.4 813.7 510 820 512.7 827.2C515.5 834.7 521 838.5 523.2 840C524.8 841.1 529.4 844.1 535.7 844.8C536.9 844.9 537.4 844.9 544.5 844.6C547.8 844.5 551.2 844.4 554.5 844.3C564 843.9 574.3 843.8 577.8 843.8C586.3 843.7 614.4 842.9 699.3 840C701.1 828.2 702.9 816.3 704.6 804.5C591.7 838.8 554.6 830.2 543.6 813.3C520.8 778 594.5 680.2 571.2 615.4Z" fill="#6D6C6C"/>
<path opacity="0.3" d="M514.2 804.6C524.7 765.9 535.2 727.1 545.6 688.4C543.2 698.4 522.9 785.7 534.3 817.5C535.1 819.9 537.2 825.5 542.2 830.7C555.8 844.8 578.2 843 586.2 842C572.3 843.5 560.3 844.3 550.8 844.6C538.8 845.1 532.2 844.9 525.3 841C523.1 839.8 517.5 836.5 514 829.7C508.3 818.3 513.4 806.4 514.2 804.6Z" fill="#6D6C6C"/>
<path d="M918.9 514.6C930.8 509.5 942.8 504.2 955 498.7C962.6 495.2 970.2 491.8 977.6 488.3C982.3 483.4 987 478.5 991.7 473.6C997 476.2 1005.2 479.6 1015.5 482.2C1052.9 491.3 1082.8 479.4 1084.6 484.6C1085.8 488.1 1073 496.2 1062.6 501.1C1036.4 513.4 1011.2 512.8 995.9 510.9C976.7 522.3 957.6 533.7 938.4 545.1C931.9 535 925.4 524.8 918.9 514.6Z" fill="#161616"/>
<path d="M567.9 550.4C571.8 549 577.9 546.9 585.7 545.1C632.4 534.2 664.1 551.1 704.8 556.7C740.8 561.7 768.4 555.7 797.3 549.6C826.1 543.4 873.1 529 924.4 490.9C929.5 494 940 501.3 947.5 514.9C956 530.2 955.9 544.6 955.5 550.5C932.2 568.5 897.1 592.2 850.6 611.8C820.9 624.4 796.1 630.5 746.6 642.9C692.2 656.5 655.2 665.5 605.2 666C579.6 666.3 558.6 664.2 544.7 662.4C552.5 625 560.2 587.7 567.9 550.4Z" fill="#EC615B"/>
<path opacity="0.13" d="M544.7 662C554 663.4 566.5 665 581.2 665.7C592.2 666.3 612.4 667 642.5 663.6C672 660.3 696 654.8 742.6 643.8C769.1 637.6 782.8 634.4 799.9 629.1C816.7 623.9 837.2 617.6 862.9 605.9C869.9 602.7 898 589.7 932.1 567C941.6 560.7 949.3 555.1 954.8 551C955.3 547.5 955.6 542.7 955 537.1C954.2 530.7 952.5 525.6 950.9 522.1C848.9 581.9 721.4 628.4 580.8 614C572.3 613.1 563.9 612.1 555.6 610.8C552.1 627.9 548.4 644.9 544.7 662Z" fill="#6D6C6C"/>
<path opacity="0.11" d="M545 661.7C546.8 653.3 548.7 644.9 550.5 636.5C585.8 641.2 626.8 643.6 672.1 640.6C799 632.2 896.6 585.8 954.8 551.2C938.8 563.3 915 579.8 884.3 595.8C832.1 622.9 790.5 632.6 717.4 649.7C653.5 664.6 622.7 666.2 599.5 666C577.1 665.6 558.3 663.6 545 661.7Z" fill="#6D6C6C"/>
<path d="M319.1 508.7C294.3 515.4 275.3 565.7 286.4 604.2C297.7 643.5 337.1 659.1 368.1 671.4C427 694.7 482.2 684 509.3 678.7C529.1 674.9 545.1 669.7 556.1 665.7C561.9 660.5 579 643.7 585.1 614.7C592.4 580.1 578.7 552.8 575.4 546.7C522.1 567.4 481.5 564.7 458 560.5C404.4 550.8 365.1 528.9 365.1 528.9C340.2 515 331.9 505.2 319.1 508.7Z" fill="white" stroke="#161616" stroke-width="2"/>
<path opacity="0.13" d="M289.5 548.6C288.8 570.6 349.3 589.8 352.8 591C373.7 598 406.2 605.7 487.6 602.2C512.2 601.2 546.1 598.9 586.6 593.5C586.7 587.6 586.4 580.1 584.6 571.5C582.4 561.4 578.9 553.3 575.9 547.5C569.9 549.4 561.4 552 551.1 554.9C542.1 557.4 536.2 559 529.4 560.4C529.4 560.4 512.8 563.8 494.2 564.1C467.3 564.5 444.8 557.9 422 551.1C398.6 544.2 371 533.6 358.2 524.7C354.2 521.9 350.7 519.9 343.8 515.8C332.5 509.2 329.6 508.4 326.7 508.1C319.1 507.4 313 511.2 310 513.2C300.8 519 296.9 527.6 294.2 533.6C293.2 535.8 289.6 543.5 289.5 548.6Z" fill="#6D6C6C"/>
<path opacity="0.15" d="M316.4 509.8C332.9 522.7 356.4 538.9 386.9 553.4C402.9 561 428.7 573 462.5 579.7C486.5 584.4 530.1 589.6 585 575.8C584.4 571 583.1 565.1 580.5 558.6C578.8 554.4 576.9 550.7 575.1 547.7C550.6 558.3 529.1 562.2 514.6 563.7C478.9 567.5 451.2 560.8 434.7 556.7C420 553 401.7 548.5 381.5 537.3C374.1 533.3 361.4 525.5 340.1 514.6C335.1 512 330.9 509.9 328 508.6C324 509 320.2 509.4 316.4 509.8Z" fill="#6D6C6C"/>
<path d="M463.3 515C469.4 511.2 474.5 510.5 485.4 508.8C513.5 504.3 510.8 504.1 516.1 503.9C528.8 503.4 537.4 503 546.6 508.2C549.5 509.8 556.7 514 560.8 522.8C561.5 524.3 566.5 535.3 562.5 544.5C558.1 554.6 540.1 557.2 504.1 562.5C499.1 563.2 484.9 565.2 467.4 562.1C456 560.1 452.7 557.5 450.7 555C444.4 547.1 447.1 534 452 526C455.7 519.8 460.7 516.6 463.3 515Z" fill="#161616"/>
<path d="M555.6 530.3C556.7 528.1 563.5 528.6 568.3 531.4C573 534.1 576.9 539.7 576.9 545.6C576.8 552 572.2 556.5 565.5 563C556.8 571.5 550.4 573.8 551.1 576.5C552.1 580.6 566.7 577.8 568.9 583.4C570.8 588.2 562.7 596.6 560.3 595.6C558.7 594.9 560.7 590.7 558.2 587.9C554.9 584.3 548.8 587.9 545.7 584.7C543.2 582 544.3 576.5 545.9 573.1C548.1 568.7 550.9 568.6 559.4 561.1C565.9 555.4 566.6 553.4 566.7 551.9C566.8 550.5 566.5 549 562.4 542.5C557 533.6 554.8 531.7 555.6 530.3Z" fill="#161616"/>
<path d="M531.1 532C528.6 533.7 522.6 538 521.9 545.7C521.3 552.6 525.4 557.7 526.4 558.8C511 563.9 507.7 566.3 507.9 567.6C508.4 570.1 522.2 570.6 533.7 567.4C538 566.2 541.9 564.5 544.9 563.1C550.6 560.5 553.5 559.3 555 557.3C558.8 552.4 557.5 545.5 556.5 540.6C555.4 535.1 554.7 531.2 551.3 528.8C545.3 524.5 535.7 528.8 531.1 532Z" fill="#161616"/>
<path d="M432.6 537.5C430.4 534.2 429.9 530.6 429.6 527.8C428.6 520.6 430.4 514.7 431.6 511.6C431.2 507 430.7 502.4 430.3 497.9C431.8 498.6 433.5 499.5 435.3 500.6C438.4 502.6 440.9 504.7 442.8 506.5C445.3 505.2 448.1 503.9 451.4 502.7C454.9 501.4 458.2 500.5 461.1 499.8C461.7 498.2 463.1 495.4 465.9 492.9C467.8 491.2 469.8 490.2 471.1 489.7C471.1 490.6 471.1 491.5 471.2 492.5C471.6 495.8 472.5 498.6 473.5 500.6C475 501.7 481.6 506.8 483.2 516.1C484.5 523.4 481.9 529.3 480.4 531.9C474.5 542.6 462.6 544.9 459.9 545.4C451.4 547.1 438.2 546 432.6 537.5Z" fill="#161616"/>
<path d="M470.5 470.2C471.9 468.7 472.1 469.9 472.4 471.3C472.6 472.4 472.7 473.6 472.9 474.7C473.1 475.9 473.6 477.2 474.8 477.8C477.8 479.3 481.4 475.4 483.5 473.7C485 472.4 482.8 470.3 481.4 471.6C480.4 472.5 479.3 473.3 478.2 474.1C477 475 476.3 475.4 475.9 473.7C475.5 471.9 475.6 469.9 474.8 468.2C473.4 465.2 470.3 466.2 468.5 468.2C467.1 469.5 469.2 471.6 470.5 470.2Z" fill="white"/>
<path d="M437.6 526.1C442.3 530.5 449.8 528.4 451.2 522C451.4 521.1 450 520.7 449.8 521.6C448.7 526.8 442.7 528.8 438.8 525.1C437.9 524.4 436.9 525.5 437.6 526.1Z" fill="white"/>
<path d="M459.6 525C459.5 525 459.5 525.1 459.4 525.1C459.6 525.3 459.9 525.5 460.1 525.7C460.1 525.6 460.1 525.6 460.1 525.5C459.9 525.7 459.8 525.8 459.6 526C459.5 525.9 459.5 525.8 459.4 525.7C459.7 525.8 460.1 525.9 460.4 526C460.4 525.9 460.3 525.8 460.3 525.6C459.8 525.8 459.4 526 458.9 526.2C460.2 528.6 458.2 531.4 455.5 530.9C454.6 530.7 454.2 532.2 455.1 532.3C459.1 533.1 462.1 529 460.2 525.4C459.8 524.6 458.7 525.2 458.8 526C458.9 526.3 458.9 526.5 459.1 526.7C459.3 527.1 459.8 527.1 460.1 527C461.7 526.3 460.7 524.1 459.1 524.6C458.9 524.7 458.6 524.9 458.6 525.1C458.5 525.5 458.5 525.7 458.6 526.1C458.6 526.4 459 526.7 459.3 526.7C459.7 526.6 459.9 526.6 460.3 526.4C461.2 525.8 460.5 524.5 459.6 525Z" fill="white"/>
<path d="M459.6 526.1C460.5 530.9 467.2 531 468.3 526.3C468.5 525.4 467.1 525 466.9 525.9C466.1 529.2 461.7 529 461.1 525.7C460.9 524.7 459.4 525.1 459.6 526.1Z" fill="white"/>
<path d="M462.6 518.5C468 520.9 473.9 517.6 474.5 511.7C474.6 510.7 473.1 510.7 473 511.7C472.5 516.4 467.7 519.2 463.3 517.2C462.5 516.8 461.7 518.1 462.6 518.5Z" fill="white"/>
<path d="M418.9 550.4C418 547.1 419.3 543 421.9 540.7C425.1 537.9 429.3 538.6 434.6 539.4C440 540.3 452.3 542.3 458 552.5C459.4 555 461.3 558.4 459.9 560.9C456.9 566.5 440.3 562.6 432 559.6C425.7 557.4 420.2 555.4 418.9 550.4Z" fill="#161616"/>
<path d="M492.5 528.6C490.3 528.8 490.5 532.6 486.9 537.4C483.4 542 479 544.1 471 547.7C463.2 551.3 460.1 551.3 456.4 555.4C455.5 556.4 452 560.3 453.2 562.9C454.4 565.5 459.6 565.3 462.9 565.3C465.6 565.2 467.7 564.9 478.4 561.7C483.1 560.3 487 559 491.9 556.8C496.2 554.8 497.3 553.8 498.1 552.7C501 548.8 500.1 543.7 499.6 540.9C498.6 535.5 495.5 528.3 492.5 528.6Z" fill="#161616"/>
<path d="M250.1 518.5C250.7 526.5 257 531.8 263.4 537.2C268.9 541.9 280 549.7 297.8 552.9C301.1 550.5 306.7 545.9 311.1 538.2C314.7 531.8 316 525.8 316.5 522C300.6 512.5 284.8 503 268.9 493.5C256.9 499.5 249.4 509.2 250.1 518.5Z" fill="white" stroke="#161616" stroke-width="2"/>
<path d="M245.4 412.6C235.9 415.8 230.5 423.2 220.2 437.7C208.6 454.1 199.8 468.7 195.3 479.7C194.6 481.3 195.1 483.2 196.5 484.3C198.3 485.7 201.9 486.8 203.9 487.7C203.1 493.2 202.6 501.2 204.5 510.4C207.9 527 217.2 538 221.8 542.8C230.2 543.6 243.4 543.7 258.1 538.4C263 536.6 271.7 533.4 280.6 525.6C288.4 518.8 293 511.5 295.6 506.6C298.1 507.2 302.2 507.6 306.6 506.2C315.9 503.3 325.3 492.9 322.3 484.8C320.1 478.8 311.4 474.9 301.5 476.5C302.4 472.7 303.3 467.2 303.3 460.6C303.3 459 303 446.9 298.7 437.4C290.5 419.3 264.7 406.1 245.4 412.6Z" fill="white" stroke="#161616" stroke-width="2"/>
<path d="M203.6 461.7C201.5 456.3 197.2 443 201.3 427.3C202.7 422 205.5 411.9 214.9 403.7C226.2 393.8 239.5 393.3 243.3 393.3C245.5 390.8 249.3 387.2 254.9 384.9C257.1 384 263.2 381.8 276.5 383.7C283.5 384.7 294.1 387.1 306.1 393.3C315.4 398.2 321.1 403.7 324.5 407.7C339.9 425.8 334.1 442.1 350.1 456.2C356.3 461.7 358 460 367.3 467.8C370.6 470.6 378.9 478 386.1 489.4C391.1 497.3 403.7 517.1 400.8 542.2C398.6 561.9 386.1 590.5 367.9 592.8C348.2 595.3 343.4 564.1 304.1 549.1C282 540.7 265.7 543.7 263.2 535.5C260.5 526.5 277.4 513.4 291.5 504C293.5 505.3 297.4 507.5 301.9 506.8C311.2 505.4 317.6 492.8 314.3 485.2C313 482.1 310.3 480.5 309.5 480C302.8 476.1 295.3 480.1 294.7 480.4C286.6 471.5 280.7 463.3 276.7 457.2C271.3 448.9 268.8 443.5 267.9 441.6C265.1 435.5 263.4 430.1 262.3 426C256.5 426.3 248.5 427.4 239.9 430.8C237.9 431.6 230.9 434.5 223.1 440.4C222.1 441.1 217.8 444.4 212.9 449.8C208.9 454 205.8 458.3 203.6 461.7Z" fill="#5222D0"/>
<path d="M220.8 462.7C222.9 466.6 225.3 469.3 229.8 470.1C234.2 470.9 238.5 469.9 242.1 467.2C243.2 466.3 242.1 464.4 241 465.3C238.2 467.4 234.9 468.4 231.4 468.1C227.1 467.7 224.8 465.3 222.8 461.6C222 460.3 220.1 461.4 220.8 462.7Z" fill="#161616"/>
<path d="M223.9 449.5C230.9 445.4 237.9 447.1 244.5 451.4C245.7 452.2 246.8 450.2 245.6 449.5C238.4 444.8 230.5 443.1 222.8 447.6C221.6 448.3 222.7 450.3 223.9 449.5Z" fill="#161616"/>
<path d="M229.7 484.2C229.4 485.5 228.9 485.5 228.2 484.2C228.3 484 228.4 483.9 228.5 483.7C228.7 483.6 229 483.6 229.2 483.7C229.4 484 229.6 484.3 229.8 484.7C229.7 484.7 229.7 484.8 229.7 484.9C229.2 484.9 228.6 484.9 228.1 484.9C228.3 484.5 228.5 484 228.6 483.6C228 483.5 227.5 484.2 227.5 484.7C227.5 485.4 228 485.8 228.6 485.8C229.9 485.9 230.7 484.1 229.6 483.3C229.1 482.9 228.5 482.9 228 483.3C227.2 484 227.2 485.5 228.3 485.9C229.2 486.2 230.3 485.5 230.3 484.5C230.3 483.5 229.4 482.8 228.5 483C227.7 483.2 227.1 484 227.4 484.8C228 486.1 230.1 485.6 229.7 484.2Z" fill="#161616"/>
<path d="M240.4 480.5C240.5 481 239.8 481.3 239.4 480.9C239.3 480.8 239.2 480.7 239.2 480.5C240 479.6 240.4 479.6 240.6 480.6C241 479.2 238.9 478.6 238.4 480C238.1 481 238.9 482 239.9 482C240.9 482 241.6 481.2 241.4 480.2C241.3 479.3 240.4 478.6 239.4 478.8C238.4 479 237.9 480.1 238.1 481C238.6 482.5 240.8 481.9 240.4 480.5Z" fill="#161616"/>
<path d="M237.1 490C237.8 490 237.4 491.4 236.7 491C235.9 490.6 237 489.3 237.4 490.1C236.7 488.8 234.8 490 235.5 491.2C236 492.1 237.2 492.3 238 491.7C239 491 238.9 489.6 237.9 489C237 488.4 235.7 488.8 235.4 489.9C235.1 491 236 492.3 237.2 492.2C237.8 492.2 238.3 491.7 238.3 491.1C238.2 490.5 237.7 489.9 237.1 490Z" fill="#161616"/>
<path d="M204.6 506C212.5 506.1 219.7 503.2 225.3 497.6C226.3 496.6 224.7 495 223.7 496C218.5 501.2 211.9 503.8 204.6 503.7C203.1 503.7 203.1 505.9 204.6 506Z" fill="#161616"/>
<path opacity="0.1" d="M262.3 425.5C263.9 436.9 265.8 446.2 267.1 452.5C270.7 469.4 273.3 476.2 271.9 486.9C270.8 495.1 268 501 266.4 504.3C254.8 528.5 229.1 539.7 221 542.9C225.5 543.3 230.9 543.4 236.8 542.9C247.6 541.9 256.5 539.1 262.9 536.5C265.3 538.9 268.3 541.5 271.9 543.9C281.6 550.3 291.2 552.4 297.3 553.2C299.7 551.6 302 550 304.4 548.4C309.1 550.4 316 553.7 323.6 559.1C346.4 575.2 351.9 593 365.7 592.4C372.6 592.1 379 587.5 380.4 586.4C384.1 583.6 386.8 580.3 389.8 575.1C393.6 568.5 401 555.4 401.3 536.5C401.5 524.8 398.8 515.1 396.3 508.5C373.7 536.6 339.7 546 316 534.2C300.1 526.3 292.9 510.9 290.2 503.9C298.6 508.4 308.3 506.1 312.7 499.7C316 494.9 317.1 486.5 311.7 481.4C307.4 477.2 300.4 476.5 294.6 479.8C289.3 474.3 283.5 467.2 277.9 458.6C270.2 446.4 265.3 434.7 262.3 425.5Z" fill="#6D6C6C"/>
<path d="M67.6999 410.2C79.8999 409.6 89.5999 417.8 92.7999 420.5C93.5999 421.2 95.9999 423.1 101.6 430.3C107 437.3 109.6 442.8 117.1 452.5C124.8 462.5 132.4 468.1 147.5 479.3C161.3 489.6 172.2 495.4 187.8 503.8C213.2 517.3 233.5 528.2 262 536.6C279.6 541.8 283.5 541 298.5 547C317.9 554.7 337.2 562.4 340.4 578.4C342.2 587.2 339 598.1 331.6 603.7C324.6 609 314.1 609.5 285.2 599.1C236.5 581.6 201.2 557 183 543.4C177.8 539.5 170.8 533.7 156.7 522.2C132.2 502.2 112.5 485.5 99.2999 474C95.9999 473.3 89.1999 471.9 80.3999 470.1C66.5999 467.3 62.6999 466.6 57.5999 463.8C50.3999 459.9 42.0999 452.9 43.3999 449.6C45.0999 445.4 62.1999 449 64.9999 449.5C63.3999 447 60.8999 443.8 57.1999 440.6C48.5999 433.2 42.3999 433.9 41.2999 430.1C39.5999 424 52.9999 410.9 67.6999 410.2Z" fill="white" stroke="#161616" stroke-width="2"/>
<path d="M42.9001 425.5C51.8001 425.6 58.3001 431.4 64.4001 437.1C65.5001 438.1 67.0001 436.5 66.0001 435.5C59.4001 429.3 52.3001 423.3 42.9001 423.2C41.5001 423.3 41.5001 425.5 42.9001 425.5Z" fill="#161616"/>
<path d="M49.2 418.7C58.1 419 65.9 422.8 71.7 429.6C72.6 430.7 74.2 429.1 73.3 428C67.2 420.8 58.6 416.8 49.2 416.5C47.7 416.4 47.7 418.6 49.2 418.7Z" fill="#161616"/>
<path d="M62.4001 412.4C68.7001 413.9 74.2001 417.3 78.3001 422.3C79.2001 423.4 80.8001 421.8 79.9001 420.7C75.5001 415.4 69.7001 411.8 63.0001 410.2C61.6001 409.9 61.0001 412.1 62.4001 412.4Z" fill="#161616"/>
<path opacity="0.16" d="M42.6999 424.2C45.0999 422.3 50.1999 425.2 54.5999 427.8C60.2999 431.1 64.0999 434.3 65.3999 435.3C67.9999 437 69.6999 440 69.6999 440C72.0999 443.9 84.0999 448.4 84.0999 448.4C89.9999 450.6 92.8999 454.5 109 467.9C127 482.8 139.8 495.4 142.9 498.4C170.2 524.5 225.9 556.5 284.4 570.4C309.4 576.3 338.4 579.9 339.6 590.8C340.2 596.7 332.7 602.5 327.7 605.1C322.3 608 308.5 613.1 253 586C237.1 578.2 219.7 569.7 197.6 554.5C188.4 548.2 181.9 543.1 150.2 516.8C136.7 505.6 119.5 491.3 99.3999 474.4C88.7999 472.8 56.0999 467.4 45.6999 455.2C44.6999 454 42.2999 451.2 43.1999 449.4C44.6999 446.1 55.7999 448.1 65.2999 450.4C61.5999 444.3 57.5999 440.9 54.7999 438.8C48.4999 434.3 42.4999 433.2 41.6999 428.6C41.2999 427.1 41.4999 425.1 42.6999 424.2Z" fill="#6D6C6C"/>
<path opacity="0.11" d="M43.8 450.2C48 452.5 52.6 454.8 57.6 457C74.1 464.2 89.7001 467.5 102.5 469C104.9 470.8 108.7 473.6 113.3 477.2C130.7 491.1 142.3 502.9 144.8 505.5C160.6 521.3 196.1 546.7 232.9 565.2C256 576.8 290.5 591.3 335.5 599.8C334.3 601.6 331.9 604.6 327.9 606.2C325.7 607.1 323.3 607.5 317.8 607.1C309 606.5 303.3 604.8 303.3 604.8C276 596.7 247.9 582.7 247.9 582.7C230.9 574.3 222.4 570.1 212.5 563.8C197.3 554.3 186.9 545.7 181 540.8C159.7 523.2 132.2 500.7 99.1 473.5C88.5 472.2 79.8 470.3 73.3 468.7C55.3 464.2 49.8 460.4 46.5 455.4C44.9 453.4 44.2 451.4 43.8 450.2Z" fill="#6D6C6C"/>
</svg>
