<svg width="1150" height="904" viewBox="0 0 1150 904" fill="none" xmlns="http://www.w3.org/2000/svg">
<path d="M911.7 563.7C911.6 579.9 911.4 596.2 911.3 612.4C911.3 616.4 911.2 620.4 911.2 624.3C911.2 627 910.6 630.4 911.7 633C913.4 637.4 919.1 636.2 921.2 639.9C921.4 639.2 921.6 638.5 921.7 637.8C914.4 641.4 912.5 649.5 911.9 657C911.4 664.2 911.1 675.8 920.5 677.2C920.4 676.3 920.3 675.4 920.1 674.5C905.9 681 911.6 706.4 917.6 716.6C922 724.1 928.5 730.2 935.2 735.6C939 738.7 942.8 741.6 946.7 744.6C949 746.4 951.3 748.1 953.5 749.9C954.7 750.8 959.8 753.6 960 755.3C960.4 754.8 960.7 754.3 961.1 753.9C961.2 753.9 961.2 753.9 961.3 753.9C961.5 754.6 961.7 755.3 961.8 756C961.9 755.9 961.9 755.8 962 755.7C962.8 754 960.3 752.5 959.4 754.2C959.3 754.3 959.3 754.4 959.2 754.5C958.8 755.3 959 756 959.7 756.6C960.4 757.2 960.9 757.2 961.8 756.9C962.4 756.7 963 756.1 962.9 755.5C962.5 752.4 959.4 751 957 749.2C953.5 746.4 949.9 743.7 946.4 740.9C939.8 735.8 933.1 730.7 927.4 724.7C921 718 916.6 710.2 915.3 700.9C914.2 693.3 913.2 681.1 921.6 677.2C922.7 676.7 922.5 674.6 921.2 674.5C913.2 673.3 914.3 661.9 914.9 655.8C915.5 649.8 917.2 643.5 923.1 640.6C923.8 640.2 924 639.2 923.6 638.5C921.5 634.9 916.4 635.6 914.5 632.4C913 630 914 624.4 914.1 621.5C914.1 617.5 914.2 613.5 914.2 609.6C914.3 594.4 914.4 579.1 914.6 563.9C914.7 561.8 911.7 561.7 911.7 563.7Z" fill="#E8E8E8"/>
<path d="M913.3 564.5C927.3 565.2 937.1 575.9 945.5 585.9C949.5 590.7 953.7 595.2 957.8 599.7C962 604.2 967.5 613.3 959.9 617.7C958.6 618.5 959.2 620.5 960.7 620.5C972.3 620.8 977.4 634.9 981 643.8C985.3 654.6 988.7 665.7 991.2 677C996.3 700.2 997.3 724.1 994.4 747.6C994.2 749.5 997.2 749.5 997.4 747.6C1000.5 721.4 998.9 694.8 992.4 669.3C989.4 657.3 985.4 645.2 980 634C976.2 626 970.3 617.7 960.7 617.5C961 618.4 961.2 619.4 961.5 620.3C976.1 611.9 958 595.9 952.1 589C941.6 576.8 931 562.3 913.4 561.4C911.4 561.4 911.4 564.4 913.3 564.5Z" fill="#E8E8E8"/>
<path d="M963.5 600.5C970.5 575.7 980.3 551.8 992.9 529.3C992.2 529.5 991.5 529.7 990.8 529.8C993.5 531.4 996.3 533 999 534.6C1000.4 535.4 1001.7 533.8 1001.1 532.5C993.9 518.1 1015.5 508.9 1022.8 500.3C1022.2 500.4 1021.6 500.5 1021 500.5C1022.4 501.3 1023.9 502.1 1025.3 502.9C1026 503.3 1026.9 503.1 1027.4 502.4C1035.4 488.8 1049.5 481.2 1063.1 474.2C1062.4 473.6 1061.6 473.1 1060.9 472.5C1056.6 486.6 1063.4 502 1064.7 516.1C1065.4 523.7 1065.5 531.4 1064.9 539.1C1064.6 542.9 1064.9 548.6 1063.4 552C1063.4 554.5 1062 555.9 1059.1 556.4C1058.2 556.5 1057.4 556.6 1056.5 556.7C1054.5 556.9 1052.4 557.1 1050.4 557.3C1049.6 557.4 1048.8 557.9 1048.9 558.8C1049 560.8 1049.6 561.4 1051.1 562.7C1053 564.3 1054.5 564.5 1055.4 567.3C1055.9 568.8 1055.9 570.5 1055.9 572C1055.8 580.1 1054.6 588.4 1053.2 596.4C1051.8 604.2 1049.8 611.9 1047.4 619.4C1045.3 625.7 1042.5 635.1 1034.7 636.1C1033.7 636.2 1032.7 637.3 1033.4 638.4C1039.2 647.3 1030.6 658.1 1026.4 665.8C1021.8 674 1017.6 682.4 1013.7 690.9C1005.9 707.8 999.5 725.3 994.3 743.2C993.8 745.1 996.7 745.9 997.2 744C1003.1 723.4 1010.8 703.4 1020.2 684.2C1024.6 675.1 1029.9 666.5 1034.5 657.5C1037.8 651 1040.4 643.4 1036.1 636.8C1035.7 637.6 1035.2 638.3 1034.8 639.1C1040.7 638.4 1044.5 634.2 1047.1 629.1C1051 621.3 1053.1 612.3 1055 603.8C1057.1 594.4 1058.5 584.8 1059 575.2C1059.2 572 1059.5 568.4 1058.1 565.4C1057.3 563.4 1052.2 560.3 1052.1 558.9C1051.6 559.4 1051.1 559.9 1050.6 560.4C1056.2 559.8 1064.2 561.2 1066.1 554.8C1068.6 546.8 1068.5 536.9 1068.4 528.7C1068.4 519.9 1067.5 511.2 1065.9 502.6C1064.1 492.9 1060.9 483.2 1063.9 473.4C1064.3 472.1 1062.8 471.1 1061.7 471.7C1047.6 479 1033.1 486.9 1024.9 501C1025.6 500.8 1026.3 500.6 1027 500.5C1025.6 499.7 1024.1 498.9 1022.7 498.1C1022.2 497.8 1021.3 497.8 1020.9 498.3C1012.5 508.2 990.4 517.6 998.7 534.1C999.4 533.4 1000.1 532.7 1000.8 532C998.1 530.4 995.3 528.8 992.6 527.2C991.9 526.8 990.9 527 990.5 527.7C977.9 550.5 967.9 574.6 960.8 599.6C960 601.6 962.9 602.4 963.5 600.5Z" fill="#E8E8E8"/>
<path d="M892.8 498.3C876 499.5 867.1 479.8 869.9 465.6C872.6 451.7 886.2 441.9 900.1 442.3C918.4 442.7 927.8 460.6 924.5 477.3C921.6 492.2 906.6 503.2 891.6 497.3C889.8 496.6 889 499.5 890.8 500.2C902.8 504.9 916.8 499.4 923.4 488.5C930.4 476.9 929.6 460.3 921.5 449.5C913.3 438.5 897.6 437 885.7 442.3C873.8 447.5 866 459.2 866.3 472.2C866.6 486.4 877.1 502.4 892.7 501.3C894.7 501.2 894.8 498.2 892.8 498.3Z" fill="#E8E8E8"/>
<path d="M1046.3 278.6C1040.5 289.4 1033.8 299.6 1026.2 309.2C1025 310.7 1027.1 312.8 1028.3 311.3C1036.1 301.5 1043 291.1 1048.9 280.1C1049.8 278.4 1047.2 276.9 1046.3 278.6Z" fill="#E8E8E8"/>
<path d="M1046.2 281C1049.8 290.5 1053.6 300 1057.5 309.4C1058.2 311.2 1061.1 310.4 1060.4 308.6C1056.5 299.2 1052.7 289.7 1049.1 280.2C1048.4 278.4 1045.5 279.2 1046.2 281Z" fill="#E8E8E8"/>
<path d="M1045.5 282.4C1044.8 319.6 1040 356.6 1031.1 392.7C1030.6 394.6 1033.5 395.4 1034 393.5C1043 357.1 1047.8 319.9 1048.5 282.4C1048.6 280.4 1045.6 280.4 1045.5 282.4Z" fill="#E8E8E8"/>
<path d="M1062.8 343.5C1065.4 364.9 1064.8 386.5 1060.9 407.7C1060.6 409.6 1063.4 410.4 1063.8 408.5C1067.7 387 1068.4 365.2 1065.8 343.5C1065.5 341.6 1062.5 341.6 1062.8 343.5Z" fill="#E8E8E8"/>
<path d="M1051.3 385.1C1054.8 393.1 1060.9 400.4 1061.3 409.4C1061.4 410.9 1063.3 411.5 1064.1 410.2C1067.6 404.1 1071.2 398 1074.7 391.9C1075.7 390.2 1073.1 388.7 1072.1 390.4C1068.6 396.5 1065 402.6 1061.5 408.7C1062.4 409 1063.4 409.2 1064.3 409.5C1063.9 399.8 1057.6 392.3 1053.9 383.7C1053.1 381.8 1050.5 383.3 1051.3 385.1Z" fill="#E8E8E8"/>
<path d="M369 891.4C429.3 885.8 489.7 878.5 550.2 876C611.2 873.5 672.5 875.1 733.5 876.7C768.5 877.6 803.5 879.3 838.3 882.6C840.2 882.8 840.2 879.8 838.3 879.6C777.1 873.8 715.7 873.1 654.3 872.4C623.5 872 592.7 871.7 562 872.7C532.1 873.6 502.3 876.1 472.5 878.8C438 882 403.5 885.2 369 888.4C367.1 888.5 367.1 891.5 369 891.4Z" fill="#E8E8E8"/>
<path d="M682.8 847.2C707.9 851.9 732.7 851.7 758 849.4C784 847 809.9 845.5 836 844.3C888.4 842 940.8 839.9 993.1 837.7C1023 836.4 1052.9 835.2 1082.8 833.9C1084.7 833.8 1084.7 830.8 1082.8 830.9C1030.3 833.1 977.9 835.3 925.4 837.5C873.8 839.7 821.9 840.8 770.4 845.2C756.4 846.4 742.4 848 728.4 848.2C713.4 848.4 698.4 847 683.6 844.2C681.7 844 680.9 846.9 682.8 847.2Z" fill="#E8E8E8"/>
<path d="M2.40002 826C49 827.3 95.6 827.1 142.2 825.4C144.1 825.3 144.1 822.3 142.2 822.4C95.6 824.1 49 824.3 2.40002 823C0.400024 822.9 0.400024 825.9 2.40002 826Z" fill="#E8E8E8"/>
<path d="M53.3001 866.2C70.3001 862.6 88.3001 864.9 105.5 865.7C122.8 866.6 140 867.4 157.3 868.3C192.5 870.1 227.6 871.9 262.8 873.6C264.7 873.7 264.7 870.7 262.8 870.6C227 868.8 191.1 867 155.3 865.2C137.4 864.3 119.5 863.4 101.6 862.5C85.3001 861.7 68.7001 859.8 52.6001 863.3C50.7001 863.7 51.5001 866.6 53.3001 866.2Z" fill="#E8E8E8"/>
<path d="M322.9 790C384.7 794.2 445.5 778.2 507.2 778.4C509.1 778.4 509.1 775.4 507.2 775.4C445.5 775.2 384.7 791.1 322.9 787C321 786.8 321 789.9 322.9 790Z" fill="#E8E8E8"/>
<path d="M276.6 479.2C277.1 477.5 277.6 475.8 278.4 474.2C278.9 473.5 279.3 472.9 279.8 472.2C281.9 472 284.1 471.7 286.2 471.5C286.8 471.9 287.3 473.1 287.7 473.7C289.2 475.8 290.8 477.6 293.1 479C297.5 481.6 302.8 482.2 307.5 480.4C319.8 475.9 324.4 459.6 339.4 461.2C343.4 461.6 347.2 463.2 350.1 466C352.3 468.1 354 470.7 356.3 472.7C360.4 476.1 365.5 476.6 370.4 474.8C376.4 472.7 381 468.2 385.5 463.9C391.6 458.2 400.5 451.3 408.6 457.4C413.9 461.3 417 467.3 423.6 469.4C429.8 471.4 436.4 470.2 441.6 466.3C443.1 465.2 441.6 462.5 440.1 463.7C432.9 469.1 423.9 468.2 417.6 461.9C413.4 457.8 409.8 452.7 403.6 452C389 450.2 381.4 468 369 472.1C359.6 475.2 356.5 466.8 350.3 462.2C345.7 458.8 339.9 457.4 334.2 458.3C328.2 459.2 323.6 462.8 319.4 466.9C314.5 471.8 309.3 478.5 301.7 478.5C296.6 478.5 292.7 475.7 289.9 471.7C288.3 469.5 287 467.7 284.1 467.4C277.8 466.8 275.1 473.4 273.6 478.3C273.1 480.2 276 481 276.6 479.2Z" fill="#E8E8E8"/>
<path d="M430.8 427.5C434.4 417 447 425.9 451.8 429.8C456 433.2 460.9 436.7 466.6 436.5C476 436.1 481 426.5 488.7 422.5C499.4 417 505.9 431.3 516.3 429.9C520.9 429.3 523.3 425.6 526.2 422.4C529.3 419 532.5 419 536.9 420C541 421 545.2 422 549.3 423C551.2 423.5 552 420.6 550.1 420.1C546 419.1 541.8 418.1 537.7 417.1C534.9 416.4 532.1 415.6 529.3 416.4C523.8 418.1 522.2 425.4 516.7 426.7C510.8 428.1 505 421.5 499.9 419.4C495.6 417.6 491.4 417.6 487.3 419.8C482.9 422.1 479.6 426 475.7 429.1C473.1 431.2 470.2 433.1 466.8 433.3C461.6 433.6 457.3 430 453.5 427C448.9 423.4 444 419.1 437.7 419.6C433.2 419.9 429.5 422.3 428 426.6C427.3 428.5 430.2 429.3 430.8 427.5Z" fill="#E8E8E8"/>
<path d="M882.9 135.7C882 154.4 881.4 173.2 881.2 192C881.2 193.9 884.2 193.9 884.2 192C884.4 173.2 885 154.5 885.9 135.7C886 133.8 883 133.8 882.9 135.7Z" fill="#E8E8E8"/>
<path d="M884.9 137.1C908 133.9 931.5 130.8 954.5 136.2C956.4 136.6 957.2 133.8 955.3 133.3C931.8 127.7 907.7 130.9 884.1 134.2C882.2 134.4 883 137.3 884.9 137.1Z" fill="#E8E8E8"/>
<path d="M952.6 137.2C953.1 175.2 952.4 213.3 950.4 251.3C950.3 253.2 953.3 253.2 953.4 251.3C955.4 213.3 956.1 175.3 955.6 137.2C955.6 135.3 952.6 135.3 952.6 137.2Z" fill="#E8E8E8"/>
<path d="M883.7 241.1C884.2 245.9 884.4 250.9 885.3 255.6C885.8 257.9 886.6 259.5 888.6 260.9C894.9 265 905.1 262.6 912 262.2C921.8 261.6 931.7 261 941.5 260.4C945.9 260.1 952.9 258.9 950.2 252.8C949.4 251 946.8 252.6 947.6 254.3C948.1 255.4 942.5 257.2 941.5 257.4C939.9 257.7 938.2 257.6 936.6 257.7C933.7 257.9 930.7 258.1 927.8 258.2C921.9 258.6 916 258.9 910.1 259.3C904.7 259.6 898.7 260.7 893.3 259.5C886.5 257.9 887.4 246.9 886.7 241.2C886.5 239.2 883.5 239.2 883.7 241.1Z" fill="#E8E8E8"/>
<path d="M865.5 237.4C856.7 250.3 847.6 263 838.4 275.6C838.1 276 838.1 276.7 838.4 277.1C840 279.6 842.7 280.6 845.6 279.7C849.9 278.4 852 273.5 854.2 270.1C857.8 264.5 861.9 259.2 866.3 254.1C868.2 252 870.1 249.9 872.1 247.9C874.4 245.6 878.3 240.7 881.6 240.2C883.5 239.9 882.7 237 880.8 237.3C877.8 237.8 875.8 240.2 873.6 242.2C870.7 244.9 867.9 247.7 865.2 250.7C860 256.5 855.2 262.7 851 269.2C849.8 271 848.8 273.2 847.3 274.8C845.7 277.1 844 277.3 842 275.4C842.6 274.6 843.2 273.8 843.7 273C846.4 269.3 849.1 265.6 851.7 261.9C857.2 254.2 862.6 246.5 867.9 238.7C869.2 237.3 866.6 235.8 865.5 237.4Z" fill="#E8E8E8"/>
<path d="M881.1 241.1C893.5 241.4 905.4 233.9 910.3 222.5C914.7 212.2 912.3 198.8 903 192C892.3 184.3 878.6 190.1 870.3 198.5C865.4 203.5 861.3 209.8 860.3 216.8C859.9 219.6 860 222.4 860.7 225.1C861.1 226.7 861.7 228.2 862.5 229.6C862.7 230 867.3 236.5 865.3 236.4C863.4 236.2 863.4 239.2 865.3 239.4C868.4 239.7 870 236.9 869.1 234.1C868.4 231.8 866.2 230.2 865 228.1C863.2 224.8 862.8 221 863.3 217.3C865 204.5 878.6 191.1 891.8 191.3C904.8 191.4 911.6 205.9 908.9 217.3C905.9 229.7 893.7 238.4 881.1 238C879.1 238.1 879.1 241.1 881.1 241.1Z" fill="#E8E8E8"/>
<path d="M895.3 147.7L895.2 147.6C895.2 148.3 895.2 149 895.2 149.7C896.5 148.2 905.5 148.3 907.9 148C911.7 147.6 915.6 147.3 919.4 147.1C923.2 146.9 927.1 146.7 931 146.6C932.7 146.6 941.6 147.4 942.2 145.8C941.5 147.6 944.4 148.4 945.1 146.6C945.2 146.4 945.2 146.3 945.3 146.1C945.5 145.6 945.3 145 944.9 144.6C942.7 142.4 938.7 143.4 935.8 143.4C930.3 143.4 924.9 143.6 919.4 144C914.3 144.3 909.2 144.8 904 145.3C901.4 145.6 894.9 145.2 893 147.4C892.5 148 892.4 148.9 893 149.5L893.1 149.6C894.6 151.2 896.7 149 895.3 147.7Z" fill="#E8E8E8"/>
<path d="M893.9 162.3C904 163.7 913.8 163.3 923.9 162.9C925.8 162.8 925.8 159.8 923.9 159.9C914 160.3 904.5 160.7 894.7 159.4C892.8 159.2 892 162.1 893.9 162.3Z" fill="#E8E8E8"/>
<path d="M887.1 173.6C886.8 173.9 886.5 174.3 886.2 174.6C885.3 175.6 885.9 177.1 887.3 177.2C904.7 177.5 922.1 176.7 939.4 174.8C941.3 174.6 941.3 171.6 939.4 171.8C922.1 173.7 904.7 174.5 887.3 174.2C887.7 175.1 888 175.9 888.4 176.8C888.7 176.5 889 176.1 889.3 175.8C890.5 174.3 888.4 172.2 887.1 173.6Z" fill="#E8E8E8"/>
<path d="M908.6 190C917.7 190.7 926.8 190.3 935.8 188.8C937.7 188.5 936.9 185.6 935 185.9C926.2 187.3 917.4 187.7 908.6 187C906.6 186.9 906.6 189.9 908.6 190Z" fill="#E8E8E8"/>
<path d="M884.2 230.5C876.1 230.9 869.2 223.8 871.8 215.6C873.8 209.1 881.3 202.2 888.1 201.1C891.4 200.6 895 201.4 897.5 203.7C901.2 207.1 900.2 212.1 898.5 216.2C895.6 223.4 890.3 229.9 882.2 230.8C880.3 231 880.3 234 882.2 233.8C892.6 232.7 900 223.8 902.5 214C904.9 204.8 898.1 197.2 888.6 198C879.8 198.8 870.1 207.7 868.5 216.4C866.8 226.1 874.7 234 884.2 233.5C886.1 233.4 886.1 230.4 884.2 230.5Z" fill="#E8E8E8"/>
<path d="M885.9 202.4C881.9 211 878.2 219.7 874.9 228.5C874.2 230.3 877.1 231.1 877.8 229.3C881.1 220.7 884.6 212.2 888.5 203.9C889.3 202.1 886.8 200.6 885.9 202.4Z" fill="#E8E8E8"/>
<path d="M890.5 211C887.9 216.4 885.4 221.8 882.8 227.2C882 228.9 884.6 230.5 885.4 228.7C888 223.3 890.5 217.9 893.1 212.5C893.9 210.8 891.4 209.2 890.5 211Z" fill="#E8E8E8"/>
<path d="M147.1 47.7C147.1 56.8 147.1 66 147.1 75.1C147.1 77 150.1 77 150.1 75.1C150.1 66 150.1 56.8 150.1 47.7C150.1 45.8 147.1 45.8 147.1 47.7Z" fill="#E8E8E8"/>
<path d="M149 76.4C157.5 76.4 165.9 76.4 174.4 76.4C176.3 76.4 176.3 73.4 174.4 73.4C165.9 73.4 157.5 73.4 149 73.4C147.1 73.4 147.1 76.4 149 76.4Z" fill="#E8E8E8"/>
<path d="M176.2 73.2C176.2 63.3 176.2 53.3 176.2 43.4C176.2 41.5 173.2 41.5 173.2 43.4C173.2 53.3 173.2 63.3 173.2 73.2C173.2 75.1 176.2 75.1 176.2 73.2Z" fill="#E8E8E8"/>
<path d="M175.1 41.5C166.4 41.5 157.7 41.5 149.1 41.5C147.2 41.5 147.2 44.5 149.1 44.5C157.8 44.5 166.5 44.5 175.1 44.5C177 44.5 177 41.5 175.1 41.5Z" fill="#E8E8E8"/>
<path d="M159.8 78C159.8 88.2 159.8 98.3 159.8 108.5C159.8 110.4 162.8 110.4 162.8 108.5C162.8 98.3 162.8 88.2 162.8 78C162.8 76.1 159.8 76.1 159.8 78Z" fill="#E8E8E8"/>
<path d="M124.6 108.1C135.7 97.5 147.3 87.3 159.3 77.6C160.8 76.4 158.7 74.3 157.2 75.5C145.2 85.2 133.7 95.3 122.5 106C121.1 107.3 123.2 109.4 124.6 108.1Z" fill="#E8E8E8"/>
<path d="M163 78.6C175 87.7 187 96.8 199 105.9C200.5 107.1 202 104.5 200.5 103.3C188.5 94.2 176.5 85.1 164.5 76C163 74.8 161.5 77.4 163 78.6Z" fill="#E8E8E8"/>
<path d="M113 111.7C119.6 111.7 126.2 111.7 132.9 111.7C134.8 111.7 134.8 108.7 132.9 108.7C126.3 108.7 119.7 108.7 113 108.7C111.1 108.7 111.1 111.7 113 111.7Z" fill="#E8E8E8"/>
<path d="M131.1 112.3C131.1 119.8 131.1 127.4 131.1 134.9C131.1 136.8 134.1 136.8 134.1 134.9C134.1 127.4 134.1 119.8 134.1 112.3C134.1 110.3 131.1 110.3 131.1 112.3Z" fill="#E8E8E8"/>
<path d="M110.8 110.9C110.8 119.7 110.8 128.5 110.8 137.3C110.8 139.2 113.8 139.2 113.8 137.3C113.8 128.5 113.8 119.7 113.8 110.9C113.8 108.9 110.8 108.9 110.8 110.9Z" fill="#E8E8E8"/>
<path d="M112 139.1C118.2 139.1 124.3 139.1 130.5 139.1C132.4 139.1 132.4 136.1 130.5 136.1C124.3 136.1 118.2 136.1 112 136.1C110.1 136.1 110.1 139.1 112 139.1Z" fill="#E8E8E8"/>
<path d="M150.6 111.6C150.6 120.3 150.6 129 150.6 137.6C150.6 139.5 153.6 139.5 153.6 137.6C153.6 128.9 153.6 120.2 153.6 111.6C153.6 109.6 150.6 109.6 150.6 111.6Z" fill="#E8E8E8"/>
<path d="M152.1 138.4C158.2 138.4 164.2 138.4 170.3 138.4C172.2 138.4 172.2 135.4 170.3 135.4C164.2 135.4 158.2 135.4 152.1 135.4C150.2 135.4 150.2 138.4 152.1 138.4Z" fill="#E8E8E8"/>
<path d="M153.1 113.1C158.5 113.1 163.8 113.1 169.2 113.1C171.1 113.1 171.1 110.1 169.2 110.1C163.8 110.1 158.5 110.1 153.1 110.1C151.2 110.1 151.2 113.1 153.1 113.1Z" fill="#E8E8E8"/>
<path d="M168.1 111.2C168.1 119.4 168.1 127.6 168.1 135.9C168.1 137.8 171.1 137.8 171.1 135.9C171.1 127.7 171.1 119.5 171.1 111.2C171.1 109.3 168.1 109.3 168.1 111.2Z" fill="#E8E8E8"/>
<path d="M193 111.2C192.7 117.7 192.5 124.2 192.5 130.7C192.5 132.6 195.5 132.6 195.5 130.7C195.5 124.2 195.7 117.7 196 111.2C196.1 109.3 193.1 109.3 193 111.2Z" fill="#E8E8E8"/>
<path d="M194.3 111.9C200.9 111.2 207.5 110.4 214.1 109.7C216 109.5 216 106.5 214.1 106.7C207.5 107.4 200.9 108.2 194.3 108.9C192.4 109.1 192.3 112.1 194.3 111.9Z" fill="#E8E8E8"/>
<path d="M213.1 108.8C212.4 115.5 212.6 122.1 213.8 128.7C214.1 130.6 217 129.8 216.7 127.9C215.6 121.5 215.4 115.2 216.1 108.8C216.3 106.9 213.3 106.9 213.1 108.8Z" fill="#E8E8E8"/>
<path d="M195.3 133.3C201.9 132.3 208.5 131.3 215.1 130.3C217 130 216.2 127.1 214.3 127.4C207.7 128.4 201.1 129.4 194.5 130.4C192.6 130.7 193.4 133.5 195.3 133.3Z" fill="#E8E8E8"/>
<path d="M159.4 139.3C155.7 144.9 152.5 150.8 149.6 156.8C148.8 158.5 151.4 160.1 152.2 158.3C155.1 152.2 158.4 146.4 162 140.8C163 139.2 160.4 137.7 159.4 139.3Z" fill="#E8E8E8"/>
<path d="M160.3 140.5C164 145.5 167.2 150.7 169.9 156.2C170.8 157.9 173.4 156.4 172.5 154.7C169.7 149.2 166.5 143.9 162.9 139C161.8 137.4 159.2 138.9 160.3 140.5Z" fill="#E8E8E8"/>
<path d="M144.2 160.7C146.3 160.7 148.4 160.7 150.6 160.8C151.6 160.8 152.5 160.9 153.5 161C155.3 161.1 155.1 160.5 155.4 162.1C156.1 165.9 155.3 170.8 155 174.7C154.8 176.6 157.8 176.6 158 174.7C158.2 171.7 158.4 168.6 158.4 165.6C158.4 163.9 158.9 161.1 158 159.5C157.1 158 155 158.2 153.5 158.1C150.4 157.9 147.3 157.8 144.2 157.8C142.3 157.7 142.3 160.7 144.2 160.7Z" fill="#E8E8E8"/>
<path d="M142.2 160.6C142.5 164.1 142.8 167.5 143.1 171C143.3 173.8 142.9 177.9 144 180.6C144.4 181.7 144.9 182.1 146 182.3C148.6 182.8 152.5 181.5 155.1 181.1C157 180.8 156.2 178 154.3 178.2C152.5 178.4 149.7 179.5 148 179.1C146.1 178.6 146.5 176 146.4 174C146 169.5 145.6 165.1 145.2 160.6C145 158.7 142 158.6 142.2 160.6Z" fill="#E8E8E8"/>
<path d="M164.8 160.2C164.6 163.1 164.5 166.1 164.6 169C164.6 169.7 165.5 176.3 165.2 176.5C165.7 176.4 166.2 176.2 166.7 176.1C166.6 176.1 166.5 176 166.3 176C166.7 176.5 167 177 167.4 177.4C167.4 177.3 167.4 177.2 167.4 177C167 177.5 166.7 178 166.3 178.4C166.4 178.4 166.5 178.4 166.6 178.3C168.5 177.9 167.7 175 165.8 175.4C165.7 175.4 165.6 175.4 165.5 175.5C164.8 175.6 164.4 176.3 164.4 176.9C164.4 177 164.4 177.1 164.4 177.3C164.4 177.9 164.9 178.6 165.5 178.7C168.1 179.2 168.1 176.8 168 174.9C167.6 169.9 167.4 165 167.8 159.9C167.9 158.2 164.9 158.3 164.8 160.2Z" fill="#E8E8E8"/>
<path d="M166.6 160.9C166.6 160.2 173 160 173.9 160.1C176.4 160.5 175.9 160.7 176.3 162.5C176.6 163.7 176.2 165.4 176.1 166.6C176 169.1 176 171.5 176.1 174C176.1 175.4 177.1 179.6 176.4 180.6C177.1 180.4 177.8 180.2 178.5 180.1C178.4 180.1 178.3 180 178.2 180C178.4 180.6 178.7 181.1 178.9 181.7C178.9 181.6 179 181.5 179 181.4C179.5 179.5 176.6 178.7 176.1 180.6C176.1 180.7 176 180.8 176 180.9C175.8 181.5 176.1 182.3 176.7 182.6C176.8 182.6 176.9 182.7 177 182.7C177.8 183 178.6 182.9 179.1 182.2C179.8 181.2 179.5 180.2 179.4 179C179.3 176.3 179.1 173.5 179.1 170.8C179.1 168.1 179.2 165.3 179.3 162.6C179.4 161.4 179.7 159.8 178.9 158.7C177.2 156.4 171.8 157.1 169.6 157.4C167.1 157.7 163.8 158 163.6 161C163.6 162.8 166.6 162.8 166.6 160.9Z" fill="#E8E8E8"/>
<path d="M166.9 181.2C169.9 181 172.9 181.3 175.8 182C177.7 182.5 178.5 179.6 176.6 179.1C173.4 178.2 170.2 177.9 166.9 178.1C164.9 178.3 164.9 181.3 166.9 181.2Z" fill="#E8E8E8"/>
<path d="M204.5 133.9C202.1 139.2 200 144.7 198.1 150.2C197.5 152 200.4 152.8 201 151C202.8 145.7 204.8 140.5 207.1 135.4C207.9 133.6 205.3 132.1 204.5 133.9Z" fill="#E8E8E8"/>
<path d="M189.2 157.6C194.2 156.2 199.3 155.5 204.6 155.7C206.5 155.8 206.5 152.8 204.6 152.7C199.1 152.5 193.7 153.2 188.4 154.7C186.5 155.2 187.3 158.1 189.2 157.6Z" fill="#E8E8E8"/>
<path d="M189.1 156.2C188.2 159 188.9 161.6 189.2 164.4C189.5 167.8 189.5 171.1 189.4 174.5C189.2 178.9 190.3 179.4 194.7 179C197.7 178.7 201.8 179.5 202.9 176.2C203.9 173 203.6 168.7 203.9 165.3C204.2 161.7 204.6 158 204.9 154.4C205.1 152.5 202.1 152.5 201.9 154.4C201.5 158.6 201.1 162.9 200.7 167.1C200.5 168.8 200.6 170.9 200.2 172.6C199.6 175.4 199.3 175.6 196.4 175.9C195.5 176 194.7 176.1 193.8 176.2C192.1 176.8 191.6 176.3 192.3 174.6C191.9 173.2 192.5 171 192.4 169.5C192.3 165.7 190.8 160.6 191.9 157C192.6 155.1 189.7 154.3 189.1 156.2Z" fill="#E8E8E8"/>
<path d="M208.7 136.7C211 140.2 213 143.9 214.9 147.7C215.7 149.4 218.3 147.9 217.5 146.2C215.7 142.4 213.6 138.8 211.3 135.2C210.2 133.5 207.6 135 208.7 136.7Z" fill="#E8E8E8"/>
<path d="M212.1 152.1C217.1 152.1 222.1 152.1 227.1 152.1C229 152.1 229 149.1 227.1 149.1C226.8 149.1 226.5 149.1 226.2 149.1C224.3 149.1 224.3 152.1 226.2 152.1C226.5 152.1 226.8 152.1 227.1 152.1C229 152.1 229 149.1 227.1 149.1C222.1 149.1 217.1 149.1 212.1 149.1C210.1 149.1 210.1 152.1 212.1 152.1Z" fill="#E8E8E8"/>
<path d="M210.6 152C211 155.8 211.3 159.6 211.4 163.4C211.5 166.1 210.6 170.7 211.8 173.2C212.5 174.7 213.4 174.9 215 174.9C218.7 174.8 222.7 173.9 226.4 173.4C227 173.3 227.5 172.5 227.5 172C227.4 165.2 227.3 158.5 227.2 151.7C227.2 149.8 224.2 149.8 224.2 151.7C224.3 158.5 224.4 165.2 224.5 172C224.9 171.5 225.2 171 225.6 170.6C223.2 170.9 220.8 171.2 218.4 171.6C217.6 171.7 215.3 172.4 214.6 171.8C214.1 171.4 214.6 168.3 214.6 167.7C214.5 162.5 214.2 157.3 213.7 152.2C213.4 150.1 210.4 150.1 210.6 152Z" fill="#E8E8E8"/>
<path d="M99.6 160.2C104.8 155.4 110.1 150.9 115.8 146.8C117.3 145.7 115.8 143.1 114.3 144.2C108.4 148.5 102.8 153.1 97.5 158.1C96.1 159.4 98.2 161.5 99.6 160.2Z" fill="#E8E8E8"/>
<path d="M114.9 145.5C117.9 149.8 120.4 154.3 122.4 159C123.2 160.8 125.8 159.2 125 157.5C122.9 152.7 120.4 148.2 117.5 144C116.4 142.4 113.8 143.9 114.9 145.5Z" fill="#E8E8E8"/>
<path d="M86.2999 165.7C88.9999 165.5 91.5999 165.3 94.2999 165.1C95.4999 165 96.7999 164.7 97.8999 164.8C99.2999 164.3 99.6999 164.4 99.0999 165.2C98.6999 165.8 98.4999 166.4 98.5999 167.1C97.4999 172 97.2999 177.2 97.0999 182.2C97.9999 181.8 98.7999 181.5 99.6999 181.1C99.5999 181 99.4999 180.9 99.3999 180.7C98.0999 179.3 95.9999 181.4 97.2999 182.8C97.3999 182.9 97.4999 183 97.5999 183.2C98.4999 184.2 100.1 183.4 100.2 182.1C100.3 177.8 100.7 173.5 101.3 169.3C101.6 167.5 102.9 164.5 101.8 162.7C100.9 161.3 99.3999 161.6 97.9999 161.7C94.0999 162 90.2999 162.3 86.3999 162.6C84.3999 162.9 84.3999 165.9 86.2999 165.7Z" fill="#E8E8E8"/>
<path d="M88.3 162.8C88.2 162.8 88.1 162.8 87.9 162.8C87.4 162.8 86.9 163.1 86.6 163.5C85 166.2 85.1 170.9 84.6 174C83.9 178.4 83.2 182.8 82.5 187.2C82.4 188 82.7 188.9 83.5 189C88.2 190 92.6 189.8 97.1 188.1C98.9 187.4 98.1 184.5 96.3 185.2C92.3 186.7 88.5 187 84.3 186.1C84.6 186.7 85 187.3 85.3 187.9C85.6 185.9 89.1 165.8 88.1 165.7C90.2 166 90.2 163 88.3 162.8Z" fill="#E8E8E8"/>
<path d="M115.5 162.3L115.4 162.4C116.1 162.4 116.8 162.4 117.5 162.4C117.4 162.4 117.4 162.3 117.3 162.3C117.3 163 117.3 163.7 117.3 164.4C117.4 164.3 119.2 164.3 119.6 164.3C120.7 164.2 121.9 164.1 123 164.1C125.1 164 127.2 164.1 129.3 164.3C128.9 163.4 128.6 162.6 128.2 161.7C128 161.8 127.8 162 127.7 162.1C125.8 162.3 125.8 165.3 127.7 165.1C128.8 165 129.6 164.7 130.4 163.8C131.3 162.8 130.7 161.3 129.3 161.2C126.4 161 123.5 160.9 120.6 161.1C119.2 161.2 116.3 160.9 115.3 162.2C114.8 162.8 114.6 163.8 115.3 164.3C115.4 164.3 115.4 164.4 115.5 164.4C116.1 164.9 117.1 165.1 117.6 164.4L117.7 164.3C118.9 163 116.8 160.9 115.5 162.3Z" fill="#E8E8E8"/>
<path d="M114.3 163C114 167.1 113.7 171.2 113.5 175.3C113.4 177.6 112.1 183.5 113.5 185.6C114.2 186.6 114.9 187 116.2 186.9C117.5 186.9 118.9 186 120.1 185.7C122.5 185 125 184.8 127.5 184.8C129.4 184.8 129.4 181.8 127.5 181.8C125.3 181.8 123.1 182 120.9 182.5C119.9 182.7 118 183.8 117.1 183.6C116.4 184.1 116.1 184 116.3 183.2C116.2 182.4 116.2 181.6 116.3 180.7C116.4 174.9 116.9 169 117.3 163.2C117.5 161 114.5 161 114.3 163Z" fill="#E8E8E8"/>
<path d="M127.2 163.3C126.4 170 126 176.7 126.1 183.5C126.1 185.4 129.1 185.4 129.1 183.5C129 176.7 129.4 170 130.2 163.3C130.5 161.4 127.5 161.4 127.2 163.3Z" fill="#E8E8E8"/>
<path d="M926 582.8C949.6 634.7 966.1 689.5 975.2 745.8C975.5 747.7 978.4 746.9 978.1 745C968.9 688.5 952.3 633.4 928.6 581.3C927.8 579.6 925.2 581.1 926 582.8Z" fill="#E8E8E8"/>
<path d="M1050.5 495C1021.3 539.6 995.9 586.6 977.9 636.9C977.2 638.7 980.1 639.5 980.8 637.7C998.7 587.6 1024 540.9 1053.1 496.5C1054.1 494.9 1051.5 493.4 1050.5 495Z" fill="#E8E8E8"/>
<path d="M915.8 637.6C932 642 945.9 652 955.2 666C956.3 667.6 958.9 666.1 957.8 664.5C948.1 649.9 933.6 639.3 916.6 634.7C914.7 634.2 913.9 637.1 915.8 637.6Z" fill="#E8E8E8"/>
<path d="M954.8 596.1C949.3 605.2 945.6 615.1 944.1 625.7C943.8 627.6 946.7 628.4 947 626.5C948.5 616.2 952 606.5 957.4 597.6C958.4 596 955.8 594.5 954.8 596.1Z" fill="#E8E8E8"/>
<path d="M985.9 539.9C990.8 545.3 994.2 551.5 996.8 558.2C998 561.2 999 564.3 999.9 567.3C1000.8 570.2 1002.9 574.5 1001.7 577.4C1001 579.2 1003.9 580 1004.6 578.2C1005.8 575.3 1004.6 572.4 1003.7 569.6C1002.5 565.5 1001.2 561.4 999.6 557.4C996.8 550.2 993.1 543.5 987.9 537.7C986.7 536.3 984.6 538.4 985.9 539.9Z" fill="#E8E8E8"/>
<path d="M1019.8 551.4C1032.3 537 1048.5 526.8 1066.9 521.8C1068.8 521.3 1068 518.4 1066.1 518.9C1047.3 524 1030.5 534.5 1017.7 549.2C1016.5 550.7 1018.6 552.9 1019.8 551.4Z" fill="#E8E8E8"/>
<path d="M984.5 631.7C993.5 623.7 1004.1 618.1 1015.3 613.9C1020.4 612 1025.5 610.5 1030.7 609C1033.6 608.2 1036.4 607.5 1039.3 606.7C1040.7 606.4 1046.6 604 1047.7 604.6C1047.5 603.9 1047.3 603.2 1047.2 602.5C1047.1 602.6 1047.1 602.7 1047 602.8C1047.7 602.6 1048.4 602.4 1049.1 602.3C1049 602.3 1048.9 602.2 1048.8 602.2C1047.1 601.3 1045.6 603.9 1047.3 604.8C1047.4 604.8 1047.5 604.9 1047.6 604.9C1048.3 605.3 1049.2 605.1 1049.7 604.4C1049.8 604.3 1049.8 604.2 1049.9 604.1C1050.3 603.4 1050.1 602.5 1049.4 602C1048 601.2 1046.5 601.9 1045 602.2C1041.6 603 1038.2 603.8 1034.8 604.7C1028.3 606.4 1021.8 608.3 1015.4 610.5C1003.4 614.8 992 620.7 982.5 629.3C981 630.8 983.1 633 984.5 631.7Z" fill="#E8E8E8"/>
<path d="M933.5 755.1C956.2 760.6 979.3 756.5 1002 753.8C1026.6 750.9 1051.3 750.4 1076 750C1077.9 750 1077.9 747 1076 747C1051.9 747.4 1027.8 747.9 1003.9 750.6C980.8 753.3 957.3 757.8 934.3 752.2C932.5 751.7 931.7 754.6 933.5 755.1Z" fill="#E8E8E8"/>
<path d="M1005.1 746.6C1045.5 744.5 1085.9 742.3 1126.3 740.2C1128.2 740.1 1128.2 737.1 1126.3 737.2C1085.9 739.3 1045.5 741.5 1005.1 743.6C1003.2 743.7 1003.2 746.7 1005.1 746.6Z" fill="#E8E8E8"/>
<path d="M889.4 457.9C879.5 459.8 867.4 450.3 867.7 439.8C868.1 427.9 883 423.9 892.5 423.8C903 423.8 910.4 431.9 907.9 442.5C906.8 447.1 903.9 450.9 900.3 453.8C898.2 455.5 889.7 461.7 887.3 458.7C886.1 457.2 884 459.3 885.2 460.8C888.4 464.8 895 460.7 898.4 458.8C903.6 455.7 908.3 451 910.3 445.2C914.3 433.5 907.2 421.8 894.9 420.9C883.2 420 865.1 425.4 864.8 439.8C864.6 452.4 878.4 463 890.3 460.8C892.1 460.5 891.3 457.6 889.4 457.9Z" fill="#E8E8E8"/>
<path d="M121.8 505C118.1 509.2 114.9 513.8 112.2 518.8C111.3 520.5 113.9 522 114.8 520.3C117.4 515.6 120.4 511.2 124 507.1C125.2 505.7 123.1 503.5 121.8 505Z" fill="#161616"/>
<path d="M121.7 506.2C124.7 510.4 127.7 514.5 130.7 518.7C131.8 520.3 134.4 518.8 133.3 517.2C130.3 513 127.3 508.9 124.3 504.7C123.1 503.1 120.5 504.6 121.7 506.2Z" fill="#161616"/>
<path d="M121.5 512.1C122.4 547.4 123.2 582.7 124.1 618.1C124.1 620 127.1 620 127.1 618.1C126.2 582.8 125.4 547.5 124.5 512.1C124.4 510.2 121.4 510.1 121.5 512.1Z" fill="#161616"/>
<path d="M127.4 620.9C171.8 620.9 216.2 620.9 260.6 620.9C262.5 620.9 262.5 617.9 260.6 617.9C216.2 617.9 171.8 617.9 127.4 617.9C125.5 617.9 125.5 620.9 127.4 620.9Z" fill="#161616"/>
<path d="M254.8 617.9C257.9 619.1 260.9 620.3 264 621.5C263.6 620.4 263.1 619.3 262.7 618.2C261.2 620.9 259.1 623 256.5 624.6C254 626.1 256.3 630 258.8 628.5C262.1 626.6 264.8 623.8 266.7 620.5C267.5 619.1 266.7 617.7 265.4 617.2C262.3 616 259.3 614.8 256.2 613.6C253.3 612.5 252.1 616.8 254.8 617.9Z" fill="#161616"/>
<path d="M1022.8 77.8C1018.8 72.5 1024.5 64.4 1030.7 68.4C1033.5 70.2 1034.8 73.9 1032.8 76.8C1031 79.4 1027.3 80.5 1024.5 79.1C1022.8 78.2 1021.3 80.8 1023 81.7C1027.1 83.7 1032.1 82.5 1035 78.9C1038.1 75 1037 69.5 1033.2 66.5C1029.5 63.6 1024.3 63.6 1021.1 67.2C1018.2 70.5 1017.7 75.8 1020.4 79.4C1021.3 80.8 1023.9 79.3 1022.8 77.8Z" fill="#5222D0"/>
<path d="M1106 458.1C1105.8 453.4 1109.3 450.2 1113.9 450.2C1115.8 450.2 1117.3 450.7 1119.1 449.9C1122.5 448.4 1123.8 444.5 1124.9 441.2C1126.5 436.4 1127.7 434.1 1133.7 435.6C1135.3 436 1136.3 436.8 1138 436.2C1143 434.3 1140 425.7 1147.6 427.1C1149.5 427.5 1150.3 424.6 1148.4 424.2C1146 423.7 1143.7 423.9 1141.6 425.4C1139.7 426.8 1139.5 428.5 1138.4 430.3C1138.3 432.2 1137 433 1134.6 432.7C1134.1 432.4 1133.5 432.1 1133 431.9C1131.9 431.8 1131.3 431.2 1130.1 431.3C1127.9 431.4 1126.2 432.8 1124.9 434.4C1123 436.7 1122.5 439.5 1121.4 442.3C1120.3 445.1 1119.2 447.1 1115.8 447.4C1114.3 447.5 1112.9 447 1111.4 447.2C1106.1 448 1102.7 452.9 1102.9 458.1C1103.1 460.1 1106.1 460.1 1106 458.1Z" fill="#5222D0"/>
<path d="M157.3 615.2C171.4 586.9 173.6 555 181.9 524.9C184 517.2 186.1 508.2 191.9 502.4C200.4 493.9 211.2 499.9 214.7 509.9C217.3 517.5 217.4 526.3 217.9 534.3C218.4 542.9 218.8 551.5 219.3 560.1C220.4 578.5 222.3 597 228.5 614.5C229.1 616.3 232 615.5 231.4 613.7C224.9 595.3 223.1 575.8 222.1 556.4C221.6 546.9 221.2 537.3 220.5 527.8C219.9 520.2 219.6 511.9 216 505C213.2 499.6 207.8 495.2 201.5 495.2C195 495.2 189.6 499.7 186.3 504.9C182 511.8 180 520.5 178 528.3C175.8 537 174 545.8 172.2 554.6C168.2 574.8 164.1 595.1 154.8 613.7C153.8 615.4 156.4 616.9 157.3 615.2Z" fill="#5222D0"/>
<path d="M171 491.2C169 488.3 173.1 484.4 175.5 487.6C177.8 490.6 173.5 493.6 171.1 491.3C169.7 490 167.6 492.1 169 493.4C171.1 495.4 174.5 495.6 176.9 493.9C179.6 492 179.9 488.4 177.9 485.8C175.9 483.2 172.2 482.5 169.7 484.7C167.5 486.7 166.8 490.2 168.5 492.7C169.5 494.3 172.1 492.8 171 491.2Z" fill="#5222D0"/>
<path d="M193.1 477.9C191.5 475.6 195 473.5 196.5 475.9C198.1 478.5 193.6 481.4 192.1 478.5C191.2 476.8 188.7 478.3 189.5 480C190.8 482.7 194.3 483.4 196.8 481.9C199.4 480.4 200.6 477 199 474.3C197.6 472 194.3 470.8 191.9 472.3C189.6 473.8 188.8 477 190.3 479.3C191.6 481 194.2 479.5 193.1 477.9Z" fill="#5222D0"/>
<path d="M184.4 455.9C183.6 453.6 186.1 451.2 188.1 453.1C190.1 455 187.8 457.7 185.5 456.9C183.7 456.3 182.9 459.2 184.7 459.8C189.9 461.5 194.3 454.9 190.2 451C188.4 449.2 185.6 448.9 183.5 450.4C181.6 451.8 180.6 454.4 181.5 456.7C182.2 458.5 185.1 457.8 184.4 455.9Z" fill="#5222D0"/>
<path d="M222.6 482.6C222.3 482.4 222.7 482.7 222.8 482.9C222.8 483 222.8 483.1 222.8 483.2C222.8 483.3 222.8 483.3 222.8 483.1V483.2C223 483.1 222.8 483.2 222.8 483.2C222.7 483.2 223.1 483.2 223.2 483.2C223.5 483.2 223.8 483.3 224.1 483.4C223.7 482.9 223.4 482.4 223 482C223 482.8 223 483.6 223 484.4C223.4 483.9 223.7 483.4 224.1 483C223.3 483.3 222.5 483.4 221.7 483.2C219.9 482.6 219.1 485.5 220.9 486.1C222.2 486.5 223.7 486.5 224.9 485.9C225.5 485.6 226 485.2 226 484.5C226 483.7 226 482.9 226 482.1C226 481.4 225.5 480.8 224.9 480.7C223.3 480.3 221.4 480.1 220.4 481.7C219.6 482.9 219.7 484.8 221.2 485.4C221.9 485.8 222.8 485.6 223.3 484.9C223.6 484 223.4 483 222.6 482.6Z" fill="#5222D0"/>
<path d="M389.6 84.5C390.1 84.7 389 89.7 389.5 90.9C390.2 92.4 391.8 93.3 393.4 93.5C395.6 93.9 397.5 92.9 399.3 91.8C401.1 90.7 405.4 86.9 406.7 91.1C407 92 406 94.2 406.3 95.4C407.2 99.4 411 99.2 413.7 97.1C414.7 96.3 415.3 95.3 416.1 94.4C417.1 92 418.6 91.5 420.5 92.9C420.5 93.5 420.6 94.1 420.8 94.6C421.8 96.1 422.3 97.1 424.3 97C426.2 96.9 426.2 93.9 424.3 94C424.4 94 422.2 89.5 421 89C419.6 88.4 418 88.9 416.7 89.7C415.8 90.2 415.1 91 414.4 91.7C412.9 93.2 413 95.4 410.6 93.9C408.3 92.5 410.2 90.3 408.6 88.3C406 85 401.6 86.8 398.8 88.6C397.2 89.6 393.2 93.2 392.2 87.9C392.1 87.2 392.7 86.1 392.7 85.4C392.7 83.8 392.4 82.9 391 82.2C389.4 81 387.9 83.6 389.6 84.5Z" fill="#5222D0"/>
<path d="M285 318.4C286.2 332.4 287.4 346.4 288.7 360.4C288.9 362.3 291.5 362.3 291.7 360.4C291.7 360.1 291.8 359.7 291.8 359.4C292 357.5 289 357.5 288.8 359.4C288.8 359.7 288.7 360.1 288.7 360.4C289.7 360.4 290.7 360.4 291.7 360.4C290.5 346.4 289.3 332.4 288 318.4C287.8 316.5 284.8 316.4 285 318.4Z" fill="#EC615B"/>
<path d="M287.3 319.5C291.5 318.6 298.8 317.3 302 320.8C304.9 323.9 304.2 330 304.6 334.2C305.3 342.6 306 351 306.7 359.3C306.9 361.2 309.9 361.2 309.7 359.3C308.7 347.3 308.6 334.7 306.6 322.8C305.1 313.5 293.5 315.2 286.5 316.6C284.6 317 285.4 319.9 287.3 319.5Z" fill="#EC615B"/>
<path d="M312.9 263.1C316.1 295.1 317.2 327.2 316.2 359.4C316.1 361.3 319.1 361.3 319.2 359.4C320.2 327.3 319.1 295.1 315.9 263.1C315.7 261.2 312.7 261.1 312.9 263.1Z" fill="#EC615B"/>
<path d="M316.5 263.1C320.6 263.7 325.6 263.7 329.4 265.1C334.5 266.9 333.7 276.1 334.2 280.8C335.1 289.9 335.7 299 336.3 308.1C337.4 327 337.8 345.9 338.2 364.8C338.2 366.7 341.2 366.7 341.2 364.8C340.7 343 340.2 321.1 338.7 299.3C338 289.1 337.5 278.8 335.9 268.7C334.5 260.1 324.2 261.2 317.3 260.1C315.4 260 314.6 262.8 316.5 263.1Z" fill="#EC615B"/>
<path d="M341.9 244.3C345.3 282.3 348.8 320.2 352.2 358.2C352.4 360.1 355.4 360.1 355.2 358.2C351.8 320.2 348.3 282.3 344.9 244.3C344.8 242.4 341.8 242.4 341.9 244.3Z" fill="#EC615B"/>
<path d="M343.8 245.8C348.6 244.9 353.5 244.6 358.4 245.1C362.5 245.5 365.4 246.3 365.6 250.7C365.7 252.2 365.7 253.8 365.7 255.3C366 262.8 366.3 270.3 366.7 277.8C368 306.5 369.5 335.1 371 363.8C371.1 365.7 374.1 365.7 374 363.8C372.4 332.8 370.8 301.9 369.4 270.9C369.1 264.4 368.8 258 368.6 251.5C368.5 248.6 368.5 245.7 365.8 243.8C363.3 242.1 359.4 242 356.5 241.9C352 241.6 347.5 242 343 242.9C341.1 243.3 341.9 246.2 343.8 245.8Z" fill="#EC615B"/>
<path d="M263.5 234.7C260.2 241.2 257 247.7 253.7 254.2C252.8 255.9 255.4 257.4 256.3 255.7C259.6 249.2 262.8 242.7 266.1 236.2C266.9 234.5 264.3 232.9 263.5 234.7Z" fill="#161616"/>
<path d="M263.9 237.7C265.3 243.5 268.4 248.6 273 252.4C274.5 253.6 276.6 251.5 275.1 250.3C270.9 246.8 268.1 242.3 266.8 237C266.3 235 263.4 235.8 263.9 237.7Z" fill="#161616"/>
<path d="M261.8 239.1C261.2 282.9 266.9 326.6 278.8 368.8C279.3 370.7 282.2 369.9 281.7 368C269.9 326.1 264.2 282.7 264.8 239.1C264.8 237.2 261.8 237.2 261.8 239.1Z" fill="#161616"/>
<path d="M282.4 371.4C305.8 369.2 329.3 368 352.8 367.9C374.7 367.8 398.4 366.9 418.6 376.8C420.3 377.6 421.8 375.1 420.1 374.2C400.5 364.6 378.1 364.8 356.7 364.9C331.9 364.9 307.1 366.1 282.4 368.4C280.5 368.6 280.5 371.6 282.4 371.4Z" fill="#161616"/>
<path d="M406.3 366.5C411.7 369.8 416.9 373.4 421.7 377.4C421.8 376.6 421.9 375.8 422 375C417.9 378.1 413.9 381.2 409.8 384.3C408.3 385.5 409.8 388.1 411.3 386.9C415.4 383.8 419.4 380.7 423.5 377.6C424.2 377.1 424.6 375.9 423.8 375.2C418.7 371 413.4 367.2 407.8 363.9C406.1 363 404.6 365.5 406.3 366.5Z" fill="#161616"/>
<path d="M271.1 289.8C272.6 291.6 274.1 293.4 275.6 295.2C276.2 295.9 277.5 295.7 278 294.9C286 279.2 293.9 263.4 302 247.7C304.1 243.7 307 247 310 248.1C311.9 248.8 313.9 248.6 315.8 247.9C320.6 246.1 323.8 241.1 326 236.7C329.6 229.2 332.8 221.4 336.3 213.8C337.2 211.7 338.2 209.6 339.1 207.6C339.6 206.4 340.2 203.9 341.2 203C344.3 200.2 351.9 206.6 354.5 208.2C358.8 210.8 365 216.6 370.6 215.1C374.8 214 376.8 209.4 378 205.6C383.8 188.5 391.2 173 402.6 158.9C403.5 157.8 402.7 155.9 401.1 156.4C395.9 158.1 391.2 160.7 386.9 164C385.5 165.1 387.3 167.1 388.7 166.4C392.6 164.5 396.6 162.5 400.5 160.6C399.8 160.3 399 160 398.3 159.7C399.5 165.7 400.7 171.7 401.8 177.7C402.2 179.6 405.1 178.8 404.7 176.9C403.5 170.9 402.3 164.9 401.2 158.9C401 157.9 399.8 157.6 399 158C395.1 159.9 391.1 161.9 387.2 163.8C387.8 164.6 388.4 165.4 389 166.2C392.9 163.1 397.1 160.9 401.9 159.3C401.4 158.5 400.9 157.6 400.4 156.8C391.7 167.6 384.5 179.5 379.3 192.4C377.9 195.8 376.7 199.3 375.6 202.8C374.7 205.6 373.3 211.6 369.6 212.2C365.4 212.9 360 208.1 356.6 206C353.2 203.9 349.9 201.6 346.4 199.7C342.4 197.6 339.9 198.4 337.9 202.3C334.1 209.8 331 217.8 327.5 225.5C324.9 231.3 321.6 243 314.5 244.9C309.7 246.2 305.3 239 301 243.2C298.5 245.6 297.2 250.1 295.7 253.1C293.4 257.6 291.2 262 288.9 266.5C284.4 275.4 279.8 284.3 275.3 293.2C276.1 293.1 276.9 293 277.7 292.9C276.2 291.1 274.7 289.3 273.2 287.5C271.9 286.2 269.8 288.3 271.1 289.8Z" fill="#161616"/>
<path d="M706.4 41.3C696.6 35.9 692.4 22.2 698.6 12.5C704.9 2.6 720.2 0.8 729.1 8.1C738.2 15.7 738.3 31.3 729.6 39.2C720.6 47.5 705.5 45.3 698.1 36.1C696.9 34.6 694.8 36.7 696 38.2C702.9 46.6 715.2 49.6 725.3 45.4C735.1 41.3 740.2 30.7 738.9 20.4C737.6 9.8 729.7 1.9 719.1 0.7C709 -0.5 698.2 4.5 694.4 14.3C690.2 25.1 694.9 38.2 705 43.7C706.6 44.8 708.1 42.2 706.4 41.3Z" fill="#EC615B"/>
<path d="M749.8 59.7C745.6 51.9 756.4 43.3 761.8 51.7C766.6 59.1 754.8 64.7 751 57.8C750.1 56.1 747.5 57.6 748.4 59.3C750.8 63.7 756.4 64.9 760.8 63C766 60.8 767.3 54.8 764.4 50.2C761.4 45.4 755.2 43.5 750.4 46.9C745.9 50.1 744.5 56.4 747.1 61.3C748.2 62.9 750.8 61.4 749.8 59.7Z" fill="#EC615B"/>
<path d="M697.2 816.1C775.9 816.1 854.5 816.1 933.2 816.1C935.1 816.1 935.1 813.1 933.2 813.1C854.5 813.1 775.9 813.1 697.2 813.1C695.2 813.1 695.2 816.1 697.2 816.1Z" fill="#161616"/>
<path d="M982.6 816.1C997.6 816.1 1012.6 816.1 1027.6 816.1C1029.5 816.1 1029.5 813.1 1027.6 813.1C1012.6 813.1 997.6 813.1 982.6 813.1C980.7 813.1 980.7 816.1 982.6 816.1Z" fill="#161616"/>
<path d="M470.5 861.5C522.8 861.5 575.2 861.5 627.5 861.5C629.4 861.5 629.4 858.5 627.5 858.5C575.2 858.5 522.8 858.5 470.5 858.5C468.6 858.5 468.6 861.5 470.5 861.5Z" fill="#161616"/>
<path d="M625.5 849.5C670.8 849.5 716.2 849.5 761.5 849.5C763.4 849.5 763.4 846.5 761.5 846.5C716.2 846.5 670.8 846.5 625.5 846.5C623.6 846.5 623.6 849.5 625.5 849.5Z" fill="#161616"/>
<path d="M260 841.3C273.7 841.3 287.3 841.3 301 841.3C303.9 841.3 303.9 836.8 301 836.8C287.3 836.8 273.7 836.8 260 836.8C257.1 836.8 257.1 841.3 260 841.3Z" fill="#161616"/>
<path d="M315 841.3C319.7 841.3 324.3 841.3 329 841.3C331.9 841.3 331.9 836.8 329 836.8C324.3 836.8 319.7 836.8 315 836.8C312.1 836.8 312.1 841.3 315 841.3Z" fill="#161616"/>
<path d="M201.8 659.7C203.7 660 206.3 662.4 208.3 673.8C214.2 674.2 220.1 674.6 226 675C230.9 670.9 235.8 666.8 240.7 662.6C241.4 666.6 242.3 672.5 243.1 679.7C244.9 696.4 243.8 700.4 244.9 709.7C245.4 713.8 247.7 731.1 258.4 747.9C266.6 760.8 272 761.2 278.4 773.8C283.4 783.7 284.9 793 285.5 799.1C286.5 799 299.2 798 307.3 807.9C311 812.5 315.1 821.1 312 827.9C309 834.5 302.1 833.5 289.6 844.4C285.2 848.2 281 852 282 855C283 858.1 288.4 857.5 297.9 862.6C302.9 865.3 305.3 866.7 306.1 869.1C309.1 877.8 290.1 891.2 287.3 893.2C278.1 899.6 266.9 904.6 265.5 902.6C263.4 899.6 286 883.1 282.6 876.7C280.1 871.9 265.9 877.9 262.6 872.6C259 866.8 271.7 852.3 278.5 844.4C291.6 829.2 299.9 825.4 298.5 820.3C297 814.9 285.6 811.3 279.7 815C274.7 818.1 275.7 825.1 273.8 829.7C270.2 838.5 253 845.7 193.8 839.1C194.6 837.5 195.8 835.6 197.3 833.8C202.4 827.9 208.8 825.8 212 825C211.1 823.5 205.9 814.6 209.1 803.8C211.5 795.6 217.2 791.1 219.1 789.7C215.1 781.8 211.1 773.2 207.3 763.8C204.9 757.7 202.7 751.8 200.8 746.1C195.2 746.1 188.7 745.1 183.7 740.8C176.2 734.2 179.2 726.1 171.4 720.2C164.1 714.6 155.4 717.1 153.9 712.3C153.2 710 154.6 707.3 156.1 705.9C159.9 702.3 166.7 704.1 174.1 706.1C179.2 707.5 186.5 710.1 194.6 715C191.9 711.1 187 702.9 186.7 692C186 675.6 196 658.9 201.8 659.7Z" fill="#161616"/>
<path d="M198.3 731.5C191.4 734.5 194 754.8 196.5 773.3C198.1 785 200.8 800.5 205.9 818.6C191.9 829.4 192.6 832.5 193 833.3C194.3 836 203.6 834.4 206.5 833.9C209.6 833.4 214 832.6 216.5 831C223.6 826.3 219.9 812 217.7 789.2C214.5 756.2 218.3 742.4 207.7 734.5C206.3 733.4 201.7 730 198.3 731.5Z" fill="#161616"/>
<path d="M129.9 772.9C130.2 772.8 132.8 771.5 132.7 771.4C132.5 771.3 132.5 772.9 132.5 773.3C132.4 774.6 132 776.2 132.2 777.6C132.6 779.6 134.1 780.6 136.1 780.4C137.2 780.3 138 779.8 138.9 779.1C139.1 778.9 140.5 777.7 140.6 777.7C140.8 777.8 140.8 780 140.9 780.2C141.3 782.1 142.7 783.7 144.8 783.5C146.7 783.3 146.7 780.3 144.8 780.5C143.8 780.6 143.5 775.2 141.8 774.6C141.1 774.3 140.3 774.5 139.7 774.8C138.2 775.5 136 778.7 135.3 775.9C134.8 773.8 136.9 770.8 135 769C133.2 767.3 130.2 769.3 128.5 770.2C126.7 771.2 128.2 773.8 129.9 772.9Z" fill="white"/>
<path d="M198.7 692.3C200.4 690.7 203.3 691.1 204.5 693.1C205.3 694.3 207.2 693.2 206.4 692C204.4 688.8 199.8 688.2 197.1 690.7C196.1 691.7 197.7 693.3 198.7 692.3Z" fill="white"/>
<path d="M220.1 691.6C221.9 689.8 224.9 689.7 226.8 691.4C227.9 692.4 229.5 690.8 228.4 689.8C225.6 687.2 221.2 687.3 218.5 690C217.5 691 219.1 692.6 220.1 691.6Z" fill="white"/>
<path d="M202.6 703.3C201.5 705.5 196.8 713.1 201.9 713.7C204 713.9 206 712 207.2 710.6C208.9 708.6 209.9 706.1 210.8 703.7C211.5 701.9 208.6 701.1 207.9 702.9C206.8 705.7 205.6 708.3 203.2 710.3C202.7 710.7 202.4 711.4 202.6 710.5C202.7 709.9 203 709.3 203.3 708.8C203.9 707.5 204.5 706.2 205.2 704.9C206 703 203.4 701.5 202.6 703.3Z" fill="#EC615B"/>
<path d="M205.3 704.9C206.6 704.3 207.6 703.5 208.8 702.7C208.4 702.8 208 702.8 207.6 702.9C207.7 702.9 207.8 703 207.9 703C207.6 702.8 207.3 702.5 207 702.3C207 701.7 206.9 701.7 206.5 702.4C206.2 702.7 206 703 205.7 703.4C205.2 704 204.8 704.6 204.4 705.2C203.5 706.6 202.7 708 201.9 709.5C201 711.2 203.6 712.7 204.5 711C205.4 709.4 206.3 707.7 207.3 706.2C208.1 705 209.8 703.7 209.9 702.2C210 701.1 209.1 700.1 208.1 700.1C207.4 700 206.9 700.4 206.4 700.8C205.5 701.5 204.7 702 203.6 702.5C202.1 703 203.6 705.6 205.3 704.9Z" fill="#EC615B"/>
<path d="M202.3 703.2C205.6 703.3 208.7 700.9 209.3 697.6C209.5 696.2 207.4 695.6 207.1 697C206.7 699.4 204.7 701.1 202.3 701C200.8 700.9 200.8 703.1 202.3 703.2Z" fill="white"/>
<path d="M207.4 696.9C207.8 700.9 211.3 704.1 215.4 703.8C216.8 703.7 216.8 701.4 215.4 701.5C212.6 701.7 209.9 699.8 209.6 696.9C209.5 695.5 207.3 695.5 207.4 696.9Z" fill="white"/>
<path d="M815.1 508.4C782 548.5 749 588.5 715.9 628.6C767.8 641.5 819.7 654.4 871.6 667.3C873.3 645.8 873.7 601.9 849.8 556C839 535.2 826.1 519.6 815.1 508.4Z" fill="#5222D0"/>
<path d="M706.2 636.7C758.6 649.9 811.1 663 863.5 676.2C862.9 684.6 861.2 696.3 856.2 709.3C850.3 724.9 842 736.2 836 743.2C792.8 707.7 749.5 672.2 706.2 636.7Z" fill="#EC615B"/>
<ellipse cx="698.5" cy="635.9" rx="174.3" ry="178.7" stroke="#161616" stroke-width="3"/>
<path d="M700.7 632.1C701.1 631.7 702.1 632 702.3 632.5C702.4 632.1 702.4 631.7 702.5 631.3C702.4 631.5 702.1 631.4 702 631.3C701.2 631 700.4 631.6 700.2 632.3C700 633.1 700.5 633.9 701.2 634.1C702.4 634.5 703.8 634.2 704.6 633.3C705.6 632.3 705.3 630.9 704.4 630C702.8 628.4 700.3 628.3 698.7 629.8C697.1 631.2 699.2 633.4 700.7 632.1Z" fill="#161616"/>
<path d="M806.1 496.5C774.2 542.9 739.9 587.7 703.4 630.6C702.2 632.1 704.3 634.2 705.5 632.7C742.2 589.6 776.6 544.7 808.7 498C809.8 496.4 807.2 494.9 806.1 496.5Z" fill="#161616"/>
<path d="M701.9 634C758.3 644.1 814.3 656 869.9 669.8C871.8 670.3 872.6 667.4 870.7 666.9C815.1 653.2 759.1 641.2 702.7 631.1C700.8 630.8 700 633.7 701.9 634Z" fill="#161616"/>
<path d="M701.7 633.5C744.4 672.6 788.4 710.2 833.7 746.4C835.2 747.6 837.3 745.5 835.8 744.3C790.6 708.2 746.5 670.5 703.8 631.4C702.4 630.1 700.2 632.2 701.7 633.5Z" fill="#161616"/>
<path opacity="0.21" d="M698.6 457.6C702.3 474.1 704.8 497.6 695.7 521.6C675 576.4 614.9 579.1 592.1 623.8C579.7 648.1 576.6 688.3 615.8 758.3C615.8 770.1 615.8 781.8 615.8 793.6C604.2 787.1 591.4 778.3 579.1 766.3C532.4 720.6 525.2 660.9 523.7 638.2C523.8 621.8 526.1 568.5 565.4 520.9C574.3 510.1 605.9 473.1 659.7 461.2C675.4 457.8 689 457.3 698.6 457.6Z" fill="#6D6C6C"/>
<path d="M402.6 738C409.5 755.4 416.4 772.7 423.2 790.1C419.1 799.1 412.8 812.4 404.1 828.3C392.7 849.1 387.3 856.1 389.1 858.2C391.7 861.2 408.6 853.7 474.2 804.6C470.1 793.2 465.9 781.7 461.8 770C455.8 753 450 736.2 444.3 719.5C430.5 725.7 416.6 731.9 402.6 738Z" fill="#161616"/>
<path d="M587 433.2C598.1 452.1 590.2 481.4 589.1 485.3C583 508 569.2 510.2 518.6 558.1C486.9 588.2 477.8 600.4 471.1 613.8C462 632.2 458.7 649.3 457.4 660.9C461.5 684.9 465.6 708.8 469.7 732.8C459.2 739.6 444.5 747.7 425.7 753.4C412.5 757.4 400.5 759.4 390.6 760.3C381.4 737 368.2 694 375.3 641.7C383.9 578 417.6 536.3 445.6 501.7C488.2 449.1 537.5 415 579.7 393C578.3 400.5 577.5 411.3 581.7 422.7C583.7 428.1 585.9 431.3 587 433.2Z" fill="#EC615B"/>
<path opacity="0.2" d="M570.4 406.1C557.9 439.9 542.9 466.1 529.3 485.8C488.8 544.7 458.9 549.5 435 604.2C419.7 639.2 416.4 672.6 415.4 684.6C412.9 712.5 415.1 736.2 417.9 753.6C423.5 753.4 430.5 752.6 438.2 750.4C453.1 746.1 463.7 738.6 469.8 733.3C468.1 725.2 465.6 713.2 462.8 698.5C459 678.1 457.1 667.8 457.1 660.5C457.1 639 466.2 622.8 473.6 609.9C477.1 603.8 487.3 586.9 523 554.2C560.7 519.7 576.4 513.7 586.3 488.4C592.2 473.3 592.1 461.3 592 457.4C591.1 431.1 576.3 412.7 570.4 406.1Z" fill="#6D6C6C"/>
<path opacity="0.27" d="M591.9 465.6C571.4 482.8 542.1 508.5 508.4 541.5C459.5 589.5 450.8 603.5 447 610.5C436.4 630 418.2 674.4 436.2 748.5C442.1 746.1 448.2 743.4 454.6 740.3C459.7 737.8 464.6 735.2 469.2 732.7C465.2 709.3 461.2 685.9 457.2 662.4C457.5 653.6 458.9 640.4 464.8 625.7C466.2 622.2 470.3 612.5 480.6 598.5C488.8 587.3 496.7 579.7 512.2 565C524.6 553.2 536.6 540.8 549.5 529.6C572.7 509.5 583.1 504 588.7 488.5C592 479.4 592.2 471.1 591.9 465.6Z" fill="#6D6C6C"/>
<path d="M512.7 735.8C527.9 747.5 543.1 759.2 558.3 770.9C538.1 822.1 538.1 835.4 542.2 837.7C549 841.6 571.3 817.5 584 799.8C595.3 783.9 601.9 769 605.7 758.6C599.5 750.7 592.4 742.5 584.5 734.1C573.6 722.5 562.9 712.6 552.8 704C539.5 714.7 526.1 725.2 512.7 735.8Z" fill="#161616"/>
<path d="M668.7 433.2C677.6 456.8 672.2 479.6 670.8 485.3C660.6 527.7 622.7 562.7 609.3 574.9C586.4 595.9 567.4 606.4 556.8 634.4C553.1 644 551.6 652.5 551 658.3C558.3 675 565.6 691.7 572.9 708.3C568.1 718.6 557.6 737.6 536.4 752.1C527.4 758.3 518.6 762.1 511.4 764.6C496.2 749.1 455 703.1 457.2 641.6C458.9 594.4 485.6 556.4 506.2 526.9C526.9 497.4 532.2 501 558.3 463.3C580.9 430.6 585.2 415.7 604.2 409.1C623.3 402.4 651.3 406.1 663.6 422.7C666 426.2 667.1 429.1 668.7 433.2Z" fill="#EC615B"/>
<path opacity="0.24" d="M622.2 428.7C623.3 437.9 624.1 453.7 619.5 471.9C603.5 533.8 544.9 539.2 516.7 606.2C511.2 619.3 498.4 651 508.5 687.7C516.3 716.3 534.5 734.9 544.8 743.9C548.8 741.8 555.4 737.6 561.2 730.2C568.4 721 570.7 711.6 571.5 706.9C564.4 689.8 557.3 672.6 550.3 655.5C551.6 647.9 554.3 637 560.6 625.3C569.2 609.1 579.6 600.9 593 588.8C617.6 566.7 633.3 552.7 646.9 533.4C655.5 521.1 668 503 672.1 476.5C675.5 454.9 671.9 436.8 668.8 425.9C653.3 426.9 637.7 427.8 622.2 428.7Z" fill="#6D6C6C"/>
<path opacity="0.25" d="M673.1 460.8C665.2 475.3 651.6 497.9 630.6 522.1C590.2 568.6 562.8 578.3 544 614.1C535.9 629.5 528.5 654.9 537.6 695.7C549.1 700.3 560.7 704.9 572.2 709.6C564.9 692.4 557.7 675.3 550.4 658.1C551.1 649.6 553.2 637 560.3 624C566.6 612.4 573.6 606.3 589 592.3C614.5 569.1 627.3 557.5 632.5 551.7C644.4 538.6 657.4 523.9 665.6 501.2C671.6 485.1 672.9 470.6 673.1 460.8Z" fill="#6D6C6C"/>
<path d="M429.7 293.8C427 287.8 422.3 279.1 413.7 271.2C402.9 261.3 387.8 254.2 385.4 257.1C384.4 258.3 384.5 262.5 402.7 282.6" fill="white"/>
<path d="M429.7 293.8C427 287.8 422.3 279.1 413.7 271.2C402.9 261.3 387.8 254.2 385.4 257.1C384.4 258.3 384.5 262.5 402.7 282.6" stroke="#161616" stroke-width="2"/>
<path d="M392 277.4C388.1 279.8 381.2 284.9 377.5 293.7C376.1 297.1 374.3 301.5 375.6 306.6C377.9 315.4 388.5 319.1 389.4 319.5C393.7 321 394.8 319.9 397.9 321.7C402.9 324.6 402.7 328.5 406.4 332.1C414 339.4 429.4 336.5 430.1 333.4C430.5 331.7 426.1 330.1 426.5 327C426.7 325.1 428.6 324.3 429.9 323.1C436.9 316.7 430.2 298 429 294.9C427.9 292 426.2 287.8 423.2 283.1" fill="white"/>
<path d="M392 277.4C388.1 279.8 381.2 284.9 377.5 293.7C376.1 297.1 374.3 301.5 375.6 306.6C377.9 315.4 388.5 319.1 389.4 319.5C393.7 321 394.8 319.9 397.9 321.7C402.9 324.6 402.7 328.5 406.4 332.1C414 339.4 429.4 336.5 430.1 333.4C430.5 331.7 426.1 330.1 426.5 327C426.7 325.1 428.6 324.3 429.9 323.1C436.9 316.7 430.2 298 429 294.9C427.9 292 426.2 287.8 423.2 283.1" stroke="#161616" stroke-width="2"/>
<path d="M373.9 305.3C376.2 311.3 380.6 316.6 386.7 319C392.9 321.5 397.5 318.2 397.6 311.6C397.6 309.7 394.6 309.7 394.6 311.6C394.5 319.3 386.9 316.5 383.1 313.4C380.2 311.1 378.1 308 376.8 304.5C376.1 302.7 373.2 303.4 373.9 305.3Z" fill="#161616"/>
<path d="M381.4 297.1C384.4 302.7 388.4 308.9 394.6 311.2C400.2 313.3 403.5 309.9 404.1 304.6C404.3 302.7 401.3 302.7 401.1 304.6C400.2 312.5 392.5 307 389.8 304.2C387.4 301.7 385.6 298.7 384 295.6C383.1 293.9 380.5 295.4 381.4 297.1Z" fill="#161616"/>
<path d="M390.4 283.6C392.2 287.6 394 291.7 396.5 295.3C398.2 297.8 400.6 301.4 403.9 302C411.7 303.5 409.2 292.4 407.7 288.6C407 286.8 404.1 287.6 404.8 289.4C405.5 291.1 407 294.6 406.4 296.5C404.7 302 400.1 295.2 399.1 293.8C396.6 290.2 394.8 286.1 393 282.1C392.2 280.3 389.6 281.8 390.4 283.6Z" fill="#161616"/>
<path d="M391.9 279.1C394.9 277.6 398.6 280.3 400.7 282.3C402.8 284.3 404.2 286.9 405.3 289.5C406 291.3 408.9 290.5 408.2 288.7C405.7 282.5 398.3 272.6 390.4 276.5C388.7 277.3 390.2 279.9 391.9 279.1Z" fill="#161616"/>
<path d="M608.8 248.4C612 257.9 607.1 266 593.4 290.4C570.4 331 569 334.6 563.7 341C551.2 356 544.1 364.5 531 370C507.1 380 480.6 371.2 466.1 365.7C452.6 360.5 442.6 353.8 436.1 348.8C431.7 345.2 428.3 342.4 426.1 340.7C421.5 337 419.4 335.4 417.6 332.2C417.5 332.1 415.8 329 415.4 325.5C413.9 314.8 424.5 305.8 425.3 305.1C412.6 308.1 408.2 307.5 407.4 305.7C405.5 301.7 419.3 287 429 290.3C433.6 291.8 435.9 297 437.6 300.8C440.9 308 440.5 314.7 440.1 318.1C446.2 322.3 454.9 327.2 466 330.5C487.9 336.9 506.7 333.5 516 331.1C521.1 322.9 529.4 309.5 539.5 292.8C567.1 247 574.4 232.5 587.1 232.3C596.6 232.2 606 240.1 608.8 248.4Z" fill="white" stroke="#161616" stroke-width="2"/>
<path d="M424.4 307.7C415.8 307.3 414.6 318.4 413.5 324.7C414.5 324.8 415.5 325 416.4 325.1C416.5 321.1 418.3 317.8 420.2 314.4C421.2 312.7 418.6 311.2 417.6 312.9C413.7 319.2 411.3 327 416.7 333.2C417.4 332.5 418.1 331.8 418.8 331.1C417.3 329.8 416.5 328.1 416.4 326C415.4 326.1 414.4 326.3 413.5 326.4C414 328 414.6 329.5 415.4 331C416.3 332.7 418.9 331.2 418 329.5C417.3 328.3 416.7 327 416.4 325.6C416 324 413.3 324.3 413.5 326C413.8 328.9 414.7 331.1 416.8 333.2C418.2 334.6 420.2 332.5 418.9 331.1C414.5 326 417.3 319.5 420.3 314.4C419.4 313.9 418.6 313.4 417.7 312.9C415.5 316.8 413.6 320.5 413.5 325.1C413.4 326.8 416.2 327.2 416.4 325.5C417.2 320.9 417.9 310.5 424.4 310.7C426.3 310.8 426.3 307.8 424.4 307.7Z" fill="white"/>
<path opacity="0.21" d="M593.5 236.4C587.2 253.3 577 277.4 560.9 304.7C544.5 332.6 535.9 346.6 521.1 354C490.7 369.1 443.8 358.9 428 330C423.2 321.2 422.1 312.3 422.1 305.6C418.3 306.9 412.4 308.3 406.7 306.1C393.9 301 392.7 281.9 385.9 282.1C381.4 282.3 378.1 290.8 376.9 293.9C375.8 296.7 374 301.3 375.1 306.1C376.7 313.2 384.2 318.8 393.6 320.6C398.5 323 401.6 325.7 403.5 327.8C406.8 331.4 407.7 334.2 411.2 335.9C414.3 337.4 417.6 337.2 419.8 336.8C424.5 340.6 431.9 346.3 441.5 352.2C462.1 364.8 487 380 515.2 374.8C528.5 372.4 537.6 366.3 543.2 362.6C552.3 356.5 562.1 347.3 580.7 313.8C588.4 299.9 597.9 281.4 607.4 258.6C607.8 257.6 610 251.7 606.9 245.5C603.1 237.3 594 236.4 593.5 236.4Z" fill="#6D6C6C"/>
<path opacity="0.22" d="M404.3 305.9C402.9 306.9 403.5 308.9 401.8 310.4C400.6 311.4 399 311.4 398 311.4C398 312.8 397.8 314.6 396.7 316.2C395.3 318.2 393.4 318.6 393.5 319.4C393.7 320.3 396.5 319.8 399.2 321.3C401.1 322.4 402.3 324.1 403 325.4C409.6 319.1 416.2 312.9 422.8 306.6C417.8 308.5 414.1 308.2 411.6 307.6C408.4 306.6 406 304.7 404.3 305.9Z" fill="#6D6C6C"/>
<path d="M608 228.8C601.3 235.5 597.8 243.1 591 258.3C585.6 270.2 576.9 290.1 574 316.6C570.8 346.2 578.3 352.9 572.3 374.9C567.8 391.5 559.3 403.7 553 411.1C561.1 419.2 575.8 431.7 597.7 439.4C634.8 452.4 667.4 442.6 678.1 438.8C687 414.8 695.8 390.8 704.7 366.9C704.8 346.6 705.6 329.3 706.4 315.9C708.4 283.9 711.7 259.4 713.8 244.5C716.2 227 718.7 212.3 720.6 201.5C698.1 202.7 679.5 205.3 666.2 207.7C622.6 215.7 612.3 224.5 608 228.8Z" fill="white" stroke="#161616" stroke-width="2"/>
<path opacity="0.19" d="M661 208.4C665.5 219.1 671.3 236.4 672.6 258.1C675.7 309.7 650.8 350.1 631.9 380.7C623.3 394.6 610 413.9 590.3 434.8C597.9 438.8 608.8 443.3 622.5 445.5C647.3 449.5 667.5 443.5 677.5 439.7C685.9 415.5 694.2 391.4 702.6 367.2C703.1 350.7 704 333.6 705.3 316.2C708.3 275.6 713.2 237.5 719.2 202.1C699.8 204.2 680.4 206.3 661 208.4Z" fill="#6D6C6C"/>
<path opacity="0.11" d="M678.9 205.3C686.1 223.9 693.6 251 691.9 283.6C687.1 374.3 615.3 429.2 602.9 438.4C610.5 441.1 620.8 443.9 633.3 444.7C651.9 445.9 667 442.1 676.3 438.9C685.5 414.7 694.8 390.6 704 366.4C704 344.3 704.8 320.7 706.7 295.7C709.3 262 713.6 230.8 718.8 202.6C705.5 203.5 692.2 204.4 678.9 205.3Z" fill="#6D6C6C"/>
<path d="M716.9 200.2C725 203.2 736.9 209 745.5 220.7C755.1 233.8 757.2 249.6 751.7 299.7C746.6 346.3 742.2 356.3 740.5 384.3C738.6 415.1 741.5 440.3 744.2 456.4C755.6 453.7 767 451 778.4 448.3C790.8 451.6 798.3 457.7 802 461.4C805.7 465 813.5 472.6 811.3 478.8C809.9 482.8 804.8 484.8 802.6 485.6C798.3 487.3 794.7 487.1 790.8 486.8C782.5 486.3 774.2 486 765.9 485.6C761.6 485.4 755.4 485.2 747.9 485.6C758 494.3 762.3 499.9 761 502.4C759.2 505.7 747.2 503.4 724.9 495.6C723.9 487.5 722.3 475.2 719.9 460.2C713.7 421 709.2 407 706.2 386.2C703.1 364.7 704.1 345.3 706.2 306.6C707.8 279.2 710.7 243 716.9 200.2Z" fill="white" stroke="#161616" stroke-width="2"/>
<path d="M763.3 472.3C771 469.1 779 470.9 786.4 474.2C792.7 476.9 798.9 480.2 803.8 485C805.2 486.3 807.3 484.2 805.9 482.9C800.2 477.4 793.1 473.7 785.8 470.8C778.3 467.7 770.2 466.3 762.4 469.5C760.8 470.1 761.6 473 763.3 472.3Z" fill="#161616"/>
<path d="M773.1 463.1C786.4 460.5 802.2 468.4 809.5 479.7C810.6 481.3 813.2 479.8 812.1 478.2C803.9 465.7 787.1 457.4 772.3 460.3C770.4 460.6 771.2 463.5 773.1 463.1Z" fill="#161616"/>
<path d="M784.6 456.2C789.9 456.4 794.5 458.7 799.1 461.2C800.8 462.1 802.3 459.5 800.6 458.6C795.5 455.9 790.4 453.4 784.6 453.2C782.7 453.1 782.7 456.1 784.6 456.2Z" fill="#161616"/>
<path opacity="0.16" d="M718.3 202.6C723.3 213.9 730.4 232.3 734 255.9C742.7 313.7 721.3 343.8 725.1 406.3C726 421.8 728.9 444.9 738.1 473C746.1 470.4 758.3 467.8 772.6 469.4C782.7 470.6 787.7 471.2 792.7 474.8C797.7 478.4 800.6 483.2 805.7 482.9C807.7 482.8 810.4 481.9 811.5 479.8C814.2 474.9 806.8 466.5 804.3 463.7C800.7 459.6 793.3 452.6 779.7 448.5C767.9 450.9 756.1 453.3 744.3 455.7C742 445.5 738.8 428.5 738.5 407.4C738.2 389.4 741.4 367.6 747.9 324.6C749.1 316.6 750.6 300.5 753.7 268.2C754.7 257.6 755.5 248.1 751.9 236.4C750.1 230.5 745.7 217.1 732.7 208.7C727.2 204.9 721.9 203.4 718.3 202.6Z" fill="#6D6C6C"/>
<path opacity="0.22" d="M740.2 485C741.5 488.2 744.3 493.7 750 498C753.5 500.6 759.6 503.8 760.7 502.5C762.1 500.9 756.8 492.1 748.6 487.7C745.5 486 742.4 485.3 740.2 485Z" fill="#6D6C6C"/>
<path opacity="0.4" d="M751.4 284.9C742.3 309.9 731.4 350 734.4 399.5C735.9 424.8 740.8 446.6 746 463.9C740.8 444.1 739.3 427.7 738.8 416.5C737.6 386.6 743 369.8 748.6 314.9C750 302.2 750.9 291.7 751.4 284.9Z" fill="#6D6C6C"/>
<path opacity="0.22" d="M771.6 460.8C771.4 459.6 781.4 455 791.3 457.2C804.6 460.2 810.8 474.2 811.9 476.9C807.2 471.6 799.6 464.7 788.6 462.1C779.3 460 771.7 461.8 771.6 460.8Z" fill="#6D6C6C"/>
<path d="M571.2 179.7C567 183.6 566.1 191.8 564.4 207.9C562.5 226.4 561.7 235.8 565.6 240.5C572.7 249.1 588 249.6 598.6 244.9C611.1 239.3 615.4 227.2 616.5 224.2C621.4 210.3 619.8 189.3 605 179.7C595 173.1 579.5 172 571.2 179.7Z" fill="#5222D0"/>
<path d="M592.8 194.3C594.3 201.5 602.3 202.1 609.1 213.6C614 221.9 615 230.4 615.1 236.5C621.2 236.4 632.5 235.2 644.7 228.9C654.2 223.9 660.6 217.6 664.3 213.3C661.8 209.2 658.1 203.2 653.7 196C634.7 165.5 631.9 163.1 628.1 162.1C612.7 158.4 589.9 180.9 592.8 194.3Z" fill="white" stroke="#161616" stroke-width="2"/>
<path d="M623.9 182.2C619.3 191.9 614.6 201.5 608.2 210.2C609 210.1 609.8 210 610.6 209.9C610 209.2 609.4 208.4 608.9 207.7C608.8 208.3 608.7 208.9 608.7 209.5C611.3 207.3 613.3 204.9 615.1 202C614.2 201.5 613.4 201 612.5 200.5C611.1 203.5 609.3 205.3 606.4 206.6C607 207.4 607.6 208.2 608.2 209C613.4 204.1 618.1 198.7 622.3 192.9C623.4 191.3 620.8 189.8 619.7 191.4C615.7 197 611.1 202.2 606.1 206.9C604.8 208.1 606.5 209.9 607.9 209.3C611.2 207.8 613.6 205.4 615.1 202.1C615.9 200.4 613.6 198.9 612.5 200.6C610.8 203.2 608.9 205.4 606.6 207.5C606.1 207.9 606 208.8 606.4 209.3C607.3 210.7 607.4 210.9 608.6 212.1C609.3 212.9 610.4 212.5 611 211.8C617.4 203.2 622.1 193.5 626.7 183.8C627.3 182 624.7 180.5 623.9 182.2Z" fill="#161616"/>
<path d="M527 105.4C522.4 113.9 523.5 122.5 525.7 139.3C528.3 158.3 531.7 174.2 535.8 184.7C536.4 186.3 538 187.2 539.7 187C541.9 186.8 545.2 185.1 547.1 184.5C549.5 188.8 553.5 194.6 559.7 200C572 210.6 585.5 213.1 591.5 213.8C597.4 211.6 612 205.1 621.7 189.5C628.1 179.1 629.4 169.5 629.7 167.3C631.4 152.9 626.6 141.7 624.3 137.1C626.4 135.8 629.6 133.5 631.8 129.6C636.4 121.5 636.2 108.1 628.9 104.5C623.4 101.8 614.7 104.8 608.8 112.5C606.9 109.2 604 104.8 599.6 100.4C598.5 99.3 590.4 91.1 581.2 87.4C563.2 80.3 536.4 88.1 527 105.4Z" fill="white" stroke="#161616" stroke-width="2"/>
<path d="M553.4 193.7C560.3 191.9 564.3 186.1 567.8 180.4C568.8 178.8 566.2 177.3 565.2 178.9C562.1 183.9 558.6 189.2 552.6 190.9C550.7 191.3 551.5 194.2 553.4 193.7Z" fill="#161616"/>
<path d="M562.5 180.2C564.5 180.3 566.1 181.1 567.4 182.6C568.7 184.1 570.8 181.9 569.5 180.5C567.7 178.4 565.2 177.3 562.5 177.2C560.5 177.2 560.5 180.2 562.5 180.2Z" fill="#161616"/>
<path d="M554.9 163.7C554.9 163.6 554.9 163.5 554.9 163.4C554.9 162.6 554.2 161.9 553.4 161.9C552.6 161.9 551.9 162.6 551.9 163.4C551.9 163.5 551.9 163.6 551.9 163.7C551.9 164.5 552.6 165.2 553.4 165.2C554.2 165.1 554.9 164.5 554.9 163.7Z" fill="#161616"/>
<path d="M561.6 155.7C563.5 155.7 563.5 152.7 561.6 152.7C559.7 152.7 559.7 155.7 561.6 155.7Z" fill="#161616"/>
<path d="M560.7 163.3C562.6 163.3 562.6 160.3 560.7 160.3C558.8 160.3 558.8 163.3 560.7 163.3Z" fill="#161616"/>
<path d="M522.7 139.5C519.5 138.4 512.7 135.5 508.8 128.8C502.7 118.4 507.6 106.3 510 100.6C511.3 97.4 514.9 89.5 532.3 74C545.5 62.1 552.2 56.2 559.7 52.9C586.5 41.2 613.9 52.4 618.9 54.5C626.3 57.5 631.7 61.2 642.4 68.4C655.4 77.2 663.7 82.9 670.2 92.7C678.1 104.7 673.3 107.8 680.1 121.3C690.9 142.7 705.8 140.1 714.7 159.9C716.2 163.2 724.5 181.6 715.1 197.7C707.4 210.8 691.7 215.5 680.1 215.2C658.6 214.6 645.1 196.2 638 186.6C624.5 168.3 621.9 148.9 621.3 138.5C629.8 134.2 633.1 125 630 118.6C627.6 113.5 620.6 109.2 614.5 111.8C610.3 113.6 607.6 118.4 607.7 123.7C603.7 124.4 591.4 125.9 578.7 118.9C569.3 113.8 564.2 106.6 562 103C556.4 105.2 547.4 109.4 538.5 117.7C530 125.7 525.2 134.1 522.7 139.5Z" fill="#5222D0"/>
<path opacity="0.24" d="M587.9 145.3C599 155.7 604.4 167.2 606.1 171.1C613.1 187.1 612.7 201.8 612 209.3C615.6 203.2 619.1 197.1 622.7 190.9C628.5 203.9 634.2 216.9 640 229.8C643.1 229.1 649.2 227.3 655.1 222.1C659.6 218.1 662 213.8 663.2 211.1C654.8 205.1 638.3 191.5 628.7 168.1C624.1 156.9 622.3 146.5 621.7 138.7C629.8 134.3 633.2 125.5 630.5 118.9C628.6 114.1 622.7 108.7 616.2 110.5C610.7 112 606.9 117.9 607.8 124.5C603.6 125 593.6 125.7 582.5 120.8C571 115.7 564.7 107.4 562.3 103.9C565 121.6 571.8 131.2 577.5 136.7C581.1 140.4 582.6 140.4 587.9 145.3Z" fill="#6D6C6C"/>
<path opacity="0.24" d="M621.9 150.1C621.2 150.1 621.6 160.4 620.6 169.9C619.3 182.1 615.7 191.8 612.7 198.3C615.4 196.6 619.4 193.4 622.9 188.4C627.9 181.1 628.8 173.9 629.1 170.4C628.2 169 627 167 625.9 164.5C622.4 156.5 622.5 150.1 621.9 150.1Z" fill="#6D6C6C"/>
<path opacity="0.19" d="M625.4 184.8C627.8 187.3 631.2 190.6 635.6 194.2C648.9 205.3 661.8 211.6 662.2 210.9C662.6 210.2 650 205.1 640.4 191.3C634.4 182.7 630.9 172.5 629.4 173C628.7 173.2 629.3 175.6 628.1 179.5C627.3 181.8 626.2 183.6 625.4 184.8Z" fill="#6D6C6C"/>
<path opacity="0.74" d="M636.5 64.7C648.3 85.1 656.7 102.9 662.4 116.1C678.3 153.2 677 163.4 674.8 170C669.9 184.9 656.3 193.3 648.2 197.3C650.2 200.1 658.5 211.2 673.7 214.3C676.6 214.9 694.1 218.2 707.4 206.1C717.3 197.2 718.8 185.4 719.1 182.3C720.9 165.5 710.9 152.9 707.7 149.3C703.5 144.6 702.6 145.7 692.8 136.2C685.2 128.9 681.5 125.2 679.3 120.6C675.8 113.1 678.1 109.9 674 100.4C671.8 95.2 669.2 91.7 667.3 89C657.6 75.9 643.6 68.2 636.5 64.7Z" fill="#2C167C"/>
<path opacity="0.52" d="M565.4 213.2C566.3 224.8 576.9 233.2 588 231.6C598.7 230 606.4 219.6 604.5 208.5C606.5 210.8 609.3 214.6 611.3 219.8C612.9 223.9 613.5 227.6 613.7 230.3C612.2 232.8 604.4 245.2 589.8 247.6C587.3 248 573.1 250.1 566.4 241.6C563.2 237.4 562.9 232.3 562.7 228.2C562.5 221.5 564.2 216.2 565.4 213.2Z" fill="#2C167C"/>
<path d="M546.6 147.2C547.6 149.2 547.6 152.1 546.3 152.7C545 153.4 542.5 151.5 541.6 149.3C540.9 147.4 541.1 144.7 542.4 144.2C543.8 143.7 545.8 145.5 546.6 147.2Z" fill="#161616"/>
<path d="M538.4 144.9C541.9 143.7 545.5 142.8 549.2 142.2C550.6 142 550 139.8 548.6 140C544.9 140.6 541.3 141.5 537.8 142.7C536.4 143.2 537 145.3 538.4 144.9Z" fill="#161616"/>
</svg>
