<svg width="1344" height="1047" viewBox="0 0 1344 1047" fill="none" xmlns="http://www.w3.org/2000/svg">
<path d="M949.8 162.4C950 165.5 950.1 168.6 950.3 171.6C950.3 172.2 950.7 173 951.4 173C1035.6 184.6 1120.5 174.8 1205 175C1228.9 175 1252.7 175.9 1276.5 178.2C1277.1 178.3 1277.8 177.7 1277.9 177.1C1278.7 173 1279.6 168.9 1280.4 164.8C1280.8 162.9 1277.9 162.1 1277.5 164C1276.7 168.1 1275.8 172.2 1275 176.3C1275.5 175.9 1276 175.6 1276.4 175.2C1192.7 167 1108.7 177.3 1024.8 175.5C1000.5 175 976.2 173.4 952.1 170.1C952.5 170.6 952.8 171.1 953.2 171.5C953 168.4 952.9 165.3 952.7 162.3C952.7 160.5 949.7 160.5 949.8 162.4Z" fill="#E8E8E8"/>
<path d="M952.3 163.9C1036.9 163.9 1121.6 163.9 1206.2 163.9C1230.2 163.9 1254.2 163.9 1278.2 163.9C1280.1 163.9 1280.1 160.9 1278.2 160.9C1193.6 160.9 1108.9 160.9 1024.3 160.9C1000.3 160.9 976.3 160.9 952.3 160.9C950.4 160.9 950.4 163.9 952.3 163.9Z" fill="#E8E8E8"/>
<path d="M970.5 161.5C973 125.6 975.1 89.5999 978.2 53.7999C978.6 49.0999 979.1 44.4999 979.9 39.8999C980.2 38.1999 980.3 34.6999 981.3 33.2999C982.6 31.4999 985.4 31.4999 987.4 31.1999C992 30.3999 999.7 27.5999 1002.9 32.2999C1003.8 33.6999 1004 36.5999 1004.3 38.2999C1004.9 41.2999 1005.3 44.2999 1005.6 47.2999C1007.2 64.8999 1004.9 82.7999 1003.6 100.4C1002.1 120.8 1000.6 141.2 999.1 161.6C999 163.5 1002 163.5 1002.1 161.6C1004.3 132.4 1006.7 103.3 1008.5 74.0999C1009.3 60.7 1009.7 46.9999 1006.4 33.7999C1005.5 30.0999 1004.1 26.9999 999.9 26.5999C993.5 26.0999 986.1 28.2999 979.9 29.5999C979.4 29.6999 979 30.1999 978.9 30.5999C973.6 51.2999 973.8 73.5999 972.3 94.7999C970.7 117 969.2 139.3 967.6 161.5C967.4 163.4 970.4 163.4 970.5 161.5Z" fill="#E8E8E8"/>
<path d="M1007.7 71.2C1019.9 101.9 1032.8 132.3 1046.3 162.4C1047.1 164.2 1049.7 162.6 1048.9 160.9C1035.5 131 1022.7 100.8 1010.6 70.4C1009.9 68.6 1007 69.4 1007.7 71.2Z" fill="#E8E8E8"/>
<path d="M1010.3 55.1C1012.8 48 1020.5 44.1 1027.7 46.1C1029.6 46.6 1030.4 43.7 1028.5 43.2C1019.7 40.7 1010.4 45.7 1007.4 54.3C1006.8 56.2 1009.7 56.9 1010.3 55.1Z" fill="#E8E8E8"/>
<path d="M1027.7 46.7C1047.5 85.1 1067.2 123.6 1087 162C1087.9 163.7 1090.5 162.2 1089.6 160.5C1069.8 122.1 1050.1 83.6 1030.3 45.2C1029.4 43.4 1026.8 44.9 1027.7 46.7Z" fill="#E8E8E8"/>
<path d="M1079.8 20.9C1083 67.4 1086.2 113.9 1089.3 160.4C1089.4 162.3 1092.4 162.3 1092.3 160.4C1089.1 113.9 1085.9 67.4 1082.8 20.9C1082.7 19 1079.7 19 1079.8 20.9Z" fill="#E8E8E8"/>
<path d="M1082.4 22.5C1087.5 17.9 1094.4 17.9 1100.8 19C1103.4 19.4 1106.2 19.9 1108.7 20.8C1113.3 22.5 1112.6 26.7 1112.8 30.8C1113.4 45.1 1113.9 59.4 1114.5 73.7C1115.6 102.6 1116.8 131.6 1117.9 160.5C1118 162.4 1121 162.4 1120.9 160.5C1119.5 125.9 1118.2 91.3 1116.8 56.8C1116.5 48.2 1116.1 39.5 1115.8 30.9C1115.6 26.5 1116.2 21.1 1111.6 18.7C1106.8 16.2 1099.4 15.3 1094 15.4C1088.8 15.5 1084.2 16.9 1080.4 20.4C1078.9 21.6 1081 23.8 1082.4 22.5Z" fill="#E8E8E8"/>
<path d="M1030.1 45C1039.6 45.6 1048.9 48.4 1058 51C1066.4 53.4 1074.6 56.4 1081.7 61.6C1083.3 62.7 1084.8 60.1 1083.2 59C1075.8 53.7 1067.4 50.6 1058.7 48.1C1049.3 45.4 1039.8 42.7 1030 42C1028.1 41.8 1028.1 44.8 1030.1 45Z" fill="#E8E8E8"/>
<path d="M1116.3 39.7C1120.7 38.6 1125.6 37.5 1130.2 38.4C1137 39.8 1138.4 45.8 1138.7 51.9C1139.2 64.2 1139.4 76.4 1139.7 88.7C1140.3 112.9 1140.6 137.1 1140.7 161.3C1140.7 163.2 1143.7 163.2 1143.7 161.3C1143.6 132.4 1143.2 103.6 1142.4 74.8C1142.2 67.8 1142 60.9 1141.8 53.9C1141.6 49.3 1141.7 44.2 1138.9 40.3C1133.7 33 1123 34.8 1115.6 36.7C1113.6 37.3 1114.4 40.2 1116.3 39.7Z" fill="#E8E8E8"/>
<path d="M1138.2 23.9C1138.2 32.9 1138.2 41.8 1138.2 50.8C1138.2 52.7 1141.2 52.7 1141.2 50.8C1141.2 41.8 1141.2 32.9 1141.2 23.9C1141.2 22 1138.2 22 1138.2 23.9Z" fill="#E8E8E8"/>
<path d="M1142.6 25C1143.4 25.3 1144.3 25.6 1145.1 25.9C1145.2 26.6 1145.3 27.3 1145.4 28.1C1145.6 29.7 1145.6 31.4 1145.8 33.1C1146 35.7 1146.2 38.4 1146.4 41C1146.8 46.6 1147.1 52.3 1147.4 57.9C1148.1 69.5 1148.6 81.1 1149 92.7C1149.9 115.6 1150.2 138.5 1150.2 161.4C1150.2 163.3 1153.2 163.3 1153.2 161.4C1153.2 132.9 1152.6 104.3 1151.3 75.8C1150.6 61.9 1149.8 48 1148.8 34.1C1148.6 30.7 1149.2 24.5 1146.1 22.1C1144 20.5 1141.1 21.1 1140 23.5C1139.3 25.3 1141.8 26.8 1142.6 25Z" fill="#E8E8E8"/>
<path d="M995.2 177.1C998.3 182.3 1001.3 190.1 1006.3 193.8C1011.2 197.5 1017.2 194.2 1022.6 196.1C1024.4 196.7 1025.2 193.8 1023.4 193.2C1018.6 191.5 1013 194.2 1008.7 191.5C1003.8 188.5 1000.7 180.4 997.8 175.5C996.8 173.9 994.2 175.4 995.2 177.1Z" fill="#E8E8E8"/>
<path d="M1026.6 178.4C1026.2 183.6 1024.6 188.3 1022 192.7C1021 194.4 1023.6 195.9 1024.6 194.2C1027.6 189.3 1029.2 184 1029.6 178.4C1029.8 176.5 1026.8 176.5 1026.6 178.4Z" fill="#E8E8E8"/>
<path d="M1018.1 180.9C1019 185.5 1019.9 190.1 1020.9 194.7C1021.3 196.6 1024.2 195.8 1023.8 193.9C1022.9 189.3 1022 184.7 1021 180.1C1020.6 178.2 1017.7 179 1018.1 180.9Z" fill="#E8E8E8"/>
<path d="M1021.7 180.8C1021.9 180.8 1022.1 180.9 1022.3 181C1022.6 181.6 1022.6 182.2 1022.5 182.8C1022.4 183.5 1022.1 184.2 1021.9 184.9C1021.5 186.3 1021.4 187.6 1021.8 189C1022.4 190.9 1025 190.1 1024.7 188.2C1024.2 185.5 1024.6 182.8 1025.7 180.3C1024.7 180.2 1023.7 180 1022.8 179.9C1022.5 183 1022.3 186.2 1022 189.3C1021.8 191.2 1024.8 191.2 1025 189.3C1025.3 186.2 1025.5 183 1025.8 179.9C1026 178.1 1023.4 178.1 1022.9 179.5C1021.6 182.6 1021.4 185.8 1021.9 189C1022.9 188.7 1023.8 188.5 1024.8 188.2C1023.9 185.2 1027.4 181.5 1024.4 178.8C1022.6 177.2 1019.7 177.8 1019 180.1C1018.2 181.9 1021.1 182.7 1021.7 180.8Z" fill="#E8E8E8"/>
<path d="M1178.4 158.9C1177.5 155.2 1177.1 151.6 1177.4 147.8C1176.9 148.3 1176.4 148.8 1175.9 149.3C1193.6 148.4 1211.3 147.3 1229 146.9C1237.9 146.7 1246.8 146.7 1255.7 146.9C1257.7 146.9 1259.7 147 1261.6 147C1263.6 147.1 1267.7 146.4 1269.5 147.3C1273.5 149.2 1271.8 156.9 1271.8 160.4C1271.8 162.3 1274.8 162.3 1274.8 160.4C1274.8 155.7 1277.2 145.7 1270.8 144.4C1266.4 143.5 1261.2 144 1256.7 143.9C1251.1 143.8 1245.5 143.7 1239.9 143.8C1218.6 143.9 1197.3 145.2 1175.9 146.3C1175.1 146.3 1174.4 147 1174.4 147.8C1174.2 151.9 1174.5 155.8 1175.6 159.7C1175.9 161.6 1178.8 160.8 1178.4 158.9Z" fill="#E8E8E8"/>
<path d="M1189.5 128.8C1190.7 134.3 1191.6 139.8 1192 145.4C1192.1 147.3 1195.1 147.3 1195 145.4C1194.6 139.5 1193.7 133.7 1192.4 128C1192 126.2 1189.1 127 1189.5 128.8Z" fill="#E8E8E8"/>
<path d="M1191.5 130.7C1203.6 129.7 1215.7 128.6 1227.8 129.1C1239.2 129.6 1250.7 133.3 1262.1 132.1C1261.6 131.6 1261.1 131.1 1260.6 130.6C1260.2 135.9 1260.8 140.9 1262.5 146C1263.1 147.8 1266 147 1265.4 145.2C1263.8 140.4 1263.2 135.7 1263.6 130.6C1263.7 129.8 1262.9 129 1262.1 129.1C1250.7 130.2 1239.2 126.5 1227.8 126.1C1215.7 125.6 1203.5 126.7 1191.5 127.7C1189.6 127.8 1189.6 130.8 1191.5 130.7Z" fill="#E8E8E8"/>
<path d="M1089.7 441C1089.7 445.2 1089.7 449.3 1089.7 453.5C1089.7 455.4 1092.7 455.4 1092.7 453.5C1092.7 449.3 1092.7 445.2 1092.7 441C1092.7 439.1 1089.7 439.1 1089.7 441Z" fill="#E8E8E8"/>
<path d="M1091.2 440C1169 440 1246.8 440 1324.6 440C1326.5 440 1326.5 437 1324.6 437C1246.8 437 1169 437 1091.2 437C1089.2 437 1089.2 440 1091.2 440Z" fill="#E8E8E8"/>
<path d="M1093.6 453.8C1170.2 453.8 1246.7 453.8 1323.3 453.8C1325.2 453.8 1325.2 450.8 1323.3 450.8C1246.7 450.8 1170.2 450.8 1093.6 450.8C1091.7 450.8 1091.7 453.8 1093.6 453.8Z" fill="#E8E8E8"/>
<path d="M1323.1 441C1323.1 443.9 1323.1 446.8 1323.1 449.7C1323.1 451.6 1326.1 451.6 1326.1 449.7C1326.1 446.8 1326.1 443.9 1326.1 441C1326.1 439.1 1323.1 439.1 1323.1 441Z" fill="#E8E8E8"/>
<path d="M1112.8 407.3C1115.4 417.6 1117.8 428 1119.8 438.4C1120.2 440.3 1123.1 439.5 1122.7 437.6C1120.7 427.2 1118.4 416.8 1115.7 406.5C1115.2 404.6 1112.3 405.4 1112.8 407.3Z" fill="#E8E8E8"/>
<path d="M1164.8 406.4C1162.4 416.7 1160.4 427 1158.9 437.4C1158.6 439.3 1161.5 440.1 1161.8 438.2C1163.3 427.8 1165.3 417.4 1167.7 407.2C1168.1 405.3 1165.2 404.5 1164.8 406.4Z" fill="#E8E8E8"/>
<path d="M1104.6 401.7C1104.8 406.9 1112.6 406.5 1116.4 406.7C1125 407.1 1133.7 405.8 1142.3 405.3C1146.6 405 1150.9 404.9 1155.2 405.3C1158.7 405.6 1162.5 406.8 1165.9 406.1C1169.7 405.3 1172.1 401.7 1169.9 398.2C1168.9 396.6 1166.3 398.1 1167.3 399.7C1170.1 404.4 1160.6 402.9 1159.7 402.8C1157.6 402.5 1155.4 402.3 1153.3 402.2C1148.4 401.9 1143.4 402.2 1138.5 402.6C1135.3 402.8 1107.7 406.1 1107.6 401.7C1107.6 399.7 1104.6 399.7 1104.6 401.7Z" fill="#E8E8E8"/>
<path d="M1108.1 401.3C1106.3 395.7 1121.8 396.3 1124.4 396.2C1129 396 1133.7 395.8 1138.3 395.6C1140.8 395.5 1166.8 394.8 1166.1 396.7C1165.5 398.5 1168.4 399.3 1169 397.5C1172 388.6 1139.5 392.5 1135.3 392.7C1127.5 393 1118.8 392.3 1111.2 393.8C1107.2 394.6 1103.8 397.6 1105.2 402C1105.8 403.9 1108.7 403.1 1108.1 401.3Z" fill="#E8E8E8"/>
<path d="M1121.4 393C1116.8 390.9 1112.7 387.9 1109.5 384.1C1108.2 382.5 1099 369.2 1104.4 368.4C1105.3 368.3 1105.8 366.9 1105.3 366.2C1102.4 362 1101.2 356.6 1099.7 351.8C1098 346.6 1096.4 341.4 1094.7 336.3C1094.4 335.2 1093.9 334.2 1093.7 333.1C1093.2 331 1092.9 331 1095.4 330.8C1098.1 330.6 1099.5 332.7 1101.3 334.5C1104.7 337.9 1107.7 341.6 1110.4 345.5C1120.5 360.1 1126.1 377.3 1130.3 394.4C1130.8 396.3 1133.7 395.5 1133.2 393.6C1127.8 371.8 1119.9 349.4 1103.9 332.9C1101.7 330.6 1097.5 325.3 1093.8 325.9C1091 326.4 1090.2 329.4 1090.4 331.9C1090.8 337.5 1093.8 343.6 1095.6 349C1097.6 355.2 1098.9 362.4 1102.7 367.8C1103 367.1 1103.3 366.3 1103.6 365.6C1097 366.6 1100.8 375.8 1102.6 379.4C1106.4 386.7 1112.5 392.3 1119.9 395.8C1121.6 396.4 1123.1 393.8 1121.4 393Z" fill="#E8E8E8"/>
<path d="M1124.8 365.6C1124.5 352.9 1124.2 339.7 1128.5 327.6C1130.6 321.7 1133.8 316.4 1137.5 311.4C1138.4 310.1 1139.4 308 1140.8 307.2C1141.8 305.6 1143.3 305.4 1145.2 306.7C1147.6 306.1 1148.8 306.7 1148.8 308.5C1150 311.2 1149.6 315.8 1149.6 318.6C1149.6 325.3 1148 331.5 1146.4 337.9C1145.8 340.1 1145.3 342.4 1145.5 344.6C1145.7 347.2 1147.1 349.2 1147.8 351.6C1149.8 358.4 1146.3 365.4 1143.9 371.6C1141.5 378.1 1139 384.6 1136.6 391.2C1135.9 393 1138.8 393.8 1139.5 392C1142.7 383.4 1146.1 374.9 1149.1 366.2C1151.2 360.1 1152.2 354.8 1149.8 348.8C1146.6 340.7 1151.7 331.6 1152.4 323.3C1152.8 317.9 1153.7 308.7 1150.2 303.9C1142.6 293.4 1130.5 315.8 1128.1 320.8C1121.3 334.8 1121.4 350.5 1121.8 365.7C1121.9 367.6 1124.9 367.6 1124.8 365.6Z" fill="#E8E8E8"/>
<path d="M1099.6 341C1109.5 354.9 1115.4 371.6 1122.3 387.1C1123.1 388.9 1125.7 387.3 1124.9 385.6C1118.1 370 1112.1 353.4 1102.2 339.5C1101.1 337.9 1098.5 339.4 1099.6 341Z" fill="#E8E8E8"/>
<path d="M1127.2 333.9C1127.6 339.2 1129.4 343.9 1132.7 348C1133.9 349.5 1136 347.4 1134.8 345.9C1132.1 342.4 1130.5 338.3 1130.2 333.9C1130.1 332 1127.1 332 1127.2 333.9Z" fill="#E8E8E8"/>
<path d="M1140.8 333.2C1143.2 329.6 1145.7 326 1148.1 322.4C1149.2 320.8 1146.6 319.3 1145.5 320.9C1143.1 324.5 1140.6 328.1 1138.2 331.7C1137.2 333.3 1139.8 334.8 1140.8 333.2Z" fill="#E8E8E8"/>
<path d="M1170.6 331.2C1168.1 335.2 1164.5 338.3 1161.2 341.5C1157.6 344.9 1154 348.4 1150.4 351.8C1149 353.1 1151.1 355.3 1152.5 353.9C1159.4 347.3 1168.1 340.9 1173.2 332.7C1174.2 331.1 1171.6 329.6 1170.6 331.2Z" fill="#E8E8E8"/>
<path d="M1169.3 335.2C1169.5 340.5 1178.3 350.3 1171.5 353.5C1170.6 354 1170.6 355.2 1171.2 355.9C1173.5 358.7 1172 362.9 1171.7 366.2C1171.4 369.9 1171.7 373.6 1170.7 377.2C1168.9 384.1 1162.5 388.2 1156.8 391.8C1155.2 392.8 1156.7 395.4 1158.3 394.4C1165.2 390 1172.3 385 1173.9 376.4C1174.7 371.8 1174.7 367 1175.1 362.4C1175.5 359.1 1175.4 356.5 1173.2 353.9C1173.1 354.7 1173 355.5 1172.9 356.3C1182.4 351.8 1172.4 341.6 1172.2 335.4C1172.2 333.3 1169.2 333.3 1169.3 335.2Z" fill="#E8E8E8"/>
<path d="M1164.5 349.9C1157.6 361 1151.7 372.6 1146.8 384.8C1146.1 386.6 1149 387.4 1149.7 385.6C1154.5 373.7 1160.3 362.3 1167.1 351.4C1168.1 349.7 1165.5 348.2 1164.5 349.9Z" fill="#E8E8E8"/>
<path d="M1118.1 427.8C1122.1 433.2 1127.6 436.9 1134.2 438.3C1136.1 438.7 1136.9 435.8 1135 435.4C1129.2 434.2 1124.2 431.1 1120.7 426.3C1119.6 424.8 1117 426.3 1118.1 427.8Z" fill="#E8E8E8"/>
<path d="M1116.4 415.5C1126.7 423.4 1137.6 434.7 1150.8 437.4C1152.7 437.8 1153.5 434.9 1151.6 434.5C1138.8 431.9 1128 420.6 1117.9 412.9C1116.4 411.7 1114.9 414.3 1116.4 415.5Z" fill="#E8E8E8"/>
<path d="M1124.3 407.9C1130.5 413 1136.5 418.2 1142.8 423.1C1145.5 425.2 1148.3 427.2 1151.6 428.5C1154.7 429.8 1158 430.4 1160.8 432.4C1162.4 433.5 1163.9 430.9 1162.3 429.8C1160.1 428.3 1157.9 427.6 1155.5 426.7C1151.4 425.3 1148.1 423.4 1144.7 420.7C1138.5 415.9 1132.5 410.8 1126.5 405.8C1124.9 404.6 1122.8 406.7 1124.3 407.9Z" fill="#E8E8E8"/>
<path d="M1140.7 406.5C1146.5 412.5 1153.5 416.9 1161.5 419.5C1163.3 420.1 1164.1 417.2 1162.3 416.6C1154.8 414.1 1148.3 410 1142.8 404.3C1141.5 403 1139.3 405.1 1140.7 406.5Z" fill="#E8E8E8"/>
<path d="M1214.3 435.6C1213.7 434 1212.8 431.9 1212.9 430.2C1213.3 425.8 1216.3 425.4 1219.2 424.9C1223.4 424.1 1227.8 424 1232.1 424C1239.4 423.9 1246.8 424.5 1254.1 424.8C1261.4 425 1268.6 424.6 1275.9 424C1278.9 423.7 1284.2 422.5 1287.1 423.5C1290.1 424.6 1290.9 426.1 1291 428.9C1291.1 431.1 1291.1 433.3 1291.2 435.6C1291.3 437.5 1294.3 437.5 1294.2 435.6C1294.1 432.2 1295.1 426.2 1293.4 423C1291.8 420.2 1288.1 420.5 1285.3 420.5C1273.9 420.5 1262.8 422.2 1251.3 421.7C1240.7 421.3 1230 420.4 1219.5 422C1210.9 423.3 1208.7 428.6 1211.6 436.6C1212 438.2 1214.9 437.4 1214.3 435.6Z" fill="#E8E8E8"/>
<path d="M1235.5 419.5C1236.3 417.7 1237 415.9 1237.8 414.1C1238.7 414 1239.6 413.9 1240.5 413.7C1241.7 413.6 1242.8 413.7 1244 413.6C1246.6 413.6 1249.1 413.5 1251.7 413.5C1257.2 413.4 1262.6 413.4 1268.1 413.3C1273.2 413.2 1278.4 413.2 1283.5 413.1C1284.8 413.1 1286.1 413.1 1287.4 413C1289 413 1289.5 412.6 1290 413.8C1290.6 415.3 1289.5 419.5 1289.3 421.1C1289.1 423 1292.1 423 1292.3 421.1C1292.5 418.7 1294 413.7 1292.8 411.5C1291.8 409.7 1290.3 410 1288.3 410C1278.7 410 1269 410.3 1259.4 410.4C1254.9 410.5 1250.4 410.5 1245.9 410.6C1242.5 410.6 1238.3 410.2 1235.2 411.8C1231.6 413.7 1229.9 418.6 1233.4 421.5C1234.9 422.8 1237 420.7 1235.5 419.5Z" fill="#E8E8E8"/>
<path d="M1256.1 407.3C1253.5 403.8 1264.4 404.2 1265.1 404.1C1267.5 403.9 1275.7 402.4 1274.1 407.8C1273.5 409.7 1276.4 410.4 1277 408.6C1277.7 406.2 1276.9 404 1275 402.4C1271.7 399.7 1267.6 401 1263.7 401.2C1260.6 401.3 1256.9 400.3 1254.4 402.7C1252.6 404.3 1252.1 406.8 1253.5 408.8C1254.7 410.3 1257.3 408.8 1256.1 407.3Z" fill="#E8E8E8"/>
<path d="M1103.1 456C1106.9 461.2 1111.4 465.5 1116.7 469.1C1118.3 470.2 1119.8 467.6 1118.2 466.5C1113.4 463.2 1109.1 459.2 1105.7 454.4C1104.5 452.9 1101.9 454.4 1103.1 456Z" fill="#E8E8E8"/>
<path d="M1116.3 468.1C1119.6 468.1 1122.9 468.1 1126.2 468.1C1128.1 468.1 1131.2 468.6 1132.9 467.7C1134.2 467 1134.6 465.4 1135.2 464.2C1136.8 461 1138.7 458 1140.9 455.1C1142.1 453.6 1140 451.5 1138.8 453C1137.7 454.3 1136.7 455.7 1135.7 457.1C1134.5 459 1133.7 461.7 1132.3 463.4C1129.5 466.7 1120.4 465.2 1116.3 465.1C1114.4 465.1 1114.4 468.1 1116.3 468.1Z" fill="#E8E8E8"/>
<path d="M1127.4 455.8C1128.2 458.8 1129 461.9 1129.9 464.9C1130.4 466.8 1133.3 466 1132.8 464.1C1132 461.1 1131.2 458 1130.3 455C1129.8 453.1 1126.9 453.9 1127.4 455.8Z" fill="#E8E8E8"/>
<path d="M1249.3 455.3C1250.9 458.6 1252.6 461.8 1254.7 464.8C1255.8 466.4 1257.2 468.9 1259.1 469.8C1261.1 470.8 1263.9 470 1265.9 469.8C1269.5 469.4 1273.1 469.1 1276.7 468.7C1278.6 468.5 1278.6 465.5 1276.7 465.7C1274.3 465.9 1271.9 466.2 1269.5 466.4C1267.4 466.6 1264.3 467.5 1262.3 467.1C1257.1 466.1 1253.9 457.9 1251.9 453.7C1251 452 1248.4 453.5 1249.3 455.3Z" fill="#E8E8E8"/>
<path d="M1276.8 452.8C1275.6 457.1 1275 461.5 1275.1 465.9C1275.2 467.8 1278.2 467.8 1278.1 465.9C1278 461.7 1278.5 457.6 1279.6 453.6C1280.2 451.8 1277.3 451 1276.8 452.8Z" fill="#E8E8E8"/>
<path d="M1278.1 467.4C1282.1 463.6 1285.9 459.6 1289.6 455.5C1290.9 454.1 1288.8 451.9 1287.5 453.4C1283.8 457.5 1280 461.5 1276 465.3C1274.6 466.6 1276.7 468.7 1278.1 467.4Z" fill="#E8E8E8"/>
<path d="M635.9 162.4C635.9 190.6 635.9 218.7 635.9 246.9C635.9 248.8 638.9 248.8 638.9 246.9C638.9 218.7 638.9 190.6 638.9 162.4C638.9 160.5 635.9 160.5 635.9 162.4Z" fill="#E8E8E8"/>
<path d="M638.3 249.2C674 249.2 709.8 249.2 745.5 249.2C747.4 249.2 747.4 246.2 745.5 246.2C709.8 246.2 674 246.2 638.3 246.2C636.3 246.2 636.3 249.2 638.3 249.2Z" fill="#E8E8E8"/>
<path d="M638.3 163.9C673 163.9 707.6 163.9 742.3 163.9C744.2 163.9 744.2 160.9 742.3 160.9C707.6 160.9 673 160.9 638.3 160.9C636.3 160.9 636.3 163.9 638.3 163.9Z" fill="#E8E8E8"/>
<path d="M742.3 162.4C742.3 190.6 742.3 218.7 742.3 246.9C742.3 248.8 745.3 248.8 745.3 246.9C745.3 218.7 745.3 190.6 745.3 162.4C745.3 160.5 742.3 160.5 742.3 162.4Z" fill="#E8E8E8"/>
<path d="M691.7 159.9C691.6 158.6 691.8 157.4 692.4 156.2C692.7 155.5 693.9 153.7 694.6 154.2C695.4 154.7 695.7 157 695.8 157.8C696.1 159.3 696.1 160.8 695.9 162.3C695.7 164.2 698.7 164.2 698.9 162.3C699.1 159.7 698.9 157.1 698 154.6C697.4 153 696.6 151.1 694.7 150.9C690.6 150.4 688.5 156.7 688.7 159.8C688.8 161.9 691.8 161.9 691.7 159.9Z" fill="#E8E8E8"/>
<path d="M641.6 172.1C641.6 194.6 641.6 217 641.6 239.5C641.6 241.4 644.6 241.4 644.6 239.5C644.6 217 644.6 194.6 644.6 172.1C644.6 170.2 641.6 170.2 641.6 172.1Z" fill="#E8E8E8"/>
<path d="M643.1 241C674.5 241 705.9 241 737.3 241C739.2 241 739.2 238 737.3 238C705.9 238 674.5 238 643.1 238C641.2 238 641.2 241 643.1 241Z" fill="#E8E8E8"/>
<path d="M739.7 238.7C739.7 216.2 739.7 193.8 739.7 171.3C739.7 169.4 736.7 169.4 736.7 171.3C736.7 193.8 736.7 216.2 736.7 238.7C736.7 240.7 739.7 240.7 739.7 238.7Z" fill="#E8E8E8"/>
<path d="M643.9 174.4C674.2 174.4 704.5 174.4 734.9 174.4C736.8 174.4 736.8 171.4 734.9 171.4C704.6 171.4 674.3 171.4 643.9 171.4C642 171.4 642 174.4 643.9 174.4Z" fill="#E8E8E8"/>
<path d="M644.4 225.1C656.1 221.6 668 218.5 679.6 223.9C687.9 227.8 695.1 233.7 704.4 235.4C706.3 235.7 707.1 232.9 705.2 232.5C694.6 230.5 686.6 222.8 676.5 219.4C665.6 215.8 654.2 219 643.6 222.2C641.8 222.8 642.6 225.7 644.4 225.1Z" fill="#E8E8E8"/>
<path d="M683.4 223.4C697.7 218.4 712.6 216.6 727.6 218.1C729.5 218.3 729.5 215.3 727.6 215.1C712.3 213.6 697.1 215.4 682.6 220.5C680.8 221.2 681.6 224.1 683.4 223.4Z" fill="#E8E8E8"/>
<path d="M686.5 200.2C685.4 198.3 685.7 195.5 687.6 194.2C689.3 193 692 193.5 693.2 195.1C694.4 196.8 693.7 199.5 691.8 200.5C689.6 201.6 687.1 199.5 687.1 197.3C687.1 195.4 684.1 195.4 684.1 197.3C684 201.3 688.1 204.7 692.1 203.6C695.8 202.6 697.8 197.9 696.2 194.5C694.6 190.9 689.8 189.6 686.4 191.4C682.7 193.4 681.8 198.3 683.8 201.8C684.9 203.4 687.4 201.9 686.5 200.2Z" fill="#E8E8E8"/>
<path d="M1173.6 176.9C1177.2 181.7 1177.9 188.2 1182.3 192.4C1186.4 196.4 1191.3 195.8 1196.3 194C1198.1 193.4 1197.3 190.5 1195.5 191.1C1192.8 192 1189.7 193 1186.9 191.9C1184.5 190.9 1182.9 188.7 1181.7 186.4C1179.8 182.7 1178.7 178.7 1176.2 175.3C1175 173.8 1172.4 175.3 1173.6 176.9Z" fill="#E8E8E8"/>
<path d="M1195.9 192.8C1200.7 188.7 1204.9 184 1208.5 178.8C1209.6 177.2 1207 175.7 1205.9 177.3C1202.5 182.3 1198.4 186.8 1193.8 190.7C1192.3 191.9 1194.4 194.1 1195.9 192.8Z" fill="#E8E8E8"/>
<path d="M1188.6 175.8C1190 179.1 1190.6 182.5 1190.5 186C1190.4 187.9 1193.4 187.9 1193.5 186C1193.6 181.9 1192.8 178 1191.2 174.3C1190.5 172.5 1187.9 174 1188.6 175.8Z" fill="#E8E8E8"/>
<path d="M1108.5 567C1108.5 580.3 1108.5 593.7 1108.5 607C1108.5 608.9 1111.5 608.9 1111.5 607C1111.5 593.7 1111.5 580.3 1111.5 567C1111.5 565.1 1108.5 565.1 1108.5 567Z" fill="#E8E8E8"/>
<path d="M1072 612.5C1107.3 612.5 1142.7 612.5 1178 612.5C1179.9 612.5 1179.9 609.5 1178 609.5C1142.7 609.5 1107.3 609.5 1072 609.5C1070.1 609.5 1070.1 612.5 1072 612.5Z" fill="#E8E8E8"/>
<path d="M1129.5 615C1129.5 623.3 1129.5 631.7 1129.5 640C1129.5 641.9 1132.5 641.9 1132.5 640C1132.5 631.7 1132.5 623.3 1132.5 615C1132.5 613.1 1129.5 613.1 1129.5 615Z" fill="#E8E8E8"/>
<path d="M1071 644.5C1102.3 644.5 1133.7 644.5 1165 644.5C1166.9 644.5 1166.9 641.5 1165 641.5C1133.7 641.5 1102.3 641.5 1071 641.5C1069.1 641.5 1069.1 644.5 1071 644.5Z" fill="#E8E8E8"/>
<path d="M1094.5 647C1094.5 653.3 1094.5 659.7 1094.5 666C1094.5 667.9 1097.5 667.9 1097.5 666C1097.5 659.7 1097.5 653.3 1097.5 647C1097.5 645.1 1094.5 645.1 1094.5 647Z" fill="#E8E8E8"/>
<path d="M1104.5 162.8C1104.5 158.6 1103.7 153.3 1104.5 149.2C1105.6 143.4 1113.7 144.5 1118.4 144.2C1120.3 144.1 1120.3 141.1 1118.4 141.2C1114.6 141.4 1110.6 141.4 1106.8 142C1105.1 142.3 1103.6 142.8 1102.6 144.3C1101.4 146.1 1101.6 148.6 1101.6 150.7C1101.6 154.7 1101.6 158.8 1101.6 162.8C1101.5 164.8 1104.5 164.8 1104.5 162.8Z" fill="#E8E8E8"/>
<path d="M1086.9 51.1C1096 48.6 1105.1 49.2 1113.8 52.7C1115.6 53.4 1116.4 50.5 1114.6 49.8C1105.4 46.1 1095.7 45.6 1086.1 48.2C1084.2 48.8 1085 51.7 1086.9 51.1Z" fill="#E8E8E8"/>
<path d="M1083.2 42.1C1091.2 36.6 1100.8 35.6 1109.8 39.2C1111.6 39.9 1112.4 37 1110.6 36.3C1101 32.4 1090.2 33.6 1081.7 39.5C1080.1 40.6 1081.6 43.2 1083.2 42.1Z" fill="#E8E8E8"/>
<path d="M1050.7 94.5C1047.5 96.7 1041.4 99.6 1040.5 103.8C1040.1 106 1041.1 108 1041.9 110C1043.3 113.5 1044.7 117 1046.2 120.5C1052 134.2 1058.5 147.6 1065.7 160.6C1066.6 162.3 1069.2 160.8 1068.3 159.1C1062.8 149.1 1057.7 138.9 1053 128.5C1050.5 123 1048.1 117.4 1045.9 111.8C1044.6 108.5 1042.8 105.6 1045.2 102.2C1046.6 100.2 1050.2 98.5 1052.3 97.1C1053.8 96 1052.3 93.4 1050.7 94.5Z" fill="#E8E8E8"/>
<path d="M630.2 584.6C622 590.7 612.1 600.5 608.5 614.5C605.9 624.9 608.4 631 607.5 644.4C606.9 653.7 604.5 666.8 596.8 682.4C579.3 678.8 549.9 675.3 515.2 683.3C494.5 688.1 477.9 695.6 465.7 702.4C467.6 703.6 470.2 705 473.5 705.9C492.2 711 511.9 695.3 512.5 696.4C513.1 697.4 490.5 708 491.7 717.2C492.5 723.4 503.6 726.7 515.1 730.2C524.8 733.1 534 735.9 546.3 734.5C563.2 732.6 574.9 724.1 580.1 719.7C585.1 722.2 592.5 725.5 601.8 728.4C618.9 733.6 642.5 740.8 658.2 731C668.4 724.6 671.5 709.6 677.3 679.8C684.3 643.5 687.6 625.3 678.2 610.4C665.9 590.5 640.6 585.9 630.2 584.6Z" fill="white" stroke="#161616" stroke-width="3"/>
<path d="M593.6 683.5C605.7 688 615.7 696.2 622.6 707.1C623.6 708.7 626.2 707.2 625.2 705.6C617.9 694 607.2 685.4 594.4 680.6C592.5 679.9 591.8 682.8 593.6 683.5Z" fill="#161616"/>
<path d="M529.2 703.2C517.3 705.2 507.7 713.2 503.4 724.4C502.7 726.2 505.6 727 506.3 725.2C510.2 715 519.2 707.9 530 706.1C531.9 705.8 531.1 702.9 529.2 703.2Z" fill="#161616"/>
<path d="M543.2 713.2C538.9 715.8 534.9 718.8 531.1 722C528.6 724.2 525.8 726.8 526.4 730.4C527.9 739.9 539.3 737.8 545.5 735.4C547.3 734.7 546.5 731.8 544.7 732.5C542 733.5 539 734.8 536.1 734.7C531.4 734.5 527.2 730 531.2 725.9C535 721.9 540 718.7 544.7 715.7C546.3 714.7 544.8 712.1 543.2 713.2Z" fill="#161616"/>
<path d="M723.5 461.5C718.4 463.2 711.9 465.8 704.6 469.4C702.5 470.4 697.2 473.1 691.5 476.8C682.7 482.4 676.3 488.3 669 495.7C659.7 505.2 650.3 514.7 639.1 529.9C629.7 542.7 615.1 562.8 604.6 592.3C600.4 604 598 614.1 596.6 621.3C602.1 618.1 607.1 616.5 611 615.6C633.5 610.5 655.1 621.9 675.6 632.6C683.3 636.6 689.4 640.5 693.6 643.2C695.8 632.4 698 621.5 700.2 610.7C702.1 601.6 703.9 592.4 705.8 583.3C708.7 580.8 712.6 577.1 716.9 572.3C725 563.1 741.1 544.8 743.3 519.4C746 490.1 728.6 467.7 723.5 461.5Z" fill="#EC615B"/>
<path d="M717.6 462.7C706.9 464.3 697.7 470 689.4 476.6C679.8 484.1 670.8 492.4 662.4 501.2C646 518.2 631.7 537.2 619.9 557.7C618.9 559.4 621.5 560.9 622.5 559.2C633.9 539.4 647.5 521 663.3 504.5C671 496.5 679.1 488.9 687.6 481.8C696.7 474.3 706.4 467.3 718.4 465.5C720.3 465.3 719.5 462.4 717.6 462.7Z" fill="#161616"/>
<path d="M713.4 571.9C706 579.4 698.4 586.7 690.7 593.8C689.3 595.1 691.4 597.2 692.8 595.9C700.5 588.8 708.1 581.5 715.5 574C716.8 572.6 714.7 570.5 713.4 571.9Z" fill="#161616"/>
<path d="M703 585.6C699.5 604.8 696.1 624.1 692.6 643.3C693.3 643 694.1 642.7 694.8 642.4C678.9 631.3 661.2 623 642.4 617.8C627.7 613.8 609 609.9 596.4 621C595 622.3 597.1 624.4 598.5 623.1C611.3 611.7 632 617.7 646.5 622.1C663.2 627.2 678.9 635 693.2 644.9C694 645.4 695.2 644.9 695.4 644C698.9 624.8 702.3 605.5 705.8 586.3C706.2 584.5 703.3 583.7 703 585.6Z" fill="#161616"/>
<path d="M620.6 556.3C610.2 576.6 597.2 597.5 596.3 621C596.2 622.9 599.2 622.9 599.3 621C600.2 598.1 613 577.7 623.2 557.8C624 556.1 621.4 554.6 620.6 556.3Z" fill="#161616"/>
<path opacity="0.4" d="M709.5 518.5C691.6 554.1 681.9 584.1 676.2 605.1C667.9 635.9 665 660.2 643.5 680.4C640 683.7 629.7 693.2 613.5 699.1C579.5 711.4 554.3 694.8 532.9 712.4C530.5 714.4 523.4 719.4 524.2 725.1C525 730.5 532.4 733.3 533.5 733.8C542.3 737.2 551.4 733.7 562.8 729.1C575.7 723.9 574.3 722.1 580.1 721.1C592.3 719 597.9 726.7 614.1 731.8C621 733.9 641.4 740.3 656.1 731.8C666.9 725.5 670.2 713.7 675.4 693.8C679 680.3 682.7 660.6 682.1 635.8C686.1 638.9 690.1 642 694.1 645.1C699.3 602.9 704.4 560.7 709.5 518.5Z" fill="#3D3D3D"/>
<path opacity="0.38" d="M703.5 561.8C689.8 587.7 683.1 609.6 679.5 624.4C672.3 654.1 674.6 668.1 664.8 689C654.3 711.7 637.3 726.1 625.5 734.3C632.1 735.8 648 738.6 659.5 729.6C667.6 723.3 669.7 714.3 672.8 699.6C676.7 681.5 680.8 660.9 684.8 638.3C687.9 640.3 691 642.3 694.1 644.3C697.3 616.9 700.4 589.3 703.5 561.8Z" fill="#3D3D3D"/>
<path d="M721.4 459.5C717.8 483 714.3 506.7 710.9 530.5C697.7 622.8 686.3 713.5 676.7 802.7C676.9 805.7 677.7 810.5 680.7 815.3C683.7 820.2 687.7 822.7 689.6 824C707.8 837 716.9 843.6 726.1 848C770.2 869.3 819 866.8 819 866.8C829.3 866.3 849.8 865 871.8 856.2C873 855.7 881.4 851.8 898.2 843.9C913.4 836.8 916.1 835.4 919.8 832C928.6 823.9 932 813.9 934.3 806.8C939.2 791.7 938.7 778.9 938.5 775.8C938.5 775.8 937.5 750.9 936.8 605.5C936.7 575.9 939.6 532.4 955.2 478.7C939 470.8 923.8 463.5 905.5 454.7C892.9 448.6 881.2 443 864.4 441C859.6 440.4 855.3 440.2 848.9 440.3C822.9 440.5 801.5 444.5 792.3 446.1C774.4 449 750.2 453.4 721.4 459.5Z" fill="#EC615B"/>
<path d="M720.6 463C751.6 456.4 782.9 451.1 814.3 447.2C815.7 447 816.5 445.2 815.1 444.4C814.7 444.2 814.3 443.9 813.8 443.7C812.1 442.7 810.6 445.3 812.3 446.3C812.7 446.5 813.1 446.8 813.6 447C813.9 446.1 814.1 445.1 814.4 444.2C782.7 448.1 751.1 453.4 719.9 460.1C717.9 460.5 718.7 463.4 720.6 463Z" fill="#161616"/>
<path d="M711.3 515.4C700.3 593.8 690.3 672.3 681.3 751C680.2 760.9 679.1 770.7 678 780.6C677.1 789.2 674.6 798.9 675.7 807.5C676.7 815.1 682.7 819.9 688.2 824.5C694.2 829.5 700.5 834.2 707.1 838.5C734.2 856 765.9 866.5 798.1 868.4C836.4 870.6 874.9 860.8 907.6 840.8C909.2 839.8 907.7 837.2 906.1 838.2C848.9 873.1 776.1 874.5 717.8 841.4C711.1 837.6 704.6 833.4 698.4 828.8C692.1 824.1 681.9 817.7 679.3 810C678.1 806.3 678.7 802.2 679.1 798.3C679.6 793.4 680.2 788.4 680.7 783.5C681.7 774.3 682.7 765.1 683.8 755.9C688.1 718.4 692.5 681 697.3 643.6C702.7 601.1 708.3 558.6 714.3 516.2C714.5 514.3 711.6 513.5 711.3 515.4Z" fill="#161616"/>
<path d="M858.6 440.1C876.2 443.6 892.7 451.7 909.1 458.6C925.2 465.4 943.1 470.9 957.3 481.3C958.9 482.4 960.4 479.8 958.8 478.7C944.9 468.5 927.4 463.1 911.7 456.5C894.7 449.4 877.6 440.9 859.4 437.2C857.5 436.8 856.7 439.7 858.6 440.1Z" fill="#161616"/>
<path d="M937 609.7C935.4 651.8 933.8 693.9 935.3 735.9C936 756.3 939.2 777.5 935.4 797.8C932.2 814.5 922.8 831.2 906.1 837.4C904.3 838.1 905.1 841 906.9 840.3C933.5 830.4 940.4 800.1 940 774.7C939.8 757.5 938.3 740.3 937.9 723C937.5 705.4 937.7 687.9 938 670.3C938.4 650.1 939.2 629.9 939.9 609.7C940.1 607.7 937.1 607.7 937 609.7Z" fill="#161616"/>
<path opacity="0.38" d="M922.6 586C917.3 604.2 909 624.1 896.2 643.9C838.9 732 734 749.6 707.2 753.3C743.2 757.1 779.6 761.2 816.4 765.6C857 770.4 897.1 775.5 936.6 780.7C934.1 736 934.1 699.2 934.7 672.9C935.8 618.5 939.7 574.5 932.6 573.1C930.9 572.7 927.9 574.6 922.6 586Z" fill="#3D3D3D"/>
<path opacity="0.42" d="M934.9 618.7C931.3 629.3 925.8 644.3 917.7 661.6C906.3 686.1 895.4 709.7 881.3 724.2C841.9 764.7 764.9 747.2 764.7 750C764.6 751.6 792.8 756.1 935.2 769.2C935.2 719 935.1 668.9 934.9 618.7Z" fill="#3D3D3D"/>
<path d="M1114.3 1031C747.3 982 380.2 933 13.2 884.1C121.5 821.3 229.9 758.5 338.2 695.7C669.3 728.3 1000.5 761 1331.6 793.6C1259.1 872.7 1186.7 951.9 1114.3 1031Z" fill="white" stroke="#161616" stroke-width="3"/>
<path d="M9.59998 892.6C377.5 941.4 745.4 990.2 1113.2 1039" stroke="#161616" stroke-width="16"/>
<path d="M1106.2 1041.2C1183.3 959.7 1260.4 878.1 1337.4 796.6" stroke="#161616" stroke-width="16"/>
<path d="M983.4 827C945.9 856.3 909.2 886.5 873.1 917.5C871.6 918.8 873.8 920.9 875.2 919.6C911.3 888.6 948.1 858.4 985.5 829.1C987 828 984.9 825.8 983.4 827Z" fill="#161616"/>
<path d="M874.5 919.1C886.3 921.6 898.3 921.6 910.4 921.7C924 921.9 936.8 923.3 949.8 927.1C974.2 934.2 998.1 938.9 1023.6 938.3C1025.5 938.3 1025.5 935.3 1023.6 935.3C1010.5 935.6 997.4 934.8 984.4 932.7C972.2 930.7 960.6 927.1 948.7 923.8C937.3 920.6 925.9 919.1 914 918.9C901 918.6 888 919 875.2 916.3C873.4 915.8 872.6 918.7 874.5 919.1Z" fill="#161616"/>
<path d="M985.6 829.2C1025.2 832.4 1064.5 838.7 1103.1 848.1C1105 848.6 1105.8 845.7 1103.9 845.2C1065.1 835.7 1025.5 829.4 985.6 826.2C983.7 826 983.7 829 985.6 829.2Z" fill="#161616"/>
<path d="M1025.9 936.5C1053.8 908.9 1080.6 880.1 1106 850.1C1107.2 848.6 1105.1 846.5 1103.9 848C1078.5 877.9 1051.7 906.7 1023.8 934.4C1022.4 935.8 1024.5 937.9 1025.9 936.5Z" fill="#161616"/>
<path d="M909.4 907.2C943.8 903 978.6 907.3 1010.9 919.9C1012.7 920.6 1013.5 917.7 1011.7 917C979.2 904.4 944 900 909.4 904.2C907.5 904.4 907.5 907.4 909.4 907.2Z" fill="#161616"/>
<path d="M961.5 896.2C982.7 897.8 1003.6 901.1 1024.3 906C1026.2 906.5 1027 903.6 1025.1 903.1C1004.2 898.1 983 894.8 961.5 893.2C959.5 893.1 959.6 896.1 961.5 896.2Z" fill="#161616"/>
<path d="M945.6 874.1C977.5 874.8 1009.1 879.4 1039.9 887.9C1041.8 888.4 1042.6 885.5 1040.7 885C1009.7 876.5 977.8 871.8 945.6 871.1C943.7 871.1 943.7 874.1 945.6 874.1Z" fill="#161616"/>
<path d="M985.2 864.9C1002.4 867.3 1019.4 870.3 1036.4 873.9C1038.3 874.3 1039.1 871.4 1037.2 871C1020.2 867.4 1003.2 864.4 986 862C984.1 861.7 983.3 864.6 985.2 864.9Z" fill="#161616"/>
<path d="M963.3 932C957.2 941.4 951.1 950.8 944.9 960.1C944.3 961 945.1 962.5 946.2 962.4C995.5 956.8 1045.5 960 1093.7 971.8C1095.6 972.3 1096.4 969.4 1094.5 968.9C1046 957 995.8 953.8 946.2 959.3C946.6 960.1 947.1 960.8 947.5 961.6C953.6 952.2 959.7 942.8 965.9 933.5C967 931.9 964.4 930.4 963.3 932Z" fill="#161616"/>
<path d="M1084.2 875.2C1103.5 874.8 1122.7 874.4 1142 874C1141.5 873.4 1141 872.7 1140.6 872.1C1127.3 903.8 1113.9 935.4 1100.6 967.1C1099.9 968.9 1102.8 969.7 1103.5 967.9C1116.8 936.2 1130.2 904.6 1143.5 872.9C1143.9 872 1142.9 871 1142.1 871C1122.8 871.4 1103.6 871.8 1084.3 872.2C1082.3 872.3 1082.3 875.3 1084.2 875.2Z" fill="#161616"/>
<path d="M1011.1 949.7C1016.2 948.7 1021.3 948.5 1026.5 948.9C1028.4 949 1028.4 946 1026.5 945.9C1021 945.5 1015.7 945.8 1010.3 946.8C1008.4 947.1 1009.2 950 1011.1 949.7Z" fill="#161616"/>
<path d="M1039.5 950C1055.2 950.6 1070.9 952.1 1086.5 954.5C1088.4 954.8 1089.2 951.9 1087.3 951.6C1071.5 949.1 1055.5 947.6 1039.5 947C1037.6 946.9 1037.6 949.9 1039.5 950Z" fill="#161616"/>
<path d="M1040.4 931.2C1044.1 931.2 1047.8 931.2 1051.6 931.2C1053.5 931.2 1053.5 928.2 1051.6 928.2C1047.9 928.2 1044.2 928.2 1040.4 928.2C1038.5 928.2 1038.5 931.2 1040.4 931.2Z" fill="#161616"/>
<path d="M1063.7 930.9C1076 931.2 1088.2 932.4 1100.4 934.4C1102.3 934.7 1103.1 931.8 1101.2 931.5C1088.8 929.5 1076.3 928.3 1063.7 927.9C1061.8 927.9 1061.8 930.9 1063.7 930.9Z" fill="#161616"/>
<path d="M1061.8 913.8C1075.8 914 1089.7 914.8 1103.6 916.4C1105.5 916.6 1105.5 913.6 1103.6 913.4C1089.7 911.8 1075.8 910.9 1061.8 910.8C1059.9 910.7 1059.9 913.7 1061.8 913.8Z" fill="#161616"/>
<path d="M967.9 947C974.6 947.2 981.2 946.4 987.8 944.8C989.7 944.3 988.9 941.4 987 941.9C980.7 943.5 974.4 944.2 967.9 944C966 944 966 947 967.9 947Z" fill="#161616"/>
<path d="M1015.4 790.3C1012.8 793.5 1009.8 800 1012.9 803.9C1014.8 806.3 1018.4 805.8 1021.1 805.9C1026 806.1 1030.9 806.4 1035.8 806.6C1055.7 807.5 1075.5 808.5 1095.4 809.4C1097.3 809.5 1097.3 806.5 1095.4 806.4C1080.7 805.7 1066.1 805 1051.4 804.3C1044.2 804 1037.1 803.6 1029.9 803.3C1026.4 803.1 1022.7 803.3 1019.2 802.8C1016.6 802.4 1014.7 802.3 1014.8 799.1C1014.9 796.6 1016 794.3 1017.5 792.4C1018.7 790.9 1016.6 788.7 1015.4 790.3Z" fill="#161616"/>
<path d="M1018.1 794.1C1034.9 794.7 1051.7 795.2 1068.5 795.8C1076.7 796.1 1085 796.3 1093.2 796.6C1100.6 796.9 1108.4 797.4 1113.7 803.1C1115 804.5 1117.1 802.4 1115.8 801C1111.8 796.6 1106.4 794.9 1100.6 794.1C1092 793 1083.1 793.2 1074.4 792.9C1055.6 792.3 1036.8 791.6 1018.1 791C1016.2 791.1 1016.2 794.1 1018.1 794.1Z" fill="#161616"/>
<path d="M1094.4 809.5C1102.1 809.6 1109.4 807.2 1115.6 802.6C1117.1 801.5 1115.6 798.9 1114.1 800C1108.3 804.3 1101.7 806.6 1094.4 806.5C1092.4 806.5 1092.4 809.5 1094.4 809.5Z" fill="#161616"/>
<path d="M1096.8 794.1C1092.6 796.9 1090.7 802.1 1092.1 806.9C1092.6 808.7 1095.5 808 1095 806.1C1094 802.6 1095.2 798.7 1098.3 796.6C1099.9 795.6 1098.4 793 1096.8 794.1Z" fill="#161616"/>
<path d="M367.1 434.6C364.6 429.4 357.5 429 353.7 432.9C349.6 437.1 347.7 445.2 348.1 450.9C349 462.4 360.2 467.8 363.2 478.1C364.6 482.8 371.8 484.3 374.2 479.5C378.2 471.6 383.8 464.8 388.8 457.6C393.2 451.2 399.9 441.3 397.5 433.1C396.5 429.6 393.4 426.6 389.6 426.2C385 425.7 381.8 428.5 379.1 431.9C376.4 435.4 374 439 372 442.9C370.2 446.3 368.8 450.3 365.3 452.2C368.2 453.4 371.2 454.6 374.1 455.8C372.8 451.5 371.5 447.2 370.3 443C367 444.9 363.6 446.9 360.3 448.8C364.8 453.9 372.5 454.6 377.9 450.3C380.4 448.3 381.8 445.6 383.5 443C384.3 441.8 385 440.7 386.2 439.9C387 439.3 388 438.9 389 438.6C391 438.5 390.9 438.3 388.8 438C387.8 436.3 386.8 434.5 385.8 432.8C385.8 433 385.8 433.3 385.8 433.5C387.3 431.6 388.7 429.6 390.2 427.7C390 427.8 389.8 427.8 389.6 427.9C382.3 430.2 385.4 441.8 392.8 439.5C393 439.4 393.2 439.4 393.4 439.3C396.1 438.5 397.6 436.2 397.8 433.5C397.8 433.3 397.8 433 397.8 432.8C397.9 430.7 396.5 428.7 394.8 427.6C389.8 424.4 382.4 427.5 378.3 430.8C376 432.7 374.4 434.9 372.8 437.4C371.8 439 370.7 442.4 368.8 440.2C364.8 435.7 357.1 440.5 358.8 446C360.1 450.3 361.4 454.6 362.6 458.8C363.7 462.6 368 464.3 371.4 462.4C376.5 459.7 379.3 455 381.8 450C383.3 447.1 384.8 444.3 386.7 441.7C387 441.2 389.7 438.4 389.6 437.9C387 435.7 385.7 435.8 385.5 438.2C385.3 439 385 439.7 384.7 440.4C379.7 452.5 369.7 461.7 363.8 473.3C367.5 473.8 371.1 474.3 374.8 474.7C372.9 468.2 368.6 463.5 364.5 458.3C362.8 456.1 360.9 453.7 360.3 451C359.9 449.1 360.1 447.4 360.6 445.6C360.9 444.4 361.3 443.3 361.8 442.2C363.5 439.8 361.8 439.2 356.8 440.5C360.1 447.6 370.4 441.5 367.1 434.6Z" fill="#EC615B"/>
<path d="M373.6 467.4C382.4 456.8 390.1 445.5 396.5 433.4C400.1 426.6 389.7 420.5 386.1 427.3C380.2 438.6 373.3 449.2 365.1 458.9C360.2 464.8 368.6 473.3 373.6 467.4Z" fill="#EC615B"/>
<path d="M397.3 297.7C395.7 308.2 396.1 318.5 398.9 328.8C400.4 334.4 409.1 332 407.6 326.4C405.3 317.8 404.6 308.9 406 300.1C406.8 294.4 398.1 292 397.3 297.7Z" fill="#5222D0"/>
<path d="M400.7 302.3C411.7 307 420.5 297.8 420.9 287C420.9 286 420.3 283.3 420.7 282.4C420.5 282.4 420.3 282.4 420.2 282.4C421.1 282.7 421.8 283.2 422.2 284.1C423.8 286.1 424.6 288.7 426.3 290.7C429.8 294.8 434.6 295.4 439.7 295.7C442.2 295.8 445.2 295.5 446.7 297.9C448.2 300.2 447.4 304.1 447.2 306.7C447 310.3 446.7 314 446.4 317.6C446.3 318.5 445.4 321.9 446.7 320.6C445.9 321.5 442.6 321.7 441.5 322C434.9 323.5 428.1 324.1 421.4 323.7C417.9 323.5 412.6 323.9 410.6 320.8C408.8 317.9 408.7 313.5 409.2 310.2C406.5 310.6 403.7 310.9 401 311.3C403.4 316.6 405.7 321.9 408.1 327.3C409.7 330.8 415.5 329.8 416.3 326.2C418.7 315.4 415.4 304.1 418.8 293.5C416.3 294.2 413.8 294.8 411.3 295.5C414.2 299 413.5 306.5 414.2 310.8C415 315.8 416.4 320.4 418.7 324.8C420.8 328.6 427.4 327 427.1 322.5C426.3 310.5 425.5 298.4 424.8 286.4C421.9 286.8 418.9 287.2 416 287.6C420.2 298.9 420.8 310.7 417.5 322.3C419.7 321.4 421.9 320.5 424.1 319.6C418.5 315.3 414.3 309.7 411.4 303.3C409.5 299.2 402.8 301.3 403 305.6C403.2 309.6 403.3 313.6 403.5 317.6C406.5 317.6 409.5 317.6 412.5 317.6C412.3 312.6 412.5 307.7 413.5 302.8C413.9 301.1 414.3 299.3 414.8 297.6C415.1 296.5 415.5 295.3 415.9 294.2C417.2 292.6 417 292 415.3 292.4C420.1 299.2 420.7 309.4 419.9 317.3C422.7 316.5 425.5 315.8 428.3 315C426 310.3 424.5 305.3 423.9 300.1C423.6 297.4 423.5 294.7 423.7 292C423.7 291.6 424.2 288.8 424 288.6C423.3 288.7 422.6 288.7 421.9 288.8C422.3 289.6 422.7 290.3 423.1 291.1C427.7 300.5 429.1 311.1 428 321.5C430.8 320.7 433.6 320 436.4 319.2C434.6 315.3 433.2 311.2 432.4 307C432.1 305.2 431.9 303.4 432.1 301.6C432.2 300.6 432.4 299.6 432.7 298.6C433.8 297.4 433.9 296.9 433 297.2C431.8 297 430.7 296.9 429.5 296.7C431.1 297.5 432.1 305.4 432.4 307.2C433 311.5 432.9 316 432.3 320.3C435.2 320.3 438.1 320.3 441 320.3C439.9 317.1 439.1 313.8 438.6 310.5C438.1 307.3 438.4 304 437.4 300.9C439.6 307.8 439.2 315.1 437.2 321.9C439.9 321.5 442.7 321.2 445.4 320.8C444.2 318.2 443.2 315.4 442.7 312.5C442.4 311.1 442.3 309.7 442.2 308.3C442.2 307.7 442.1 307.1 442.2 306.5C442.5 305.1 441.8 305 440.2 306.1C439.3 305.4 438.4 304.7 437.5 304C443.2 313.8 431.8 324.7 422.1 323.3C423.2 324.7 424.3 326.2 425.4 327.6C425.3 325.8 424.7 323.2 425.3 321.5C424.6 322.4 423.9 323.3 423.2 324.2C421.5 325.3 430.6 324 426.8 323.6C421.6 323.1 420.8 331.1 425.6 332.4C430.4 333.7 434.8 336.3 439.9 335.7C444.3 335.2 447.6 332.6 449.4 328.7C451.3 324.6 451.7 319.8 451.1 315.3C450.8 312.8 450.2 310.5 449.2 308.3C448.8 307.3 448.3 306.3 447.8 305.3C447.5 304.7 447.1 304.1 446.7 303.5C446.3 302.6 446.1 302.8 446.3 304.1C449.1 304.9 451.9 305.6 454.7 306.4C454.8 304.5 455 302.7 455.1 300.8C452.2 301.2 449.2 301.6 446.3 302C448 307 447.7 311.6 445.7 316.5C443.5 321.9 452.2 324.2 454.4 318.9C456.9 312.6 457.1 306 455 299.6C453.4 294.7 446.5 295.7 446.2 300.8C446.1 302.7 445.9 304.5 445.8 306.4C445.5 310.8 452.3 312.7 454.2 308.7C456.4 303.9 455.8 297.7 450.7 295C446.3 292.7 440.4 294.7 438.3 299.2C435.4 305.4 441.9 310.9 442.5 316.9C442.8 319.7 442.8 325.3 439.7 326.7C436.7 328 431 324.5 428.2 323.7C427.8 326.6 427.4 329.6 427 332.5C436.1 333.3 436.3 321.3 430 317.4C426.9 315.5 422.7 314 419.4 316C415.3 318.5 416.5 323.5 416.6 327.5C416.7 329.3 417.9 331.6 419.9 331.8C435.9 334.1 450.5 321.3 447.4 304.6C446.8 301.3 445.5 297.6 441.8 296.9C438.7 296.3 435.6 298.1 434.3 300.9C431 308 434.9 318.5 437.9 325C439.6 328.7 445.1 327.4 446.1 323.9C448.1 317.2 448.7 310.3 447.5 303.4C446.6 298.2 445 291.4 438.5 291.2C424 290.9 430 314.7 432.5 322.2C433.8 326 440.4 326.9 441.2 322.2C442.4 314.5 442.3 306.8 440.3 299.2C439.1 294.7 436.7 285.9 430.2 288.2C425 290.1 423.4 297.6 423.4 302.5C423.4 309.7 426 316.8 429 323.1C431.1 327.6 437 324.8 437.4 320.8C438.3 312.4 437.6 303.9 435.2 295.8C433.5 290.1 430.4 278.6 422.8 278.9C415.4 279.1 415 288.6 415 294C415 302.7 417.2 311.1 421 319C423.1 323.4 429 320.7 429.4 316.7C430.2 309.6 429.5 302.4 427.3 295.6C425.7 290.6 423.1 283.4 417.1 282.7C410.5 282 408.2 289.6 406.7 294.5C404.5 301.7 403.8 309.3 404.1 316.9C404.4 322.7 413.3 322.7 413.1 316.9C412.9 312.9 412.8 308.9 412.6 304.9C409.8 305.7 407 306.4 404.2 307.2C407.8 315.1 413.3 321.5 420.1 326.7C422.5 328.5 426 326.5 426.7 324C430.5 311 430 297.2 425.2 284.5C423.5 280.1 416 280.3 416.4 285.7C417.2 297.7 418 309.8 418.7 321.8C421.5 321 424.3 320.3 427.1 319.5C421.9 309.8 425.4 296.9 418.3 288.3C416 285.5 411.7 287.3 410.8 290.3C407.3 301 410.7 312.2 408.3 323C411 322.6 413.8 322.3 416.5 321.9C414.1 316.6 411.8 311.3 409.4 305.9C407.9 302.5 401.8 303.3 401.2 307C400.1 314 400.6 323.8 406.7 328.6C409.5 330.8 413.2 331 416.7 331.4C421.4 331.9 426.2 332.1 431 331.8C435.6 331.5 440.1 330.8 444.6 329.8C447.6 329.1 451.6 328.6 453.7 326.2C456.4 323.3 455.9 318.6 456.2 314.9C456.5 310.5 457 306.2 457.1 301.8C457.2 294.6 454.3 288.3 446.9 286.5C443.9 285.8 440.8 286.2 437.7 285.7C432.9 285 432.4 280.9 429.8 277.5C426.5 273.1 419.4 270.3 414.9 274.6C412 277.4 412.6 281 412.7 284.6C412.8 287.8 411.2 295.9 406.1 293.7C400 292.3 395.4 300.1 400.7 302.3Z" fill="#5222D0"/>
<path d="M135.7 352.1C142.7 358.5 149.3 365.4 155 373C158.8 378 162.7 388 169.5 389.4C173.5 390.2 176.7 388.1 179.7 385.7C183.8 382.4 187.8 379 191.9 375.6C196 372.2 200 368.9 204.1 365.5C207 363.1 210.3 360.9 210.5 356.8C210.7 352.9 208.2 350 205.9 347.1C202.7 343 199.4 338.9 196.2 334.8C193 330.7 189.7 326.6 186.5 322.5C184.1 319.5 181.9 315.5 177.9 314.6C174.3 313.8 171 315.9 168 317.5C164 319.6 160.1 322 156.4 324.5C149.1 329.5 142.3 335.2 136.1 341.6C134.2 343.6 134.4 347.3 137 348.7C143.5 352 149.7 355.9 155.3 360.7C157.8 362.8 160.2 365.1 162.5 367.5C163.6 368.7 164.7 369.9 165.8 371.2C166.5 372 167.2 372.9 167.9 373.7C168.8 376.1 170.1 376 171.7 373.2C172.1 375.9 172.4 378.7 172.8 381.4C183.2 375.1 192.7 367.3 200.9 358.3C204.3 354.5 200 348.7 195.4 351.2C188.4 355 181.2 358.1 173.7 360.5C175.4 362.7 177.1 364.9 178.8 367.1C183 360.4 188.2 354.6 194.3 349.5C191.9 347.7 189.6 345.9 187.2 344C181.7 352.2 174.8 359.4 166.9 365.3C169.1 367 171.3 368.7 173.5 370.4C176.1 361 181.4 352.7 189.3 346.8C187.2 344.7 185.2 342.7 183.1 340.6C178.6 349.5 172.3 357.1 164.2 362.9C165.7 362.9 167.2 362.9 168.7 362.9C169 363.2 169.2 363.6 169.5 363.9C169.7 363.1 169.9 362.3 170.1 361.6C170.4 360.6 170.7 359.6 171.1 358.5C172 355.8 173.2 353.3 174.5 350.8C177 346.1 180.1 342 183.8 338.2C181.4 336.4 179.1 334.6 176.7 332.7C171.4 343.6 164.1 353.1 154.9 361.1C157.5 362.2 160 363.2 162.6 364.3C163.7 352.5 168.8 341.7 177.1 333.2C174.7 331.4 172.4 329.6 170 327.7C165.9 335.7 159.9 342 152.1 346.5C154.4 347.8 156.6 349.1 158.9 350.4C158.8 346.8 159.3 343.3 161 340.1C161.7 338.7 162.6 337.4 163.6 336.3C165.2 334.4 168.2 333.9 165.4 332.1C164.1 330.5 163.4 330.6 163.3 332.6C162.8 333.6 162.4 334.6 161.9 335.6C161.1 337.1 160.3 338.5 159.5 339.9C158.6 341.3 157.7 342.7 156.7 344C155.9 345 155.2 346 154.3 347C152.9 347.8 152.8 348.4 154 348.7C154.7 349.6 155.4 350.5 156.1 351.4C155.1 348.2 158.4 342.2 159.9 339.5C160.8 338 166 329.4 168.3 329.9C169.4 330.1 170.9 335.7 171.3 336.7C172.1 338.9 172.8 341.2 173.3 343.5C173.8 345.8 174.4 348.2 174.4 350.5C174.4 353.2 174.4 353.3 172.2 351.4C165.9 346 165.2 332.3 174.5 329.2C179.2 327.6 180.6 333.6 181.7 337C183.3 341.9 184.8 346.9 186.4 351.9C188.9 350.4 191.4 349 193.9 347.5C188.3 342 185.3 335 185.1 327.1C183.2 328.5 181.3 330 179.4 331.4C189.9 335.4 191.6 348.6 193 358.2C193.8 363.9 202.5 361.5 201.7 355.8C199.7 342.2 196 328 181.8 322.7C179.1 321.7 176 324.3 176.1 327C176.3 337.2 180.3 346.5 187.5 353.7C190.6 356.8 196.4 353.7 195 349.3C193.2 343.6 191.6 337.9 189.6 332.3C188.2 328.3 186.4 324.1 182.7 321.7C174.7 316.4 165.3 322.4 161.2 329.7C156.5 338.2 157.7 348.8 164.1 356C169.4 361.9 179.7 365.1 182.6 355.2C185.2 346.4 180.7 333.4 176.3 325.8C170.3 315.6 160.4 323.3 155.3 329.9C152.6 333.4 150.5 337.2 149 341.3C147.6 345.1 145.3 351.3 148.1 355C154.7 363.6 164.2 349 167.1 344.2C169.6 340.2 173.2 334.7 172.6 329.7C172 325 167.6 322.8 163.4 324.6C154.2 328.6 149.5 340.9 149.9 350.2C150 353.6 153.6 355.8 156.7 354.1C165.7 348.9 173 341.3 177.8 332.1C180.1 327.7 174.4 322.9 170.7 326.6C160.7 336.8 154.9 349.8 153.6 364C153.2 368.2 158.6 369.5 161.3 367.2C171 358.8 178.9 348.5 184.5 337C186.6 332.6 181.2 327.7 177.4 331.5C171.6 337.5 167 344.4 163.8 352.1C161.7 357.2 157.3 366.9 164.1 370.4C165.5 371.1 167.3 371.3 168.6 370.4C178 363.7 185.6 355.2 190.8 344.9C192.6 341.3 188.6 335.8 184.6 338.7C174.8 346.1 167.9 355.9 164.7 367.7C163.7 371.2 168 375.2 171.3 372.8C180.6 366 188.4 357.9 194.9 348.3C197.9 343.8 191.5 339.8 187.8 342.8C181.1 348.3 175.5 354.8 170.9 362.2C168.8 365.5 172.3 370 176 368.8C184.3 366.2 192.3 362.8 199.9 358.6C198.1 356.2 196.3 353.9 194.4 351.5C186.7 360 177.9 367.3 168.1 373.2C164.5 375.4 165.7 380 169.2 381.4C173.4 383.1 177.9 379.7 178.1 375.4C178.4 370.2 173 365.3 169.8 361.9C161.7 353.1 152 345.9 141.4 340.6C141.7 343 142 345.3 142.3 347.7C147 342.9 152 338.5 157.3 334.5C162.1 330.9 168.1 326.1 173.8 324.2C175.5 323.6 175.4 323.3 176.8 324.7C178.2 326.1 179.3 327.8 180.4 329.3C182.6 332.1 184.9 335 187.1 337.8C189.5 340.9 192 344 194.4 347.1C195.7 348.8 201 353.9 200.6 355.8C200.2 358 194.7 361.2 192.9 362.7C190.1 365 187.3 367.3 184.5 369.6C181.7 371.9 178.9 374.2 176.1 376.5C174.9 377.5 172.3 380.4 170.2 379.3C169.4 378.9 168 375.9 167.5 375.2C160.2 364.2 151.5 354.3 141.8 345.4C137.8 341.9 131.4 348.2 135.7 352.1Z" fill="#5222D0"/>
<path d="M140.5 344.1C144.1 351.1 166.7 390.1 176.3 376.8C179.7 372.1 171.9 367.6 168.5 372.3C168.3 372.5 168.2 372.8 168 373C169.3 372.3 170.6 371.5 171.9 370.8C170.2 371 166.1 365.3 165 364C162.8 361.5 160.6 359 158.6 356.3C154.7 351 151.3 345.4 148.3 339.6C145.7 334.4 137.9 339 140.5 344.1Z" fill="#5222D0"/>
<path d="M319.4 220.6C308.7 212.8 304.6 196.8 311.3 185.1C314.6 179.3 320.6 174.6 327.6 175.4C334.8 176.2 338.3 181.4 338.8 188.2C339.1 192 338.7 195.9 338.6 199.7C338.4 203.3 338.8 207.5 337.8 211C336.8 214.5 333.2 216.4 331.8 219.9C330.6 222.9 331.9 225.5 328.4 226.5C327.4 226.8 326 226.7 325.1 227C323.5 226.8 323.5 227.1 325.1 227.8C324.7 226.5 324.4 225.3 324 224C322.7 219.6 321.4 215.1 320.1 210.7C317.9 203.3 313.3 192.4 319.1 185.5C316.7 185.8 314.3 186.1 311.8 186.4C315.3 189 314 199.6 314.2 203.2C314.5 210.7 314.8 218.2 315.1 225.7C315.4 233.6 326.3 233.3 327.1 225.7C327.9 217.8 326.8 210 326.5 202C326.3 198.6 326.3 195.1 326.8 191.7C327 190 327.4 188.4 327.9 186.8C328.2 185.7 328.7 184.6 329.2 183.6C330.3 181.9 330.3 181.7 329.3 183C327.8 183.2 326.2 183.4 324.7 183.6C324.4 183.5 325.8 187.2 326 188C326.4 189.5 326.6 191.1 326.8 192.6C327.2 196.8 327.2 201.1 327 205.3C326.9 207.2 326.7 209.1 326.4 211.1C326.2 212.3 326 213.5 325.8 214.7C324.8 217.1 326.5 217.7 330.9 216.2C331.3 215.4 330.2 212.2 330.1 211.3C329.9 209.2 329.8 207 329.9 204.9C330 200.8 330.5 196.9 331.5 192.9C331.8 191.7 332.1 190.6 332.5 189.4C334 186.8 332.4 185.9 327.7 186.8C327.3 187.5 328.9 191.3 329.1 192C330 196.2 330.2 200.5 329.8 204.8C329.6 206.8 329.4 213.3 327.1 213.8C319.6 215.6 322.8 227.2 330.3 225.4C338.2 223.5 340.4 215.5 341.4 208.4C342.5 200 342.1 190.5 338.9 182.6C335.8 175 326.7 174.9 322.7 181.9C318.7 188.9 317.8 198.8 317.9 206.7C318 213.1 318.1 224.1 325.8 226.4C334.3 228.9 337.3 219.7 338.2 213.3C339.4 204.9 339.7 196.3 338.3 187.9C337.3 181.7 333.3 169.8 324.8 172.1C316.6 174.2 315 188.5 314.6 195.3C314.1 205.5 316.3 215.6 315.3 225.8C319.3 225.8 323.3 225.8 327.3 225.8C326.9 215.7 326.5 205.6 326 195.5C325.7 187.8 324.5 181 318 176.2C316.1 174.7 312.3 175.3 310.7 177.1C304.1 184.9 303.6 194.5 305.9 204.1C307.1 209.3 308.8 214.5 310.3 219.6C311.7 224.4 312.5 230.2 315.1 234.4C319.2 241.2 330.6 239.6 336.5 236.1C339.6 234.3 341.7 231.3 342.5 227.8C343 225.6 342.8 224.7 344.2 222.9C345.8 220.9 347.4 219.3 348.4 216.9C350.1 213.1 350.2 208.9 350.4 204.9C350.6 199.9 351.1 194.8 351 189.7C350.8 180.8 347.9 172.4 340.2 167.3C325.4 157.5 306.8 166.6 299.8 181.4C291.6 198.9 298.2 219.6 313.5 230.8C319.6 235.5 325.6 225.1 319.4 220.6Z" fill="#EC615B"/>
<path d="M318.8 247.1C320.8 250.3 324.4 251.5 328 250.4C329.6 249.9 331 249 332.2 247.9C332.5 247.6 332.9 247.3 333.2 246.9C333.5 246.6 333.4 246.6 333 247C334.9 246 333.4 245.7 328.6 245.9C331 247.9 334.8 248.4 337.1 245.9C339.2 243.7 339.6 239.6 337.1 237.4C334.2 234.9 330.5 234.5 327.1 236.5C326 237.1 324.9 238 324.1 239C323.4 239.9 325 238.4 323.9 239.2C324.1 239.1 324.3 239 324.5 239C322.4 239.5 323.9 240.2 329 241.1C327.3 238.4 323.6 237.1 320.8 238.9C318.3 240.6 317 244.3 318.8 247.1Z" fill="#EC615B"/>
<path d="M321.6 255C321.6 255.3 321.6 255.6 321.6 255.9C321.6 257.4 322.3 259.1 323.4 260.1C324.4 261.1 326.1 261.9 327.6 261.9C329.2 261.8 330.8 261.3 331.8 260.1C332.9 258.9 333.6 257.5 333.6 255.9C333.6 255.6 333.6 255.3 333.6 255C333.6 253.5 332.9 251.8 331.8 250.8C330.8 249.8 329.1 249 327.6 249C326 249.1 324.4 249.6 323.4 250.8C322.3 251.9 321.6 253.3 321.6 255Z" fill="#EC615B"/>
<path d="M262.2 144.4C288.5 113.1 313.7 80.9 337.9 47.8C335.6 48.7 333.4 49.6 331.1 50.6C333.4 51.3 335.1 52.5 336.8 54.2C336.5 51.8 336.2 49.4 335.9 46.9C312.8 79.9 289.8 112.8 266.7 145.8C269.4 145.1 272.2 144.4 274.9 143.6C272.9 142.4 270.9 141.2 268.9 139.9C269.6 142.6 270.3 145.4 271.1 148.1C281.6 134.4 291.2 120.2 299.9 105.3C303.8 98.6 293.4 92.6 289.5 99.2C280.8 114 271.2 128.3 260.7 142C258.7 144.6 260.4 148.7 262.9 150.2C264.9 151.4 266.9 152.6 268.9 153.9C271.8 155.7 275.3 154.4 277.1 151.7C300.2 118.7 323.2 85.8 346.3 52.8C347.8 50.6 347.1 47.3 345.4 45.5C342.3 42.3 338.6 40.1 334.4 38.8C331.7 37.9 329.2 39.4 327.6 41.6C304.1 73.8 279.5 105.2 253.8 135.7C248.8 141.8 257.3 150.4 262.2 144.4Z" fill="#EC615B"/>
<path d="M194.9 484.4C194.9 484.1 194.9 483.8 194.9 483.5C194.9 475.8 182.9 475.8 182.9 483.5C182.9 483.8 182.9 484.1 182.9 484.4C182.9 492.2 194.9 492.2 194.9 484.4C194.9 484.1 194.9 483.8 194.9 483.5C194.9 475.8 182.9 475.8 182.9 483.5C182.9 483.8 182.9 484.1 182.9 484.4C182.9 492.2 194.9 492.2 194.9 484.4Z" fill="#EC615B"/>
<path d="M99.1 400.7C106.8 400.7 106.8 388.7 99.1 388.7C91.4 388.7 91.4 400.7 99.1 400.7Z" fill="#EC615B"/>
<path d="M126.2 406C132 406 132 397 126.2 397C120.4 397 120.4 406 126.2 406Z" fill="#5222D0"/>
<path d="M493.7 177.4C499.5 177.4 499.5 168.4 493.7 168.4C487.9 168.4 487.9 177.4 493.7 177.4Z" fill="#5222D0"/>
<path d="M550.1 313.4C550.1 314 550.1 314.5 550.1 315.1C550.1 316.3 550.6 317.5 551.4 318.3C552.2 319.1 553.5 319.7 554.6 319.6C555.8 319.5 557 319.2 557.8 318.3C558.6 317.4 559.1 316.3 559.1 315.1C559.1 314.5 559.1 314 559.1 313.4C559.1 312.2 558.6 311 557.8 310.2C557 309.4 555.7 308.8 554.6 308.9C553.4 309 552.2 309.3 551.4 310.2C550.6 311.1 550.1 312.2 550.1 313.4Z" fill="#5222D0"/>
<path d="M513.8 242C530.8 244.7 554.6 252.6 548.3 274.8C545.4 285 537.4 292.3 529.5 298.8C521.7 305.1 514 311.3 506.9 318.4C500.1 325.2 493.9 332.6 488.2 340.4C483.7 346.6 477.5 354.3 478.2 362.6C478.8 370 485.3 371.8 491.2 374.1C499.7 377.4 508.7 383.2 512 392.1C516.4 404.1 507.2 414.7 498.5 421.8C490.7 428.2 482.2 433.7 476.9 442.5C475.9 444.2 478.5 445.7 479.5 444C489 428 513.2 421.6 515.9 401.4C517 393.5 513.4 386.1 507.7 380.8C504.9 378.1 501.6 375.9 498.2 374C494.1 371.8 489.3 370.9 485.3 368.6C474.1 362.1 488.1 345.5 492.9 339.2C499.8 330.1 507.5 321.7 516 314.1C529.6 301.7 550.9 290.7 552.4 270C553.9 249 531.4 241.9 514.8 239.3C512.7 238.8 511.9 241.7 513.8 242Z" fill="#161616"/>
<path d="M218.4 238.8C200.6 260.7 180.5 280.6 158.3 298C136.5 315.1 112.8 328.7 88.7 342.2C66.5 354.7 44.1 367.5 25.1 384.8C16.6 392.5 7.19999 401.5 2.39999 412.2C-1.30001 420.5 -1.60001 431.3 7.89999 435.6C13.1 437.9 19.2 437.1 24.6 436.2C33.4 434.7 42.1 432.8 50.8 431.1C59.7 429.4 68.6 427.6 77.5 425.9C86 424.3 101.9 422.8 102.3 435.5C102.4 437.4 105.4 437.4 105.3 435.5C104.9 423.7 92.3 420.7 82.6 421.9C67.8 423.8 53.2 427.5 38.5 430.3C28.2 432.3 0.699987 440.6 2.69999 420.9C3.99999 408.2 16 397.2 24.7 388.9C43.1 371.5 65.2 358.6 87.2 346.2C110.3 333.2 133.3 320.4 154.5 304.4C178.9 285.9 201 264.5 220.3 240.8C221.7 239.4 219.6 237.3 218.4 238.8Z" fill="#161616"/>
<path d="M59.2999 444.2C50.4999 454.8 40.1999 467.3 41.7999 482C42.9999 493.3 51.0999 503.9 63.2999 503.1C71.0999 502.6 77.9999 498.3 84.7999 495C93.2999 490.9 102 487.2 111 484.5C119.9 481.9 129.2 480.2 138.5 480C145.9 479.9 154.3 480.4 160.5 485C169.9 491.8 164.1 502 159.1 509.6C154.2 516.9 149.9 524.4 146.1 532.3C142.7 539.5 139.7 547 137.3 554.6C135.5 560.3 133.4 567 137.8 572C147.2 582.9 161.5 573.6 169.4 566.2C181.5 554.9 194.6 545.5 209.7 538.5C226.6 530.7 245 526.1 263.5 525.1C272.9 524.6 282.4 524.9 291.7 526.4C300 527.7 309.3 530.3 313.2 538.6C314 540.3 316.6 538.8 315.8 537.1C310.4 525.4 295.6 523.6 284.2 522.5C269.3 521.1 254.1 522.2 239.5 525.4C224.9 528.6 210.6 534 197.6 541.4C191.2 545 185.2 549.1 179.4 553.6C172.9 558.7 167.4 565 160.8 569.7C154.9 573.9 142.3 577 138.8 567.8C137.1 563.3 139.3 558.1 140.7 553.7C142.2 549.1 143.9 544.6 145.8 540.2C149.1 532.4 153 524.9 157.4 517.7C161.3 511.4 167.1 505 168.5 497.5C170.8 485.3 158.8 479 148.5 477.5C133.2 475.4 117 478.9 102.6 484.1C93.7999 487.3 85.4999 491.4 77.0999 495.5C68.3999 499.8 57.5999 503.1 50.1999 494.6C36.3999 478.8 50.8999 458.9 61.3999 446.2C62.6999 444.8 60.5999 442.7 59.2999 444.2Z" fill="#161616"/>
<path d="M116.8 494.8C126.2 491.8 134.5 501 134.7 509.9C134.9 519.3 128.7 527.4 122.5 533.8C121.1 535.2 123.3 537.3 124.6 535.9C132.2 528.1 140.1 517 137.1 505.4C134.7 496.3 125.5 488.9 116 491.9C114.2 492.5 114.9 495.4 116.8 494.8Z" fill="#161616"/>
<path d="M466.1 236.8C470.7 240.6 476.1 241.4 481.8 242.6C488 243.9 493.4 246.3 497.7 251.1C505.8 260.2 508.3 273.9 502.3 284.7C501.4 286.4 503.9 287.9 504.9 286.2C510.7 275.8 509.5 263 503.1 253.2C500.1 248.6 495.9 244.6 490.8 242.2C483.6 238.8 474.6 239.9 468.2 234.7C466.7 233.5 464.6 235.6 466.1 236.8Z" fill="#161616"/>
<path d="M99.4 449.8C105.1 465.1 123.2 461.2 134.3 455.2C141.4 451.4 148 446.5 153.8 440.9C160 434.8 165 427.6 171.1 421.4C177.8 414.6 187.2 408.4 197.3 410.1C206.4 411.6 211.9 419.7 217.7 425.9C225.3 433.9 240.6 442.1 248.3 429.4C249.3 427.7 246.7 426.2 245.7 427.9C240.8 435.9 230.4 433.1 224.4 428.3C219 423.9 215.1 417.9 209.8 413.4C199.8 404.8 187.3 405.6 176.7 412.8C165 420.7 157.9 433.8 147.2 442.9C140.9 448.2 133.6 453.1 125.8 456C117.5 459.1 105.9 458.9 102.3 449.1C101.6 447.2 98.7 448 99.4 449.8Z" fill="#161616"/>
<path d="M124.4 356.6C137.2 367.7 147.9 380.9 156.2 395.7C157.1 397.4 159.7 395.9 158.8 394.2C150.4 379.1 139.6 365.8 126.5 354.5C125.1 353.2 122.9 355.4 124.4 356.6Z" fill="#161616"/>
<path d="M127 353.4C137.8 339.1 153.1 324.5 170.1 318C172.8 317 175.9 316.1 178.8 316.8C182.4 317.6 184.5 320.7 186.6 323.5C189.6 327.4 192.5 331.4 195.4 335.4C201.1 343.4 206.5 351.7 211.6 360.1C212.6 361.7 215.2 360.2 214.2 358.6C207.8 348.1 200.9 337.8 193.6 327.9C188.1 320.4 183.1 311.6 172.4 314.1C163.1 316.3 154.2 323.1 146.9 328.8C138.4 335.5 130.9 343.3 124.3 351.9C123.3 353.4 125.9 354.9 127 353.4Z" fill="#161616"/>
<path d="M158 397C178.4 388.4 196.6 375.8 211.7 359.6C213 358.2 210.9 356.1 209.6 357.5C194.9 373.3 177.1 385.8 157.2 394.1C155.4 394.9 156.2 397.8 158 397Z" fill="#161616"/>
<path d="M138.6 355.4C150 345.1 162.7 336.6 176.7 330.1C178.4 329.3 176.9 326.7 175.2 327.5C161 334.1 148.1 342.8 136.5 353.3C135 354.5 137.2 356.7 138.6 355.4Z" fill="#161616"/>
<path d="M146.9 360.4C153.1 355.9 159.3 351.5 165.5 347C167.1 345.9 165.6 343.3 164 344.4C157.8 348.9 151.6 353.3 145.4 357.8C143.8 359 145.3 361.6 146.9 360.4Z" fill="#161616"/>
<path d="M151.1 367.3C161.5 360 171.9 352.6 182.3 345.3C183.9 344.2 182.4 341.6 180.8 342.7C170.4 350 160 357.4 149.6 364.7C148 365.8 149.5 368.4 151.1 367.3Z" fill="#161616"/>
<path d="M159.9 375.5C166.3 370.3 173 365.7 180 361.4C181.7 360.4 180.1 357.8 178.5 358.8C171.2 363.1 164.3 368 157.8 373.3C156.3 374.6 158.4 376.7 159.9 375.5Z" fill="#161616"/>
<path d="M164.5 383.7C173.9 376 184.1 369.6 195 364.3C196.7 363.5 195.2 360.9 193.5 361.7C182.3 367.1 172 373.8 162.4 381.6C160.9 382.8 163 384.9 164.5 383.7Z" fill="#161616"/>
<path d="M370.1 446.5C375 440.3 369.2 432.7 362.7 430.9C354.9 428.7 346 432.4 342.1 439.4C337.7 447.2 339.5 457.4 345.2 464C352.5 472.6 371.5 477.8 368.1 492C367.6 493.9 370.5 494.7 371 492.8C374.9 476.6 355.4 471.6 347.3 461.9C341.6 455 340.6 443.4 347.8 437.1C350.7 434.6 354.8 433.1 358.6 433.3C363.1 433.5 372.8 438.4 368.1 444.5C366.8 445.9 368.9 448 370.1 446.5Z" fill="#161616"/>
<path d="M371.7 445.9C372.5 440.5 375 435.7 379 432C380.9 430.2 383.1 428.8 385.5 427.7C386.7 427.2 388 426.7 389.3 426.4C392.1 425.8 392.7 425.8 395 427.8C397.3 429.9 397.4 430.5 397.3 433.4C397.3 434.5 397.1 435.6 397 436.6C396.7 438.6 396.1 440.5 395.4 442.4C393.9 446.5 391.6 450.3 389.2 453.9C380.6 466.7 368.3 478.4 367.6 494.7C367.5 496.6 370.5 496.6 370.6 494.7C371.5 472.8 394.2 460.2 399.4 439.8C400.4 435.9 401.2 430.9 399.5 427.1C397.4 422.7 392.8 422.5 388.6 423.5C378.4 425.9 370.6 434.8 369 445.1C368.5 447 371.4 447.9 371.7 445.9Z" fill="#161616"/>
<path d="M388.7 294.9C386.9 304.6 386.5 314.8 388.7 324.5C390.8 333.8 397.5 331.8 405.2 332.3C422.7 333.5 445.9 344.6 457.4 324.8C458.4 323.1 455.8 321.6 454.8 323.3C445 340.2 424.4 331.9 409.4 329.8C405.9 329.3 402.6 329.3 399.1 329.4C393.7 329.4 392.1 326.8 391.3 322C389.8 313.3 390 304.5 391.7 295.8C391.9 293.8 389 293 388.7 294.9Z" fill="#161616"/>
<path d="M389.1 299.7C394.5 296.4 399.2 295.8 405.3 294.8C407.9 294.4 409.6 293.4 410 290.7C411.1 283.9 408.2 276.9 413.6 271.1C419.6 264.6 427.7 270.4 430.2 277C431.4 280.1 432.1 283.7 434.5 286.2C437.6 289.5 441.7 288.6 445.6 289.7C460.7 293.8 456.2 313.3 453 323.8C452.4 325.6 455.3 326.4 455.9 324.6C459.3 313.7 462.7 300.1 453.6 291C452.1 289.5 450.4 288.3 448.5 287.5C445.6 286.3 442.4 286.9 439.4 285.8C433.6 283.7 433.7 275.1 430.2 270.7C423.9 262.9 413.1 264 408.8 273.1C407.6 275.6 407.2 278.2 407 280.9C406.8 284.1 408.3 290.5 404.9 291.8C402.5 292.8 398.8 292.4 396.2 293.2C393.1 294.1 390.3 295.5 387.6 297.1C386 298.2 387.5 300.8 389.1 299.7Z" fill="#161616"/>
<path d="M401 296.6C399.5 308.4 401.5 320.1 406.7 330.8C407.5 332.5 410.1 331 409.3 329.3C404.3 319.1 402.5 307.9 404 296.6C404.3 294.7 401.3 294.7 401 296.6Z" fill="#161616"/>
<path d="M304.8 230.1C291.9 224.1 284.2 210.2 284.9 196C285.7 181.5 295.5 168.3 308 161.4C315.8 157.1 324.1 155.8 332 160.4C339.2 164.5 344.3 171.6 347.2 179.2C352.4 193 350.5 208.7 342.3 221C341.2 222.6 343.8 224.1 344.9 222.5C358.5 202.2 355.4 166.9 330.5 156.4C318 151.1 304.7 158.2 295.7 167C286.9 175.6 281.2 187.9 281.9 200.3C282.7 214 290.7 226.9 303.2 232.8C305 233.5 306.5 230.9 304.8 230.1Z" fill="#161616"/>
<path d="M303.4 233.7C300.8 236.5 301.5 240.8 304.7 242.9C309.9 246.3 318.9 243.2 324.4 241.9C330.3 240.5 339.2 239.2 343.2 234C345.6 230.8 345.6 226.4 342.5 223.7C341 222.5 338.9 224.6 340.4 225.8C345 229.7 339 234.2 335.4 235.6C332.4 236.7 329.3 237.6 326.2 238.4C323.3 239.1 320.4 239.8 317.5 240.3C315.7 240.6 313.7 241.1 311.9 241.2C309.3 241.3 301.8 239.9 305.6 235.9C306.9 234.4 304.8 232.3 303.4 233.7Z" fill="#161616"/>
<path d="M309.2 244.4C309.6 250.3 314.6 254.1 320.4 254.5C328.4 255 334.4 248.3 339.1 242.8C340.3 241.3 338.2 239.2 337 240.7C333.7 244.6 330 249.1 325.1 250.8C320.1 252.6 312.7 250.6 312.3 244.4C312.1 242.5 309.1 242.5 309.2 244.4Z" fill="#161616"/>
<path d="M317.3 255.6C316.5 259.7 319 264 323.3 264.7C327.7 265.4 331.5 261.5 331.6 257.3C331.6 255.4 328.6 255.4 328.6 257.3C328.6 259.8 326.2 262.3 323.5 261.7C321.2 261.2 319.7 258.6 320.2 256.4C320.6 254.5 317.7 253.7 317.3 255.6Z" fill="#161616"/>
<path d="M296.8 192.3C305.4 197.8 312 205.5 316.2 214.8C317 216.6 319.6 215 318.8 213.3C314.4 203.5 307.4 195.5 298.3 189.7C296.6 188.7 295.1 191.3 296.8 192.3Z" fill="#161616"/>
<path d="M312.2 185C314.1 199.4 316.1 213.8 318 228.1C318.3 230 321.1 229.2 320.9 227.3C319 212.9 317 198.5 315.1 184.2C314.8 182.3 312 183.1 312.2 185Z" fill="#161616"/>
<path d="M317.4 209.5C320 200.1 326 192.5 334.5 187.7C336.2 186.8 334.7 184.2 333 185.1C323.9 190.2 317.3 198.6 314.5 208.7C314 210.6 316.9 211.4 317.4 209.5Z" fill="#161616"/>
<path d="M208.4 466.6C212.4 475.3 216.7 483.9 221.5 492.2C223.9 496.3 227.1 504.1 233 501.6C234.8 500.8 233.2 498.3 231.5 499C227.7 500.6 220.9 485.1 219.6 482.6C216.5 476.9 213.7 471 211 465.1C210.2 463.3 207.6 464.8 208.4 466.6Z" fill="#161616"/>
<path d="M211.1 468.4C219.6 461.8 227.9 455 236.5 448.6C244 442.9 252.1 437.4 261.3 434.8C271.2 431.9 279.8 434.2 286.4 442.2C292 449 295.4 457.4 299.2 465.2C300 466.9 302.6 465.4 301.8 463.7C294.5 448.7 285.9 427.5 265.4 430.8C255.2 432.4 246 438 237.7 444C227.9 451.2 218.5 458.9 208.9 466.4C207.5 467.5 209.6 469.6 211.1 468.4Z" fill="#161616"/>
<path d="M228.9 501.9C255 496.2 279.2 484 299.5 466.6C301 465.3 298.8 463.2 297.4 464.5C277.5 481.6 253.7 493.4 228.1 499.1C226.2 499.5 227 502.4 228.9 501.9Z" fill="#161616"/>
<path d="M253.2 473.7C247.9 472.4 243.5 467.2 244.8 461.5C246 456 252.7 452 258 454.6C268.7 460 261.4 475.4 250.4 471.5C248.6 470.9 247.8 473.8 249.6 474.4C255.8 476.6 263.3 473.6 265.7 467.3C268.1 461.1 264.2 453.6 258.1 451.4C251.5 449 244 453.5 242.1 460.1C239.9 467.5 245.3 474.8 252.4 476.6C254.3 477.1 255.1 474.2 253.2 473.7Z" fill="#161616"/>
<path d="M306.5 397.8C305.3 387.1 305.2 374.9 317.9 372C324.3 370.5 329.6 368.6 333.3 362.7C337.1 356.7 336.6 351.1 335.1 344.5C334 339.3 334.1 334.8 338.3 330.9C341.7 327.8 346.2 326.6 350.6 328C352.4 328.6 353.2 325.7 351.4 325.1C345 323.1 338.3 325.6 334.2 330.9C327.9 339.2 335.3 347.6 332.8 356.5C331.3 361.8 327.2 366.3 321.9 368.1C317.6 369.5 313 369.4 309.4 372.4C301.8 378.6 302.5 389.1 303.5 397.8C303.7 399.7 306.7 399.7 306.5 397.8Z" fill="#161616"/>
<path d="M282.1 341.8C279 339.3 281.5 333.7 285.5 335.8C287.1 336.6 288.1 338.5 287.2 340.2C286.3 341.9 284 342.8 282.3 341.9C280.6 341 279.1 343.6 280.8 344.5C283.9 346 287.7 344.9 289.6 342.1C291.6 339.1 290.3 335.3 287.4 333.5C284.5 331.7 280.6 332.2 278.7 335.2C277 338 277.4 341.9 280 344C281.5 345.1 283.6 343 282.1 341.8Z" fill="#161616"/>
<path d="M418.9 186.8C417.1 183.9 416 180.2 417.1 176.9C418 174.1 420.8 172.4 423.7 172.7C426.9 173 428.6 176 426.9 178.8C425.4 181.4 422.3 182.7 419.4 182.3C417.5 182.1 417.5 185.1 419.4 185.3C423.7 185.8 428.4 183.2 430 179.1C431.5 175.4 429.6 171.3 425.8 170.1C422.2 168.9 417.8 170.3 415.6 173.4C412.3 177.9 413.6 184 416.3 188.5C417.3 189.9 419.9 188.4 418.9 186.8Z" fill="#161616"/>
<path d="M257.6 309.4C263 319.2 274 324.7 285.1 323.1C298.7 321.1 306 310.7 311.4 299.1C317.7 285.7 326.4 274.7 340.3 268.8C352.9 263.5 369.2 266.2 379.6 256.3C383.6 252.5 386.3 247.2 385.4 241.6C384.7 237.3 382.1 233.7 383.1 229.2C384.3 224.3 388.1 220.7 392.9 219.7C394.8 219.3 394 216.4 392.1 216.8C386.3 218.1 381.6 222.5 380.2 228.4C379.4 231.6 380 234.5 381 237.6C382.6 242.6 383.2 246.7 379.9 251.3C374.1 259.4 363.9 260.5 354.8 261.8C346.7 263 339.1 265.2 332.1 269.4C325.9 273.1 320.4 278.1 316.1 283.9C311.4 290.3 308.8 297.8 305 304.7C300.2 313.2 292.3 319.7 282.2 320.3C273 320.8 264.4 315.9 259.9 307.8C259.3 306.2 256.7 307.7 257.6 309.4Z" fill="#161616"/>
<path d="M236.7 145.4C235 157.9 233.3 170.4 231.7 182.9C231.4 184.8 234.3 185.6 234.6 183.7C236.3 171.2 238 158.7 239.6 146.2C239.9 144.3 237 143.5 236.7 145.4Z" fill="#161616"/>
<path d="M236.2 184.6C248 176.1 259.8 167.6 271.6 159.1C273.2 158 271.7 155.4 270.1 156.5C258.3 165 246.5 173.5 234.7 182C233.1 183.1 234.6 185.7 236.2 184.6Z" fill="#161616"/>
<path d="M238.6 147.1C268.2 107.4 297.3 67.4 325.9 27C327 25.4 324.4 23.9 323.3 25.5C294.7 65.9 265.6 106 236 145.6C234.9 147.1 237.5 148.6 238.6 147.1Z" fill="#161616"/>
<path d="M275.3 154.6C302.5 118.6 328.9 82 354.5 44.8C355.6 43.2 353 41.7 351.9 43.3C326.3 80.4 299.9 117.1 272.7 153.1C271.5 154.6 274.1 156.1 275.3 154.6Z" fill="#161616"/>
<path d="M325 27C329.7 18.2 335.2 7.50001 345.6 4.60001C355.9 1.70001 366 9.50001 366.2 20.2C366.2 22.1 369.2 22.1 369.2 20.2C369.1 9.90001 360.4 0.600009 349.8 0.900009C335.9 1.30001 328.1 14.6 322.4 25.5C321.5 27.2 324.1 28.7 325 27Z" fill="#161616"/>
<path d="M355.1 44.5C360.2 36.9 364.8 29.1 368.9 20.9C369.8 19.2 367.2 17.7 366.3 19.4C362.2 27.6 357.6 35.4 352.5 43C351.5 44.5 354.1 46.1 355.1 44.5Z" fill="#161616"/>
<path d="M322.8 31.9C334.3 24.1 349.2 28.3 354.9 40.9C355.7 42.7 358.3 41.1 357.5 39.4C351.1 25.3 334 20.6 321.3 29.3C319.7 30.4 321.2 33 322.8 31.9Z" fill="#161616"/>
<path d="M317.5 40.9C327.5 34.5 342.2 38.7 346.8 49.9C347.5 51.7 350.4 50.9 349.7 49.1C344.3 36.3 327.8 30.8 316 38.3C314.4 39.4 315.9 42 317.5 40.9Z" fill="#161616"/>
<path d="M236.8 148.5C242.3 151.8 247.8 144.6 253.5 144.7C257.8 144.8 261.8 146.8 264.3 150.4C266.1 153 267 155.5 269.9 157C271.6 157.9 273.1 155.3 271.4 154.4C268 152.6 267 148.2 264.1 145.7C262.1 144 259.7 142.8 257.1 142.2C254.5 141.6 251.8 141.6 249.3 142.2C246.1 143 241.4 147.7 238.4 145.9C236.7 144.9 235.2 147.5 236.8 148.5Z" fill="#161616"/>
<path d="M253.2 143.1C273.4 116.5 293.7 89.8001 313.9 63.2001C315.1 61.7001 312.5 60.2001 311.3 61.7001C291.1 88.3001 270.8 115 250.6 141.6C249.5 143.1 252.1 144.6 253.2 143.1Z" fill="#161616"/>
<path d="M284.9 123.1C303.7 95.5 323.6 68.8 344.7 42.9C345.9 41.4 343.8 39.3 342.6 40.8C321.4 66.9 301.2 93.8 282.3 121.6C281.3 123.2 283.9 124.7 284.9 123.1Z" fill="#161616"/>
<path d="M235.6 175.1C237.5 173.5 240.3 175.1 239.8 177.6C239.4 179.5 242.3 180.3 242.7 178.4C243.2 176 242.3 173.5 240.1 172.2C237.9 170.9 235.3 171.4 233.4 173C232 174.2 234.1 176.3 235.6 175.1Z" fill="#161616"/>
<path d="M236.5 174.7C236 176.8 235.1 178.7 233.8 180.4C234.6 180.9 235.5 181.4 236.3 181.9C236.9 179.7 238.1 177.8 239.8 176.2C239 176.1 238.2 176 237.4 175.9C237.9 177 237.5 178.2 236.5 178.8C237.2 179.1 238 179.4 238.7 179.7C238.3 178.3 238.6 177 239.5 175.9C238.9 176 238.3 176.1 237.7 176.1C238.5 176.5 238.4 177.6 237.6 178C238.2 178.1 238.8 178.2 239.4 178.2C238.8 177.7 238.3 177.1 238 176.4C237.9 176.1 237.8 175.8 237.7 175.4C237.7 175.2 237.5 173.1 237.2 173.7C236.3 175.4 238.9 176.9 239.8 175.2C241.2 172.6 237.6 170.3 235.6 172.4C233.5 174.7 235.4 178.5 237.4 180.2C237.9 180.7 238.6 180.8 239.2 180.4C242 179 242 174.8 239.3 173.3C238.8 173 237.9 173 237.5 173.5C235.9 175.4 235.3 177.8 235.9 180.2C236.1 181.1 237.3 181.6 238.1 181.1C240.6 179.6 241.3 176.6 240.1 174.1C239.7 173.2 238.4 173.2 237.7 173.8C235.6 175.7 234.2 178.1 233.5 180.8C233.1 182.1 235 183.5 236 182.3C237.6 180.2 238.8 177.9 239.5 175.3C239.9 173.6 237 172.8 236.5 174.7Z" fill="#161616"/>
<path d="M230.9 190.4C228.9 201.2 224.4 211.1 217.3 219.5C216.1 221 218.2 223.1 219.4 221.6C226.8 212.7 231.7 202.5 233.8 191.1C234.1 189.3 231.2 188.5 230.9 190.4Z" fill="#161616"/>
<path d="M210 202.9C199.6 210.6 188.6 217.5 177.2 223.6C175.5 224.5 177 227.1 178.7 226.2C190.1 220.1 201.1 213.2 211.5 205.5C213.1 204.3 211.6 201.7 210 202.9Z" fill="#161616"/>
<path d="M454.1 431.5C451.4 427.3 446.9 429.5 444.5 432.7C441.9 436 439.8 439.9 437.6 443.5C435.9 446.3 433.9 449.4 433.6 452.9C433 459.9 438.3 460.7 443.6 462.4C449.9 464.5 449.5 471.9 445.5 476C442.3 479.3 437.6 480.7 433.4 482.1C431.6 482.7 432.4 485.6 434.2 485C442.6 482.3 455.1 476.2 450.8 465C450.1 463.2 448.9 461.7 447.3 460.7C446.4 460.2 445.4 459.8 444.4 459.5C441.5 458.6 440.7 458.9 438.4 456.4C436.5 455.3 435.9 453.8 436.8 451.8C437.2 450.4 437.7 449.1 438.4 447.9C439.2 446.3 440.2 444.8 441.2 443.3C442.2 441.8 449.2 429.2 451.5 432.9C452.5 434.6 455.1 433.1 454.1 431.5Z" fill="#161616"/>
<path d="M282.4 549.2C290.6 547.1 297.6 555.2 294 563C293.2 564.7 295.8 566.3 296.6 564.5C301.3 554.4 292.6 543.5 281.7 546.3C279.7 546.8 280.5 549.7 282.4 549.2Z" fill="#161616"/>
<path d="M435.6 384.5C431.8 381.7 431.8 374.4 437.6 374.2C439.7 374.1 441.9 375.3 441.8 377.6C441.8 379.5 440.1 381.8 438 381.5C436.1 381.2 435.3 384.1 437.2 384.4C440.9 385 444.1 382.3 444.7 378.7C445.4 375 442.7 371.8 439.1 371.3C435.4 370.7 431.6 372.8 430.3 376.4C429 380.4 430.8 384.7 434.1 387.1C435.6 388.2 437.1 385.6 435.6 384.5Z" fill="#161616"/>
<path d="M17.6 372.1C19 366.5 23.8 363.3 28.3 360.2C33 356.9 37.8 353.5 42.6 350.2C52.1 343.5 61.6 336.9 71.1 330.2C72.7 329.1 71.2 326.5 69.6 327.6C58.5 335.4 47.4 343.1 36.3 350.9C28.8 356.1 17.1 361.6 14.7 371.3C14.2 373.2 17.1 374 17.6 372.1Z" fill="#161616"/>
<path d="M688.5 897.8C567 877 445.5 856.2 324 835.4C397.8 805.6 471.6 775.9 545.4 746.1C660.8 771.8 776.2 797.5 891.5 823.2C823.9 848.1 756.2 872.9 688.5 897.8Z" fill="white" stroke="#161616" stroke-width="3"/>
<path d="M683.5 899.3C683.9 900.5 684.2 901.8 684.6 903C685.1 904.6 687.5 904.3 687.5 902.6C687.5 901.6 687.5 900.7 687.5 899.7C687.5 897.8 684.5 897.8 684.5 899.7C684.5 900.9 684.3 902 683.8 903.1C684.8 903.1 685.7 903.1 686.7 903.1C686.3 901.8 686.2 900.6 686.5 899.2C685.6 899.3 684.7 899.4 683.8 899.6C684.1 899.9 684.1 900.1 683.9 900.4C684.8 900.5 685.7 900.6 686.6 900.8C686.4 900.1 686.5 899.5 686.9 898.9C686 898.6 685 898.4 684.1 898.1C683.9 899.7 683.7 901.2 683.5 902.8C683.4 903.6 684.3 904.3 685 904.3C685.9 904.3 686.4 903.6 686.5 902.8C686.7 901.2 686.9 899.7 687.1 898.1C687.3 896.6 685 896.2 684.3 897.3C683.5 898.6 683.3 900.1 683.7 901.6C684 902.9 685.8 903 686.4 902C687.2 900.8 687.2 899.3 686.3 898.2C685.6 897.3 683.8 897.2 683.6 898.6C683.2 900.4 683.3 902.3 683.8 904.1C684.3 905.6 686.2 905.4 686.7 904.1C687.2 902.7 687.5 901.3 687.5 899.9C686.5 899.9 685.5 899.9 684.5 899.9C684.5 900.9 684.5 901.8 684.5 902.8C685.5 902.7 686.5 902.5 687.4 902.4C687 901.2 686.7 899.9 686.3 898.7C685.9 896.6 683 897.4 683.5 899.3Z" fill="#161616"/>
<path d="M685.8 906.5C701.9 898.2 719.5 893.8 736.8 888.9C745.3 886.5 753.7 883.9 761.8 880.5C769.6 877.3 777.1 873.3 784.8 869.7C801.9 861.7 820.4 856.5 838.3 850.6C856.9 844.4 875.4 838.2 894 832.1C895.8 831.5 895 828.6 893.2 829.2C874.6 835.4 856.1 841.6 837.5 847.7C819.9 853.5 801.8 858.7 784.9 866.4C776.1 870.4 767.5 875.1 758.5 878.6C750.3 881.8 741.9 884.3 733.4 886.7C716.7 891.5 699.8 895.9 684.2 903.9C682.6 904.8 684.1 907.4 685.8 906.5Z" fill="#161616"/>
<path d="M687.2 905.9C756.3 882 825.2 857.8 894.1 833.2C899.5 831.3 897.2 822.6 891.7 824.5C822.9 849.1 753.9 873.3 684.8 897.2C679.4 899.1 681.7 907.8 687.2 905.9Z" fill="#161616"/>
<path d="M679.4 809.3C692.4 810.6 703.5 818.5 716.3 821C718.2 821.4 719 818.5 717.1 818.1C704.1 815.5 692.8 807.6 679.4 806.3C677.5 806.2 677.5 809.2 679.4 809.3Z" fill="#161616"/>
<path d="M717.2 819.6C725.1 815.3 732.5 810.2 739.2 804.2C740.6 802.9 738.5 800.8 737.1 802.1C730.5 807.9 723.4 812.9 715.7 817C714 818 715.5 820.6 717.2 819.6Z" fill="#161616"/>
<path d="M682.5 803.6C688.8 799.1 695.3 794.8 702 790.8C703.7 789.8 702.1 787.2 700.5 788.2C693.8 792.2 687.3 796.4 681 801C679.4 802.2 680.9 804.8 682.5 803.6Z" fill="#161616"/>
<path d="M702.5 791.3C713.9 795.6 725.3 799.8 736.8 804.1C738.6 804.8 739.4 801.9 737.6 801.2C726.2 796.9 714.8 792.7 703.3 788.4C701.5 787.8 700.7 790.7 702.5 791.3Z" fill="#161616"/>
<path d="M670.4 820.7C700.5 830 730.2 840.7 759.3 852.8C761.1 853.5 761.9 850.6 760.1 849.9C731 837.8 701.3 827.1 671.2 817.8C669.3 817.2 668.5 820.1 670.4 820.7Z" fill="#161616"/>
<path d="M673.3 844C692 853 710.9 861.5 730 869.8C731.8 870.6 733.3 868 731.5 867.2C712.4 859 693.5 850.4 674.8 841.4C673.1 840.6 671.6 843.2 673.3 844Z" fill="#161616"/>
<path d="M676 869.7C686.2 874.9 696.4 880.2 706.6 885.4C708.3 886.3 709.8 883.7 708.1 882.8C697.9 877.6 687.7 872.3 677.5 867.1C675.8 866.2 674.3 868.8 676 869.7Z" fill="#161616"/>
<path d="M681.8 870.6C695.9 858.6 710.7 847.6 726.1 837.4C727.7 836.3 726.2 833.7 724.6 834.8C709 845.1 694 856.4 679.7 868.5C678.2 869.8 680.3 871.9 681.8 870.6Z" fill="#161616"/>
<path d="M678.1 850.1C686.1 844.5 694.1 838.9 702.1 833.2C703.7 832.1 702.2 829.5 700.6 830.6C692.6 836.2 684.6 841.8 676.6 847.5C675.1 848.6 676.6 851.2 678.1 850.1Z" fill="#161616"/>
<path d="M683.1 904.7C557.4 883.3 431.7 861.9 306 840.5C294.2 751.2 282.3 662 270.5 572.7C405.8 590.9 541 609.1 676.3 627.4C678.6 719.8 680.9 812.2 683.1 904.7Z" fill="white" stroke="#161616" stroke-width="3"/>
<path d="M459.1 750.2C448.2 746.8 442.3 737.6 441.4 726.5C440.5 715.2 442.7 704.3 453.2 698.4C462.5 693.2 473.6 694.7 481.9 701C490.2 707.3 497.6 720.2 490.9 730.1C489.8 731.7 492.4 733.2 493.5 731.6C500.7 721 493.9 707 485.1 699.7C476 692.2 463.7 689.9 453 695.2C440.6 701.3 437.4 713.7 438.4 726.6C439.4 739.1 446 749.4 458.3 753.2C460.1 753.7 460.9 750.8 459.1 750.2Z" fill="#161616"/>
<path d="M461.9 751.3C457.3 743.7 458.8 733.1 466.2 727.8C473.6 722.5 484.2 724.7 489.8 731.5C491 733 493.1 730.9 491.9 729.4C485.3 721.5 472.9 719.3 464.3 725.4C455.7 731.6 453.9 744 459.3 752.8C460.3 754.4 462.9 752.9 461.9 751.3Z" fill="#161616"/>
<path d="M472.2 755.5C467.5 750.5 468.2 741.2 474.5 737.6C480.7 734 489.1 738.1 491.1 744.7C491.7 746.5 494.6 745.8 494 743.9C491.4 735.5 480.9 730.5 473 735.1C465.1 739.7 464.1 751.3 470.1 757.7C471.4 759 473.5 756.9 472.2 755.5Z" fill="#161616"/>
<path d="M479.9 762.5C483.8 763.9 488.3 761.6 489.8 757.9C491.4 754.2 489.3 750.2 485.8 748.6C482.3 747 478.1 747.9 476.2 751.3C474.4 754.6 475 759.1 478 761.5C479.5 762.7 481.6 760.6 480.1 759.4C476.1 756.3 478.9 749 484.2 751.2C486.5 752.1 488.1 754.5 487 757C485.9 759.4 483.1 760.6 480.7 759.7C478.9 759 478.1 761.9 479.9 762.5Z" fill="#161616"/>
<path d="M676.3 627.3L685.1 902.8" stroke="#161616" stroke-width="3"/>
<path d="M676.9 627.1C679.6 717.7 682.3 808.3 685 898.9" stroke="#161616" stroke-width="3"/>
<path opacity="0.37" d="M503.8 608.7C510.3 612.1 566.1 642.5 570 696.5C572.2 726.3 557.6 748.9 548.4 762.7C498.8 837.3 400.7 850.5 374.1 853.3C412.8 879 548 963.7 695.8 958.7C728.7 957.6 779.7 955.3 835 924.9C876.5 902.1 903.4 872.8 918.8 853.3C909.3 847.4 899.9 841.6 890.4 835.7C820.6 859.6 750.7 883.5 680.9 907.3C677.3 814.9 673.7 722.6 670.1 630.2C614.6 623.2 559.2 616 503.8 608.7Z" fill="#3D3D3D"/>
<path opacity="0.5" d="M424.3 859.8C437.3 868.4 457.4 880.7 483.4 892.5C515.8 907.3 611.7 951.1 715.6 926.8C791.1 909.1 849.5 860.6 845.7 852.6C843.3 847.6 814 852.8 683.5 904.7C681.4 862.4 679.3 820 677.3 777.7C673.7 813.3 670 848.9 666.4 884.4C585.7 876.3 505 868 424.3 859.8Z" fill="#3D3D3D"/>
<path d="M451.2 745.8C443.9 737.8 441.5 726.6 445.1 716.8C448.8 706.9 458.6 698.4 470.3 698.8C480.6 699.2 488.9 706.4 491.9 713.2C494.1 718.4 493.6 723.2 493.6 723.2C493.3 725.9 492.4 728 491.7 729.3C486.6 723.4 478.8 720.7 471.5 722.4C462.5 724.5 458.6 732.2 458.2 732.9C454.1 741.3 457.7 749.1 458.2 750C455.8 748.5 453.5 747.1 451.2 745.8Z" fill="#5222D0"/>
<path d="M957.2 619.2C951.8 623.2 946 628.6 940.7 635.7C921 662.2 923.7 693.3 925.1 703.4C907.6 699.8 878.2 696.3 843.5 704.3C822.8 709.1 806.2 716.6 794 723.4C795.9 724.6 798.5 726 801.8 726.9C820.5 732 840.2 716.3 840.8 717.4C841.4 718.4 818.8 729 820 738.2C820.8 744.4 831.9 747.7 843.4 751.2C853.1 754.1 862.3 756.9 874.6 755.5C891.5 753.6 903.2 745.1 908.4 740.7C913.4 743.2 920.8 746.5 930.1 749.4C947.2 754.6 970.8 761.8 986.5 752C996.7 745.6 999.8 730.6 1005.6 700.8C1013 662.6 1016.7 643.5 1006.5 631.4C993 615.3 965.9 618 957.2 619.2Z" fill="white" stroke="#161616" stroke-width="3"/>
<path d="M921.7 704.4C933.8 708.9 943.8 717.1 950.7 728C951.7 729.6 954.3 728.1 953.3 726.5C946 714.9 935.3 706.3 922.5 701.5C920.7 700.9 919.9 703.8 921.7 704.4Z" fill="#161616"/>
<path d="M857.4 724.2C845.5 726.2 835.9 734.2 831.6 745.4C830.9 747.2 833.8 748 834.5 746.2C838.4 736 847.4 728.9 858.2 727.1C860.1 726.8 859.3 723.9 857.4 724.2Z" fill="#161616"/>
<path d="M833 747.3C839.2 753.2 847.8 755.2 855.9 752.6C857.7 752 856.9 749.1 855.1 749.7C848 752 840.5 750.4 835.1 745.2C833.7 743.8 831.6 745.9 833 747.3Z" fill="#161616"/>
<path d="M871.3 734.1C867 736.7 863 739.7 859.2 742.9C856.7 745.1 853.9 747.7 854.5 751.3C856 760.8 867.4 758.7 873.6 756.3C875.4 755.6 874.6 752.7 872.8 753.4C870.1 754.4 867.1 755.7 864.2 755.6C859.5 755.4 855.3 750.9 859.3 746.8C863.1 742.8 868.1 739.6 872.8 736.6C874.5 735.7 873 733.1 871.3 734.1Z" fill="#161616"/>
<path d="M952.2 476.5C956.3 479.7 961.6 484.1 967.2 489.8C968.8 491.4 972.9 495.6 977 500.8C983.4 508.8 987.5 516.4 992 525.7C997.8 537.6 1003.6 549.5 1009.4 567.3C1014.3 582.3 1021.8 605.9 1022.7 637.3C1023.1 649.7 1022.3 660.1 1021.5 667.4C1017.4 662.7 1013.3 659.6 1009.9 657.6C990.8 645.9 967.6 650.1 945.7 654.1C937.5 655.6 930.7 657.4 926 658.7C927.2 647.7 928.3 636.7 929.5 625.7C930.5 616.5 931.4 607.2 932.4 597.9C930.5 594.6 927.9 589.9 925.5 584C920.8 572.7 911.4 550.5 916.8 525.6C923.2 497 945.7 480.8 952.2 476.5Z" fill="#EC615B"/>
<path d="M955.7 482C965.7 487.2 972.4 496.2 978.2 505.5C984.2 515.1 989.6 525 994.4 535.2C1004.2 556 1011.4 578 1016.1 600.5C1016.5 602.4 1019.4 601.6 1019 599.7C1014.2 576.3 1006.6 553.6 996.2 532C991.1 521.4 985.5 511.1 979.1 501.2C973.4 492.4 966.7 484.2 957.3 479.3C955.5 478.5 954 481.1 955.7 482Z" fill="#161616"/>
<path d="M924.5 583.7C929.1 593.1 933.9 602.3 938.9 611.5C939.8 613.2 942.4 611.7 941.5 610C936.5 600.8 931.7 591.6 927.1 582.2C926.2 580.4 923.6 581.9 924.5 583.7Z" fill="#161616"/>
<path d="M931.6 600.9C929.1 620.3 926.6 639.7 924.2 659.1C924.1 660.1 925.3 660.8 926.1 660.5C943.1 655.1 960.8 652.5 978.6 653.1C992.7 653.6 1011.4 654.9 1019.3 668.7C1020.3 670.4 1022.8 668.9 1021.9 667.2C1014.4 654 998 651.3 984.2 650.4C964.3 649 944.3 651.6 925.4 657.6C926 658.1 926.7 658.6 927.3 659C929.8 639.6 932.3 620.2 934.7 600.8C934.9 599 931.9 599 931.6 600.9Z" fill="#161616"/>
<path d="M1015.9 599C1019.4 621 1025.1 644.3 1019.2 666.4C1018.7 668.3 1021.6 669.1 1022.1 667.2C1028.1 644.6 1022.4 620.8 1018.8 598.2C1018.5 596.3 1015.6 597.1 1015.9 599Z" fill="#161616"/>
<path opacity="0.32" d="M944.6 472.8C953.7 489.8 962.8 510.1 970.5 533.4C985.6 579.4 989.6 620.7 989.9 651.6C979.7 652.2 969.5 652.8 959.3 653.4C962.6 677.1 966 700.9 969.3 724.6C962.9 720.9 953.1 716.2 940.5 713.4C936.4 712.5 921.3 709.5 905.2 712.2C871.4 717.9 851 745.6 846.4 752.2C851 754.1 856.9 755.9 864 756.3C885.8 757.6 901.7 745 906.4 741C921.3 748.5 934.3 752.1 943.5 753.9C959.6 757.2 978.4 761 988.8 751C989.6 750.2 991.4 748.3 995.3 738.6C1001.4 723.2 1004.6 708.8 1008.8 682.7C1009.7 676.9 1011 669.1 1012.3 659.8C1014.8 662.3 1017.4 664.9 1019.9 667.4C1021.1 662.9 1022.6 656.2 1023.4 648C1025.5 626.7 1021.4 609.9 1017.5 596.2C1001.8 540.8 992.4 507.4 961 483.2C954.5 478.4 948.5 474.9 944.6 472.8Z" fill="#3D3D3D"/>
<path opacity="0.29" d="M997.5 541.3C1004.2 573.9 1005.1 601.6 1004.6 621.6C1004.1 640.2 1002.2 653.8 1000.2 667.5C994.3 708.8 991.3 729.4 979.9 739C958.3 757.2 919.8 743.4 910.6 739.9C919.3 745.7 950.6 765.4 981.2 754.5C984.4 753.3 987.9 751.8 991.3 749.6C994.9 743.5 999.7 734.1 1002.8 721.8C1004.6 714.5 1005.1 709.2 1005.8 703C1006.9 693 1008.8 678.4 1012 660.1C1014.9 662.6 1017.9 665.1 1020.8 667.6C1021.8 662.5 1023.1 654.7 1023.4 645.1C1024.3 621.9 1019.2 604.3 1013.3 584.2C1010.1 573.2 1005.1 558.4 997.5 541.3Z" fill="#3D3D3D"/>
<path d="M722.6 278.8C723.6 289.5 725.4 304.5 729.4 322.2C732 333.7 733.6 341 737 350.1C742.1 363.8 751.8 390 777.1 407.1C783.2 411.3 793.3 416.9 807.5 420.2C809.8 420.4 812.1 420.7 814.4 420.9C815.2 425.1 816.2 431.3 817.2 438.8C819.6 458.1 818.4 464 823.4 469.2C829.5 475.5 839.2 474.9 841.3 474.7C858 473.6 866.4 457 866.8 456.1C864.1 451.2 861.4 445.2 859.2 438.2C854.4 422.7 854.3 408.9 855.1 399.5C862.8 388.4 871.3 379.9 879.9 373.3C883.2 370.8 886 367.4 890.9 365.7C897.9 363.3 901.5 365.7 906.7 364.1C915.3 361.4 919 350.3 920.6 345.7C926.7 327.5 919.2 309.5 914.4 298.8C910.1 289 898.9 264.7 871.6 245.7C843.5 226.1 787.3 204.3 750.1 232.6C743.7 237.5 729.1 250.6 722.6 278.8Z" fill="white"/>
<path d="M726.8 320C720.4 318.9 704.2 315.1 693.7 301.2C677.7 280.1 686.3 250.6 695.2 235C709.2 210.5 734.7 202 766.7 191.3C785.7 185 803.8 179 828.4 180C842 180.6 888.1 182.6 915.7 216.9C932.1 237.2 933.9 259 937.5 302C939.2 321.7 937.9 332.4 934.5 342.6C932 350 923.9 373.7 900.6 383.2C888.4 388.2 877.1 387.2 870.9 386.2C876.5 377.9 882.1 369.7 887.8 361.4C891 361.6 902.4 361.8 911.1 353.9C923 343 925.1 321.3 916.4 315.5C910 311.2 897.3 315.4 886.3 325.3C885.3 319 883.7 312.1 881 305C868.4 271.1 841 252.5 827.6 244.8C822.3 251.6 805.5 271.5 775.7 279.4C752.1 285.6 732.5 281.2 723.8 278.6C724.8 292.4 725.8 306.2 726.8 320Z" fill="#5222D0"/>
<path d="M721.8 281.4C725.9 312.3 730.2 344.4 745.3 372.2C757.7 395 777.7 414.5 803.4 421C805.3 421.5 806.1 418.6 804.2 418.1C778.8 411.6 759.2 392 747.2 369.3C732.9 342.3 728.8 311.3 724.8 281.4C724.5 279.5 721.5 279.5 721.8 281.4Z" fill="#161616"/>
<path d="M803.4 421.4C821.5 421.4 840.5 411.7 854.7 401.3C869 390.8 880.7 377.3 889.1 361.7C890 360 887.4 358.5 886.5 360.2C878.4 375.4 867.1 388.6 853.2 398.7C839.3 408.9 820.9 418.4 803.4 418.4C801.4 418.4 801.4 421.4 803.4 421.4Z" fill="#161616"/>
<path d="M854.6 398.9C852.6 419.1 856.5 439.3 865.7 457.4C866.6 459.1 869.2 457.6 868.3 455.9C859.3 438.2 855.7 418.6 857.6 398.9C857.8 397 854.8 397 854.6 398.9Z" fill="#161616"/>
<path d="M811.1 420.9C814.4 432.3 817.1 443.9 819.1 455.6C820.4 463.4 820.9 472.2 829.6 475.1C842.6 479.5 861.8 471.7 866.8 458.8C867.5 457 864.6 456.2 863.9 458C861.1 465.3 854.1 469.3 846.9 471.4C840.9 473.1 831.8 474.9 826.7 470C823.7 467.1 823.3 462.5 822.7 458.6C822 454.5 821.3 450.4 820.5 446.3C818.7 437.5 816.6 428.7 814.1 420.1C813.5 418.3 810.6 419.1 811.1 420.9Z" fill="#161616"/>
<path d="M815.4 433.3C833.2 431 844.9 417.4 853.5 402.8C854.5 401.1 851.9 399.6 850.9 401.3C843 414.9 832 428.2 815.4 430.3C813.5 430.6 813.5 433.6 815.4 433.3Z" fill="#161616"/>
<path d="M814.7 423.1C828.6 421.5 841.1 415 850.4 404.5C851.7 403.1 849.6 400.9 848.3 402.4C839.6 412.3 827.8 418.6 814.7 420.1C812.9 420.3 812.8 423.3 814.7 423.1Z" fill="#161616"/>
<path d="M815.2 420.9C826.4 419.3 836.5 414.7 845.1 407.4C846.6 406.1 844.4 404 843 405.3C834.8 412.3 825.1 416.6 814.4 418.1C812.5 418.3 813.3 421.2 815.2 420.9Z" fill="#161616"/>
<path d="M814.6 423.4C815.1 425.8 815 430.6 818 431.4C820.9 432.2 825.3 428.8 827.6 427.4C835.5 422.6 842.1 416.1 847.3 408.5C848.4 406.9 845.8 405.4 844.7 407C841 412.5 836.5 417.4 831.2 421.4C828.7 423.3 826.1 424.9 823.4 426.4C822.3 427 819.8 428.7 818.7 428C818 427.6 817.7 423.3 817.6 422.6C817.1 420.7 814.2 421.5 814.6 423.4Z" fill="#161616"/>
<path d="M816 426.2C824.6 422.7 832.7 418.3 840.3 413C841.9 411.9 840.4 409.3 838.8 410.4C831.4 415.6 823.6 419.9 815.2 423.3C813.4 424 814.2 426.9 816 426.2Z" fill="#161616"/>
<path d="M817.5 429.2C827.1 425.8 835.5 420.5 842.5 413.1C843.8 411.7 841.7 409.6 840.4 411C833.7 417.9 825.8 423.1 816.7 426.3C814.9 427 815.7 429.9 817.5 429.2Z" fill="#161616"/>
<path d="M819.1 427.6C826.2 424.5 832.7 420.3 838.3 414.9C839.7 413.6 837.6 411.5 836.2 412.8C830.7 418 824.5 422 817.6 425C815.8 425.8 817.3 428.4 819.1 427.6Z" fill="#161616"/>
<path d="M737.4 357.4C721.1 351.6 715.7 330.3 717.3 314.9C719 298 734.2 279.6 752.8 287.5C761.7 291.3 765 301.1 767.4 309.8C769.9 319 771 329.2 768.6 338.6C766.5 346.9 761.4 354.8 753.4 358.4C745.4 362 735.9 360 730.5 353.1C729.3 351.6 727.2 353.7 728.4 355.2C737.5 366.9 754.6 364.6 763.8 354.3C775.5 341.2 774.3 321.3 769.3 305.6C767 298.3 764 290.7 757.3 286.5C751.5 282.8 744.1 281.9 737.6 283.6C722.4 287.7 714.5 303.8 714.2 318.5C713.9 334.6 720.2 354.5 736.8 360.3C738.4 360.9 739.2 358 737.4 357.4Z" fill="#161616"/>
<path d="M772 327.5C781.8 321.6 793.7 321 803.9 326.1C805.6 327 807.1 324.4 805.4 323.5C794.2 317.9 781.2 318.4 770.4 324.9C768.9 325.9 770.4 328.5 772 327.5Z" fill="#161616"/>
<path d="M819.8 348.8C808.5 337.9 803.8 321 808.2 305.8C812.8 290 828.6 276.4 845.6 282C864.4 288.2 865.4 315.1 860.5 330.9C857.6 340.2 851.8 349.5 842.2 352.9C832.6 356.3 824.3 351.2 816.6 345.8C815 344.7 813.5 347.3 815.1 348.4C821.4 352.9 828.2 357.4 836.2 357.1C843.8 356.8 850.7 352.6 855.4 346.9C866 334.1 868.1 314.6 863.7 299C859.7 284.8 847.9 275.6 832.8 278.1C818.4 280.4 807.8 293.4 804.6 307C800.9 322.7 805.9 339.7 817.5 350.9C819.1 352.3 821.2 350.1 819.8 348.8Z" fill="#161616"/>
<path d="M746.5 315.9C745.5 322.2 746.6 328.3 750 333.7C750.7 334.8 752.3 334.6 752.7 333.3C755.1 326.4 751.7 319.6 748.3 313.7C747.6 312.4 745.5 313 745.5 314.5C745.6 319.8 746.7 325 748.7 329.9C749.4 331.7 752.3 330.9 751.6 329.1C749.7 324.4 748.6 319.6 748.5 314.5C747.6 314.8 746.6 315 745.7 315.3C748.8 320.6 752 326.4 749.8 332.6C750.7 332.5 751.6 332.4 752.5 332.2C749.5 327.5 748.4 322.2 749.3 316.7C749.7 314.8 746.8 314 746.5 315.9Z" fill="#161616"/>
<path d="M835 313.1C835 311.8 834.9 311.5 834.3 310.4C833.6 309.1 831.5 309.7 831.5 311.2C831.6 317.4 832.1 324.1 836.9 328.5C837.9 329.4 839.3 328.7 839.5 327.4C840.3 320 838.1 313.1 833.5 307.3C832.5 306.1 830.7 307.4 831 308.8C832.2 313.7 833.7 318.5 835.5 323.1C836.2 324.9 839.1 324.1 838.4 322.3C836.5 317.6 835 312.9 833.9 308C833.1 308.5 832.2 309 831.4 309.5C835.5 314.7 837.2 320.9 836.5 327.5C837.4 327.1 838.2 326.8 839.1 326.4C834.8 322.5 834.6 316.6 834.5 311.2C833.6 311.5 832.6 311.7 831.7 312C831.8 312.4 831.9 312.8 832 313.2C832 315 835 315 835 313.1Z" fill="#161616"/>
<path d="M782 332.8C780 338.8 778.3 344.9 777.2 351.1C776.6 354.4 774.5 360.6 776 363.9C779 370.6 792.3 366.5 796.9 364.3C798.6 363.5 797.1 360.9 795.4 361.7C791.7 363.5 787.7 364.4 783.6 364.1C781.2 363.9 779.3 363.5 778.8 360.8C778.5 359.3 779.5 355.4 779.8 353.7C781 346.8 782.8 340.1 785 333.5C785.5 331.8 782.6 331 782 332.8Z" fill="#161616"/>
<path d="M797.1 390.5C804.6 389.5 811.1 384.7 814.4 377.8C815.2 376.1 812.6 374.5 811.8 376.3C808.8 382.6 803.2 386.7 796.3 387.6C794.4 387.9 795.3 390.8 797.1 390.5Z" fill="#161616"/>
<path d="M740.2 307.3C742.1 305 745.6 304.6 748 306.6C749.5 307.9 751.6 305.7 750.1 304.5C746.6 301.5 741.2 301.7 738.1 305.2C736.8 306.6 738.9 308.7 740.2 307.3Z" fill="#161616"/>
<path d="M826 301.7C829.1 299 833.8 299 836.9 301.6C838.4 302.8 840.5 300.7 839 299.5C834.6 295.7 828.2 295.8 823.8 299.6C822.4 300.9 824.6 303 826 301.7Z" fill="#161616"/>
<path d="M865.4 315.5C876.2 311.7 887.3 309.4 898.8 308.8C900.7 308.7 900.7 305.7 898.8 305.8C887.1 306.4 875.7 308.7 864.6 312.6C862.8 313.3 863.5 316.2 865.4 315.5Z" fill="#161616"/>
<path opacity="0.4" d="M880.3 190.9C886.3 198.6 909.4 230.2 905.1 273.6C902.7 297.8 892.7 315.6 886.4 325C890 322.2 893.1 320.3 895.4 319C901.5 315.6 905.4 313.5 910.4 313.8C911.9 313.9 915.5 314.2 918.1 316.3C925.7 322.7 923.1 345.4 909.6 356C902.2 361.8 893.5 362.4 889.1 362.3C883.4 370.4 877.6 378.5 871.9 386.7C875.7 387.3 881.5 387.8 888.2 386.8C891.1 386.4 902.7 384.3 913.7 375.5C924.5 366.8 928.9 356.2 931.8 349C939.8 329 938.2 311.4 935.4 279.7C934.2 265.6 933.5 258.4 930.7 248.9C927.7 238.6 923 223.4 909.6 209.8C900 199.8 889.2 194.2 880.3 190.9Z" fill="#3D3D3D"/>
<path opacity="0.48" d="M783.7 276.4C793.7 267.5 804.9 256.1 815.7 241.9C822.4 233.1 828 224.6 832.6 216.7C830.9 225.7 829.2 234.7 827.6 243.7C823.7 249.3 817.2 257.3 807.1 264.6C798.2 270.9 789.8 274.4 783.7 276.4Z" fill="#3D3D3D"/>
<path opacity="0.27" d="M854.8 265C862.4 290.3 863 311.5 862.3 325.5C861.8 335.9 859 390.4 830.3 409.2C827.5 411 820.4 415.2 820.7 415.8C821.1 416.5 834.4 410.6 841.7 406.6C853.2 400.4 870.9 387.9 887.3 361.5C890 361.8 903.2 362.7 912.7 353.6C924.2 342.7 926.2 321.3 917.1 315C910.6 310.5 898.2 314.3 887.3 323.3C886.2 318.7 884.8 313.9 882.9 308.8C875.4 289 864.1 274.6 854.8 265Z" fill="#3D3D3D"/>
<path opacity="0.36" d="M830.7 415C833.3 423 835.9 431 838.5 439.1C842.1 450.1 845.6 461.2 849.1 472.2C851.1 471.8 856 470.4 860.3 466C864.6 461.6 866 456.8 866.5 454.8C862.6 447.1 858 435.4 856.4 420.6C855.6 412.9 855.8 406.1 856.4 400.4C847.9 405.3 839.3 410.2 830.7 415Z" fill="#3D3D3D"/>
<path opacity="0.43" d="M780.8 336.3C775.8 347 770.8 357.6 765.8 368.3C774 368.1 782.1 368 790.3 367.8C785.5 366.3 780.6 364.8 775.8 363.3C777.4 354.3 779.1 345.3 780.8 336.3Z" fill="#3D3D3D"/>
</svg>
