<svg width="1274" height="1091" viewBox="0 0 1274 1091" fill="none" xmlns="http://www.w3.org/2000/svg">
<path d="M937.3 853C942.5 878.1 947.7 903.1 952.8 928.2C953.2 930.1 956.1 929.3 955.7 927.4C950.5 902.3 945.3 877.3 940.2 852.2C939.8 850.3 936.9 851.1 937.3 853Z" fill="#E8E8E8"/>
<path d="M954 930.3C978.7 943.3 1008.2 944.1 1033.6 932.5C1035.4 931.7 1033.8 929.1 1032.1 929.9C1007.8 941 979.2 940.1 955.5 927.7C953.8 926.8 952.3 929.4 954 930.3Z" fill="#E8E8E8"/>
<path d="M1035.4 930.8C1043 904.7 1049.8 878.4 1055.9 851.8C1056.3 849.9 1053.4 849.1 1053 851C1046.9 877.5 1040.1 903.8 1032.5 930C1032 931.8 1034.9 932.6 1035.4 930.8Z" fill="#E8E8E8"/>
<path d="M938.5 852.6C975.4 867.6 1017.5 867.4 1054.2 852.1C1056 851.4 1055.2 848.5 1053.4 849.2C1017.1 864.4 975.7 864.6 939.3 849.7C937.6 848.9 936.8 851.8 938.5 852.6Z" fill="#E8E8E8"/>
<path d="M929.7 838.5C929.3 840.8 928.8 843.2 928.6 845.6C928.5 846.8 928.4 847.9 929.3 848.8C930.4 849.9 932.5 850.4 933.9 850.9C936.2 851.7 938.5 852.2 940.8 852.5C942.7 852.8 943.5 849.9 941.6 849.6C938.6 849.2 935.8 848.5 933 847.4C931.1 846.6 931.5 846.1 931.8 844.2C932.1 842.6 932.3 841 932.6 839.3C932.8 837.5 930 836.6 929.7 838.5Z" fill="#E8E8E8"/>
<path d="M930 839.8C948.8 850 972.1 849.5 992.9 850.2C1015.3 851 1038 849.9 1058.9 841.3C1058.3 841 1057.7 840.6 1057.1 840.3C1058.1 843.3 1058.3 846.1 1057.9 849.2C1058.3 848.7 1058.6 848.2 1059 847.8C1056.7 848.6 1054.4 849.4 1052 850.1C1050.2 850.7 1051 853.6 1052.8 853C1055.1 852.2 1057.4 851.4 1059.8 850.7C1060.5 850.5 1060.8 850 1060.9 849.3C1061.3 845.9 1061 842.9 1060 839.6C1059.8 838.9 1058.9 838.2 1058.2 838.6C1038.1 846.9 1016.3 848.1 994.8 847.4C974.1 846.8 950.3 847.4 931.6 837.3C929.8 836.3 928.3 838.9 930 839.8Z" fill="#E8E8E8"/>
<path d="M950 909.3C956.1 920.1 963.9 929.6 973.4 937.7C974.9 938.9 977 936.8 975.5 935.6C966.3 927.7 958.6 918.4 952.6 907.9C951.6 906.1 949 907.6 950 909.3Z" fill="#E8E8E8"/>
<path d="M944.2 882.8C950.9 894 958.2 904.7 966.2 914.9C970.3 920.1 974.5 925.1 978.8 930.1C981.4 933 985.1 939.2 989.1 939.7C989.6 939.8 990.2 939.4 990.4 939C990.8 938.3 990.9 937.8 990.6 937C990.4 936.4 989.9 935.9 989.2 935.9C989.1 935.9 989 935.9 988.9 935.9C987 935.9 987 938.9 988.9 938.9C989 938.9 989.1 938.9 989.2 938.9C988.7 938.5 988.2 938.2 987.8 937.8C989.1 937.2 989.3 936.5 988.3 935.9C987.9 935.5 987.5 935 987.1 934.6C986.1 933.5 985.1 932.4 984 931.3C982 929.1 980 926.9 978 924.6C974 919.9 970.1 915.2 966.4 910.3C959.3 901 952.8 891.3 946.8 881.3C945.8 879.6 943.2 881.1 944.2 882.8Z" fill="#E8E8E8"/>
<path d="M940.2 860.2C958.6 888.1 979.9 913.9 1004 937C1005.4 938.3 1007.5 936.2 1006.1 934.9C982.2 911.9 961 886.3 942.8 858.7C941.7 857.1 939.1 858.6 940.2 860.2Z" fill="#E8E8E8"/>
<path d="M963.5 860.8C980.4 887.6 999.9 912.6 1021.8 935.5C1023.1 936.9 1025.3 934.8 1023.9 933.4C1002.2 910.7 982.8 885.9 966.1 859.3C965.1 857.7 962.5 859.2 963.5 860.8Z" fill="#E8E8E8"/>
<path d="M991.1 863.1C1004.6 881.1 1018.7 898.6 1033.6 915.4C1034.9 916.9 1037 914.7 1035.7 913.3C1021 896.6 1007 879.4 993.7 861.6C992.6 860.1 990 861.6 991.1 863.1Z" fill="#E8E8E8"/>
<path d="M1014.7 862C1022.4 873.7 1031.2 884.6 1040.9 894.7C1042.2 896.1 1044.4 894 1043 892.6C1033.4 882.7 1024.9 872 1017.3 860.5C1016.2 858.9 1013.6 860.4 1014.7 862Z" fill="#E8E8E8"/>
<path d="M1034.3 858.7C1038.3 864.4 1042.7 869.9 1047.4 875C1048.7 876.4 1050.8 874.3 1049.5 872.9C1044.9 868 1040.7 862.7 1036.9 857.2C1035.8 855.6 1033.2 857.1 1034.3 858.7Z" fill="#E8E8E8"/>
<path d="M970.9 843.5C953.8 833 938.7 819.8 926.1 804.3C926.1 805 926.1 805.7 926.1 806.4C927.9 804.4 929.9 802.9 932.3 801.6C933.1 801.2 933.3 799.8 932.6 799.2C924.2 792.5 921.3 782.1 918.7 772.1C918.4 772.7 918 773.3 917.7 773.9C922.2 772.2 921.7 767.8 919.7 764.1C915.6 756.4 915.6 747.3 914.6 738.7C912.7 721.3 911.1 703.9 909.8 686.4C909 686.8 908.3 687.3 907.5 687.7C920.8 695.5 931.4 706.7 940.8 718.8C950.6 731.3 959.1 744.8 966.3 759C980.6 787.1 989.4 817.8 992.2 849.2C992.4 851.1 995.4 851.1 995.2 849.2C992.3 817.3 983.4 786.1 968.9 757.5C961.7 743.4 953.2 729.9 943.5 717.4C933.8 704.9 922.8 693.3 909.1 685.2C908.2 684.7 906.8 685.3 906.8 686.5C907.9 701 909.2 715.6 910.7 730.1C911.4 737.2 912.2 744.3 913 751.4C913.3 754.1 913.5 757 914.2 759.6C914.8 761.8 919.8 769.9 916.8 771C916 771.3 915.5 772 915.8 772.8C918.5 783.3 921.6 794.3 930.4 801.3C930.5 800.5 930.6 799.7 930.7 798.9C928 800.3 925.9 801.9 923.8 804.2C923.2 804.8 923.3 805.7 923.8 806.3C936.6 822.1 951.9 835.4 969.2 846C971.1 847.1 972.6 844.5 970.9 843.5Z" fill="#E8E8E8"/>
<path d="M931.8 839.7C939.3 838.6 946.8 837.9 954.3 837.5C956.2 837.4 956.2 834.4 954.3 834.5C946.5 834.9 938.7 835.7 931 836.8C929.1 837.1 929.9 840 931.8 839.7Z" fill="#E8E8E8"/>
<path d="M987.9 803.5C988.3 770.7 1002.8 740.6 1017 711.7C1016.3 711.9 1015.6 712.1 1014.9 712.2C1016.8 713.3 1018.7 714.5 1020.6 715.6C1021.6 716.2 1022.9 715.4 1022.9 714.3C1022.9 703.1 1034.7 694.5 1041.9 687.1C1050 678.8 1058.2 670.4 1066.3 662.1C1065.4 661.7 1064.6 661.4 1063.7 661C1065.6 678.1 1067.4 695.2 1068.1 712.4C1068.4 720.8 1068.5 729.2 1068.1 737.6C1067.8 744.3 1069.1 761.9 1059.1 761.9C1057.7 761.9 1057.3 763.5 1058 764.5C1064.4 772.5 1058.6 782.1 1053.4 788.8C1049 794.6 1044.5 800.2 1040.3 806.2C1031.2 819.1 1023.1 832.6 1015.9 846.6C1015 848.3 1017.6 849.8 1018.5 848.1C1027.1 831.4 1037 815.4 1048.2 800.4C1055.9 790.2 1070.8 775.6 1060.1 762.4C1059.7 763.3 1059.4 764.1 1059 765C1065.4 765 1068.7 759.5 1069.7 753.7C1071.4 744.1 1071.3 733.9 1071.3 724.1C1071.2 703 1068.9 682 1066.6 661.1C1066.5 659.9 1065 659 1064 660C1054.5 669.8 1044.9 679.5 1035.4 689.3C1028.6 696.3 1019.8 703.7 1019.7 714.3C1020.5 713.9 1021.2 713.4 1022 713C1020.1 711.9 1018.2 710.7 1016.3 709.6C1015.6 709.2 1014.6 709.4 1014.2 710.1C999.7 739.5 985.1 770 984.7 803.4C984.9 805.4 987.9 805.4 987.9 803.5Z" fill="#E8E8E8"/>
<path d="M1055.3 689C1028.3 735.5 1009.7 786.6 1000.4 839.6C1000.1 841.5 1003 842.3 1003.3 840.4C1012.5 787.7 1031 736.9 1057.9 690.6C1058.9 688.8 1056.3 687.3 1055.3 689Z" fill="#E8E8E8"/>
<path d="M925.7 725.4C948.1 763.6 966.9 803.9 981.8 845.6C982.4 847.4 985.3 846.6 984.7 844.8C969.7 802.8 950.8 762.3 928.3 723.9C927.3 722.3 924.7 723.8 925.7 725.4Z" fill="#E8E8E8"/>
<path d="M918.2 758.3C929.1 760.9 940.3 763.7 948.4 771.8C949.8 773.2 951.9 771 950.5 769.7C942 761.2 930.4 758.1 919 755.4C917.1 755 916.3 757.9 918.2 758.3Z" fill="#E8E8E8"/>
<path d="M939.9 745.7C940.5 737.4 942.6 729.4 946.1 721.8C946.9 720.1 944.3 718.5 943.5 720.3C939.8 728.4 937.5 736.8 936.9 745.7C936.8 747.6 939.8 747.6 939.9 745.7Z" fill="#E8E8E8"/>
<path d="M1012.1 716.7C1019.6 727.6 1021.3 740.5 1021.7 753.4C1021.8 755.3 1024.8 755.3 1024.7 753.4C1024.2 740 1022.4 726.5 1014.6 715.2C1013.6 713.6 1011 715.1 1012.1 716.7Z" fill="#E8E8E8"/>
<path d="M1037.9 731.1C1042.4 726 1047 720.9 1052.6 717C1057.1 713.9 1062.2 712 1066.3 708.2C1067.7 706.9 1065.6 704.8 1064.2 706.1C1059.8 710.3 1053.8 712.3 1049 716C1044.1 719.8 1040 724.4 1035.9 729C1034.5 730.4 1036.6 732.5 1037.9 731.1Z" fill="#E8E8E8"/>
<path d="M1023.6 836.1C1034.3 835.5 1044.7 837.4 1054.4 841.9C1056.1 842.7 1057.7 840.1 1055.9 839.3C1045.7 834.6 1034.8 832.5 1023.5 833.1C1021.6 833.2 1021.6 836.2 1023.6 836.1Z" fill="#E8E8E8"/>
<path d="M1021 846.7C1022.7 843.5 1024.3 840.3 1026 837C1025.1 836.6 1024.2 836.2 1023.3 835.8C1022.3 838.7 1021.3 841.5 1020.3 844.4C1019.7 846.1 1022.1 846.9 1023 845.6C1025 842.7 1027.1 839.9 1029.1 837C1028.2 836.6 1027.3 836.2 1026.4 835.8C1025.4 838.8 1024.4 841.8 1023.4 844.8C1022.8 846.4 1025.3 847.4 1026.1 846C1027.8 843.2 1029.4 840.5 1031.1 837.7C1030.2 837.4 1029.2 837.2 1028.3 836.9C1028.4 839.3 1028.1 841.4 1027.5 843.7C1027 845.4 1029.3 846.2 1030.2 844.9C1031.5 843.1 1032.8 841.3 1034.2 839.5C1033.3 839.1 1032.4 838.7 1031.5 838.3C1030.8 840.6 1030.2 842.9 1029.5 845.2C1029.2 846.4 1030.3 847.3 1031.3 847C1033 846.6 1034 846.1 1035 844.7C1035.7 843.8 1035.4 842.1 1033.9 842.1C1030 842.3 1026.3 842.9 1022.6 844.3C1021.1 844.8 1021.2 847.3 1023 847.2C1029.6 847 1035.8 845.3 1042.1 843.5C1044 842.9 1043.2 840.3 1041.3 840.6C1036.8 841.2 1032.4 841.3 1027.9 840.8C1028 841.8 1028.2 842.8 1028.3 843.7C1030.6 842.9 1040.4 839.7 1042.3 842.4C1042.6 841.7 1042.9 840.9 1043.2 840.2C1038.3 841.1 1033.9 840 1029.8 837.1C1029.5 838 1029.3 839 1029 839.9C1030 839.8 1039.3 839 1038.7 841.2C1039.3 840.9 1039.9 840.5 1040.5 840.2C1036.7 839.5 1033.2 838.4 1029.6 837.1C1029.5 838.1 1029.3 839.1 1029.2 840C1032 840.2 1034.2 840.8 1036.8 841.9C1036.9 841 1037 840.1 1037.2 839.2C1034.6 839.6 1032.5 839.2 1030.1 838.3C1029.8 839.3 1029.6 840.2 1029.3 841.2C1033.5 842.4 1037.5 842.7 1041.8 842.3C1043.4 842.1 1044 839.8 1042.2 839.4C1041 839.2 1039.8 838.8 1038.7 838.2C1038.3 839.1 1037.9 840 1037.5 840.9C1039.8 841.6 1041.9 842 1044.3 841.9C1046.2 841.9 1046.2 838.9 1044.3 838.9C1040.9 838.9 1038.1 838.2 1035.1 836.6C1035 837.5 1034.9 838.4 1034.7 839.3C1039.4 838.4 1043.5 839.4 1047.4 842.1C1047.7 841.2 1047.9 840.2 1048.2 839.3C1041.5 838.9 1034.8 838.3 1028.2 837.4C1028.2 838.4 1028.2 839.3 1028.2 840.3C1035.1 838.8 1041.7 839 1048.5 840.8C1048.6 839.8 1048.8 838.8 1048.9 837.9C1040.7 838.6 1032.7 837.9 1024.7 835.9C1024.7 836.9 1024.7 837.8 1024.7 838.8C1031.6 836.1 1038.8 836.1 1045.1 840.2C1045.4 839.3 1045.6 838.3 1045.9 837.4C1041.2 837.7 1036.8 837.3 1032.2 836.3C1032.1 837.3 1031.9 838.3 1031.8 839.2C1035.5 839.6 1039.3 840 1043 840.3C1044.9 840.5 1044.9 837.5 1043 837.3C1039.3 836.9 1035.5 836.5 1031.8 836.2C1030.1 836 1029.8 838.8 1031.4 839.1C1036.2 840.2 1041 840.7 1045.9 840.4C1047.4 840.3 1047.9 838.4 1046.7 837.6C1039.8 833.1 1031.5 832.9 1024 835.9C1022.7 836.4 1022.4 838.4 1024 838.8C1032.2 840.9 1040.5 841.6 1049 840.9C1050.6 840.8 1051.1 838.4 1049.4 838C1042.1 836.1 1034.9 835.9 1027.5 837.5C1026.1 837.8 1026 840.2 1027.5 840.4C1034.4 841.4 1041.3 842.1 1048.3 842.4C1049.9 842.5 1050.2 840.4 1049.1 839.6C1044.5 836.4 1039.5 835.5 1034.1 836.5C1032.8 836.7 1032.6 838.7 1033.7 839.2C1037.1 841 1040.5 841.9 1044.4 841.9C1044.4 840.9 1044.4 839.9 1044.4 838.9C1042.3 838.9 1040.4 838.6 1038.4 838C1036.8 837.5 1035.7 840 1037.2 840.7C1038.6 841.4 1039.9 841.8 1041.4 842.2C1041.5 841.2 1041.7 840.2 1041.8 839.3C1037.8 839.7 1034 839.4 1030.1 838.3C1028.2 837.8 1027.5 840.5 1029.3 841.2C1032.3 842.3 1034.8 842.5 1038 842.1C1039.2 841.9 1039.5 839.9 1038.4 839.4C1035.4 838.1 1032.6 837.3 1029.3 837.1C1027.5 836.9 1027.4 839.5 1028.9 840C1032.5 841.4 1036.1 842.4 1039.8 843.1C1040.6 843.3 1041.4 842.9 1041.6 842.1C1043.3 835.4 1032.6 836.7 1029 837C1027.5 837.1 1027 838.9 1028.2 839.8C1033 843.1 1038.2 844.2 1043.9 843.2C1044.8 843 1045.3 841.7 1044.8 841C1041.5 836.3 1031.8 839.5 1027.5 840.9C1025.8 841.5 1026.2 843.7 1027.9 843.8C1032.7 844.3 1037.3 844.2 1042.1 843.5C1041.8 842.5 1041.6 841.6 1041.3 840.6C1035.3 842.4 1029.3 844 1023 844.2C1023.1 845.2 1023.3 846.2 1023.4 847.1C1026.9 845.9 1030.2 845.2 1033.9 845C1033.5 844.1 1033.2 843.3 1032.8 842.4C1032 842.9 1031.2 843.4 1030.4 843.9C1031 844.5 1031.6 845.1 1032.2 845.7C1032.9 843.4 1033.5 841.1 1034.2 838.8C1034.7 837.1 1032.4 836.3 1031.5 837.6C1030.2 839.4 1028.9 841.2 1027.5 843C1028.4 843.4 1029.3 843.8 1030.2 844.2C1030.9 841.6 1031.2 839.3 1031.1 836.6C1031.1 835.1 1029.1 834.5 1028.3 835.8C1026.6 838.6 1025 841.3 1023.3 844.1C1024.2 844.5 1025.1 844.9 1026 845.3C1027 842.3 1028 839.3 1029 836.3C1029.6 834.6 1027.2 833.8 1026.3 835.1C1024.3 838 1022.2 840.8 1020.2 843.7C1021.1 844.1 1022 844.5 1022.9 844.9C1023.9 842 1024.9 839.2 1025.9 836.3C1026.5 834.7 1023.9 833.6 1023.2 835.1C1021.5 838.3 1019.9 841.5 1018.2 844.8C1017.5 846.9 1020.1 848.4 1021 846.7Z" fill="#E8E8E8"/>
<path d="M941.4 839.8C939.9 838.7 938.7 838.4 937 838.2C935.1 838 935.1 840.9 937 841.2C944.6 842.2 952.1 843.2 959.7 844.2C959.7 843.2 959.7 842.2 959.7 841.2C953.4 840.6 947.1 840.1 940.8 839.5C940.8 840.5 940.8 841.5 940.8 842.5C947.2 842.5 953.4 843.5 959.5 845.4C959.6 844.4 959.8 843.4 959.9 842.5C954 842.6 948.6 841.2 943.5 838.2C943.4 839.1 943.3 840 943.1 840.9C949.7 839.7 955.9 841 961.4 844.8C961.7 843.9 961.9 842.9 962.2 842C955.8 842.3 950 840.6 944.9 836.7C944.6 837.6 944.4 838.6 944.1 839.5C950.1 840 955.7 841.4 961.1 844C961.5 843.1 961.9 842.2 962.3 841.3C961.4 841 960.4 840.6 959.5 840.3C959.5 841.3 959.5 842.2 959.5 843.2C959.9 843.1 960.2 843.1 960.6 843C962.1 843.2 963 841.7 962.1 840.5C959.6 837.3 955.3 838.2 952.4 835.7C951.9 836.5 951.4 837.4 950.9 838.2C956.8 839.1 961.6 841.8 965.4 846.5C965.8 845.6 966.1 844.8 966.5 843.9C964.3 843.7 962.6 843.3 960.5 842.6C958.8 842.1 957.9 844.5 959.3 845.3C961.6 846.7 963.7 847.6 966.4 848C968.3 848.3 969.1 845.7 967.2 845.1C965.1 844.5 963.2 843.6 961.3 842.5C960.8 843.4 960.3 844.2 959.8 845.1C962.2 846.2 964.5 846.9 967.1 847.3C969 847.6 969.8 844.7 967.9 844.4C965.5 844.1 963.6 843.6 961.3 842.5C959.6 841.7 958.1 844.1 959.8 845.1C961.9 846.3 964 847.2 966.4 848C966.7 847 966.9 846.1 967.2 845.1C964.9 844.7 962.9 844 960.8 842.7C960.4 843.6 960 844.5 959.6 845.4C961.9 846.1 964 846.6 966.4 846.8C967.8 846.9 968.2 845.1 967.5 844.2C963.4 839.2 958.1 836.1 951.7 835.2C950.4 835 949 836.6 950.2 837.7C953 840.1 957.7 839.6 959.9 842.5C960.4 841.7 960.9 840.8 961.4 840C960.2 839.8 959.9 839.8 958.7 840.2C957.3 840.7 957.3 842.6 958.7 843.1C959.6 843.4 960.6 843.8 961.5 844.1C963.1 844.7 964.2 842.1 962.7 841.4C956.8 838.6 950.7 837 944.2 836.5C942.6 836.4 942.4 838.5 943.4 839.3C949 843.4 955.3 845.3 962.3 845C963.8 844.9 964.3 843 963.1 842.2C956.9 838 949.8 836.7 942.4 838C941.1 838.2 941 840.1 942 840.7C947.5 844 953.5 845.5 959.9 845.5C961.6 845.5 961.9 843.1 960.3 842.6C953.9 840.6 947.5 839.6 940.8 839.6C938.8 839.6 938.9 842.4 940.8 842.6C947.1 843.2 953.4 843.7 959.7 844.3C961.7 844.5 961.6 841.5 959.7 841.3C952.1 840.3 944.6 839.3 937 838.3C937 839.3 937 840.3 937 841.3C938 841.7 938.9 842.1 939.9 842.5C941.4 843.5 942.9 840.9 941.4 839.8Z" fill="#E8E8E8"/>
<path d="M817.6 438.6C817.6 446.9 817.6 455.2 817.6 463.5C817.6 465.4 820.6 465.4 820.6 463.5C820.6 455.2 820.6 446.9 820.6 438.6C820.6 436.7 817.6 436.7 817.6 438.6Z" fill="#E8E8E8"/>
<path d="M820.4 467.6C901.2 467.6 982 467.6 1062.8 467.6C1064.7 467.6 1064.7 464.6 1062.8 464.6C982 464.6 901.2 464.6 820.4 464.6C818.4 464.6 818.4 467.6 820.4 467.6Z" fill="#E8E8E8"/>
<path d="M819.7 439.4C900.7 439.4 981.7 439.4 1062.8 439.4C1064.7 439.4 1064.7 436.4 1062.8 436.4C981.8 436.4 900.8 436.4 819.7 436.4C817.8 436.4 817.8 439.4 819.7 439.4Z" fill="#E8E8E8"/>
<path d="M1061.9 439.9C1061.9 448 1061.9 456.1 1061.9 464.1C1061.9 466 1064.9 466 1064.9 464.1C1064.9 456 1064.9 447.9 1064.9 439.9C1064.9 438 1061.9 438 1061.9 439.9Z" fill="#E8E8E8"/>
<path d="M842.4 468C845.5 474.9 848.5 481.8 851.6 488.7C854 494 856.3 493.4 862 493.7C867.3 493.9 869.4 494.6 870.9 489.4C873.1 481.8 875.2 474.2 877.3 466.6C877.8 464.7 874.9 463.9 874.4 465.8C873 470.9 871.6 475.9 870.1 481C869.5 483.2 869.2 486.6 868 488.6C868.1 490.6 867 491.4 864.9 490.8C863.6 490.7 862.3 490.7 860.9 490.6C857.3 490.4 856.1 490.4 854.1 487.1C852.8 485 852 482.4 851 480.2C849 475.6 846.9 471 844.9 466.4C844.2 464.8 841.6 466.3 842.4 468Z" fill="#E8E8E8"/>
<path d="M987.9 468.4C990.1 471.9 991.7 475.6 992.6 479.6C993.3 482.8 993.3 486.1 995.5 488.7C999.6 493.5 1006.4 492.5 1011.8 491.4C1012.3 491.3 1012.7 490.8 1012.8 490.4C1014.8 482.7 1016.8 475 1018.8 467.3C1019.3 465.4 1016.4 464.6 1015.9 466.5C1014.6 471.6 1013.2 476.8 1011.9 481.9C1011.6 483.2 1011.2 486.5 1010.4 487.7C1008.8 490 1004.3 489.8 1001.9 489.2C995.8 487.7 996.4 482.1 995.1 477.4C994.1 473.7 992.5 470.3 990.5 467C989.4 465.2 986.8 466.7 987.9 468.4Z" fill="#E8E8E8"/>
<path d="M836.2 436.6C836.2 398 836.2 359.3 836.2 320.7C836.2 318.8 833.2 318.8 833.2 320.7C833.2 359.3 833.2 398 833.2 436.6C833.2 438.5 836.2 438.5 836.2 436.6Z" fill="#E8E8E8"/>
<path d="M835.5 321.2C841.4 318.8 847.4 318.8 853.3 321C855.1 321.7 855.9 318.8 854.1 318.1C847.8 315.7 841 315.7 834.7 318.3C833 319 833.7 321.9 835.5 321.2Z" fill="#E8E8E8"/>
<path d="M853 321.6C853 359.5 853 397.3 853 435.2C853 437.1 856 437.1 856 435.2C856 397.3 856 359.5 856 321.6C856 319.7 853 319.7 853 321.6Z" fill="#E8E8E8"/>
<path d="M855.9 333.2C864.9 327.3 876.2 327.1 885.4 332.8C887.1 333.8 888.6 331.2 886.9 330.2C876.8 324 864.2 324.2 854.4 330.6C852.7 331.7 854.2 334.3 855.9 333.2Z" fill="#E8E8E8"/>
<path d="M884.4 332.2C884.4 366.1 884.4 399.9 884.4 433.8C884.4 435.7 887.4 435.7 887.4 433.8C887.4 399.9 887.4 366.1 887.4 332.2C887.4 330.3 884.4 330.3 884.4 332.2Z" fill="#E8E8E8"/>
<path d="M838.1 332.7C838.4 335.5 838.7 338.2 839 341C839.2 342.9 842.2 342.9 842 341C841.7 338.2 841.4 335.5 841.1 332.7C840.9 330.8 837.9 330.8 838.1 332.7Z" fill="#E8E8E8"/>
<path d="M841.2 341.6C843.2 341.6 845.2 341.6 847.2 341.6C849.1 341.6 849.1 338.6 847.2 338.6C845.2 338.6 843.2 338.6 841.2 338.6C839.2 338.6 839.2 341.6 841.2 341.6Z" fill="#E8E8E8"/>
<path d="M839.4 334.2C840.7 334.3 842 334.4 843.3 334.5C844.1 334.6 846 334.3 846.3 335.2C846.4 335.7 845.8 336.8 845.8 337.4C845.8 338.2 846.1 338.8 846.7 339.4C848.1 340.7 850.3 338.6 848.8 337.3C848.8 337.3 849.3 335.1 849.3 334.7C849.2 333.7 848.7 332.9 847.8 332.3C846.8 331.7 845.7 331.7 844.6 331.6C842.9 331.5 841.2 331.4 839.5 331.3C837.4 331.1 837.4 334.1 839.4 334.2Z" fill="#E8E8E8"/>
<path d="M860.5 339.2C860.3 344.4 860.4 349.7 860.7 354.9C860.8 356.8 863.8 356.8 863.7 354.9C863.3 349.7 863.2 344.4 863.5 339.2C863.6 337.2 860.6 337.2 860.5 339.2Z" fill="#E8E8E8"/>
<path d="M861.5 339.9C867.8 340.2 874.1 340.5 880.4 340.8C879.9 340.3 879.4 339.8 878.9 339.3C878.9 343.9 878.9 348.5 878.9 353.1C878.9 355 881.9 355 881.9 353.1C881.9 348.5 881.9 343.9 881.9 339.3C881.9 338.5 881.2 337.8 880.4 337.8C874.1 337.5 867.8 337.2 861.5 336.9C859.5 336.8 859.5 339.8 861.5 339.9Z" fill="#E8E8E8"/>
<path d="M861.9 357.9C867.1 357.7 872.4 357.5 877.6 357.3C879.5 357.2 879.5 354.2 877.6 354.3C872.4 354.5 867.1 354.7 861.9 354.9C860 354.9 860 357.9 861.9 357.9Z" fill="#E8E8E8"/>
<path d="M902.7 436.6C902.7 431.7 902.7 426.8 902.7 421.8C902.7 419.9 899.7 419.9 899.7 421.8C899.7 426.7 899.7 431.6 899.7 436.6C899.7 438.5 902.7 438.5 902.7 436.6Z" fill="#E8E8E8"/>
<path d="M900.7 421.9C930.9 421.9 961 421.9 991.2 421.9C993.1 421.9 993.1 418.9 991.2 418.9C961 418.9 930.9 418.9 900.7 418.9C898.8 418.9 898.8 421.9 900.7 421.9Z" fill="#E8E8E8"/>
<path d="M989.7 421.3C989.7 426.7 989.7 432.1 989.7 437.5C989.7 439.4 992.7 439.4 992.7 437.5C992.7 432.1 992.7 426.7 992.7 421.3C992.7 419.4 989.7 419.4 989.7 421.3Z" fill="#E8E8E8"/>
<path d="M926.2 419.5C926.2 415.8 926.2 412.1 926.2 408.4C926.2 406.5 923.2 406.5 923.2 408.4C923.2 412.1 923.2 415.8 923.2 419.5C923.2 421.4 926.2 421.4 926.2 419.5Z" fill="#E8E8E8"/>
<path d="M925.2 409.5C954.1 409.5 983.1 409.5 1012 409.5C1013.9 409.5 1013.9 406.5 1012 406.5C983.1 406.5 954.1 406.5 925.2 406.5C923.2 406.5 923.2 409.5 925.2 409.5Z" fill="#E8E8E8"/>
<path d="M991.7 423.3C997.7 423.3 1003.7 423.3 1009.7 423.3C1011.6 423.3 1011.6 420.3 1009.7 420.3C1003.7 420.3 997.7 420.3 991.7 420.3C989.7 420.3 989.7 423.3 991.7 423.3Z" fill="#E8E8E8"/>
<path d="M1011.5 407.6C1010.8 412.3 1010.4 417.1 1010.4 421.8C1010.4 423.7 1013.4 423.7 1013.4 421.8C1013.4 417.3 1013.7 412.8 1014.4 408.4C1014.7 406.5 1011.8 405.7 1011.5 407.6Z" fill="#E8E8E8"/>
<path d="M946.2 353.4C946.8 371.7 949.3 389.8 953.7 407.6C954.2 409.5 957.1 408.7 956.6 406.8C952.3 389.3 949.8 371.4 949.2 353.4C949.1 351.4 946.1 351.4 946.2 353.4Z" fill="#E8E8E8"/>
<path d="M948.4 354.5C954.7 352 961.2 351.4 967.9 350.8C974.8 350.1 980.2 351.4 986.7 353.6C988.5 354.2 989.3 351.3 987.5 350.7C980.6 348.4 975.3 347.1 967.9 347.8C960.9 348.5 954.2 349 947.6 351.6C945.8 352.3 946.6 355.2 948.4 354.5Z" fill="#E8E8E8"/>
<path d="M985.7 353C986.4 370.9 983.9 388.6 978.4 405.6C977.8 407.4 980.7 408.2 981.3 406.4C986.9 389.1 989.4 371.1 988.7 353C988.6 351.1 985.6 351.1 985.7 353Z" fill="#E8E8E8"/>
<path d="M954.7 350C953.5 347.3 952.6 344.4 952 341.5C951.7 339.9 951.4 338.3 951.3 336.6C951.2 334.5 950.8 334 952.9 333.5C954.5 333.1 954.3 332.9 955.1 334C955.8 334.9 955.8 337.1 956 338.2C956.7 341.6 957.1 345.1 957.4 348.6C957.6 350.5 960.6 350.5 960.4 348.6C960 343.4 959.6 337.4 957.8 332.5C956.6 329.4 954.3 330 951.5 330.7C947.5 331.7 947.9 334.1 948.3 337.9C948.8 342.6 950.1 347.1 952 351.5C952.9 353.3 955.5 351.8 954.7 350Z" fill="#E8E8E8"/>
<path d="M973.7 348C975.1 341.9 976.6 335.8 978.4 329.8C979.3 326.8 980.2 323.8 981.2 320.8C982.3 317.3 983.9 315.1 987.6 316.6C990.7 317.9 992.1 317.1 991 321C990.2 323.8 988.8 326.6 987.8 329.4C985.3 335.9 982.8 342.4 980.3 348.9C979.6 350.7 982.5 351.5 983.2 349.7C986.8 340.4 990.4 331.1 994 321.8C994.6 320.2 996.4 317.5 995.1 315.8C994.6 315.1 994 315.2 993.3 314.9C991.2 314.1 988.8 313.6 986.6 312.8C980.9 310.8 979.8 315.3 978.3 320C975.4 329 972.9 338 970.8 347.2C970.4 349.1 973.3 349.9 973.7 348Z" fill="#E8E8E8"/>
<path d="M978.2 345.7C979.4 345.9 980.6 346 981.8 346.2C982.6 346.3 983.3 345.4 983.3 344.7C983.3 343.8 982.6 343.3 981.8 343.2C980.6 343 979.4 342.9 978.2 342.7C977.4 342.6 976.7 343.5 976.7 344.2C976.7 345.1 977.4 345.6 978.2 345.7Z" fill="#E8E8E8"/>
<path d="M980.3 336.9C981.5 337.2 982.7 337.6 984 337.9C985.9 338.4 986.7 335.5 984.8 335C983.6 334.7 982.4 334.3 981.1 334C979.3 333.5 978.5 336.4 980.3 336.9Z" fill="#E8E8E8"/>
<path d="M983.6 328.8C984.9 329.2 986.3 329.6 987.6 330C989.4 330.6 990.2 327.7 988.4 327.1C987.1 326.7 985.7 326.3 984.4 325.9C982.6 325.3 981.8 328.2 983.6 328.8Z" fill="#E8E8E8"/>
<path d="M985.9 320.8C987 321.3 988 321.7 989.1 322.2C989.8 322.5 990.7 322.4 991.2 321.7C991.6 321.1 991.4 320 990.7 319.6C989.6 319.1 988.6 318.7 987.5 318.2C986.8 317.9 985.9 318 985.4 318.7C985 319.4 985.1 320.5 985.9 320.8Z" fill="#E8E8E8"/>
<path d="M901.8 21.4C901.8 99.9 901.8 178.3 901.8 256.8C901.8 258.7 904.8 258.7 904.8 256.8C904.8 178.3 904.8 99.9 904.8 21.4C904.8 19.4 901.8 19.4 901.8 21.4Z" fill="#E8E8E8"/>
<path d="M902.6 256.7C902.6 257.4 902.6 258.1 902.6 258.9C902.6 260.8 905.6 260.8 905.6 258.9C905.6 251.9 905.6 244.9 905.6 237.9C905.6 236 902.6 236 902.6 237.9C902.6 244.9 902.6 251.9 902.6 258.9C903.6 258.9 904.6 258.9 905.6 258.9C905.6 258.2 905.6 257.5 905.6 256.7C905.6 254.8 902.6 254.8 902.6 256.7Z" fill="#E8E8E8"/>
<path d="M904.1 259.8C965.6 259.8 1027 259.8 1088.5 259.8C1090.4 259.8 1090.4 256.8 1088.5 256.8C1027 256.8 965.6 256.8 904.1 256.8C902.2 256.8 902.2 259.8 904.1 259.8Z" fill="#E8E8E8"/>
<path d="M1089.2 259.1C1089.2 180.4 1089.2 101.7 1089.2 22.9C1089.2 21 1086.2 21 1086.2 22.9C1086.2 101.6 1086.2 180.3 1086.2 259.1C1086.2 261 1089.2 261 1089.2 259.1Z" fill="#E8E8E8"/>
<path d="M903.3 22.9C964.8 22.9 1026.2 22.9 1087.7 22.9C1089.6 22.9 1089.6 19.9 1087.7 19.9C1026.2 19.9 964.8 19.9 903.3 19.9C901.4 19.9 901.4 22.9 903.3 22.9Z" fill="#E8E8E8"/>
<path d="M911 28.8C911 101.6 911 174.4 911 247.2C911 249.1 914 249.1 914 247.2C914 174.4 914 101.6 914 28.8C914 26.9 911 26.9 911 28.8Z" fill="#E8E8E8"/>
<path d="M911.7 247.3C911.7 248 911.7 248.6 911.7 249.3C911.7 251.2 914.7 251.2 914.7 249.3C914.7 242.8 914.7 236.3 914.7 229.8C914.7 227.9 911.7 227.9 911.7 229.8C911.7 236.3 911.7 242.8 911.7 249.3C912.7 249.3 913.7 249.3 914.7 249.3C914.7 248.6 914.7 248 914.7 247.3C914.7 245.3 911.7 245.3 911.7 247.3Z" fill="#E8E8E8"/>
<path d="M913.2 250.2C968 250.2 1022.8 250.2 1077.6 250.2C1079.5 250.2 1079.5 247.2 1077.6 247.2C1022.8 247.2 968 247.2 913.2 247.2C911.3 247.2 911.3 250.2 913.2 250.2Z" fill="#E8E8E8"/>
<path d="M1078.4 249.4C1078.4 176.4 1078.4 103.3 1078.4 30.3C1078.4 28.4 1075.4 28.4 1075.4 30.3C1075.4 103.3 1075.4 176.4 1075.4 249.4C1075.4 251.4 1078.4 251.4 1078.4 249.4Z" fill="#E8E8E8"/>
<path d="M912.5 30.3C967.3 30.3 1022.1 30.3 1076.9 30.3C1078.8 30.3 1078.8 27.3 1076.9 27.3C1022.1 27.3 967.3 27.3 912.5 27.3C910.6 27.3 910.6 30.3 912.5 30.3Z" fill="#E8E8E8"/>
<path d="M914.8 101.9C967.5 101.9 1020.2 101.9 1072.9 101.9C1074.8 101.9 1074.8 98.9 1072.9 98.9C1020.2 98.9 967.5 98.9 914.8 98.9C912.9 98.9 912.9 101.9 914.8 101.9Z" fill="#E8E8E8"/>
<path d="M913.9 108.8C966.7 108.8 1019.6 108.8 1072.4 108.8C1074.3 108.8 1074.3 105.8 1072.4 105.8C1019.6 105.8 966.7 105.8 913.9 105.8C912 105.8 912 108.8 913.9 108.8Z" fill="#E8E8E8"/>
<path d="M934.5 97.6C933.2 83.4 933.2 69.1 934.5 54.8C934.7 52.9 931.7 52.9 931.5 54.8C930.2 69 930.2 83.3 931.5 97.6C931.7 99.5 934.7 99.5 934.5 97.6Z" fill="#E8E8E8"/>
<path d="M932.5 65.2C935.7 64.2 939 64.1 942.3 64.7C944.2 65.1 945 62.2 943.1 61.8C939.3 61 935.4 61.1 931.7 62.3C929.8 62.8 930.6 65.7 932.5 65.2Z" fill="#E8E8E8"/>
<path d="M946.4 91.1999C945.4 85.9999 944.5 80.6999 944.3 75.2999C944.2 72.8999 944.2 70.4999 944.4 68.0999C944.6 65.9999 944.8 60.3999 946.2 58.7999C949 55.6999 949.4 62.8999 949.6 64.7999C949.9 67.2999 950 69.8999 950.1 72.4999C950.2 75.0999 950.1 77.5999 950 80.1999C949.9 81.5999 949.4 92.5999 945.9 90.2999C944.3 89.1999 942.8 91.7999 944.4 92.8999C951.2 97.4999 952.5 86.0999 952.8 82.0999C953.2 76.6999 953.2 71.1999 952.7 65.7999C952.4 62.5999 952.6 57.4999 950.5 54.8999C945.8 49.0999 942.8 59.3999 942.2 62.3999C940.2 72.1999 941.6 82.2999 943.5 91.9999C943.9 93.8999 946.8 93.0999 946.4 91.1999Z" fill="#E8E8E8"/>
<path d="M953.1 65C955.2 64.1 957.4 64.1 959.5 64.7C961.4 65.3 962.1 62.4 960.3 61.8C957.3 60.9 954.4 61.2 951.6 62.4C949.8 63.2 951.3 65.8 953.1 65Z" fill="#E8E8E8"/>
<path d="M958.9 57.1C959.2 63.5 959.4 69.9 959.7 76.3C959.9 80.6 959 86.6 960.6 90.6C961.5 92.9 963.7 94.1 966.1 93.1C969.5 91.8 970 87.1 970.6 84.1C971.6 78.9 971.9 73.5 971.6 68.2C971.4 64 971.2 58.7 969.2 54.9C965.5 47.7 959 52.6 958.8 58.9C958.7 60.8 961.7 60.8 961.8 58.9C961.9 58.1 961.9 57.4 962 56.6C963.6 56.9 965.3 57.1 966.9 57.4C967.5 58 967.6 60.5 967.8 61.4C968.3 64.3 968.6 67.2 968.6 70.1C968.7 72.8 968.6 75.6 968.3 78.3C968.1 80.2 968 86.1 966.6 87.6C966.6 88.6 965.9 88.8 964.7 88C963.3 88.4 962.7 88 963 86.8C962.6 86 962.9 83.9 962.8 83C962.7 80.1 962.6 77.2 962.4 74.4C962.2 68.6 961.9 62.9 961.7 57.1C961.8 55.2 958.8 55.2 958.9 57.1Z" fill="#E8E8E8"/>
<path d="M970.5 63.6C973 62.9 975.5 63.2 977.8 64.5C979.5 65.4 981 62.8 979.3 61.9C976.3 60.3 973 59.9 969.7 60.7C967.9 61.2 968.6 64.1 970.5 63.6Z" fill="#E8E8E8"/>
<path d="M977.7 56.2C977.9 62.8 978.1 69.4 978.3 76C978.5 81 977.9 86.8 979.3 91.7C979.9 93.6 981.6 97.2 984.1 96.7C987.2 96.1 988.1 89.5 988.6 87.3C990.8 77 989.5 66.1 987.2 55.9C985.4 47.8 978.2 49.9 977.2 57.2C976.9 59.1 979.8 59.9 980.1 58C979.8 56.5 980.6 55.9 982.2 56.2C983.6 55.3 984.3 55.5 984.3 56.7C985 57.6 984.9 59.8 985.1 60.9C985.7 64.2 986.2 67.5 986.4 70.8C986.9 77.2 986.6 83.6 984.7 89.7C984.2 91.2 984.1 93.7 982 90.9C981.2 89.9 981.5 87.7 981.4 86.6C981.2 83.4 981.2 80.2 981.1 77C980.9 70.1 980.7 63.2 980.4 56.2C980.6 54.3 977.6 54.3 977.7 56.2Z" fill="#E8E8E8"/>
<path d="M987.7 65C990.3 64.3 992.8 64.5 995.3 65.5C997.1 66.2 997.9 63.3 996.1 62.6C993.1 61.4 990 61.3 986.9 62.1C985.1 62.6 985.9 65.5 987.7 65Z" fill="#E8E8E8"/>
<path d="M995.2 52.9C994.4 67.8 994.3 82.6 994.7 97.5C994.8 99.4 997.8 99.4 997.7 97.5C997.3 82.6 997.4 67.7 998.2 52.9C998.3 51 995.3 51 995.2 52.9Z" fill="#E8E8E8"/>
<path d="M944.4 64.5C946 63.6 947.8 63.6 949.4 64.5C951.1 65.5 952.6 62.9 950.9 61.9C948.4 60.5 945.4 60.4 942.9 61.9C941.2 62.8 942.7 65.4 944.4 64.5Z" fill="#E8E8E8"/>
<path d="M962.4 64.3C964.1 63 966.4 62.9 968.1 64.2C969.6 65.4 971.7 63.3 970.2 62.1C967.5 59.9 963.7 59.6 960.9 61.7C959.4 62.9 960.9 65.5 962.4 64.3Z" fill="#E8E8E8"/>
<path d="M981 64.2C982.5 63.3 984.4 63.5 985.8 64.7C987.2 66 989.3 63.9 987.9 62.6C985.6 60.5 982.2 60 979.5 61.6C977.8 62.6 979.3 65.2 981 64.2Z" fill="#E8E8E8"/>
<path d="M1045.9 51.7C1045.9 59.7 1047.7 69.4 1042.8 76.2C1038.1 82.7 1033.6 89.1 1029.6 96.1C1028.7 97.8 1031.2 99.3 1032.2 97.6C1034.6 93.3 1037.2 89 1040.1 84.9C1042.4 81.6 1045.3 78.5 1047.2 75C1050.8 68.4 1048.9 58.8 1048.9 51.6C1048.9 49.8 1045.9 49.8 1045.9 51.7Z" fill="#E8E8E8"/>
<path d="M1048.2 52.9C1051.6 51.7 1055.1 51.8 1058.4 53.1C1060.2 53.8 1061 50.9 1059.2 50.2C1055.4 48.7 1051.2 48.7 1047.4 50C1045.6 50.6 1046.3 53.5 1048.2 52.9Z" fill="#E8E8E8"/>
<path d="M1056.8 52.2C1056.8 59 1056.8 65.8 1056.8 72.5C1056.8 74.4 1059.8 74.4 1059.8 72.5C1059.8 65.7 1059.8 58.9 1059.8 52.2C1059.8 50.3 1056.8 50.3 1056.8 52.2Z" fill="#E8E8E8"/>
<path d="M1057.5 73.8C1064 81 1068 89.4 1069.7 98.9C1070 100.8 1072.9 100 1072.6 98.1C1070.9 88.1 1066.4 79.2 1059.6 71.6C1058.3 70.3 1056.2 72.4 1057.5 73.8Z" fill="#E8E8E8"/>
<path d="M1030.4 99.7C1043.1 101 1056.2 101.1 1068.8 99C1070.7 98.7 1069.9 95.8 1068 96.1C1055.6 98.1 1042.8 98 1030.4 96.7C1028.4 96.5 1028.5 99.5 1030.4 99.7Z" fill="#E8E8E8"/>
<path d="M1048.3 95.4C1049.9 94.9 1051.5 94.8 1053.1 95.3C1055 95.8 1055.8 92.9 1053.9 92.4C1051.8 91.8 1049.6 91.8 1047.5 92.5C1045.7 93.1 1046.5 96 1048.3 95.4Z" fill="#E8E8E8"/>
<path d="M1049.7 89.7C1051 89.5 1052.4 89.6 1053.7 90C1055.6 90.5 1056.4 87.6 1054.5 87.1C1052.7 86.6 1050.8 86.5 1048.9 86.8C1048.1 86.9 1047.7 87.9 1047.9 88.6C1048.1 89.5 1048.9 89.8 1049.7 89.7Z" fill="#E8E8E8"/>
<path d="M1050.3 83.9C1051.2 84.1 1052.2 84.2 1053.1 84.4C1053.9 84.5 1054.7 84.2 1054.9 83.4C1055.1 82.7 1054.7 81.7 1053.9 81.6C1053 81.4 1052 81.3 1051.1 81.1C1050.3 81 1049.5 81.3 1049.3 82.1C1049.1 82.7 1049.5 83.7 1050.3 83.9Z" fill="#E8E8E8"/>
<path d="M1052.5 79.9C1052.4 80.1 1052.2 80.2 1052 80.3C1051.8 80.3 1051.7 80.3 1051.9 80.3C1051.8 80.3 1051.7 80.3 1051.5 80.2C1051.2 79.8 1051.1 79.7 1051.2 80C1051.6 80.7 1052.6 80.9 1053.3 80.5C1054 80.1 1054.2 79.2 1053.8 78.4C1053 76.8 1050.7 76.9 1049.9 78.3C1049.5 79 1049.7 79.9 1050.4 80.4C1051.1 80.9 1052 80.6 1052.5 79.9Z" fill="#E8E8E8"/>
<path d="M913.5 160.7C967.4 160.7 1021.4 160.7 1075.3 160.7C1077.2 160.7 1077.2 157.7 1075.3 157.7C1021.4 157.7 967.4 157.7 913.5 157.7C911.6 157.7 911.6 160.7 913.5 160.7Z" fill="#E8E8E8"/>
<path d="M914 168.1C967.8 168.1 1021.5 168.1 1075.3 168.1C1077.2 168.1 1077.2 165.1 1075.3 165.1C1021.5 165.1 967.8 165.1 914 165.1C912.1 165.1 912.1 168.1 914 168.1Z" fill="#E8E8E8"/>
<path d="M989.7 167.1C989.7 193.3 989.7 219.5 989.7 245.8C989.7 247.7 992.7 247.7 992.7 245.8C992.7 219.6 992.7 193.4 992.7 167.1C992.7 165.1 989.7 165.1 989.7 167.1Z" fill="#E8E8E8"/>
<path d="M999.7 209.9C998.8 208.5 998.4 207 998.7 205.3C999.1 203.2 1001.5 201 1002.5 204.1C1002.9 205.4 1002.8 207.2 1002.6 208.6C1002.5 209.2 1002.4 209.8 1002.2 210.4C1002 210.8 1000.2 212.3 1000.2 210.9C1000.3 209 997.3 209 997.2 210.9C997 214 1001 215.4 1003.3 213.8C1006.1 211.8 1006.3 206.4 1005.4 203.4C1004.5 200.1 1000.5 198.1 997.8 200.8C995 203.6 995 208.3 997.1 211.5C998.2 213 1000.8 211.5 999.7 209.9Z" fill="#E8E8E8"/>
<path d="M1012.1 158.9C1012.1 157.9 1012.1 156.9 1012 155.9C1012 153.9 1011.6 153.6 1012.9 152.6C1014.7 151.3 1019.5 151.6 1021.6 151.4C1027.4 150.8 1033.2 150.4 1039.1 150.2C1050.8 149.8 1062.5 150.2 1074.1 151.2C1076 151.4 1076 148.4 1074.1 148.2C1059.6 146.9 1044.9 146.7 1030.4 147.7C1026.8 147.9 1023.3 148.2 1019.7 148.6C1017 148.9 1013.5 148.7 1011 149.8C1007.7 151.2 1009 155.9 1009.1 158.9C1009.1 160.8 1012.1 160.9 1012.1 158.9Z" fill="#E8E8E8"/>
<path d="M1024.9 147.7C1023.9 141.8 1031.5 143.2 1035.3 143.1C1039.3 143 1043.3 143 1047.3 142.9C1055.3 142.8 1063.3 142.7 1071.3 142.6C1073.2 142.6 1073.2 139.6 1071.3 139.6C1059.3 139.8 1047.3 139.9 1035.4 140.1C1028.1 140.2 1020.5 138.9 1022.1 148.5C1022.3 150.4 1025.2 149.6 1024.9 147.7Z" fill="#E8E8E8"/>
<path d="M1010 131.5C1010 134.5 1008.9 139.3 1012.6 140.5C1017 141.9 1022.6 141.5 1027.2 141.2C1029.1 141.1 1029.1 138.1 1027.2 138.2C1023.9 138.4 1020.7 138.4 1017.4 138.1C1015.7 137.9 1013.5 138.2 1013 136.4C1012.6 135 1013 132.9 1013 131.5C1013 129.6 1010 129.6 1010 131.5Z" fill="#E8E8E8"/>
<path d="M1011.5 132.9C1031.7 131.9 1052 131.8 1072.2 132.7C1074.1 132.8 1074.1 129.8 1072.2 129.7C1052 128.8 1031.7 128.9 1011.5 129.9C1009.6 130 1009.6 133 1011.5 132.9Z" fill="#E8E8E8"/>
<path d="M172.2 380C227.3 380 282.4 380 337.5 380C339.4 380 339.4 377 337.5 377C282.4 377 227.3 377 172.2 377C170.3 377 170.3 380 172.2 380Z" fill="#E8E8E8"/>
<path d="M217.2 379.8C217.2 398.9 217.2 418.1 217.2 437.2C217.2 439.1 220.2 439.1 220.2 437.2C220.2 418.1 220.2 398.9 220.2 379.8C220.2 377.9 217.2 377.9 217.2 379.8Z" fill="#E8E8E8"/>
<path d="M296.4 381.2C296.4 398.5 296.4 415.8 296.4 433.1C296.4 435 299.4 435 299.4 433.1C299.4 415.8 299.4 398.5 299.4 381.2C299.4 379.3 296.4 379.3 296.4 381.2Z" fill="#E8E8E8"/>
<path d="M257.1 375.7C257.1 362 257.1 348.4 257.1 334.7C257.1 332.8 254.1 332.8 254.1 334.7C254.1 348.4 254.1 362 254.1 375.7C254.1 377.7 257.1 377.7 257.1 375.7Z" fill="#E8E8E8"/>
<path d="M235.1 328.1C261.1 328.1 287 328.1 313 328.1C314.9 328.1 314.9 325.1 313 325.1C287 325.1 261.1 325.1 235.1 325.1C233.1 325.1 233.1 328.1 235.1 328.1Z" fill="#E8E8E8"/>
<path d="M456.2 85.5C456.2 112.5 456.2 139.5 456.2 166.5C456.2 168.4 459.2 168.4 459.2 166.5C459.2 139.5 459.2 112.5 459.2 85.5C459.2 83.6 456.2 83.6 456.2 85.5Z" fill="#E8E8E8"/>
<path d="M458.8 85.9C489.9 85.9 520.9 85.9 552 85.9C553.9 85.9 553.9 82.9 552 82.9C520.9 82.9 489.9 82.9 458.8 82.9C456.9 82.9 456.9 85.9 458.8 85.9Z" fill="#E8E8E8"/>
<path d="M461.1 169.1C490.7 169.1 520.3 169.1 549.9 169.1C551.8 169.1 551.8 166.1 549.9 166.1C520.3 166.1 490.7 166.1 461.1 166.1C459.1 166.1 459.1 169.1 461.1 169.1Z" fill="#E8E8E8"/>
<path d="M552.8 84.4C552.8 111 552.8 137.7 552.8 164.3C552.8 166.2 555.8 166.2 555.8 164.3C555.8 137.7 555.8 111 555.8 84.4C555.8 82.5 552.8 82.5 552.8 84.4Z" fill="#E8E8E8"/>
<path d="M467.1 96.1C466 116.8 465.8 137.5 466.3 158.2C466.3 160.1 469.3 160.1 469.3 158.2C468.8 137.5 469.1 116.8 470.1 96.1C470.2 94.1 467.2 94.1 467.1 96.1Z" fill="#E8E8E8"/>
<path d="M470.8 98.0001C495.8 97.9001 520.9 97.3001 545.9 96.3001C547.8 96.2001 547.8 93.2001 545.9 93.3001C520.9 94.3001 495.9 94.9001 470.8 95.0001C468.9 95.0001 468.9 98.0001 470.8 98.0001Z" fill="#E8E8E8"/>
<path d="M544.2 96.1C545 116.6 544.7 137 543.5 157.5C543.4 159.4 546.4 159.4 546.5 157.5C547.8 137.1 548 116.6 547.2 96.1C547.1 94.1 544.1 94.1 544.2 96.1Z" fill="#E8E8E8"/>
<path d="M470.2 161.4C483 160 495.9 158.3 508.7 157.4C515 157 521.4 156.8 527.7 157.2C534 157.7 540.2 158.9 546.5 158.1C548.4 157.9 548.4 154.9 546.5 155.1C540.5 155.9 534.6 154.7 528.6 154.2C522 153.7 515.3 153.8 508.6 154.3C495.7 155.2 482.9 156.9 470.1 158.3C468.3 158.6 468.3 161.6 470.2 161.4Z" fill="#E8E8E8"/>
<path d="M467.8 140.3C473.9 140.2 480 140.2 486 139.9C492 139.6 497.8 137 503.8 137.3C509.8 137.6 515.6 138.7 521.6 138.6C528.2 138.6 534.8 138 541.4 137.4C543.3 137.2 543.3 134.2 541.4 134.4C535.1 134.9 528.9 135.5 522.6 135.6C516.3 135.7 510.1 134.6 503.8 134.3C498 134 492.6 136.4 486.8 136.8C480.5 137.2 474.1 137.1 467.7 137.2C465.9 137.3 465.9 140.3 467.8 140.3Z" fill="#E8E8E8"/>
<path d="M498.8 117.4C497.3 115.9 497.2 114.7 498.6 113.6C499.1 113.1 499.7 112.6 500.3 112.2C501.3 111.6 502.5 111.2 503.6 111.2C506.1 111.2 508.5 112.9 509 115.4C509.5 117.9 507.6 120.2 505.2 120.9C502.6 121.7 499.9 120.4 498 118.7C496.6 117.4 494.4 119.5 495.9 120.8C499.6 124.2 505.4 125.6 509.5 121.9C513.1 118.6 512.8 113.2 509.1 110.1C505.1 106.8 499.1 108.2 496 112.1C494.7 113.7 493.8 116 494.6 118C495.4 120.1 497.7 121.1 499.7 120.3C501.4 119.5 500.6 116.6 498.8 117.4Z" fill="#E8E8E8"/>
<path d="M503.8 82.7C503.4 79.5 503.5 73.9 506 71.4C507.9 69.5 508.2 73.3 508.4 74.7C508.7 76.8 508.7 78.8 508.5 80.9C508.3 82.8 511.3 82.8 511.5 80.9C511.8 77.9 511.9 65.3 506 67.4C503.5 68.3 502.2 71.9 501.5 74.2C500.6 77.3 500.5 80.4 500.9 83.5C501.2 85.4 504.1 84.6 503.8 82.7Z" fill="#E8E8E8"/>
<path d="M367.9 916.5C441.7 916.5 515.6 916.5 589.4 916.5C663.6 916.5 737.8 916.5 811.9 916.5C853.5 916.5 895.1 916.5 936.6 916.5C938.5 916.5 938.5 913.5 936.6 913.5C862.8 913.5 788.9 913.5 715.1 913.5C640.9 913.5 566.7 913.5 492.6 913.5C451 913.5 409.4 913.5 367.9 913.5C365.9 913.5 365.9 916.5 367.9 916.5Z" fill="#E8E8E8"/>
<path d="M1045.3 915C1120.8 915 1196.3 915 1271.9 915C1273.8 915 1273.8 912 1271.9 912C1269.3 912 1266.6 912 1264 912C1262.1 912 1262.1 915 1264 915C1266.6 915 1269.3 915 1271.9 915C1273.8 915 1273.8 912 1271.9 912C1196.4 912 1120.9 912 1045.3 912C1043.4 912 1043.4 915 1045.3 915Z" fill="#E8E8E8"/>
<path d="M819.5 995.1C890 995.1 960.6 995.1 1031.1 995.1C1051.1 995.1 1071 995.1 1091 995.1C1092.9 995.1 1092.9 992.1 1091 992.1C1020.5 992.1 949.9 992.1 879.4 992.1C859.4 992.1 839.5 992.1 819.5 992.1C817.6 992.1 817.6 995.1 819.5 995.1Z" fill="#E8E8E8"/>
<path d="M945.3 1039.4C1023.4 1039.4 1101.6 1039.4 1179.7 1039.4C1181.6 1039.4 1181.6 1036.4 1179.7 1036.4C1101.6 1036.4 1023.4 1036.4 945.3 1036.4C943.3 1036.4 943.3 1039.4 945.3 1039.4Z" fill="#E8E8E8"/>
<path d="M382.2 960.8C454.5 960.8 526.9 960.8 599.2 960.8C619.8 960.8 640.3 960.8 660.9 960.8C662.8 960.8 662.8 957.8 660.9 957.8C588.6 957.8 516.2 957.8 443.9 957.8C423.3 957.8 402.8 957.8 382.2 957.8C380.2 957.8 380.2 960.8 382.2 960.8Z" fill="#E8E8E8"/>
<path d="M443.6 1027.9C524.1 1027.9 604.6 1027.9 685.1 1027.9C687 1027.9 687 1024.9 685.1 1024.9C604.6 1024.9 524.1 1024.9 443.6 1024.9C441.7 1024.9 441.7 1027.9 443.6 1027.9Z" fill="#E8E8E8"/>
<path d="M590.6 939.6C623.4 979.7 656 1020 688.2 1060.5C689.4 1062 691.5 1059.9 690.3 1058.4C658.1 1017.8 625.6 977.5 592.7 937.5C591.5 936 589.4 938.1 590.6 939.6Z" fill="#E8E8E8"/>
<path d="M925.9 952.8C966.8 1001.6 1026.8 1028.5 1070.1 1074.7C1071.4 1076.1 1073.5 1074 1072.2 1072.6C1028.9 1026.4 968.9 999.4 928 950.7C926.8 949.2 924.7 951.3 925.9 952.8Z" fill="#E8E8E8"/>
<path d="M56.8 668.4C126.4 668.4 196.1 668.4 265.7 668.4C285.4 668.4 305 668.4 324.7 668.4C326.6 668.4 326.6 665.4 324.7 665.4C255.1 665.4 185.4 665.4 115.8 665.4C96.1 665.4 76.5 665.4 56.8 665.4C54.9 665.4 54.9 668.4 56.8 668.4Z" fill="#161616"/>
<path d="M59.7998 696.6C59.7998 706.5 59.7998 716.4 59.7998 726.4C59.7998 728.3 62.7998 728.3 62.7998 726.4C62.7998 716.5 62.7998 706.6 62.7998 696.6C62.7998 694.7 59.7998 694.7 59.7998 696.6Z" fill="#161616"/>
<path d="M62.3999 697C77.0999 697 91.7999 697 106.5 697C108.4 697 108.4 694 106.5 694C91.7999 694 77.0999 694 62.3999 694C60.3999 694 60.3999 697 62.3999 697Z" fill="#161616"/>
<path d="M114.2 697C120.1 697 126 697 131.8 697C133.7 697 133.7 694 131.8 694C125.9 694 120 694 114.2 694C112.2 694 112.2 697 114.2 697Z" fill="#161616"/>
<path d="M140.6 697C195.3 697 250.1 697 304.8 697C306.7 697 306.7 694 304.8 694C250.1 694 195.3 694 140.6 694C138.7 694 138.7 697 140.6 697Z" fill="#161616"/>
<path d="M66.7998 741.1C137.3 741.1 207.9 741.1 278.4 741.1C280.3 741.1 280.3 738.1 278.4 738.1C207.9 738.1 137.3 738.1 66.7998 738.1C64.7998 738.1 64.7998 741.1 66.7998 741.1Z" fill="#161616"/>
<path d="M304.5 702.1C304.5 710.2 304.5 718.3 304.5 726.4C304.5 728.3 307.5 728.3 307.5 726.4C307.5 718.3 307.5 710.2 307.5 702.1C307.5 700.2 304.5 700.2 304.5 702.1Z" fill="#161616"/>
<path d="M178.6 722C171.7 720.5 172 709.1 179.9 710.3C182.8 710.7 185.7 713.1 185 716.3C184.3 719.8 179.9 722.3 176.7 720.6C175 719.7 173.5 722.3 175.2 723.2C179.8 725.6 185.6 723 187.6 718.2C189.6 713.4 186.1 708.6 181.3 707.5C176.5 706.4 171.5 708.9 170.8 714C170.1 718.8 173.1 723.9 178 724.9C179.7 725.3 180.5 722.4 178.6 722Z" fill="#161616"/>
<path d="M73 783.7C73 832.2 73 880.7 73 929.2C73 931.1 76 931.1 76 929.2C76 880.7 76 832.2 76 783.7C76 781.8 73 781.8 73 783.7Z" fill="#161616"/>
<path d="M78.9001 784.1C133.6 784.1 188.4 784.1 243.1 784.1C245 784.1 245 781.1 243.1 781.1C188.4 781.1 133.6 781.1 78.9001 781.1C77.0001 781.1 77.0001 784.1 78.9001 784.1Z" fill="#161616"/>
<path d="M256.4 783C266 783 275.5 783 285.1 783C287 783 287 780 285.1 780C275.5 780 266 780 256.4 780C254.4 780 254.4 783 256.4 783Z" fill="#161616"/>
<path d="M81.0998 937.3C153.1 937.3 225.1 937.3 297.1 937.3C299 937.3 299 934.3 297.1 934.3C225.1 934.3 153.1 934.3 81.0998 934.3C79.1998 934.3 79.1998 937.3 81.0998 937.3Z" fill="#161616"/>
<path d="M295.6 789.2C295.6 835.1 295.6 881.1 295.6 927C295.6 928.9 298.6 928.9 298.6 927C298.6 881.1 298.6 835.1 298.6 789.2C298.6 787.3 295.6 787.3 295.6 789.2Z" fill="#161616"/>
<path d="M273.8 854.7C269.5 852.4 272.4 845.1 277.3 847.6C282.9 850.4 278.1 857.5 273 855.4C271.2 854.7 270.4 857.6 272.2 858.3C275.9 859.8 280.5 857.9 282.3 854.3C284.1 850.6 282 846.4 278.4 844.8C274.9 843.2 270.9 844.5 269.4 848.1C268 851.4 269.1 855.6 272.4 857.4C274 858.2 275.5 855.6 273.8 854.7Z" fill="#161616"/>
<path d="M31.1001 671.3C31.1001 751.9 31.1001 832.5 31.1001 913.1C31.1001 935.7 31.1001 958.4 31.1001 981C31.1001 982.9 34.1001 982.9 34.1001 981C34.1001 900.4 34.1001 819.8 34.1001 739.2C34.1001 716.6 34.1001 693.9 34.1001 671.3C34.1001 669.3 31.1001 669.3 31.1001 671.3Z" fill="#E8E8E8"/>
<path d="M34.8 986.9C114 986.9 193.1 986.9 272.3 986.9C294.9 986.9 317.5 986.9 340.2 986.9C342.1 986.9 342.1 983.9 340.2 983.9C261 983.9 181.9 983.9 102.7 983.9C80.1 983.9 57.5 983.9 34.8 983.9C32.9 983.9 32.9 986.9 34.8 986.9Z" fill="#E8E8E8"/>
<path d="M343.8 981C343.8 897.4 343.8 813.7 343.8 730.1C343.8 706.4 343.8 682.8 343.8 659.1C343.8 657.2 340.8 657.2 340.8 659.1C340.8 742.7 340.8 826.4 340.8 910C340.8 933.7 340.8 957.3 340.8 981C340.8 983 343.8 983 343.8 981Z" fill="#E8E8E8"/>
<path d="M35.7 658.5C50.6 650.7 65.8 643.6 81.4 637.2C83.2 636.5 82.4 633.6 80.6 634.3C64.8 640.7 49.3 647.9 34.2 655.9C32.5 656.8 34 659.4 35.7 658.5Z" fill="#E8E8E8"/>
<path d="M300.8 626.3C314.3 633.9 326.7 643 338 653.6C339.4 654.9 341.5 652.8 340.1 651.5C328.6 640.8 316 631.5 302.3 623.7C300.6 622.7 299.1 625.3 300.8 626.3Z" fill="#E8E8E8"/>
<path d="M279.4 624.9C279.4 590.9 279.4 556.9 279.4 522.9C279.4 521 276.4 521 276.4 522.9C276.4 556.9 276.4 590.9 276.4 624.9C276.4 626.8 279.4 626.8 279.4 624.9Z" fill="#161616"/>
<path d="M279.2 603.6C283.9 600 286.8 624 286.9 625.9C287 627.8 290 627.8 289.9 625.9C289.7 621.8 287 594 277.7 601C276.2 602.2 277.7 604.8 279.2 603.6Z" fill="#161616"/>
<path d="M248.8 567C257.6 567.2 266.4 567.5 275.2 567.7C277.1 567.8 277.1 564.8 275.2 564.7C266.4 564.5 257.6 564.2 248.8 564C246.8 563.9 246.8 566.9 248.8 567Z" fill="#161616"/>
<path d="M279.9 516C279.9 513.6 279.9 511.2 279.9 508.9C279.9 507 276.9 507 276.9 508.9C276.9 511.3 276.9 513.7 276.9 516C276.9 518 279.9 518 279.9 516Z" fill="#161616"/>
<path d="M210.2 570C215.8 574.9 224.3 574.6 229.5 569.3C230.8 567.9 228.7 565.8 227.4 567.2C223.4 571.3 216.8 571.7 212.4 567.9C210.9 566.6 208.7 568.7 210.2 570Z" fill="#161616"/>
<path d="M229.5 568.6C245.1 568.6 260.6 568.6 276.2 568.6C278.1 568.6 278.1 565.6 276.2 565.6C260.6 565.6 245.1 565.6 229.5 565.6C227.6 565.6 227.6 568.6 229.5 568.6Z" fill="#161616"/>
<path d="M78.1001 645C75.9001 642 76.2001 640.8 78.9001 641.2C79.5001 641.2 80.2001 641.1 80.8001 641.1C82.7001 641 84.6001 640.9 86.5001 640.8C89.8001 640.6 94.9001 639.6 98.1001 640.6C100.4 640.6 100.4 642.2 98.0001 645.4C96.9001 645.7 95.7001 645.8 94.5001 645.7C92.7001 645.8 90.9001 645.6 89.1001 645.6C88.1001 645.6 76.6001 645.6 76.6001 645.1C76.6001 643.2 73.6001 643.2 73.6001 645.1C73.5001 648.2 76.5001 648.4 79.0001 648.4C84.8001 648.5 91.1001 649.3 96.8001 648.6C101.7 648 107.1 641.5 100.9 638.2C97.4001 636.3 92.0001 637.5 88.3001 637.6C84.1001 637.8 77.6001 636.9 73.8001 638.8C71.5001 640 70.4001 642.6 71.6001 645C72.9001 647.9 76.0001 648.3 78.8001 647.7C80.8001 647.5 80.0001 644.6 78.1001 645Z" fill="#161616"/>
<path d="M74.6002 642.4C75.6002 643.7 76.6002 645 77.6002 646.3C78.3002 647.2 80.1002 647.4 80.3002 645.9C80.4002 645.2 80.5002 644.7 80.3002 644C80.2002 643.7 80.2002 643.5 80.0002 643.2C79.4002 644.3 79.7002 645.2 80.8002 645.9C81.4002 645.2 81.9002 644.4 82.5002 643.7C82.8002 644.3 83.1002 644.8 83.4002 645.4C84.3002 645 85.1002 644.7 86.0002 644.3C86.0002 644.3 85.9002 644.3 85.9002 644.2C86.7002 644 87.6002 643.8 88.4002 643.5C88.6002 643.5 88.8002 643.5 89.0002 643.5C89.9002 643.6 90.8002 643.7 91.7002 643.9C91.6002 644 91.4002 644.1 91.3002 644.2C92.2002 644.2 93.0002 644.2 93.9002 644.2C93.9002 643.7 93.8002 643.3 93.8002 642.8C94.6002 643 95.5002 643.2 96.3002 643.5C96.0002 643.5 95.8002 643.5 95.5002 643.4C96.2002 643.4 96.9002 643.4 97.6002 643.4C97.0002 642.8 96.1002 646.3 96.0002 646.7C96.5002 646.2 97.0002 645.7 97.5002 645.2C97.1002 644.6 96.8002 644 96.4002 643.3C97.5002 641.7 94.9002 640.2 93.8002 641.8C91.6002 644.9 93.6002 648.6 97.5002 648.2C98.4002 648.1 98.9002 647.6 99.0002 646.7C99.2002 644.9 100.9 643.9 100.1 641.9C99.6002 640.8 98.4002 640 97.2002 640C94.0002 640 93.6002 643.7 95.4002 645.6C95.9002 646.1 97.0002 646.2 97.5002 645.6C99.1002 643.6 100.3 639.1 96.3002 638.8C93.2002 638.6 92.9002 642.1 93.3002 644.3C93.5002 645.4 95.1002 645.8 95.8002 645C97.7002 642.6 97.7002 640.3 95.8002 637.9C95.5002 637.5 94.8002 637.4 94.3002 637.5C90.7002 638.7 89.2002 642.4 91.1002 645.8C91.6002 646.7 93.2002 646.8 93.7002 645.8C94.8002 643.5 95.7002 638.9 91.7002 638.7C88.4002 638.5 88.2002 642.5 88.6002 644.8C88.8002 646 90.8002 646.3 91.3002 645.2C92.5002 642.7 91.2002 638.8 87.7002 639.4C84.5002 640 84.3002 643.8 86.0002 645.8C86.7002 646.6 88.3002 646.2 88.5002 645.1C89.0002 642.7 87.3002 639.5 84.3002 640.6C81.7002 641.5 81.8002 644.9 83.5002 646.5C84.5002 647.4 86.0002 646.8 86.1002 645.4C86.3002 642.4 83.6002 638.8 80.4002 641.1C78.0002 642.8 79.0002 645.7 81.4002 646.7C82.6002 647.2 83.9002 645.5 83.1002 644.5C82.0002 643.1 79.9002 638.9 77.4002 640.2C74.9002 641.5 77.4002 643.5 77.1002 645.2C78.0002 645.1 78.9002 645 79.8002 644.8C78.8002 643.5 77.8002 642.2 76.8002 640.9C76.1002 639.4 73.4002 640.9 74.6002 642.4Z" fill="#161616"/>
<path d="M87.4999 645.4C88.8999 646.4 90.8999 646.1 92.0999 645C92.6999 644.5 92.6999 643.4 92.0999 642.9C91.4999 642.3 90.5999 642.3 89.9999 642.9C89.8999 643 89.6999 643 89.5999 643C89.4999 643 89.3999 643 89.3999 643C89.4999 643 89.4999 643 89.3999 643C89.1999 642.9 89.1999 642.9 89.2999 643C89.1999 643 89.0999 642.9 88.9999 642.8C88.2999 642.3 87.2999 642.7 86.8999 643.3C86.5999 644.1 86.8999 644.9 87.4999 645.4Z" fill="#161616"/>
<path d="M206.1 552.7C207.2 557.6 208.2 562.6 209.3 567.5C209.7 569.4 212.6 568.6 212.2 566.7C211.1 561.8 210.1 556.8 209 551.9C208.6 550 205.7 550.8 206.1 552.7Z" fill="#E8E8E8"/>
<path d="M208.1 553.5C214.5 555.8 221.3 555.7 227.7 553.1C229.5 552.4 228.7 549.5 226.9 550.2C221 552.6 214.9 552.8 208.9 550.6C207.1 550 206.3 552.9 208.1 553.5Z" fill="#E8E8E8"/>
<path d="M227.4 551.9C226.6 556.5 225.7 561.1 224.9 565.7C224.6 567.6 227.5 568.4 227.8 566.5C228.6 561.9 229.5 557.3 230.3 552.7C230.6 550.8 227.8 550 227.4 551.9Z" fill="#E8E8E8"/>
<path d="M205.9 575.5C200.8 591.4 196.3 607.5 192.5 623.8C192.1 625.7 195 626.5 195.4 624.6C199.2 608.3 203.7 592.2 208.8 576.3C209.4 574.4 206.5 573.6 205.9 575.5Z" fill="#E8E8E8"/>
<path d="M194.1 626.2C200.3 629.7 208.3 629.4 215.2 629.2C223.6 628.9 231.8 627.6 239.9 625.5C241.8 625 241 622.1 239.1 622.6C231.9 624.5 224.5 625.7 217 626.1C210.1 626.4 201.7 627.1 195.6 623.6C193.9 622.6 192.4 625.2 194.1 626.2Z" fill="#E8E8E8"/>
<path d="M227.8 575C231.3 582.2 234.2 589.6 236.6 597.2C237.6 600.4 245.6 620.7 240.1 622C238.2 622.4 239 625.3 240.9 624.9C249.9 622.9 243.6 609.8 242 604.5C238.9 593.9 235.2 583.5 230.4 573.5C229.5 571.7 226.9 573.3 227.8 575Z" fill="#E8E8E8"/>
<path d="M203.4 619.8C211.6 621.6 219.7 621.5 227.8 619.5C229.7 619 228.9 616.1 227 616.6C219.4 618.5 211.8 618.6 204.1 616.9C202.3 616.5 201.5 619.4 203.4 619.8Z" fill="#E8E8E8"/>
<path d="M209.4 613.5C214 614.9 218.7 615.1 223.4 614.1C225.3 613.7 224.5 610.8 222.6 611.2C218.4 612.1 214.3 611.9 210.2 610.6C208.3 610.1 207.5 613 209.4 613.5Z" fill="#E8E8E8"/>
<path d="M209.2 607.1C212.3 607.1 215.4 607.1 218.5 607.1C220.4 607.1 220.4 604.1 218.5 604.1C215.4 604.1 212.3 604.1 209.2 604.1C207.3 604.1 207.3 607.1 209.2 607.1Z" fill="#E8E8E8"/>
<path d="M208.2 598.5C212.2 599.2 216.2 599 220 597.8C221.8 597.2 221 594.3 219.2 594.9C215.8 596 212.4 596.3 208.9 595.6C207.1 595.2 206.3 598.1 208.2 598.5Z" fill="#E8E8E8"/>
<ellipse cx="92.0998" cy="562.9" rx="46.8" ry="45" stroke="#E8E8E8" stroke-width="2"/>
<path d="M78.4998 607.4C79.5998 616.7 81.3998 626.1 78.9998 635.3C78.4998 637.2 81.3998 638 81.8998 636.1C84.3998 626.6 82.6998 617 81.4998 607.4C81.2998 605.5 78.2998 605.4 78.4998 607.4Z" fill="#E8E8E8"/>
<path d="M98.5999 607.6C97.2999 612.6 96.4999 617.7 95.9999 622.8C95.4999 627.5 94.6999 632.1 96.1999 636.7C96.7999 638.5 99.6999 637.8 99.0999 635.9C97.7999 631.7 98.5999 627.2 98.9999 622.8C99.4999 617.9 100.3 613.1 101.5 608.3C102 606.5 99.0999 605.7 98.5999 607.6Z" fill="#E8E8E8"/>
<path d="M84.9002 517.5C85.7002 506.9 85.9002 496.2 85.7002 485.6C85.2002 486.1 84.7002 486.6 84.2002 487.1C88.2002 486.7 91.3002 484.8 93.8002 481.7C97.8002 476.7 97.8002 469.8 101.4 464.9C104 461.4 109.5 461.3 113.4 460.8C117.1 460.3 120.8 460.1 124.5 459.9C131.8 459.6 139.1 459.6 146.4 459.6C161 459.5 175.6 459.3 190.3 459.2C193.6 459.2 196.9 459.1 200.3 459.1C201.1 459.1 205.7 458.6 206.3 459C207.5 459.9 207.1 463.2 207.1 464.5C207.1 467 206.3 470.9 207.3 473.3C208.4 476.1 211.3 477.3 209.7 481.2C209 483 211.9 483.8 212.6 482C213.4 480 213.7 478 212.8 475.9C212.4 475 211.9 474.5 211.5 473.7C210.2 471.2 210 469.1 210.1 466.4C210.2 461.7 211.7 456.9 206.3 456C202.5 455.4 198.2 456.1 194.3 456.1C190.3 456.1 186.3 456.2 182.3 456.2C174 456.3 165.7 456.4 157.4 456.4C142.1 456.5 126.4 455.8 111.2 458C105.3 458.9 100.7 459.1 98.1002 464.9C95.0002 471.8 93.6002 483 84.2002 484.1C83.4002 484.2 82.7002 484.7 82.7002 485.6C83.0002 496.3 82.7002 506.9 81.9002 517.5C81.7002 519.4 84.7002 519.4 84.9002 517.5Z" fill="#E8E8E8"/>
<path d="M104 517.5C103.8 513 103.7 508.6 103.8 504.1C103.9 500.7 103.7 497 105.7 494C106.4 492.9 107.5 492.1 108.3 491C111.8 486.1 112.8 480.1 111.6 474.2C111.1 474.8 110.6 475.5 110.2 476.1C140.2 474.1 170.2 472 200.3 470C199.8 469.6 199.3 469.3 198.9 468.9C199.4 471.2 198.1 473.5 198.4 475.9C198.7 478.7 201.2 481.4 199.6 484.5C198.7 486.2 201.3 487.7 202.2 486C203.6 483.5 203.3 481.5 202.5 478.9C201.2 475.1 202.7 471.9 201.9 468.2C201.8 467.6 201.1 467.1 200.5 467.1C170.5 469.1 140.5 471.2 110.4 473.2C109.4 473.3 108.7 474.1 109 475.1C109.9 479.4 109.4 483.9 107.2 487.8C105.8 490.2 103 491.9 101.9 494.4C100.7 497.1 101.2 501.3 101.1 504.2C101 508.7 101.1 513.1 101.3 517.6C101.1 519.4 104.1 519.4 104 517.5Z" fill="#E8E8E8"/>
<path d="M210.8 483.6C212 484 214.3 483.5 215 484.6C215.4 485.2 215.4 486.2 215.5 486.9C215.7 488.1 215.9 489.2 216 490.4C216.2 492.3 219.2 492.3 219 490.4C218.8 488 218.7 484.8 217.3 482.7C215.9 480.6 213.6 481.4 211.6 480.7C209.8 480.1 209 483 210.8 483.6Z" fill="#E8E8E8"/>
<path d="M199.5 484.1C197.4 486.3 198.7 489.4 201.4 490.3C203.7 491 206.3 489.8 207 493C207.4 494.8 206.1 497.2 207.4 498.9C209 501 214.6 500.4 216.7 499.5C220.1 498 219.6 492.4 219 489.5C218.7 487.6 215.8 488.4 216.1 490.3C216.4 491.7 216.8 494.4 216 495.7C215.2 497 213.6 497 212.1 497C209.8 497.1 210 496.4 209.9 494.2C209.8 493.3 210.1 492.3 209.9 491.4C209.7 490.1 209 489 207.8 488.4C207.2 488.1 206.6 487.9 205.9 487.8C205.5 487.7 200.5 487.3 201.5 486.3C203 484.9 200.9 482.7 199.5 484.1Z" fill="#E8E8E8"/>
<path d="M212.4 513.5C212.4 512.8 212.8 508.2 214.1 509.1C214.8 509.6 214.4 511.1 214.2 511.7C214.2 511.8 213.5 513.6 213.1 513C212.1 511.4 209.5 512.9 210.5 514.5C211.7 516.4 214.3 516.5 215.8 514.9C217.4 513.3 217.9 510.1 217 508.1C216.1 506.1 213.5 505.1 211.7 506.6C209.8 508.1 209.3 511.2 209.4 513.5C209.5 515.4 212.5 515.4 212.4 513.5Z" fill="#E8E8E8"/>
<path d="M215.7 538.7C215.2 538 215.4 537.4 215.8 536.7C216 536.4 216.3 536.1 216.5 535.7C216.8 535.5 216.8 535.4 216.5 535.4C216.2 535.3 216.2 535.4 216.5 535.6C216.5 535.9 216.9 536.4 217 536.7C217.1 537.1 217.2 537.6 217.1 538C217 538.6 216.5 539.3 215.8 539.1C213.9 538.6 213.1 541.5 215 542C217 542.5 218.9 541.4 219.7 539.6C220.5 537.7 220 534.9 218.5 533.3C216.9 531.6 214.9 532.6 213.7 534.2C212.4 535.9 211.7 538.2 213 540C214.2 541.8 216.8 540.3 215.7 538.7Z" fill="#E8E8E8"/>
<path d="M209 553C214.3 552.9 219.6 552.7 224.9 552.4C226.8 552.3 226.8 549.3 224.9 549.4C219.6 549.6 214.3 549.8 209 550C207.1 550 207.1 553 209 553Z" fill="#E8E8E8"/>
<path d="M50.9998 581.1C55.3998 570.6 66.8998 581.7 72.0998 585C77.0998 588.3 83.0998 589.5 88.8998 587.7C91.9998 586.7 94.6998 584.9 97.5998 583.4C101.7 581.3 105.8 580.5 110.4 580.9C117.8 581.5 124.7 585.6 132.3 583.9C134.2 583.5 133.4 580.6 131.5 581C126.2 582.2 121.3 579.9 116.2 578.8C112.6 578 108.8 577.6 105.1 577.9C96.3998 578.8 90.0998 586.5 81.0998 585.2C72.9998 584 68.3998 576.2 60.6998 574.2C55.8998 573 50.5998 574.6 48.5998 579.4C47.6998 581.4 50.2998 582.9 50.9998 581.1Z" fill="#E8E8E8"/>
<path d="M70.5 583.7C83.7 586.5 91.2 573 102.9 570.4C113.6 568 127.7 579.8 136.4 568.9C137.6 567.4 135.5 565.3 134.3 566.8C126.6 576.4 112.1 565.2 102.1 567.5C91.4 570 83.1 583.4 71.3 580.8C69.4 580.4 68.6 583.3 70.5 583.7Z" fill="#E8E8E8"/>
<path d="M71.6001 568.4C70.7001 567.6 70.3001 566.2 71.1001 565.2C71.8001 564.2 73.4001 563.9 74.4001 564.6C75.4001 565.3 75.6001 566.8 75.0001 567.8C74.3001 568.8 72.8001 569 71.6001 568.4C70.0001 567.5 68.5001 570 70.1001 571C72.5001 572.4 75.8001 571.8 77.4001 569.4C78.9001 567.1 78.3001 563.8 76.1001 562.2C73.9001 560.6 70.6001 561 68.8001 563.1C67.0001 565.3 67.3001 568.7 69.4001 570.5C71.0001 571.8 73.1001 569.7 71.6001 568.4Z" fill="#E8E8E8"/>
<path d="M88.7999 545.7C88.3999 544.6 88.7999 543.3 89.9999 542.9C91.2999 542.4 92.5999 543.5 92.9999 544.7C93.9999 547.9 88.8999 549.4 88.9999 546.1C88.9999 544.2 85.9999 544.2 85.9999 546.1C85.9999 549.1 88.7999 551.6 91.7999 551C94.6999 550.4 96.6999 547.3 96.0999 544.4C95.4999 541.6 92.5999 539.3 89.6999 540C86.8999 540.7 84.8999 543.9 85.9999 546.6C86.5999 548.3 89.4999 547.5 88.7999 545.7Z" fill="#E8E8E8"/>
<path d="M110.1 624.3C128.4 624.3 146.6 624.3 164.9 624.3C166.8 624.3 166.8 621.3 164.9 621.3C146.6 621.3 128.4 621.3 110.1 621.3C108.2 621.3 108.2 624.3 110.1 624.3Z" fill="#E8E8E8"/>
<path d="M251.2 619.1C255 619.1 258.7 619.1 262.5 619.1C264.4 619.1 264.4 616.1 262.5 616.1C258.7 616.1 255 616.1 251.2 616.1C249.2 616.1 249.2 619.1 251.2 619.1Z" fill="#E8E8E8"/>
<path d="M2 989.9C82.4 989.9 162.8 989.9 243.2 989.9C245.1 989.9 245.1 986.9 243.2 986.9C162.8 986.9 82.4 986.9 2 986.9C0 986.9 0 989.9 2 989.9Z" fill="#161616"/>
<path d="M180.6 1004.7C241.3 1004.7 301.9 1004.7 362.6 1004.7C364.5 1004.7 364.5 1001.7 362.6 1001.7C301.9 1001.7 241.3 1001.7 180.6 1001.7C178.6 1001.7 178.6 1004.7 180.6 1004.7Z" fill="#161616"/>
<path d="M136.2 1028.5C151 1028.5 165.8 1028.5 180.6 1028.5C182.5 1028.5 182.5 1025.5 180.6 1025.5C165.8 1025.5 151 1025.5 136.2 1025.5C134.3 1025.5 134.3 1028.5 136.2 1028.5Z" fill="#161616"/>
<path d="M333 1066.1C397.5 1066.1 461.9 1066.1 526.4 1066.1C528.3 1066.1 528.3 1063.1 526.4 1063.1C461.9 1063.1 397.5 1063.1 333 1063.1C331.1 1063.1 331.1 1066.1 333 1066.1Z" fill="#161616"/>
<path d="M623.1 1049C678.5 1049 733.8 1049 789.2 1049C791.1 1049 791.1 1046 789.2 1046C733.8 1046 678.5 1046 623.1 1046C621.1 1046 621.1 1049 623.1 1049Z" fill="#161616"/>
<path d="M752.7 1058.1C785.3 1058.1 817.9 1058.1 850.5 1058.1C852.4 1058.1 852.4 1055.1 850.5 1055.1C817.9 1055.1 785.3 1055.1 752.7 1055.1C750.8 1055.1 750.8 1058.1 752.7 1058.1Z" fill="#161616"/>
<path d="M519.6 1015.2C562.9 1015.2 606.3 1015.2 649.6 1015.2C651.5 1015.2 651.5 1012.2 649.6 1012.2C606.3 1012.2 562.9 1012.2 519.6 1012.2C517.7 1012.2 517.7 1015.2 519.6 1015.2Z" fill="#161616"/>
<path opacity="0.17" d="M440.6 1063.5C441.9 1080.7 525.8 1088.4 569.7 1090.3C693.5 1095.5 838 1068.7 837.4 1044.6C836.8 1020.3 688.1 995.4 552.4 1021C509.6 1029 439.5 1047.5 440.6 1063.5Z" fill="#666666"/>
<path d="M567.8 962.8C565.3 984.4 562.9 1006 560.4 1027.7C518.6 1054.4 483.1 1062.5 461.6 1065.3C441.4 1068 438.7 1065.3 438 1063.8C433.1 1054 477.4 1022.1 516.9 996C522.3 978.8 527.7 961.6 533.1 944.4C544.7 950.5 556.3 956.6 567.8 962.8Z" fill="#161616" stroke="#161616" stroke-width="2"/>
<path d="M560.3 531.2C546.7 596.9 534.4 668.4 525 745.2C515.6 821.1 510.1 892.7 507.3 959.2C512.6 963.3 524 970.9 540.5 973.7C557.7 976.6 571.5 972.8 577.9 970.6C580.4 942.8 583.8 914 588.3 884.4C602.1 792.8 623.5 710.8 647.5 639.2C656.6 631.2 669.6 617.6 679.7 597.6C682.6 592 706.9 543.7 691.1 520.7C675.8 498.3 621 498.4 560.3 531.2Z" fill="white" stroke="#161616" stroke-width="2"/>
<path opacity="0.15" d="M603.4 577.4C598.2 617.9 593.1 658.4 588.1 698.9C576.7 790.9 565.6 882.9 555 975C550.2 975.8 539.8 976.9 527.8 972.5C517.4 968.6 510.7 962.4 507.4 958.9C509.4 904.6 513.6 846.4 521 784.8C530.9 702 545 626.1 560.9 558C575.1 564.4 589.3 570.9 603.4 577.4Z" fill="#666666"/>
<path opacity="0.15" d="M537.2 767.7C556.7 778.5 578.1 769.2 581.4 767.7C580 702.6 578.6 637.5 577.2 572.3C571 567.5 564.7 562.7 558.5 557.9C549.5 588.2 541.1 622.9 534.7 661.5C529 695.9 526 727.8 524.5 756.6C527.2 760.2 531.3 764.4 537.2 767.7Z" fill="#666666"/>
<path d="M740.3 969.4C740.5 979.2 740.8 989.1 741 998.9C729.8 1008.6 714.4 1023.3 698.2 1043.1C685.6 1058.5 677.1 1069 679.8 1072.6C683.8 1078 711 1064.6 758.7 1040.9C772.1 1034.2 783.1 1028.5 790.4 1024.7C784.7 997.7 779.1 970.6 773.4 943.6C762.5 952.2 751.4 960.8 740.3 969.4Z" fill="#161616" stroke="#161616" stroke-width="2"/>
<path d="M725.5 537.4C728.3 560.8 732.5 597.8 736.9 643.4C745.5 731.5 746 759.6 752.5 809.6C757.1 844.8 765.4 896.8 781.6 960.2C777.9 963.9 769.6 971.2 756.7 974.7C741.2 979 728.3 975.3 723.5 973.7C709 930.4 694.9 884.3 681.9 835.5C663.2 765.6 649.1 699.1 638.3 637.1C630.3 629.1 622.4 621.2 614.4 613.2" fill="white"/>
<path d="M725.5 537.4C728.3 560.8 732.5 597.8 736.9 643.4C745.5 731.5 746 759.6 752.5 809.6C757.1 844.8 765.4 896.8 781.6 960.2C777.9 963.9 769.6 971.2 756.7 974.7C741.2 979 728.3 975.3 723.5 973.7C709 930.4 694.9 884.3 681.9 835.5C663.2 765.6 649.1 699.1 638.3 637.1C630.3 629.1 622.4 621.2 614.4 613.2" stroke="#161616" stroke-width="2"/>
<path opacity="0.12" d="M610.4 583.7C620.8 588.9 633.9 594.4 649.6 598.5C660.4 601.3 670.4 603 679.1 603.9C683.1 630 689.1 671.1 694.7 722C701.8 786.9 702.1 810.5 709.5 851.4C714.9 881.1 724.9 924.5 745 976.4C749.2 976.2 756 975.4 763.5 972C772 968.1 777.6 962.7 780.5 959.4C772.5 927.7 763.2 885.8 756.1 835.9C748.1 780.1 748.1 750.9 740.6 678.4C737.1 644.8 732 601.6 724.3 551.2C686.3 562 648.4 572.8 610.4 583.7Z" fill="#666666"/>
<path opacity="0.18" d="M671.8 767C679.4 769.8 702.6 777.1 727.3 767C735.5 763.6 741.9 759.2 746.5 755.2C742.6 732.5 738.6 709.8 734.7 687.2C720.6 648.5 706.6 609.8 692.5 571.1C685.6 636.4 678.7 701.7 671.8 767Z" fill="#666666"/>
<path d="M599.3 248.3C586.8 289.2 574.8 332.9 564.1 379.5C549.6 441.9 539.2 501 531.8 555.7C550.7 565 585.5 579.2 631.3 580.4C672.3 581.5 704.7 571.8 723.7 564.5C731.3 508.8 736.7 446.1 737.4 377.5C737.9 328.9 735.9 283.3 732.5 241.4C713.5 238 688.4 235.3 659.1 237.5C635.5 239.2 615.3 243.6 599.3 248.3Z" fill="#EC615B"/>
<path opacity="0.22" d="M674.2 254.5C654.9 362.6 635.7 470.6 616.4 578.7C630.7 580.5 650.4 581.4 673.4 577.9C693.8 574.7 710.5 569 722.8 563.7C726.5 539.9 729.6 515.1 732 489.1C738.9 413.6 737.9 344.3 732.8 283C725.3 267.9 717.7 252.8 710.2 237.8C700.7 237.5 691.2 237.2 681.7 237C681.9 237.2 685.8 241.6 684.2 247.1C683.1 251.2 679 254.3 674.2 254.5Z" fill="#666666"/>
<path opacity="0.3" d="M691 265.4C688.7 306.2 685.4 348.4 680.9 391.9C674.2 457 665.6 518.8 655.8 577C663.7 576.9 672.4 576.5 681.8 575.3C697.9 573.3 712 569.8 723.7 566.1C735.2 507.8 742.8 420.8 713.6 324.8C707 303.2 699.3 283.4 691 265.4Z" fill="#666666"/>
<path d="M685.1 237C689.2 293.9 691.2 341.6 692.2 376.5C694.3 446.3 696.9 543.9 686.9 667.9C683.6 708 679.9 741 677.1 763C692.2 760.9 716.6 755.7 742.8 740.8C770.8 724.9 788.4 705.2 797.9 692.8C792.3 657.9 785.5 612.3 779.2 558.6C774.1 514.5 766.8 451.3 763.2 368.5C761.6 331.1 760.4 283.1 761.4 227.2C752.2 229 743 230.8 733.9 232.5C727.9 230.9 718.2 229.2 706.4 230.7C697.3 232 690 234.7 685.1 237Z" fill="white" stroke="#161616" stroke-width="2"/>
<path d="M628.2 250.4C621.2 280.9 612.1 323.5 603.3 374.8C583.8 488.7 577.3 578.4 574.9 620.9C572.8 657 571 704.7 571.3 761.3C551 751.6 534.4 744.1 523.3 739.1C492.5 725.3 479.2 720.1 476.2 708C474.2 699.7 477.9 691.5 481.5 685.8C484.5 662.9 489.6 629.3 498.4 589C514 516.8 520.9 517.3 534.8 454.8C552.8 374.1 547.7 345 573.9 280.7C581.6 261.9 589.1 246.9 594.3 237.2C624.8 234.8 640.5 235.7 641.4 239.9C642.1 242.1 637.6 245.7 628.2 250.4Z" fill="white" stroke="#161616" stroke-width="2"/>
<path d="M511.4 568.7C517.9 579.4 527.2 587.8 538.6 593C540.3 593.8 541.9 591.2 540.1 590.4C529.1 585.4 520.2 577.5 513.9 567.2C513 565.5 510.4 567 511.4 568.7Z" fill="#161616"/>
<path d="M500 611.3C503.2 621.6 507.2 632.4 516.2 639C524.3 645 533.6 644.2 540 636.3C541.2 634.8 539.1 632.7 537.9 634.2C530.8 642.9 521.1 640.6 514.1 633.1C508.3 626.8 505.4 618.6 502.9 610.5C502.3 608.7 499.4 609.4 500 611.3Z" fill="#161616"/>
<path d="M717.7 591.9C727.1 591.5 734.9 586.3 742.7 581.5C750.6 576.5 758.3 571.2 764.3 564C765.5 562.5 763.4 560.4 762.2 561.9C756.7 568.5 749.8 573.5 742.6 578C735 582.8 727 588.5 717.7 588.9C715.8 589 715.8 592 717.7 591.9Z" fill="#161616"/>
<path d="M725 631.3C744.4 642.1 763.9 627.2 772.5 610C773.4 608.3 770.8 606.8 769.9 608.5C762.1 624.2 744.5 638.8 726.6 628.8C724.9 627.8 723.4 630.4 725 631.3Z" fill="#161616"/>
<path d="M696.7 713.8C695.8 712.6 694.9 710.9 695.6 709.3C696.1 708.1 697.6 707.4 698.7 708.2C699.8 709 700.4 711.1 700.4 712.3C700.4 713.3 699.2 715.2 698.1 714.1C696.7 712.7 694.6 714.8 696 716.2C697.9 718.2 701.2 717.5 702.7 715.3C704.4 712.7 703.3 708.7 701.3 706.5C699.4 704.4 696.2 704.5 694.2 706.5C691.7 708.9 692.4 712.8 694.3 715.3C695.3 716.9 697.9 715.4 696.7 713.8Z" fill="#161616"/>
<path d="M699.5 632.7C697.9 630.9 698.3 626.9 701 626.3C704.5 625.5 703.9 634.2 700.6 632.1C699 631 697.5 633.6 699.1 634.7C701.8 636.5 705.1 634.7 706 631.9C706.9 629.1 706 625.2 703.3 623.7C700.6 622.3 697.5 624.3 696.3 626.8C695 629.5 695.5 632.6 697.4 634.8C698.6 636.2 700.7 634.1 699.5 632.7Z" fill="#161616"/>
<path d="M701.9 538.1C699.4 536.7 700.8 529.1 703.6 528.4C708 527.3 708.8 539.7 702.1 537.3C700.3 536.7 699.5 539.6 701.3 540.2C710 543.2 713.6 528.1 705.5 525.6C698.4 523.3 694.7 537.5 700.4 540.7C702.1 541.6 703.6 539 701.9 538.1Z" fill="#161616"/>
<path d="M702.6 457.4C701.7 456.6 701 455.5 700.7 454.3C700.5 453.1 700.7 451 702.2 450.7C703.4 450.4 704.1 451.7 704.5 452.6C704.7 453.1 704.8 453.6 704.9 454.2C704.9 454.4 704.9 456.6 704.4 456.2C702.9 455 700.8 457.1 702.3 458.3C704.6 460.2 707.5 458.6 707.9 455.8C708.3 453.1 707.1 449.6 704.6 448.2C702 446.8 699.2 448.4 698.2 450.9C697 453.9 698.1 457.5 700.5 459.6C701.9 460.8 704 458.7 702.6 457.4Z" fill="#161616"/>
<path d="M701.1 383.1C700.5 381.6 699.8 379.7 700.4 378C701 376.5 702.8 375.5 703.9 377.1C704.6 378.2 704.7 379.8 704.7 381C704.7 382 703.7 385.1 702.3 383.5C701 382 698.9 384.2 700.2 385.6C702 387.6 705.3 387 706.7 384.9C708.4 382.4 708 378.1 706.5 375.6C705 373.1 701.8 372.6 699.5 374.4C696.5 376.8 697 380.7 698.2 383.9C698.8 385.7 701.7 384.9 701.1 383.1Z" fill="#161616"/>
<path d="M698.8 315.8C698.7 314.6 698.4 312.8 699.3 311.8C700.5 310.6 701.5 312.4 702 313.3C702.5 314.4 702.9 315.7 702.4 316.8C701.9 317.8 699.9 318.6 699.9 316.8C700 314.9 697 314.9 696.9 316.8C696.8 319.5 699.6 321.5 702.2 320.7C705.1 319.8 706.1 316.5 705.4 313.8C704.8 311.3 702.7 307.8 699.7 308.3C696.1 308.9 695.6 312.7 695.9 315.7C695.9 317.7 698.9 317.7 698.8 315.8Z" fill="#161616"/>
<path d="M733.9 234.3C737.3 234.9 740.4 236.2 743.1 238.4C744.6 239.6 746.7 237.5 745.2 236.3C742.1 233.8 738.6 232.1 734.7 231.4C732.8 231.1 732 234 733.9 234.3Z" fill="#161616"/>
<path d="M506.6 582.5C511.6 593.3 520.7 601.2 532 604.8C533.8 605.4 534.6 602.5 532.8 601.9C522.2 598.5 513.9 591 509.2 580.9C508.3 579.2 505.8 580.7 506.6 582.5Z" fill="#161616"/>
<path d="M719.4 601.6C736.8 604.4 755.4 592.4 766.2 579.5C767.4 578 765.3 575.9 764.1 577.4C754.1 589.3 736.5 601.3 720.3 598.7C718.3 598.4 717.5 601.3 719.4 601.6Z" fill="#161616"/>
<path d="M716.8 598.4C718.1 605.7 719.6 613 721.5 620.2C722.5 624 723.1 631.5 727.4 633.3C729.2 634 730.7 631.5 728.9 630.7C726.4 629.6 725.8 624.3 725.2 622.1C724.4 619.4 723.7 616.7 723.1 614C721.8 608.6 720.7 603.1 719.7 597.6C719.4 595.7 716.5 596.5 716.8 598.4Z" fill="#161616"/>
<path d="M531.8 604.2C534.8 614.1 536.5 624.1 536.7 634.5C536.7 636.4 539.7 636.4 539.7 634.5C539.5 623.9 537.8 613.6 534.7 603.4C534.1 601.6 531.2 602.4 531.8 604.2Z" fill="#161616"/>
<path opacity="0.19" d="M737.9 318.5C743.6 361.5 747.8 408.2 749.2 458.2C752.3 568.7 741.3 666.5 725.9 747.4C735.9 743.5 748.3 737.6 761.4 728.5C778.1 716.9 789.9 704.3 797.6 694.5C792.3 652.5 783.1 579.4 773.4 496.7C770.8 474.2 767.1 442.5 764.3 400.1C762.5 373.1 761.7 350.6 761.3 335.2C753.5 329.6 745.7 324 737.9 318.5Z" fill="#666666"/>
<path opacity="0.17" d="M580.1 343.4C572 378.4 566.5 407.9 562.7 429.5C544.7 533.9 532.6 596.5 540 674.1C543.1 706.4 548.5 732.7 552.8 750.4C539.1 745.6 524 739.4 508.3 731.5C497.9 726.3 488.3 721 479.6 715.6C478.5 714.2 475.1 709.9 475.1 703.5C475 693.9 482.6 688.2 483.4 687.6C487.1 641.6 494.3 605.3 500 581.1C513.9 522.1 528.7 494.3 540.8 430.9C546.7 399.6 549.4 373.8 550.6 357.7C560.4 353 570.3 348.2 580.1 343.4Z" fill="#666666"/>
<path opacity="0.18" d="M782.4 610.7C780 610.8 780.6 630.5 776.4 656.8C771.3 688.8 761.6 714.2 753.7 731.5C760.4 727.8 768.6 722.5 777.1 714.9C785.4 707.4 791.6 699.9 796 693.8C788.4 625.7 784.5 610.6 782.4 610.7Z" fill="#666666"/>
<path opacity="0.16" d="M516.7 526.1C517.6 526.3 490.9 589.3 502.4 659.7C508.1 694.7 521.8 722.3 533.4 741.2C518 734.7 506.2 729.9 498.7 726.9C487.8 722.6 481.1 720 478.3 713.3C476 707.7 477 700.9 477.5 697.4C478.3 692.2 480 688 481.3 685.3C485.6 660.5 492.2 625.4 501.7 583.4C512.3 535.8 516.3 526.1 516.7 526.1Z" fill="#666666"/>
<path d="M391 94.5C389.2 109 387.4 123.4 385.6 137.9C370.7 172 355.9 206.1 341 240.2C349.3 244.4 365 251 385.6 251.5C410.4 252.1 428.9 243.6 437.3 239C428 206.1 418.7 173.2 409.4 140.3C409.2 125 409 109.8 408.8 94.5C402.9 94.5 397 94.5 391 94.5Z" fill="white" stroke="#161616" stroke-width="2"/>
<path d="M391.8 103.3C397.4 105.2 403.3 104.7 408.4 101.7C410.1 100.7 408.6 98.2 406.9 99.1C402.4 101.7 397.4 102.1 392.6 100.4C390.7 99.7 390 102.6 391.8 103.3Z" fill="#161616"/>
<path d="M374.7 237.3C382.8 240.5 391.2 241.3 399.8 239.9C401.7 239.6 400.9 236.7 399 237C390.9 238.3 383.1 237.4 375.5 234.4C373.7 233.7 372.9 236.6 374.7 237.3Z" fill="#161616"/>
<path d="M378.1 229.2C385.7 231.5 393.4 231.4 400.9 229.2C402.7 228.6 402 225.7 400.1 226.3C393 228.4 386 228.4 378.9 226.3C377.1 225.7 376.3 228.6 378.1 229.2Z" fill="#161616"/>
<path d="M379.9 219.7C386.8 221.4 393.6 221.2 400.4 219.2C402.2 218.7 401.5 215.8 399.6 216.3C393.3 218.2 387.1 218.3 380.7 216.8C378.8 216.3 378 219.2 379.9 219.7Z" fill="#161616"/>
<path d="M382.9 209.4C389.5 211 396.1 210.9 402.7 208.9C404.5 208.4 403.8 205.5 401.9 206C395.9 207.8 389.8 208 383.7 206.5C381.9 206 381.1 208.9 382.9 209.4Z" fill="#161616"/>
<path d="M388.9 200.5C393.7 201.5 398.5 201.5 403.4 200.7C405.3 200.4 404.5 197.5 402.6 197.8C398.3 198.6 394 198.5 389.7 197.6C387.8 197.2 387 200.1 388.9 200.5Z" fill="#161616"/>
<path d="M390.1 190.3C395 191.2 399.8 191.1 404.6 190C406.5 189.5 405.7 186.7 403.8 187.1C399.5 188.1 395.3 188.3 390.9 187.4C389 187.1 388.2 190 390.1 190.3Z" fill="#161616"/>
<path d="M389.5 176.8C394.1 178.3 398.7 178.4 403.4 177.4C405.3 177 404.5 174.1 402.6 174.5C398.4 175.4 394.4 175.2 390.3 173.9C388.4 173.3 387.6 176.2 389.5 176.8Z" fill="#161616"/>
<path d="M391.8 165.7C395.1 166.5 398.4 166.9 401.8 166.7C403.7 166.6 403.7 163.6 401.8 163.7C398.7 163.8 395.7 163.5 392.6 162.8C390.7 162.4 389.9 165.3 391.8 165.7Z" fill="#161616"/>
<path d="M415.8 177.5C415.2 177 402.8 167.1 404.9 163.1C406.4 160.2 415 161.5 420.1 163.1C432 166.9 438.4 176.7 440.4 179.9C446.6 189.7 447 199.1 447 201.3C447.2 209.8 444.7 216.3 443.1 219.6C446.5 233 449.9 246.4 453.2 259.7C444 264.5 434.8 269.3 425.5 274.1C421.5 265.5 417.4 257 413.4 248.4" fill="white"/>
<path d="M415.8 177.5C415.2 177 402.8 167.1 404.9 163.1C406.4 160.2 415 161.5 420.1 163.1C432 166.9 438.4 176.7 440.4 179.9C446.6 189.7 447 199.1 447 201.3C447.2 209.8 444.7 216.3 443.1 219.6C446.5 233 449.9 246.4 453.2 259.7C444 264.5 434.8 269.3 425.5 274.1C421.5 265.5 417.4 257 413.4 248.4" stroke="#161616" stroke-width="2"/>
<path d="M419.8 191.5C418.1 199.9 418.4 208.2 420.5 216.5C421 218.4 423.9 217.6 423.4 215.7C421.4 207.9 421.1 200.2 422.7 192.3C423 190.4 420.1 189.6 419.8 191.5Z" fill="#161616"/>
<path d="M419.6 213.1C422.5 222 425.3 230.8 428.2 239.7C428.8 241.5 431.7 240.7 431.1 238.9C428.2 230 425.4 221.2 422.5 212.3C421.9 210.5 419 211.3 419.6 213.1Z" fill="#161616"/>
<path d="M411.5 250.7C418.9 249.3 425.5 245.8 430.9 240.6C432.3 239.3 430.2 237.1 428.8 238.5C423.7 243.4 417.7 246.5 410.8 247.8C408.8 248.2 409.6 251.1 411.5 250.7Z" fill="#161616"/>
<path d="M414.1 177.3C416 184.1 419.5 190.1 424.4 195.2C425.7 196.6 427.9 194.5 426.5 193.1C422 188.4 418.8 182.8 417 176.5C416.4 174.7 413.5 175.4 414.1 177.3Z" fill="#161616"/>
<path d="M359.3 174.7C357.1 173.9 351.1 180.3 351.8 186.7C352.2 191 355.4 193.7 357 195.1C360 197.7 365.1 200.3 366.5 199C367.5 198 367 194.8 360.4 184.7C361.2 177.1 360.3 175.1 359.3 174.7Z" fill="white" stroke="#161616" stroke-width="2"/>
<path d="M358.9 166.7C355.5 169.4 356 174.9 356.2 176.7C356.3 178.2 356.9 183.7 361.4 187.6C365.1 190.7 370.8 192.2 372.1 190.5C372.8 189.6 372.1 188.1 371 185.5C369.4 181.8 367.4 179.2 366 177.6C366 170.8 364.3 166 361.9 165.6C360.7 165.3 359.5 166.2 358.9 166.7Z" fill="white" stroke="#161616" stroke-width="2"/>
<path d="M360.5 165C358.2 174.6 372.5 184.8 375.9 182.9C377.9 181.8 377.2 175.7 376.1 172.2C375.4 170 374.4 168.3 373.6 167.2C375.6 162.6 377.4 157.1 375.4 155.4C372.7 153.2 362.2 157.8 360.5 165Z" fill="white" stroke="#161616" stroke-width="2"/>
<path d="M357.5 202.4C351.6 202.1 341.7 202 340.9 204.9C340.3 207.2 345.5 211.1 346.6 211.9C348.5 213.4 350.4 214.3 351.8 214.8C353.7 210.7 355.6 206.6 357.5 202.4Z" fill="white" stroke="#161616" stroke-width="2"/>
<path opacity="0.19" d="M406.9 162.8C405.3 166.6 429.9 173.3 435 192.3C437 199.6 434.2 202.2 433.5 219.3C433 230.8 433.8 240.3 434.6 246.7C439 244 443.4 241.4 447.7 238.7C446 232.1 444.3 225.6 442.6 219C444.5 214.6 447.7 205.6 445.9 194.6C445.5 192.1 442.2 174.1 426.2 165.8C418.1 161.5 407.9 160.4 406.9 162.8Z" fill="#666666"/>
<path opacity="0.22" d="M393.4 98.2C396.6 100.3 399.7 102.3 402.9 104.4C404.3 121 404.5 145.9 397.1 174.8C388.4 208.7 373.1 233.3 362.4 247.8C371.7 250.7 390.8 255.2 412.4 248.5C419.2 246.4 424.9 243.6 429.5 240.8C426.5 235.2 422.5 226.1 421.1 214.2C420 205 420.8 197.1 421.8 191.6C419.8 188.3 418.5 185.5 417.8 183.6C416.2 179.3 416.3 177.8 414.5 175.6C412.4 173 411.2 173.6 408.7 170.9C408.1 170.3 404.2 165.9 405.4 163.2C406.7 160.3 412.5 162.3 414.9 159.6C416.7 157.5 416.5 152.6 409.4 141C408.9 126.3 408.4 111.6 407.9 96.9C403.1 97.3 398.3 97.7 393.4 98.2Z" fill="#666666"/>
<path opacity="0.28" d="M413.1 175.9C414.5 183.3 416.5 199.3 410.2 217.8C404.7 234 395.4 244.7 390.1 249.9C394.3 250.6 403.1 251.6 413.1 248.1C420.4 245.5 425.5 241.6 428.4 239C426.1 233.6 423.7 226.6 422.2 218.2C420.3 207.2 420.6 197.7 421.5 190.8C420.2 189 418.8 186.9 417.5 184.6C415.7 181.6 414.2 178.6 413.1 175.9Z" fill="#666666"/>
<path opacity="0.17" d="M375.8 155.2C374.6 154.7 367.2 162.8 369 171.1C370.2 176.8 375.6 181.2 376.9 180.4C377.7 179.9 377.5 177 373.2 166.8C376.2 157.8 376.3 155.5 375.8 155.2Z" fill="#666666"/>
<path opacity="0.26" d="M359.1 167.4C358 167.8 359 176.7 364.5 183.5C367.4 187.2 371.5 190 372.1 189.4C372.6 189 371.4 187.1 366.4 178.9C359.9 168.1 359.4 167.3 359.1 167.4Z" fill="#666666"/>
<path opacity="0.56" d="M355.3 209.1C351 219.3 346.7 229.5 342.3 239.7C345.7 241.3 350.3 243.2 356 245.1C372.7 250.4 386.3 250.5 390.4 250.5C401 250.4 410.9 250.1 421.2 244C424.3 242.1 426.7 240.2 428.2 238.9C424.9 228.1 421.7 219.5 419.2 213.3C418 210.3 416.9 207.8 414.7 207.2C409.4 205.8 405.9 217.3 397.8 218.1C389.8 218.8 386.2 208.3 378.6 209.8C373 210.9 371.3 217.7 367.7 216.8C364.5 216 364.4 210.2 360 208.8C358.2 208.2 356.4 208.6 355.3 209.1Z" fill="#EC615B"/>
<path opacity="0.33" d="M360.4 205.7C362.8 204.8 365.1 205 366.3 205.1C370 205.6 372.7 207 373.3 207.4C382.4 212.4 405.7 196.5 415.9 203.7C419.3 206.1 420.9 210.7 420.3 214.3C418.4 224.1 397.7 228.2 383.3 227.6C370.5 227 353.9 222.2 353.2 215.3C352.9 211.8 356.4 207.2 360.4 205.7Z" fill="#EC615B"/>
<g opacity="0.33">
<path d="M382.7 186.8C382.7 187.1 382.6 187.4 382.3 187.6C382.1 187.7 382 187.7 382.2 187.7C382.1 187.7 382.1 187.7 382 187.7C382.3 187.7 381.7 187.6 382 187.7C381.7 187.6 381.5 187.4 381.4 187.1C381.3 186.7 381.4 186.4 381.6 186.2C381.5 186.3 382 186 381.9 186C381.8 186 381.8 186 382.1 186C382 186 382 186 382.1 186C382.2 186 382.3 186 382.4 186.1C382.7 186.5 382.8 186.6 382.7 186.4C382.3 185.7 381.3 185.5 380.6 185.9C379.9 186.3 379.7 187.2 380.1 188C381.3 190.2 385.1 188.8 384.3 186.3C384 185.3 383 184.7 382 184.7C380.8 184.8 380 185.6 379.8 186.8C379.7 187.6 380.6 188.3 381.3 188.3C382.1 188.3 382.6 187.7 382.7 186.8Z" fill="#EC615B"/>
</g>
<g opacity="0.33">
<path d="M389.7 161.2C389.7 161.1 389.7 161 389.7 161C389.7 161.4 389.4 161.7 389 161.8C388.7 161.8 388.5 161.8 388.2 161.8C388.1 161.8 388 161.7 388 161.7C387.8 161.5 387.6 161.3 387.5 161.2C387.6 161.3 387.6 161.3 387.5 161C387.4 160.8 387.4 160.6 387.5 160.4C387.6 160.2 387.8 160 387.9 159.7C388.1 159.6 388.3 159.4 388.6 159.3C388.9 159.3 389.1 159.3 389.4 159.3C389.4 159.3 389.4 159.3 389.3 159.3C388.6 159.1 387.6 159.6 387.5 160.3C387.3 161.1 387.8 161.9 388.5 162.1C389.3 162.4 390.3 161.8 390.5 161C390.7 160.3 390.4 159.6 389.9 159.1C389.2 158.6 388.3 158.6 387.7 159.2C387.2 159.7 387 160.4 387.1 161C387.2 161.8 387.7 162.5 388.6 162.5C389 162.7 389.8 162 389.7 161.2Z" fill="#EC615B"/>
</g>
<g opacity="0.33">
<path d="M398.7 144.4C398.7 144.5 398.7 144.6 398.7 144.6C399.7 144.5 400.7 144.3 401.6 144.2C401.5 143.9 401.5 144.1 401.6 144.6C401.6 144.7 401.5 144.8 401.4 144.9C401.2 145 401.2 145 401.4 144.9C401.4 144.9 401.3 144.9 401.3 145C400.8 145 400.5 145 400.3 144.5C400.3 144.7 400.3 144.6 400.3 144.4C400.3 144.5 400.3 144.5 400.3 144.4C400.3 144.3 400.3 144.3 400.3 144.4C400.3 144.3 400.4 144.2 400.5 144.1C400.7 143.9 400.8 144 401 143.9C401.1 143.9 401.1 143.9 401 143.9C401.1 143.9 401.2 144 401.2 144.1C401.1 144 401.1 144 401.2 144.1C401.3 144.3 401.3 144.3 401.2 144.1C401.1 144.5 401.1 144.9 401 145.3C400.9 145.6 400.3 145.7 400.1 145.6C399.6 145.4 399.3 144.9 399.5 144.4C400.3 144.3 401.1 144.2 401.9 144.1C401.7 143.9 401.4 143.7 401.2 143.5C400.6 143 399.7 142.9 399.1 143.5C398.5 144.1 398.5 145.1 399.1 145.6C399.3 145.8 399.6 146 399.8 146.2C400.5 146.8 401.7 146.8 402.2 145.9C402.7 144.9 402.5 143.6 401.5 143C400.6 142.4 399.4 142.6 398.7 143.4C397.9 144.3 398.2 145.5 399 146.2C399.7 146.8 400.7 147.1 401.6 146.8C403.3 146.3 403.8 143.8 402.5 142.6C401.7 141.9 400.6 141.9 399.7 142.5C398.9 143.1 398.4 144.1 398.8 145.1C399.1 145.8 399.7 146.3 400.4 146.2C401.1 146.1 401.8 145.5 401.7 144.7C401.7 144.6 401.7 144.5 401.7 144.5C401.6 143.7 401.1 143 400.2 143C399.5 142.9 398.7 143.6 398.7 144.4Z" fill="#EC615B"/>
</g>
<g opacity="0.33">
<path d="M396.9 121.6C396.7 121.3 397 121.9 396.9 122C396.9 122.1 396.7 122.3 396.9 122.1C396.7 122.3 396.4 122.5 396.1 122.4C395.8 122.1 395.4 121.7 395.1 121.4C395.2 121.6 395.1 121.4 395.1 121.3C395.1 121.1 395.2 121 395.4 120.8C395.9 120.8 396.4 120.8 396.9 120.8C397.2 121 397.3 121.2 397.3 121.5C397.3 121.3 397.3 121.4 397.3 121.6C397.3 121.5 397.3 121.5 397.3 121.6C397.2 121.7 397.3 121.7 397.3 121.6C397.3 121.7 397.2 121.8 397.1 121.8C397 121.9 396.5 122 396.7 122C396.3 121.8 395.8 121.5 395.4 121.3C395.5 121.5 395.4 121.2 395.4 121.1C395.4 121.2 395.4 121.3 395.4 121.1C395.4 121 395.4 121 395.4 121.1C395.4 121.1 395.4 121 395.5 121C395.4 121.1 395.4 121.1 395.5 121C395.7 120.8 395.5 121 395.4 121C396.1 121.2 396.8 121.4 397.5 121.5C397.1 121 396.8 120.5 396.4 120C395.9 119.4 395.1 119 394.3 119.5C393.7 119.9 393.3 120.9 393.8 121.6C394.2 122.1 394.5 122.6 394.9 123.1C395.4 123.8 396.1 124 397 123.6C397.9 123.2 398.4 122.2 398.5 121.3C398.6 120 397.8 118.8 396.4 119C395.5 119.1 394.7 119.8 394.5 120.8C394.2 121.8 394.6 122.8 395.5 123.4C395.9 123.7 396.6 123.7 397 123.4C397.7 122.9 398.2 122.1 398.2 121.2C398.1 120.1 397.3 119.3 396.1 119.4C394.5 119.6 393.4 121.6 394.4 123C394.9 123.7 395.7 124 396.5 123.5C397 123.3 397.4 122.3 396.9 121.6Z" fill="#EC615B"/>
</g>
<g opacity="0.33">
<path d="M397.9 76.7C397.6 77.3 396.7 77.1 396.4 76.7C396.3 76.3 396.3 75.9 396.2 75.5C396.2 75.6 396.2 75.7 396.1 75.8V75.9C396.1 75.8 396.1 75.8 396.1 75.9C396.1 75.9 395.9 76.2 396 76.1C396.1 76 395.8 76.3 395.8 76.3C396.5 76.3 397.2 76.3 397.9 76.3C398 76.5 397.9 76.3 397.9 76.3V76.4C397.9 76.2 397.9 76.2 397.9 76.3C397.9 76.5 397.9 76.1 397.9 76.3C397.9 76.5 398 76.1 398 76.1C397.5 76.5 397 76.8 396.6 77.2C395.9 77.1 395.7 76.7 395.9 75.9C396.1 75.6 396.5 75.4 396.8 75.5C396 75.3 395.1 75.7 395 76.5C394.8 77.2 395.2 78.2 396 78.3C397.2 78.5 398.4 77.9 398.7 76.7C399 75.3 397.9 74.1 396.6 74.1C395.9 74.1 395.4 74.6 395.2 75.2C394.8 76.3 395.1 77.5 395.9 78.4C396.4 79 397.5 78.9 398 78.4C398.9 77.5 399.8 75.8 398.7 74.7C397.8 73.8 396 73.9 395.4 75.2C395.1 75.9 395.2 76.8 395.9 77.3C396.5 77.6 397.6 77.5 397.9 76.7Z" fill="#EC615B"/>
</g>
<g opacity="0.33">
<path d="M378.8 72.3C378.7 72.3 378.7 72.3 378.8 72.3C378.9 72.2 379 71.9 379.2 71.7C379.2 71.7 379.2 71.7 379.1 71.8C379.3 71.7 379.5 71.5 379.8 71.4C380.1 71.4 380.3 71.5 380.6 71.5C380.8 71.7 381 71.9 381.1 72C381.1 72.3 381.1 72.5 381.2 72.8C380.9 73 380.6 73.3 380.3 73.5C380.6 73.4 380.3 73.5 380.1 73.4C379.9 73.2 379.7 73 379.6 72.9C379.1 72.2 380.6 71.5 380.9 72.4C380.7 71.6 379.8 71.1 379.1 71.4C378.3 71.6 377.8 72.5 378.1 73.2C378.5 74.5 380 75.3 381.3 74.8C382.6 74.2 383.2 72.4 382.2 71.3C381.7 70.7 380.7 70.5 379.9 70.7C379 70.9 378.4 71.8 378.4 72.7C378.5 74.7 381.3 75.2 381.9 73.3C382.1 72.5 381.6 71.6 380.9 71.5C379.8 71 379 71.5 378.8 72.3Z" fill="#EC615B"/>
</g>
<g opacity="0.33">
<path d="M398.1 47.6C398.2 47.6 398.2 47.7 398.3 47.7C398.4 47.9 398.6 48.1 398.7 48.4C398.5 48 398.5 48.3 398.4 49.4C398.2 49.5 398 49.7 397.7 49.8C397.2 49.3 396.8 48.9 396.3 48.4C396.4 48.2 396.6 48 396.7 47.7C396.7 47.7 396.7 47.7 396.6 47.8C396.1 48.4 396 49.3 396.6 49.9C397.1 50.4 398.2 50.5 398.7 49.9C399.2 49.3 399.4 48.5 399 47.7C398.6 47 397.9 46.6 397.2 46.7C395.5 46.9 395.2 49.3 396.6 50.1C397.3 50.5 398.2 50.3 398.7 49.6C399 48.9 398.8 48 398.1 47.6Z" fill="#EC615B"/>
</g>
<g opacity="0.33">
<path d="M413.4 74.6C413.3 75.3 413.1 76.1 413 76.8C412.8 77.7 414.3 78.1 414.4 77.2C414.5 76.5 414.7 75.7 414.8 75C415 74.1 413.6 73.7 413.4 74.6Z" fill="#EC615B"/>
</g>
<g opacity="0.33">
<path d="M416.2 75C416.7 75.5 417.2 76 417.7 76.5C418.4 77.2 419.5 76.1 418.8 75.4C418.3 74.9 417.8 74.4 417.3 73.9C416.6 73.2 415.5 74.3 416.2 75Z" fill="#EC615B"/>
</g>
<g opacity="0.33">
<path d="M411.8 73.0999C411.2 73.1999 410.6 73.3999 410 73.4999C409.1 73.6999 409.5 75.0999 410.4 74.8999C411 74.7999 411.6 74.5999 412.2 74.4999C413.1 74.2999 412.7 72.7999 411.8 73.0999Z" fill="#EC615B"/>
</g>
<g opacity="0.33">
<path d="M413 70.4C412.8 70 412.5 69.7 412.3 69.3C411.8 68.5 410.5 69.3 411 70.1C411.2 70.5 411.5 70.8 411.7 71.2C412.2 72 413.5 71.3 413 70.4Z" fill="#EC615B"/>
</g>
<g opacity="0.33">
<path d="M416.9 69.3C417.3 68.7 417.7 68.1 418 67.5C418.5 66.7 417.2 65.9 416.7 66.7C416.3 67.3 415.9 67.9 415.6 68.5C415.1 69.4 416.4 70.1 416.9 69.3Z" fill="#EC615B"/>
</g>
<g opacity="0.33">
<path d="M419.8 70.3999C420.4 70.2999 421 70.0999 421.6 69.9999C422.5 69.7999 422.1 68.3999 421.2 68.5999C420.6 68.6999 420 68.8999 419.4 68.9999C418.5 69.1999 418.9 70.5999 419.8 70.3999Z" fill="#EC615B"/>
</g>
<g opacity="0.33">
<path d="M377.3 47.3999C377 47.9999 376.7 48.2999 376.1 48.5999C375.7 48.7999 375.6 49.2999 375.8 49.5999C376 49.9999 376.5 49.9999 376.8 49.8999C377.6 49.5999 378.2 48.8999 378.5 48.1999C378.7 47.7999 378.6 47.3999 378.2 47.1999C378 46.8999 377.4 46.9999 377.3 47.3999Z" fill="#EC615B"/>
</g>
<g opacity="0.33">
<path d="M379.1 48.9C379.6 49.6 379.9 50.4 380.1 51.3C380.3 52.3 381.7 51.8 381.5 50.9C381.3 49.9 380.9 49 380.4 48.1C379.8 47.3 378.5 48.1 379.1 48.9Z" fill="#EC615B"/>
</g>
<g opacity="0.33">
<path d="M374.5 46.9C375 46.3 375.6 46 376.3 45.9C376.7 45.8 376.9 45.3 376.8 45C376.7 44.6 376.3 44.4 375.9 44.5C374.9 44.6 374.1 45.1 373.4 45.8C372.7 46.5 373.8 47.6 374.5 46.9Z" fill="#EC615B"/>
</g>
<g opacity="0.33">
<path d="M375.6 41.3C376 41.7 376.3 42 376.7 42.4C377.4 43.1 378.4 42 377.8 41.3C377.4 40.9 377.1 40.6 376.7 40.2C375.9 39.6 374.9 40.7 375.6 41.3Z" fill="#EC615B"/>
</g>
<g opacity="0.33">
<path d="M380.8 42.7C381.2 42.1 381.5 41.5 381.9 40.9C382.4 40.1 381.1 39.3 380.6 40.1C380.2 40.7 379.9 41.3 379.5 41.9C379 42.7 380.3 43.5 380.8 42.7Z" fill="#EC615B"/>
</g>
<g opacity="0.33">
<path d="M382.3 44.9C383 44.9 383.8 44.9 384.5 44.9C385.5 44.9 385.5 43.4 384.5 43.4C383.8 43.4 383 43.4 382.3 43.4C381.3 43.4 381.3 44.9 382.3 44.9Z" fill="#EC615B"/>
</g>
<g opacity="0.33">
<path d="M382.7 46.9C382.9 47.5 383.2 48.1 383.4 48.7C383.5 49.1 383.9 49.3 384.3 49.2C384.7 49.1 385 48.7 384.8 48.3C384.6 47.7 384.3 47.1 384.1 46.5C384 46.1 383.6 45.9 383.2 46C382.9 46 382.5 46.5 382.7 46.9Z" fill="#EC615B"/>
</g>
<path d="M595.4 237.5C586.3 240.5 576.4 244.4 566 249.4C539.9 262.1 520.3 277.8 506.3 291.2C504.2 287.2 501.1 285.6 499.7 286.3C498.5 286.9 498.1 289.2 498.5 291.7C491 287.1 481.5 280.2 472 270.3C461.1 258.8 454.2 247.3 449.9 238.8C437.3 246.2 424.7 253.5 412.1 260.9C413.3 267.5 421.9 312.1 461.3 333.4C493.5 350.8 528.1 342.9 542.4 339.6C553.9 337 563.2 333.3 569.6 330.3" fill="white"/>
<path d="M595.4 237.5C586.3 240.5 576.4 244.4 566 249.4C539.9 262.1 520.3 277.8 506.3 291.2C504.2 287.2 501.1 285.6 499.7 286.3C498.5 286.9 498.1 289.2 498.5 291.7C491 287.1 481.5 280.2 472 270.3C461.1 258.8 454.2 247.3 449.9 238.8C437.3 246.2 424.7 253.5 412.1 260.9C413.3 267.5 421.9 312.1 461.3 333.4C493.5 350.8 528.1 342.9 542.4 339.6C553.9 337 563.2 333.3 569.6 330.3" stroke="#161616" stroke-width="2"/>
<path d="M497.4 291.7C498.6 294.8 499.5 298 500.3 301.3C500.8 303.2 503.6 302.4 503.2 300.5C502.4 297.2 501.4 294.1 500.3 290.9C499.7 289.1 496.8 289.8 497.4 291.7Z" fill="#161616"/>
<path opacity="0.16" d="M434.5 250C437.2 273.5 446.6 287.4 452 294C483.6 332.9 545.6 327.4 554 326.5C566 325.3 574.6 322.7 575 324C575.8 326.5 547.6 344.1 513 344.5C502.7 344.6 459.6 343.6 432.5 309C417.8 290.3 414.5 270.2 413.5 260.5C420.5 257 427.5 253.5 434.5 250Z" fill="#666666"/>
<path d="M436.5 291C449.5 304.7 462.5 318.3 475.5 332L436.5 291Z" fill="#666666"/>
<path opacity="0.17" d="M474.5 338.5C465.2 335 445 325.8 430 304C417.7 286.2 414.8 268.6 414 260C419.3 271.9 429.5 290.4 448.5 307C482 336.4 520.1 340.3 533.5 341C525.4 343.2 501.7 348.7 474.5 338.5Z" fill="#666666"/>
<path d="M578.9 93.6C569.9 88.3 562.3 78.2 564.8 73.1C567.3 67.8 578.5 72 582.8 65.4C585.8 60.7 581.5 56.6 582.2 46.8C582.4 44.2 583.4 29.4 593.1 25C599.9 21.9 609 24.7 616.2 31.4C619.5 30.9 623.9 29.7 625.8 26.3C629.7 19.5 620.7 9.79998 623.9 6.39998C627.2 2.89998 640 9.79998 643.1 11.5C650.3 15.4 655.4 19.9 658.5 23C659.2 20.5 663.6 5.79998 675.8 1.79998C687.7 -2.10002 699.2 6.59998 707.2 12.7C716.6 19.8 718.4 24.6 734.8 48.6C754.3 77.2 759.5 81.7 758.5 91.6C757.9 98 755.6 97.9 750.2 116C746.4 128.6 747.1 130.1 744.4 139.1C742.6 145.2 737.8 160.5 726.4 175C721.3 181.5 706 199.4 700.1 196.2C691.3 191.3 719.3 153.8 704.6 130.1C687.8 103.1 618 98.4 599.4 98.7C597.3 98.8 588 99 578.9 93.6Z" fill="#5222D0"/>
<path d="M633 210.6C631 217.1 640.4 223 643.7 238.7C645.7 248 644.6 256.3 643.1 262.3C648.8 261.5 656.1 259.9 664.1 256.8C671.4 254 677.3 250.6 681.8 247.6C678.6 232 675.4 216.3 672.3 200.7C643.2 200.6 634.6 205.4 633 210.6Z" fill="white" stroke="#161616" stroke-width="2"/>
<path d="M644.3 237.4C655.9 233.8 668 227.3 676.8 218.8C678.2 217.5 676.1 215.3 674.7 216.7C666.4 224.8 654.5 231.1 643.5 234.5C641.7 235.1 642.5 238 644.3 237.4Z" fill="#161616"/>
<path d="M640.4 229.6C641.6 233 642.1 236.6 646.4 235.3C652.9 233.2 659.2 229.6 665.3 226.6C667 225.8 665.5 223.2 663.8 224C660.2 225.7 656.6 227.4 652.9 229.1C651.4 229.8 649.8 230.7 648.2 231.2C645.1 232.2 644.3 231.7 643.3 228.8C642.7 227 639.8 227.8 640.4 229.6Z" fill="#161616"/>
<path d="M642.5 231.8C649.9 231.8 656.9 230 663.5 226.5C665.2 225.6 663.7 223 662 223.9C655.9 227.1 649.5 228.8 642.6 228.8C640.5 228.9 640.5 231.9 642.5 231.8Z" fill="#161616"/>
<path d="M595.4 121.6C594.1 127.5 590.3 146.4 594.9 169.9C596.5 178.1 598.2 187.2 604.1 197.6C612.3 212 623.5 220.3 630.2 224.5C634.6 225 667 228.3 690.1 204.6C702 192.4 706 178.6 707.5 171.5C709.6 172 716.8 173.6 723.6 169.7C733.4 164 735.9 150.6 732.1 141.5C731.8 140.8 727.1 130.2 719.6 130.8C715.3 131.1 712.4 134.9 711.5 136.2C714.5 129.1 723.6 104.9 712.4 86.1C694.5 56.1 636.5 57.3 612.2 82.5C601.7 93.4 598.5 107.8 595.4 121.6Z" fill="white" stroke="#161616" stroke-width="2"/>
<path d="M609.5 144.2C607.8 142.6 609 137.7 609.6 135.8C609.7 135.2 609.9 134.6 610.3 134C610.4 134.6 610.6 135.3 610.6 135.9C610.8 137.2 610.8 138.6 610.7 139.9C610.6 141.1 610.1 142.5 610.1 143.7C609.5 144.4 609.6 144.8 610.3 145C610.3 144.2 610.4 143.5 610.4 142.7C610.6 139.8 611.1 137 611.8 134.1C610.8 134 609.8 133.8 608.9 133.7C608.6 137.8 608.3 141.8 608.1 145.9C608.9 145.5 609.6 145 610.4 144.6C610.4 144.7 610.4 144.9 610.4 145C610.8 143.1 607.9 142.3 607.5 144.2C607.2 145.5 607.5 146.6 608.8 147.2C609.9 147.7 611 147.1 611.1 145.9C611.4 141.8 611.7 137.8 611.9 133.7C612 132 609.4 131.7 609 133.3C608.2 136.6 607.6 139.9 607.4 143.2C607.3 144.9 607.1 147.7 609.3 148.3C614 149.7 613.9 139.1 613.7 136.6C613.6 134.8 613.5 132.1 611.9 130.8C610.6 129.7 608.8 130.3 607.9 131.6C605.7 134.8 604.3 143.3 607.4 146.2C608.8 147.6 610.9 145.5 609.5 144.2Z" fill="#161616"/>
<path d="M667.3 144.9C666.9 143 666.7 141 666.9 139.1C667 137.8 667.8 133.4 669 136.5C670.3 139.9 668.5 144.7 666.8 147.5C667.5 147.3 668.2 147.1 668.9 147C667.3 146.2 668 142.7 668.2 141.4C668.3 140.2 668.3 136.3 669.5 135.6C668.8 135.3 668 135 667.3 134.7C668.1 138.5 668 142.3 667.2 146.1C668.1 146 669 145.9 669.9 145.7C668.7 142.8 668.7 139.9 669.7 137C668.7 137 667.8 137 666.8 137C667.1 138.5 667.1 139.6 666.7 141.1C666.2 143 669.1 143.8 669.6 141.9C670.1 139.9 670.1 138.2 669.7 136.2C669.3 134.7 667.2 134.9 666.8 136.2C665.5 140 665.8 143.6 667.4 147.3C667.9 148.5 669.9 148.1 670.1 146.9C671 142.5 671 138.2 670.2 133.9C670 133 668.8 132.5 668 133C665.3 134.7 665.4 139.1 665.1 142C664.8 144.7 664.5 148.2 667.3 149.7C668 150.1 668.9 149.9 669.4 149.2C671.3 146.2 672.4 142.7 672.3 139.2C672.3 136.8 672 133 669.5 131.8C663.2 128.8 663.9 143.2 664.5 146C664.8 147.6 667.7 146.8 667.3 144.9Z" fill="#161616"/>
<path d="M631.7 149C627.6 155.7 622.6 164.6 621.9 172.5C621.3 178.3 629.7 180.3 634.2 179.8C636.1 179.6 636.1 176.6 634.2 176.8C632.2 177 628.4 177.1 626.9 175.4C624.2 172.4 626.1 168.4 627.2 165.2C629.1 160 631.5 155.1 634.4 150.4C635.3 148.9 632.7 147.4 631.7 149Z" fill="#161616"/>
<path d="M625.9 160.8C625.5 161.5 625.1 162.2 624.7 162.9C624.3 163.6 624.5 164.5 625.2 165C625.9 165.4 626.9 165.2 627.3 164.5C627.7 163.8 628.1 163.1 628.5 162.4C628.9 161.7 628.7 160.8 628 160.3C627.2 159.9 626.3 160.1 625.9 160.8Z" fill="#161616"/>
<path d="M606.1 123C610.2 124.5 613.6 127.3 615.8 131.1C616.5 132.3 618.5 131.2 617.7 130C615.1 125.7 611.3 122.6 606.6 120.9C605.3 120.4 604.7 122.5 606.1 123Z" fill="#161616"/>
<path d="M658.7 134.1C661.2 129.4 665.3 126 670.4 124.5C671.8 124.1 671.2 121.9 669.8 122.3C664.2 124 659.5 127.8 656.7 133C656.1 134.3 658.1 135.4 658.7 134.1Z" fill="#161616"/>
<path d="M641.6 227.2C641.5 227.2 641.5 227.3 641.4 227.3C642 227.4 642.6 227.5 643.2 227.5C643.1 227.4 643.1 227.4 643 227.3C643 228 643 228.7 643 229.4C643.8 229.2 644.5 229.1 645.3 228.9C646.9 228.8 647.5 226.2 645.7 226C644.9 225.7 644.1 225.4 643.2 225.1C643.2 226 643.2 226.8 643.2 227.7C643.5 227.7 643.9 227.7 644.2 227.8C644.2 226.8 644.2 225.9 644.2 224.9C643.3 224.9 642.4 224.8 641.5 224.8C639.6 224.2 639 227 640.7 227.7C644.3 229.2 648.7 227.8 652.3 227C657.2 226 661.9 224.4 666.3 222C665.7 221.2 665.1 220.4 664.5 219.6C661.5 222.6 657.2 223.5 653.3 224.9C649.5 226.2 645.6 227.6 641.8 228.9C640 229.5 640.7 232.3 642.6 231.8C651.7 229.6 664.8 228.8 671.2 221.1C672.4 219.6 670.3 217.5 669.1 219C666 222.7 661.6 224.1 657.1 225.2C652 226.5 646.9 227.7 641.8 228.9C642.1 229.9 642.3 230.8 642.6 231.8C647.6 230 652.6 228.3 657.6 226.5C660.9 225.3 664 224.2 666.6 221.7C667.8 220.5 666.3 218.5 664.8 219.3C661.1 221.3 657.3 222.7 653.2 223.6C649.8 224.4 644.8 226 641.5 224.7C641.2 225.7 641 226.6 640.7 227.6C642.3 228.1 643.4 228.1 645 227.7C646.5 227.3 646.3 225.3 645 224.8C643.5 224.2 643.2 224.3 641.7 225C640.6 225.5 640.8 227 641.7 227.6C643.3 228.6 643 228.5 644.9 228.8C645 227.8 645.2 226.8 645.3 225.9C643.7 226 642.1 226.1 640.9 227.3C640.3 227.9 640.4 228.8 640.9 229.4C641 229.5 641 229.5 641.1 229.6C641.5 230.1 642.4 230.1 642.9 229.8C643 229.8 643 229.7 643.1 229.7C644.8 229 643.3 226.4 641.6 227.2Z" fill="#161616"/>
<path d="M673.8 216.8C671.1 217.7 668.6 219 666.4 220.8C664.9 222 667 224.1 668.5 222.9C670.3 221.4 672.3 220.3 674.5 219.6C676.4 219.1 675.6 216.2 673.8 216.8Z" fill="#161616"/>
<path d="M629.3 196.3C639.6 197.1 649.9 188.4 655.6 180.5C656.4 179.3 654.5 178.2 653.7 179.4C648.5 186.6 638.8 194.8 629.4 194C627.9 193.9 627.9 196.2 629.3 196.3Z" fill="#161616"/>
<path opacity="0.09" d="M661.2 99.7C663.1 102.3 688.4 137.3 673.4 177.8C661.9 208.8 634.8 221.4 629.5 223.7C634.3 224.3 661.2 227 684 208C700.3 194.4 705.5 177.1 707.1 170.7C715.5 172.6 724.1 169.9 729.1 163.6C734.3 157.1 733.4 149.5 733 147.1C732.2 142.5 729 131.9 721.2 131.4C715.9 131.1 710.3 135.5 707.9 142.4C711.8 133.8 711 127.7 710.3 124.7C706.6 109.9 686.8 98.4 661.2 99.7Z" fill="#666666"/>
<path opacity="0.26" d="M631.3 149C630.1 148.2 611.2 164.4 617.1 174.3C619.7 178.7 626.3 180.6 633.4 180.1C629.5 180.1 625.4 179.3 623.3 176.4C617.4 168.2 632.5 149.8 631.3 149Z" fill="#666666"/>
<path opacity="0.23" d="M708 165.3C706.6 164.7 701.7 175.7 689.6 191.1C679 204.7 671.4 210.7 669.2 212.4C662.6 217.6 656.4 221 652.1 223.1C654.7 224.8 658.9 228 662.1 233.4C667.6 242.8 666.5 252.2 666 255C671.1 252.5 676.1 250 681.2 247.6C679.3 237 677.3 226.5 675.4 215.9C681.4 212.1 686 208.3 689.6 204.9C692.1 202.6 693.8 201 695.7 198.4C698.1 195.3 700.1 191.6 703.5 181.9C706.7 172.7 709.1 165.8 708 165.3Z" fill="#666666"/>
<path d="M581.6 119.5C581.7 124.5 587.6 132.4 594.3 133.5C601.6 134.7 605.9 127.5 619 119.2C630.4 112 638.4 106.9 647.6 107.2C666.1 107.7 669.2 127.2 691.5 131.3C692.6 131.5 713.5 135 725.6 122.2C736.5 110.7 737.1 89.7 726.3 70.8C606.4 93 581.3 108.9 581.6 119.5Z" fill="#161616" stroke="#161616"/>
<path d="M745.1 136.5C739.2 127.9 733.3 119.4 727.4 110.8C729.1 105.7 730.9 100.6 732.6 95.5C738.9 101.1 745.2 106.7 751.5 112.4C749.4 120.4 747.2 128.5 745.1 136.5Z" fill="#161616" stroke="#161616"/>
<path d="M588.9 73.2C576.8 86.4 573.1 102.3 579 113.4C579.8 114.9 583.7 122.2 591.7 124.4C609.9 129.4 621.2 100.2 646.2 101.3C656.4 101.8 666.9 107.2 670.4 109C680.9 114.5 685.4 120.1 695.4 121C695.7 121 703.3 121.6 709.7 118.8C722.7 113.1 730 93.5 727.2 70.5C710.7 64.5 682 56.6 646.2 59.5C622 61.4 602.5 67.6 588.9 73.2Z" fill="white" stroke="#161616" stroke-width="2"/>
<path d="M611 108.7C621.8 93.2 633.9 78.7 647.2 65.2C648.6 63.8 646.4 61.7 645.1 63.1C631.6 76.7 619.4 91.5 608.4 107.2C607.3 108.8 609.9 110.3 611 108.7Z" fill="#161616"/>
<path d="M640.6 99.1C645.7 92.5 650.8 86 656 79.4C657.2 77.9 655.1 75.8 653.9 77.3C648.8 83.9 643.7 90.4 638.5 97C637.3 98.5 639.4 100.7 640.6 99.1Z" fill="#161616"/>
<path opacity="0.23" d="M618.7 65.1001C639 69.0001 659.3 72.9001 679.6 76.8001C688.2 87.1001 694.9 98.0001 691.3 105C688.2 111.1 679.1 111 679.2 113.5C679.4 117.5 703.1 125.8 715.1 115.5C727 105.3 722.9 80.7001 711.1 68.7001C700.8 58.3001 685.8 58.7001 660.7 59.4001C643.1 59.9001 628.7 62.6001 618.7 65.1001Z" fill="#666666"/>
<path d="M690.9 123.8C690.5 125.2 695.6 128.1 700.7 129.7C706.8 131.6 711.4 131.1 717.2 130.9C722.2 130.7 729.3 130.7 738.1 131.6C743.5 135 751.4 140.6 759.8 148.7C775.7 164 777.4 172.8 788.2 175.7C801.5 179.3 818.2 171.1 818.6 164.2C818.8 160.7 814.9 157.9 813 156.5C803 149.1 788.6 136.1 766.6 111.8C764.3 102.4 762 94.9 760.2 89.8C757.7 82.7 756.7 80.9 755 74.8C752.2 64.8 753.3 63.5 751.1 57.8C747.4 48.5 740.2 41.3 738.9 42.1C738.1 42.5 738.6 45.8 744.3 58.3C743.9 67.7 742.8 70.5 741.5 70.7C737.5 71.3 735 45 721.4 41.2C713.3 38.9 703.1 45.3 703.5 47.9C703.9 50.2 712.7 50.6 720 50.7C720.7 54.2 721.3 57.7 722 61.2C721.1 60.7 719.9 60.1 718.5 59.5C703.1 53 685.5 56.3 685.3 59.1C685.2 60.5 689.4 62.7 705.3 66.2C706.8 66.9 709.5 68.3 711.7 71.2C715.4 76.1 715.1 81.5 715 83C694.3 78.8 683.6 77.8 682.9 79.8C682.4 81.4 688.1 85 699.9 90.4C705.2 94.4 710.4 98.5 715.7 102.5C716.5 106.2 717.3 109.9 718 113.6C715.9 116 712.6 119.1 707.9 121C699.2 124.4 691.3 122 690.9 123.8Z" fill="white" stroke="#161616" stroke-width="2"/>
<path d="M718.2 60.4C723.2 61.5 726.9 67.1 729.8 71C730.4 71.8 731.7 71 731.1 70.2C727.9 65.9 724.2 60.2 718.6 59C717.7 58.7 717.3 60.2 718.2 60.4Z" fill="#161616"/>
<path d="M707.5 230.1C719.8 227.9 734.3 226.1 750.7 225.7C766.6 225.4 780.8 226.4 792.8 228.1C788.4 225.5 787.4 220.9 789 218.8C790.1 217.3 792.9 216.9 795.6 217.7C791.6 205.6 787.5 193.4 783 181.1C781.4 176.8 779.9 172.5 778.3 168.2C794.1 163.6 809.9 158.9 825.7 154.3C833.4 173.3 841.7 200 844.7 232.7C846.8 255.7 845.8 275.9 843.8 292.2C834.2 298.2 818.8 306 798.4 309.7C785.6 312 774.3 312 765.6 311.3C764.4 321.7 763.2 332.1 762 342.5" fill="white"/>
<path d="M707.5 230.1C719.8 227.9 734.3 226.1 750.7 225.7C766.6 225.4 780.8 226.4 792.8 228.1C788.4 225.5 787.4 220.9 789 218.8C790.1 217.3 792.9 216.9 795.6 217.7C791.6 205.6 787.5 193.4 783 181.1C781.4 176.8 779.9 172.5 778.3 168.2C794.1 163.6 809.9 158.9 825.7 154.3C833.4 173.3 841.7 200 844.7 232.7C846.8 255.7 845.8 275.9 843.8 292.2C834.2 298.2 818.8 306 798.4 309.7C785.6 312 774.3 312 765.6 311.3C764.4 321.7 763.2 332.1 762 342.5" stroke="#161616" stroke-width="2"/>
<path opacity="0.16" d="M729.3 68.2001C728.5 68.8001 724.3 61.2001 715.5 57.6001C708.3 54.7001 700 55.1001 699.5 57.0001C699 59.1001 708.9 63.0001 714.2 65.7001C737.8 77.5001 738.5 97.9001 765.8 136.4C773.3 147 779.8 155.3 785.4 162.1C799.5 179 802.2 178.7 808.6 188.4C819.7 205.1 822.5 221.7 823.8 229.7C825.7 241.4 827.9 255 823.4 268.3C812.7 300.3 770.7 309.7 766 310.7C775.9 311.7 791.7 312.1 810 306.8C824.6 302.6 835.7 296.4 843.2 291.4C846.7 270.2 849.1 238.6 841.3 201.9C837.3 183.3 831.6 167.5 825.8 154.6C821.7 155.6 817.6 156.6 813.5 157.6C811.5 156 808.6 153.6 805.2 150.6C796.5 143 794.5 140.4 783.3 129.5C771.1 117.7 769.8 117.2 767.4 112.9C765.3 109.1 765.7 108.3 761.9 95.0001C757.1 78.3001 756.9 81.1001 754.3 71.1001C751.4 59.9001 751.2 55.1001 746.5 48.9001C743.2 44.6001 739.2 41.8001 738.4 42.4001C737.5 43.2001 742.8 48.7001 743.7 57.5001C744.3 63.2001 743 70.0001 740.9 70.3001C736.7 70.9001 735 44.9001 721.8 41.1001C713.8 38.8001 703.7 45.2001 704.2 47.6001C704.6 49.7001 713 50.0001 720.3 49.9001C728.4 63.9001 729.9 67.8001 729.3 68.2001Z" fill="#666666"/>
<path opacity="0.21" d="M824.6 183.7C826.7 203.4 830.1 217.5 830.8 220.7C834.2 236.5 831.6 262.3 804.6 305.9C809.7 305.4 816.4 304.3 823.9 301.7C831.9 298.8 838.1 295.1 842.4 292.1C844 282.6 845.5 269.5 845.5 253.9C845.5 200.1 826.9 154.1 823.5 154.8C821.6 155.2 823.2 170.5 824.6 183.7Z" fill="#666666"/>
<path opacity="0.4" d="M798.4 157.5C804.9 155.1 810.5 156.2 812.7 156.7C804.6 159.3 796.5 161.8 788.4 164.4C789.9 162.7 793.1 159.4 798.4 157.5Z" fill="#666666"/>
</svg>
