<svg width="1381" height="1087" viewBox="0 0 1381 1087" fill="none" xmlns="http://www.w3.org/2000/svg">
<path d="M354.2 401.9C359.8 412.1 359.9 424.2 354.5 434.5C353.6 436.2 356.2 437.7 357.1 436C363 424.7 362.9 411.5 356.8 400.4C355.8 398.6 353.3 400.2 354.2 401.9Z" fill="#161616"/>
<path d="M357.9 402.4C361.3 400.7 365.3 398.6 369.2 399.5C375 400.7 375.2 405.4 375.6 410.2C376 416.6 375.7 423.4 371.5 428.6C370.3 430.1 372.4 432.2 373.6 430.7C379.4 423.6 380.1 412.5 377.9 403.8C375.1 393.3 363.7 396.2 356.5 399.8C354.7 400.6 356.2 403.2 357.9 402.4Z" fill="#161616"/>
<path d="M357.9 436.6C363.5 437.3 369.1 435.1 372.8 430.8C374 429.3 371.9 427.2 370.7 428.7C367.5 432.5 362.9 434.3 357.9 433.7C356 433.4 356 436.4 357.9 436.6Z" fill="#161616"/>
<path d="M357 270.2C358.3 267.7 361.9 260.9 365.9 267.2C366.6 268.2 366.6 271 366.8 272C367.2 274.1 367.9 276.3 369.4 277.9C374.4 283.1 377.9 274.6 383.1 277.4C389.7 280.9 381.1 288.3 386.5 292.4C387.8 293.4 389.3 293.4 390.8 292.8C391.8 292.4 392.6 291.5 393.6 291C397.3 289.4 398.6 292.7 398.9 295.6C399 296.5 399.5 297 400.4 297.1C401.5 297.2 402.5 297.3 403.6 297.4C405.5 297.6 405.5 294.6 403.6 294.4C402.5 294.3 401.5 294.2 400.4 294.1C400.9 294.6 401.4 295.1 401.9 295.6C401.6 292.9 401.1 289.4 398.6 287.8C395.9 286 394.1 287.6 391.6 288.8C390.4 289.4 389.4 291.4 387.7 289C387.1 288.1 388.4 285.3 388.6 284.3C389 282.7 389.2 281.3 388.7 279.7C387.9 277.2 385.7 275.1 383.2 274.3C380.1 273.2 378.6 274.5 375.8 275.3C373.3 276 370.8 275.8 369.9 273.1C369.6 272.1 369.5 270.9 369.4 269.9C369.1 268.3 368.9 266.6 368.1 265.1C364 257.6 356.9 263.9 354.4 269C353.5 270.4 356.1 271.9 357 270.2Z" fill="#161616"/>
<path d="M376.4 260.9C378.8 258.6 381 257.6 383.6 259.8C385.7 261.6 385.3 262.2 385.9 264.6C386.3 266 386.7 267.3 387.9 268.3C389.4 269.6 391.1 269.6 393 269.4C394.8 269.2 396.9 268 398.4 269.9C399.1 270.8 399 272.8 399 273.9C399.1 276.9 399.1 280.5 402.5 281.6C403.5 281.9 404.6 281.4 405.5 281.7C406.7 281.2 407.2 281.5 407.3 282.8C407.7 283.6 407.9 284.4 407.8 285.4C408.3 287.7 409.2 289.4 411 291C412.4 292.3 414.5 290.2 413.1 288.9C410.1 286.1 412.2 282.2 409.7 279.7C407.1 277.1 403 280.9 402.1 276.1C401.4 272.4 402.8 267.4 397.9 266.1C394.4 265.2 390.7 268.7 388.8 263.9C388 261.9 388.3 259.7 386.9 257.8C383.6 253.5 377.5 255.7 374.2 258.8C372.8 260.1 375 262.3 376.4 260.9Z" fill="#161616"/>
<path d="M744.8 446.8C741.8 446.5 746.3 440.6 747.2 440.1C749.6 438.8 752.4 439.5 754.2 441.4C758.1 445.6 754.8 451.8 749.5 452.4C747.6 452.6 747.6 455.6 749.5 455.4C753.9 454.9 757.8 452 758.8 447.6C759.8 443.3 757.2 438.7 753.2 437C749.3 435.4 745 436.9 742.7 440.4C740.7 443.4 740.2 449.4 744.9 449.8C746.7 450 746.7 447 744.8 446.8Z" fill="#161616"/>
<path d="M724.6 440.7C722.5 438.8 725 435 727.4 437.1C729.9 439.2 726.5 442.1 724.2 440.4C722.7 439.2 721.2 441.8 722.7 443C724.8 444.6 728 444.1 729.9 442.2C732.1 440 731.6 436.6 729.3 434.7C727 432.8 723.7 432.9 721.9 435.4C720.3 437.6 720.5 440.8 722.5 442.7C723.9 444.1 726.1 442 724.6 440.7Z" fill="#161616"/>
<path d="M1071.5 312.2C1072.5 330.8 1063.2 348.7 1047.5 358.7C1045.9 359.7 1047.4 362.3 1049 361.3C1065.6 350.8 1075.5 331.9 1074.5 312.2C1074.4 310.3 1071.4 310.3 1071.5 312.2Z" fill="#161616"/>
<path d="M1073.5 314.4C1083.1 321.4 1079.2 334.1 1073.9 342.4C1068.9 350.3 1060.8 359.7 1050.4 358.1C1048.5 357.8 1047.7 360.7 1049.6 361C1062.1 362.8 1071.6 352.3 1077.4 342.5C1083.2 332.8 1085.4 319.4 1075 311.8C1073.4 310.7 1071.9 313.3 1073.5 314.4Z" fill="#161616"/>
<path d="M231.7 225.4C238 235.8 241.8 247.3 242.7 259.4C242.9 261.3 245.9 261.3 245.7 259.4C244.7 246.7 240.9 234.8 234.3 223.9C233.2 222.2 230.6 223.7 231.7 225.4Z" fill="#E8E8E8"/>
<path d="M243.9 222.1C249.1 231.5 252 241.7 252.7 252.4C252.8 254.3 255.8 254.3 255.7 252.4C255 241.2 251.9 230.5 246.5 220.6C245.6 218.9 243 220.4 243.9 222.1Z" fill="#E8E8E8"/>
<path d="M230.9 244.6C239.6 238.9 249.4 235.9 259.9 235.7C261.8 235.7 261.8 232.7 259.9 232.7C249 232.9 238.6 236.1 229.4 242.1C227.8 243.1 229.3 245.7 230.9 244.6Z" fill="#E8E8E8"/>
<path d="M230.6 256.8C241.5 250.2 253.4 246 266 244.1C267.9 243.8 267.1 240.9 265.2 241.2C252.3 243.1 240.2 247.5 229.1 254.2C227.5 255.2 229 257.8 230.6 256.8Z" fill="#E8E8E8"/>
<path d="M817.8 306.1C813.2 308.4 811.4 314.4 815.3 318.3C817.4 320.4 819.2 319.8 821.7 320.6C823.3 321.1 825.1 322.1 824.8 323.7C824.6 324.8 823.5 325.7 822.9 326.6C821.9 327.9 820.7 329.4 820.3 331C819.9 332.9 820.4 334.8 821.9 336.1C824.1 338 827 336.8 829.4 338C834.4 340.4 825.3 350.9 833 352.9C834.9 353.4 835.7 350.5 833.8 350C830.6 349.2 834.6 343.1 834.9 341.2C835.1 339.5 834.8 337.8 833.5 336.6C830.1 333.3 820.1 336.8 825.2 328.4C826.8 325.8 829.7 322.6 827.8 319.2C827.2 318.1 826.2 317.5 825 317.2C823.8 317 821.9 317.2 820.7 317.1C815.4 316.8 814.8 310.9 819.3 308.6C821 307.9 819.5 305.3 817.8 306.1Z" fill="#E8E8E8"/>
<path d="M840 322.9C836.7 324.2 836.6 327.8 838.6 330.5C839.9 332.4 842 332.8 843.7 334.1C847.9 337.2 844.2 339.8 843.5 343.4C842.3 349.6 848.9 347.5 850.8 351.5C852.4 354.8 851.8 358.5 855.9 360C857.7 360.7 858.5 357.8 856.7 357.1C853.8 356.1 854.2 350.6 852.6 348.4C852.1 347.6 851.4 347.1 850.7 346.5C850.3 346.2 849.7 346.3 849.4 346.1C848.7 346 848.2 345.5 848 344.5C846.6 343.6 846.4 342.7 847.6 341.7C848.5 338.9 850.3 337.2 848.4 334.3C847.7 333.2 846.4 332.4 845.3 331.7C844.4 331.1 837.9 327.1 840.9 325.9C842.6 325.1 841.8 322.2 840 322.9Z" fill="#E8E8E8"/>
<path d="M1033.2 524.8C1025.9 519.6 1027.1 508.7 1035 504.7C1041 501.7 1049.2 504.5 1052.3 510.4C1055.4 516.3 1052.7 524.6 1046.8 527.7C1040.6 530.9 1032.9 528.1 1029.4 522.4C1028.4 520.8 1025.8 522.3 1026.8 523.9C1031.3 531.4 1041.7 534.7 1049.4 529.7C1056.7 524.9 1059 513.8 1053.6 506.8C1048.3 500 1037.7 498.4 1031 503.9C1023.2 510.2 1023.8 521.7 1031.8 527.5C1033.3 528.5 1034.8 525.9 1033.2 524.8Z" fill="#E8E8E8"/>
<path d="M343 553.6C344.1 550 345.7 549 347.6 550.7C348.1 550.9 348.6 551.2 349 551.4C349.7 551.6 350.6 551.8 351.3 551.7C352.8 551.5 354 550.6 354.7 549.4C357.2 545.4 354.4 541.5 351.9 538.4C350.6 536.9 348.2 534.9 348.5 532.6C348.9 528.2 351.5 530 353.7 529.7C355.3 529.5 356.7 528.9 357.5 527.4C358.3 526.1 358.1 524.4 357.9 523C357.8 522.2 357.5 521.3 357.5 520.5C356.8 518.4 357.8 517.1 360.5 516.6C361.8 517.5 362.9 518.6 363.8 520C364.9 521.6 367.5 520.1 366.4 518.5C363.7 514.7 355.7 509.5 354.4 517.4C353.8 521.4 357.5 525.6 351.6 526.6C348.7 527.1 346.7 527.1 345.8 530.5C345 533.3 346.1 536 347.8 538.2C348.6 539.2 349.5 540.1 350.3 541C351.3 542 352 543.1 352.5 544.4C351.3 545.6 350.2 546.8 349 548C348.1 548.2 345.8 546.3 344.5 546.2C338.7 545.8 335.6 553.6 341.4 556.1C343.3 556.9 344.8 554.3 343 553.6Z" fill="#E8E8E8"/>
<path d="M367.4 549.3C365.8 546.7 363.3 542.7 364.4 539.4C365.2 536.9 368.6 535.8 370.1 533.8C372.4 530.7 372.1 526.6 370 523.5C369.6 524.3 369.1 525 368.7 525.8C374.4 526.2 379.2 522.8 380.9 517.3C381.5 515.4 378.6 514.7 378 516.5C376.7 520.7 373.1 523.1 368.7 522.8C367.6 522.7 366.8 524.1 367.4 525.1C368.7 527 369.2 529.7 367.9 531.8C366.7 533.6 365.1 533.7 363.8 535C362.6 536.2 361.8 537.4 361.5 539.2C360.7 543.3 362.9 547.4 364.9 550.8C365.8 552.5 368.4 551 367.4 549.3Z" fill="#E8E8E8"/>
<path d="M672.8 32.5999C678.1 38.6999 681.4 45.7999 682.8 53.6999C683.1 55.5999 686 54.7999 685.7 52.8999C684.2 44.4999 680.5 36.8999 674.9 30.3999C673.6 28.9999 671.5 31.0999 672.8 32.5999Z" fill="#E8E8E8"/>
<path d="M675.4 32.9C678.8 29.8 692.4 17.6 697.4 21.1C699.9 22.9 702.1 27 703.7 29.7C705.7 33.1 707.3 36.7 708.6 40.4C709.2 42.2 712.1 41.4 711.5 39.6C709.8 34.9 707.7 30.3 705 26.1C703.3 23.4 700.7 18.8 697.6 17.5C694.1 16 689.8 19.1 686.9 20.8C682 23.6 677.5 27 673.3 30.8C671.9 32.1 674 34.2 675.4 32.9Z" fill="#E8E8E8"/>
<path d="M686 55.6001C693.8 49.0001 702.3 43.6001 711.7 39.5001C713.5 38.7001 711.9 36.1001 710.2 36.9001C700.6 41.1001 691.9 46.7001 683.9 53.5001C682.4 54.7001 684.5 56.8001 686 55.6001Z" fill="#E8E8E8"/>
<path d="M703.4 27.4C707.2 24.2 715.7 16.1 720.4 21.4C723.8 25.2 726 31.4 728 36C728.8 37.8 731.4 36.2 730.6 34.5C728.7 30.2 726.7 26.1 724.3 22.1C723.1 20 721.6 16.8 719.1 15.9C716.2 14.9 713.1 17 710.8 18.4C707.4 20.4 704.3 22.7 701.3 25.2C699.8 26.6 702 28.7 703.4 27.4Z" fill="#E8E8E8"/>
<path d="M696 45.7001C700.7 47.8001 704.7 50.6001 708.4 54.2001C709.1 54.9001 710.2 54.7001 710.8 53.9001C715.2 47.6001 721 42.8001 728 39.5001C729.8 38.7001 728.2 36.1001 726.5 36.9001C719 40.4001 712.9 45.6001 708.2 52.3001C709 52.2001 709.8 52.1001 710.6 52.0001C706.8 48.2001 702.5 45.3001 697.6 43.1001C695.7 42.4001 694.2 44.9001 696 45.7001Z" fill="#E8E8E8"/>
<path d="M717.8 156.9C717.6 155.8 717.3 154.7 717.1 153.6C718 152.7 718.9 151.9 720 151.3C720.6 150.9 721.3 150.5 721.9 150C723.1 149 723.9 148 724.5 146.6C725.2 144.8 725 143.1 724.8 141.2C724.7 140.6 724.6 139.9 724.5 139.3C724.4 138.6 724.8 130.5 728 133.1C729.5 134.3 731.6 132.2 730.1 131C727.9 129.2 725.6 129.5 723.6 131.4C720.2 134.7 721.8 138.6 722 142.6C722.3 148.6 714.5 148.9 713.8 154.4C713.5 156.9 714.5 159.2 717.1 159.7C718.9 160.1 719.7 157.2 717.8 156.9Z" fill="#EC615B"/>
<path d="M728.8 148.6C731.2 150.5 734.6 149.1 735.1 146C735.6 143.3 733.8 140.8 734 138.1C734.3 134.4 736.8 131.2 740.2 129.9C742 129.2 741.2 126.3 739.4 127C736.1 128.2 733.5 130.4 732.1 133.7C731.4 135.2 731 136.9 731 138.6C731 139.4 731.1 140.2 731.2 140.9C731.2 140.9 732.7 147.8 731 146.4C729.4 145.3 727.3 147.4 728.8 148.6Z" fill="#EC615B"/>
<path d="M470.8 478.6C469 477.6 468.8 475.3 470.1 473.8C471.4 472.3 473.8 471.7 475.7 472C477.3 472.3 479.1 473.1 479.8 474.7C480.6 476.5 479.4 479.6 477 479.3C475.1 479 474.3 481.9 476.2 482.2C479.6 482.7 482.6 480.4 483.1 476.9C483.7 473.2 480.7 470.2 477.3 469.3C473.8 468.3 469.4 469.4 467.3 472.6C465.4 475.5 466.2 479.6 469.4 481.2C471 482.1 472.5 479.5 470.8 478.6Z" fill="#EC615B"/>
<path d="M312.8 124.7C313.4 122.7 314 120.6 314.5 118.6C315.1 118.8 315.7 119 316.3 119.2C317.1 119.3 317.9 119.8 318.7 120C319.8 120.3 321.1 120.4 322.2 120.1C324.8 119.2 325.6 116.7 325.6 114.2C325.6 111.7 324.7 109 326.7 107C328.3 105.4 331 104.8 333.1 105.3C340 106.9 339.3 115.6 336.3 120.3C335.3 121.9 337.9 123.4 338.9 121.8C342.2 116.5 343 108.5 337.6 104.2C333.6 101 326.8 101.6 323.7 105.8C321.6 108.6 323 111.1 322.4 114.3C321.4 119.6 313.9 114.7 310.5 115.9C304.1 118.2 306 126.3 311.7 127.8C313.8 128.1 314.6 125.2 312.8 124.7Z" fill="#EC615B"/>
<path d="M963.2 563.3C965.3 561.7 967.6 561.6 970.1 562.9C971.2 563.5 972.7 562.5 972.3 561.2C971.4 559.4 971.6 557.8 973.1 556.4C973.8 553.3 975.4 553.1 977.8 555.7C978.5 557.1 980.5 556.3 980.6 554.9C980.6 553.6 980.7 552.2 980.9 550.9C981.2 547.7 983.3 546.9 987 548.4C987.8 550.2 990.3 548.6 989.6 546.9C988.4 544.1 985.2 543.2 982.4 544.3C978.2 546 977.7 551 977.6 554.9C978.5 554.6 979.5 554.4 980.4 554.1C979 551.1 975.4 550 972.4 551.5C968.6 553.5 968.4 558.2 969.4 561.9C970.1 561.3 970.9 560.8 971.6 560.2C968.2 558.5 965 558.6 961.7 560.6C960.1 561.7 961.6 564.3 963.2 563.3Z" fill="#EC615B"/>
<path d="M885.5 149C880.1 150.6 876.3 155.2 875.6 160.9C874.9 166.3 878.1 173 884.1 173.6C888.5 174 892.9 169 890.2 164.9C887.3 160.4 881.7 163.7 879.4 166.9C872.9 176.2 878.7 194.4 892.1 190.1C895.8 188.9 900.4 184.4 898.3 180.1C895.7 174.8 889.9 180.5 888.4 183.5C885.3 189.7 884.5 198.6 890.9 203C895.9 206.4 902.8 204.2 904.4 198.3C904.8 197 902.9 195.6 901.9 196.8C895 205.5 900.3 217.5 911.5 217.9C913.4 218 913.4 215 911.5 214.9C903.1 214.6 898.7 205.6 904 199C903.2 198.5 902.3 198 901.5 197.5C900 203.2 893 202.3 890.3 198.1C887.9 194.2 888.7 188.9 890.9 185C891.4 184 894.1 179.3 895.7 182.3C896.5 183.9 893.5 186.2 892.5 186.8C889.4 188.5 885.3 188 882.9 185.4C880.4 182.8 879.6 178.8 879.9 175.3C880.1 173.4 880.5 171.2 881.4 169.6C881.8 169 882.3 168.4 882.7 167.8C885.2 165.4 885.1 166.1 882.3 170C880.3 170.2 878.6 164.7 878.5 163.4C878.4 162.1 878.6 160.8 878.9 159.6C879.9 155.9 882.6 153.1 886.3 152C888.2 151.4 887.4 148.5 885.5 149Z" fill="#EC615B"/>
<path d="M347.5 210.1C346.7 207.7 347.1 205.4 348.9 203.5C350.9 201.4 353.3 201.7 355.8 202.1C357.6 202.4 359 202.6 360.7 201.6C362 200.8 362.9 199.3 363.5 198C363.9 197 364.2 196 364.4 195C364.5 194.3 364.7 193.6 364.8 193C365 190.6 366.7 189.6 369.8 190C369.7 191.8 372.2 191.9 372.7 190.4C373.5 188.1 374.5 185.7 376.6 184.3C379.7 182.2 384.1 182.6 384.7 186.9C385 188.8 387.8 188 387.6 186.1C387 182 383.1 179.4 379 180C374 180.7 371.3 185.4 369.9 189.7C370.9 189.8 371.9 190 372.8 190.1C373 187.1 370.2 185.2 367.3 185.6C362.6 186.2 362.4 191.5 361.4 195C360.7 197.5 360.1 199.4 356.6 199.3C355.6 199.3 354.4 198.6 353.3 198.6C351.4 198.6 349.5 199.3 348 200.4C344.7 202.9 343.3 207.1 344.6 211C345.2 212.7 348.1 212 347.5 210.1Z" fill="#5222D0"/>
<ellipse cx="907.3" cy="293.2" rx="13" ry="13.9" fill="#5222D0"/>
<ellipse cx="204.1" cy="301.7" rx="8.6" ry="8.5" fill="#5222D0"/>
<ellipse cx="331.4" cy="664.4" rx="7.2" ry="7.8" fill="#5222D0"/>
<ellipse cx="892.2" cy="310.1" rx="15.1" ry="14.3" fill="#EC615B"/>
<ellipse cx="593.3" cy="8.6" rx="7.7" ry="8.6" fill="#EC615B"/>
<ellipse cx="1015.9" cy="463.6" rx="10.8" ry="12" fill="#EC615B"/>
<ellipse cx="173.9" cy="391.5" rx="21.6" ry="22.1" fill="#EC615B"/>
<path d="M324.4 980.1C305 950.9 279 919.1 282.4 881.9C281.9 882.4 281.4 882.9 280.9 883.4C283.9 883.3 286.5 883.8 289.3 885C290.4 885.5 292 884.7 291.5 883.3C290.5 880.5 288.7 878.9 286.7 876.8C283 872.9 282.7 868.9 282.9 863.8C283.2 855.7 281.8 848.3 278.4 840.9C278.1 841.6 277.8 842.4 277.5 843.1C280.1 842.2 282.7 841.3 285.3 840.4C286 840.1 286.6 839.4 286.3 838.6C279.9 820 283.1 799.1 284.5 780C286 759.6 288 739.3 290.4 719C289.6 719.4 288.9 719.9 288.1 720.3C301.5 728.9 308.7 743.6 314.3 757.9C320.7 774.2 326.2 790.8 330.8 807.7C340.4 842.5 346.2 878.4 348.2 914.5C349.3 934.6 349.2 954.8 347.9 974.9C347.8 976.8 350.8 976.8 350.9 974.9C355.6 900.9 344.3 825.4 316.9 756.4C311 741.5 303.4 726.6 289.6 717.7C288.5 717 287.5 717.9 287.3 719C284.8 740 282.8 761 281.3 782C279.9 800.9 277.1 821.1 283.3 839.4C283.6 838.8 284 838.2 284.3 837.6C281.7 838.5 279.1 839.4 276.5 840.3C275.5 840.6 275.2 841.6 275.6 842.5C277.6 846.9 279.1 851.5 279.6 856.4C280 860.5 279.4 864.5 279.7 868.6C279.9 871.4 280.4 874 282.1 876.4C284.1 879.2 287.3 881 288.5 884.3C289.2 883.7 290 883.2 290.7 882.6C287.5 881.2 284.3 880.5 280.8 880.6C279.9 880.6 279.4 881.3 279.3 882.1C275.9 919.9 302.1 952.2 321.8 981.8C322.9 983.2 325.5 981.7 324.4 980.1Z" fill="#E8E8E8"/>
<path d="M290.5 726C313.3 787.2 327 851.7 330.9 916.9C332 935.3 332.3 953.8 331.9 972.3C331.9 974.2 334.9 974.2 334.9 972.3C336.4 907.1 328.3 841.7 310.8 778.8C305.8 760.7 299.9 742.8 293.4 725.2C292.8 723.4 289.9 724.2 290.5 726Z" fill="#E8E8E8"/>
<path d="M282.4 789.2C297.2 798.4 309.3 811.1 317.8 826.4C318.7 828.1 321.3 826.6 320.4 824.9C311.7 809.2 299.2 796.1 283.9 786.6C282.3 785.6 280.8 788.2 282.4 789.2Z" fill="#E8E8E8"/>
<path d="M285.4 752.3C293.8 758.6 300.6 766.4 305.9 775.4C306.9 777.1 309.5 775.6 308.5 773.9C302.9 764.4 295.7 756.3 286.9 749.7C285.4 748.6 283.9 751.2 285.4 752.3Z" fill="#E8E8E8"/>
<path d="M329.4 871.4C331.2 859 334.7 846.9 339.9 835.5C340.7 833.8 338.1 832.2 337.3 834C332 845.7 328.4 857.9 326.5 870.7C326.2 872.5 329.1 873.3 329.4 871.4Z" fill="#E8E8E8"/>
<path d="M336.6 814.6C345.8 784.1 361.7 756.5 377.6 729.1C376.7 729 375.8 728.9 374.9 728.7C383.1 768.7 389.9 808.9 395.1 849.4C395.6 848.9 396.1 848.4 396.6 847.9C393.1 847.7 389.6 847.5 386.1 847.3C384.9 847.2 384 849.1 385 849.9C391 854.5 390.4 862.5 389.7 869.3C388.8 878.3 387.8 887.2 386.8 896.2C387.4 895.7 388.1 895.2 388.7 894.8C386 894.2 383.4 894 380.6 894C379.5 894 378.7 895.3 379.3 896.3C387 909.5 375 923.3 369.4 934.7C363.8 946.2 360.2 958.6 358.4 971.3C358.1 973.2 361 974 361.3 972.1C363.4 956.7 368.4 942.1 376.1 928.6C381.9 918.4 388.6 906.3 381.9 894.8C381.5 895.6 381 896.3 380.6 897.1C383.1 897 385.5 897.2 387.9 897.8C388.9 898 389.7 897.4 389.8 896.4C390.9 886.1 392.5 875.8 393 865.5C393.3 859.1 392.4 852.2 387.1 848C386.7 848.9 386.4 849.7 386 850.6C389.5 850.8 393 851 396.5 851.2C397.2 851.2 398.1 850.5 398 849.7C392.7 809 385.9 768.4 377.6 728.2C377.3 726.9 375.5 726.8 374.9 727.8C358.9 755.4 342.9 783.3 333.6 814C333.2 815.6 336.1 816.4 336.6 814.6Z" fill="#E8E8E8"/>
<path d="M374.8 732.4C364.7 792 357.8 852.2 354.1 912.6C354 914.5 357 914.5 357.1 912.6C360.7 852.5 367.6 792.6 377.6 733.2C378 731.3 375.1 730.5 374.8 732.4Z" fill="#E8E8E8"/>
<path d="M344.5 792.9C348.6 806.8 353.4 820.4 358.8 833.8C359.5 835.6 362.4 834.8 361.7 833C356.3 819.6 351.6 805.9 347.4 792.1C346.8 790.2 343.9 791 344.5 792.9Z" fill="#E8E8E8"/>
<path d="M2.69996 851.9C37 840.6 74.6 833.2 110.8 835.1C129.6 836.1 147.5 841.9 165.3 847.3C182.6 852.5 199.9 857.9 217.3 862.9C236.9 868.5 256.7 873 277 874.4C278.9 874.5 278.9 871.5 277 871.4C239.6 869 203.5 855.8 167.9 845C151 839.9 134.2 834.2 116.5 832.5C98.3 830.8 79.8 832.5 61.8 835C41.4 837.9 21.3 842.6 1.79996 849C0.099964 849.6 0.899964 852.5 2.69996 851.9Z" fill="#E8E8E8"/>
<path d="M109.4 833.9C138.6 827.5 167.9 821.1 196.7 812.8C225 804.6 252.6 791.7 282.1 788.1C284 787.9 284 784.9 282.1 785.1C253 788.7 225.8 801.2 197.8 809.4C168.5 818 138.6 824.5 108.7 831.1C106.7 831.4 107.5 834.3 109.4 833.9Z" fill="#E8E8E8"/>
<path d="M325.4 781.3C333.4 780.8 341.5 780.7 349.5 781C351.4 781.1 351.4 778.1 349.5 778C341.4 777.7 333.4 777.8 325.4 778.3C323.5 778.5 323.5 781.5 325.4 781.3Z" fill="#E8E8E8"/>
<path d="M41.1 970.2C74.7 965.4 108 973.9 141 979.1C156.7 981.6 172.5 983.1 188.4 982.7C206.2 982.2 224 980.4 241.6 983.5C243.5 983.8 244.3 980.9 242.4 980.6C225.1 977.6 207.8 979.1 190.3 979.7C172.7 980.3 155.4 978.5 138.1 975.7C105.7 970.4 73.2 962.7 40.3 967.4C38.4 967.6 39.2 970.5 41.1 970.2Z" fill="#E8E8E8"/>
<path d="M240.9 1009.4C241.3 1006.3 253.2 1007.7 255.3 1007.7C257.9 1007.7 267.5 1006.2 268.8 1009C269 1008.3 269.2 1007.6 269.3 1006.9C264.4 1010.2 259 1011.6 253.1 1011.2C251.2 1011.1 251.2 1014.1 253.1 1014.2C259.5 1014.6 265.4 1013 270.8 1009.5C271.5 1009 271.7 1008.2 271.3 1007.4C270.4 1005.5 268.9 1005 266.9 1004.7C262.2 1004 257 1004.6 252.3 1004.6C247.8 1004.6 238.5 1002.9 237.8 1009.3C237.6 1011.3 240.7 1011.3 240.9 1009.4Z" fill="#E8E8E8"/>
<path d="M243.1 959.9C241.2 960.9 239.2 960.6 237.2 959C237.1 959.8 237 960.6 236.9 961.4C239.4 959.5 242.3 958.3 245.5 958.4C248.1 958.5 250.4 959.9 253 960C255.4 960.1 257.6 959.1 260 958.8C263.8 958.2 267.3 959 270.7 960.9C272.4 961.8 273.9 959.3 272.2 958.3C269.7 956.9 267.2 955.9 264.3 955.7C260.2 955.3 256.4 957.5 252.5 957C249.3 956.6 246.7 955.3 243.3 955.6C240.3 955.9 237.7 957.1 235.3 958.9C234.6 959.4 234.2 960.6 235 961.3C237.7 963.5 240.5 964.2 243.8 963C245.7 962.2 244.9 959.3 243.1 959.9Z" fill="#E8E8E8"/>
<path d="M91.5 1002.3C96.6 1008.6 103.4 1002.7 109.1 1001.5C113.8 1000.5 117.5 1003.3 122.1 1003.3C127 1003.3 132.3 1001 136.6 1004.1C138.2 1005.2 139.7 1002.6 138.1 1001.5C135.5 999.6 132.7 999.3 129.5 999.5C124.7 999.9 120.9 1000.5 116.1 999C112.8 997.9 110 997.9 106.7 999.1C102.7 1000.6 97 1004.6 93.4 1000.2C92.4 998.7 90.2 1000.9 91.5 1002.3Z" fill="#E8E8E8"/>
<path d="M414.5 982.3C421.1 979.7 426.4 980.5 433.3 981.3C437.6 981.8 440.6 980.3 444.4 978.6C448.4 976.8 451.1 977.7 454.7 979.7C456.2 980.5 457.6 981.2 459.3 981.5C464.4 982.5 471.3 979.1 475.6 982.8C477.1 984.1 479.2 981.9 477.7 980.7C473.9 977.5 469.8 978.2 465.1 978.6C461.2 978.9 458.2 978.2 454.9 976.3C452.9 975.2 451 974.2 448.7 974.2C446.6 974.2 444.7 975.1 442.8 975.9C438.3 977.9 435.6 978.5 430.6 977.7C424.7 976.8 419.3 977.1 413.7 979.3C411.9 980.1 412.7 983 414.5 982.3Z" fill="#E8E8E8"/>
<path d="M1072.6 821.7C1108.1 805.4 1143.8 789 1181.2 777.6C1218.9 766.2 1258.1 760.6 1297.5 761.5C1319.9 762 1342.3 764.6 1364.3 769.1C1366.2 769.5 1367 766.6 1365.1 766.2C1325.9 758.1 1285.6 756.3 1245.9 761C1206.5 765.6 1168.8 777.2 1132.1 792.1C1111.5 800.5 1091.2 809.8 1071 819.1C1069.4 819.9 1070.9 822.5 1072.6 821.7Z" fill="#E8E8E8"/>
<path d="M1235.1 825C1258.5 816.5 1282.5 809.9 1307 805.5C1319.6 803.2 1332.2 801.6 1345 800.4C1354.2 799.6 1371.3 795.7 1377.9 804.5C1379 806 1381.7 804.5 1380.5 803C1374.8 795.4 1364.9 796.1 1356.3 796.6C1342.7 797.4 1329 798.9 1315.5 801C1287.8 805.3 1260.6 812.5 1234.3 822.1C1232.5 822.8 1233.3 825.7 1235.1 825Z" fill="#E8E8E8"/>
<path d="M1072.7 760.8C1100.1 754.8 1128.8 758 1154.1 770.1C1155.8 770.9 1157.4 768.3 1155.6 767.5C1129.5 755.1 1100.1 751.7 1071.9 757.9C1070 758.3 1070.8 761.2 1072.7 760.8Z" fill="#E8E8E8"/>
<path d="M1133.8 898.4C1138.1 893.3 1144.9 899.1 1149.4 900.9C1153.1 902.4 1156 902 1159.6 900.4C1165.4 897.8 1170.1 900.1 1175.9 899.9C1181.9 899.7 1186.8 894 1192.3 899C1193.7 900.3 1195.9 898.2 1194.4 896.9C1190.8 893.7 1186.9 893.1 1182.4 894.7C1180.1 895.6 1178.4 896.7 1175.8 896.9C1173.8 897 1171.8 896.5 1169.8 896.3C1167.4 896 1165 895.6 1162.7 896C1158.9 896.7 1155.9 899.7 1151.7 898.6C1148.7 897.8 1146.2 895.7 1143.3 894.5C1139.2 892.9 1134.5 892.6 1131.5 896.2C1130.4 897.8 1132.5 899.9 1133.8 898.4Z" fill="#E8E8E8"/>
<path d="M1249.1 975.2C1242.7 954.8 1239.8 933.6 1240.6 912.2C1239.8 912.6 1239.1 913.1 1238.3 913.5C1240.5 914.6 1242.8 915.7 1245 916.8C1246.1 917.3 1247.2 916.7 1247.3 915.5C1248.7 894.9 1253.3 874.8 1260.8 855.5C1260.1 855.8 1259.3 856.1 1258.6 856.4C1259.8 857 1261 857.6 1262.3 858.3C1262.8 858.6 1263.7 858.6 1264.1 858.1C1271.9 848.3 1280.5 839.3 1290.1 831.2C1289.3 831.1 1288.5 831 1287.7 830.9C1294.8 840.8 1294.3 853.8 1293.8 865.4C1293.2 878.3 1291.5 891 1288.6 903.6C1282.9 928 1273 951.2 1259.3 972.2C1258.2 973.8 1260.8 975.3 1261.9 973.7C1276.4 951.6 1286.8 926.9 1292.3 901C1295 888.4 1296.6 875.6 1297 862.8C1297.3 851.4 1297.4 839 1290.4 829.3C1289.8 828.5 1288.8 828.3 1288 829C1278.4 837.1 1269.8 846 1262 855.9C1262.6 855.8 1263.2 855.7 1263.8 855.7C1262.6 855.1 1261.4 854.5 1260.1 853.8C1259.2 853.3 1258.3 853.8 1257.9 854.7C1250.3 874.2 1245.8 894.6 1244.3 915.5C1245.1 915.1 1245.8 914.6 1246.6 914.2C1244.4 913.1 1242.1 912 1239.9 910.9C1238.9 910.4 1237.7 911 1237.6 912.2C1236.8 933.8 1239.7 955.3 1246.2 975.9C1246.8 977.8 1249.7 977 1249.1 975.2Z" fill="#E8E8E8"/>
<path d="M1293.6 899.4C1300.4 884.8 1308.4 870.8 1317.4 857.5C1316.8 857.7 1316.3 858 1315.7 858.2C1321.5 859.7 1324.7 854.4 1327.7 850.4C1333.2 843 1340.1 837.1 1348.2 832.6C1347.5 832.3 1346.7 832 1346 831.7C1355.1 860.1 1349.3 889.5 1332.3 913.7C1324.3 925.1 1315.1 936 1305.7 946.3C1296.3 956.4 1286 965.5 1273.6 971.8C1271.9 972.7 1273.4 975.3 1275.1 974.4C1287.7 968 1298.3 958.7 1307.8 948.4C1317.8 937.5 1327.6 926 1335.9 913.8C1352.6 889.3 1358 859.4 1348.9 831C1348.6 830.1 1347.6 829.6 1346.7 830.1C1341.3 833.1 1336.3 836.7 1331.8 841.1C1329.8 843.1 1327.9 845.3 1326.1 847.6C1323.9 850.4 1321 856.5 1316.5 855.4C1315.8 855.2 1315.2 855.5 1314.8 856.1C1305.8 869.4 1297.8 883.4 1291 898C1290.2 899.6 1292.8 901.2 1293.6 899.4Z" fill="#E8E8E8"/>
<path d="M1279.5 848.7C1272.6 867.5 1264.2 886.4 1259.7 906C1255.1 926 1252.3 946.5 1248.9 966.7C1248.6 968.6 1251.5 969.4 1251.8 967.5C1255.3 947.3 1258 926.7 1262.6 906.8C1267.1 887.2 1275.5 868.4 1282.4 849.5C1283.1 847.7 1280.2 846.9 1279.5 848.7Z" fill="#E8E8E8"/>
<path d="M1332.2 863.6C1321.1 881.4 1310 899.2 1298.9 916.9C1288.8 933.1 1277.9 949 1270.9 966.8C1270.2 968.6 1273.1 969.4 1273.8 967.6C1281 949.5 1292.3 933.2 1302.6 916.7C1313.3 899.5 1324.1 882.3 1334.8 865C1335.8 863.4 1333.2 861.9 1332.2 863.6Z" fill="#E8E8E8"/>
<path d="M1253.1 867.3C1254.1 877.4 1256.5 887.1 1260.2 896.5C1260.9 898.3 1263.8 897.5 1263.1 895.7C1259.5 886.6 1257.1 877.1 1256.1 867.3C1255.9 865.4 1252.9 865.3 1253.1 867.3Z" fill="#E8E8E8"/>
<path d="M1261.3 915.4C1272.8 905.5 1283.4 894.7 1293.2 883.1C1294.4 881.6 1292.3 879.5 1291.1 881C1281.3 892.6 1270.7 903.4 1259.2 913.3C1257.7 914.6 1259.9 916.7 1261.3 915.4Z" fill="#E8E8E8"/>
<path d="M1307 867.9C1306.1 878 1306.3 888 1307.6 898C1307.8 899.9 1310.8 899.9 1310.6 898C1309.3 888 1309.1 877.9 1310 867.9C1310.2 865.9 1307.2 865.9 1307 867.9Z" fill="#E8E8E8"/>
<path d="M129.1 543.5C114.6 539.5 104.1 525.4 104.3 510.3C104.5 493.4 119.7 475.4 137.4 475.8C156 476.3 166 498.9 164.2 515.2C162.1 534.6 142.8 546.8 124.3 541.7C122.4 541.2 121.6 544.1 123.5 544.6C138.4 548.7 154.5 542.9 162.5 529.5C170.5 516 167.8 498.1 159.3 485.4C150.7 472.6 134.5 469.4 121.2 477.1C108.5 484.6 99.8 500.1 101.6 514.9C103.4 529.5 114.1 542.4 128.3 546.3C130.2 546.9 131 544 129.1 543.5Z" fill="#E8E8E8"/>
<path d="M98.9001 619.4C102 623 106.1 625.4 110.9 625.9C113.4 626.2 115.9 625.9 118.3 625C122.1 623.7 125.2 620.9 129.6 621.7C135.1 622.6 139.2 626.4 145 625.7C151.3 625 156.8 620.5 163.4 621C169.4 621.5 174.5 625.6 180.4 626.8C185.6 627.9 188.9 626 193.3 623.7C204.6 617.7 217.5 625.3 229.3 621.3C231.1 620.7 230.3 617.8 228.5 618.4C217.9 621.9 206.8 616.1 196.1 619.2C190.2 620.9 186.5 625.3 179.8 623.6C174.7 622.3 170.3 619.2 165.1 618.3C160.2 617.4 155.9 619.1 151.4 620.8C148.8 621.8 146 622.9 143.1 622.9C139.5 622.9 136.5 620.9 133.3 619.7C128.7 618 125.3 618.6 120.9 620.6C113.7 623.9 106.4 623.8 101 617.3C99.8001 615.8 97.6001 617.9 98.9001 619.4Z" fill="#E8E8E8"/>
<path d="M176.2 593.3C184.1 597.7 193.2 591.2 201 595.3C204.1 596.9 206.1 599.5 209.9 599C213 598.6 215.4 596.2 217.8 594.4C223.2 590.2 227.6 591.2 233.5 593.6C237.9 595.4 242.1 596.5 246.8 596.4C257.4 596.2 267.9 591.6 278.4 595.1C280.2 595.7 281 592.8 279.2 592.2C270.2 589.2 261.2 591.8 252.1 592.9C246.7 593.6 241.6 593.5 236.5 591.5C232.3 589.9 228.1 587.5 223.4 588.1C220.3 588.5 218 590.3 215.6 592.2C213.6 593.8 211.7 595.8 209 595.8C206.3 595.9 204.7 593.8 202.4 592.6C194.6 588.3 185.3 594.9 177.6 590.6C176 589.7 174.5 592.3 176.2 593.3Z" fill="#E8E8E8"/>
<path d="M1063.5 530.9C1069.5 529.3 1073.8 529.3 1079.1 532.8C1081.7 534.5 1084.4 535.8 1087.5 536.4C1093 537.4 1098.7 536.1 1104 534.7C1110.5 532.9 1117.1 530.5 1123.9 530.5C1131.1 530.5 1137 535.5 1144.3 534.9C1157.9 533.7 1166.4 520.2 1181 521.8C1193.7 523.2 1206.3 531.2 1218.8 525.1C1220.5 524.3 1219 521.7 1217.3 522.5C1204.3 528.8 1190.2 518.2 1176.8 518.7C1170.7 518.9 1165.5 521.5 1160.3 524.5C1154 528.3 1147.1 533.5 1139.2 531.6C1135.6 530.8 1132.5 528.8 1128.9 528C1126.1 527.4 1123.3 527.4 1120.5 527.7C1114.3 528.3 1108.4 530.4 1102.5 532C1095.6 533.8 1088.4 535.1 1081.9 531.2C1079.2 529.5 1076.8 527.5 1073.6 526.9C1069.9 526.2 1066.2 527.2 1062.7 528.1C1060.9 528.5 1061.6 531.4 1063.5 530.9Z" fill="#E8E8E8"/>
<path d="M1172.4 557.3C1178.1 554 1184.7 553.4 1190.7 556.2C1194.3 557.8 1197.1 559.9 1201.2 559.6C1210.5 558.9 1216.9 550.7 1226.6 555.1C1229.5 556.4 1232.3 557.8 1235.6 557.3C1239.7 556.6 1242.6 553.3 1246.3 551.9C1255.4 548.4 1265.7 553.5 1275.2 551.4C1277.1 551 1276.3 548.1 1274.4 548.5C1265 550.5 1255.3 545.7 1246 548.8C1241.7 550.2 1238.4 554.3 1233.7 554.3C1229 554.3 1225.3 550.5 1220.4 550.6C1211.4 550.8 1204.2 559.8 1195 555.4C1186.8 551.4 1179 550.2 1170.7 555C1169.2 555.6 1170.7 558.2 1172.4 557.3Z" fill="#E8E8E8"/>
<path d="M1094.5 706.7C1100.9 704.7 1105.4 706.3 1111.2 708.8C1114.4 710.1 1117.4 710.4 1120.8 709.8C1125 708.9 1128.8 706.9 1132.9 705.8C1139.1 704.2 1142.6 707.6 1148 709.7C1156 712.8 1162.5 707.1 1169.9 705.3C1179.3 703 1187.9 709.7 1197.4 708.3C1199.3 708 1198.5 705.1 1196.6 705.4C1187.4 706.8 1179.1 700.2 1169.8 702.3C1165.4 703.3 1161.6 705.7 1157.3 707C1151 708.9 1147.4 705.5 1141.9 703.3C1134.4 700.4 1127.8 705.2 1120.6 706.8C1115.4 708 1111.9 705.4 1107.2 703.8C1102.7 702.3 1098.1 702.5 1093.7 703.9C1091.8 704.4 1092.6 707.3 1094.5 706.7Z" fill="#E8E8E8"/>
<path opacity="0.22" d="M1286.6 1010.2C1152.7 1035.8 1018.7 1061.3 884.8 1086.9C724.5 1036.9 564.3 986.9 404 936.9C617.7 937.7 831.4 938.4 1045 939.2C1125.6 962.9 1206.1 986.6 1286.6 1010.2Z" fill="#666666"/>
<path opacity="0.19" d="M1131 972.4C1018.1 999.5 905.1 1026.6 792.2 1053.7C664.8 1014.8 537.3 975.9 409.9 936.9C582.7 922.4 755.6 907.9 928.4 893.4C995.9 919.8 1063.4 946.1 1131 972.4Z" fill="#666666"/>
<path d="M403.5 634.5C405 734.2 406.6 833.9 408.1 933.7C534.7 962.3 661.2 990.8 787.8 1019.4C787.6 904 787.3 788.6 787.1 673.2C659.2 660.2 531.3 647.3 403.5 634.5Z" fill="white" stroke="#161616" stroke-width="2"/>
<path d="M1066.5 608.2C1066 718.2 1065.5 828.2 1065 938.2C972.9 965.3 880.7 992.3 788.6 1019.4C788.3 902.7 788 786.1 787.7 669.4C880.6 649.1 973.6 628.7 1066.5 608.2Z" fill="white" stroke="#161616" stroke-width="2"/>
<path d="M784.5 672.2C658 659.1 531.6 646 405.2 632.9C488.5 611.7 571.8 590.5 655.1 569.3C791.3 582.4 927.6 595.5 1063.8 608.7C970.7 629.8 877.6 651 784.5 672.2Z" fill="white" stroke="#161616" stroke-width="2"/>
<path d="M877.1 590.8C844.6 588.6 812.2 586.4 779.7 584.2C715.7 607.6 651.7 631 587.8 654.4C587.2 760.5 586.6 866.6 585.9 972.7C614.6 979.6 643.3 986.4 672 993.3C670.8 883.4 669.5 773.6 668.3 663.7C737.9 639.5 807.5 615.1 877.1 590.8Z" fill="#161616" stroke="#161616" stroke-width="2"/>
<path d="M905.1 984C931.6 975.9 958.2 967.8 984.7 959.7C983.8 849.8 982.8 740 981.9 630.1C852.1 614.8 722.2 599.5 592.4 584.2C569.9 589.8 547.5 595.4 525 601.1C652 620.8 779 640.4 906.1 660.1C905.8 768.1 905.5 876 905.1 984Z" fill="#161616" stroke="#161616" stroke-width="2"/>
<path d="M911.8 441.8C921 445.6 922.5 469.4 917.5 488C898.3 559.3 774 588.2 768.1 577.3C765.6 572.6 787 563.7 832 519.1C881.6 469.9 899.7 436.9 911.8 441.8Z" fill="white" stroke="#161616" stroke-width="2"/>
<path d="M656 488.7C658.4 500 664.3 513.1 702.2 549.5C727.6 573.9 740.4 586.1 744 583.7C751.3 578.7 727.1 530.6 704.1 496.3C692.3 478.7 671.6 448 661.1 452C653.6 454.8 653 474.6 656 488.7Z" fill="white" stroke="#161616" stroke-width="2"/>
<ellipse cx="751.4" cy="597.4" rx="26.6" ry="28.1" fill="#161616" stroke="#161616" stroke-width="2"/>
<path d="M751.9 586C767 571.3 782.3 555.7 797.6 539.4C831.4 503.4 861.5 467.9 888.2 433.5C894 432.8 905.4 432.1 910.2 438.6C917.2 447.9 906.1 466.3 900.9 475C874.4 519.1 790.1 566 751.9 586Z" fill="#161616" stroke="#161616" stroke-width="2"/>
<path d="M662.1 450.5C665.8 447.1 677.3 454 684.1 458.1C740.5 492 747.4 572.2 748.5 586.8C702.5 527.4 652.8 459.2 662.1 450.5Z" fill="#161616" stroke="#161616" stroke-width="2"/>
<path d="M424.4 688.5C470 689.3 515.8 689.1 561.3 691.2C607.3 693.3 652.9 699.7 698.3 707.6C723.9 712.1 749.5 717 775.1 722C777 722.4 777.8 719.5 775.9 719.1C731.1 710.4 686.2 701.8 640.9 695.7C595.1 689.6 549.3 687.6 503.1 686.8C476.9 686.4 450.6 685.9 424.4 685.5C422.5 685.5 422.5 688.5 424.4 688.5Z" fill="#161616"/>
<path d="M812.9 720.5C889.5 697.5 967.6 679.6 1046.7 667C1048.6 666.7 1047.8 663.8 1045.9 664.1C966.9 676.7 888.8 694.6 812.1 717.6C810.3 718.1 811.1 721 812.9 720.5Z" fill="#161616"/>
<path d="M675.3 858.2C675.3 888.5 675.3 918.7 675.3 949C675.3 950.9 678.3 950.9 678.3 949C678.3 918.7 678.3 888.5 678.3 858.2C678.3 856.3 675.3 856.3 675.3 858.2Z" fill="#161616"/>
<path d="M685.2 930.9C685.2 946 685.2 961.2 685.2 976.3C685.2 978.2 688.2 978.2 688.2 976.3C688.2 961.2 688.2 946 688.2 930.9C688.2 928.9 685.2 928.9 685.2 930.9Z" fill="#161616"/>
<path d="M892.2 781.1C892.2 805.3 892.2 829.5 892.2 853.7C892.2 855.6 895.2 855.6 895.2 853.7C895.2 829.5 895.2 805.3 895.2 781.1C895.2 779.2 892.2 779.2 892.2 781.1Z" fill="#161616"/>
<path d="M897.6 881.8C897.6 898.1 897.6 914.5 897.6 930.8C897.6 932.7 900.6 932.7 900.6 930.8C900.6 914.5 900.6 898.1 900.6 881.8C900.6 879.9 897.6 879.9 897.6 881.8Z" fill="#161616"/>
<path d="M532.1 777.2C532.1 790.3 532.1 803.4 532.1 816.5C532.1 818.4 535.1 818.4 535.1 816.5C535.1 803.4 535.1 790.3 535.1 777.2C535.1 775.3 532.1 775.3 532.1 777.2Z" fill="#161616"/>
<path d="M523.6 827.1C523.6 837.7 523.6 848.3 523.6 858.9C523.6 860.8 526.6 860.8 526.6 858.9C526.6 848.3 526.6 837.7 526.6 827.1C526.6 825.2 523.6 825.2 523.6 827.1Z" fill="#161616"/>
<path opacity="0.21" d="M1060.1 937.8C969.7 965.3 879.3 992.9 788.9 1020.4C788.9 905.6 788.9 790.8 788.9 676C879.8 655.2 970.7 634.4 1061.6 613.7C1061.2 721.7 1060.7 829.7 1060.1 937.8Z" fill="#666666"/>
<path opacity="0.21" d="M1066.1 939.1C974 964.3 882 989.5 789.9 1014.7C789.3 914.2 788.7 813.8 788 713.3C828.7 750.6 869.5 787.9 910.2 825.3C961.8 808.2 1013.5 791.1 1065.1 774C1065.5 829 1065.8 884.1 1066.1 939.1Z" fill="#666666"/>
<path opacity="0.14" d="M916.3 447C911.4 446 906.2 479.7 889.1 507.4C873.6 532.5 842.7 561.9 774.6 578.9C783.4 578.1 796.8 576.3 812.5 571.7C828.8 567 897.6 547 915.7 493.3C923.1 471.1 920.3 447.8 916.3 447Z" fill="#666666"/>
<path opacity="0.2" d="M669.4 661.2C698.3 680.8 727.3 700.4 756.2 720C729.6 715.4 703.1 710.9 676.5 706.3C677.6 759.7 682 819.6 692.2 884.6C698.9 927.3 707.2 967 716.4 1003.4C702.3 999.5 688.1 995.6 674 991.6C672.5 881.5 671 771.3 669.4 661.2Z" fill="#666666"/>
<path opacity="0.13" d="M676.4 662.1C718.9 656 761.5 649.9 804 643.8C785.3 641.3 766.6 638.8 747.9 636.4C735 641.2 724.4 644.5 717 646.7C709.4 648.9 703.7 650.3 695.2 653.6C687.1 656.7 680.6 659.9 676.4 662.1Z" fill="#666666"/>
<path d="M1022.6 915.7C1019.8 918.3 1017.1 921 1014.3 923.6C1019.1 942.1 1023.9 960.6 1028.7 979.1C1032.5 977.2 1036.4 975.4 1040.2 973.5C1034.4 954.2 1028.5 934.9 1022.6 915.7Z" fill="#161616" stroke="#161616" stroke-width="3"/>
<path d="M1028.1 907C1025.3 906.2 1022.6 905.4 1019.8 904.6C1019.3 895 1018.7 885.4 1018.2 875.8C1034.5 869.9 1050.9 864 1067.2 858C1068.6 858.4 1070.1 858.8 1071.5 859.2C1057.1 875.1 1042.6 891.1 1028.1 907Z" fill="#161616" stroke="#161616" stroke-width="3"/>
<path d="M1027.6 875.8C1028 886.4 1028.5 896.9 1028.9 907.5C1042.8 903.5 1056.6 899.6 1070.5 895.6C1070.7 883.7 1070.9 871.9 1071.2 860C1056.6 865.3 1042.1 870.5 1027.6 875.8Z" fill="white" stroke="#161616" stroke-width="3"/>
<path d="M1023 915.4C1040.2 911 1057.3 906.6 1074.5 902.2C1073.9 907.3 1073.6 913.1 1073.8 919.4C1074.5 936 1078.9 949.6 1083 959C1068.7 963.8 1054.4 968.7 1040.1 973.5C1034.4 954.1 1028.7 934.8 1023 915.4Z" fill="white" stroke="#161616" stroke-width="3"/>
<path d="M1040.7 903.9C1040.6 905.7 1040.9 907.5 1041.6 909.2C1042.3 911 1045.2 910.2 1044.5 908.4C1043.9 906.9 1043.7 905.4 1043.7 903.9C1043.8 902 1040.8 902 1040.7 903.9Z" fill="#161616"/>
<path d="M1049.9 902.3C1049.7 903.9 1050 905.5 1050.6 906.9C1050.9 907.6 1051.6 908.2 1052.4 907.9C1053.1 907.7 1053.8 906.8 1053.4 906.1C1052.9 904.8 1052.7 903.6 1052.8 902.3C1052.9 901.5 1052.1 900.8 1051.3 900.8C1050.5 900.8 1049.9 901.5 1049.9 902.3Z" fill="#161616"/>
<path d="M1037.2 975.9C1039.3 985.7 1048.7 994.6 1056.4 1000.6C1064.9 1007.2 1074.9 1011.1 1085.5 1012.3C1087.4 1012.5 1087.4 1009.5 1085.5 1009.3C1075.2 1008.1 1065.3 1004.1 1057.2 997.4C1050.4 991.8 1042 983.8 1040.1 975.1C1039.7 973.2 1036.8 974 1037.2 975.9Z" fill="#161616"/>
<path d="M1044.2 973.3C1054 988.2 1067 1002 1085.4 1005C1087.3 1005.3 1088.1 1002.4 1086.2 1002.1C1068.5 999.2 1056.2 986.1 1046.7 971.8C1045.7 970.1 1043.1 971.6 1044.2 973.3Z" fill="#161616"/>
<path d="M1087 1003.2C1087.7 1000.1 1088.7 997.1 1090.2 994.2C1090.8 993.1 1091.7 992 1092.1 990.9C1091.2 989.1 1090.9 989.2 1091.4 991.1C1091.6 992.1 1091.7 993.1 1091.8 994.2C1092 997 1091.8 999.7 1091.5 1002.5C1091.4 1003.7 1091.5 1007.8 1090.7 1008.7C1089.9 1009.6 1088.1 1009.5 1087.1 1009.6C1085.2 1009.7 1085.2 1012.7 1087.1 1012.6C1089.1 1012.5 1091.2 1013.4 1092.8 1011.7C1094.4 1009.9 1094.1 1006.4 1094.4 1004.2C1094.9 1000.4 1095.1 996.5 1094.7 992.6C1094.5 990.8 1094.6 988.3 1092.9 987.4C1092.5 987.2 1091.8 987.1 1091.4 987.4C1087.3 990.6 1085.2 997.8 1084.1 1002.5C1083.6 1004.3 1086.5 1005.1 1087 1003.2Z" fill="#161616"/>
<path d="M1067.3 965.3C1076.6 976.6 1091 982 1105.4 980.1C1107.3 979.8 1106.5 977 1104.6 977.2C1091.2 979 1077.9 973.6 1069.4 963.2C1068.2 961.7 1066.1 963.8 1067.3 965.3Z" fill="#161616"/>
<path d="M1059.3 969.1C1070.5 981.2 1086.4 987.9 1102.9 987.4C1104.8 987.3 1104.8 984.3 1102.9 984.4C1087.1 984.9 1072.1 978.6 1061.4 967C1060.2 965.5 1058 967.7 1059.3 969.1Z" fill="#161616"/>
<path d="M1107.6 978.2C1108.1 976.3 1108.7 974.4 1109.4 972.6C1109.6 972 1111.4 966.3 1112.1 966.3C1111.6 965.9 1111.1 965.6 1110.7 965.2C1111.7 968.2 1111 972.4 1110.7 975.4C1110.3 979.1 1109.5 982.7 1108.5 986.3C1108 988.2 1110.9 989 1111.4 987.1C1112.5 983.3 1113.3 979.4 1113.7 975.4C1114 972.1 1114.7 967.6 1113.6 964.4C1113.4 963.8 1112.8 963.3 1112.2 963.3C1107.7 963.6 1105.7 974 1104.8 977.4C1104.2 979.3 1107.1 980.1 1107.6 978.2Z" fill="#161616"/>
<path d="M1101.8 987.2C1104.2 988.2 1106.7 988.6 1109.3 988.1C1111.2 987.8 1110.4 984.9 1108.5 985.2C1106.8 985.5 1105 985.3 1103.3 984.6C1101.6 983.8 1100 986.4 1101.8 987.2Z" fill="#161616"/>
<path d="M1047.1 988.2C1047.5 985.8 1049.6 984.3 1052 984.6C1053.9 984.8 1053.9 981.8 1052 981.6C1048.4 981.2 1044.8 983.8 1044.2 987.4C1043.8 989.3 1046.7 990.1 1047.1 988.2Z" fill="#161616"/>
<path d="M1055.9 997.1C1056.3 995.1 1057.8 993.7 1059.7 993.3C1061.6 992.9 1060.8 990 1058.9 990.4C1056 991 1053.6 993.3 1053 996.2C1052.6 998.2 1055.4 999 1055.9 997.1Z" fill="#161616"/>
<path d="M1065.2 1004.2C1065.9 1002.1 1067.6 1000.6 1069.8 1000.2C1071.7 999.8 1070.9 996.9 1069 997.3C1065.8 997.9 1063.3 1000.3 1062.3 1003.4C1061.7 1005.2 1064.6 1006 1065.2 1004.2Z" fill="#161616"/>
<path d="M1075 1000.7C1072.7 1002.3 1071.6 1004.9 1072.1 1007.7C1072.4 1009.6 1075.3 1008.8 1075 1006.9C1074.8 1005.5 1075.4 1004.1 1076.5 1003.3C1078.1 1002.2 1076.6 999.6 1075 1000.7Z" fill="#161616"/>
<path d="M1090.5 992.1C1088.6 997.2 1089.6 1003.8 1089.6 1009.2C1089.6 1011.1 1092.6 1011.1 1092.6 1009.2C1092.6 1004.1 1091.6 997.7 1093.4 992.9C1094 991.1 1091.1 990.3 1090.5 992.1Z" fill="#161616"/>
<path d="M1074.4 977.1C1074.4 975.5 1075.4 974.1 1077 973.7C1078.9 973.2 1078.1 970.3 1076.2 970.8C1073.4 971.5 1071.4 974.2 1071.4 977.1C1071.4 979 1074.4 979 1074.4 977.1Z" fill="#161616"/>
<path d="M1066.3 971.8C1067.1 970.2 1068.6 969.2 1070.4 968.9C1071.2 968.8 1071.6 967.8 1071.4 967.1C1071.2 966.2 1070.4 965.9 1069.6 966.1C1067.1 966.5 1064.9 968.1 1063.7 970.4C1062.9 972 1065.5 973.5 1066.3 971.8Z" fill="#161616"/>
<path d="M1090.5 983C1090.5 982.2 1090.9 981.5 1091.7 981.1C1093.4 980.2 1091.9 977.6 1090.2 978.5C1088.5 979.4 1087.5 981.2 1087.6 983C1087.5 984.9 1090.5 984.9 1090.5 983Z" fill="#161616"/>
<path d="M1034.9 889.1C1036.9 889.1 1038.9 889.1 1040.9 889.1C1042.8 889.1 1042.8 886.1 1040.9 886.1C1038.9 886.1 1036.9 886.1 1034.9 886.1C1033 886.1 1033 889.1 1034.9 889.1Z" fill="#161616"/>
<path d="M1058.8 882.7C1060.3 881.2 1061.8 879.7 1063.3 878.2C1064.7 876.8 1062.5 874.7 1061.2 876.1C1059.7 877.6 1058.2 879.1 1056.7 880.6C1055.4 881.9 1057.5 884 1058.8 882.7Z" fill="#161616"/>
<path d="M1047.5 893.5C1050.3 894.4 1053.3 893.1 1054.8 890.7C1055.8 889 1053.2 887.5 1052.2 889.2C1051.4 890.6 1049.8 891.1 1048.3 890.7C1046.4 890.1 1045.7 893 1047.5 893.5Z" fill="#161616"/>
<path d="M1067.9 924.7C1062.7 926.2 1057.5 927.7 1052.3 929.2C1051.6 927.8 1050.7 925.8 1050.3 923.2C1049.8 920.3 1050 917.9 1050.3 916.3C1055.9 915.2 1061.5 914.1 1067.1 913C1066.6 914.5 1066.1 917.1 1066.6 920.2C1066.9 922.1 1067.4 923.6 1067.9 924.7Z" fill="#EC615B"/>
<path opacity="0.24" d="M1038 872.5C1038.3 882.5 1038.7 892.6 1039 902.6C1049.3 899.9 1059.6 897.3 1069.9 894.6C1070 883.6 1070.1 872.7 1070.1 861.7C1059.5 865.4 1048.7 868.9 1038 872.5Z" fill="#666666"/>
<path opacity="0.24" d="M1038 913.6C1039.4 920.4 1041.2 927.6 1043.2 935C1046.5 946.9 1050.3 957.8 1054.2 967.6C1063.2 964.5 1072.1 961.5 1081.1 958.4C1078.9 953.7 1076.8 948.1 1075.1 941.7C1071.2 926.5 1071.7 913.2 1072.9 904.1C1061.3 907.3 1049.7 910.5 1038 913.6Z" fill="#666666"/>
<path d="M513.4 117.8C513.8 125.9 514.5 137.7 515.8 151.8C519 186.9 520.9 217.2 529 241.2C535.1 259.3 549.5 293.2 585.5 327.3C583.4 334.2 580 342.9 574.3 352.3C567.3 363.8 559.3 372 553.3 377.3C523.7 348.4 508.2 319.6 500 301C479.9 255.2 479.4 213.5 479 182.6C478.7 157.5 480.8 136.4 483 121.3C479.4 117.9 473.9 112.6 467 106.3C454.4 94.9 449.6 91.2 450.4 89.6C451.1 88.2 456.3 88.3 477.9 96C459.3 72.1 451 59.3 453 57.4C454.8 55.7 464.8 62.9 483.1 79C469.5 45.2 467.3 35.1 469.1 34.2C470.9 33.3 477.9 41.4 497.5 73.9C494.4 47.7 495.4 41.8 497 41.4C499.8 40.8 506 57.1 507.8 62C512 73.2 514.3 82.8 515.5 89.3C532.4 76 535.8 77.2 536.6 78C539.5 80.6 531.8 93.8 529.9 97.1C524.4 106.7 518.1 113.5 513.4 117.8Z" fill="white" stroke="#161616" stroke-width="2"/>
<path opacity="0.15" d="M470 35.8C468.3 36.7 474.6 53.5 482.8 67.8C485.1 71.7001 486.5 73.6 498.6 91.8C503.5 99.2001 507.5 105.2 510.2 109.2C506.7 123.6 502.9 143.4 501.9 167.2C501.2 183.8 500.1 216.7 511.7 256.1C524.3 298.9 546.2 329.8 562.2 348.5C569.9 341.6 577.6 334.7 585.3 327.8C552.2 296 537.6 264.1 530.9 246C521.4 220.2 518.8 195.4 516.5 173.8C514 151.3 513.7 132.3 513.9 118.4C519 114.4 526.6 107.4 532.2 96.5C533.4 94.1 540 81.4 536.7 78.6C533.2 75.6 520.5 85.2001 515.2 89.3C503.5 50.6 498.8 41.9 496.9 42.3C495.8 42.5 495.5 45.7 495.1 50.8C494.3 61.2 496.1 69.7001 497.8 75C497.7 75.2001 497.7 75.2001 470 35.8Z" fill="#666666"/>
<path opacity="0.2" d="M534 87.7C529.9 89.6 521.2 94.3 514.3 104.3C508 113.4 506.3 122.2 505.8 126.7C504.4 140.7 504.1 156.7 505.9 174C512.2 235.6 541.1 280.8 559.8 304.9C546.9 283.6 530.3 250.9 520.8 208.2C512.6 171.6 512.3 139.8 513.8 116.9C517.7 112.8 522.1 107.6 526.3 101.2C529.5 96.4 532 91.8 534 87.7Z" fill="#666666"/>
<path d="M683.9 322.2C677 325.4 671.2 327.6 667.8 333.9C661.1 346.2 670 362.6 672.2 366.7C677.8 377.1 685.8 383.5 691.9 387.3C711.3 378.9 740.3 362.9 766 333.4C799.2 295.3 808.8 254.9 813.8 233.2C820.5 203.6 820.8 178.3 819.9 161.1C824.8 152.6 831.9 140.6 841 126.2C849 113.4 853.4 106.7 851.7 104.9C850.4 103.6 845.4 104.7 827.7 117.4C834.1 92.4999 836.2 79.5999 833.9 78.6999C831.7 77.8999 825.5 87.9999 815.3 109.1C816.8 80.2999 816.1 65.6999 813.2 65.2999C810.2 64.7999 804.7 80.4999 796.7 112.2C792 90.2999 788.6 79.4999 786.4 79.6999C783.8 79.9999 783 95.4999 783.8 126.1C768.7 117.8 760.1 114.8 758 117.3C755.1 120.8 764.8 134.6 787.1 158.9C787.6 168.3 787.5 183.3 783.9 201C782.1 209.9 769.3 272.5 725.7 297.3C711.6 305.4 698.5 315.4 683.9 322.2Z" fill="white" stroke="#161616" stroke-width="2"/>
<path opacity="0.16" d="M833.9 78.5001C832.3 78.0001 829.6 87.2001 818.6 103C816 106.8 814.8 108.2 813.8 111.2C811.1 119.9 815.9 125.4 815.7 132.7C815.5 137.9 812.8 145.2 800.4 154C802.5 161.5 804.8 172.2 805.5 185.1C808.2 236.6 781.2 274.3 771.8 290C762.9 304.9 736.3 343.5 671.6 367.2C672.1 369.7 673.9 376.6 680.1 382.1C683.9 385.5 687.9 387 690.3 387.6C703.7 382.1 722.3 372.7 741.5 356.9C771.8 331.9 786.5 304.6 793.5 291.2C821.8 237.4 821.8 184.9 819.9 158.7C825.6 149.7 830.6 141.8 834.5 135.6C848.5 113.4 852.9 106.3 851.2 104.6C850.3 103.7 847.3 104.1 837.6 110.7C834.3 112.7 831 114.8 827.7 116.8C834.8 86.9001 835.3 78.9001 833.9 78.5001Z" fill="#666666"/>
<path opacity="0.28" d="M838 129.9C815 144 809.6 156 809.1 164.6C808.9 168 809.5 168.9 810.2 177C810.2 177 809.6 191.8 809.8 210.3C810.1 236.7 799.2 260.6 785.9 289.6C778.9 304.8 768.5 324.8 753.1 346.7C764.2 335.7 776.1 321.6 786.8 304.1C821 247.6 821 190 819 162.3C825.3 151.4 831.6 140.6 838 129.9Z" fill="#666666"/>
<path opacity="0.11" d="M757.7 119C780 130.4 786.3 132.3 787 131.3C787.6 130.3 783.9 126.4 780.5 124.2C779.1 123.3 777.2 122.4 773.4 120.8C766.6 117.9 764.8 117.7 763.5 117.7C760.9 117.6 758.9 118.4 757.7 119Z" fill="#666666"/>
<path d="M460.3 749.4C459.5 754.4 464.1 760.3 473.1 772.2C477.9 778.5 482.3 783.3 485.2 786.4C480.7 794.5 472.8 811.9 476.7 832.7C477.9 839.4 480 850.5 486 851.9C496.4 854.4 511.9 826.1 518 812.7C524.9 797.6 527.9 783.9 529.4 774.2C519 760.2 508.5 746.2 498.1 732.2C477.4 734 461.6 740.6 460.3 749.4Z" fill="#161616" stroke="#161616" stroke-width="2"/>
<path d="M582.7 535.7C589.3 585.4 579.1 605 567.6 613.4C557.2 621 546.9 618.5 522.3 625.6C500.8 631.9 484.3 640.9 473.4 647.9C474.8 657.9 477.7 670.7 483.5 684.6C492.7 706.6 505.5 722.1 514.6 731.4C512.8 735.2 505.3 749.8 487.8 757.2C473.6 763.3 460.8 761.1 456.1 760.1C440.1 745.3 415.5 717.8 404.4 677.3C399.9 660.8 394.4 639.5 402.5 615.7C407.6 600.8 415.5 592.4 431.4 575.6C436.6 570.1 459.3 546.6 499.5 525.2C523 512.7 534.9 506.4 549 509.3C566.9 513.2 578 528.2 582.7 535.7Z" fill="#EC615B"/>
<path opacity="0.21" d="M559.3 532.7C543.1 542.5 520.6 556.8 494.6 575.5C449.6 607.9 429 625.2 421.6 643.2C414.4 660.7 419.5 692.7 484.5 756.2C488 755.5 493.5 753.8 499 750C507.9 743.9 512 735.7 513.5 732C506.2 724.5 497.5 713.9 489.7 699.9C478.6 679.9 474.2 661.2 472.3 648.5C492.7 634.2 510.6 628.3 523.6 625.6C543 621.5 558.7 623.1 570.7 610.7C576.8 604.4 579.2 597.2 581.4 590.6C587.6 572.1 585.3 555.7 583.4 547.2C575.4 542.5 567.3 537.6 559.3 532.7Z" fill="#666666"/>
<path opacity="0.16" d="M553.3 546.8C551.2 556 547.8 566.3 542.7 577.1C524.9 614.3 495.6 634.9 479.3 644.5C492.4 635.8 504 631.2 512.2 628.6C515 627.7 517.9 626.9 548.6 618.9C562.6 615.2 566.6 614.2 570.8 610.2C573.3 607.8 577.4 602.9 580.6 585.1C582.2 576 583.8 562.7 582.7 546.2C572.8 546.4 563 546.6 553.3 546.8Z" fill="#666666"/>
<path opacity="0.17" d="M472.4 645.7C469.7 658.4 466.5 682.8 474.9 711.3C480.2 729.3 488.5 742.9 494.9 751.8C497.9 750.1 502.1 747.2 506.2 742.6C509.7 738.6 511.9 734.7 513.3 731.7C506 724.2 497.2 713.6 489.5 699.5C477.9 678.3 473.9 658.5 472.4 645.7Z" fill="#666666"/>
<path d="M530 744.4C536.6 753.7 543.3 762.9 549.9 772.2C546.3 781.7 537.2 809.8 550.6 832C552.9 835.8 557 842.6 562.7 842.7C574.8 842.9 583.7 812.9 585.5 807.1C588.5 797.2 591.6 781.9 589.8 762.2C585.3 733.3 564.3 717.7 549.9 720.9C536.7 723.8 530.7 742.4 530 744.4Z" fill="#161616" stroke="#161616" stroke-width="2"/>
<path d="M653.7 532.4C662.2 586 644.9 604.6 638.6 610.1C632.7 615.2 627 617.2 595.1 627.8C583.2 631.8 565.7 637.6 544.3 644.6C545.7 654.6 548.6 667.4 554.4 681.3C563.6 703.3 576.4 718.8 585.5 728.1C583.7 731.9 576.2 746.5 558.7 753.9C544.5 760 531.7 757.8 527 756.8C511 742 486.4 714.5 475.3 674C470.8 657.5 465.3 636.2 473.4 612.4C478.5 597.5 486.4 589.1 502.3 572.3C507.5 566.8 530.2 543.3 570.4 521.9C593.9 509.4 605.8 503.1 619.9 506C638 509.8 649 524.9 653.7 532.4Z" fill="#EC615B"/>
<path opacity="0.21" d="M587.9 530.2C584.7 540.1 578.4 556.1 566.4 573C536.6 614.8 503 617.3 493.4 640.7C486.2 658.2 491.3 690.2 556.3 753.7C560.2 752.1 565.2 749.7 570.4 745.8C577.9 740.2 582.6 733.9 585.4 729.5C578 721.8 569.4 711.2 561.6 697.4C550.1 676.9 545.3 657.8 543.1 644.6C565.8 636.9 584.1 631.2 596.3 627.4C620.7 620 633.2 616.8 642.9 604.5C648.9 596.8 651.4 588.7 653 583.4C658 567.1 656.6 552.9 655.2 544.7C632.8 540 610.4 535.1 587.9 530.2Z" fill="#666666"/>
<path opacity="0.16" d="M625.1 544.2C623 553.5 619.7 563.8 614.5 574.5C593.9 616.6 557.2 637.2 540 645.3C557.4 639.8 573.1 634.8 586.8 630.4C586.8 630.4 593.9 628.1 611.3 621.9C633.5 613.9 637.3 611.9 641.1 608.1C647.8 601.3 649.6 593.7 652.3 582.6C654.3 574.1 656.5 560.7 654.4 543.7C644.7 543.9 634.9 544.1 625.1 544.2Z" fill="#666666"/>
<path opacity="0.17" d="M544.2 643.2C541.5 655.9 538.3 680.3 546.7 708.8C552 726.8 560.3 740.4 566.7 749.3C569.7 747.6 573.9 744.7 578 740.1C581.5 736.1 583.7 732.2 585.1 729.2C577.8 721.7 569 711.1 561.3 697C549.7 675.8 545.7 656 544.2 643.2Z" fill="#666666"/>
<path d="M582.9 320.7C563.5 335.1 554.3 357.2 552.2 362.4C550.9 365.5 547.2 375.3 545.5 388.8C543.5 404.2 545.1 417.1 546.7 425.6C547.4 437.5 547 457.2 538.7 479.6C532.8 495.7 524.8 507.7 518.5 515.8C531.3 525.6 555.4 541.5 589.7 548.9C617.2 554.9 640.6 553.1 655.3 550.7C663.9 526.4 672.3 498.7 679.2 467.9C685.7 438.9 690 411.9 692.7 387.5C688.4 385.4 675.8 378.8 669.4 364.2C669 363.3 659.8 341.6 670 328.6C676.1 320.9 684.7 321.8 684.7 319.4C684.7 313 623.7 290.5 582.9 320.7Z" fill="white" stroke="#161616" stroke-width="2"/>
<path opacity="0.13" d="M609.6 310.2C607.6 313.8 606.9 323.4 606.9 328.8C606.9 334.5 607.5 339.3 608.2 342.7C608.2 351.6 617.8 395.6 611.1 437.4C603.4 485.4 577.5 522.4 564.9 538.5C575 543.2 590.1 548.8 609.2 551.3C628.2 553.7 644.1 552.1 655.1 550.2C662.3 529.6 669.1 506.9 675.1 482.2C683.3 448.4 688.4 416.9 691.5 388.8C686.3 385.4 669.9 373.8 665.9 353.7C664.8 347.9 662.8 338.1 668.7 329.3C674 321.3 682.5 318.8 685.5 318.1C646.5 303.5 615 300.4 609.6 310.2Z" fill="#666666"/>
<path opacity="0.17" d="M666.1 360.4C667.4 377.9 667.1 399.5 662.3 423.6C649.8 486.9 614.2 529.2 595 548.8C603 550.9 613.7 552.9 626.4 552.9C637.8 553 647.5 551.5 655 549.8C668.9 512.8 681.2 469.7 688.1 421.1C689.7 409.9 691 399 691.9 388.3C687.5 385.7 681.5 381.4 675.7 374.8C671.2 369.6 668.1 364.5 666.1 360.4Z" fill="#666666"/>
<path opacity="0.14" d="M597.9 324.6C602.9 334 612.5 339.9 622.8 340.1C639 340.5 652.1 326.6 650.2 321.7C648.9 318.3 639 316.3 597.9 324.6Z" fill="#666666"/>
<path d="M570.3 194.5C567.1 194.2 564.1 211.4 557.2 238C546.4 279.9 539.9 290.7 546.7 305.1C547.9 307.6 552.7 317.6 563.2 321.6C574.2 325.8 590.1 323 597.8 313.6C615.3 292.2 580.7 247.6 573.3 202.2C572.9 200.2 572.1 194.7 570.3 194.5Z" fill="#5222D0"/>
<path d="M598.9 299.1C599.8 302.8 600.8 308.5 599.9 315.3C599.4 319.5 598.3 323 597.3 325.8C601.6 327 608.2 328.3 616.1 327.9C625.4 327.4 632.7 324.7 637 322.7C635.5 319.4 634.1 315.8 632.8 311.7C630.5 304.6 629.3 298 628.6 292.3C627.2 294 622.5 299 614.5 300.7C607 302.3 601 300 598.9 299.1Z" fill="white" stroke="#161616" stroke-width="2"/>
<path d="M571.2 206C561.3 232 562 267.3 581.8 292.5C584.9 296.5 587.9 299.4 589.9 301.2C603.7 302.5 614.3 300.3 620.7 298.4C625.2 297.1 629.8 295.7 634.7 292.4C645.6 285.1 650.1 274.1 651.8 268.7C655 271.3 657.5 271.7 659.2 271.6C668.2 271 677.5 254.3 672 243.1C669 237 662.6 234.5 660 233.7C658 225.8 650.7 201.4 627.7 187.7C621.8 184.2 604.1 173.7 589 180.9C579 185.6 575.1 195.8 571.2 206Z" fill="white" stroke="#161616" stroke-width="2"/>
<path d="M601.6 305.1C601.3 305.2 600.9 305.3 600.6 305.5C599 306.1 599.3 308.3 601 308.4C609.3 309.2 619.6 303.7 626.3 299.2C627.9 298.1 626.4 295.5 624.8 296.6C618.5 300.8 608.8 306.1 601 305.4C601.1 306.4 601.3 307.4 601.4 308.3C601.7 308.2 602.1 308.1 602.4 307.9C604.2 307.3 603.4 304.4 601.6 305.1Z" fill="#161616"/>
<path d="M601.9 306.5C608.3 305.6 614.6 303.9 620.6 301.5C622.4 300.8 621.6 297.9 619.8 298.6C613.7 301 607.5 302.7 601.1 303.6C599.2 303.9 600 306.8 601.9 306.5Z" fill="#161616"/>
<path d="M602.3 304.9C604.5 305.1 606.8 305 609 304.4C610.9 303.9 610.1 301 608.2 301.5C606.3 302 604.3 302.1 602.3 301.9C600.4 301.7 600.4 304.7 602.3 304.9Z" fill="#161616"/>
<path d="M620.8 253.7C622.7 253.7 622.7 250.7 620.8 250.7C618.9 250.7 618.9 253.7 620.8 253.7Z" fill="#161616"/>
<path d="M630.1 252.2C630.1 252.1 630.1 252 630.1 252C630.1 251.2 629.4 250.5 628.6 250.5C627.8 250.5 627.1 251.2 627.1 252C627.1 252.1 627.1 252.2 627.1 252.2C627.1 253 627.8 253.7 628.6 253.7C629.4 253.6 630.1 253 630.1 252.2Z" fill="#161616"/>
<path d="M625.4 259.5C627.3 259.5 627.3 256.5 625.4 256.5C623.5 256.5 623.5 259.5 625.4 259.5Z" fill="#161616"/>
<path d="M574.1 246.9C576 246.9 576 243.9 574.1 243.9C572.2 243.9 572.2 246.9 574.1 246.9Z" fill="#161616"/>
<path d="M581.2 244.7C583.1 244.7 583.1 241.7 581.2 241.7C579.3 241.7 579.2 244.7 581.2 244.7Z" fill="#161616"/>
<path d="M579.5 251.7C581.4 251.7 581.4 248.7 579.5 248.7C577.5 248.7 577.5 251.7 579.5 251.7Z" fill="#161616"/>
<path d="M566.1 224.9C564.1 222.2 559.2 214.8 559.4 204.7C559.5 197.7 561.9 192.6 563.2 189.9C567.7 180.7 574.5 175.7 580.1 171.8C585.3 168.1 595 161.3 608.8 160C627.1 158.2 641 167.2 650.6 173.5C669.1 185.6 677.5 201.3 679.3 204.7C682.4 210.7 684 215.9 686.5 223.7C689.2 232.3 689.2 234.7 693.7 254.5C698.1 274 698.7 274.7 698.3 279C697.1 293.7 687.6 303.6 686.1 305.2C672.7 318.8 655.3 318.1 649.4 317.9C641.4 317.6 638 315.4 636.7 314.5C628.8 308.8 628.3 298.1 628.3 295.9C631.4 294.1 635.5 291.3 639.3 287C646.7 278.7 649 269.6 649.8 265.1C657.5 267.4 665.2 264.4 668.4 258.8C672.9 250.6 666.6 238.7 659.5 237.7C658.4 237.5 655.4 237.4 651.5 240.7C648.3 233.3 642.6 222.6 632.5 212C620.1 198.9 606.8 192.2 598.8 188.8C594.3 190.7 587.6 194.3 581.1 200.6C571.5 209.6 567.7 219.7 566.1 224.9Z" fill="#5222D0"/>
<path opacity="0.14" d="M625.1 204.2C629.2 210.8 635.6 223.4 635.3 239.8C634.7 278.4 597.6 300 595.3 301.2C597.7 301.6 621.1 305.3 637.4 288.7C646 279.9 648.6 269.7 649.4 265C651.1 265.6 654.9 266.5 659.3 265.2C660.4 264.9 666.8 263 668.9 257C669.9 254.3 669.6 251.8 669.4 250.4C669.3 248.7 668.9 244.7 665.9 241.2C664.8 240 663.1 238 660.3 237.4C655.8 236.5 652.3 239.8 651.8 240.2C649.5 234.7 646 227.9 640.8 220.7C635.2 213.6 629.7 208.1 625.1 204.2Z" fill="#666666"/>
<path opacity="0.18" d="M622 326.6C619 318.1 616 309.5 613.1 301C618 299.4 623 297.7 627.9 296.1C630.6 304.9 633.2 313.8 635.9 322.6C631.3 324 626.7 325.3 622 326.6Z" fill="#666666"/>
<path opacity="0.21" d="M650.5 260.6C648 266.2 643.6 274.4 635.7 282.2C622.7 295.1 607.9 299.3 601.2 300.8C604.1 301 621.6 302.2 634.6 291.4C641.7 285.5 645.4 278 645.4 278C647.3 274.1 648.4 270.1 648.9 268.4C649.7 265.3 650.2 262.6 650.5 260.6Z" fill="#666666"/>
<path opacity="0.18" d="M628.6 325.4C625.7 316.6 622.9 307.7 620 298.9C622.5 298.1 625 297.2 627.5 296.4C630.2 305.2 633 314 635.7 322.8C633.4 323.6 631 324.5 628.6 325.4Z" fill="#666666"/>
<path d="M598.9 225.2C596.2 235.9 594 246.7 592.2 257.6C591.9 259.4 591.3 261.5 593.2 262.5C595.4 263.7 600.7 262 603 261.5C604.9 261.1 604.1 258.2 602.2 258.6C600.6 259 597.7 259.9 596.2 259.7C594.2 259.4 594.7 259.8 595.3 257.5C596.1 254.1 596.5 250.4 597.2 247C598.6 240 600.1 233 601.8 226.1C602.3 224.2 599.4 223.4 598.9 225.2Z" fill="#161616"/>
<path d="M573.8 235.4C577.7 230.9 584.5 230.8 588.5 235.1C589.5 236.2 591.1 234.6 590.1 233.5C585.3 228.3 576.9 228.4 572.2 233.8C571.3 234.9 572.9 236.5 573.8 235.4Z" fill="#161616"/>
<path d="M614.9 236.5C620.2 233.1 627.3 234.6 630.7 240C631.5 241.2 633.4 240.1 632.6 238.9C628.6 232.5 620.1 230.5 613.7 234.6C612.5 235.3 613.7 237.3 614.9 236.5Z" fill="#161616"/>
<path d="M580 218.1C583.6 216.2 587.6 216.3 591.1 218.3C592.4 219 593.5 217.1 592.2 216.4C588 214 583.1 213.9 578.8 216.2C577.6 216.8 578.7 218.8 580 218.1Z" fill="#161616"/>
<path d="M616.1 218.7C621 217.9 625.7 219.2 629.6 222.1C630.8 223 631.9 221 630.7 220.2C626.2 216.9 620.9 215.7 615.5 216.5C614.1 216.8 614.7 218.9 616.1 218.7Z" fill="#161616"/>
<path d="M584.2 274.2C595.2 277.6 606.8 275.1 615.5 267.6C616.6 266.7 615 265.1 613.9 266C605.8 273 595 275.2 584.8 272C583.4 271.5 582.8 273.7 584.2 274.2Z" fill="#161616"/>
</svg>
