<svg width="1215" height="1038" viewBox="0 0 1215 1038" fill="none" xmlns="http://www.w3.org/2000/svg">
<path d="M131.6 830C248.1 830 364.5 830 481 830C597.5 830 713.9 830 830.4 830C895.6 830 960.8 830 1026 830C1027.9 830 1027.9 827 1026 827C909.5 827 793.1 827 676.6 827C560.1 827 443.7 827 327.2 827C262 827 196.8 827 131.6 827C129.7 827 129.7 830 131.6 830Z" fill="#E8E8E8"/>
<path d="M742.9 848.6C821.6 848.6 900.4 848.6 979.1 848.6C1001.4 848.6 1023.6 848.6 1045.9 848.6C1047.8 848.6 1047.8 845.6 1045.9 845.6C967.2 845.6 888.4 845.6 809.7 845.6C787.4 845.6 765.2 845.6 742.9 845.6C741 845.6 741 848.6 742.9 848.6Z" fill="#E8E8E8"/>
<path d="M70.5 856.6C140.4 856.6 210.4 856.6 280.3 856.6C300.3 856.6 320.3 856.6 340.2 856.6C342.1 856.6 342.1 853.6 340.2 853.6C270.3 853.6 200.3 853.6 130.4 853.6C110.4 853.6 90.4 853.6 70.5 853.6C68.5 853.6 68.5 856.6 70.5 856.6Z" fill="#E8E8E8"/>
<path d="M210 872.5C283.9 872.5 357.8 872.5 431.7 872.5C452.6 872.5 473.5 872.5 494.3 872.5C496.2 872.5 496.2 869.5 494.3 869.5C420.4 869.5 346.5 869.5 272.6 869.5C251.7 869.5 230.8 869.5 210 869.5C208.1 869.5 208.1 872.5 210 872.5Z" fill="#E8E8E8"/>
<path d="M21.3 897.8C98.4 897.8 175.5 897.8 252.5 897.8C254.4 897.8 254.4 894.8 252.5 894.8C175.4 894.8 98.3 894.8 21.3 894.8C19.4 894.8 19.4 897.8 21.3 897.8Z" fill="#E8E8E8"/>
<path d="M1014 903.1C1080.4 903.1 1146.9 903.1 1213.3 903.1C1215.2 903.1 1215.2 900.1 1213.3 900.1C1146.9 900.1 1080.4 900.1 1014 900.1C1012.1 900.1 1012.1 903.1 1014 903.1Z" fill="#E8E8E8"/>
<path d="M562.6 991.8C641.8 991.8 721 991.8 800.2 991.8C822.8 991.8 845.5 991.8 868.1 991.8C870 991.8 870 988.8 868.1 988.8C788.9 988.8 709.7 988.8 630.5 988.8C607.9 988.8 585.2 988.8 562.6 988.8C560.7 988.8 560.7 991.8 562.6 991.8Z" fill="#E8E8E8"/>
<path d="M715.4 1013.1C786 1013.1 856.5 1013.1 927.1 1013.1C947.1 1013.1 967 1013.1 987 1013.1C988.9 1013.1 988.9 1010.1 987 1010.1C916.4 1010.1 845.9 1010.1 775.3 1010.1C755.3 1010.1 735.4 1010.1 715.4 1010.1C713.5 1010.1 713.5 1013.1 715.4 1013.1Z" fill="#E8E8E8"/>
<path d="M122.3 845C215.1 845 307.9 845 400.6 845C426.9 845 453.1 845 479.4 845C483.3 845 483.3 839 479.4 839C386.6 839 293.8 839 201.1 839C174.8 839 148.6 839 122.3 839C118.5 839 118.4 845 122.3 845Z" fill="black"/>
<path d="M635.9 840.2C716.1 840.2 796.3 840.2 876.5 840.2C899 840.2 921.6 840.2 944.1 840.2C948 840.2 948 834.2 944.1 834.2C863.9 834.2 783.7 834.2 703.5 834.2C681 834.2 658.4 834.2 635.9 834.2C632 834.2 632 840.2 635.9 840.2Z" fill="black"/>
<path d="M104.9 1006.2C192.5 1006.2 280.2 1006.2 367.8 1006.2C392.4 1006.2 416.9 1006.2 441.5 1006.2C445.4 1006.2 445.4 1000.2 441.5 1000.2C353.9 1000.2 266.2 1000.2 178.6 1000.2C154 1000.2 129.5 1000.2 104.9 1000.2C101.1 1000.2 101.1 1006.2 104.9 1006.2Z" fill="black"/>
<path d="M3.8 1007.7C28.6 1007.7 53.3 1007.7 78.1 1007.7C82 1007.7 82 1001.7 78.1 1001.7C53.3 1001.7 28.6 1001.7 3.8 1001.7C-0.1 1001.7 -0.1 1007.7 3.8 1007.7Z" fill="black"/>
<path d="M400.4 1028.3C428.3 1028.3 456.2 1028.3 484.2 1028.3C488.1 1028.3 488.1 1022.3 484.2 1022.3C456.3 1022.3 428.4 1022.3 400.4 1022.3C396.6 1022.3 396.6 1028.3 400.4 1028.3Z" fill="black"/>
<path d="M634.3 1017.2C653.3 1017.2 672.2 1017.2 691.2 1017.2C695.1 1017.2 695.1 1011.2 691.2 1011.2C672.2 1011.2 653.3 1011.2 634.3 1011.2C630.5 1011.2 630.5 1017.2 634.3 1017.2Z" fill="black"/>
<path d="M677 1037.8C748.6 1037.8 820.2 1037.8 891.9 1037.8C912.5 1037.8 933 1037.8 953.6 1037.8C957.5 1037.8 957.5 1031.8 953.6 1031.8C882 1031.8 810.4 1031.8 738.7 1031.8C718.1 1031.8 697.6 1031.8 677 1031.8C673.1 1031.8 673.1 1037.8 677 1037.8Z" fill="black"/>
<path d="M792.4 1014.1C867.2 1014.1 942 1014.1 1016.8 1014.1C1020.7 1014.1 1020.7 1008.1 1016.8 1008.1C942 1008.1 867.2 1008.1 792.4 1008.1C788.5 1008.1 788.5 1014.1 792.4 1014.1Z" fill="black"/>
<path d="M1049.9 1007.7C1063.1 1007.7 1076.2 1007.7 1089.4 1007.7C1093.3 1007.7 1093.3 1001.7 1089.4 1001.7C1076.2 1001.7 1063.1 1001.7 1049.9 1001.7C1046.1 1001.7 1046.1 1007.7 1049.9 1007.7Z" fill="black"/>
<path d="M931.4 859.2C956.7 859.2 982 859.2 1007.3 859.2C1011.2 859.2 1011.2 853.2 1007.3 853.2C982 853.2 956.7 853.2 931.4 853.2C927.6 853.2 927.6 859.2 931.4 859.2Z" fill="black"/>
<path d="M134.2 826.4C123.6 804.9 117.6 781.5 116.4 757.5C116.3 755.6 113.3 755.6 113.4 757.5C114.6 782 120.8 805.9 131.6 827.9C132.5 829.6 135 828.1 134.2 826.4Z" fill="#E8E8E8"/>
<path d="M116.9 757.6C131.5 759.4 146.3 762.2 161 762.6C175.2 762.9 189.2 759.8 203 756.8C204.9 756.4 204.1 753.5 202.2 753.9C188 757 173.7 760.2 159.1 759.5C145 758.9 130.9 756.3 117 754.6C115 754.4 115 757.4 116.9 757.6Z" fill="#E8E8E8"/>
<path d="M200.9 756.2C200.4 780 195.4 803.4 186.4 825.5C185.7 827.3 188.6 828.1 189.3 826.3C198.5 804 203.4 780.3 203.9 756.2C204 754.3 201 754.3 200.9 756.2Z" fill="#E8E8E8"/>
<path d="M133.1 756.5C128.6 751.3 124.6 745.7 121.3 739.6C119.6 736.5 118.1 733.4 116.7 730.1C115.5 727.2 111.2 715 119.9 716.8C120.9 717 122.2 716.1 121.7 715C118.6 706.5 116.7 697.7 114.7 688.9C112.6 679.8 110.4 670.7 109.4 661.4C108.9 657.1 108.7 652.7 108.9 648.3C109 645.3 109.7 632.1 116.7 639.1C119.5 641.9 121.4 646.4 123.4 649.9C125.6 653.7 127.6 657.6 129.6 661.5C145 692.4 153.1 726.7 153.4 761.3C153.4 763.2 156.4 763.2 156.4 761.3C156.1 730 149.6 699 137 670.3C133.8 663.1 130.3 656 126.4 649.2C123.8 644.7 120.6 636.5 115.4 634.4C103.1 629.5 105.8 656.5 106.4 661.5C107.4 670.4 109.3 679.1 111.3 687.9C113.5 697.3 115.4 706.9 118.7 715.9C119.3 715.3 119.9 714.7 120.5 714.1C117.1 713.4 113.9 714.8 112.3 718C110.3 721.9 111.8 726.5 113.3 730.3C117.4 740.8 123.4 750.3 130.7 758.8C132.2 760.1 134.3 758 133.1 756.5Z" fill="#E8E8E8"/>
<path d="M150.7 715.9C150.2 712.1 149.5 690.3 157.3 691.9C158.3 692.1 159.1 691.5 159.2 690.5C160.9 676.2 162.6 661.6 168.4 648.3C169.9 644.8 171.7 641.3 173.9 638.2C175.8 635.5 179.4 634.4 181.5 637.6C182.3 638.8 182.7 640.4 183.1 641.8C185.1 649.6 185.9 657.8 186.3 665.8C187.7 697.7 179.5 729.1 171.5 759.8C171 761.7 173.9 762.5 174.4 760.6C184.1 723.7 194.1 684.9 187.2 646.6C186.4 642 185.5 634.3 180.2 632.3C174.1 630 170.2 638.3 168 642.5C160.2 657.3 158.2 674.2 156.3 690.5C156.9 690 157.6 689.5 158.2 689.1C146.7 686.7 147 709.5 147.8 716C148 717.8 151 717.9 150.7 715.9Z" fill="#E8E8E8"/>
<path d="M113.1 760.4C126.2 786.8 144.8 810.2 167.6 828.8C169.1 830 171.2 827.9 169.7 826.7C147 808.2 128.6 785.1 115.7 758.9C114.9 757.2 112.3 758.7 113.1 760.4Z" fill="#E8E8E8"/>
<path d="M135.9 759.5C145.4 769.9 155 780.4 164.5 790.8C172.5 799.6 180.3 809.3 190.9 815.1C192.6 816 194.1 813.4 192.4 812.5C181.5 806.6 173.5 796.3 165.3 787.3C156.2 777.3 147.1 767.4 138 757.4C136.7 756 134.6 758.1 135.9 759.5Z" fill="#E8E8E8"/>
<path d="M165.7 762.3C174.5 774.5 184.7 785.4 196.3 795C197.8 796.2 199.9 794.1 198.4 792.9C187.1 783.4 177 772.7 168.3 760.8C167.2 759.3 164.6 760.8 165.7 762.3Z" fill="#E8E8E8"/>
<path d="M189.8 758.7C193.5 762.9 197.2 767.1 200.9 771.3C202.2 772.8 204.3 770.6 203 769.2C199.3 765 195.6 760.8 191.9 756.6C190.6 755.2 188.5 757.3 189.8 758.7Z" fill="#E8E8E8"/>
<path d="M908.7 286.9C908.7 294.9 908.7 303 908.7 311C908.7 312.9 911.7 312.9 911.7 311C911.7 303 911.7 294.9 911.7 286.9C911.7 285 908.7 285 908.7 286.9Z" fill="#E8E8E8"/>
<path d="M910.2 288.4C980.7 288.4 1051.2 288.4 1121.7 288.4C1123.6 288.4 1123.6 285.4 1121.7 285.4C1051.2 285.4 980.7 285.4 910.2 285.4C908.3 285.4 908.3 288.4 910.2 288.4Z" fill="#E8E8E8"/>
<path d="M910.6 312.6C981.1 312.6 1051.6 312.6 1122.1 312.6C1124 312.6 1124 309.6 1122.1 309.6C1051.6 309.6 981.1 309.6 910.6 309.6C908.7 309.6 908.7 312.6 910.6 312.6Z" fill="#E8E8E8"/>
<path d="M1120.5 286.9C1120.5 294.9 1120.5 303 1120.5 311C1120.5 312.9 1123.5 312.9 1123.5 311C1123.5 303 1123.5 294.9 1123.5 286.9C1123.5 285 1120.5 285 1120.5 286.9Z" fill="#E8E8E8"/>
<path d="M917 237.9C919.9 255.6 923.6 274.1 937.5 286.7C938.9 288 941.1 285.9 939.6 284.6C926.1 272.4 922.7 254.3 919.9 237.2C919.6 235.2 916.7 236.1 917 237.9Z" fill="#E8E8E8"/>
<path d="M918.9 237.3C949.6 238.5 980.2 238.3 1010.9 236.7C1012.8 236.6 1012.8 233.6 1010.9 233.7C980.3 235.3 949.6 235.5 918.9 234.3C917 234.2 917 237.2 918.9 237.3Z" fill="#E8E8E8"/>
<path d="M1010.5 236.2C1013.9 254.5 1007.1 273.4 993 285.4C991.5 286.7 993.7 288.8 995.1 287.5C1010 274.7 1017 254.6 1013.3 235.3C1013 233.5 1010.1 234.3 1010.5 236.2Z" fill="#E8E8E8"/>
<path d="M917 229.6C915.5 227.8 914.4 225.8 913.9 223.5C913.7 222.8 912.9 217.3 913.9 216.6C916.3 215.1 921 223.3 921.7 224.5C925.1 230.6 928 237.1 931 243.4C937.6 257.1 944.1 270.9 950.5 284.7C951.3 286.5 953.9 284.9 953.1 283.2C943.8 263.1 935.1 242.3 924.3 223.1C922.7 220.2 916.8 210.8 912.4 213.8C910.1 215.4 910.4 220.3 910.7 222.5C911.2 226.1 912.7 229.1 915 231.9C916 233.3 918.2 231.1 917 229.6Z" fill="#E8E8E8"/>
<path d="M912.2 226.7C922.3 248.2 935 268.3 950 286.7C951.2 288.2 953.3 286.1 952.1 284.6C937.2 266.4 924.7 246.5 914.8 225.2C914 223.5 911.4 225 912.2 226.7Z" fill="#E8E8E8"/>
<path d="M911.4 217.4C911.6 217.3 911.7 217.2 911.9 217.1C913.2 216.1 912.5 213.9 910.7 214.4C908.6 215.6 907.2 215 906.6 212.7C905 211.7 904.6 210.6 905.6 209.5C905.6 209.1 905.8 208.7 905.8 208.2C905.7 206.9 905.2 206.5 904.2 205.6C903.1 204.6 902.6 205.3 901.9 203.7C901.1 201.9 901.9 202.7 901.9 201.2C901.9 200.2 901.1 198.7 901.1 198.1C900.6 197.6 901 197.1 902.2 196.6C903.2 194.6 903.9 194.8 904.2 197.1C904.5 197.8 904.7 198.5 905.1 199.1C906 200.9 907.2 201.2 908.5 202.4C910 204 909.9 205 910.1 207C910.2 207.5 910.1 208 910.3 208.4C910.9 209.4 913.6 210.3 912.4 212C911.2 213.5 913.8 215 915 213.5C916.9 211 916 209.2 914.1 207.2C913.8 206.9 912.7 206.9 912.6 206.6C912.7 206.8 913.2 203.8 913.1 203.5C912.9 202.1 912.3 201.4 911.3 200.5C910.6 199.8 909.7 199.6 908.9 198.9C907.6 197.7 907.3 196.5 906.6 195.1C905.9 193.7 905.3 192.3 903.9 191.5C901.5 190 898.9 191.1 897.7 193.5C897.1 194.6 896.8 196.2 897.1 197.4C897.2 198 897.7 198.6 897.9 199.1C898.6 201.2 898.2 200.3 898 201.7C897.6 204.4 897.6 205.4 900 207C900.7 207.5 902.1 207.6 902.4 208.7C902.2 208 901.3 211.6 901.3 211.2C901.1 212.4 901.5 213.6 902.1 214.6C904.1 217.9 908.1 217.9 911.5 217C911.1 216.1 910.7 215.2 910.3 214.3C910.1 214.4 910 214.5 909.8 214.6C908.3 215.9 909.8 218.5 911.4 217.4Z" fill="#E8E8E8"/>
<path d="M922.6 218.8C922.2 217.8 920.7 214.3 921.3 213.4C922.8 212.7 924.3 212.1 925.8 211.4C926.5 212.2 927.1 213 927.6 214C929.2 216.6 930.3 219.6 931.5 222.4C934.4 229.2 937 236.1 939.5 243C944 256 947.7 269.3 950.6 282.7C951 284.6 953.9 283.8 953.5 281.9C949.1 261.7 943 242 935 222.9C932.9 217.9 930.2 207.6 923.5 206.7C916.5 205.8 918.3 215.9 919.8 219.6C920.4 221.3 923.3 220.6 922.6 218.8Z" fill="#E8E8E8"/>
<path d="M919 206.5C915.6 204.2 914.8 202.1 916.4 200.2C916.8 199.8 917.1 199.3 917.3 198.8C917.4 198.5 917.5 198.2 917.5 197.8C917.3 195.5 913.2 195.1 916.5 191.7C917 191.1 917.1 190.1 916.5 189.6C914.3 187.2 914.2 186 916.2 186.1C917.2 185.6 917.6 186 917.4 187.3C917.8 187.9 917.7 188.8 918.1 189.5C919.1 191.4 921.9 192.3 922.2 194.6C922.5 196.4 921 198.2 921.3 200C921.6 201.9 924.5 203.6 922.4 205.8C921.1 207.2 923.2 209.3 924.5 207.9C925.8 206.5 927.1 204.9 926.7 202.8C926.4 201.1 924.6 200.5 924.4 198.7C924.1 196.6 925.7 195 924.9 192.7C924 190 921.3 189.3 920.3 186.5C919.3 183.9 917.9 179.5 914.2 182C911.1 184.1 911.9 189.6 914.4 191.7C914.4 191 914.4 190.3 914.4 189.6C912.9 191.2 912 193.2 912.6 195.4C912.7 195.9 914.2 197.8 914.2 198.1C914.2 198.9 912.8 200.4 912.6 201.4C911.6 205.7 914.9 211.3 919.8 209.4C921.5 208.7 920.8 205.8 919 206.5Z" fill="#E8E8E8"/>
<path d="M965.5 284.1C963.9 281.3 972.2 276.1 973.8 273.8C975 272.1 975.7 270.4 976.5 268.5C978.1 264.8 980.9 265.4 984.3 265.6C987.6 265.8 990.7 264.8 992.9 262.3C994 261.1 994.7 259.7 995.6 258.3C998.6 253.8 1002.9 254.8 1007.1 256.8C1008.8 257.6 1010.4 255.1 1008.6 254.2C1004 252 998.6 250.2 994.7 254.4C992.2 257.1 991.4 261.1 987.4 262.3C984.3 263.2 981.2 261.2 978.1 262.3C976.1 263 975.2 264.3 974.3 266C972.2 269.8 971.3 272.8 967.7 275.5C964.4 278 960.2 280.7 962.9 285.3C963.9 287.3 966.5 285.8 965.5 284.1Z" fill="#E8E8E8"/>
<path d="M980 283.9C984.7 283.1 988.4 280.6 991.7 277.2C995.9 272.8 1000.7 261.6 1008.4 265.4C1010.1 266.3 1011.6 263.7 1009.9 262.8C1004.7 260.1 999.7 262.6 996.1 266.8C991.1 272.6 987.6 279.6 979.3 281.1C977.3 281.3 978.1 284.2 980 283.9Z" fill="#E8E8E8"/>
<path d="M980.7 264.4C982.7 261.3 984 258 984.4 254.2C984.7 250.9 983.8 248.5 986.4 245.6C987.4 244.5 988.7 243.8 989.7 242.6C993.8 237.5 991.5 229.7 996.2 225.1C995.6 225.2 995 225.3 994.4 225.3C996.3 226.4 996.6 228.6 998.1 229.9C999.5 231.2 1001.5 231.4 1003.2 232.2C1007 234 1005.5 238.7 1005.5 242.3C1005.5 245.1 1007.3 249.6 1005 251.6C1003.5 252.9 1005.7 255 1007.1 253.7C1009.1 251.9 1009.3 249.8 1009 247.3C1008.6 243.2 1009.3 238.8 1008.6 234.8C1008.2 232.2 1007 230.1 1004.6 228.9C1002.2 227.7 1000.2 227 998.3 224.9C997.5 224 997 223.3 995.8 222.7C995.2 222.4 994.5 222.5 994 222.9C988.8 228 991.5 236.2 986.6 241.3C984.6 243.4 982.3 244.5 981.6 247.6C981.1 249.7 981.4 251.9 981.2 253.9C980.9 257.2 979.8 260 978 262.8C977.1 264.5 979.7 266 980.7 264.4Z" fill="#E8E8E8"/>
<path d="M945.5 312.2C947.1 316.8 948.6 321.5 950 326.2C950.2 326.8 950.8 327.3 951.4 327.3C957.4 327.3 963.5 327.3 969.5 327.5C971.4 327.6 971.4 324.6 969.5 324.5C963.5 324.3 957.4 324.2 951.4 324.3C951.9 324.7 952.4 325 952.8 325.4C951.5 320.7 950 316 948.3 311.4C947.7 309.6 944.8 310.4 945.5 312.2Z" fill="#E8E8E8"/>
<path d="M972.7 311.5C971.1 316.3 969.5 321.1 967.9 325.9C967.3 327.7 970.2 328.5 970.8 326.7C972.4 321.9 974 317.1 975.6 312.3C976.2 310.4 973.3 309.6 972.7 311.5Z" fill="#E8E8E8"/>
<path d="M1051.9 286.1C1052 283.6 1050.4 279.7 1052.5 277.8C1054.5 276.1 1059.2 276.8 1061.6 276.8C1068.5 276.8 1075.4 276.8 1082.3 276.9C1088.9 277 1095.4 277.1 1102 277.3C1104.9 277.4 1109.3 276.7 1112 277.7C1115.7 279 1114.5 282.9 1115.3 285.9C1115.8 287.8 1118.7 287 1118.2 285.1C1117.4 282.4 1118.8 279 1116.8 276.6C1115.3 274.8 1113 274.7 1110.9 274.5C1100.8 273.7 1090.5 274 1080.3 273.9C1075.4 273.8 1070.4 273.8 1065.5 273.8C1061.8 273.8 1057.8 273.4 1054.1 274.1C1052.1 274.5 1049.9 275.3 1048.8 277.2C1047.1 280 1049 283.1 1048.8 286.1C1048.8 288 1051.8 288 1051.9 286.1Z" fill="#E8E8E8"/>
<path d="M1040.3 273.2C1040 272 1039.4 269.6 1039.9 268.5C1041 266.1 1044 266.2 1046.1 266C1048.7 265.8 1051.3 265.7 1053.9 265.7C1059.8 265.7 1065.6 266.1 1071.5 266.1C1077 266.1 1082.3 265.5 1087.7 265C1090.2 264.8 1092.7 264.5 1095.2 264.7C1098.6 264.9 1098.9 266.7 1099.6 269.8C1100 271.3 1100 273.1 1100.2 274.7C1100.4 276.6 1103.5 276.6 1103.2 274.7C1102.5 269.3 1103.4 262.9 1097 261.9C1092.7 261.2 1088.2 262.1 1084 262.5C1079.2 263 1074.4 263.2 1069.6 263.2C1060.8 263.1 1051.6 262 1042.9 263.4C1037 264.4 1036.2 268.8 1037.5 274.1C1037.8 275.9 1040.7 275.1 1040.3 273.2Z" fill="#E8E8E8"/>
<path d="M1038.6 276.1C1044 276.9 1049.3 277.1 1054.8 276.6C1056.7 276.4 1056.7 273.4 1054.8 273.6C1049.7 274.1 1044.5 274 1039.4 273.2C1037.5 273 1036.7 275.9 1038.6 276.1Z" fill="#E8E8E8"/>
<path d="M1056.2 312.8C1057.8 317.1 1059.2 321.5 1060.5 325.9C1060.7 326.6 1061.3 327 1061.9 327C1067.6 327.2 1074.9 328.7 1080.4 326.8C1082.2 326.2 1081.4 323.3 1079.6 323.9C1074.6 325.7 1067.2 324.2 1061.9 324C1062.4 324.4 1062.9 324.7 1063.3 325.1C1062 320.7 1060.6 316.3 1059 312C1058.4 310.2 1055.5 310.9 1056.2 312.8Z" fill="#E8E8E8"/>
<path d="M1082.3 312.3C1081 316.5 1079.7 320.6 1078.4 324.8C1077.8 326.6 1080.7 327.4 1081.3 325.6C1082.6 321.4 1083.9 317.3 1085.2 313.1C1085.8 311.3 1082.9 310.5 1082.3 312.3Z" fill="#E8E8E8"/>
<path d="M908.7 116.3C908.7 124.3 908.7 132.4 908.7 140.4C908.7 142.3 911.7 142.3 911.7 140.4C911.7 132.4 911.7 124.3 911.7 116.3C911.7 114.3 908.7 114.3 908.7 116.3Z" fill="#E8E8E8"/>
<path d="M910.2 117.8C980.7 117.8 1051.2 117.8 1121.7 117.8C1123.6 117.8 1123.6 114.8 1121.7 114.8C1051.2 114.8 980.7 114.8 910.2 114.8C908.3 114.8 908.3 117.8 910.2 117.8Z" fill="#E8E8E8"/>
<path d="M910.6 141.9C981.1 141.9 1051.6 141.9 1122.1 141.9C1124 141.9 1124 138.9 1122.1 138.9C1051.6 138.9 981.1 138.9 910.6 138.9C908.7 138.9 908.7 141.9 910.6 141.9Z" fill="#E8E8E8"/>
<path d="M1120.6 116.3C1120.6 124.3 1120.6 132.4 1120.6 140.4C1120.6 142.3 1123.6 142.3 1123.6 140.4C1123.6 132.4 1123.6 124.3 1123.6 116.3C1123.6 114.3 1120.6 114.3 1120.6 116.3Z" fill="#E8E8E8"/>
<path d="M945.5 141.5C947.1 146.1 948.6 150.8 950 155.5C950.2 156.1 950.8 156.6 951.4 156.6C957.4 156.6 963.5 156.6 969.5 156.8C971.4 156.9 971.4 153.9 969.5 153.8C963.5 153.6 957.4 153.5 951.4 153.6C951.9 154 952.4 154.3 952.8 154.7C951.5 150 950 145.3 948.3 140.7C947.8 138.9 944.9 139.7 945.5 141.5Z" fill="#E8E8E8"/>
<path d="M972.8 140.8C971.2 145.6 969.6 150.4 968 155.2C967.4 157 970.3 157.8 970.9 156C972.5 151.2 974.1 146.4 975.7 141.6C976.3 139.7 973.4 138.9 972.8 140.8Z" fill="#E8E8E8"/>
<path d="M1056.2 142.1C1057.8 146.4 1059.2 150.8 1060.5 155.2C1060.7 155.9 1061.3 156.3 1061.9 156.3C1067.6 156.5 1074.9 158 1080.4 156.1C1082.2 155.5 1081.4 152.6 1079.6 153.2C1074.6 155 1067.2 153.5 1061.9 153.3C1062.4 153.7 1062.9 154 1063.3 154.4C1062 150 1060.6 145.6 1059 141.3C1058.5 139.5 1055.6 140.2 1056.2 142.1Z" fill="#E8E8E8"/>
<path d="M1082.3 141.6C1081 145.8 1079.7 149.9 1078.4 154.1C1077.8 155.9 1080.7 156.7 1081.3 154.9C1082.6 150.7 1083.9 146.6 1085.2 142.4C1085.8 140.6 1082.9 139.8 1082.3 141.6Z" fill="#E8E8E8"/>
<path d="M916.7 32C915.2 59.6 914.9 87.3 915.9 115C916 116.9 919 116.9 918.9 115C917.9 87.3 918.2 59.7 919.7 32C919.8 30.1 916.8 30.1 916.7 32Z" fill="#E8E8E8"/>
<path d="M919.499 30.5C921.599 26.6 923.499 22.6 925.099 18.5C925.699 16.9 926.199 13.9 927.399 12.9C928.699 11.9 932.399 11.5 933.999 10.8C935.799 10.1 934.999 7.20003 933.199 7.90003C930.699 8.90003 928.299 9.50003 925.599 9.90003C925.099 10 924.699 10.5 924.599 10.9C922.499 17.1 919.999 23.1 916.899 28.9C915.999 30.7 918.599 32.2 919.499 30.5Z" fill="#E8E8E8"/>
<path d="M944.799 41.1C942.899 65.5 942.299 90.1001 942.999 114.6C943.099 116.5 946.099 116.5 945.999 114.6C945.299 90.1001 945.899 65.6 947.799 41.1C947.999 39.2 944.999 39.2 944.799 41.1Z" fill="#E8E8E8"/>
<path d="M966.8 37.7C965.9 62.8 965.4 87.9 965.4 113.1C965.4 115 968.4 115 968.4 113.1C968.4 88 968.9 62.8 969.8 37.7C969.8 35.8 966.8 35.8 966.8 37.7Z" fill="#E8E8E8"/>
<path d="M934.4 9.29995C935.1 7.89995 935.6 6.39995 936.1 4.89995C935.6 5.29995 935.1 5.59995 934.7 5.99995C938 5.89995 942.2 4.99995 945.4 5.49995C946.6 5.09995 947.5 5.49995 948 6.79995C948.1 7.69995 948.3 8.49995 948.4 9.39995C948.7 11.1 949 12.9 949.3 14.6C949.6 16.5 952.5 15.7 952.2 13.8C951.7 10.9 952 4.29995 948.8 2.79995C947.2 1.99995 944.9 2.49995 943.3 2.59995C940.4 2.69995 937.5 2.89995 934.6 2.99995C933.9 2.99995 933.3 3.39995 933.2 4.09995C932.8 5.39995 932.4 6.59995 931.8 7.79995C931 9.49995 933.5 11 934.4 9.29995Z" fill="#E8E8E8"/>
<path d="M949.6 15.4C953.6 17.3 960.5 19.2 962.9 23.1C965.6 27.4 966.6 33.9 967.5 38.9C967.8 40.8 970.7 40 970.4 38.1C969.5 32.6 968.3 25.5 965.1 20.7C962.4 16.7 955.3 14.8 951.1 12.8C949.4 12 947.8 14.6 949.6 15.4Z" fill="#E8E8E8"/>
<path d="M916.8 66.7C926.1 67.4 935.5 67.9 944.8 68.1C946.7 68.2 946.7 65.2 944.8 65.1C935.4 64.8 926.1 64.4 916.8 63.7C914.8 63.5 914.8 66.5 916.8 66.7Z" fill="#E8E8E8"/>
<path d="M916.4 97C921.2 99 926 98.4 931.1 98.1C935 97.9 939.6 99.4 943.1 97.5C944.8 96.6 943.3 94 941.6 94.9C939.9 95.8 936.3 95 934.4 95C932.8 95 931.1 95.2 929.5 95.3C925.3 95.6 921.3 95.9 917.3 94.2C915.4 93.4 914.6 96.3 916.4 97Z" fill="#E8E8E8"/>
<path d="M946.3 67.9C953 67.4 959.7 67 966.4 66.5C968.3 66.4 968.3 63.4 966.4 63.5C959.7 64 953 64.4 946.3 64.9C944.4 65.1 944.4 68.1 946.3 67.9Z" fill="#E8E8E8"/>
<path d="M944.4 98.1C951.7 97.6 958.9 96.5 966 94.7C967.9 94.2 967.1 91.3 965.2 91.8C958.4 93.6 951.5 94.7 944.4 95.1C942.5 95.2 942.5 98.2 944.4 98.1Z" fill="#E8E8E8"/>
<path d="M923.2 29.5C930.7 29.5 938.1 29.8 945.5 30.1C947.4 30.2 947.4 27.2 945.5 27.1C938.1 26.7 930.6 26.5 923.2 26.5C921.3 26.5 921.3 29.5 923.2 29.5Z" fill="#E8E8E8"/>
<path d="M955 29.7C958.5 29.7 962.1 29.7 965.6 29.7C967.5 29.7 967.5 26.7 965.6 26.7C962.1 26.7 958.5 26.7 955 26.7C953.1 26.7 953.1 29.7 955 29.7Z" fill="#E8E8E8"/>
<path d="M1028.7 114.2C1028.1 112.7 1028.6 110.7 1030.2 110.1C1032 109.4 1033.8 110.8 1034.2 112.6C1034.6 114.5 1037.5 113.7 1037.1 111.8C1036.4 108.5 1032.8 106.1 1029.4 107.2C1026.3 108.2 1024.6 112 1025.8 115C1026.5 116.8 1029.4 116 1028.7 114.2Z" fill="#E8E8E8"/>
<path d="M1035.7 107.3C1035.2 106.3 1036.3 105.1 1037.3 105.1C1038.7 105.1 1039.7 106.7 1039.8 108C1039.9 109.9 1042.9 109.9 1042.8 108C1042.6 104.9 1040 101.6 1036.6 102.2C1033.6 102.7 1031.7 106.1 1033.1 108.9C1034 110.5 1036.5 109 1035.7 107.3Z" fill="#E8E8E8"/>
<path d="M1041.8 112.2C1041 109.3 1045.2 107.8 1046.3 110.7C1047 112.5 1049.9 111.7 1049.2 109.9C1048.2 107.2 1045.4 105.4 1042.5 106.3C1039.7 107.1 1038.2 110.3 1038.9 113C1039.5 114.9 1042.3 114.1 1041.8 112.2Z" fill="#E8E8E8"/>
<path d="M1043.7 103.4C1043.3 103.2 1043.3 102.6 1043.5 102.2C1043.8 101.5 1044.7 101.4 1045.4 101.5C1047.1 101.8 1048.2 103.4 1049.1 104.8C1050.1 106.4 1052.7 104.9 1051.7 103.3C1049.9 100.4 1046.7 97.3 1042.9 98.9C1040 100.2 1039.4 104.2 1042.1 106C1043.8 107.1 1045.3 104.5 1043.7 103.4Z" fill="#E8E8E8"/>
<path d="M1050.4 109.9C1050.1 108.7 1052.1 108.5 1052.8 108.9C1054 109.5 1054.6 111 1055.1 112.2C1055.8 114 1058.7 113.2 1058 111.4C1057 108.8 1055.2 105.7 1052 105.7C1049.3 105.7 1046.8 108 1047.5 110.8C1048 112.5 1050.8 111.7 1050.4 109.9Z" fill="#E8E8E8"/>
<path d="M1057.6 113.5C1058.1 110.9 1061.2 111 1061.7 113.5C1062 115.4 1064.9 114.6 1064.6 112.7C1064.2 110.4 1062.1 108.5 1059.7 108.4C1057.3 108.4 1055.2 110.3 1054.8 112.6C1054.4 114.6 1057.3 115.4 1057.6 113.5Z" fill="#E8E8E8"/>
<path d="M1052.1 103.1C1052 101.4 1054.3 101.3 1055.4 102C1056.8 102.9 1057.6 104.7 1058.3 106.2C1059.1 107.9 1061.7 106.4 1060.9 104.7C1059.6 102 1057.7 98.8 1054.4 98.5C1051.8 98.3 1048.9 100.2 1049.1 103C1049.2 105 1052.2 105 1052.1 103.1Z" fill="#E8E8E8"/>
<path d="M1057.9 109.3C1057.9 106.7 1061.1 105.9 1062.3 108.2C1063.2 109.9 1065.8 108.4 1064.9 106.7C1063.7 104.6 1061.2 103.4 1058.8 104C1056.4 104.6 1054.9 106.9 1054.9 109.4C1054.9 111.2 1057.9 111.3 1057.9 109.3Z" fill="#E8E8E8"/>
<path d="M1011 87.3C1013.3 98.1 1018.3 107.9 1025.6 116.3C1026.9 117.8 1029 115.6 1027.7 114.2C1020.7 106.2 1016.1 96.9 1013.9 86.5C1013.5 84.6 1010.6 85.4 1011 87.3Z" fill="#E8E8E8"/>
<path d="M1018.2 87.3C1041 88.9 1063.8 88.6 1086.6 86.5C1088.5 86.3 1088.5 83.3 1086.6 83.5C1063.9 85.6 1041 85.9 1018.2 84.3C1016.3 84.2 1016.3 87.2 1018.2 87.3Z" fill="#E8E8E8"/>
<path d="M1085.2 87.3C1085.4 97.3 1082.3 106.7 1075.9 114.4C1074.7 115.9 1076.8 118 1078 116.5C1084.9 108.2 1088.5 98.1 1088.2 87.3C1088.1 85.4 1085.1 85.4 1085.2 87.3Z" fill="#E8E8E8"/>
<path d="M1062.3 103.4C1061.6 102.2 1061.8 100.4 1063.1 99.6C1064.4 98.9 1066.1 99.6 1066.8 100.8C1067.7 102.5 1070.3 101 1069.4 99.3C1067.9 96.6 1064.3 95.4 1061.6 97C1058.9 98.6 1058.1 102.3 1059.7 104.9C1060.7 106.6 1063.3 105.1 1062.3 103.4Z" fill="#E8E8E8"/>
<path d="M1069.3 109.3C1068.5 108.9 1068.7 107.6 1069.4 107.2C1070.7 106.4 1072.1 107.9 1072.6 108.9C1073.4 110.6 1076 109.1 1075.2 107.4C1073.9 104.7 1069.9 102.8 1067.3 105C1065.2 106.8 1065.1 110.6 1067.7 111.9C1069.5 112.8 1071 110.2 1069.3 109.3Z" fill="#E8E8E8"/>
<path d="M1075.4 101.3C1074.4 100.8 1073.9 99.1001 1074.9 98.3001C1075.8 97.5001 1077.5 98.2001 1077.8 99.2001C1078.4 101 1081.3 100.3 1080.7 98.4001C1079.8 95.3001 1075.7 93.8001 1073.1 95.9001C1070.5 98.0001 1071.1 102.4 1073.9 103.9C1075.6 104.8 1077.1 102.2 1075.4 101.3Z" fill="#E8E8E8"/>
<path d="M1067.4 97.4C1067.4 93.6 1071.8 92.1 1074.2 95C1075.5 96.5 1077.6 94.3 1076.3 92.9C1072.1 88 1064.3 91.1 1064.4 97.5C1064.4 99.3 1067.4 99.3 1067.4 97.4Z" fill="#E8E8E8"/>
<path d="M1014.2 83.4001C1013.1 82.7001 1014.4 81.6001 1015.2 81.6001C1016.7 81.5001 1017.7 82.7001 1018.4 83.8001C1019.4 85.4001 1022 83.9001 1021 82.3001C1019.3 79.7001 1016.1 77.5001 1013 79.1001C1010.3 80.5001 1010.1 84.3001 1012.7 86.0001C1014.3 87.0001 1015.8 84.4001 1014.2 83.4001Z" fill="#E8E8E8"/>
<path d="M1018.1 88.5C1017.7 88.3 1017.5 87.8 1017.8 87.4C1018.4 86.6 1019.5 87.5 1019.9 88C1020.5 88.8 1020.5 90 1020.2 90.9C1020.1 91.2 1019.3 93.3 1019.2 93.3C1017.5 92.5 1016 95 1017.7 95.9C1020.2 97.1 1022.1 94.8 1022.9 92.6C1023.8 90 1023.6 86.8 1021.2 85.1C1019.4 83.8 1016.6 83.7 1015.3 85.7C1014.2 87.5 1014.5 90.2 1016.5 91.1C1018.4 91.9 1019.9 89.3 1018.1 88.5Z" fill="#E8E8E8"/>
<path d="M1022.1 83.6C1021.6 82.3 1023 80 1024.5 80.9C1025.7 81.6 1025.6 83.5 1024.7 84.3C1023.2 85.5 1025.3 87.6 1026.8 86.4C1029.5 84.2 1028.6 79.3 1025.4 78.1C1021.7 76.6 1017.7 80.8 1019.1 84.5C1019.9 86.1 1022.8 85.4 1022.1 83.6Z" fill="#E8E8E8"/>
<path d="M1024.6 90.6001C1024.2 89.1001 1025.9 88.2001 1027.1 89.0001C1028.5 90.0001 1028.1 91.9001 1027 92.9001C1025.6 94.3001 1027.8 96.4001 1029.1 95.0001C1031.7 92.3001 1031.6 87.7001 1027.9 86.0001C1024.4 84.4001 1020.6 87.6001 1021.6 91.3001C1022.2 93.2001 1025.1 92.4001 1024.6 90.6001Z" fill="#E8E8E8"/>
<path d="M1023.2 96.9C1023 96.6 1023.4 96.2 1023.7 96.2C1024.2 96.1 1024.6 96.5 1024.8 96.8C1025.7 98 1024.9 99.6 1024.3 100.8C1023.4 102.5 1026 104 1026.9 102.3C1028.5 99.4 1029 94.9 1025.2 93.4C1022.2 92.2 1019.1 95.5 1020.6 98.4C1021.5 100.1 1024.1 98.6 1023.2 96.9Z" fill="#E8E8E8"/>
<path d="M1023.1 106.8C1026.1 107.7 1028.7 105.8 1030.4 103.5C1031.2 102.5 1032 101.1 1032 99.8C1032 98.5 1031 97.2 1029.7 97C1027.8 96.7 1027 99.6 1028.9 99.9C1029.4 100 1027.5 102.4 1027.3 102.7C1026.4 103.6 1025.3 104.3 1024.1 103.9C1022.1 103.4 1021.3 106.3 1023.1 106.8Z" fill="#E8E8E8"/>
<path d="M1031.1 95.4C1031.1 94.3 1032.2 93 1033.5 93.4C1034.4 93.8 1034.9 95.1 1034.5 96C1033.6 97.7 1036.2 99.2 1037.1 97.5C1038.4 94.9 1037.2 91.4 1034.3 90.5C1031.2 89.6 1028.1 92.2 1028.1 95.4C1028.1 97.4 1031.1 97.4 1031.1 95.4Z" fill="#E8E8E8"/>
<path d="M1037.6 90.5C1037.3 89.1 1039.2 89.1 1039.9 89.6C1041.2 90.6 1041.1 92.3 1040.7 93.7C1040.2 95.6 1043.1 96.4 1043.6 94.5C1044.5 91.3 1043.6 87.4 1040.1 86.4C1037 85.5 1034.1 88.2 1034.7 91.3C1035.1 93.1 1038 92.3 1037.6 90.5Z" fill="#E8E8E8"/>
<path d="M1033.6 99.2C1036 102 1040.5 101.5 1042.5 98.6C1043.6 97 1041 95.5 1039.9 97.1C1038.9 98.5 1036.7 98.3 1035.7 97.1C1034.4 95.7 1032.3 97.8 1033.6 99.2Z" fill="#E8E8E8"/>
<path d="M1032.3 85.6999C1032.9 84.6999 1034.2 84.4999 1035.2 84.9999C1036.6 85.6999 1037.1 87.3999 1037.2 88.7999C1037.3 90.6999 1040.3 90.6999 1040.2 88.7999C1040 86.0999 1038.8 83.0999 1036 82.0999C1033.7 81.1999 1030.9 81.9999 1029.7 84.1999C1028.7 85.7999 1031.3 87.2999 1032.3 85.6999Z" fill="#E8E8E8"/>
<path d="M131 395.5C176.3 395.5 221.7 395.5 267 395.5C268.9 395.5 268.9 392.5 267 392.5C221.7 392.5 176.3 392.5 131 392.5C129.1 392.5 129.1 395.5 131 395.5Z" fill="#E8E8E8"/>
<path d="M249.5 394C249.5 406 249.5 418 249.5 430C249.5 431.9 252.5 431.9 252.5 430C252.5 418 252.5 406 252.5 394C252.5 392.1 249.5 392.1 249.5 394Z" fill="#E8E8E8"/>
<path d="M225.7 435.5C256.8 435.5 287.9 435.5 319 435.5C320.9 435.5 320.9 432.5 319 432.5C287.9 432.5 256.8 432.5 225.7 432.5C223.7 432.5 223.7 435.5 225.7 435.5Z" fill="#E8E8E8"/>
<path d="M920.3 455.5C967 455.5 1013.6 455.5 1060.3 455.5C1062.2 455.5 1062.2 452.5 1060.3 452.5C1013.6 452.5 967 452.5 920.3 452.5C918.4 452.5 918.4 455.5 920.3 455.5Z" fill="#E8E8E8"/>
<path d="M879 420.8C910.6 420.8 942.1 420.8 973.7 420.8C975.6 420.8 975.6 417.8 973.7 417.8C942.1 417.8 910.6 417.8 879 417.8C877.1 417.8 877.1 420.8 879 420.8Z" fill="#E8E8E8"/>
<path d="M960.2 422C960.2 432.2 960.2 442.4 960.2 452.7C960.2 454.6 963.2 454.6 963.2 452.7C963.2 442.5 963.2 432.3 963.2 422C963.2 420.1 960.2 420.1 960.2 422Z" fill="#E8E8E8"/>
<path d="M505.8 687.5C506.4 693.4 507 699.2 507.6 705.1C580.7 704.6 653.9 704.1 727 703.7C726.2 698.1 725.4 692.6 724.6 687C702.7 678.1 667.9 667 624 665.8C571 664.3 529.3 677.8 505.8 687.5Z" fill="white"/>
<path d="M507.3 706.2C580.4 706.2 653.4 706.2 726.5 706.2C730.4 706.2 730.4 700.2 726.5 700.2C653.4 700.2 580.4 700.2 507.3 700.2C503.4 700.2 503.4 706.2 507.3 706.2Z" fill="#161616"/>
<path d="M510.1 688.9C563.7 663.5 625.6 657.9 682.8 674.1C696.3 677.9 709.5 682.9 722.2 688.9C725.7 690.6 728.7 685.4 725.2 683.7C668.1 656.5 602.1 651.4 541.6 670.2C529.8 673.9 518.2 678.4 507 683.7C503.6 685.4 506.7 690.6 510.1 688.9Z" fill="#161616"/>
<path d="M502.9 687.4C502.9 691.6 502.9 695.8 502.9 700.1C502.9 704 508.9 704 508.9 700.1C508.9 695.9 508.9 691.7 508.9 687.4C508.9 683.5 502.9 683.5 502.9 687.4Z" fill="#161616"/>
<path d="M723.4 687.4C723.4 693 723.4 698.7 723.4 704.3C723.4 708.2 729.4 708.2 729.4 704.3C729.4 698.7 729.4 693 729.4 687.4C729.4 683.5 723.4 683.5 723.4 687.4Z" fill="#161616"/>
<path d="M616.5 705.3C616.5 776.4 616.5 847.5 616.5 918.6C616.5 922.5 622.5 922.5 622.5 918.6C622.5 847.5 622.5 776.4 622.5 705.3C622.5 701.5 616.5 701.5 616.5 705.3Z" fill="#161616"/>
<path d="M615.4 918.3C599 925.9 582.7 933.4 566.3 941C562.8 942.6 565.8 947.8 569.3 946.2C585.7 938.6 602 931.1 618.4 923.5C621.9 921.8 618.9 916.7 615.4 918.3Z" fill="#161616"/>
<path d="M618 922.3C636.5 930.4 655 938.5 673.5 946.6C677 948.1 680.1 943 676.5 941.4C658 933.3 639.5 925.2 621 917.1C617.5 915.6 614.5 920.8 618 922.3Z" fill="#161616"/>
<path d="M568.2 948.7C603.4 948.4 638.5 947.6 673.7 946.2C677.5 946 677.6 940 673.7 940.2C638.6 941.6 603.4 942.4 568.2 942.7C564.3 942.7 564.3 948.7 568.2 948.7Z" fill="#161616"/>
<path d="M575.3 708.3C589.2 723.8 602.1 740.1 613.8 757.2C616 760.4 621.2 757.4 619 754.2C607 736.6 593.8 719.9 579.5 704C577 701.2 572.8 705.4 575.3 708.3Z" fill="#161616"/>
<path d="M670.6 702.8C650.4 717.8 632.3 735.3 617.2 755.5C614.9 758.6 620.1 761.6 622.4 758.5C636.8 739.2 654.3 722.3 673.6 708C676.7 705.7 673.8 700.5 670.6 702.8Z" fill="#161616"/>
<path d="M393.2 851.6C395.6 872.9 397.9 894.2 400.3 915.5C365.1 944.6 349.1 961.7 352.3 966.8C356.1 972.8 386.1 962.6 442.5 935.9C439.6 908.5 436.7 881.1 433.7 853.7C420.2 853 406.7 852.3 393.2 851.6Z" fill="#161616" stroke="#161616" stroke-width="3"/>
<path d="M563.5 556.8C568.6 570.1 575.1 593.4 569.1 620.7C566 634.9 559.8 648.8 540.5 674.7C524.6 696 499.7 725.5 462.5 757.1C457.1 769.5 451.3 786.7 449 807.5C446 835 450.3 857.8 454.6 872.8C449.8 875.8 436.2 883.4 416.9 883.3C394.9 883.2 380 873 375.7 869.9C372.3 849.3 369.9 824.1 371.1 795.4C372.3 766.1 377 740.7 382.2 720.1C392.2 709.4 408.3 693 429.9 674.7C461 648.4 474.8 642.2 488 624.3C498 610.6 508.9 588.4 507.9 552.6C526.3 553.9 544.9 555.4 563.5 556.8Z" fill="#EC615B"/>
<path opacity="0.12" d="M550.4 557.2C538.4 563.9 544.9 589.2 542.7 613.5C540 642.9 525.3 662.7 504.7 690.5C478.9 725.3 449.1 745.8 429.6 756.9C424.8 799.1 420 841.3 415.2 883.5C419.6 883.4 424.8 882.9 430.6 881.6C440.8 879.3 448.7 875.3 454.2 872C452.4 866.8 450.2 859.4 448.9 850.3C447.4 840.2 447.6 832.6 447.9 822.9C448.3 811.4 448.6 800.7 451.8 786.8C453.4 779.5 456.3 769.4 461.4 757.9C468.4 751.6 475.5 745 482.6 738.2C497.9 723.5 509.3 712.6 522.5 697.3C544.5 672 554.4 654.5 557.2 649.7C561.9 641.2 564.5 636.6 566.8 629.5C574 607.7 571.1 588.4 569.7 579.9C568.7 573.7 566.9 565.8 563.4 556.8C559.7 555.7 554.7 554.8 550.4 557.2Z" fill="#3D3D3D"/>
<path opacity="0.16" d="M460.9 758.4C448.7 776 443.1 791.7 440.2 802.7C438.5 809.1 437.7 814.4 434.4 841.2C432.4 857.8 430.8 871.8 429.6 882.1C437.6 879.1 445.6 876 453.7 873C448.6 854.4 447.4 838.3 447.4 826.8C447.4 821.8 447.6 808.9 450.8 792.6C453.4 778.8 457.3 767.3 460.9 758.4Z" fill="#3D3D3D"/>
<path d="M485 857.5C487.4 878.8 489.7 900.1 492.1 921.4C456.9 950.5 440.9 967.6 444.1 972.7C447.9 978.7 477.9 968.5 534.3 941.8C531.4 914.4 528.5 887 525.5 859.6C512 858.9 498.5 858.2 485 857.5Z" fill="#161616" stroke="#161616" stroke-width="3"/>
<path d="M618.4 572.6C622.1 586.3 625.9 606.2 625 630.3C624.9 631.7 623.9 655.2 618.4 672.9C603 722.8 544.2 752.1 527.6 759.8C529 771.7 530.6 783.6 532.3 795.7C536 822 540 847.6 544.5 872.6C542.2 875 528.6 889 505.2 890.2C481.9 891.4 466.6 879 464 876.8C455.5 858 444.9 827 446.2 788.2C447 765.7 451.6 746.7 456.5 732.2C479.3 700.8 497.6 676.5 509.9 660.3C533.3 629.5 539.2 622.8 544.5 607.6C552.9 583.9 549.2 570.5 560.4 563.3C568.4 558.2 584.1 556.2 618.4 572.6Z" fill="#EC615B"/>
<path opacity="0.18" d="M591 582.8C578.5 599.4 583.4 615.8 577.9 636.9C570.2 666.7 552.3 686.8 526.9 715.3C514.7 728.9 503.5 739.3 495.2 746.4C502 793.7 508.9 841 515.7 888.2C519.1 887.7 524.1 886.6 529.5 883.8C536.7 880.1 541.3 875.1 543.7 872C542.7 865.5 541.7 858.9 540.8 852.4C536.2 821.5 531.8 790.5 527.5 759.5C533.3 756.7 541.5 752.5 551.1 746.9C561.9 740.5 571.5 734.8 582.2 725.4C587 721.2 594.6 714.4 602.4 703.5C606 698.5 618.6 680.4 622.6 656.4C623.5 651.1 624 644.7 624.3 641.4C624.5 639.5 625.5 627.3 625.3 616.8C625.2 608.2 624.1 593.1 618.5 573C616.9 571.6 614.5 569.9 611.3 569.5C602 568.3 594 578.8 591 582.8Z" fill="#3D3D3D"/>
<path opacity="0.16" d="M527.2 760.7C526 774.9 525 789.4 524.2 804.3C522.7 832.9 522.1 860.5 522.3 886.8C525.5 885.6 529.4 883.8 533.6 881.2C538 878.4 541.5 875.4 544.1 872.9C538.5 835.4 532.9 798 527.2 760.7Z" fill="#3D3D3D"/>
<path d="M504.2 365.8C498.1 368.2 489.3 372.7 481.8 381.2C479.4 384 472.7 392.1 466.8 420.5C460.8 449.3 457.4 476.1 457.4 476.1C456.2 485.7 455.1 495.2 448 499.3C443 502.1 436.5 501.6 431.9 499.6C427.1 497.6 424.8 493.9 420 486.6C416.5 481.2 414.2 477.6 413.7 472.6C413.3 468.5 414.4 466 416.5 460C420.8 447.4 423.3 439.8 423.1 431C423 427.5 422.8 418.2 417.5 415.6C415.9 414.8 413.4 414.5 411.9 415.6C410.3 416.8 410.7 419 410.5 423.8C410.3 430.4 410.1 433.7 408.4 435.4C405.6 438.2 399.9 436.9 396.5 436.1C393.9 435.5 384.3 433.2 379.7 425.2C378.2 422.5 378.8 422.1 376.2 405.4C375.2 398.8 374.2 393.6 371.7 393.1C369.6 392.7 367.8 395.6 365.8 394.8C363.8 394 364.4 390.6 362.7 390C360.9 389.4 359.5 392.7 356.4 392.7C353.9 392.7 353.2 390.7 351.5 391C349.1 391.5 348.1 395.9 347.3 399.5C346.7 402.2 346.1 406.3 346.3 411.4C344.7 411.7 342.6 412.4 341.8 414.1C340.8 416 342 417.8 343.2 422C344.9 427.6 343.9 427.9 345.3 431.9C345.7 433 346.8 436.2 350.9 441.5C354.2 445.9 358.5 451.4 365.9 456.2C375.6 462.4 385.3 463.7 390.7 464.1C391.8 466.3 393.4 469.7 394.9 474C398.3 483.8 398.2 490.2 399.1 495.8C402 514.8 415.1 527.9 417.6 530.3C421.9 534.5 428.8 541 440 543.3C442.3 543.8 456.4 546.4 468.6 538.2C472.4 535.7 476.3 531.9 482.6 519.8C491.5 502.7 495.1 488 496.2 483.6C499.6 469.9 503.8 452.2 505.6 427.3C506.8 411.4 507.1 390.5 504.2 365.8Z" fill="white"/>
<path d="M496.4 366.9C481 375.2 472 390.8 467.4 407.3C461.6 428 459.8 450.1 456.6 471.3C455.2 480.4 454 495.5 443.7 499.4C434 503.1 423.6 490.5 419.9 482.9C415.1 473.1 416.2 463.1 419.4 453C422.1 444.5 425.4 435.9 424.4 426.7C423.9 422.7 420.6 410.6 414.5 411.9C411.5 412.5 410.1 417.1 409.5 419.6C408.6 423.1 409.5 438.5 403 436.7C401.1 436.2 400.3 439.1 402.2 439.6C409.8 441.8 411.2 433.1 411.6 427.6C411.8 424.7 411.9 421.7 412.8 419C414.3 414.6 417.5 416.5 419.2 419.6C421.8 424.3 422 430.1 421.3 435.3C419.9 445.5 414.7 454.7 413.7 464.9C412.9 472.8 415 480.8 419.1 487.6C423 494 429.3 500.3 436.6 502.8C444.1 505.4 450.9 499.1 454.3 492.9C459.1 484.2 459.5 473.3 460.9 463.7C462.6 452.4 464.2 441.1 466 429.8C469.6 406.9 475.9 381.5 498 369.6C499.7 368.6 498.1 366 496.4 366.9Z" fill="#161616"/>
<path d="M501.3 449C498.9 468.6 494.5 488.1 487.6 506.7C481.5 523.2 470.3 541 450.9 542.5C432.4 543.9 417.1 530.8 408.8 515.3C404.3 507 401.6 497.9 399.4 488.8C397.4 480.3 396.6 471.1 392.1 463.5C391.1 461.8 388.5 463.3 389.5 465C393.8 472.3 394.5 481.4 396.5 489.6C398.3 497.2 400.5 504.7 403.7 511.8C409.4 524.6 418.8 536.4 432 542C444.2 547.2 458 546.6 469 538.8C480.5 530.7 486.8 517.9 491.4 505C497.8 486.9 502 468 504.3 448.9C504.5 447.1 501.5 447.1 501.3 449Z" fill="#161616"/>
<path d="M404.6 436.8C397.6 437.3 387.5 432.4 382.8 427.3C376.5 420.5 379 412.7 378.5 404.4C378 397.2 372.2 383.8 365.2 394.3C364.1 395.9 366.7 397.4 367.8 395.8C371.4 390.4 373.7 397.1 374.3 398.7C374.6 399.7 374.9 400.7 375.1 401.7C375.8 405.4 375.3 409 375.2 412.7C375 417.8 375.7 422.5 378.6 426.8C381.1 430.5 384.8 433.2 388.7 435.2C393.4 437.6 399.2 440.2 404.6 439.8C406.5 439.7 406.5 436.7 404.6 436.8Z" fill="#161616"/>
<path d="M375.6 429.8C372.4 424.8 369.4 419.6 368.4 413.7C367.4 408 368.4 402.2 367.2 396.6C366.6 393.8 365.4 389.5 362.3 388.7C359.3 388 356.9 391 355.9 393.4C355.1 395.2 357.7 396.7 358.5 394.9C358.9 392.9 360.4 392.4 363 393.4C363.5 394.4 363.9 395.5 364.1 396.6C364.6 398.5 364.7 400.5 364.8 402.5C364.9 405.9 364.8 409.4 365.2 412.8C366.1 419.6 369.3 425.6 373 431.3C374 432.9 376.6 431.4 375.6 429.8Z" fill="#161616"/>
<path d="M366.5 434.7C362.7 429.5 361.3 422.1 360.2 415.8C359.1 409.5 359.7 402.8 358.3 396.5C357.7 393.7 356.2 389.3 352.6 389.3C348.1 389.2 346.8 394.6 346.2 398C345.9 399.9 348.8 400.7 349.1 398.8C349.2 397.8 349.4 396.8 349.6 395.9C352.6 392.4 354.4 392.4 355 395.9C355.8 398.2 355.8 400.7 355.9 403.1C356.1 406.7 356.3 410.4 356.9 414C358 421.3 359.5 430.2 363.9 436.2C365 437.8 367.6 436.3 366.5 434.7Z" fill="#161616"/>
<path d="M393.1 461.5C369.5 462 349.7 446.1 344.7 423.1C344.3 421.2 341.4 422 341.8 423.9C347.1 448.2 368.3 465 393.1 464.5C395 464.5 395 461.5 393.1 461.5Z" fill="#161616"/>
<path d="M361.9 437.4C358.6 432.4 356.3 427 353.9 421.5C352.4 418.1 350.7 412.4 347.1 410.6C344.3 409.2 342.1 410.8 341.2 413.5C339.8 417.6 340.9 422.1 342.9 425.8C343.8 427.5 346.4 426 345.5 424.3C344.4 422.4 341.6 411 347.1 414.6C348.8 415.7 350.2 420.5 351 422.2C353.6 427.9 355.9 433.6 359.4 438.8C360.4 440.5 363 439 361.9 437.4Z" fill="#161616"/>
<path d="M346.2 397.3C345.8 402.3 345.5 407.2 345.1 412.2C345 414.1 348 414.1 348.1 412.2C348.5 407.2 348.8 402.3 349.2 397.3C349.4 395.4 346.4 395.4 346.2 397.3Z" fill="#161616"/>
<path opacity="0.11" d="M343.4 415C344.8 414.5 347.2 424 355 434.1C358.3 438.4 367.9 450.5 384.4 455C392.8 457.3 400.1 456.9 404.4 456.4C403.6 460.9 398.1 494.9 419.7 514.7C422.2 517 438.5 531.4 453.2 526.3C459.8 524 463.5 518.7 466.2 514.5C481.2 490.7 483.5 466.1 490.8 431.9C495.3 410.9 499.1 392.9 502 393.2C505.6 393.5 507 423.7 503.8 450.8C502.2 464.6 500.2 480.9 491.7 500.7C482.6 521.9 479.2 532.9 468 538.9C453.6 546.7 434.4 543.8 422 534.6C414.4 528.9 411.2 522.2 405.2 509.1C400.2 498.3 394.7 483.5 391.5 464.9C388.9 464.5 385.5 463.9 381.5 462.6C376.7 461.1 368.9 458.6 361.2 452.4C358.7 450.4 349.9 442.8 345.5 429.9C343.2 423.1 342.2 415.4 343.4 415Z" fill="#3D3D3D"/>
<path d="M620 366.5C626 368.9 634.6 373.4 641.8 381.9C644.2 384.7 650.7 392.8 656.5 421.2C662.3 450 665.7 476.8 665.7 476.8C666.9 486.4 667.9 495.9 674.9 500C679.8 502.8 686.2 502.3 690.6 500.3C695.2 498.3 697.6 494.6 702.2 487.3C705.7 481.9 707.9 478.3 708.3 473.3C708.7 469.2 707.6 466.7 705.6 460.7C701.4 448.1 698.9 440.5 699.1 431.7C699.2 428.2 699.4 418.9 704.6 416.3C706.2 415.5 708.6 415.2 710.1 416.3C711.7 417.5 711.3 419.7 711.5 424.5C711.7 431.1 711.9 434.4 713.5 436.1C716.2 438.9 721.8 437.6 725.1 436.8C727.6 436.2 737 433.9 741.5 425.9C743 423.2 742.4 422.8 744.9 406.1C745.9 399.5 746.8 394.3 749.3 393.8C751.4 393.4 753.1 396.3 755.1 395.5C757 394.7 756.4 391.3 758.2 390.7C760 390.1 761.3 393.4 764.3 393.4C766.7 393.4 767.4 391.4 769.1 391.7C771.4 392.2 772.4 396.6 773.2 400.2C773.8 402.9 774.4 407 774.2 412.1C775.8 412.4 777.8 413.1 778.6 414.8C779.5 416.7 778.5 418.5 777.2 422.7C775.6 428.3 776.5 428.6 775.2 432.6C774.8 433.7 773.7 436.9 769.7 442.2C766.4 446.6 762.3 452.1 755 456.9C745.5 463.1 736 464.4 730.8 464.8C729.7 467 728.1 470.4 726.7 474.7C723.4 484.5 723.4 490.9 722.6 496.5C719.8 515.5 707 528.6 704.5 531C700.3 535.2 693.6 541.7 682.7 544C680.5 544.5 666.7 547.1 654.7 538.9C651 536.4 647.2 532.6 641 520.5C632.4 503.4 628.7 488.7 627.7 484.3C624.4 470.6 620.3 452.9 618.5 428C617.5 412.2 617.2 391.2 620 366.5Z" fill="white"/>
<path d="M626.2 370.2C645.5 380.9 652.7 402.7 656.2 423.2C658.1 434.3 659.6 445.6 661.3 456.8C662.8 467.3 663.4 478.8 666.9 488.9C669.1 495.3 674.1 503.1 681.4 504.1C688.4 505.1 696.1 497.9 700.1 492.9C705 486.9 708 479.4 708.6 471.7C709.4 461.6 705.1 452.3 702.5 442.7C701 437.2 700.1 431.5 701.3 425.9C701.8 423.4 702.6 420 704.6 418.2C708.9 414.2 709.9 421 710.3 424C711 429.5 710.3 443.1 719.8 440.4C721.7 439.9 720.9 437 719 437.5C712.8 439.3 713.5 425.6 713.1 422.7C712.7 419.8 711.8 415.6 709.3 413.6C704.6 409.9 700.2 419.2 699.1 422.4C693.1 440.8 709.1 457.8 704.9 476.4C702.8 485.6 697 493.9 689 498.8C676.1 506.6 669.6 490 667.8 480C664.1 459.1 662.4 437.9 658.2 417.1C654.3 397.7 646 377.8 627.8 367.8C626 366.7 624.5 369.3 626.2 370.2Z" fill="#161616"/>
<path d="M619.9 449.8C621.9 466.5 625.3 482.9 630.3 499C634.6 512.8 639.9 527.4 651.2 537.2C661.1 545.8 674 548.6 686.5 544.5C699.4 540.3 709.1 530.1 715.5 518.4C719.6 510.8 722.4 502.5 724.5 494.1C726.8 484.9 727.4 474.3 732.2 465.9C733.2 464.2 730.6 462.7 729.6 464.4C725.2 472 724.5 481.2 722.5 489.7C720.4 498.8 717.7 507.9 713.3 516.2C705.3 531.4 690.5 544.8 672.2 543.4C653.1 541.9 642.3 523.8 636.4 507.6C629.7 489 625.3 469.5 623 449.9C622.7 447.9 619.7 447.8 619.9 449.8Z" fill="#161616"/>
<path d="M717.4 440.5C722.5 440.9 727.7 438.4 732.2 436.2C736.4 434.2 740.2 431.4 742.9 427.4C745.6 423.4 746.4 419 746.3 414.3C746.2 410.7 745.7 407.2 746.1 403.7C746.3 402.2 746.6 400.8 747.1 399.4C747.7 397.6 750 391.2 753.4 396.5C754.4 398.1 757 396.6 756 395C749.2 384.4 743.4 398.1 743 405.1C742.5 413.3 745 421.1 738.8 428C734.2 433.1 724.4 438.1 717.5 437.5C715.5 437.4 715.5 440.4 717.4 440.5Z" fill="#161616"/>
<path d="M748.3 432C751.8 426.6 754.8 420.8 755.8 414.3C756.3 411.2 756.3 408.1 756.3 404.9C756.3 403 756.4 401.2 756.7 399.3C756.8 398.3 757 397.4 757.2 396.5C757.4 393.3 759.1 392.8 762.3 395.2C763 397 765.9 396.2 765.2 394.4C764.3 392.1 762.5 389.3 759.7 389.2C756.2 389.1 754.8 393.8 754.2 396.5C752.9 401.9 753.7 407.4 753 412.9C752.2 419.4 749.2 425.1 745.7 430.5C744.7 432.1 747.3 433.6 748.3 432Z" fill="#161616"/>
<path d="M757.2 437C761.6 430.9 763 422 764.1 414.8C764.6 411.2 764.9 407.6 765 403.9C765.1 401.5 765.1 399 765.9 396.7C766.4 393.3 768.2 393.3 771.1 396.7C771.3 397.7 771.5 398.6 771.6 399.6C771.9 401.5 774.8 400.7 774.5 398.8C774 395.5 772.8 390.2 768.5 390.1C764.8 390 763.3 394.4 762.7 397.3C761.4 403.3 762 409.6 761 415.7C759.9 422.2 758.6 430 754.7 435.5C753.5 437 756.1 438.5 757.2 437Z" fill="#161616"/>
<path d="M728.6 465.3C753.3 465.8 773.7 448.6 778.8 424.7C779.2 422.8 776.3 422 775.9 423.9C771.1 446.5 752 462.8 728.6 462.3C726.7 462.3 726.7 465.3 728.6 465.3Z" fill="#161616"/>
<path d="M761.7 439.6C765.2 434.3 767.4 428.4 770 422.6C770.8 420.9 772 416.3 773.7 415.3C779.2 411.8 776.1 423.4 775.2 425C774.3 426.7 776.9 428.2 777.8 426.5C779.7 423.1 782.3 408.2 774.2 411.1C770.5 412.4 768.9 418 767.5 421.1C764.9 426.9 762.7 432.7 759.2 438.1C758 439.7 760.6 441.2 761.7 439.6Z" fill="#161616"/>
<path d="M771.4 398C771.8 403 772.1 407.9 772.5 412.9C772.6 414.8 775.6 414.8 775.5 412.9C775.1 407.9 774.8 403 774.4 398C774.3 396.1 771.3 396.1 771.4 398Z" fill="#161616"/>
<path opacity="0.13" d="M628.6 386.1C630.8 399.2 634.6 421.9 639.2 450.5C646.7 496.5 648.9 512 661 517.8C671.9 523 687.2 518.8 696.4 511.3C715.8 495.7 705.6 468.4 724.7 457.6C733.2 452.8 738.1 456.4 750.1 448.7C759 443 764.6 435.6 767.2 432.2C774.2 422.9 775.6 414.1 777.2 414.5C778.5 414.8 778.3 420.7 777.7 424.8C777.4 427 776 434.8 769.7 443.4C761.5 454.6 750.7 459.4 746 461.1C740 463.3 734.6 464 730.9 464.2C730.1 466.3 729 469.6 727.8 473.7C722.6 491.2 724 495 720.3 505.4C718.4 510.8 714.2 520.3 705.7 529.3C702.2 533 697.5 537.9 689.5 541.3C687.5 542.2 680.1 545.3 672 544.6C654 543.1 642.8 523.6 638.8 516.7C636 511.8 635.2 509.3 626.4 477.7C611.6 424.8 622.7 464 616.7 442C608 410.4 605.3 402.9 609.8 395.9C612.3 392.5 617.1 387.9 628.6 386.1Z" fill="#3D3D3D"/>
<path d="M496.8 371.5C487.5 385 487.2 402.1 486.8 425.8C486.4 449.4 490.2 465.9 493.5 482.4C497.9 504.4 503.2 536.1 506.8 576.5C524.7 581.2 549.8 585.4 579.5 583.2C594.9 582.1 608.5 579.5 620 576.5C620.2 542.6 622.7 515.4 625 497C628 472.8 630.2 465.3 631.7 444.3C634.4 404 635.8 383.8 626.2 369.8C602.2 335.2 521.3 335.8 496.8 371.5Z" fill="white" stroke="#161616" stroke-width="3"/>
<path opacity="0.09" d="M577.2 346.6C586.7 389.6 594 452 579.6 523.8C575.1 546.3 569.1 566.6 562.5 584.6C571.7 583.8 581.6 582.7 592 581.1C601.7 579.6 610.7 577.8 619.2 575.8C619.3 567.3 619.7 554.3 621 538.6C622.8 516.5 624.7 508.5 629.9 471.3C635 434.3 636.5 418.2 634 397.5C631.8 378.6 628.2 371.7 624.6 366.8C610.4 348 584.6 346.7 577.2 346.6Z" fill="#3D3D3D"/>
<path opacity="0.09" d="M628 372.6C626.4 372.6 626.4 385.7 622.1 415.1C619.7 431.9 616.7 447 610.9 477.1C607.1 496.5 605.2 506.2 604.4 509.6C599.9 527.5 590.8 553.1 570.1 582.8C586 580.6 602 578.5 617.9 576.3C619.4 556.5 620.9 539.5 622 526.1C624.4 499.1 625.6 485.5 627.3 469.4C630.6 439.3 631.5 438.4 632 425.7C633.2 398.4 630.2 372.6 628 372.6Z" fill="#3D3D3D"/>
<path d="M506.7 238.1C500.5 250.9 500.8 262.1 501.4 283.6C501.9 304.3 502.3 319.9 512.6 327.3C522.3 334.3 532 327.7 541.8 337.3C543.6 339 551.1 346.4 550.4 355.3C550.1 359.4 548.2 361.6 549.5 364.7C551.6 369.6 558.8 370.7 560.4 370.9C567.7 372 573.3 368.4 574.9 367.4C577.9 365.4 579.7 363.1 580.5 362.1C588 352.1 590.7 337 594.7 328.1C603.1 309.4 618.9 315.3 628.1 296.5C635.4 281.4 631.2 265.4 629.6 259.3C625.3 243.1 615.7 233.3 607.5 224.8C595.4 212.3 585.5 202.3 570.6 199.7C544.7 195.2 517.6 215.5 506.7 238.1Z" fill="white"/>
<path d="M551.2 309C551.9 308.7 552.6 309.8 554.6 311.1C558.2 313.4 563.2 314.4 567.5 313.3C571.5 312.3 574.4 309.5 576.2 307.7C579.2 304.7 579.8 302.7 581.1 302.9C583 303.2 584.6 308.5 582.9 312.6C581.9 315 580.1 316.4 578.2 317.8C577.3 318.5 573.3 321.2 567.4 321.8C564 322.1 561.5 321.6 559.5 321.2C556.4 320.6 554.8 320.3 553.5 319.1C549.9 316.2 549.7 309.7 551.2 309Z" fill="black"/>
<path d="M508.4 256.7C512.3 291.5 525.7 329.4 561 343.2C562.8 343.9 563.6 341 561.8 340.3C527.9 327.1 515.2 290 511.4 256.7C511.1 254.8 508.1 254.8 508.4 256.7Z" fill="#161616"/>
<path d="M616.7 256.9C612.4 291.7 597.4 327.8 562 340.5C560.2 341.1 561 344 562.8 343.4C599.6 330.2 615.3 293.2 619.7 256.9C619.9 255 616.9 255 616.7 256.9Z" fill="#161616"/>
<path d="M557.8 262.7C557 273.6 557.1 284.6 558.4 295.5C558.6 297.4 558.4 300.3 560.9 300.6C563.4 300.9 566.7 297 568.3 295.5C569.7 294.2 567.6 292.1 566.2 293.4C565.6 293.9 561.7 297.6 561.4 297.4C561.3 297.4 561.3 294.1 561.2 293.6C560.8 290.2 560.6 286.7 560.4 283.3C560.1 276.4 560.3 269.5 560.8 262.7C561 260.7 558 260.8 557.8 262.7Z" fill="#161616"/>
<path d="M528.1 268.7C534.2 265.1 541.4 265.5 547.3 269.5C548.9 270.6 550.4 268 548.8 266.9C542.1 262.3 533.6 262.1 526.6 266.1C525 267.1 526.5 269.7 528.1 268.7Z" fill="#161616"/>
<path d="M582.4 268.7C588.5 265.1 595.7 265.5 601.6 269.5C603.2 270.6 604.7 268 603.1 266.9C596.4 262.3 587.9 262.1 580.9 266.1C579.2 267.1 580.7 269.7 582.4 268.7Z" fill="#161616"/>
<path d="M552.3 316.8C549.5 310.5 551.2 308.1 557.4 309.6C557.8 309.9 558.2 310.1 558.6 310.4C559.9 310.8 560.1 311.4 561.5 311.8C563.4 312.3 565.4 312 567.2 311.2C570.2 310 572.2 307.6 575 306C577.5 304.5 578.9 304.2 581.3 306.1C584.3 308.6 583.6 311.4 581.4 314.3C580.2 315.8 582.8 317.3 584 315.8C586.9 312 587.6 305.1 582.7 302.4C576.9 299.3 572.3 305.1 567.9 307.5C562.3 310.6 560.6 306.4 555.7 305.7C553.5 305.4 551.4 306.3 549.8 307.9C546.4 311.3 546.5 317.2 551 319.5C552.5 320.3 554 317.7 552.3 316.8Z" fill="#161616"/>
<path d="M549.4 317.7C558.3 328.7 576.3 323.7 584.5 314.7C585.8 313.3 583.7 311.1 582.4 312.6C575.2 320.5 559.4 325.4 551.6 315.6C550.3 314 548.2 316.2 549.4 317.7Z" fill="#161616"/>
<path d="M532.5 280.2C532.6 280.1 532.7 280 532.7 280C533.3 279.4 533.3 278.5 532.7 277.9C532.1 277.3 531.2 277.3 530.6 277.9C530.5 278 530.4 278.1 530.4 278.1C529.8 278.7 529.8 279.6 530.4 280.2C531 280.8 532 280.8 532.5 280.2Z" fill="#161616"/>
<path d="M541.1 276.3C541.1 276.4 541.1 276.5 541.1 276.5C541.1 277.3 541.8 278 542.6 278C543.4 278 544.1 277.3 544.1 276.5C544.1 276.4 544.1 276.3 544.1 276.3C544.1 275.5 543.4 274.8 542.6 274.8C541.8 274.9 541.1 275.5 541.1 276.3Z" fill="#161616"/>
<path d="M539.9 284.2C539.9 284.3 539.9 284.4 539.9 284.4C539.9 285.2 540.6 285.9 541.4 285.9C542.2 285.9 542.9 285.2 542.9 284.4C542.9 284.3 542.9 284.2 542.9 284.2C542.9 283.4 542.2 282.7 541.4 282.7C540.6 282.7 539.9 283.3 539.9 284.2Z" fill="#161616"/>
<path d="M586.2 273.2C586.1 273.3 586 273.4 586 273.4C585.4 274 585.4 274.9 586 275.5C586.6 276.1 587.5 276.1 588.1 275.5C588.2 275.4 588.3 275.3 588.3 275.3C588.9 274.7 588.9 273.8 588.3 273.2C587.8 272.6 586.8 272.6 586.2 273.2Z" fill="#161616"/>
<path d="M596.2 272.8C596.2 273 596.2 273.1 596.2 273.3C596.2 274.1 596.9 274.8 597.7 274.8C598.5 274.8 599.2 274.1 599.2 273.3C599.2 273.1 599.2 273 599.2 272.8C599.2 272 598.5 271.3 597.7 271.3C596.9 271.3 596.2 272 596.2 272.8Z" fill="#161616"/>
<path d="M593.8 281.8C593.8 281.9 593.8 282 593.8 282C593.8 282.8 594.5 283.5 595.3 283.5C596.1 283.5 596.8 282.8 596.8 282C596.8 281.9 596.8 281.8 596.8 281.8C596.8 281 596.1 280.3 595.3 280.3C594.5 280.3 593.8 280.9 593.8 281.8Z" fill="#161616"/>
<path d="M528.4 250.8C532.2 245 539.3 243.3 545.4 246.5C547.1 247.4 548.6 244.8 546.9 243.9C539.2 239.9 530.6 242.1 525.8 249.3C524.7 250.9 527.3 252.4 528.4 250.8Z" fill="#161616"/>
<path d="M583 245.6C589.2 240.5 596.9 244.2 602 248.9C603.4 250.2 605.5 248.1 604.1 246.8C597.7 240.9 588.4 237.2 580.9 243.5C579.4 244.7 581.5 246.8 583 245.6Z" fill="#161616"/>
<path d="M546.7 335.9C548.5 345.1 548.8 354.3 547.8 363.6C547.6 365.5 550.6 365.5 550.8 363.6C551.8 354 551.4 344.5 549.5 335.1C549.2 333.2 546.3 334 546.7 335.9Z" fill="#161616"/>
<path d="M580.3 332.2C578.6 342.2 578.2 352.3 579.3 362.4C579.5 364.3 582.5 364.3 582.3 362.4C581.2 352.6 581.5 342.8 583.2 333C583.5 331.1 580.6 330.3 580.3 332.2Z" fill="#161616"/>
<path d="M548.4 363.7C547.6 366.1 550.8 368.2 552.4 369.4C555.5 371.7 559.3 373.1 563.1 373.3C570.8 373.8 579.2 369.8 582 362.5C582.7 360.7 579.8 359.9 579.1 361.7C576.9 367.3 570.3 370.4 564.6 370.4C561.8 370.4 559.1 369.8 556.6 368.5C556 368.2 551 365.3 551.2 364.5C551.9 362.6 549 361.8 548.4 363.7Z" fill="#161616"/>
<path d="M548.2 339.3C553.2 342.7 558.9 346 565.1 345.1C571.3 344.2 576.9 339.5 581.5 335.6C583 334.3 580.8 332.2 579.4 333.5C575.4 336.9 570.1 341.4 564.7 342.1C559.1 342.9 554.2 339.9 549.7 336.8C548.1 335.6 546.6 338.2 548.2 339.3Z" fill="#161616"/>
<path d="M549.4 341.7C552.6 347.2 558.6 347.5 564.3 346.3C570.4 345.1 577.8 342.7 581.1 337C582.1 335.3 579.5 333.8 578.5 335.5C574.7 342.2 556.6 348.3 551.9 340.2C551 338.5 548.4 340 549.4 341.7Z" fill="#161616"/>
<path d="M550.4 342.4C558.4 352.5 575.5 349.4 581.3 338.5C582.2 336.8 579.6 335.3 578.7 337C573.7 346.4 559.3 348.9 552.5 340.3C551.3 338.8 549.2 340.9 550.4 342.4Z" fill="#161616"/>
<path d="M515.7 292.6C506.8 297.3 496.1 275.2 511.4 273.4C513.3 273.2 513.3 270.2 511.4 270.4C504.2 271.2 498.9 277.5 500.8 284.9C502.6 291.5 510.2 298.8 517.2 295.2C518.9 294.3 517.4 291.7 515.7 292.6Z" fill="#161616"/>
<path d="M616.6 271.8C619.7 270.3 622.8 275.6 623.4 277.7C624.2 280.4 623.8 283.3 623 285.9C620.9 292.9 616.2 294.1 609.6 293.5C607.7 293.3 607.7 296.3 609.6 296.5C613.7 296.9 618.5 297.2 621.8 294.1C624.8 291.4 626.4 286.4 626.7 282.5C627.2 276.8 622.5 265.5 615.1 269.2C613.4 270.1 614.9 272.7 616.6 271.8Z" fill="#161616"/>
<path d="M546.4 185.4C535.1 188.5 522 192.2 511.7 202.8C500.6 214.2 498.1 228.3 496.7 235.9C495.6 241.8 495.8 246.5 495.8 246.5C495.8 252.8 496.9 255.3 497.2 261.9C497.2 261.9 497.4 266.7 496.7 273.3C496.3 276.7 491.5 292.9 483.7 310.3C477.9 323.3 474.6 324 472.7 332.3C471.7 336.7 468.4 351 477 364.2C487.4 380.1 506.3 381.1 507.7 381.1C527 381.8 538.6 367.6 540.4 365.4C545.4 359.1 547.4 352.6 548.3 348.6C548.1 346.2 547.9 343.6 547.5 341C547.2 339.1 546.9 337.2 546.6 335.4C545.6 334.7 544.3 333.7 542.8 332.5C536.1 327 532 321.7 529.8 318.7C523.2 309.8 519.3 300.8 517.2 294.9C516.4 295.3 515.2 295.9 513.6 296C508.1 296.4 503 291.3 501.3 286.1C500.9 284.8 500 282 501.1 278.8C502.1 276.1 504.1 274.5 505.2 273.6C507.3 271.9 509.4 271.2 510.7 270.9C510.2 267.5 509.6 264.1 509.1 260.7C509.4 259 509.9 256.4 511.4 253.6C515.7 245.4 522.6 244.7 539.9 234.9C549.9 229.2 555.2 225.1 559.7 219.4C561.6 217 562.9 214.9 563.8 213.5C565 215.9 566.8 219.4 569.7 223.1C572.8 227.1 576.1 230 581.3 234C591.8 242 603.1 248.8 604.5 249.7C612.2 254.3 616.2 256.2 617.7 260.9C618.8 264.5 617.9 268 617 270.3C618.2 270.3 621.8 270.3 623.9 272.7C624.6 273.5 624.9 274.4 625.3 275.8C625.5 276.5 626.4 279.1 626.4 282.1C626.4 283.9 626.3 290 621.5 293.8C616.5 297.8 610.3 296.5 609.5 296.3C607.5 301.4 604.3 308.1 599.3 315.1C593.7 322.8 587.6 328.3 583 331.8C582.4 336.5 581.8 341.6 581.6 347C581.4 350.5 581.4 353.8 581.4 357C582.1 359.2 583.4 362.2 585.7 365.2C594.5 376.6 610 376.9 613.9 377C625.6 377.3 634.3 372.7 640.1 369.7C644.2 367.5 649.8 364.6 655.1 358.8C663.9 349.3 666.2 338.7 667.2 334.2C670.5 318.6 666.1 305.9 663.8 299.4C658.8 285.5 654.5 285.6 646 270.3C636.4 252.7 640.3 249.3 627.6 218.2C620.5 200.8 616 193.9 608.9 188.1C605.7 185.5 598.1 179.6 587.5 178.5C584.1 178.2 581.6 178.5 567.7 181.2C554.6 183.6 548.2 184.9 546.4 185.4Z" fill="#5222D0"/>
<path d="M564.5 214.5C564.4 214.3 564.3 214.2 564.3 214C564.2 214.6 564.1 215.2 564.1 215.8C564.3 215.7 564.4 215.5 564.6 215.4C564 215.5 563.4 215.6 562.8 215.6C564.8 216.5 567 220.9 568.5 222.7C570.6 225.2 572.7 227.6 575 229.9C579.1 234 583.7 237.7 588.5 241C598.8 248.1 617 253.2 617.6 268.2C617.7 270.1 620.7 270.1 620.6 268.2C620.1 254 606.1 248.2 595.6 242C588.9 238.1 582.7 233.3 577.2 227.8C574.2 224.8 571.4 221.7 568.9 218.3C567.6 216.6 566.4 213.8 564.4 213C563.7 212.7 563.1 212.8 562.6 213.2C562.4 213.3 562.3 213.5 562.1 213.6C561.6 214.1 561.6 214.8 561.9 215.4C562 215.6 562.1 215.7 562.1 215.9C562.7 217.7 565.2 216.2 564.5 214.5Z" fill="#5222D0"/>
<path d="M538.5 187.5C520.9 191.7 505.8 204.4 498.9 221.2C489.5 244 499.4 269.5 490.4 292.5C483 311.7 465.1 331.2 471.4 353.3C475.8 368.8 490.1 381 506.2 382.4C526.6 384.2 544.5 369 548.4 349.4C548.8 347.5 545.9 346.7 545.5 348.6C542 366.2 526.8 380 508.4 379.5C492.1 379.1 476.7 366 473.7 349.9C469.9 329.1 486.9 310.8 493.7 292.6C501.2 272.6 494.6 251.5 499 231.1C503.3 211.1 519.6 195.2 539.3 190.5C541.2 189.9 540.4 187 538.5 187.5Z" fill="#5222D0"/>
<path d="M562.3 185.1C570.2 181.4 579.1 179.3 587.8 180.3C599.6 181.6 609 189.4 615.9 198.6C629.2 216.5 628.8 239.7 639 259.1C647.9 276.2 661.1 291.6 665.8 310.6C671 332 662.1 354.6 643.9 366.8C633.6 373.7 620.9 377.4 608.6 374.3C603 372.9 597.6 370.6 592.8 367.4C589.2 365 583.1 360.7 584.1 355.6C584.5 353.7 581.6 352.9 581.2 354.8C579.7 362.5 588 368.2 593.7 371.4C603 376.7 613.7 379.4 624.4 377.7C647 374.1 665.4 355 669.4 332.8C673.6 309.5 661 289.7 649.3 270.7C642.7 259.9 636.7 249 633.6 236.6C630.3 223.6 628 210.9 620.4 199.6C613.6 189.5 604 180.1 591.6 177.6C581.1 175.5 570.3 177.8 560.8 182.3C559 183.4 560.5 186 562.3 185.1Z" fill="#5222D0"/>
<path d="M562.5 203.9C564.3 223 543.1 230.4 529.5 237.6C517 244.3 505.2 254.1 502.9 268.9C502.6 270.8 505.5 271.6 505.8 269.7C508.7 251 526.3 242.6 541.5 235C553.6 228.9 567 219.3 565.5 203.9C565.3 202 562.3 202 562.5 203.9Z" fill="#5222D0"/>
<path opacity="0.19" d="M637.8 317.2C636.7 319.1 622.7 343.7 609.2 340C599 337.2 595.9 320.3 595.6 318.6C591.2 322.7 586.8 326.8 582.3 330.9C581.5 334.7 580.5 340.3 580.3 347.2C580 354.2 579.9 357.8 581.3 361.2C584.5 368.7 592.5 371.7 599.7 374.5C603.9 376.1 612.7 379.3 624.2 377.9C637 376.3 645.4 369.9 648.7 367.4C661.4 357.5 666.1 344.6 667.8 338.5C672.5 321.6 667.8 307.5 665.8 301.4C662.8 292.3 657.2 283.5 646.1 266C643.1 261.4 640.6 257.6 639 255.1C642.2 264 651.6 292.3 637.8 317.2Z" fill="#3D3D3D"/>
<path opacity="0.23" d="M493.1 286.5C491.3 291.6 489 300.1 489.7 310.7C490.3 319.5 491 328.6 497.9 334.2C506.1 340.9 521.7 341.6 527.8 332.8C532.2 326.5 529.7 318.1 529.2 316.5C535.6 323 541.9 329.4 548.3 335.9C548.9 339.2 549.6 344.8 548 351.6C545.9 360.5 541 366.1 538.8 368.6C532.7 375.5 526 378.5 524.5 379.1C521.5 380.4 513.2 383.9 502.7 381.8C493.2 379.9 487.3 374.6 484 371.6C480.8 368.6 473.2 361.5 471.1 349.8C469.5 341 471.7 333.9 473.5 328.4C475.8 321 478.2 318.5 483.4 308.7C485.9 303.5 489.5 296.1 493.1 286.5Z" fill="#3D3D3D"/>
<path opacity="0.06" d="M512.7 268C515.6 276.8 520.2 287.8 527.8 299.4C540 318 554.4 329.8 564.3 336.5C567.8 335.8 571.2 335 574.7 334.3C575.7 338.3 576.4 343.3 573.8 345.9C569.8 350 561.8 345.2 557.5 348.7C554.8 350.9 553.2 356.3 557.8 371C555.2 369.1 552.6 367.2 549.9 365.3C549.4 355.1 548.9 345 548.3 334.8C542.4 330.3 534.5 323.1 527.6 312.5C522.9 305.4 519.9 298.6 517.9 293C517.3 293.4 514.2 295.6 510.7 294.6C508.1 293.9 506.8 291.8 505.4 289.6C503.6 286.8 501.4 283.4 502.6 279.5C503.7 276 507.2 273.3 511.4 272.6C511.6 271.1 512.1 269.5 512.7 268Z" fill="#3D3D3D"/>
<path d="M314.4 315.9C309.7 316.9 306.7 319.8 305.7 320.9C301.4 325.3 300.7 330.6 300.4 332.7C299.7 338.3 301.4 342.6 303.3 347.4C305.1 351.8 308.4 358.5 314.6 365.6C319.9 367.3 324.4 367.4 327.2 367.2C330.9 367 337.1 366.6 342.5 362.2C345.9 359.4 347.5 356.2 348.8 353.5C352.2 346.7 352.2 340.5 352.2 334.8C352.2 327.4 352.2 323.6 349.6 320.6C346.5 317 340.6 314.8 335.4 316.7C332.6 317.7 330.8 319.5 329.9 320.6C329.2 319.9 322.7 314.2 314.4 315.9Z" fill="#EC615B"/>
<path d="M762 149.3C761.9 149.5 762.3 149.9 762.1 150.2C761.9 150.6 760.9 150 760.1 150.3C759.4 150.6 759.4 151.3 758.9 152C757.8 153.6 755.5 152.4 753 153.6C751.4 154.3 749.6 156 749.3 157.9C749.2 158.6 749.8 160 750.9 162.9C751.7 165 752.1 165.7 752 166.9C751.9 168.6 751.2 168.8 751.4 169.7C751.9 171.6 755.2 171.3 756.1 173.5C756.5 174.6 755.8 174.9 756.3 176.5C756.4 176.8 757 178.5 758.5 179.4C759.9 180.2 760.9 179.6 761.5 180.4C762.1 181.2 761.4 182 761.9 183.4C762.4 184.7 763.6 185.4 764 185.6C765.3 186.3 766.5 186.3 766.9 186.3C768.2 186.2 768.9 185.8 769 186C769.2 186.3 767.1 187.4 766.8 189.3C766.8 189.5 766.6 190.4 767 191.3C767.9 193.3 770.6 193 771 194.4C771.3 195.6 769.6 196.3 770 197.5C770.3 198.3 771.1 198.2 773 199.6C774.2 200.5 774.1 200.7 775.1 201.4C776.4 202.3 777.5 203 778.7 202.7C780.4 202.2 781.3 199.5 781.5 198.9C781.7 198.2 781.7 198 781.9 197.6C782.7 196.3 783.8 196.5 784.4 195.5C784.8 194.7 784.5 193.8 784.3 192.9C783.8 191.2 783 191.2 782.6 189.8C782.3 188.7 782.5 187.1 783.4 186.5C784.2 186 784.9 186.7 785.9 186.2C786.8 185.7 787.2 184.3 787.1 183.3C787 181.5 785.7 181.4 785.7 179.7C785.7 179.3 786.1 178.2 787 175.9C787.4 174.8 787.6 174.5 787.6 174C787.6 173 787.1 172.5 786.6 171.3C786.6 171.3 786.2 170.3 785.7 168.5C785 165.7 786.1 165 785.7 162.5C785.3 160 784.2 160.4 783.6 157.6C783 154.9 783.9 153.9 782.8 152.4C782.1 151.4 780.8 150.7 779.6 150.5C777.9 150.3 777.5 151.3 776.4 150.9C774.7 150.4 775.1 148.1 773.3 147.1C771.9 146.3 770 146.6 768.7 147.4C767.1 148.5 767.4 150.2 766.1 150.6C764.5 151.3 762.4 148.9 762 149.3Z" fill="#5222D0"/>
<path d="M321.3 314.8C306.7 312 297.4 324.8 299.3 338.4C300.5 346.8 305 355.1 309.6 362.1C313.8 368.4 318.9 369.5 326.1 368.1C327.5 367.8 326.9 365.7 325.5 365.9C317.3 367.5 313.6 364.5 309.8 357.9C306.7 352.5 303.6 347 302.1 340.9C299.1 328.5 306.2 314.1 320.7 316.9C322.1 317.3 322.7 315.1 321.3 314.8Z" fill="#161616"/>
<path d="M318.7 317.2C323.8 317.9 328.4 320.1 332.1 323.6C333.2 324.6 334.8 323 333.7 322C329.5 318.1 324.4 315.7 318.7 315C317.3 314.7 317.3 317 318.7 317.2Z" fill="#161616"/>
<path d="M325.7 314.9C324.6 313.4 323.4 311.8 323 310.1C322.2 307.1 324.3 304.5 327.5 304.8C327.1 304.4 326.7 304 326.4 303.7C326.2 309.3 327.2 314.7 329.5 319.8C330.1 321.1 332 320 331.4 318.7C329.3 313.9 328.4 308.9 328.6 303.7C328.6 303 328.1 302.6 327.5 302.6C324.7 302.3 321.9 303.7 320.9 306.5C319.6 309.9 321.9 313.5 323.8 316.1C324.6 317.2 326.6 316.1 325.7 314.9Z" fill="#161616"/>
<path d="M331 318.6C338.4 316.7 347.4 315.7 350 324.9C351.8 331.5 350.6 338.8 349.2 345.4C348 351.2 347.1 358 342.1 361.8C337.7 365.1 331.8 365.8 326.5 366.3C325.1 366.4 325.1 368.7 326.5 368.6C332.8 368.1 339.9 367.2 344.7 362.7C350.4 357.4 351.3 347.6 352.4 340.4C353.4 333.8 354.3 324.3 349.4 318.8C344.5 313.3 336.6 314.8 330.4 316.4C329 316.8 329.6 319 331 318.6Z" fill="#161616"/>
<path d="M329.2 307.4C326.8 302.5 333.4 298.9 335.9 295.7C337.6 293.5 338.8 291 339.7 288.4C339 288.4 338.3 288.4 337.5 288.4C340.1 296.4 335.5 304.2 327.2 305.7C325.8 306 326.4 308.1 327.8 307.9C337.3 306.2 342.7 297 339.7 287.9C339.3 286.8 337.9 286.8 337.5 287.9C335.7 293.3 332 295.9 328.6 300.1C326.5 302.7 325.8 305.6 327.2 308.6C327.9 309.8 329.9 308.7 329.2 307.4Z" fill="#161616"/>
<path d="M341.7 326.1C340.7 329.1 340.2 332.3 340.4 335.5C340.5 337.4 340.6 340.4 342.1 341.7C343.2 342.7 344.8 342.5 345.9 341.6C347.8 340.1 347.3 337.7 346.8 335.6C346.4 334.2 344.3 334.8 344.6 336.2C345.2 337.4 344.7 338.4 343.2 339.2C343.1 338.9 343 338.5 343 338.2C342.3 337.2 342.6 335.1 342.6 333.9C342.6 331.4 343.1 329 343.8 326.6C344.3 325.3 342.2 324.8 341.7 326.1Z" fill="#161616"/>
<path d="M425.7 123.9C420.4 126.9 418.1 132.1 416.1 137.6C412.9 146.4 409.3 152.9 402.2 159.1C392.6 167.6 376.4 180.1 383 195.1C388.7 208 405.5 207.5 415 199.6C421 194.6 424.5 187.4 426.4 179.9C428.8 170.3 427.9 160.1 431.9 150.9C434.8 144.1 439.8 135.9 435.7 128.4C433 123.5 426.6 121.7 422.2 125.3C421.1 126.2 422.7 127.8 423.8 126.9C427 124.4 431.4 125.8 433.5 128.9C435.3 131.5 435.3 135.1 434.7 138.1C433.9 142.3 431.7 146 430 149.9C427.1 156.8 426.8 163.9 425.8 171.2C424.6 180.6 421.8 190.4 414.6 197.1C408.2 203 398.7 205.5 390.9 200.7C381.9 195.2 383 184.4 388 176.5C392.5 169.5 399.6 164.8 405.6 159.2C410.1 155 413.8 150.3 416.1 144.5C418.8 137.8 420.1 129.7 426.9 125.9C428.1 125.1 427 123.2 425.7 123.9Z" fill="#161616"/>
<path d="M399.5 191C389.1 189.8 397.6 171.3 405.5 176.7C412.7 181.6 406.6 195.8 398.1 190.7C396.9 189.9 395.7 191.9 397 192.6C401.7 195.4 407.7 193.3 410 188.4C412.1 183.7 410.8 176.5 405.7 174.3C394.3 169.4 386.1 191.8 399.5 193.3C401 193.4 401 191.1 399.5 191Z" fill="#161616"/>
<path d="M382.1 193.4C384.9 203.8 391.4 212.5 402.6 213.9C413.1 215.2 423 209.9 428.8 201.3C432 196.5 434 190.8 434.7 185.1C435.5 178.5 434.4 171.8 434.7 165.2C435.4 153.4 444.9 140.1 435.8 129.3C434.9 128.2 433.3 129.8 434.2 130.9C441.9 140.2 433.9 152.4 432.6 162.4C431.2 173.3 434.2 183.8 429.8 194.4C425.8 204 417.4 211.4 406.7 211.8C394.5 212.3 387.1 203.7 384.1 192.7C383.9 191.4 381.7 192 382.1 193.4Z" fill="#161616"/>
<path d="M618.1 3.40001C619 10 618.6 16.6 616.8 23.1C616.4 24.5 618.6 25.1 619 23.7C620.8 16.8 621.2 9.90001 620.3 2.80001C620.1 1.40001 617.9 2.00001 618.1 3.40001Z" fill="#161616"/>
<path d="M619.6 3.70003C625.6 -0.599973 625.6 10.5 625.6 13.1C625.5 17 625.2 20.9 624.3 24.7C624 26.1 626.2 26.7 626.5 25.3C627.4 21.3 627.7 17.2 627.9 13.1C628 10.4 628.3 7.40003 627.2 4.90003C625.8 1.40003 621.8 -0.599972 618.5 1.80003C617.3 2.60003 618.4 4.60003 619.6 3.70003Z" fill="#161616"/>
<path d="M615.9 21.9C611.2 23.2 608.2 26.6 605.6 30.6C601.4 37 597.8 42.8 591.5 47.4C581.8 54.4 558.6 61.9 551.7 47.2C551.1 45.9 549.1 47 549.8 48.3C555.6 60.8 573.6 58.6 583.9 54.2C590.5 51.4 596.5 47 601.1 41.4C605.9 35.6 608.6 26.2 616.5 24C617.9 23.6 617.3 21.5 615.9 21.9Z" fill="#161616"/>
<path d="M549.4 47.3C540.1 64.9 559 75.4 574.6 75.4C576 75.4 576.1 73.2 574.6 73.1C561 73.1 542.9 64.4 551.3 48.3C552 47.2 550.1 46.1 549.4 47.3Z" fill="#161616"/>
<path d="M618.4 26.9C610.8 38.4 606.6 51.3 596.3 61.1C585.6 71.3 570.9 76.9 556.2 73.7C555.6 73.6 555 73.9 554.8 74.5C550.3 91.5 580.6 93.1 590.6 91.1C607.1 87.8 620 75.2 624.8 59.3C625.2 57.9 623 57.3 622.6 58.7C618.7 71.6 609.2 82.4 596.4 87.1C589.5 89.6 581.9 90.4 574.6 89.2C567.8 88.1 554.4 84.5 556.9 75C556.4 75.3 556 75.5 555.5 75.8C569.3 78.8 583.3 74.6 594.2 65.8C599.6 61.4 604.1 56.1 607.9 50.2C612.5 43.1 615.5 35.1 620.2 28C621.1 26.8 619.1 25.7 618.4 26.9Z" fill="#161616"/>
<path d="M625.9 25.5C643.4 35.7 642.3 64.5 634 80.2C623.7 99.6 599.2 106.3 580.4 94.8C579.2 94 578 96 579.3 96.7C599.1 108.7 625.1 101.7 636 81.2C644.9 64.5 645.7 34.3 627.1 23.5C625.8 22.8 624.6 24.8 625.9 25.5Z" fill="#161616"/>
<path d="M583.6 96.3C581.9 95.5 579.9 94.5 578.5 93.2C578.4 93.1 578.2 92.9 578.2 92.9C578.1 92.7 578.3 92.9 578.2 93.1C578.5 92.5 579 92.1 579.7 91.7C581 91 579.8 89.1 578.6 89.8C577.2 90.6 575.3 92.3 576.3 94C576.7 94.8 577.6 95.3 578.3 95.8C579.6 96.7 581.1 97.5 582.5 98.2C583.8 98.8 584.9 96.9 583.6 96.3Z" fill="#161616"/>
<path d="M625.5 33.4C625.5 43.6 624.1 53.6 621.4 63.4C621 64.8 623.2 65.4 623.6 64C626.4 54 627.8 43.8 627.8 33.4C627.7 31.9 625.5 31.9 625.5 33.4Z" fill="#161616"/>
<path d="M619.4 41.4C615.3 56.6 606.2 69.8 593.2 78.7C592 79.5 593.1 81.5 594.3 80.6C607.7 71.3 617.3 57.7 621.5 41.9C622 40.6 619.8 40 619.4 41.4Z" fill="#161616"/>
<path d="M632.1 41.1C633.8 58 628.5 74.8 617.1 87.5C616.1 88.6 617.7 90.2 618.7 89.1C630.4 75.9 636.1 58.6 634.3 41.1C634.2 39.7 632 39.7 632.1 41.1Z" fill="#161616"/>
<path d="M752.5 162.7C750.5 161.5 749.7 158.8 750.8 156.7C752 154.5 755.2 154.2 757.1 155.5C759.1 156.9 759.1 159.8 757.7 161.7C756 163.9 752.6 163.5 751 161.4C750.1 160.3 748.2 161.4 749.1 162.5C751.4 165.5 756 166.5 758.9 163.8C761.6 161.2 761.8 156.4 758.9 154C756.1 151.7 751.5 152.1 749.4 155C747.2 158.1 748.3 162.7 751.5 164.6C752.6 165.3 753.7 163.4 752.5 162.7Z" fill="#161616"/>
<path d="M761.2 162C760 160.2 761.2 157.8 763.3 157.7C765.2 157.6 766.9 159.1 767 161C767.1 162.6 766.2 164.4 764.5 164.7C762.8 165 760.8 163.7 760.7 161.9C760.6 160.5 758.3 160.5 758.4 161.9C758.7 165 761.5 167.4 764.7 166.9C767.9 166.5 769.7 163.2 769.2 160.2C768.7 157 765.3 154.7 762.1 155.6C758.9 156.4 757.4 160.4 759.2 163.1C760 164.4 762 163.3 761.2 162Z" fill="#161616"/>
<path d="M760.6 155.1C758.4 153.7 759.9 150.6 762.3 150.7C765.3 150.8 765.9 154.3 764.5 156.4C763.7 157.6 765.6 158.7 766.4 157.5C768.9 153.7 766.5 148 761.6 148.5C757.2 148.9 755.8 154.7 759.5 157.1C760.7 157.9 761.9 155.9 760.6 155.1Z" fill="#161616"/>
<path d="M769.3 159.7C767.8 157.6 769.6 155.4 771.9 155.5C773.7 155.5 775.3 156.8 775.8 158.6C777.2 163.2 769.7 165.3 769.2 160.3C769.1 158.9 766.8 158.9 766.9 160.3C767.2 163.5 770.2 166.2 773.6 165.4C776.8 164.6 778.8 161.1 777.9 158C777 154.9 773.6 152.7 770.4 153.4C767.1 154.1 765.1 157.9 767.2 160.9C768.2 162 770.1 160.8 769.3 159.7Z" fill="#161616"/>
<path d="M753.9 171.3C751.9 170.2 752.3 167.5 754.3 166.6C756.3 165.7 758.3 166.8 759 168.8C759.6 170.4 759 172.2 757.3 172.7C755.8 173.1 754.1 172.4 753.7 170.9C753.3 169.5 751.2 170.1 751.5 171.5C752.3 174.4 755.6 175.7 758.3 174.8C761.4 173.7 762.1 170.1 760.7 167.4C759.1 164.3 755.2 163.3 752.3 165.3C749.4 167.3 749.6 171.7 752.6 173.5C754.1 174 755.2 172.1 753.9 171.3Z" fill="#161616"/>
<path d="M766.5 173.1C764.6 172.7 763.1 170.5 764.1 168.6C764.9 167 767.5 166.4 768.9 167.6C770.2 168.8 770.3 171.3 768.9 172.4C767.4 173.6 765.1 173 764.1 171.4C763.3 170.2 761.4 171.3 762.2 172.5C763.9 175.3 768 176.2 770.5 173.9C772.9 171.8 772.7 167.6 770.3 165.7C767.8 163.7 763.8 164.6 762.3 167.3C760.6 170.4 762.7 174.4 766.1 175.1C767.3 175.5 767.9 173.4 766.5 173.1Z" fill="#161616"/>
<path d="M776.6 163.8C777.8 163.3 778.2 165.5 778.2 166.2C778.1 167.3 777.6 168.4 776.8 169.1C775.2 170.6 772.8 170.4 771.1 169.2C769.9 168.3 768.8 170.3 770 171.1C773.4 173.5 778.2 172.4 779.9 168.5C780.6 166.8 780.7 164.7 779.7 163.2C778.7 161.7 777.1 161.1 775.5 161.9C774.1 162.5 775.3 164.4 776.6 163.8Z" fill="#161616"/>
<path d="M767.9 153.5C766.6 150.6 769.1 147.5 772.2 148.3C775.3 149.2 775.6 153 773.3 154.9C772.2 155.8 773.8 157.4 774.9 156.5C778.8 153.4 777.3 147 772.4 146C767.4 145 764 150.2 766 154.6C766.6 155.9 768.5 154.8 767.9 153.5Z" fill="#161616"/>
<path d="M777.4 155C775.9 153.5 777 151.2 779 151.1C781 150.9 782.5 152.6 782.9 154.4C783.3 156.1 782.9 158.2 781.7 159.5C780.4 160.8 777.9 160.8 777.3 158.8C776.9 157.4 774.7 158 775.1 159.4C776 162.3 779.5 163.6 782.1 162C785.2 160.2 786 155.9 784.7 152.7C783.5 149.8 780.1 148 777 149.4C774.2 150.7 773.6 154.5 775.8 156.7C776.8 157.6 778.4 156.1 777.4 155Z" fill="#161616"/>
<path d="M781.6 164.5C780.9 162.4 783.4 160.8 784.7 162.9C785.4 164 785.3 165.6 785 166.8C784.7 167.9 784 169.4 782.7 169.6C781.4 169.9 779.7 168.6 780.2 167.2C780.7 165.8 778.5 165.2 778 166.6C777.1 169.2 779.5 171.7 782 171.9C785 172 786.8 169.2 787.2 166.6C787.6 163.9 786.7 160.3 783.6 159.8C780.5 159.4 778.3 162.3 779.3 165.2C779.9 166.5 782.1 165.9 781.6 164.5Z" fill="#161616"/>
<path d="M759 173.1C758.8 172.1 757.8 171.8 756.9 172.1C755.9 172.5 755.4 173.5 755.2 174.5C754.8 176.6 755.8 179 757.5 180.2C761.7 183.2 767.2 178.2 765.4 173.6C764.9 172.3 762.7 172.9 763.2 174.2C764 176.2 762.5 179.1 760.1 178.9C759.1 178.8 758.2 178.1 757.8 177.2C757.5 176.7 757.4 176.2 757.3 175.6C757.3 175.1 757.7 174.4 757.2 174.1C757 173.9 756.9 173.7 756.7 173.4C756.7 173.5 756.7 173.5 756.7 173.6C757 175.2 759.2 174.6 759 173.1Z" fill="#161616"/>
<path d="M769.8 171.3C768.5 176 772 181.2 777.2 180.1C781.9 179.1 783.1 173.1 779.3 170.3C778.2 169.4 777 171.4 778.2 172.2C780.8 174.2 778.9 177.9 776 178C772.7 178.1 771.2 174.7 771.9 171.9C772.4 170.5 770.2 169.9 769.8 171.3Z" fill="#161616"/>
<path d="M764.1 175C762.4 177.2 763.3 180.5 765.9 181.6C769 182.9 772.2 180.1 772.6 177.1C772.8 175.7 770.6 175.1 770.4 176.5C770.2 178 768.9 180 767 179.6C765.9 179.3 764.8 177.6 765.6 176.6C766.6 175.5 765 173.9 764.1 175Z" fill="#161616"/>
<path d="M771.8 186.2C770.3 185.2 770.1 182.8 771.4 181.5C772.7 180.2 775.3 180.6 776.3 182.1C777.4 183.7 776.7 186.1 775.1 187.1C773.3 188.1 771.2 187.3 770 185.8C769.1 184.7 767.5 186.3 768.4 187.4C770.4 190 774.4 190.7 777 188.6C779.4 186.6 779.9 182.6 777.7 180.2C775.6 178 771.7 177.9 769.7 180.2C767.6 182.6 768.3 186.4 770.8 188.1C771.9 189 773 187 771.8 186.2Z" fill="#161616"/>
<path d="M782.6 175.2C781.4 174.7 781.1 172.9 782 172C783 171 784.8 171.2 785.6 172.2C786.5 173.2 786.6 175 785.6 176C784.8 176.8 783.5 177.1 782.8 176.2C781.9 175.1 780.3 176.7 781.2 177.8C782.8 179.8 785.8 179.1 787.4 177.4C789.2 175.4 788.8 171.9 786.8 170.2C784.8 168.5 781.3 168.9 779.9 171.2C778.5 173.5 779.7 176.4 782.1 177.4C783.4 177.9 784 175.7 782.6 175.2Z" fill="#161616"/>
<path d="M765.4 180.1C764.7 178.5 762.8 178.6 761.8 179.8C760.7 181.1 760.8 183.3 761.5 184.8C763.3 188.3 768.2 188.1 770.1 184.8C770.8 183.5 768.9 182.4 768.2 183.7C767.5 185 765.6 185.7 764.3 184.7C763.7 184.3 763.4 183.6 763.2 182.9C763.1 182.6 763.1 182.2 763.2 181.9C763.2 181.7 763.3 181.5 763.4 181.2C763.8 181 763.7 180.8 763.2 180.6C763.7 182 765.9 181.4 765.4 180.1Z" fill="#161616"/>
<path d="M781.2 178.5C783.6 180.9 780.9 184.5 777.9 183.3C776.6 182.8 776 184.9 777.3 185.5C779.5 186.4 782.3 185.6 783.6 183.5C784.9 181.4 784.5 178.7 782.8 176.9C781.8 175.8 780.2 177.4 781.2 178.5Z" fill="#161616"/>
<path d="M767.1 187.3C764.8 189.8 765.8 194.4 769.1 195.4C772.7 196.5 776.3 192.3 774.9 188.9C774.3 187.6 772.2 188.2 772.7 189.5C773.4 191.3 771.8 194 769.7 193.3C768 192.7 767.5 190.2 768.7 189C769.7 187.8 768.1 186.2 767.1 187.3Z" fill="#161616"/>
<path d="M774.4 188.9C773.6 190.9 774.8 193 776.7 193.8C778.8 194.8 781.1 193.7 782.4 191.9C784.5 189.2 784.7 182.4 779.8 182.7C778.4 182.8 778.4 185 779.8 185C782 184.9 781.9 188.2 781.2 189.5C780.7 190.5 779.9 191.6 778.7 191.9C777.3 192.2 775.9 190.9 776.4 189.5C777.1 188.1 774.9 187.5 774.4 188.9Z" fill="#161616"/>
<path d="M786.1 179.3C786.2 179.3 786.2 179.3 786.1 179.3C785.6 179.3 785 179.2 784.4 179.1C785.1 180.5 786.2 182.2 785.8 183.8C785.5 184.9 784.2 186 783.1 185.2C781.9 184.4 780.8 186.3 782 187.1C783.8 188.4 786.2 187.4 787.4 185.7C789.1 183.2 787.6 180.2 786.4 177.8C786.1 177.2 785.1 177 784.6 177.6C783.6 178.8 783.8 180.2 785 181.1C786.2 182.1 787.3 180.2 786.1 179.3Z" fill="#161616"/>
<path d="M770.9 194.2C768 196.2 769.3 200.8 772.8 201.1C777 201.6 778.9 197.2 778.4 193.7C778.2 192.3 776 192.9 776.2 194.3C776.5 196.1 775.9 198.5 773.7 198.9C772.9 199 772 198.8 771.7 198C771.4 197.4 771.5 196.5 772 196.1C773.2 195.3 772.1 193.4 770.9 194.2Z" fill="#161616"/>
<path d="M777.2 194.1C776.6 197.9 781 200.5 784 198C787.3 195.2 785.7 190.5 782.2 188.8C780.9 188.1 779.8 190.1 781.1 190.7C782.7 191.5 784.2 193.3 783.3 195.2C782.9 196 782.2 196.7 781.3 196.7C780.3 196.7 779.2 195.8 779.4 194.7C779.6 193.3 777.4 192.7 777.2 194.1Z" fill="#161616"/>
<path d="M774.4 199.5C773.2 202.1 775.9 204.8 778.6 204.2C781.7 203.6 782.4 200 782 197.3C781.8 195.9 779.6 196.5 779.8 197.9C780 199.2 779.8 200.9 778.7 201.7C778.2 202.1 777.7 202.1 777.1 201.8C776.7 201.6 776.1 201.1 776.3 200.6C776.9 199.3 775 198.2 774.4 199.5Z" fill="#161616"/>
<path d="M765.7 150C763.7 144.3 760.9 132.3 770.4 131.6C770 131.3 769.7 131 769.3 130.8C770.3 133.5 767.5 137.9 767.2 140.7C766.9 143.2 767.1 145.6 767.5 148C767.8 149.4 769.9 148.8 769.7 147.4C768.8 143 769.6 139.4 771.1 135.3C771.8 133.5 772.2 132.1 771.5 130.2C771.3 129.8 770.9 129.3 770.4 129.4C766.5 129.7 763.5 132.2 762.1 135.8C760.2 140.7 762 145.9 763.6 150.6C764 151.9 766.2 151.3 765.7 150Z" fill="#161616"/>
<path d="M799.7 312.1C788.8 303.5 788.4 288.1 795.9 277.1C804.1 265.2 820.9 256.6 833.6 267.1C845.2 276.7 844.3 293.7 837.4 305.8C828.8 321.2 808.8 318.7 796.2 309.6C795 308.8 793.9 310.7 795.1 311.5C805.1 318.7 821.8 322.9 832.6 315C842 308.1 846.1 293 844.4 281.9C842.6 270.6 833.3 260.2 821.3 259.6C809.4 259.1 797.3 268.9 792 279C785.9 290.4 787.6 305.2 798.1 313.4C799.3 314.6 800.9 313 799.7 312.1Z" fill="#161616"/>
<path d="M828.9 262.6C828.6 259.9 828.3 256.2 829.5 253.7C831 250.7 836.4 251.9 839.2 252.3C839 251.7 838.9 251 838.7 250.4C835.5 253.9 833.1 257.9 831.5 262.3C831 263.7 833.2 264.2 833.7 262.9C835.2 258.8 837.4 255.2 840.4 252C840.9 251.4 840.8 250.2 839.9 250.1C837.7 249.8 835.5 249.6 833.2 249.6C831.6 249.6 829.7 249.5 828.6 250.7C827.4 251.9 827.2 254.1 826.9 255.7C826.5 258 826.5 260.3 826.7 262.6C826.8 264 829.1 264 828.9 262.6Z" fill="#161616"/>
<path d="M806.5 299.4C806.6 299.4 806.6 299.4 806.7 299.4C807 299.5 807.2 299.6 807.5 299.7C807.8 300 807.8 300.3 807.6 300.7C807.5 300.8 807.3 301 807.2 301.1C807 301.2 806.8 301.2 806.6 301.3C806.5 301.3 806.5 301.3 806.4 301.3C807 301.5 807.6 301.1 807.8 300.5C808 299.9 807.6 299.3 807 299.1C806.2 298.8 805.4 299.6 805.4 300.4C805.4 301.2 806.2 302 807 301.7C807.6 301.5 808 300.9 807.8 300.3C807.7 299.7 807.1 299.2 806.5 299.4Z" fill="#161616"/>
<path d="M813.9 289.4C813.9 289.3 813.9 289.2 813.9 289.1C813.9 287.7 811.6 287.6 811.6 289.1C811.6 289.2 811.6 289.3 811.6 289.4C811.6 290.8 813.9 290.8 813.9 289.4C813.9 289.3 813.9 289.2 813.9 289.1C813.9 287.7 811.6 287.6 811.6 289.1C811.6 289.2 811.6 289.3 811.6 289.4C811.6 290.8 813.9 290.8 813.9 289.4Z" fill="#161616"/>
<path d="M815.4 301.1C815.2 301.1 815 301.1 814.9 301.1C813.5 301.1 813.4 303.4 814.9 303.4C815.1 303.4 815.3 303.4 815.4 303.4C816.9 303.3 816.9 301.1 815.4 301.1Z" fill="#161616"/>
<path d="M824.6 290.4C824.6 290.2 824.6 290 824.6 289.9C824.6 288.5 822.3 288.4 822.3 289.9C822.3 290.1 822.3 290.3 822.3 290.4C822.3 291.9 824.6 291.9 824.6 290.4Z" fill="#161616"/>
<path d="M829.4 302.7C829.4 302.5 829.4 302.3 829.4 302.2C829.4 300.8 827.1 300.7 827.1 302.2C827.1 302.4 827.1 302.6 827.1 302.7C827.1 304.2 829.4 304.2 829.4 302.7Z" fill="#161616"/>
<path d="M824 277.6C824 277.4 824 277.2 824 277.1C824 275.7 821.7 275.6 821.7 277.1C821.7 277.3 821.7 277.5 821.7 277.6C821.8 279 824 279 824 277.6Z" fill="#161616"/>
<path d="M833.1 291.6C834.5 291.6 834.6 289.3 833.1 289.3C831.6 289.3 831.6 291.6 833.1 291.6Z" fill="#161616"/>
<path d="M834.7 258.5C841 258.4 846.8 255.7 851.1 251C850.5 250.9 849.9 250.8 849.3 250.8C850.8 254.2 849.5 258.5 846.2 260.3C842.4 262.4 837.9 260.2 834.8 257.9C833.6 257 832.5 259 833.7 259.8C837.9 263 844.1 265.1 848.7 261.3C852.2 258.5 853.1 253.7 851.3 249.6C851 249 850 248.9 849.5 249.4C845.6 253.7 840.5 256.1 834.7 256.2C833.2 256.3 833.2 258.5 834.7 258.5Z" fill="#161616"/>
<path d="M347.6 273.5C349.9 268.1 352.1 262.7 354.4 257.3C355 256 352.8 255.4 352.2 256.7C349.9 262.1 347.7 267.5 345.4 272.9C344.9 274.2 347 274.8 347.6 273.5Z" fill="#161616"/>
<path d="M366.2 234.7C368.4 231.7 370.6 228.8 372.9 225.8C373.8 224.6 371.8 223.5 371 224.7C368.8 227.7 366.6 230.6 364.3 233.6C363.4 234.7 365.4 235.9 366.2 234.7Z" fill="#161616"/>
<path d="M460.5 121.8C462.6 119.5 464.9 117.5 467.6 116C468.9 115.3 467.7 113.3 466.5 114.1C463.6 115.7 461.1 117.8 458.9 120.3C458 121.3 459.6 122.9 460.5 121.8Z" fill="#161616"/>
<path d="M508.8 89.5C512.2 88.3 515.7 87 519.1 85.8C520.5 85.3 519.9 83.1 518.5 83.6C515.1 84.8 511.6 86.1 508.2 87.3C506.8 87.8 507.4 90 508.8 89.5Z" fill="#161616"/>
<path d="M670.1 68.8001C676 71.1001 681.5 74.1001 686.8 77.7001C688 78.5001 689.1 76.6001 687.9 75.8001C682.5 72.1001 676.8 69.1001 670.7 66.7001C669.3 66.1001 668.7 68.2001 670.1 68.8001Z" fill="#161616"/>
<path d="M720.6 109.1C725.3 113.3 729.9 117.5 734.6 121.7C735.7 122.7 737.3 121.1 736.2 120.1C731.5 115.9 726.9 111.7 722.2 107.5C721.1 106.5 719.5 108.1 720.6 109.1Z" fill="#161616"/>
<path d="M794.1 208.1C796.9 212.1 799.5 216.2 802 220.4C802.7 221.6 804.7 220.5 803.9 219.3C801.4 215.1 798.8 211 796 207C795.2 205.8 793.3 206.9 794.1 208.1Z" fill="#161616"/>
<path d="M809.7 248.4C810.4 251.4 811.1 254.3 811.9 257.3C812.2 258.7 814.4 258.1 814.1 256.7C813.4 253.7 812.7 250.8 811.9 247.8C811.5 246.4 809.4 247 809.7 248.4Z" fill="#161616"/>
<path opacity="0.14" d="M406.1 176C406.4 176.8 407.1 178.7 406.6 181C406.1 183.8 404.3 185.5 403.6 186.1C400.1 189.3 395.5 188.7 394.7 188.6C394.9 188.8 398.1 193 402.9 192.4C403.4 192.3 406.9 191.9 408.8 188.9C409.8 187.3 409.8 185.7 409.8 184.7C409.8 180.2 407.1 177 406.1 176Z" fill="#3D3D3D"/>
<path opacity="0.22" d="M436.6 135.1C435.7 135.2 435.3 137.5 434.4 140.9C432.4 148.9 431.2 148.9 429.2 156C427.5 162.2 428.5 161.9 426.7 171.1C424.9 180.2 424 184.8 421.2 189.6C419.5 192.6 416 198.5 409 201.5C398.6 206 388.3 200.8 386.6 199.8C387 201.4 387.8 203.9 389.7 206.3C393.3 210.9 398.1 212.4 400.4 213C400.9 213.2 412.6 216.2 420 209.8C421.2 208.8 422.5 206.9 425.3 203.1C427.6 199.9 429.2 197.6 430.5 195C431.5 192.9 432.6 189.9 433.2 182.1C434.2 168.6 431.4 169 433.2 162.2C435.5 153.1 438.3 146.8 438.3 146.8C438.6 146.2 439.4 144.2 439.3 141.5C439.2 138.4 437.7 135.1 436.6 135.1Z" fill="#3D3D3D"/>
<path opacity="0.23" d="M338.5 317.1C339.6 320.4 341 326.3 340.1 333.6C339 342.9 334.9 349.1 333 351.9C327.3 360.3 320.1 364.7 316.1 366.8C323 368 328.5 367.3 332 366.6C336.8 365.6 341.8 364.6 345.4 360.5C347.4 358.3 348.1 355.8 349.5 350.9C351.2 344.9 353 338.3 351.9 329.9C351.2 324.6 350.6 319.4 346.6 317.3C343.7 315.7 340.3 316.5 338.5 317.1Z" fill="#3D3D3D"/>
<path opacity="0.2" d="M548.5 54.3C550 58.6 552.2 61.0999 553.5 62.2999C563.4 71.5 579.1 66.9 580 66.6C590.8 63.2 597.1 54.3 600 50.3C604 44.8 606.3 38.9 614 31.4C615.7 29.8 617.1 28.5 618.1 27.7C615.4 36.5 609.9 50 598.3 61.2C589.9 69.4 583.3 71.5999 580.9 72.2999C573.1 74.5 566.8 73.4 564.9 73C560.5 72.0999 553.6 70.5999 550.2 64.5C548 60.5 548.2 56.3 548.5 54.3Z" fill="#3D3D3D"/>
<path opacity="0.18" d="M555.6 78.2999C557.5 80 560.7 82.2999 565.1 83.7999C568 84.7 572.1 85.6 579.3 84.6C584.3 83.9 595.8 82.3999 606.2 74.7999C625.3 60.6999 626.3 36.4 626.4 33.2C627 42 625.8 49.1 624.6 53.6C623.2 59.4 621 68 613.8 76C609.4 80.9 604.8 83.7 602.1 85.1C594.9 88.9 588.6 89.5999 584.2 90C575.9 90.7999 566.8 91.7 560.5 85.9C557.7 83.4 556.3 80.3999 555.6 78.2999Z" fill="#3D3D3D"/>
<path opacity="0.2" d="M636.2 49.7C636.2 54.1 635.9 65.2 629.1 76.7C626.4 81.2 621.4 89.6999 611.1 94.3999C595.8 101.5 580.6 94.7999 577.8 93.6C580.3 95.5 584.7 98.2999 590.6 99.8999C600.3 102.4 608.3 100 612.8 98.5C616.9 97.2 623.3 95.2 629 89.4C634.4 83.9 636.3 78 637.9 73.2999C639.6 68.0999 641.9 58.1 639.3 46C637.7 38.9 635 33.6 632.9 30.2C634.4 34.4 636.2 41.2 636.2 49.7Z" fill="#3D3D3D"/>
<path opacity="0.15" d="M830.9 264.9C832 267.8 833.4 272.9 833 279.1C832.3 289.5 827.1 296.5 825.4 298.6C816.2 310.4 802.7 312.4 799.7 312.8C802.1 314.5 808 318.3 816.2 318.5C818.5 318.6 828.1 318.8 835.2 311.9C839.4 307.8 840.7 303.2 842.1 298.6C843.5 293.9 845.3 287.5 843 280C840.3 271.1 833.3 266.4 830.9 264.9Z" fill="#3D3D3D"/>
<path d="M889.1 664.5C889.1 752.5 889.1 840.5 889.1 928.5C889.1 953.4 889.1 978.3 889.1 1003.2C889.1 1007.1 895.1 1007.1 895.1 1003.2C895.1 915.2 895.1 827.2 895.1 739.2C895.1 714.3 895.1 689.4 895.1 664.5C895.1 660.6 889.1 660.6 889.1 664.5Z" fill="black"/>
<path d="M222.4 664.5C222.4 752 222.4 839.5 222.4 927C222.4 951.5 222.4 976 222.4 1000.6C222.4 1004.5 228.4 1004.5 228.4 1000.6C228.4 913.1 228.4 825.6 228.4 738.1C228.4 713.6 228.4 689.1 228.4 664.5C228.4 660.6 222.4 660.6 222.4 664.5Z" fill="black"/>
<path d="M293.6 669C293.6 725.8 293.6 782.5 293.6 839.3C293.6 843.2 299.6 843.2 299.6 839.3C299.6 782.5 299.6 725.8 299.6 669C299.6 665.1 293.6 665.1 293.6 669Z" fill="black"/>
<path d="M842.7 660.1C842.7 716.9 842.7 773.6 842.7 830.4C842.7 834.3 848.7 834.3 848.7 830.4C848.7 773.6 848.7 716.9 848.7 660.1C848.7 656.2 842.7 656.2 842.7 660.1Z" fill="black"/>
<path d="M211.2 667C443.8 666.7 676.4 666.4 909.1 666.1C902.2 638.7 895.4 611.2 888.5 583.8C686.9 584.4 485.3 585 283.7 585.6C259.5 612.7 235.4 639.9 211.2 667Z" fill="black" stroke="#161616" stroke-width="3"/>
<path d="M208.1 654.5C208.1 658.7 208.1 662.9 208.1 667.1C208.1 669 211.1 669 211.1 667.1C211.1 662.9 211.1 658.7 211.1 654.5C211.1 652.6 208.1 652.6 208.1 654.5Z" fill="#161616"/>
<path d="M208.9 656.6C209.2 659.4 209.6 662.3 209.9 665.1C210.1 667 213.1 667 212.9 665.1C212.6 662.1 212.4 659.1 212.5 656C211.6 656.3 210.6 656.5 209.7 656.8C210.7 659.2 209.9 661.9 210.9 664.3C211.5 665.8 213.9 665.7 213.8 663.9C213.8 661.4 213.9 658.9 214.1 656.3C213.1 656.4 212.1 656.6 211.2 656.7C211.9 658.6 212.5 660.6 213 662.6C213.4 664 215.5 664 215.9 662.6C216.2 661.3 216.3 659.3 217.1 658.3C216.8 658.5 216.5 658.8 216.2 659C216.3 659 216.5 658.9 216.6 658.9C216.2 658.8 215.8 658.8 215.4 658.7C215.5 658.8 215.6 658.9 215.7 658.9C215.5 658.5 215.2 658 215 657.6C215.5 657 215.5 656.7 214.9 656.6C214.5 656.5 214.2 656.3 213.8 656.1C213.5 656 212.7 655.4 212.6 655.8C212.3 656.1 211.9 656.5 211.6 656.8C214 656.3 216.4 656.7 218.7 657.2C220.6 657.6 221.4 654.7 219.5 654.3C217.1 653.8 214.7 653.7 212.2 654C212.3 655 212.5 656 212.6 656.9C215.1 656.4 217.6 656.3 220.2 656.5C219.7 655.9 219.2 655.2 218.8 654.6C218.6 655.8 217.9 656.3 216.8 656.5C216 656.6 214.3 656.8 213.6 656.5C213 656.3 213 655.8 212.6 655.3C212.4 655.1 212.1 654.9 211.8 654.8C210.7 654.6 212 654.7 211.5 655.6C210.9 655.8 210.4 656.1 209.8 656.3C210.1 656.4 210.4 656.5 210.6 656.6C212.4 657.2 213.2 654.3 211.4 653.7C211.1 653.6 210.8 653.5 210.6 653.4C210 653.2 209.2 653.5 208.9 654.1C208.2 655.3 208.5 656.8 209.8 657.5C210.1 657.6 210.5 657.6 210.7 657.7C210.2 657.4 210.7 658 210.8 658.2C211.2 658.9 211.9 659.3 212.7 659.5C216.2 660.2 220.9 659.6 221.7 655.5C221.9 654.5 221.3 653.7 220.3 653.6C217.5 653.3 214.7 653.5 211.9 654.1C210.3 654.4 210.6 657.3 212.3 657C214.5 656.7 216.6 656.7 218.8 657.2C219.1 656.2 219.3 655.3 219.6 654.3C216.7 653.7 213.8 653.3 210.9 653.9C210.4 654 210 654.5 209.9 654.9C209.4 657.2 211.4 658.1 213.2 658.9C214.7 659.5 216.8 660.4 217.9 658.6C218.7 657.2 217.6 655.5 216 655.8C213.7 656.1 213.6 660 213.2 661.6C214.2 661.6 215.1 661.6 216.1 661.6C215.6 659.6 215 657.6 214.3 655.7C213.7 654.1 211.5 654.4 211.4 656.1C211.2 658.6 211.1 661.1 211.1 663.7C212.1 663.6 213.1 663.4 214 663.3C212.9 660.6 213.7 657.7 212.5 655C211.9 653.6 209.7 654.4 209.7 655.8C209.7 658.8 209.8 661.8 210.1 664.9C211.1 664.9 212.1 664.9 213.1 664.9C212.8 662.1 212.4 659.2 212.1 656.4C211.7 654.7 208.7 654.7 208.9 656.6Z" fill="#161616"/>
<path d="M907.9 653C907.9 657.3 907.9 661.7 907.9 666C907.9 667.9 910.9 667.9 910.9 666C910.9 661.7 910.9 657.3 910.9 653C910.9 651 907.9 651 907.9 653Z" fill="#161616"/>
<path d="M906.5 653.5C906.5 654.5 906.5 655.6 906.5 656.6C906.5 657.4 907.2 658.1 908 658.1C908.8 658.1 909.5 657.4 909.5 656.6C909.6 655.6 909.5 654.6 909.4 653.6C909.3 652.8 908.8 652.1 907.9 652.1C907.1 652.1 906.4 652.8 906.4 653.6C906.4 654.3 906.4 655 906.4 655.7C906.4 657.6 909.4 657.6 909.4 655.7C909.4 655 909.4 654.3 909.4 653.6C908.4 653.6 907.4 653.6 906.4 653.6C906.5 654.6 906.5 655.6 906.5 656.6C907.5 656.6 908.5 656.6 909.5 656.6C909.5 655.6 909.5 654.5 909.5 653.5C909.4 651.6 906.4 651.6 906.5 653.5Z" fill="#161616"/>
<path d="M211.2 653C443.8 652.7 676.4 652.4 909.1 652.1C902.2 624.7 895.4 597.2 888.5 569.8C686.9 570.4 485.3 571 283.7 571.6C259.5 598.8 235.4 625.9 211.2 653Z" fill="white" stroke="#161616" stroke-width="3"/>
<path d="M771.2 580.7C770 581 769.9 587 773.3 606.4C774.2 607.9 775.7 610.1 778.4 611.7C781.6 613.7 785.3 613.7 792.4 613.5C800.6 613.4 802.9 612.2 803.9 611.7C806.4 610.3 808 608.4 809 607.1C809.6 598.6 810.2 590.1 810.8 581.6C809.7 583 808 584.6 805.7 584.8C801.6 585.1 800.3 580.2 795.6 579.7C793.2 579.5 793.3 580.7 785.3 583.6C779.9 585.6 778.4 585.5 777.3 585.2C773.3 584.3 772.2 580.5 771.2 580.7Z" fill="#EC615B"/>
<path d="M769.9 551.6C770.2 561 770.6 570.4 770.9 579.9C772.6 582.4 775.2 585.4 778.7 585.8C783.9 586.3 785.8 580.1 792 580.1C796.7 580.1 798 583.6 804.1 583.7C807.1 583.8 809.5 583 811 582.3C809.8 573.7 810.8 567.3 812 563C813.2 558.8 815.1 554.6 813.2 552.3C811.8 550.7 809.1 550.7 807 550.9C807.1 548.9 807.5 546.6 808.4 544C810.4 538 813.6 535.5 812.7 531.8C812.4 530.4 811.4 528.7 810.5 528.7C808.9 528.7 808.1 533.3 805.5 541.3C804.2 545.3 802.9 548.6 802.1 550.8C796.3 551.2 791.7 550.8 788.7 550.3C783.9 549.6 780.1 548.3 775.1 549.6C772.7 550.1 771 551 769.9 551.6Z" fill="white"/>
<path d="M472.3 599.2C487.7 616.6 515.9 617.7 537.4 618.1C551 618.3 564.6 617.3 578 615.1C590.6 613 603.2 610 614.4 603.7C616.1 602.8 614.6 600.2 612.9 601.1C591.3 613.1 563.5 615.2 539.3 615C518.1 614.8 489.6 614.2 474.4 597C473.1 595.6 471 597.8 472.3 599.2Z" fill="#161616"/>
<path d="M457.7 588.1C459.5 590.7 461.8 590.3 464.7 591.1C469.5 592.3 470.8 597.3 475.2 598.7C476.5 599.1 478 599.1 479.4 599.2C483 599.6 484.6 601.1 487.4 603C490.7 605.3 494.3 606.4 498.4 606.4C499.8 606.4 499.9 604.2 498.4 604.1C493.3 604.1 490.4 602 486.3 599.3C483.7 597.6 481.7 597.2 478.7 596.9C473.9 596.4 472.8 592.4 469.2 590.3C466.7 588.8 461.3 589.5 459.6 587C458.8 585.8 456.9 586.9 457.7 588.1Z" fill="#161616"/>
<path d="M460.2 587.7C459.9 586.2 467 586.9 468.2 586.2C470 585.2 469.7 583.8 470.7 582.5C474.2 578.1 477.8 582.5 481.8 581.9C484.8 581.4 487.6 578.1 490.7 578.9C493.6 579.7 494.4 583.3 496.5 585C498.5 586.7 500 586 502.2 586.5C507 587.7 504.2 591.6 504.8 594.8C505.3 597.1 505.2 597.6 504.1 599.5C503.4 600.7 500.7 604.8 499.2 603.7C498 602.9 496.9 604.8 498.1 605.6C500.7 607.5 502.8 605.5 504.3 603.3C505.3 601.9 507.3 600.2 507.8 598.5C508.4 596.3 507 593.8 507.2 591.4C507.5 588.8 508.7 586 505.5 584.5C502.8 583.3 500.1 584.8 497.6 582.7C496 581.3 495.3 579.2 493.7 577.8C491.2 575.7 488.6 576.2 485.8 577.5C482.4 579.1 480.6 579.8 476.9 578.6C475 578 473.1 577.2 471.1 578.1C469.9 578.6 469.6 579.5 468.9 580.4C467.6 582.3 470.3 583.1 465.6 584.4C464.6 584.7 463.3 584.2 462.4 584.2C459.6 584.1 457.4 585.1 458 588.2C458.3 589.7 460.5 589.1 460.2 587.7Z" fill="#161616"/>
<path d="M560.3 604.1C563.6 599.6 565 594 568.5 589.8C572.1 585.5 582.7 579.7 587.5 585.5C593.2 592.4 582.9 596.1 578.5 599.5C576.5 601 574.8 602.7 572.8 604.2C572 604.8 571.2 605.3 570.3 605.8C569.1 606.5 567.9 607 566.5 607.1C563.8 608 562.3 606.3 562 601.8C563.1 600.9 561.5 599.3 560.4 600.2C558.3 601.8 557.9 604.8 559.4 607C561.4 609.9 565.3 610 568.3 609C572.8 607.6 576.1 604 579.8 601.2C583.5 598.4 589 596.6 591 592.1C594.5 584.3 585.1 580.2 578.9 581.2C574.3 582 569.9 584.5 566.9 588.1C563.2 592.4 561.7 598.2 558.3 602.8C557.5 604.1 559.4 605.2 560.3 604.1Z" fill="#161616"/>
<path d="M575.7 591.4C574.7 590.8 576.9 589.3 577.4 589C578.2 588.5 579.9 587.9 580.3 589.2C581.1 591.8 577.4 592.1 575.8 591.8C574.4 591.5 573.8 593.7 575.2 594C577.4 594.5 580.1 594.4 581.6 592.4C582.8 590.8 583 588.3 581.4 587C577.8 583.9 570.1 590.7 574.6 593.3C575.9 594.1 577 592.1 575.7 591.4Z" fill="#161616"/>
<path d="M563.3 608.8C569.4 611.9 575.4 609.4 580.5 605.5C585.2 601.9 590.5 597.7 591.6 591.5C591.8 590.1 589.7 589.5 589.4 590.9C588.6 595.6 585.3 598.6 581.9 601.5C577.1 605.6 571 610.1 564.5 606.8C563.1 606.3 562 608.2 563.3 608.8Z" fill="#161616"/>
<path d="M571.9 609.2C577.4 605.5 582.4 601.3 587 596.6C588 595.6 586.4 594 585.4 595C580.9 599.6 576 603.7 570.7 607.2C569.5 608.1 570.7 610 571.9 609.2Z" fill="#161616"/>
<path d="M582.9 602.4C584 601.2 585.1 600.1 586.3 598.9C587.3 597.9 585.7 596.3 584.7 597.3C583.6 598.5 582.5 599.6 581.3 600.8C580.3 601.8 581.9 603.4 582.9 602.4Z" fill="#161616"/>
<path d="M520.4 606.3C518.5 606 518.4 603.7 519.6 602.5C520.9 601.3 523.1 601.1 524.6 601.8C526.3 602.6 527 604.4 525.3 605.6C524.4 606.3 521.5 607.6 520.5 606.7C519.4 605.8 517.8 607.4 518.9 608.3C521.1 610.2 525.2 608.8 527.2 607C529.7 604.7 528.7 601.3 525.9 599.8C523.1 598.4 519.2 599 517.4 601.6C515.7 604 516.8 607.8 519.9 608.3C521.2 608.7 521.8 606.6 520.4 606.3Z" fill="#161616"/>
<path d="M519.5 600.7C519.8 598.2 522.2 596.1 524.7 596.2C526 596.2 527.4 596.8 528 598C528.8 599.4 528.1 601.1 526.6 601.5C525.2 601.8 525.8 604 527.2 603.7C532.2 602.6 531.1 596.2 527.2 594.5C522.6 592.5 517.9 596.2 517.3 600.8C517 602.2 519.3 602.2 519.5 600.7Z" fill="#161616"/>
<path d="M521.8 593.8C521 593.2 523.5 591.3 523.8 591.1C524.8 590.5 526.1 590.3 527.2 590.7C529.8 591.6 530.4 595 527.8 596.2C526.5 596.8 527.6 598.8 528.9 598.1C533.7 595.8 531.8 589.2 527 588.3C524.7 587.9 522.3 588.9 520.8 590.6C519.4 592.1 518.8 594.3 520.6 595.7C521.8 596.6 522.9 594.6 521.8 593.8Z" fill="#161616"/>
<path d="M497.7 584C503.9 584.2 507.7 576.4 514.2 580.4C515.2 581 515.9 581.9 517.2 582.3C517.8 582.5 518.5 582.4 519.1 582.5C521.5 582.8 523.7 583.4 525.1 585.7C525.8 586.9 527.8 585.8 527 584.6C525.9 582.8 524.8 581 522.7 580.3C521.5 579.9 520.2 580.4 519.1 580.2C516.6 579.9 516.2 578.6 514.3 577.4C507.7 573.4 504.1 581.9 497.7 581.6C496.3 581.7 496.3 584 497.7 584Z" fill="#161616"/>
<path d="M503.2 605.7C507.3 605.1 515.2 610 516.7 603.3C517 601.9 514.8 601.3 514.5 602.7C513.7 606.1 509.6 604.5 507.4 603.9C505.7 603.4 504.3 603.3 502.6 603.6C501.2 603.7 501.8 605.9 503.2 605.7Z" fill="#161616"/>
<path d="M525 583.7C525 585.3 525 587 525 588.6C525 590 527.3 590.1 527.3 588.6C527.3 587 527.3 585.3 527.3 583.7C527.3 582.2 525 582.2 525 583.7Z" fill="#161616"/>
<path d="M527.3 584.7C542.6 584.5 558 584.6 573.3 585.1C574.7 585.1 574.7 582.9 573.3 582.8C558 582.3 542.6 582.2 527.3 582.4C525.8 582.5 525.8 584.7 527.3 584.7Z" fill="#161616"/>
<path d="M590 588.1C595 589.4 614.9 594 613.2 601.1C612.9 602.5 615 603.1 615.4 601.7C616.4 597.5 613.8 594.7 610.2 592.9C604.1 589.9 597.2 587.6 590.6 585.9C589.2 585.6 588.6 587.7 590 588.1Z" fill="#161616"/>
<path d="M540.1 608.8C539.1 607.5 540.7 605.6 542.1 606.8C543.4 608 541.5 610 540.3 608.6C539.3 607.5 537.7 609.1 538.7 610.2C540 611.6 542.4 611.7 543.8 610.3C545.1 609 545.2 606.7 543.9 605.3C542.6 604 540.4 603.8 538.9 605C537.5 606.2 537.2 608.4 538.2 609.9C539 611.1 541 609.9 540.1 608.8Z" fill="#161616"/>
<path d="M548.6 603C548.3 602.7 548.5 602.2 548.7 601.9C549 601.4 549.5 601.5 549.9 601.9C550.3 602.2 550.4 602.7 550 603.1C549.7 603.3 549.1 603.5 548.8 603.3C548.3 602.9 547.7 602.8 547.2 603.3C546.8 603.7 546.7 604.5 547.2 604.9C548.5 605.9 550.2 605.9 551.5 604.8C552.8 603.6 552.7 601.6 551.5 600.4C550.3 599.2 548.3 599.1 547.1 600.4C546 601.6 546 603.5 547 604.7C548 605.7 549.5 604.1 548.6 603Z" fill="#161616"/>
<path d="M540 594.6C540.1 594.7 540.2 594.8 540.2 594.8C540.2 594.7 540.2 594.7 540.2 594.6C540.3 594.5 540.3 594.3 540.3 594.2C540.5 593.9 540.7 593.6 541.1 593.4C541.7 593.1 542.4 593.3 542.8 593.9C543.4 594.9 542.1 595.8 541.3 595C540.4 593.9 538.8 595.5 539.7 596.6C540.8 597.9 542.8 597.9 544.1 596.9C545.6 595.7 545.4 593.4 544.1 592.1C542.7 590.7 540.5 590.8 539.1 592.2C538 593.3 537.1 596.4 539.4 596.8C540.8 597.1 541.4 594.9 540 594.6Z" fill="#161616"/>
<path d="M634.3 583.6C630.2 593.8 626 603.9 621.6 613.9C621 615.2 623 616.4 623.5 615C628 604.8 632.3 594.5 636.4 584.2C637 582.9 634.9 582.3 634.3 583.6Z" fill="#161616"/>
<path d="M636 585.2C636.4 585.8 636.7 586.4 637.1 587.1C636.7 588 636.3 588.9 635.9 589.8C635.4 591 634.8 592.2 634.3 593.4C633.1 596.1 631.9 598.8 630.7 601.5C628.7 606.1 626.7 610.8 624.8 615.4C624.2 616.7 626.4 617.3 627 616C630.8 606.8 635.8 597.7 639 588.2C639.9 585.5 638.4 580.5 634.8 583.2C633.7 584.1 634.8 586 636 585.2Z" fill="#161616"/>
<path d="M621.2 614.2C614.6 615.1 609.5 620.8 609.1 627.4C609 628.8 611.3 628.8 611.4 627.4C611.8 621.7 616.3 617.1 621.9 616.4C623.2 616.2 622.6 614.1 621.2 614.2Z" fill="#161616"/>
<path d="M617.5 622C615.9 624.7 614.8 627.6 614.3 630.6C614.1 632 616.2 632.6 616.5 631.2C617 628.3 618 625.6 619.5 623.1C620.2 621.8 618.2 620.7 617.5 622Z" fill="#161616"/>
<path d="M620.6 623.1C619.5 625.4 618.8 627.7 618.5 630.2C618.3 631.6 620.5 632.2 620.7 630.8C621 628.5 621.6 626.3 622.6 624.2C623.1 622.9 621.2 621.8 620.6 623.1Z" fill="#161616"/>
<path d="M623.6 624.1C623.2 626.2 622.7 628.4 622.3 630.5C622 631.9 624.2 632.5 624.5 631.1C624.9 629 625.4 626.8 625.8 624.7C626 623.3 623.9 622.7 623.6 624.1Z" fill="#161616"/>
<path d="M625.4 617.8C628.1 620.8 628.9 624.9 627.6 628.7C627.1 630.1 629.3 630.7 629.8 629.3C631.4 624.7 630.3 619.8 627 616.2C626 615.1 624.5 616.7 625.4 617.8Z" fill="#161616"/>
<path d="M438.4 622.1C450.9 620.7 462.8 624.8 475.1 626.5C478.2 626.9 482.5 628.1 485.3 626.2C489.5 623.2 493 617.6 496.4 613.7C497.4 612.6 495.8 611 494.8 612.1C491.7 615.7 488.5 620.9 484.7 623.7C480.4 626.9 471.5 623.7 466.7 622.8C457.3 620.9 448.1 618.8 438.4 619.9C437 620 437 622.3 438.4 622.1Z" fill="#161616"/>
<path d="M438.6 621.6C444.8 617.7 450.8 613.6 456.8 609.4C462.6 605.2 469.8 599.6 477 604.1C478.2 604.9 479.4 602.9 478.1 602.2C472.5 598.7 466.3 600.4 461 603.7C452.9 608.7 445.4 614.7 437.4 619.8C436.2 620.5 437.4 622.4 438.6 621.6Z" fill="#161616"/>
<path d="M768.7 552.5C768.7 570.8 769.8 589.1 771.9 607.3C772.1 608.7 774.3 608.7 774.2 607.3C772.1 589.1 771.1 570.8 771 552.5C771 551 768.7 551 768.7 552.5Z" fill="#161616"/>
<path d="M772.5 608C777 613.4 783.7 615 790.4 614.8C797 614.7 804.2 614.1 809 609.1C810 608.1 808.4 606.5 807.4 607.5C803 612 796.3 612.4 790.4 612.5C784.2 612.6 778.2 611.3 774.1 606.3C773.2 605.3 771.6 606.9 772.5 608Z" fill="#161616"/>
<path d="M811.1 557.4C810.3 574.4 809 591.3 807.3 608.2C807.2 609.6 809.4 609.6 809.6 608.2C811.3 591.3 812.5 574.4 813.4 557.4C813.4 555.9 811.2 555.9 811.1 557.4Z" fill="#161616"/>
<path d="M773 554.7C784.2 560.3 796.8 561.5 808.8 557.8C810.2 557.4 809.6 555.2 808.2 555.6C796.8 559 784.8 558 774.2 552.7C772.8 552.1 771.7 554.1 773 554.7Z" fill="#161616"/>
<path d="M800.7 558C804.5 550 806.1 541.3 809.3 533.1C811.6 527.3 811.4 531.9 810.6 534.2C809.7 536.6 808.8 539.1 807.9 541.5C806.1 546.4 804.3 551.2 802.6 556.1C802.1 557.5 804.3 558 804.8 556.7C807.5 549.4 810.2 542.1 812.8 534.8C813.6 532.7 815.6 527.5 812 526.5C808.5 525.5 807 532.8 806.3 535C803.8 542.3 802.2 549.9 798.8 556.9C798.1 558.2 800 559.3 800.7 558Z" fill="#161616"/>
<path d="M770.6 552.3C771.5 549.5 783.9 551.2 786.3 551.2C791.8 551.3 797.4 551.1 802.9 551.8C804.3 552 804.3 549.7 802.9 549.5C794.9 548.5 786.5 548.9 778.4 548.8C775.1 548.8 769.7 547.7 768.4 551.7C768 553 770.1 553.6 770.6 552.3Z" fill="#161616"/>
<path d="M805.7 552.2C807.7 551.9 810.7 551.4 811.8 553.6C812.7 555.2 810.8 556.4 811 558.2C811.2 559.6 813.4 559 813.2 557.6C813.2 557.3 813.9 556.4 814.1 556C814.3 555.5 814.4 555 814.4 554.5C814.4 553.4 813.8 552.2 813 551.4C810.9 549.3 807.8 549.6 805.1 550C803.7 550.2 804.3 552.4 805.7 552.2Z" fill="#161616"/>
<path d="M770 580.7C773.4 587.9 781.3 588.4 786.8 583.4C793 577.8 797.5 584.6 803.7 585.5C806.9 586 809.5 584.3 811.3 581.8C812.1 580.6 810.2 579.5 809.4 580.7C805.6 586.2 801.2 581.6 797.2 579.9C794.9 579 792.3 578.5 789.8 579.1C787.9 579.5 786.7 580.6 785.3 581.8C780.8 585.8 774.8 585.5 772 579.5C771.3 578.3 769.4 579.4 770 580.7Z" fill="#161616"/>
</svg>
