<svg width="1167" height="1093" viewBox="0 0 1167 1093" fill="none" xmlns="http://www.w3.org/2000/svg">
<path d="M702.9 89.8001C678.4 104.3 671.4 129.3 668.5 139.6C667.8 142.1 659.6 172.8 673.8 204.8C678 214.3 682.5 224.1 692.7 228.8C698.6 231.6 703.9 231.4 724.7 229.6C734.4 228.8 744.9 227.8 756.1 226.6C764 216.5 777.6 196.3 781.6 167.9C782.3 162.6 790.5 99.4001 756.1 82.6001C733.6 71.5001 706.5 87.6001 702.9 89.8001Z" fill="#EC615B"/>
<ellipse cx="250.5" cy="213.9" rx="22.6" ry="25" fill="#EC615B"/>
<ellipse cx="763" cy="623.3" rx="16.8" ry="16.2" fill="#EC615B"/>
<circle cx="250.7" cy="529.2" r="12.5" fill="#EC615B"/>
<ellipse cx="227.4" cy="209.7" rx="19.9" ry="20.9" fill="#5222D0"/>
<ellipse cx="758.4" cy="601.1" rx="12.3" ry="12.8" fill="#5222D0"/>
<ellipse cx="922.8" cy="246.5" rx="13.5" ry="14.4" fill="#5222D0"/>
<path d="M629.6 349.9C627.4 346.4 623.8 349.7 622.3 352.1C619.2 357.1 617.2 363.3 619.5 369C621.2 373.3 625.4 376.9 630.3 376.2C634.8 375.6 638.2 371.9 638.1 367.4C638.1 366.2 636.4 365.3 635.5 366.3C630.2 373 623.7 382.5 629 391.1C632.7 397 641.8 397.8 645.4 391.4C644.5 391.3 643.6 391.2 642.7 391C643.2 393.8 643.7 396.6 644.1 399.4C644.4 401.3 647.3 400.5 647 398.6C646.5 395.8 646 393 645.6 390.2C645.4 388.9 643.4 388.8 642.9 389.8C641.3 392.6 637.7 393.6 634.8 392.2C631.6 390.6 630.2 387 630.2 383.5C630.2 377.7 634.3 372.6 637.7 368.3C636.8 367.9 636 367.6 635.1 367.2C635.2 371 631.5 373.8 627.8 373C625 372.4 623.2 370 622.2 367.4C621.2 364.7 621.3 362 622.1 359.3C622.2 359.1 626.3 350.2 626.9 351.2C628 353 630.6 351.5 629.6 349.9Z" fill="#EC615B"/>
<path d="M221.3 358.9C223.5 352.9 230.8 355.5 233.1 359.7C233.9 361.1 234.3 362.7 234.5 364.3C234.9 367.3 234.6 368.5 232 370.3C229.2 373.1 228.5 372 230 367C230.7 366.7 231.5 366.4 232.2 366.1C234.1 365.6 236.3 365.7 238.2 366.3C243 367.9 245.4 373 244.7 377.7C244.5 378.9 245.7 380.1 246.9 379.4C253.4 375.7 262 379.8 263.5 387.1C263.9 389 266.8 388.2 266.4 386.3C264.5 377.1 253.6 372.3 245.4 376.9C246.1 377.5 246.9 378 247.6 378.6C248.9 369.8 242.2 361.6 232.9 363C229.7 363.5 224.9 365.5 224.5 369.3C224.2 372.4 227.1 374.7 230 375C238.6 375.8 238.4 363.3 235.6 358.3C231.8 351.5 221.3 349.8 218.3 358.2C217.7 359.9 220.6 360.7 221.3 358.9Z" fill="#EC615B"/>
<path d="M747.8 735.3C755.5 740.4 762 746.9 767.2 754.5C768.3 756.1 770.9 754.6 769.8 753C764.3 745 757.5 738.2 749.4 732.8C747.7 731.6 746.2 734.2 747.8 735.3Z" fill="#5222D0"/>
<path d="M767.3 740.8C768.9 742.7 770.4 744.7 772 746.6C773.2 748.1 775.3 746 774.1 744.5C772.5 742.6 771 740.6 769.4 738.7C768.2 737.2 766.1 739.4 767.3 740.8Z" fill="#5222D0"/>
<path d="M758.1 712.8C765 719.2 770.7 726.5 775.1 734.8C776 736.5 778.6 735 777.7 733.3C773.2 724.8 767.3 717.2 760.2 710.7C758.8 709.3 756.7 711.5 758.1 712.8Z" fill="#5222D0"/>
<path d="M66.7 825.4C68.9 847.1 72.7 868.5 78 889.7C78.5 891.6 81.4 890.8 80.9 888.9C75.7 868 71.9 846.8 69.7 825.4C69.5 823.5 66.5 823.5 66.7 825.4Z" fill="#E8E8E8"/>
<path d="M78.6001 890.7C98.3001 895.8 118.8 895.8 138.5 890.7C140.4 890.2 139.6 887.3 137.7 887.8C118.5 892.8 98.6001 892.8 79.4001 887.8C77.6001 887.3 76.8001 890.2 78.6001 890.7Z" fill="#E8E8E8"/>
<path d="M140.8 887.7C142.1 866.4 143.8 845.1 145.8 823.8C146 821.9 143 821.9 142.8 823.8C140.8 845.1 139.1 866.4 137.8 887.7C137.7 889.6 140.7 889.6 140.8 887.7Z" fill="#E8E8E8"/>
<path d="M68.3999 827C93.2999 832.1 118.9 831.9 143.8 826.3C145.7 825.9 144.9 823 143 823.4C118.7 828.8 93.5999 829.1 69.1999 824.1C67.2999 823.7 66.4999 826.6 68.3999 827Z" fill="#E8E8E8"/>
<path d="M68.1001 834.2C68.9001 838.3 74.1001 838.1 77.3001 838.4C85.4001 839.1 93.6001 839.3 101.7 839.1C109.5 838.9 117.3 838.3 125.1 837.4C131.3 836.6 137.3 835.8 142.8 832.7C144.5 831.8 143 829.2 141.3 830.1C131.4 835.6 117.7 835.4 106.6 835.9C101.1 836.1 95.5001 836.2 90.0001 836.1C87.1001 836 71.6001 836.7 71.0001 833.4C70.6001 831.5 67.8001 832.3 68.1001 834.2Z" fill="#E8E8E8"/>
<path d="M73.7999 868.9C78.5999 877.4 84.6999 884.9 91.9999 891.4C93.3999 892.7 95.5999 890.6 94.0999 889.3C86.8999 883 80.9999 875.7 76.3999 867.4C75.4999 865.7 72.8999 867.2 73.7999 868.9Z" fill="#E8E8E8"/>
<path d="M69.9002 845.8C80.1002 863 92.5002 878.8 106.7 893C108.1 894.4 110.2 892.2 108.8 890.9C94.8002 876.9 82.6002 861.3 72.5002 844.3C71.5002 842.7 68.9002 844.2 69.9002 845.8Z" fill="#E8E8E8"/>
<path d="M86.6002 838.6C97.2002 857.5 109.5 875.4 123.4 892.1C124.6 893.6 126.7 891.5 125.5 890C111.8 873.5 99.6002 855.8 89.2002 837.1C88.3002 835.4 85.7002 836.9 86.6002 838.6Z" fill="#E8E8E8"/>
<path d="M105.7 839.3C116 854.7 126.4 870 136.9 885.3C138 886.9 140.6 885.4 139.5 883.8C129 868.5 118.6 853.2 108.3 837.8C107.2 836.2 104.6 837.7 105.7 839.3Z" fill="#E8E8E8"/>
<path d="M121.7 838.4C126.9 846.8 132.5 855 138.3 863C139.4 864.5 142 863 140.9 861.5C135.1 853.5 129.5 845.3 124.3 836.9C123.3 835.3 120.7 836.8 121.7 838.4Z" fill="#E8E8E8"/>
<path d="M35.1999 737.4C36.3999 744.3 37.5999 751.3 38.8999 758.2C39.2999 760.1 39.5999 762.1 41.1999 763.3C42.2999 764.2 45.8999 764.1 46.5999 765.1C46.6999 764.5 46.7999 763.9 46.7999 763.3C45.2999 764.8 43.7999 766.3 42.1999 767.7C41.7999 768.1 41.6999 768.7 41.7999 769.2C42.6999 771.9 43.2999 775.9 45.0999 778.2C45.9999 779.4 47.5999 779.2 48.2999 779.9C48.8999 780.5 48.6999 780.1 48.3999 781.9C48.1999 783.4 48.1999 785 48.3999 786.6C48.6999 789 49.3999 791.3 50.2999 793.5C55.4999 806.1 65.5999 816.3 75.2999 825.7C76.6999 827 78.7999 824.9 77.3999 823.6C71.1999 817.6 64.9999 811.4 59.8999 804.4C54.8999 797.5 48.9999 788.2 52.0999 779.4C52.2999 778.9 52.0999 778.2 51.6999 777.9C49.7999 776.4 47.8999 777 46.5999 774.6C44.0999 770.1 45.4999 768.6 48.6999 765.5C49.1999 765.1 49.2999 764.2 48.8999 763.7C48.0999 762.5 47.4999 762.1 46.1999 761.7C45.3999 761.4 44.1999 761.7 43.3999 761.3C41.6999 760.4 41.6999 758.2 41.3999 756.6C40.1999 750 38.9999 743.3 37.8999 736.7C37.6999 734.7 34.7999 735.5 35.1999 737.4Z" fill="#E8E8E8"/>
<path d="M37.3999 737C76.3999 750 103.1 786.4 103.9 827.6C103.9 829.5 106.9 829.5 106.9 827.6C106.1 785.1 78.4999 747.6 38.1999 734.1C36.3999 733.5 35.5999 736.4 37.3999 737Z" fill="#E8E8E8"/>
<path d="M97.3001 786.6C107 759.7 121.3 733.7 144.2 716C145.7 714.8 144.2 712.2 142.7 713.4C119.1 731.7 104.4 758.1 94.4001 785.8C93.8001 787.6 96.7001 788.4 97.3001 786.6Z" fill="#E8E8E8"/>
<path d="M141.6 715.4C142.3 724.6 143.1 733.8 143.8 743.1C144 745 147 745 146.8 743.1C146.1 733.9 145.3 724.7 144.6 715.4C144.5 713.5 141.5 713.5 141.6 715.4Z" fill="#E8E8E8"/>
<path d="M145.1 742.1C143.8 742.4 142.5 742.7 141.3 743.1C139.4 743.6 140.2 746.5 142.1 746C143.4 745.7 144.7 745.4 145.9 745C147.8 744.5 147 741.7 145.1 742.1Z" fill="#E8E8E8"/>
<path d="M139.8 745.8C140.2 747.7 141.8 748.9 143.6 749.1C144.4 749.2 145.1 748.4 145.1 747.6C145.1 746.7 144.4 746.2 143.6 746.1C143.9 746.1 143.6 746.1 143.5 746.1C143.4 746.1 143.2 746 143.4 746.1C143.3 746 143.2 746 143.1 745.9C142.9 745.8 143.3 746.1 143 745.8C142.9 745.7 142.9 745.7 142.8 745.6C143 745.8 142.8 745.6 142.8 745.5C142.7 745.4 142.7 745.2 142.7 745.4C142.7 745.3 142.6 745.1 142.6 745C142.4 744.2 141.5 743.7 140.8 744C140 744.2 139.6 745 139.8 745.8Z" fill="#E8E8E8"/>
<path d="M142.1 748C142.2 753.7 142 759.3 141.4 764.9C141.2 766.7 141.5 770.9 140.3 772.3C140.2 772.4 138.4 772.7 138 773C136.5 774.2 138.6 776.3 140.1 775.1C140.6 774.7 141.8 775.1 142.6 774.2C143.8 773 143.6 770.2 143.8 768.8C144.7 761.9 145.1 754.9 145 747.9C145.1 746.1 142.1 746.1 142.1 748Z" fill="#E8E8E8"/>
<path d="M136.8 775.6C140 779.4 139.1 785.7 138.8 790.3C138.4 795.6 137.5 800.5 134.9 805.1C131.2 811.9 126 817.6 123.3 825C122.6 826.8 125.5 827.6 126.2 825.8C129.8 816.1 138.1 808.9 140.6 798.7C142.4 791.4 144.1 779.7 138.9 773.5C137.7 772.1 135.6 774.2 136.8 775.6Z" fill="#E8E8E8"/>
<path d="M113.2 826.4C116 798 123.5 770.3 135.5 744.5C136.3 742.8 133.7 741.2 132.9 743C120.7 769.4 113 797.5 110.2 826.5C110 828.4 113 828.3 113.2 826.4Z" fill="#E8E8E8"/>
<path d="M54.2001 753.7C71.7001 775.7 84.5001 801 92.0001 828C92.5001 829.9 95.4001 829.1 94.9001 827.2C87.2001 799.6 74.1001 774 56.3001 751.6C55.1001 750.1 53.0001 752.2 54.2001 753.7Z" fill="#E8E8E8"/>
<path d="M56.1001 790.6C64.5001 790.1 72.3001 792.1 79.4001 796.5C81.0001 797.5 82.6001 794.9 80.9001 793.9C73.4001 789.3 64.9001 787.1 56.1001 787.6C54.1001 787.7 54.1001 790.7 56.1001 790.6Z" fill="#E8E8E8"/>
<path d="M74.4001 777.2C73.8001 771.7 74.5001 766.4 76.6001 761.2C77.3001 759.4 74.4001 758.6 73.7001 760.4C71.5001 765.8 70.8001 771.4 71.4001 777.2C71.6001 779.1 74.6001 779.1 74.4001 777.2Z" fill="#E8E8E8"/>
<path d="M106.8 760.6C110.1 768.7 114.9 777.3 116.1 785.9C116.4 787.8 119.3 787 119 785.1C117.7 776.4 112.9 767.8 109.7 759.8C109 758 106.1 758.8 106.8 760.6Z" fill="#E8E8E8"/>
<path d="M125.2 770.1C128.1 766.8 130.9 762.9 134.6 760.4C137.7 758.3 141.1 756.9 143.5 754C144.7 752.5 142.6 750.4 141.4 751.9C138.8 755 135 756.3 131.9 758.7C128.5 761.3 125.9 764.8 123.1 768C121.8 769.5 123.9 771.6 125.2 770.1Z" fill="#E8E8E8"/>
<path d="M126.2 825.4C131 824.1 135.9 823.6 140.9 823.9C142.8 824 142.8 821 140.9 820.9C135.6 820.6 130.5 821.1 125.4 822.5C123.6 823 124.3 825.9 126.2 825.4Z" fill="#E8E8E8"/>
<path d="M125.8 826.6C131.4 827.1 136.8 826.4 142.2 824.7C144 824.1 143.2 821.2 141.4 821.8C136.3 823.4 131.1 824 125.8 823.6C123.9 823.5 123.9 826.5 125.8 826.6Z" fill="#E8E8E8"/>
<path d="M69.6999 826.1C70.9999 826.1 72.1999 826.1 73.4999 826.1C75.3999 826.1 75.3999 823.1 73.4999 823.1C72.1999 823.1 70.9999 823.1 69.6999 823.1C67.7999 823.1 67.7999 826.1 69.6999 826.1Z" fill="#E8E8E8"/>
<path d="M143 850.3C174.7 850.3 206.5 850.3 238.2 850.3C240.1 850.3 240.1 847.3 238.2 847.3C206.5 847.3 174.7 847.3 143 847.3C141.1 847.3 141.1 850.3 143 850.3Z" fill="#E8E8E8"/>
<path d="M679.6 830.5C698.5 830.5 717.3 830.5 736.2 830.5C738.1 830.5 738.1 827.5 736.2 827.5C717.3 827.5 698.5 827.5 679.6 827.5C677.7 827.5 677.7 830.5 679.6 830.5Z" fill="#E8E8E8"/>
<path d="M851.2 832.3C932.7 832.3 1014.2 832.3 1095.7 832.3C1118.9 832.3 1142.1 832.3 1165.3 832.3C1167.2 832.3 1167.2 829.3 1165.3 829.3C1083.8 829.3 1002.3 829.3 920.8 829.3C897.6 829.3 874.4 829.3 851.2 829.3C849.3 829.3 849.3 832.3 851.2 832.3Z" fill="#E8E8E8"/>
<path d="M730.5 504C722.9 519.7 714.7 535.1 706 550.2C705.6 551 705.9 552.3 706.9 552.4C749.8 558.9 788.2 580.2 825.2 601.7C826.9 602.7 828.4 600.1 826.7 599.1C789.4 577.5 750.8 556.1 707.6 549.5C707.9 550.2 708.2 551 708.5 551.7C717.3 536.6 725.4 521.2 733 505.5C733.9 503.8 731.4 502.2 730.5 504Z" fill="#E8E8E8"/>
<path d="M737.1 558.5C740.1 549.9 743.1 541.2 746.1 532.6C747.4 529 748.3 525 750 521.5C750.4 519.4 751.7 517.8 753.7 516.6C754.9 516.9 756.1 517.2 757.3 517.5C759.1 518 760.9 518.4 762.6 518.9C766.7 519.9 773.3 519.9 772.6 525.4C772.1 529.3 769.8 533.5 768.5 537.3C765.5 545.8 762.6 554.3 759.6 562.8C759 564.6 761.9 565.4 762.5 563.6C766.4 552.4 770.3 541.1 774.2 529.9C775.1 527.3 777.6 522.9 775.6 520.1C773.4 517.1 766.8 516.9 763.4 516C760.1 515.2 754.3 512.2 750.9 513.8C748 515.1 747.4 520.1 746.5 522.6C742.4 534.3 738.3 546.1 734.2 557.8C733.6 559.5 736.5 560.3 737.1 558.5Z" fill="#E8E8E8"/>
<path d="M775.7 569.2C782.1 555.7 788.6 542.1 795 528.6C798.2 521.8 801.4 515.1 804.7 508.3C806.2 505.2 807.4 501.5 809.3 498.6C810.9 496.1 811.3 495.5 814.1 496.6C815.6 497.2 817.4 498.7 818.7 499.6C820.4 500.8 823.1 502.1 824.3 503.7C825.8 505.6 825.2 507.6 824.3 510C823.1 513.2 821.3 516.3 819.8 519.4C816.5 526.2 813.2 533 809.7 539.8C803.1 552.7 796.2 565.5 789.1 578.2C788.1 579.9 790.7 581.4 791.7 579.7C800.4 564.3 808.7 548.7 816.5 532.9C820.4 525.1 824.7 517.1 828 509C830.3 503.1 825.3 500.7 820.9 497.6C817.4 495.2 811.9 489.7 808.1 494.2C805.7 497 804.4 501.7 802.8 505.1C800.8 509.2 798.9 513.3 796.9 517.5C788.9 534.3 780.9 551.1 773 567.9C772.3 569.4 774.9 571 775.7 569.2Z" fill="#E8E8E8"/>
<path d="M808.9 590C817.5 576.5 827.2 563.7 837.9 551.9C837.3 552 836.7 552.1 836.1 552.1C839.9 554.7 843.6 557.2 847.4 559.8C847.2 559.1 847 558.4 846.9 557.7C838.4 571 829.9 584.2 821.4 597.5C820.4 599.1 822.9 600.6 824 599C832.5 585.7 841 572.5 849.5 559.2C850 558.5 849.6 557.6 849 557.1C845.2 554.5 841.5 552 837.7 549.4C837.2 549 836.3 549.2 835.9 549.6C825 561.7 815.1 574.6 806.4 588.3C805.3 590.2 807.9 591.7 808.9 590Z" fill="#E8E8E8"/>
<path d="M928.2 494.9C918.2 491.1 911.9 481.1 913.7 470.4C915.5 459.5 926.2 449.8 937.2 456.3C944.8 460.8 948.7 471 945.8 479.3C942.8 488.2 933 493.5 923.9 492.1C922 491.8 921.2 494.7 923.1 495C933.8 496.6 945.1 490.7 948.7 480.1C952.3 469.5 946.5 456.7 936.1 452.4C923.9 447.4 912.8 457.9 910.7 469.6C908.5 482 915.8 493.4 927.3 497.8C929.2 498.5 930 495.6 928.2 494.9Z" fill="#E8E8E8"/>
<path d="M948.7 493C928.8 492.4 936.3 460.5 953.9 461.7C971.5 463 964.3 498.9 945 492.3C943.2 491.7 942.4 494.6 944.2 495.2C966.5 502.8 976.5 462.2 955.2 458.8C944.8 457.1 935.4 466.9 933.8 476.6C932.2 486.2 938.7 495.6 948.7 495.9C950.6 496.1 950.6 493.1 948.7 493Z" fill="#E8E8E8"/>
<path d="M933.8 402.5C932.1 400.7 931.3 397.8 932.6 395.6C933.9 393.5 937.1 392.5 939.1 394.1C940.9 395.5 941.3 398.5 939.6 400C937.6 401.8 934.4 400.9 932.5 399.4C931 398.2 928.9 400.3 930.4 401.5C933.5 403.9 938.3 405.1 941.6 402.2C944.6 399.5 944.3 394.5 941.3 391.9C938.2 389.2 933.3 390 930.7 393C927.8 396.4 928.6 401.5 931.6 404.6C933 406 935.1 403.9 933.8 402.5Z" fill="#E8E8E8"/>
<path d="M643.6 477.8C640.8 460.8 650.7 440.3 669.9 440.5C679.7 440.6 689.2 444.6 699.1 443.2C706.1 442.2 712.1 438.2 716.3 432.7C720.5 427.2 722.9 420.3 723.3 413.4C723.8 403.2 719.9 392.8 722.7 382.7C724.1 377.6 727.1 372.9 732.2 371C737.1 369.3 742.4 370.3 747.5 370.1C754.9 369.8 760.7 366.6 764.4 360.1C769.6 351 768.4 340.1 772 330.5C776.3 318.9 788.4 309 801.2 314.7C802.9 315.5 804.5 312.9 802.7 312.1C785.3 304.3 770.8 320 767.4 335.8C765.2 346.1 765.6 362.1 753.3 366.2C744.7 369.1 735 364.6 727.1 370.5C720.6 375.3 718.7 384.1 718.8 391.8C719.1 403.1 722.6 414.1 717.6 424.9C713 435.1 703.9 441.2 692.6 440.5C682.6 439.9 672.7 435.8 662.6 438.4C645.5 442.7 638.2 462.9 640.9 478.7C641.1 480.4 644 479.6 643.6 477.8Z" fill="#E8E8E8"/>
<path d="M770 406.5C766.3 398.1 771.4 390.1 779.5 387.4C785.4 385.4 791.9 385.3 797 381.3C801 378.2 802.3 374.3 801.8 369.3C801.3 364.6 801.3 360.9 805 357.7C808.1 355 812.2 354 816.2 353.8C827.2 353.4 842.3 359 850.3 348.3C854 343.3 852.9 337.1 854.6 331.5C856.9 323.7 864.4 318.9 872.4 319.3C874.3 319.4 874.3 316.4 872.4 316.3C866.3 316 860.4 318.3 856.2 322.7C851 328.2 851.7 334.4 850.1 341.3C845.8 360.2 819.5 346.9 807.1 352.8C802.5 355 798.8 358.9 798.4 364.1C797.9 370.2 800.7 375.2 794.5 379.4C791.2 381.6 787.4 382.3 783.6 383.2C777.3 384.7 771.1 386.6 767.9 392.7C765.3 397.5 765.3 403 767.5 407.9C768.2 409.8 770.7 408.2 770 406.5Z" fill="#E8E8E8"/>
<path d="M948.2 273.3C947.8 272.4 947.4 271.4 947.1 270.4C948.4 268.9 949.6 267.4 950.9 265.9C951.3 265.8 953.1 267 953.7 267C955.2 267.2 956.5 266.8 957.7 265.9C961.4 263 960.1 258.4 961.2 254.5C963 247.8 970.9 252.4 974.5 247.4C978.1 242.5 976.8 232.1 986.4 234.9C988.3 235.4 989.1 232.5 987.2 232C981.7 230.4 976.7 233 974.7 238.3C974.1 239.8 973.9 241.5 973.3 243C972 246.5 970.6 247 966.8 247.2C964 247.4 961.8 247.2 959.9 249.6C958.3 251.7 958.3 254.4 958 256.9C957.7 260.6 958 263.7 952.5 263.3C951.4 263.2 950.5 262.2 949.3 262.2C942.7 262.1 943.8 270.2 945.4 274.1C946 275.9 949 275.1 948.2 273.3Z" fill="#E8E8E8"/>
<path d="M967 281.6C965.4 279.5 962.7 273.4 967.4 271.8C969.1 271.2 971.3 271.9 973.1 271.9C974.7 271.9 976.1 271.9 977.4 270.8C981.4 267.6 978.5 261.9 980.6 257.9C984 251.4 990.8 256.5 995.6 253.1C999 250.7 999.9 246.1 1000.5 242.3C1000.8 240.4 997.9 239.6 997.6 241.5C996.9 246 996.1 251 990.5 251.5C987.6 251.8 985.4 250.8 982.7 252.1C978.3 254.2 976.9 258.1 976.8 262.6C976.7 266.4 977.6 268.3 971.2 268.6C970.4 268.6 969.6 268.4 968.8 268.4C966.5 268.6 964.5 269.8 963.2 271.7C960.4 275.7 962 280.3 964.8 283.8C966.1 285.3 968.2 283.1 967 281.6Z" fill="#E8E8E8"/>
<path d="M116.8 335.8C125.1 325.8 136.9 317.6 150.5 319C165.3 320.5 172.6 332.3 174 346.1C176.4 369 170.8 396.4 186.3 415.9C192.4 423.6 201.5 427.7 211.3 425.3C223.1 422.5 232.3 413.2 242.8 407.7C255.2 401.2 272.3 397.7 283.5 408.6C291.7 416.6 293.5 428.8 296.2 439.4C298.7 449 303 459.6 311.6 465.3C316.8 468.7 322.5 469 328.5 468.6C335.2 468.1 348.9 467.7 347.5 478.2C347.3 480.1 350.3 480.1 350.5 478.2C351 474.1 349.1 470.8 345.8 468.4C340.6 464.6 334.6 465.2 328.5 465.6C321.6 466.1 315.7 465.5 310.4 460.6C305.6 456.2 302.7 450 300.6 443.9C297.1 433.4 296.1 421.9 290.1 412.3C284.2 402.8 274 398.2 263 398.6C249.1 399.1 237.4 407.1 226.3 414.5C221 418 215.3 421.7 208.8 422.8C201 424.1 194.1 420.7 189.1 414.9C179.7 403.9 178.2 388.2 177.7 374.4C177.2 361.5 178.9 347.5 174.6 335C170.7 323.6 160.8 316.5 148.9 315.9C135.1 315.2 123 323.5 114.5 333.7C113.4 335.2 115.5 337.3 116.8 335.8Z" fill="#E8E8E8"/>
<path d="M66.3001 490.1C81.9001 516.1 95.8001 543 108.1 570.7C108.9 572.5 111.5 570.9 110.7 569.2C98.4001 541.5 84.4001 514.6 68.9001 488.6C67.9001 486.9 65.3001 488.4 66.3001 490.1Z" fill="#E8E8E8"/>
<path d="M68.2 488.9C92.5 473.8 117.5 459.7 143.2 446.9C144.9 446 143.4 443.4 141.7 444.3C116.1 457.1 91.1 471.2 66.7 486.3C65 487.4 66.5 490 68.2 488.9Z" fill="#E8E8E8"/>
<path d="M141.4 445.6C154.1 472.3 167.5 498.6 181.7 524.5C182.6 526.2 185.2 524.7 184.3 523C170.1 497.1 156.6 470.8 144 444.1C143.1 442.3 140.6 443.8 141.4 445.6Z" fill="#E8E8E8"/>
<path d="M111.5 571.3C135.4 556.9 159 542.1 182.4 526.9C184 525.9 182.5 523.3 180.9 524.3C157.5 539.5 133.9 554.3 110 568.7C108.4 569.7 109.9 572.3 111.5 571.3Z" fill="#E8E8E8"/>
<path d="M109.6 480.1C109 499.3 110.1 518.4 112.9 537.4C113.2 539.3 116.1 538.5 115.8 536.6C113 517.9 112 499 112.6 480.1C112.7 478.2 109.7 478.2 109.6 480.1Z" fill="#E8E8E8"/>
<path d="M109.7 479.1C123.6 490 137.5 500.7 151.6 511.3C153.1 512.5 154.6 509.9 153.1 508.7C139.2 498.3 125.4 487.7 111.8 477C110.3 475.8 108.2 477.9 109.7 479.1Z" fill="#E8E8E8"/>
<path d="M116 538C127.5 527.7 142.5 522.2 153.4 511.1C154.8 509.7 152.6 507.6 151.3 509C140.4 520 125.5 525.6 113.9 535.9C112.4 537.1 114.6 539.2 116 538Z" fill="#E8E8E8"/>
<path d="M70.3001 505.8C73.5001 504.2 76.7001 502.7 79.9001 501.1C81.6001 500.3 80.1001 497.7 78.4001 498.5C75.2001 500.1 72.0001 501.6 68.8001 503.2C67.1001 504.1 68.6001 506.6 70.3001 505.8Z" fill="#E8E8E8"/>
<path d="M80.6002 522.8C83.3002 521 86.2002 519.5 89.2002 518.2C91.0002 517.5 90.2002 514.6 88.4002 515.3C85.1002 516.7 82.0002 518.3 79.0002 520.2C77.5002 521.3 79.0002 523.9 80.6002 522.8Z" fill="#E8E8E8"/>
<path d="M91.9002 542.4C94.7002 541 97.5002 539.6 100.3 538.3C102 537.4 100.5 534.9 98.8002 535.7C96.0002 537.1 93.2002 538.5 90.4002 539.8C88.7002 540.6 90.2002 543.2 91.9002 542.4Z" fill="#E8E8E8"/>
<path d="M97.7 562C100.8 559.3 104 557 107.6 555C109.3 554 107.8 551.5 106.1 552.4C102.4 554.5 98.9 557 95.6 559.9C94.1 561.2 96.2 563.3 97.7 562Z" fill="#E8E8E8"/>
<path d="M147.1 465.3C149.4 463.7 151.8 462.6 154.5 461.9C156.4 461.4 155.6 458.6 153.7 459C150.8 459.7 148 460.9 145.5 462.7C144 463.8 145.5 466.4 147.1 465.3Z" fill="#E8E8E8"/>
<path d="M156 482.4C159.2 480.4 162.4 478.4 165.5 476.3C167.1 475.3 165.6 472.7 164 473.7C160.8 475.7 157.6 477.7 154.5 479.8C152.8 480.9 154.3 483.5 156 482.4Z" fill="#E8E8E8"/>
<path d="M166.2 502.9C169.6 501.4 173.1 499.9 176.5 498.4C178.3 497.6 176.7 495 175 495.8C171.6 497.3 168.1 498.8 164.7 500.3C162.9 501.1 164.5 503.7 166.2 502.9Z" fill="#E8E8E8"/>
<path d="M173.5 516.3C176.2 513.7 179.2 511.5 182.5 509.6C184.2 508.7 182.7 506.1 181 507C177.5 509 174.3 511.3 171.4 514.1C170 515.5 172.1 517.6 173.5 516.3Z" fill="#E8E8E8"/>
<path d="M120 558.1C122.5 561.8 124.6 565.7 126.2 569.8C126.9 571.6 129.8 570.8 129.1 569C127.4 564.6 125.3 560.4 122.6 556.5C121.5 555 118.9 556.5 120 558.1Z" fill="#E8E8E8"/>
<path d="M135.3 549.8C137.2 553.2 139 556.5 140.9 559.9C141.8 561.6 144.4 560.1 143.5 558.4C141.6 555 139.8 551.7 137.9 548.3C137 546.6 134.4 548.1 135.3 549.8Z" fill="#E8E8E8"/>
<path d="M153 537.1C155 540.7 157 544.3 159 547.9C159.9 549.6 162.5 548.1 161.6 546.4C159.6 542.8 157.6 539.2 155.6 535.6C154.7 533.9 152.1 535.4 153 537.1Z" fill="#E8E8E8"/>
<path d="M168.9 527.6C170.5 531.4 172.1 535.2 173.8 538.9C174.6 540.7 177.1 539.1 176.4 537.4C174.8 533.6 173.2 529.8 171.5 526.1C170.7 524.4 168.1 525.9 168.9 527.6Z" fill="#E8E8E8"/>
<path d="M78.2 473.5C80.1 476.6 81.9 479.7 83.8 482.7C84.8 484.4 87.4 482.8 86.4 481.2C84.5 478.1 82.7 475 80.8 472C79.8 470.4 77.2 471.9 78.2 473.5Z" fill="#E8E8E8"/>
<path d="M95.3998 463.5C97.1998 467.5 98.9998 471.5 100.8 475.5C101.6 477.3 104.2 475.7 103.4 474C101.6 470 99.7998 466 97.9998 462C97.0998 460.2 94.5998 461.7 95.3998 463.5Z" fill="#E8E8E8"/>
<path d="M110.9 453.9C113.6 457.5 115.7 461.4 117.1 465.6C117.7 467.4 120.6 466.6 120 464.8C118.5 460.3 116.4 456.1 113.5 452.4C112.4 450.9 109.8 452.3 110.9 453.9Z" fill="#E8E8E8"/>
<path d="M127.6 446.2C129.7 449.4 131.7 452.5 133.8 455.7C134.8 457.3 137.4 455.8 136.4 454.2C134.3 451 132.3 447.9 130.2 444.7C129.1 443.1 126.5 444.6 127.6 446.2Z" fill="#E8E8E8"/>
<path d="M283.1 247.9C273.4 244.9 272.9 234.6 277.5 226.9C282 219.4 290.7 217.4 297.5 223.6C303.1 228.8 303.6 237.7 298.4 243.4C293.2 249.2 284.7 249.1 278.7 244.7C277.2 243.5 275.7 246.1 277.2 247.3C284.8 252.9 295.9 252 301.6 244.1C307.5 236.1 305.4 224.9 297.1 219.5C277.1 206.6 259.9 243.8 282.3 250.8C284.2 251.4 285 248.5 283.1 247.9Z" fill="#E8E8E8"/>
<path d="M299.2 250.5C291.7 252.8 289.9 243.8 293.2 239C295.9 235.1 301.2 232.8 306 234.1C310.6 235.3 313.9 240 312.7 244.7C311.2 250.6 305 252.7 299.5 251.8C297.6 251.5 296.8 254.4 298.7 254.7C306.1 256 314.1 252.8 315.7 244.8C317.1 237.9 311.7 231.6 305 230.8C297.6 229.9 289.5 235.3 288.5 242.9C287.6 249.5 293.6 255.4 300.2 253.3C301.9 252.8 301.1 249.9 299.2 250.5Z" fill="#E8E8E8"/>
<path d="M235.4 315.6C233 320.5 236.4 325.4 241.4 326.7C245.2 327.7 249.2 326.8 253.1 327C257.3 327.2 261.5 328.2 265.3 329.9C273.7 333.7 279.1 340.6 279.4 349.9C279.7 357.7 277.4 365.8 280.8 373.2C288 388.8 307.8 376.9 318 387C326.5 395.5 323 411 334.4 417.5C336.1 418.5 337.6 415.9 335.9 414.9C325.7 409.1 328.1 394 320.9 385.6C317.1 381.2 311.6 380 306 379.6C299.2 379.2 290.4 380.6 285.4 374.8C279.6 368 282.7 357.8 282.4 349.8C282.2 343.5 280.1 337.8 275.7 333.3C271.8 329.4 266.7 326.7 261.4 325.3C258.7 324.6 255.9 324.1 253.1 324C249.5 323.8 233.9 325.6 238.1 317.1C238.9 315.4 236.3 313.9 235.4 315.6Z" fill="#E8E8E8"/>
<path d="M1.6001 855.4C19.7001 855.4 37.7001 855.4 55.8001 855.4C57.7001 855.4 57.7001 852.4 55.8001 852.4C37.7001 852.4 19.7001 852.4 1.6001 852.4C-0.399902 852.4 -0.399902 855.4 1.6001 855.4Z" fill="#E8E8E8"/>
<path d="M30.7998 923.2C65.5998 923.2 100.3 923.2 135.1 923.2C137 923.2 137 920.2 135.1 920.2C100.3 920.2 65.5998 920.2 30.7998 920.2C28.7998 920.2 28.7998 923.2 30.7998 923.2Z" fill="#E8E8E8"/>
<path d="M130.9 904.4C163.2 904.4 195.6 904.4 227.9 904.4C229.8 904.4 229.8 901.4 227.9 901.4C195.6 901.4 163.2 901.4 130.9 901.4C128.9 901.4 128.9 904.4 130.9 904.4Z" fill="#E8E8E8"/>
<path d="M668.8 899.2C685.1 895.2 701.5 894.8 718.1 897.4C725.1 898.5 732.2 899.6 739.3 899C746.2 898.4 752.9 896.3 759.6 894.5C767.2 892.4 774.8 890.8 782.8 891.4C791 892 798.9 894.3 806.9 896.1C813.8 897.7 820.8 898.8 827.9 898.7C835.4 898.5 842.8 897.2 850.1 896.1C870.1 892.9 888.9 894.9 908.7 898.2C910.6 898.5 911.4 895.6 909.5 895.3C893.5 892.7 877.4 890 861.1 891.6C844.1 893.3 828.3 897.5 811.1 894C796.7 891.1 783 886.6 768.2 889.4C760.3 890.9 752.8 893.7 744.9 895.2C736.1 896.9 727.6 895.9 718.8 894.5C701.7 891.9 684.8 892.1 667.9 896.3C666.2 896.8 667 899.7 668.8 899.2Z" fill="#E8E8E8"/>
<path d="M822.4 868.8C853.8 867.1 885.2 865.4 916.6 863.8C932.1 863 947.1 863.3 962.5 865.4C969.4 866.3 976 866.5 982.9 865.7C990.6 864.8 998.6 863.6 1005.8 867.3C1007.5 868.2 1009 865.6 1007.3 864.7C995.1 858.5 981 864.3 967.9 863.1C960.1 862.4 952.5 860.9 944.7 860.5C936.6 860.1 928.5 860.3 920.4 860.7C887.7 862.2 855 864.2 822.3 865.9C820.5 865.9 820.5 868.9 822.4 868.8Z" fill="#E8E8E8"/>
<path d="M207.5 954.7C222.3 956.1 237.2 957.5 252 955.8C258.9 955 265.5 953.5 272.2 951.5C280.9 948.9 288.7 948.2 297.7 949.8C304.6 951 311.4 952.7 318.3 953.3C325.6 953.9 332.9 953.5 340.2 952.8C355.5 951.3 370.8 948.7 386 952.1C387.9 952.5 388.7 949.6 386.8 949.2C372.2 946 357.6 948.1 342.9 949.6C335.6 950.3 328.3 951 321 950.6C312.7 950.2 304.7 948 296.6 946.7C289.8 945.6 283.3 945.6 276.6 947.2C269.4 949 262.6 951.4 255.2 952.5C239.4 954.8 223.3 953.2 207.5 951.8C205.5 951.5 205.6 954.5 207.5 954.7Z" fill="#E8E8E8"/>
<path d="M365.7 147.8C361.8 145.1 356.5 140.8 358.1 135.4C359.8 129.8 364 132.5 367.9 131.2C373.1 129.5 372.8 123.2 371.3 119.1C369.8 115.1 366.6 105.4 374.9 108.7C376.8 109.5 378.2 110.8 380.4 110.1C382.4 109.5 383.4 107.7 383.9 105.8C384.3 104.1 384 102.3 383.9 100.5C383.7 99.2999 383.6 97.9999 383.6 96.7999C383.2 93.8999 385 92.6999 388.8 93.1999C388.9 95.0999 391.9 95.0999 391.8 93.1999C391.6 90.3999 389.5 88.3999 386.5 88.4999C383 88.5999 381.1 91.9999 380.7 95.1999C380.4 97.3999 382.2 102.5 381.2 104.3C380 105.1 378.8 106 377.5 106.8C377 106.5 376.5 106.2 376 105.9C375.1 105.6 374.4 105 373.5 104.8C370.4 104.1 367.9 106 366.8 108.8C364.9 113.6 368.3 117.6 369.3 122.1C370.6 128.3 365.9 127.6 361.8 128.3C360 128.6 358.5 129.5 357.3 130.8C351 138.1 358.3 146.2 364.3 150.4C365.8 151.5 367.3 148.9 365.7 147.8Z" fill="#E8E8E8"/>
<path d="M385.4 145C382.1 141.2 379.6 136 386 134C387.6 133.5 389.4 133.7 390.9 132.7C394.2 130.4 392.8 127.3 392.2 124.1C391.9 122.3 391.2 119.9 392.3 118.1C393.1 116.8 396 116.3 397.5 116C399.6 115.5 401.8 115.2 403.6 114C406.3 112.1 407.3 108.7 405.5 105.8C404.5 104.2 401.9 105.7 402.9 107.3C405.9 112.1 391.9 113.4 389.5 116.9C386.7 121 392.6 128.2 387.7 130.8C385.8 131.8 383.4 131.1 381.6 132.4C380.3 133.3 379.4 134.7 379 136.2C377.9 140.5 380.8 144.2 383.4 147.2C384.6 148.6 386.7 146.5 385.4 145Z" fill="#E8E8E8"/>
<path d="M267.3 121.3C264.7 119.5 264.4 116.3 265.2 113.5C265.7 111.6 268.1 106.4 270.4 106.2C274.2 105.8 276.1 110.6 277.1 113.4C278 116.1 278.3 118.8 278.4 121.6C278.4 123.5 281.4 123.5 281.4 121.6C281.3 116 277.6 98.8001 268.4 103.8C264.9 105.7 262.3 111.2 261.9 115C261.5 118.6 262.9 121.8 265.8 123.9C267.3 125 268.8 122.4 267.3 121.3Z" fill="#E8E8E8"/>
<path d="M266.1 122.9C262.5 123.8 258.9 124.7 255.2 125.6C253.1 126.1 249.5 126.3 247.8 127.9C244.9 130.6 245.7 138.9 245.7 142.4C245.7 143.4 246.7 144.1 247.6 143.8C248.1 143.7 248.6 143.5 249.2 143.4C251.8 142 253.1 142.9 253.2 145.9C255.2 147.9 255.2 149.1 253.2 149.3C252 149.8 250.8 150 249.5 150C248.7 150.1 248 150.6 248 151.5C248.2 157.9 248.7 164.2 249.4 170.6C249.6 172.5 252.6 172.5 252.4 170.6C251.7 164.2 251.2 157.9 251 151.5C250.5 152 250 152.5 249.5 153C253.7 152.5 260.4 150.8 259.5 145.1C258.5 139 251.1 139.7 246.9 140.9C247.5 141.4 248.2 141.9 248.8 142.3C248.8 140 248.8 137.8 249 135.5C249.3 131.9 249.1 130.6 252.4 129.3C256.9 127.5 262.2 126.9 266.9 125.7C268.8 125.4 268 122.5 266.1 122.9Z" fill="#E8E8E8"/>
<path d="M280.5 123.8C284.7 123.6 289 123.6 293.2 124.1C297.2 124.6 297 125.2 297.6 128.7C298 130.9 298.1 133.2 298.3 135.4C299.1 144 299.7 152.6 300.2 161.2C300.3 163.1 303.3 163.1 303.2 161.2C302.6 149.5 302.2 137.5 300.3 125.9C299.8 123 299.3 122.1 296.3 121.6C291.1 120.6 285.7 120.6 280.5 120.9C278.6 120.9 278.6 123.9 280.5 123.8Z" fill="#E8E8E8"/>
<path d="M251.6 172.7C257.5 171.7 263.4 170.7 269.2 169.7C275.9 168.6 282.3 169.1 289 168.6C292.1 168.3 306.8 166.8 301.4 160.7C300.1 159.3 298 161.4 299.3 162.8C300.1 163.7 286.5 165.7 286.2 165.7C282 165.8 277.8 165.6 273.6 166.1C266 167 258.4 168.6 250.8 169.9C248.9 170.1 249.7 173 251.6 172.7Z" fill="#E8E8E8"/>
<path d="M782.8 748.6C782.5 759.1 782.2 769.6 781.9 780.2C795.2 781.1 808.4 781.9 821.7 782.8C821.7 772 821.7 761.2 821.7 750.4C808.7 749.8 795.8 749.2 782.8 748.6Z" fill="white" stroke="#161616" stroke-width="2"/>
<path d="M800.1 865.3C801.9 876.9 802.7 886.5 803.1 893.4C804.4 916.3 803.4 921.6 801.4 925.8C796.5 936.1 787.6 940.4 788.4 941.8C789 942.7 793.4 941.7 813 931.4C811.8 908.6 810.7 885.9 809.5 863.1C806.4 863.9 803.3 864.6 800.1 865.3Z" fill="white" stroke="#161616" stroke-width="2"/>
<path d="M774.2 791.8C791.2 791.9 808.2 792.1 825.2 792.2C823.3 815 821.5 837.7 819.6 860.5C804.8 859.3 789.9 858.2 775.1 857C774.7 835.3 774.4 813.6 774.2 791.8Z" fill="white" stroke="#161616" stroke-width="2"/>
<path d="M781.1 864.5C786.5 877.6 788.3 888.9 788.9 896.5C789.8 907.7 790.4 916.3 785 922C783 924.2 779.7 926.3 773.3 930.6C767.6 934.4 764.9 935.8 765.1 936.2C765.4 936.8 770.9 935.6 794.9 927.1C796.5 919 797.8 908.6 797.5 896.4C797.1 883.4 795 872.3 792.7 864C788.9 864.2 785 864.3 781.1 864.5Z" fill="white" stroke="#161616" stroke-width="2"/>
<path d="M789.8 942.7C792.8 940.2 795.6 937.5 798.3 934.6C801.4 931.2 806 926 810.8 930.5C810.9 929.7 811 928.9 811.1 928.1C804 931.6 797 935.1 789.9 938.5C788.5 939.2 789.2 941.3 790.7 941.3C797.4 941.4 801.6 929.7 808.5 931.9C810.3 932.5 811.1 929.6 809.3 929C806.3 928.1 804 928.9 801.5 930.7C798.6 932.8 794.5 938.3 790.8 938.3C791.1 939.2 791.3 940.2 791.6 941.1C798.7 937.6 805.7 934.1 812.8 930.7C813.7 930.3 813.8 929 813.1 928.3C810.4 925.8 805.6 924.9 802.2 926.5C799.7 927.6 798.1 930.5 796.3 932.4C793.6 935.3 790.8 937.9 787.8 940.5C786.2 941.8 788.3 944 789.8 942.7Z" fill="#161616"/>
<path d="M802.1 927.1C805.1 927.2 808 927.8 810.8 929C812.5 929.8 814.1 927.2 812.3 926.4C809 924.9 805.7 924.1 802.1 924C800.2 924.1 800.2 927.1 802.1 927.1Z" fill="#161616"/>
<path d="M785.7 923.6C788 924.2 790 925.4 791.6 927.2C792.9 928.6 795 926.5 793.7 925.1C791.7 923 789.2 921.5 786.4 920.8C784.7 920.2 783.9 923.1 785.7 923.6Z" fill="#161616"/>
<path d="M769.5 935.7C772.6 933.4 775.8 931.3 779.1 929.3C780.6 928.4 782.2 927.2 783.8 926.7C786.3 925.8 787.8 926.4 790.1 927.4C790.1 926.5 790.1 925.7 790.1 924.8C786.9 926.2 783.3 926.1 780 927.5C776.8 928.8 773.8 932 770.5 932.6C770.9 933.5 771.3 934.4 771.7 935.3C777.6 932.4 784.2 931.9 790.1 929C791.8 928.1 790.3 925.6 788.6 926.4C782.7 929.3 776.1 929.8 770.2 932.7C768.6 933.5 769.8 935.7 771.4 935.4C775 934.8 777.9 931.5 781.3 930.2C784.7 928.9 788.4 928.8 791.7 927.4C792.7 927 792.7 925.2 791.7 924.8C787.9 923.1 786.2 922.1 782.4 924.1C777.4 926.7 772.7 929.8 768.2 933.1C766.4 934.2 767.9 936.8 769.5 935.7Z" fill="#161616"/>
<path d="M786.6 879.8C789.1 878.9 791.6 879 793.9 880.2C795.6 881.1 797.1 878.5 795.4 877.6C792.4 876 789 875.7 785.8 876.9C784 877.6 784.8 880.5 786.6 879.8Z" fill="#161616"/>
<path d="M789.1 889.8C791.2 889.6 793.2 890.1 794.8 891.5C796.3 892.7 798.4 890.6 796.9 889.4C794.7 887.6 792 886.6 789.1 886.8C787.2 886.9 787.2 889.9 789.1 889.8Z" fill="#161616"/>
<path d="M790.2 902.3C792.1 902.1 793.9 902.8 795 904.4C796 906 798.6 904.5 797.6 902.9C796.1 900.4 793.2 898.9 790.3 899.3C789.5 899.4 788.8 899.9 788.8 900.8C788.7 901.5 789.4 902.4 790.2 902.3Z" fill="#161616"/>
<path d="M803.1 879.1C804.9 878.1 807.2 878.2 808.9 879.6C810.4 880.8 812.5 878.7 811 877.5C808.3 875.3 804.7 874.8 801.6 876.5C799.9 877.5 801.4 880.1 803.1 879.1Z" fill="#161616"/>
<path d="M804.8 898C806.4 897.3 808.2 897.6 809.5 898.8C810.9 900.1 813.1 898 811.6 896.7C809.3 894.6 806.1 894.1 803.2 895.5C801.5 896.2 803.1 898.8 804.8 898Z" fill="#161616"/>
<path d="M805.2 914C806.8 913 808.8 913 810.3 914.2C811.8 915.4 813.9 913.3 812.4 912.1C809.9 910 806.4 909.7 803.7 911.5C802.1 912.5 803.6 915.1 805.2 914Z" fill="#161616"/>
<path d="M827.6 792.1C825.6 815.1 823.6 838.1 821.6 861.1" stroke="#161616" stroke-width="6"/>
<path d="M774.8 857.9C791.5 859.1 808.2 860.2 824.9 861.4" stroke="#161616" stroke-width="6"/>
<path d="M825 749.5C824.6 760.9 824.1 772.2 823.7 783.6" stroke="#161616" stroke-width="6"/>
<path d="M827.1 805.6C836.4 803.9 846.3 811.2 847 820.8C848 832.8 834.3 834.9 825.3 833.6C823.4 833.3 822.6 836.2 824.5 836.5C835.5 838.1 851 835 850 820.8C849.2 809.1 837.5 800.6 826.3 802.7C824.4 803 825.2 805.9 827.1 805.6Z" fill="#161616"/>
<path d="M824.9 838.9C828.8 839.7 831.9 842.5 833 846.3C833.5 848.2 836.4 847.4 835.9 845.5C834.6 840.7 830.7 836.9 825.8 836C823.8 835.7 823 838.5 824.9 838.9Z" fill="#161616"/>
<path d="M823.4 837.9C825.8 841.4 826.9 845.3 826.5 849.6C826.4 851.5 829.4 851.5 829.5 849.6C829.8 844.9 828.6 840.3 825.9 836.4C824.9 834.8 822.3 836.3 823.4 837.9Z" fill="#161616"/>
<path d="M774.1 804.2C767.5 800 755.4 812.1 753.9 818C750.9 830 766.3 828.6 772.7 832.6C774.3 833.6 775.8 831 774.2 830C769.6 827.1 762.8 828.2 758.8 824.6C753.9 820.2 758.4 814.9 761.8 811.8C763.6 810.2 769.7 804.9 772.6 806.7C774.2 807.9 775.8 805.3 774.1 804.2Z" fill="#161616"/>
<path d="M772.5 831.2C769.9 832.2 767.5 833.7 765.5 835.8C764 837.4 762.1 839.9 763.6 842.1C764.7 843.7 767.3 842.2 766.2 840.6C765.5 839.6 768.1 837.4 768.8 836.8C770.1 835.6 771.6 834.7 773.3 834.1C775.1 833.4 774.4 830.5 772.5 831.2Z" fill="#161616"/>
<path d="M771.3 833.3C769.4 836.3 768.8 839.7 769.5 843.1C769.9 845 772.8 844.2 772.4 842.3C771.8 839.6 772.4 837.1 773.9 834.8C775 833.2 772.4 831.7 771.3 833.3Z" fill="#161616"/>
<path d="M780.8 802.3C780.3 809.6 780.4 817 780.9 824.3C781.1 826.2 784.1 826.2 783.9 824.3C783.3 817 783.3 809.6 783.8 802.3C784 800.4 781 800.4 780.8 802.3Z" fill="#161616"/>
<path d="M783 803.1C793.6 803.7 804.1 804.1 814.7 804.3C814.2 803.8 813.7 803.3 813.2 802.8C812.9 810.3 812.6 817.9 812.2 825.4C812.1 827.3 815.1 827.3 815.2 825.4C815.5 817.9 815.8 810.3 816.2 802.8C816.2 802 815.5 801.3 814.7 801.3C804.1 801.1 793.6 800.7 783 800.1C781.1 800 781.1 803 783 803.1Z" fill="#161616"/>
<path d="M781.8 825.6C786.2 826.8 791.1 826.5 795.5 826.8C800.9 827.1 806.4 827.5 811.8 827.8C813.7 827.9 813.7 824.9 811.8 824.8C807 824.5 802.2 824.2 797.4 823.9C792.6 823.6 787.2 823.9 782.5 822.7C780.8 822.2 780 825.1 781.8 825.6Z" fill="#161616"/>
<path d="M785.2 841.1C787 845 790.9 841.6 793.9 843C795.3 843.6 795 844.5 796.9 844.6C799.1 844.7 804.5 840.3 805.6 844.4C805.9 845.5 807.3 845.8 808.1 845.1C809.1 844.8 810.2 844.5 811.2 844.3C812.4 845.8 814.6 843.6 813.3 842.2C811 839.5 808.1 841 805.9 843C806.7 843.2 807.6 843.4 808.4 843.7C807.5 840.2 803.8 837.9 800.3 839.5C798.6 840.3 798.4 841.8 795.8 840.8C795.3 840.6 795.1 839.8 794.6 839.6C793.5 839.2 787.7 839.8 787.7 839.7C787 837.8 784.4 839.3 785.2 841.1Z" fill="#161616"/>
<path d="M790.5 762.4C790.7 761.3 792 761 792.9 761.4C794.2 761.9 794.9 763.4 795.5 764.5C796.3 766.2 798.9 764.7 798.1 763C797 760.8 795.3 758.5 792.6 758.2C790.4 758 788.1 759.3 787.7 761.5C787.2 763.5 790.1 764.3 790.5 762.4Z" fill="#161616"/>
<path d="M808.9 763.8C809.1 762.8 810 762.2 811 762.6C812.2 763 812.7 764.5 812.9 765.6C813.2 767.5 816.1 766.7 815.8 764.8C815.4 762.4 813.8 759.9 811.2 759.5C808.9 759.2 806.4 760.6 806 763C805.7 764.9 808.6 765.7 808.9 763.8Z" fill="#161616"/>
<path d="M792 768.7C795.4 774.7 803.5 775.6 807.9 770.2C809.1 768.7 807 766.6 805.8 768.1C802.6 772 797.1 771.7 794.6 767.2C793.7 765.5 791.1 767 792 768.7Z" fill="#161616"/>
<path d="M687.1 225.3C674.5 220.2 666.9 208 662.3 195.8C657.4 183.1 655.3 169.3 656 155.7C657.2 130.6 667.9 105.2 687.7 89.2C706.4 74 734.1 69.7 754.9 83.5C776.6 97.9 780.5 127.6 780.7 151.5C780.9 178.1 774.7 206 755 225.1C753.6 226.4 755.7 228.6 757.1 227.2C775.8 209 782.9 183 783.6 157.6C784.3 132.7 781.3 101.2 760.8 84.1C741.6 68.1 713.1 68.9 692.6 81.9C669.9 96.3 656.5 122.4 653.6 148.7C651.8 165 653.8 181.9 659.8 197.3C664.9 210.3 673 222.7 686.4 228.1C688.1 228.9 688.8 226 687.1 225.3Z" fill="#161616"/>
<path d="M685.7 227.2C682.3 232 683 239.1 688 242.7C691.8 245.4 697.4 245.8 701.9 246.4C707.3 247.2 712.8 247.5 718.3 247.5C728.1 247.4 739.3 246.7 748.4 242.9C755 240.1 760 233.5 756.5 226.4C755.7 224.7 753.1 226.2 753.9 227.9C761.4 243.2 725.9 244.5 718.2 244.5C711.1 244.5 704 243.9 697.1 242.6C693.8 242 690.1 241.4 688 238.5C685.9 235.5 686.3 231.6 688.3 228.8C689.4 227.1 686.8 225.6 685.7 227.2Z" fill="#161616"/>
<path d="M688.9 243.4C688.9 248.4 689 253.5 689.6 258.5C689.9 260.8 690.4 262.8 692.3 264.2C695 266.2 699.5 266.1 702.7 266.4C708.1 266.8 713.6 266.8 719 266.6C724.1 266.4 729.2 266 734.3 265.5C737.3 265.2 740.7 265.3 743 263C748.1 258 748.2 248.5 746.9 242.2C746.5 240.3 743.6 241.1 744 243C744.7 246.4 744.9 249.8 744.2 253.3C743.2 258.2 741.8 261.4 736.3 262.4C729.9 263.6 722.7 263.6 716.2 263.7C709.8 263.8 702.6 264.1 696.3 262.6C690.5 261.2 692 248.2 692 243.4C691.9 241.5 688.9 241.5 688.9 243.4Z" fill="#161616"/>
<path d="M689.9 135.7C701.9 143.2 711 154.2 716.1 167.4C716.8 169.2 719.7 168.4 719 166.6C713.6 152.6 704.1 141 691.5 133.1C689.8 132 688.3 134.6 689.9 135.7Z" fill="#161616"/>
<path d="M718.5 167.4C724.4 155 733 144.4 744 136.2C745.5 135.1 744 132.4 742.5 133.6C731.1 142.1 722.1 153.1 715.9 165.9C715.1 167.6 717.7 169.1 718.5 167.4Z" fill="#161616"/>
<path d="M716.1 163.9C717.6 184.5 718.3 205.1 718 225.7C718 227.6 721 227.6 721 225.7C721.3 205.1 720.6 184.4 719.1 163.9C718.9 161.9 715.9 161.9 716.1 163.9Z" fill="#161616"/>
<path d="M599 214.3C612.3 209.8 625.5 205.3 638.8 200.8C640.6 200.2 639.8 197.3 638 197.9C624.7 202.4 611.5 206.9 598.2 211.4C596.3 212 597.1 214.9 599 214.3Z" fill="#161616"/>
<path d="M614.2 194.3C618.8 193 623.4 191.6 628 190.3C629.8 189.8 629.1 186.9 627.2 187.4C622.6 188.7 618 190.1 613.4 191.4C611.6 192 612.3 194.9 614.2 194.3Z" fill="#161616"/>
<path d="M580.9 161C598.5 160.8 616 161.3 633.5 162.4C635.4 162.5 635.4 159.5 633.5 159.4C616 158.3 598.4 157.9 580.9 158C579 158 579 161 580.9 161Z" fill="#161616"/>
<path d="M618.1 147.4C622.3 148.5 626.6 149 630.9 149.1C632.8 149.1 632.8 146.1 630.9 146.1C626.8 146 622.8 145.5 618.9 144.5C617 144 616.2 146.9 618.1 147.4Z" fill="#161616"/>
<path d="M611.6 54.3001C627.3 67.8001 641.6 82.6001 654.5 98.8001C655.7 100.3 657.8 98.2001 656.6 96.7001C643.7 80.5001 629.4 65.6001 613.7 52.2001C612.3 50.9001 610.1 53.0001 611.6 54.3001Z" fill="#161616"/>
<path d="M655.5 82.6999C658.2 85.4999 660.8 88.2999 663.5 91.1999C664.8 92.5999 666.9 90.4999 665.6 89.0999C662.9 86.2999 660.3 83.4999 657.6 80.5999C656.3 79.1999 654.2 81.2999 655.5 82.6999Z" fill="#161616"/>
<path d="M594.6 88.3C599.5 91.2 604.5 93.9 609.6 96.4C611.3 97.3 612.8 94.7 611.1 93.8C606 91.2 601 88.5 596.1 85.7C594.4 84.7 592.9 87.3 594.6 88.3Z" fill="#161616"/>
<path d="M768.6 65.5C783.4 50.7 798.2 35.9 813 21.1C814.4 19.7 812.2 17.6 810.9 19C796.1 33.8 781.3 48.6 766.5 63.4C765.1 64.8 767.2 66.9 768.6 65.5Z" fill="#161616"/>
<path d="M783.5 72.3999C787.3 69.5999 791.1 66.8999 794.9 64.0999C796.4 62.9999 795 60.3999 793.4 61.4999C789.6 64.2999 785.8 66.9999 782 69.7999C780.4 70.8999 781.9 73.4999 783.5 72.3999Z" fill="#161616"/>
<path d="M722.4 45.9C725.4 31.4 727.7 16.8 729.1 2.10005C729.3 0.200049 726.3 0.200049 726.1 2.10005C724.7 16.5 722.5 30.9 719.5 45.1C719.1 47 722 47.8 722.4 45.9Z" fill="#161616"/>
<path d="M806.5 137.9C833.7 135.4 860.8 132.9 888 130.4C889.9 130.2 889.9 127.2 888 127.4C860.8 129.9 833.7 132.4 806.5 134.9C804.6 135 804.5 138 806.5 137.9Z" fill="#161616"/>
<path d="M692.2 230.8C709.1 234.5 726.3 234.4 743.1 230.6C745 230.2 744.2 227.3 742.3 227.7C726 231.4 709.3 231.5 693 227.9C691.1 227.5 690.3 230.4 692.2 230.8Z" fill="#161616"/>
<path d="M694.7 256.2C707.6 257.9 720.5 258.3 733.5 257.4C735.4 257.3 735.4 254.3 733.5 254.4C720.5 255.3 707.6 254.9 694.7 253.2C692.8 253 692.8 256 694.7 256.2Z" fill="#161616"/>
<path d="M787.6 220.7C807.9 235 828.6 248.8 849.6 262.1C851.2 263.1 852.7 260.5 851.1 259.5C830.1 246.2 809.4 232.4 789.1 218.1C787.5 217 786 219.6 787.6 220.7Z" fill="#161616"/>
<path d="M532.1 924.1C513.1 947.4 494.2 970.6 475.2 993.9C497.5 1072.3 510.1 1092.9 517.6 1091.8C523 1091 525.6 1079.3 528.5 1066.2C535.7 1033.5 531.4 1005.4 527 987.9C539 974.5 550.9 961 562.9 947.6C552.6 939.8 542.4 932 532.1 924.1Z" fill="#161616" stroke="#161616" stroke-width="2"/>
<path d="M462 804.1C473.9 813.3 485.3 810 508.9 814C529 817.4 551.6 824.9 575.6 839.9C550 869.9 524.4 901.6 499 935C492.9 943.1 486.8 951.2 480.9 959.3C490.7 961.6 502.5 965.2 515.3 971C527.8 976.6 538 982.9 546.1 988.6C584.2 955.4 618.2 923.3 648.5 893C662.5 879 682.3 857.6 685.4 827.3C685.6 825.6 685.6 824.1 685.6 822.6C684.9 772.3 621.6 735.9 583.1 722.5C541 707.9 468.6 700 448.4 734.9C436.5 755.5 443.5 789.8 462 804.1Z" fill="#EC615B"/>
<path opacity="0.26" d="M535.9 753.8C535.2 763.3 533.5 774.6 530 787.1C527.5 796 524.5 803.9 521.5 810.6C518.2 811.9 515 813.2 511.7 814.5C533.2 823 554.8 831.5 576.3 840C560.3 858.3 544.2 877.5 528 897.5C511.3 918.1 495.4 938.3 480.3 958.2C491 961.7 501.6 965.2 512.3 968.6C550.6 926.4 588.9 884.1 627.2 841.9C631.2 830.4 631 821.4 629.8 815.1C624.3 784.3 586.6 759.2 535.9 753.8Z" fill="#6D6C6C"/>
<path opacity="0.23" d="M576.1 839.8C579.6 845.1 583 850.5 586.5 855.8C556.7 891.7 526.9 927.5 497.1 963.4C491.8 962 486.4 960.5 481.1 959.1C500.2 932.9 520.8 906 543.1 878.9C554.2 865.4 565.2 852.4 576.1 839.8Z" fill="#6D6C6C"/>
<path d="M476.6 886.1C506.1 891.5 535.7 896.8 565.2 902.2C599.3 976.6 603.1 1000.6 596.7 1004.7C592.1 1007.6 582.5 1000.4 571.8 992.3C545 972 530.1 947.8 522 931.5C504.2 929.1 486.4 926.6 468.6 924.2C471.2 911.5 473.9 898.8 476.6 886.1Z" fill="#161616" stroke="#161616" stroke-width="2"/>
<path d="M415.8 720.4C362 736.2 329.2 769 308.1 790.6C279.6 819.9 244.6 855.8 254.7 882.3C259.9 895.8 275.7 904.1 349.3 916.9C404.9 926.6 453.1 931.8 490.7 934.7C495.4 917.5 500.1 900.4 504.7 883.2C466.9 871 429.2 858.9 391.4 846.7C414.6 841.8 439 836 464.4 828.9C483.7 823.5 502.1 817.9 519.6 812C535.8 779.3 539.3 744 522.4 724C498.8 696 445.9 711.5 415.8 720.4Z" fill="#EC615B"/>
<path opacity="0.29" d="M535.5 755C535 764.9 533.3 777.6 528.7 791.6C525.9 800.1 522.7 807.5 519.5 813.6C516.8 813.8 514.1 814.1 511.4 814.3C488.6 821.8 464.3 828.9 438.6 835.5C422 839.8 405.8 843.5 390.1 846.9C428 858.8 465.9 870.6 503.8 882.5C503 886.6 502 890.9 500.8 895.4C499.4 900.6 497.8 905.4 496.3 909.8C444 896.9 391.7 884 339.4 871.1C337 868.2 329.1 857.7 330.3 843.8C331.6 828.7 346 818 364.4 808.2C417.6 780 506.8 760.9 535.5 755Z" fill="#6D6C6C"/>
<path opacity="0.24" d="M363.2 849C372.7 848.3 382.3 847.6 391.8 846.8C429.1 859.2 466.4 871.7 503.7 884.1C502.1 890 500.5 896 498.9 901.9C453.7 884.2 408.4 866.6 363.2 849Z" fill="#6D6C6C"/>
<path d="M401.7 493.8C416.5 485.1 442.2 472.7 476.4 469.1C528.8 463.6 569 482.4 584.9 490.9C582 530.2 577.5 561.6 573.9 583.2C569.6 609 566.1 623.3 564.5 647C562.5 676.7 565 701.1 567.3 717.1C549.9 722.5 523.6 728.4 491.2 727.7C460 727 434.8 720.2 417.9 714.3C422.4 678.5 420.9 650.1 418.7 630.8C416.2 609.3 412.8 598.8 408.7 572.8C403.4 539.2 402 511.7 401.7 493.8Z" fill="white" stroke="#161616" stroke-width="2"/>
<path opacity="0.14" d="M509.9 481C512 488.6 514.4 499.1 516 511.7C517.1 520.2 521.6 558.7 507.6 609.5C499 640.8 489.9 673.9 460.1 701.1C450.5 709.9 441.2 715.8 434.4 719.5C449.5 723.4 469.2 727.1 492.5 727.3C523 727.6 548.2 722.1 565.7 716.7C564.7 709.2 563.4 697.9 562.9 684.3C562.5 672.4 562.5 653.4 570.7 599.9C577.2 557.8 581.8 539.7 584.1 501.6C584.4 497.2 584.5 493.5 584.7 491C577.4 486.7 567.9 482 556.2 478.2C545.4 474.7 535.7 472.9 527.7 472.1C521.9 475 515.9 478 509.9 481Z" fill="#6D6C6C"/>
<path opacity="0.17" d="M581.8 507.3C576.2 539 568.8 564.6 563 582.4C546 634.4 534.1 669.4 502 695C482.1 710.9 461.4 717.6 448.1 720.8C461.6 724.6 480.7 728.3 503.8 727.8C530.4 727.2 551.9 721.2 566 716.1C564.1 703.9 561.9 685.6 562.5 663.3C563.2 634.4 567.9 617 573.1 585.3C576 566.7 579.7 540.1 581.8 507.3Z" fill="#6D6C6C"/>
<path d="M401.1 493.3C388.1 502.3 371.4 516.5 356.8 537.6C323.9 585.4 324.8 636.1 326.1 654.8C332.1 670.9 342.4 692 360.4 712.7C370.9 724.8 386.3 742.2 412.6 753.4C421.4 757.2 429.1 759.3 434.7 760.5C439.5 756.2 444.2 751.9 449 747.6C433.6 729.6 418.1 710.7 402.6 691.2C390.7 676.3 379.3 661.5 368.3 646.9C368.7 634.6 371.3 612.3 384.7 589C392.3 575.8 401.2 566.2 408.3 559.7C405.9 537.6 403.5 515.5 401.1 493.3Z" fill="white" stroke="#161616" stroke-width="2"/>
<path opacity="0.13" d="M403 515.6C374.2 548.1 360.5 578.9 353.7 598.3C341.8 631.9 344.3 649.5 346.1 657.9C347.6 664.5 350.9 675.8 363 693C373.5 707.9 395.6 734.6 437.7 756.6C441.4 753 445.1 749.5 448.8 745.9C436.9 732.5 424.9 718.4 412.8 703.7C396.9 684.4 382.1 665.4 368.4 646.8C368.8 636.7 370.5 622.6 376.4 606.8C385.3 583.1 399.3 567.5 408 559.2C406.2 544.7 404.6 530.2 403 515.6Z" fill="#6D6C6C"/>
<path opacity="0.16" d="M368.3 648.1C370.1 659.8 373.8 674.7 381.6 690.8C398.8 725.8 425.7 745.1 439.4 753.5C442.1 751.1 444.7 748.8 447.4 746.4C421 713.6 394.7 680.8 368.3 648.1Z" fill="#6D6C6C"/>
<path d="M586.4 491.5C601 500.4 619.8 514.3 636.1 535C673.1 581.9 672 631.7 670.6 650.1C663.8 665.9 652.3 686.6 632.1 707C620.3 718.8 603 735.9 573.5 747C563.6 750.7 554.9 752.8 548.6 754C543.3 749.8 537.9 745.6 532.6 741.4C549.8 723.7 567.3 705.2 584.7 686C598 671.3 610.8 656.8 623.2 642.5C622.7 630.5 619.9 608.6 604.8 585.6C596.2 572.6 586.3 563.2 578.3 556.8C581.1 535 583.8 513.3 586.4 491.5Z" fill="white" stroke="#161616" stroke-width="2"/>
<path opacity="0.16" d="M585.7 515.8C598.4 529.1 615.7 550.4 629.2 580.1C635.6 594.2 646 617.1 646.2 638.7C646.9 704.4 553.9 749.6 548.5 752.2C543.2 748.8 538 745.5 532.7 742.1C562.8 709.1 592.8 676.1 622.9 643.1C622.3 632.3 619.8 612.2 607.8 590.8C597.9 573.2 585.6 561.8 577.5 555.5C580.3 542.3 583 529.1 585.7 515.8Z" fill="#6D6C6C"/>
<path opacity="0.12" d="M623.9 643.4C622.4 652.1 619.9 661.6 616 671.4C598.4 715.8 562.8 740.1 544.8 750.5C540.5 747.7 536.3 744.9 532 742.1C562.6 709.2 593.2 676.3 623.9 643.4Z" fill="#6D6C6C"/>
<rect x="363.5" y="650.8" width="245.9" height="155.7" fill="white" stroke="#161616" stroke-width="2"/>
<path d="M482.9 743.5C469.9 745.1 463.6 729.3 467 718.8C470.3 708.4 482.6 703.5 492.6 707.1C502.5 710.7 507.3 722.8 503.8 732.5C499.9 743.3 486.3 747.7 476.3 742.9C474.6 742.1 473 744.7 474.8 745.5C483.7 749.8 494.6 748.2 501.7 741.2C508.6 734.3 509.6 723.4 505.3 714.9C495.5 695.5 465.2 701.7 463.1 723C462 734.4 470.2 748.1 482.9 746.6C484.8 746.3 484.8 743.3 482.9 743.5Z" fill="#161616"/>
<path opacity="0.14" d="M455.8 650.4C489.1 662 511.8 691.7 512.5 723.6C513.4 763.6 479.8 801.2 434 805C492.3 805.5 550.6 806 609 806.5C608.8 754.3 608.7 702.1 608.5 650C557.6 650 506.7 650.2 455.8 650.4Z" fill="#6D6C6C"/>
<path opacity="0.26" d="M609 649.9C608.1 681.7 601.8 706.5 596.5 722.8C588.7 746.5 583.1 763.8 567 779.1C545.1 800.1 517.8 804 505.8 805C539.9 805.3 574 805.6 608.1 806C608.2 776.3 608.4 746.6 608.6 716.8C608.6 694.5 608.8 672.2 609 649.9Z" fill="#6D6C6C"/>
<path d="M479.2 413.1C473.7 419.8 479 428 478 449.9C477.5 460.8 475.7 469.6 474.3 475.5C479 477.7 487.3 480.8 498 481.1C511.2 481.4 521.2 477.3 526.1 474.9C523.9 470.5 521 463.7 519.2 454.9C514.7 432.5 522.7 422 516.1 413.7C508.4 404.1 486.6 404 479.2 413.1Z" fill="white" stroke="#161616" stroke-width="2"/>
<path d="M444.3 316.9C438 333.1 440.4 347.7 441.8 354C441.2 354.1 429.5 356.6 426.3 365.6C423.1 374.7 429.7 387.6 443.5 391.8C448.5 404 460.6 427.6 486.1 440.5C490.4 442.6 494.5 444.3 498.6 445.5C502.3 444.1 507.3 441.9 513 438.6C530.8 428.3 540.7 415.5 543 412.4C547.2 406.8 552.9 397.8 556.9 385.4C559.1 385.8 563 386 566.8 384.1C575.4 379.7 579.7 366 573.7 357.1C568.7 349.7 559 349.4 557.8 349.4C559.1 344.2 563.1 325.5 553 307C541.4 285.7 516.5 274.5 493.1 277.7C458.5 282.2 444.9 315.3 444.3 316.9Z" fill="white" stroke="#161616" stroke-width="2"/>
<path d="M477.9 439.6C484 443.2 490.7 448.8 498.2 448.2C504.4 447.7 511.3 444.1 516 440.3C517.5 439.1 515.4 437 513.9 438.2C509.5 441.7 502.4 445.4 496.6 445.3C490.5 445.2 484.3 440.1 479.3 437C477.8 436 476.3 438.6 477.9 439.6Z" fill="#161616"/>
<path d="M477.5 440.9C483.2 445.8 489.7 451.3 497.7 450.9C505.5 450.5 512.8 445.3 517.9 439.7C519.2 438.3 517.1 436.2 515.8 437.6C511.4 442.4 505.2 447.1 498.4 447.8C490.9 448.5 484.9 443.4 479.6 438.8C478.2 437.5 476.1 439.6 477.5 440.9Z" fill="#161616"/>
<path d="M481.3 441.5C481.3 441.4 481.3 441.4 481.3 441.5C480.7 440.6 479.6 440.4 478.9 441.1C478.9 441.1 478.9 441.1 478.8 441.2C478.2 441.7 478.2 442.8 478.8 443.3C489.8 453.8 510 457.2 517.9 441.1C518.7 439.4 516.2 437.8 515.3 439.6C508.3 454 490.6 450.5 481 441.2C481 441.9 481 442.6 481 443.3C481 443.3 481 443.3 481.1 443.2C480.3 443.1 479.5 443 478.7 442.9V443C479.7 444.6 482.3 443.1 481.3 441.5Z" fill="#161616"/>
<path d="M493.3 349C492 365.2 492.7 381.3 495.3 397.3C495.4 398.1 496.4 398.6 497.1 398.3C501 397 503.8 394.7 505.9 391.2C506.9 389.5 504.3 388 503.3 389.7C501.6 392.6 499.5 394.3 496.3 395.4C496.9 395.7 497.5 396.1 498.1 396.4C495.5 380.7 494.9 364.8 496.2 348.9C496.5 347 493.5 347 493.3 349Z" fill="#161616"/>
<path d="M475.5 364.9C475.7 365.8 477.2 371.4 475.5 372.3C473.8 373.2 469 369.6 467.5 364.9C466.3 360.9 467.3 355.9 469.2 355.5C471.2 355 474.3 360.5 475.5 364.9Z" fill="#161616" stroke="#161616"/>
<path d="M527.1 364.9C527.3 365.8 528.8 371.4 527.1 372.3C525.4 373.2 520.6 369.6 519.1 364.9C517.9 360.9 518.9 355.9 520.8 355.5C522.8 355 525.9 360.5 527.1 364.9Z" fill="#161616" stroke="#161616"/>
<path d="M489.7 410.5C501.9 415.7 513 408.4 522 400.5C523.5 399.2 521.3 397.1 519.9 398.4C512.1 405.2 502.1 412.5 491.3 407.9C489.4 407.2 487.9 409.8 489.7 410.5Z" fill="#161616"/>
<path d="M524.9 380.8C526.8 380.8 526.8 377.8 524.9 377.8C523 377.8 523 380.8 524.9 380.8Z" fill="#161616"/>
<path d="M536 375.2C536.1 375.1 536.2 375 536.3 374.9C536.9 374.3 536.9 373.4 536.3 372.8C535.7 372.2 534.8 372.2 534.2 372.8C534.1 372.9 534 373 533.9 373.1C533.3 373.7 533.3 374.6 533.9 375.2C534.5 375.8 535.4 375.8 536 375.2Z" fill="#161616"/>
<path d="M532.7 382.5C532.8 382.5 532.9 382.5 533 382.5C533.8 382.5 534.5 381.8 534.5 381C534.5 380.2 533.8 379.5 533 379.5C532.9 379.5 532.8 379.5 532.7 379.5C531.9 379.5 531.2 380.2 531.2 381C531.2 381.8 531.8 382.5 532.7 382.5Z" fill="#161616"/>
<path d="M463.7 347C467.5 343.8 473.1 343.7 476.9 346.8C478.4 348 480.5 345.9 479 344.7C473.8 340.5 466.6 340.5 461.5 344.9C460.1 346.1 462.3 348.2 463.7 347Z" fill="#161616"/>
<path d="M512.5 345.9C516.8 342.1 522.9 341.4 528 344.1C529.7 345 531.2 342.4 529.5 341.5C523.2 338.1 515.7 339 510.4 343.8C508.9 345.1 511 347.2 512.5 345.9Z" fill="#161616"/>
<path d="M464.5 380.5C466.4 380.5 466.4 377.5 464.5 377.5C462.6 377.5 462.6 380.5 464.5 380.5Z" fill="#161616"/>
<path d="M475.1 379.1C477 379.1 477 376.1 475.1 376.1C473.2 376.1 473.2 379.1 475.1 379.1Z" fill="#161616"/>
<path d="M469.8 381.4C469.7 381.5 469.6 381.6 469.5 381.7C468.9 382.3 468.9 383.2 469.5 383.8C470.1 384.4 471 384.4 471.6 383.8C471.7 383.7 471.8 383.6 471.9 383.5C472.5 382.9 472.5 382 471.9 381.4C471.3 380.8 470.4 380.8 469.8 381.4Z" fill="#161616"/>
<path d="M460.6 284.4C454.6 288.1 441.5 296.2 432.6 312.8C423.7 329.3 423.8 344.9 424.2 351.6C409.6 377.9 403 401.1 399.8 416.9C394.6 442 397.4 451.2 401 457.3C409.8 472.3 427.5 476 431.8 476.9C453.9 481.6 471.5 470.3 475.5 467.7C476.6 464.4 477.7 460.3 478.3 455.7C479.4 447.8 478.8 441 477.9 436.1C472.9 432 467.1 426.5 461.5 419.3C453 408.3 448.2 397.5 445.5 389.7C436.7 388.8 430.1 382.8 429.5 376.1C428.9 369.8 433.3 361.7 439.1 361.7C443.4 361.7 446.5 366.1 447.1 366.9C450.4 365 455 361.7 459.1 356.5C465 349 466 342.3 468.7 335.3C471.3 328.5 476.3 319.1 487.1 309.3C497.5 313 505.8 316.6 511.5 319.3C529.8 327.8 540.2 332.8 548.3 343.7C552.8 349.7 555.1 355.6 556.3 359.3C565.6 352.2 569.4 354.1 570.2 354.5C576.1 357.8 575.9 375.9 566.7 380.9C563.2 382.8 559.2 382.3 556.7 381.7C553.8 391.8 547.4 408.3 532.7 422.9C527.8 427.8 522.8 431.6 518.3 434.5C517.9 438.2 517.7 443.3 518.7 449.3C519.6 454.8 521.2 459.3 522.7 462.5C547 478.5 577.2 475.6 593.6 458.4C608.2 443 608.2 419.7 602.7 403.8C597.7 389.3 588 380.6 583.2 376.8C584.5 371.2 591.7 338 570.8 307.5C565.4 299.6 550.3 280.5 523.1 273.9C494.3 266.9 470.6 278.3 460.6 284.4Z" fill="#5222D0"/>
<path opacity="0.17" d="M524 325.5C535.3 339.7 538.3 352.8 539.3 359.6C543.4 388.2 526.8 411.4 518.4 423.3C511.5 433 504.4 439.9 499.3 444.4C503.7 456.2 508 467.9 512.4 479.7C516.9 478.2 521.4 476.7 525.9 475.2C523.8 471.5 521.6 466.9 519.9 461.3C516.8 451.3 516.6 442.5 516.9 436.5C522.4 432.6 528.8 427.3 535 420.3C547.4 406.3 553.6 391.9 556.8 382.2C558.8 382.6 563.1 383.1 567.2 380.8C575.8 375.9 574.4 363.7 574.3 362.9C574 360.3 573.4 356.1 570.4 354.4C566.9 352.5 561.1 354.3 556.5 359.7C555.1 354.8 551.1 343.5 540.3 334.5C534.3 329.5 528.2 326.9 524 325.5Z" fill="#6D6C6C"/>
<path opacity="0.19" d="M494.7 349.9C494.1 349.8 492.1 358.5 486 396.9C489.5 396.9 493 396.9 496.5 396.9C495.8 391.8 495 384.4 494.6 375.4C494.1 360 495.3 350 494.7 349.9Z" fill="#6D6C6C"/>
<path opacity="0.54" d="M582.6 377.8C580.9 378.8 587.3 387.4 586.4 400.2C586.1 404.2 585.5 413.3 578.3 419.4C577.8 419.8 567.1 428.6 556.5 423C550.2 419.7 546.4 412.7 546.6 405.1C543.6 410.7 538.7 418.1 531 425.3C526.2 429.8 521.5 433.1 517.4 435.6C517.1 440 517.1 446 518.7 452.8C519.6 456.5 520.7 459.7 521.8 462.3C524.9 464.3 529.5 467 535.5 469.1C539.3 470.4 560.2 477.7 580.6 467.6C584.2 465.8 592.2 461.7 598 452.9C598.7 451.8 601.3 447.9 603.2 441.3C610 418.7 600 398.3 599.1 396.6C593.6 385.5 584.7 376.6 582.6 377.8Z" fill="#341999"/>
<path opacity="0.35" d="M445.4 390.1C444.5 390.2 446.5 398.4 444.3 406.5C442.7 412.5 437.6 422.3 428.9 424.3C419.8 426.3 408.5 419.6 403.3 407.1C400.9 412.6 397.7 421.4 397.2 432.6C396.9 439.9 396.5 447.7 400.1 455.4C408.2 472.6 432 479.3 449.7 477.7C461.5 476.6 470.4 472 475.2 468.9C476.4 465.5 477.6 461.4 478.4 456.7C479.7 448.6 479.4 441.5 478.7 436.3C470.8 430.6 465.4 424.7 462 420.4C457.2 414.3 450.7 406.1 447.4 394.7C446.9 393.4 446 390 445.4 390.1Z" fill="#341999"/>
</svg>
