<svg width="1438" height="949" viewBox="0 0 1438 949" fill="none" xmlns="http://www.w3.org/2000/svg">
<path d="M2.80006 408.9C54.8001 383.6 108.9 362.8 164.5 346.9C178.5 342.9 192.8 339.1 207.4 337.6C222.5 336.1 237.5 337.7 252.4 340.4C281.1 345.6 309.4 353.2 337.3 361.7C369 371.4 400.2 382.5 431.3 393.6C433.1 394.2 433.9 391.4 432.1 390.7C375.3 370.5 318.1 350.2 258.8 338.6C245 335.9 230.9 333.7 216.8 334.1C202.5 334.5 188.4 337.4 174.7 341C146.6 348.4 118.8 357.6 91.5001 367.7C60.8001 379.1 30.8001 392 1.40006 406.3C-0.399941 407.1 1.10006 409.7 2.80006 408.9Z" fill="#E8E8E8"/>
<path d="M285 346.1C325.4 335.2 366.7 327.9 408.1 321.7C428.5 318.7 448.9 315.9 469.4 313.1C490.4 310.3 511.5 307.7 532.8 307.5C608.9 306.9 681.3 334.1 754.1 352.3C794.5 362.4 835.8 369.9 877.6 368.8C879.5 368.8 879.5 365.8 877.6 365.8C800.8 367.8 727.8 340.9 654.4 322.2C618.5 313.1 582 305.7 544.9 304.5C504.3 303.3 463.7 310.6 423.6 316.3C376.7 323 330 330.7 284.2 343.1C282.4 343.8 283.2 346.7 285 346.1Z" fill="#E8E8E8"/>
<path d="M753.5 392.9C794 395.5 834.8 393.4 874.8 386.3C914.7 379.3 954.2 364 995.3 367C997.2 367.1 997.2 364.1 995.3 364C955.2 361.1 916.7 375.5 877.8 382.7C836.8 390.3 795 392.6 753.5 389.9C751.6 389.8 751.6 392.8 753.5 392.9Z" fill="#E8E8E8"/>
<path d="M166.6 352.7C157.9 364.6 161.1 380.9 169.7 391.9C180 405.1 197.1 410.7 212.4 415.9C221.4 419 230.5 422.1 238.6 427C242.6 429.4 246.3 432.1 249.6 435.4C251.9 437.8 254.1 440.3 253.6 444C253.2 446.9 249.9 449.6 247.8 451.4C240 458.3 232.1 465 224.2 471.8C218.6 476.6 211.8 482 211.1 489.9C209.9 503.7 226.7 509.7 237.4 512.3C258 517.4 278.9 521.2 299.9 524.2C341.5 530.1 383.5 532.7 425.5 534.7C468.4 536.7 511.4 538.1 554.3 541.8C564.7 542.7 575.2 543.7 585.6 545C592.8 545.9 606.5 548.7 605.1 558.6C603.9 566.8 592.1 571.9 586.2 576.6C578.8 582.4 571.9 589 565.7 596.1C559.8 602.9 554.5 610.2 549.9 618C546.5 623.8 543 631.1 544.9 638C546.7 644.3 552.7 646.7 558.6 647.3C568.7 648.3 579.2 647.6 589.3 647.3C631.7 645.9 673.8 639.8 716 636.6C737.2 635 758.5 634.2 779.8 635.1C799.5 636 820.4 637.5 839.2 643.6C846.8 646 854.8 649.7 860.1 655.9C866.6 663.5 866.2 673.3 860.9 681.5C855.8 689.4 847.8 695.4 840.6 701.4C832.1 708.4 823.4 715.2 814.5 721.7C806.2 727.7 797.8 733.5 789.2 739C787.6 740 789.1 742.6 790.7 741.6C808 730.4 824.6 718.3 840.5 705.3C852.1 695.8 870.3 683.2 867.8 665.8C865.8 652.3 852.3 644.9 840.6 641C822.5 635 802.3 633.4 783.5 632.4C740.7 630.1 698 635.1 655.5 639.4C634.4 641.5 613.3 643.5 592.1 644.3C581.7 644.7 571.1 645.1 560.7 644.5C555.6 644.2 549.9 643.1 547.9 637.7C546.1 632.7 548.5 626.8 550.8 622.3C559.7 605.4 573.2 590.5 588.1 578.8C596.1 572.5 617.5 560.8 603.9 548.6C599.4 544.6 592.9 543 587 542.2C576.4 540.8 565.7 539.8 555.1 538.9C533.9 537 512.6 535.8 491.3 534.7C448.1 532.5 404.8 531.3 361.6 527.9C319.3 524.6 276.1 519.9 235 508.6C227.9 506.6 218.6 503.3 215.1 496.1C210.2 485.9 221.7 477.8 228.4 472C236.2 465.2 244.8 458.8 252.1 451.4C256.9 446.5 258.2 441 253.8 435.4C243.1 422.1 224.9 416.9 209.4 411.6C192.2 405.7 172.5 397.8 166.1 379C163.2 370.5 163.7 361.4 169.1 354C170.3 352.6 167.7 351.1 166.6 352.7Z" fill="#E8E8E8"/>
<path d="M222.4 337.1C213.7 349 216.9 365.3 225.5 376.3C235.8 389.5 252.9 395.1 268.2 400.3C277.2 403.4 286.3 406.5 294.4 411.4C298.4 413.8 302.1 416.5 305.4 419.8C307.7 422.2 309.9 424.7 309.4 428.4C309 431.3 305.7 434 303.6 435.8C295.8 442.7 287.9 449.4 280 456.2C274.4 461 267.6 466.4 266.9 474.3C265.7 488.1 282.5 494.1 293.2 496.7C313.8 501.8 334.7 505.6 355.7 508.6C397.3 514.5 439.3 517.1 481.3 519.1C524.2 521.1 567.2 522.5 610.1 526.2C620.5 527.1 631 528.1 641.4 529.4C648.6 530.3 662.3 533.1 660.9 543C659.7 551.2 647.9 556.3 642 561C634.6 566.8 627.7 573.4 621.5 580.5C615.6 587.3 610.3 594.6 605.7 602.4C602.3 608.2 598.8 615.5 600.7 622.4C602.5 628.7 608.5 631.1 614.4 631.7C624.5 632.7 635 632 645.1 631.7C687.5 630.3 729.6 624.2 771.8 621C793 619.4 814.3 618.6 835.6 619.5C855.3 620.4 876.2 621.9 895 628C902.6 630.4 910.6 634.1 915.9 640.3C922.4 647.9 922 657.7 916.7 665.9C911.6 673.8 903.6 679.8 896.4 685.8C887.9 692.8 879.2 699.6 870.3 706.1C862 712.1 853.6 717.9 845 723.4C843.4 724.4 844.9 727 846.5 726C863.8 714.8 880.4 702.7 896.3 689.7C907.9 680.2 926.1 667.6 923.6 650.2C921.6 636.7 908.1 629.3 896.4 625.4C878.3 619.4 858.1 617.8 839.3 616.8C796.5 614.5 753.8 619.5 711.3 623.8C690.2 625.9 669.1 627.9 647.9 628.7C637.5 629.1 626.9 629.5 616.5 628.9C611.4 628.6 605.7 627.5 603.7 622.1C601.9 617.1 604.3 611.2 606.6 606.7C615.5 589.8 629 574.9 643.9 563.2C651.9 556.9 673.3 545.2 659.7 533C655.2 529 648.7 527.4 642.8 526.6C632.2 525.2 621.5 524.2 610.9 523.3C589.7 521.4 568.4 520.2 547.1 519.1C503.9 516.9 460.6 515.7 417.4 512.3C375.1 509 331.9 504.3 290.8 493C283.7 491 274.4 487.7 270.9 480.5C266 470.3 277.5 462.2 284.2 456.4C292 449.6 300.6 443.2 307.9 435.8C312.7 430.9 314 425.4 309.6 419.8C298.9 406.5 280.7 401.3 265.2 396C248 390.1 228.3 382.2 221.9 363.4C219 354.9 219.5 345.8 224.9 338.4C226.2 337.1 223.6 335.6 222.4 337.1Z" fill="#E8E8E8"/>
<path d="M50.1001 795.5C118.2 774.3 191 761.4 261.7 776.2C281.1 780.3 299.9 786.4 317.9 794.7C319.6 795.5 321.2 792.9 319.4 792.1C254.3 762 180.4 761.9 111.2 776.3C90.3001 780.6 69.6001 786.3 49.2001 792.6C47.5001 793.2 48.3001 796.1 50.1001 795.5Z" fill="#E8E8E8"/>
<path d="M576.2 467.8C592.1 469.9 607.1 461.6 622.9 461.1C640 460.5 656.8 465.4 673 470.2C674.9 470.7 675.6 467.9 673.8 467.3C657.9 462.6 641.5 457.8 624.8 458.1C608.4 458.3 592.7 467 576.3 464.9C574.3 464.5 574.3 467.5 576.2 467.8Z" fill="#E8E8E8"/>
<path d="M662 460C686.7 451.8 713.2 451.5 738 459.3C739.8 459.9 740.6 457 738.8 456.4C713.5 448.4 686.4 448.7 661.2 457.1C659.4 457.7 660.2 460.6 662 460Z" fill="#E8E8E8"/>
<path d="M226.1 647.6C231.2 648.3 235.9 647.9 240.7 646.3C241.5 646 241.9 645.3 241.7 644.5C240.9 640 240.1 635.5 239.3 631C238.6 631.6 237.8 632.1 237.1 632.7C239.7 634.5 242.9 633.6 244.8 631.1C248.2 626.7 243.9 621.7 245 617C247.4 606.8 260.3 619.2 263.4 622.4C268 627.1 271.7 632.5 274.6 638.4C275.5 640.1 278 638.6 277.2 636.9C272.4 627.2 264.1 615.5 253.6 611.1C250.3 609.7 246.2 609.3 243.6 612.2C242.3 613.6 241.8 615.5 241.8 617.4C241.8 618.5 241.9 619.5 242.1 620.6C242.2 621.4 242.4 622.1 242.6 622.9C243.9 626.2 242.6 628.6 238.5 630C237.3 629.2 236.1 630.5 236.3 631.7C237.1 636.2 237.9 640.7 238.7 645.2C239 644.6 239.4 644 239.7 643.4C235.4 644.9 231.2 645.4 226.7 644.7C225 644.5 224.1 647.4 226.1 647.6Z" fill="#E8E8E8"/>
<path d="M825.7 533.8C826.8 531.2 827.8 528.6 829 526.1C830.6 522.6 834 521.3 837.6 522.6C841.8 524.1 845.3 525.8 849.8 524.3C853.9 522.9 857.1 519.6 860 516.6C862.1 514.5 864.3 512.3 867 511.1C870.6 509.5 878.2 510.5 876.6 516.5C876.1 518.4 879 519.2 879.5 517.3C880.8 512.3 876.9 508.1 872 507.3C866 506.3 861.2 511.2 857.3 515.1C853.1 519.3 848.7 523.4 842.3 521.4C839.6 520.5 837 518.8 834.1 518.7C827 518.4 825.3 527.3 823.1 532.4C822.4 534.1 824.9 535.6 825.7 533.8Z" fill="#E8E8E8"/>
<path d="M1181.4 386.3C1247.5 398.7 1313.9 409.6 1380.5 418.8C1399.2 421.4 1417.8 423.8 1436.5 426.2C1438.4 426.4 1438.4 423.4 1436.5 423.2C1370.2 414.9 1304.2 405 1238.4 393.6C1219.7 390.3 1200.9 386.9 1182.2 383.4C1180.3 383.1 1179.5 385.9 1181.4 386.3Z" fill="#E8E8E8"/>
<path d="M678.6 831C703.5 843.3 730.5 833.1 756.1 829.2C771.2 826.9 786.1 828.4 801.1 830.3C816.4 832.2 831.8 834.1 847.1 836.1C849 836.3 849 833.3 847.1 833.1C832.7 831.3 818.3 829.5 804 827.7C789.8 825.9 775.5 824 761.2 825.6C734.5 828.5 706 841.3 680.1 828.5C678.4 827.6 676.8 830.2 678.6 831Z" fill="#E8E8E8"/>
<path d="M381.3 746.6C391.4 756.7 395.7 770.8 391.1 784.5C389.9 788.2 395.7 789.7 396.9 786.1C402.1 770.4 397.1 753.8 385.5 742.4C382.8 739.6 378.6 743.8 381.3 746.6Z" fill="#E8E8E8"/>
<path d="M391.4 787.5C394.9 796.1 402.9 801.5 411.8 803.1C413.7 803.4 414.5 800.5 412.6 800.2C404.8 798.8 397.4 794.3 394.3 786.7C393.6 784.9 390.7 785.7 391.4 787.5Z" fill="#E8E8E8"/>
<path d="M412.1 800.2C406 800.3 397.1 799.4 391.5 802.5C387 805.1 385.4 810.9 384.9 815.7C383.6 827.3 392.7 835.8 404.2 833.7C406.1 833.4 405.3 830.5 403.4 830.8C393.1 832.7 386.3 824.2 388.1 814.4C389 809.7 390.7 805.2 395.8 804.1C401 803 406.8 803.2 412.1 803.1C414 803.2 414 800.2 412.1 800.2Z" fill="#E8E8E8"/>
<path d="M402.6 831.2C396.5 831.7 388.3 834.9 389.6 842.3C390.7 848.8 395.8 855.4 399.4 860.7C402.5 865.2 406.1 869.2 410 872.9C423.4 885.5 439.2 894.5 453.9 905.3C467.9 915.7 479.8 928.6 489.8 942.9C490.9 944.5 493.5 943 492.4 941.4C480.5 924.5 466 909.2 448.5 898C432.9 888 415.4 876.9 404 862.1C401.5 858.9 399.4 855.4 397.3 851.9C395.5 848.9 393 845.5 392.5 842C391.7 836.6 398.2 834.6 402.6 834.3C404.5 834 404.6 831 402.6 831.2Z" fill="#E8E8E8"/>
<path d="M383.1 743.9C414.2 755.9 444.7 769.1 468.1 793.6C489.7 816.3 503.6 845.1 510.4 875.6C512.5 885.2 513.9 894.9 514.8 904.6C515.3 909.5 515.6 914.5 515.8 919.4C515.9 921.6 515.9 923.7 516 925.9C516 926.4 515.9 935.9 515.2 935.4C513.6 934.3 512.1 936.9 513.7 938C519.2 941.7 519.1 931 519.1 928.7C519 918.8 518.5 908.9 517.3 899.1C515.1 879.9 510.8 860.9 503.5 843C491.1 812.7 470 786.2 442.4 768.4C424.3 756.7 404 748.8 384 741.1C382.1 740.3 381.3 743.2 383.1 743.9Z" fill="#E8E8E8"/>
<path d="M392.4 754.5C436.1 792.6 471.8 840.3 493.3 894.3C499.1 908.9 503.8 923.9 507.4 939.2C507.8 941.1 510.7 940.3 510.3 938.4C497.1 882.9 469.1 831.6 431.4 788.9C419.9 775.9 407.6 763.7 394.5 752.4C393.1 751.1 391 753.3 392.4 754.5Z" fill="#E8E8E8"/>
<path d="M394 786C405.3 788.2 416.2 791.5 426.8 795.9C428.6 796.6 429.4 793.7 427.6 793C417 788.6 406 785.3 394.8 783.1C392.9 782.7 392.1 785.6 394 786Z" fill="#E8E8E8"/>
<path d="M437.4 795.3C440.2 788.2 444.2 781.8 449.2 776C450.5 774.6 448.4 772.4 447.1 773.9C441.7 780 437.5 786.9 434.5 794.5C433.9 796.3 436.8 797.1 437.4 795.3Z" fill="#E8E8E8"/>
<path d="M497.6 739.5C513.3 775.5 530.5 817.7 509.5 855.3C508.6 857 511.1 858.5 512.1 856.8C533.7 818.1 516.4 775 500.2 738C499.4 736.3 496.8 737.8 497.6 739.5Z" fill="#E8E8E8"/>
<path d="M500.3 736.9C509.4 740.3 525.4 746.1 523.1 758.7C522.8 760.6 525.6 761.4 526 759.5C528.7 744.9 512 738.2 501.2 734C499.3 733.4 498.5 736.3 500.3 736.9Z" fill="#E8E8E8"/>
<path d="M525.4 760.1C530.5 755.8 537.1 760.4 539.9 765.1C542.6 769.6 542.8 774.9 540.7 779.7C539.9 781.5 542.5 783 543.3 781.2C546.3 774.4 545.5 766.7 540.6 760.9C536.3 755.8 528.9 753.4 523.3 758C521.8 759.2 524 761.3 525.4 760.1Z" fill="#E8E8E8"/>
<path d="M540.6 783.7C548.9 782.8 553.4 790.9 556.9 797.2C560.7 804.1 564.1 811.2 566.9 818.6C572.3 832.9 575.5 848 576.3 863.2C577.7 890.2 571.4 918.3 549.9 936.4C548.4 937.7 550.6 939.8 552 938.5C575.4 918.7 581.4 887.2 578.9 858C577.4 841.5 573.2 825.3 566.6 810.1C563.3 802.5 559.6 794.4 554.5 787.8C551 783.4 546.4 780.1 540.6 780.8C538.7 780.9 538.7 783.9 540.6 783.7Z" fill="#E8E8E8"/>
<path d="M503 741.3C523.5 769.9 541.1 801.7 547.5 836.7C550.6 853.7 550.9 871.4 547.6 888.4C546 896.5 543.7 904.6 540.6 912.2C539 916.2 537.1 920.2 535 924C533 927.6 530.3 934.6 526 935.7C524.1 936.2 524.9 939.1 526.8 938.6C531.9 937.3 534.4 931.2 536.8 927C540.2 921 543 914.8 545.3 908.3C550 895.2 552.5 881.3 552.9 867.4C553.8 838.4 545.5 810.1 532.8 784.2C525.1 768.5 515.8 753.8 505.6 739.6C504.4 738.2 501.8 739.7 503 741.3Z" fill="#E8E8E8"/>
<path d="M574.2 831.9C574.7 830.2 575.2 828.4 575.7 826.7C576 825.6 576.5 822.4 577.2 821.5C579.5 818.5 586.9 820.6 590.1 821C591.5 821.1 592 819.3 591.2 818.4C587.9 815 584.1 810.3 585.9 805.3C587.6 800.5 595.3 798.3 598.3 803.3C599.1 802.7 599.9 802.1 600.7 801.5C598.5 798.8 596.1 795.3 596.4 791.6C596.8 786.9 601.5 783.9 606 784.5C607.3 784.7 608.3 783.5 607.7 782.3C603 772.7 611.3 762.1 614.4 753.2C617.6 744.1 618.8 734.5 618.4 724.9C618.3 723 615.3 723 615.4 724.9C616 737.3 613.4 749.1 608.3 760.3C604.8 767.8 601.2 775.7 605.1 783.8C605.7 783.1 606.2 782.3 606.8 781.6C601.7 780.9 596.2 783.1 594.1 788.2C591.8 793.8 595 799.4 598.5 803.6C599.6 804.9 601.7 803.2 600.9 801.8C597.7 796.4 589.6 796.3 585.4 800.6C579.2 807 584.2 815.4 589.2 820.5C589.6 819.6 589.9 818.8 590.3 817.9C586.7 817.5 579.1 815.1 576 817.9C573 820.6 572.4 827.5 571.4 831.1C570.8 833 573.7 833.8 574.2 831.9Z" fill="#E8E8E8"/>
<path d="M615.9 728C623 742.9 626.3 759 629.5 775.1C632.8 792.3 636.2 809.6 636.3 827.2C636.3 855 626.3 881.7 609.5 903.6C599.4 916.8 587.1 928.1 573.4 937.3C571.8 938.4 573.3 941 574.9 939.9C598.7 923.9 618.4 901.7 629.6 875.1C634.9 862.6 638.2 849.2 639.1 835.6C640.3 817.9 637.4 800.2 634.1 782.8C630.5 763.6 627 744.3 618.6 726.5C617.6 724.7 615 726.2 615.9 728Z" fill="#E8E8E8"/>
<path d="M618.8 740C621.3 775.4 617.3 810.9 607.3 844.9C602.2 862.2 595.5 879.1 587.4 895.3C579.8 910.4 571.4 929.3 556.6 938.6C555 939.6 556.5 942.2 558.1 941.2C569.1 934.2 575.7 922.9 582 911.8C589.1 899.3 595.3 886.4 600.6 873.1C611.4 846.3 618.3 818 621.1 789.2C622.7 772.9 622.9 756.4 621.7 740C621.6 738.1 618.6 738.1 618.8 740Z" fill="#E8E8E8"/>
<path d="M1070 908.4C1067.9 879.6 1074.3 850.8 1088.7 825.7C1088 825.9 1087.3 826.1 1086.6 826.2C1088.5 827.1 1090.3 828.1 1092.2 829C1093.4 829.6 1094.6 828.6 1094.4 827.3C1093.9 824.8 1094.1 822.7 1094.9 820.2C1094.3 820.5 1093.7 820.9 1093.1 821.2C1094.9 821.7 1096.6 822.2 1098.4 822.7C1099.5 823 1100.5 821.9 1100.2 820.9C1098.8 815 1104.5 810.7 1108.5 807.4C1112.3 804.2 1116 800.9 1119.4 797.2C1125.9 790.2 1131.4 782.4 1135.9 773.9C1135 773.9 1134.2 773.9 1133.3 773.9C1143.5 797.3 1141.7 825.1 1129.1 847.3C1122.4 859.1 1112.6 867.4 1102.7 876.3C1092.5 885.4 1084.6 895.9 1079.9 908.8C1079.2 910.6 1082.1 911.4 1082.8 909.6C1088.5 894 1099.2 883.4 1111.4 872.7C1121.3 864 1129.6 854.4 1135.1 842.3C1145.1 820.3 1145.7 794.7 1136 772.4C1135.5 771.4 1133.9 771.5 1133.4 772.4C1127.7 783.1 1120.4 792.7 1111.5 800.9C1105.5 806.4 1095.2 812.1 1097.4 821.7C1098 821.1 1098.6 820.5 1099.2 819.9C1097.4 819.4 1095.7 818.9 1093.9 818.4C1093.1 818.2 1092.3 818.7 1092.1 819.4C1091.2 822.4 1091 825 1091.6 828C1092.3 827.4 1093.1 826.9 1093.8 826.3C1091.9 825.4 1090.1 824.4 1088.2 823.5C1087.5 823.1 1086.6 823.3 1086.1 824C1071.5 849.5 1064.8 878.9 1067 908.2C1067.1 910.3 1070.1 910.3 1070 908.4Z" fill="#E8E8E8"/>
<path d="M1143.9 810.8C1150.2 804.5 1155.8 797.7 1160.8 790.3C1160 790.4 1159.2 790.5 1158.4 790.6C1168.6 802.4 1172.9 818.6 1170.2 834C1169.6 837.3 1168.7 840.6 1167.5 843.8C1166.7 845.9 1165.8 848.2 1164.5 850C1163.2 852 1162.2 852.3 1160 853.1C1158.5 853.6 1157.1 853.5 1156.3 855.2C1156 855.8 1156.3 856.1 1156.3 856.7C1157.1 858.4 1157.6 860.1 1157.8 862C1157.9 863.1 1157.9 864.1 1157.7 865.2C1158.2 864.7 1158.7 864.2 1159.2 863.7C1152.5 864 1153.1 870.6 1150.5 875.1C1146.9 881.3 1138 883 1131.9 885.7C1118.2 891.8 1105.9 900.8 1095.8 911.9C1094.5 913.3 1096.6 915.5 1097.9 914C1107.5 903.5 1118.9 894.9 1131.9 888.9C1137.2 886.5 1143.1 885 1148 881.7C1149.7 880.6 1151.2 879.3 1152.4 877.6C1154.4 874.8 1155.1 866.7 1159.2 866.5C1160.1 866.5 1160.6 865.8 1160.7 865C1160.8 863.3 1160.8 861.6 1160.5 859.9C1160 857.4 1158.8 856.8 1161.3 855.8C1164 854.7 1165 854.7 1166.6 852C1170.5 845.6 1172.8 838.1 1173.6 830.7C1175.2 815.4 1170.5 800 1160.5 788.4C1159.8 787.6 1158.6 788 1158.1 788.7C1153.2 795.9 1147.8 802.5 1141.7 808.6C1140.5 810.1 1142.6 812.2 1143.9 810.8Z" fill="#E8E8E8"/>
<path d="M1127.2 801.2C1126.2 810.3 1119.4 819.2 1114.6 826.8C1109.7 834.4 1104.5 841.7 1099.4 849.1C1089.5 863.5 1080 878.1 1073.7 894.5C1073 896.3 1075.9 897.1 1076.6 895.3C1083.4 877.6 1094.1 862 1104.8 846.5C1109.9 839.1 1115 831.7 1119.8 824.1C1124.1 817.1 1129.2 809.6 1130.1 801.2C1130.5 799.3 1127.5 799.3 1127.2 801.2Z" fill="#E8E8E8"/>
<path d="M1103.6 809.4C1102.9 816.5 1103.9 823.5 1106.7 830.1C1107.4 831.9 1110.3 831.1 1109.6 829.3C1107 822.9 1106 816.3 1106.7 809.4C1106.8 807.5 1103.8 807.5 1103.6 809.4Z" fill="#E8E8E8"/>
<path d="M1099.5 854.6C1105.8 855.6 1111.8 854.8 1117.7 852.2C1119.5 851.4 1117.9 848.8 1116.2 849.6C1111.2 851.8 1105.8 852.6 1100.4 851.7C1098.5 851.5 1097.6 854.3 1099.5 854.6Z" fill="#E8E8E8"/>
<path d="M766.6 939.4C838.5 939.4 910.5 939.4 982.4 939.4C1054.3 939.4 1126.3 939.4 1198.2 939.4C1238.8 939.4 1279.5 939.4 1320.1 939.4C1325.9 939.4 1325.9 930.4 1320.1 930.4C1248.2 930.4 1176.2 930.4 1104.3 930.4C1032.4 930.4 960.4 930.4 888.5 930.4C847.9 930.4 807.2 930.4 766.6 930.4C760.8 930.4 760.8 939.4 766.6 939.4Z" fill="#161616"/>
<path d="M1140.4 922.6C1187.4 922.6 1234.5 922.6 1281.5 922.6C1287.3 922.6 1287.3 913.6 1281.5 913.6C1234.5 913.6 1187.4 913.6 1140.4 913.6C1134.6 913.6 1134.6 922.6 1140.4 922.6Z" fill="#161616"/>
<path d="M706.3 938.2C718.8 938.2 731.2 938.2 743.7 938.2C749.5 938.2 749.5 929.2 743.7 929.2C731.2 929.2 718.8 929.2 706.3 929.2C700.5 929.2 700.5 938.2 706.3 938.2Z" fill="#161616"/>
<path d="M658.1 939.4C663.3 939.4 668.6 939.4 673.8 939.4C679.6 939.4 679.6 930.4 673.8 930.4C668.6 930.4 663.3 930.4 658.1 930.4C652.3 930.4 652.3 939.4 658.1 939.4Z" fill="#161616"/>
<path d="M1303.2 920.1C1315.7 920.1 1328.1 920.1 1340.6 920.1C1346.4 920.1 1346.4 911.1 1340.6 911.1C1328.1 911.1 1315.7 911.1 1303.2 911.1C1297.4 911.1 1297.4 920.1 1303.2 920.1Z" fill="#161616"/>
<path d="M1362.3 918.9C1367.9 918.9 1373.6 918.9 1379.2 918.9C1385 918.9 1385 909.9 1379.2 909.9C1373.6 909.9 1367.9 909.9 1362.3 909.9C1356.5 909.9 1356.5 918.9 1362.3 918.9Z" fill="#161616"/>
<path d="M254.1 948.3C325.5 948.3 396.9 948.3 468.3 948.3C474.1 948.3 474.1 939.3 468.3 939.3C396.9 939.3 325.5 939.3 254.1 939.3C248.3 939.3 248.3 948.3 254.1 948.3Z" fill="#161616"/>
<path d="M187.6 922.5C211.6 922.5 235.6 922.5 259.6 922.5C265.4 922.5 265.4 913.5 259.6 913.5C235.6 913.5 211.6 913.5 187.6 913.5C181.8 913.5 181.8 922.5 187.6 922.5Z" fill="#161616"/>
<path d="M289.2 928C297.2 928 305.2 928 313.2 928C319 928 319 919 313.2 919C305.2 919 297.2 919 289.2 919C283.4 919 283.4 928 289.2 928Z" fill="#161616"/>
<path d="M471 262C475.4 253.6 480.5 245.7 486.5 238.3C490.1 233.8 483.8 227.4 480.1 231.9C473.6 239.9 468 248.3 463.2 257.4C460.5 262.5 468.3 267.1 471 262Z" fill="#161616"/>
<path d="M513.6 200.3C516.3 193.5 520.5 187.7 525.7 182.7C529.9 178.7 523.6 172.4 519.3 176.3C512.8 182.3 508.1 189.6 504.8 197.8C502.8 203.3 511.5 205.6 513.6 200.3Z" fill="#161616"/>
<path d="M552 143.5C558 136.4 564 129.3 570 122.2C573.7 117.8 567.4 111.4 563.6 115.8C557.6 122.9 551.6 130 545.6 137.1C542 141.6 548.3 148 552 143.5Z" fill="#161616"/>
<path d="M604.3 78C612.6 71 620.8 64 629.1 57.1C633.5 53.4 627.1 47 622.7 50.7C614.4 57.7 606.2 64.7 597.9 71.6C593.5 75.4 599.9 81.7 604.3 78Z" fill="#161616"/>
<path d="M679 28.1C685.1 25.9 691.2 25 697.6 25.5C703.4 25.9 703.4 16.9 697.6 16.5C690.4 16 683.4 17 676.6 19.4C671.2 21.3 673.5 30 679 28.1Z" fill="#161616"/>
<path d="M746 28.1C750.4 30.2 753.9 33.7 755.5 38.4C757.4 43.9 766.1 41.5 764.2 36C761.9 29.2 757.1 23.4 750.6 20.3C748.4 19.3 745.7 19.7 744.4 21.9C743.2 23.9 743.8 27.1 746 28.1Z" fill="#161616"/>
<path fill-rule="evenodd" clip-rule="evenodd" d="M408.3 165.9C416 165.7 422.1 181.5 424.8 188.5C440.6 229.6 427.1 275.3 413.5 306C411.2 302.1 408.1 296.5 404.8 289.5C397.8 274.8 386.2 250.2 386.5 222.5C386.8 196.3 397.6 166.1 408.3 165.9ZM403.5 213.6C406.9 216.8 411.7 215.8 415 212.8C417.9 210.1 418.6 206 417.6 202.4C417.4 201.4 417.1 200.4 416.6 199.5C415.8 198 414.5 196.9 413 196.1C410 194.2 406.1 194.2 403 196.9C398.8 200.6 398.6 206.8 401.6 211C402.1 212 402.7 212.9 403.5 213.6Z" fill="#F87774"/>
<path d="M416.7 168.7C432.4 184.1 434.9 209 434.7 229.9C434.4 253.4 428.8 276.7 418.5 297.8C417.7 299.5 420.2 301 421.1 299.3C431.9 277.2 437.7 252.8 437.7 228.1C437.7 206.9 434.7 182.2 418.8 166.5C417.5 165.2 415.3 167.3 416.7 168.7Z" fill="#BC5B5B"/>
<path d="M405.1 197C400.8 202.9 402.6 210.9 408.9 214.5C410.6 215.5 412.1 212.9 410.4 211.9C405.4 209.1 404.3 203.2 407.7 198.6C408.8 197 406.2 195.5 405.1 197Z" fill="#BC5B5B"/>
<path d="M954.1 850.5C952.2 857.4 956.2 860.1 953.6 868C952.5 871.2 950.2 875.9 937.7 885.5C926.6 894 916.5 899.4 913.5 900.9C897.4 909.3 891 909.9 887.3 917.3C886.8 918.3 883.1 925.8 886.3 930.7C890.7 937.4 904.1 932.3 932.1 930.2C956.6 928.4 958.6 931.3 977.3 928.7C994.2 926.3 1007.5 921.8 1015.9 918.4C1016.6 899.5 1013.7 885.6 1010.8 876.2C1006.5 862.4 1002.6 859.4 999 842.8C997.6 836.3 997.5 833.6 994.9 831.5C985.6 824.1 958.4 834.9 954.1 850.5Z" fill="#161616"/>
<path opacity="0.38" d="M964.3 851.1C965.9 853.5 977.9 871.6 970.8 885.4C966.5 893.7 956.8 897.4 942.6 902.7C931.2 907 929.7 905.6 921.6 909.2C906.5 916 893.2 929.4 895.4 933.7C897.4 937.7 910.9 930.7 941.7 929.6C955.2 929.1 957 930.2 967.5 929.6C978.9 928.9 995.5 926.5 1015.7 918.3C1016.4 907.6 1015.4 898.7 1014.4 892.5C1013.2 885.5 1011.6 876.3 1007 866.7C1006 864.6 1004 860.8 1002.3 855.1C1001 850.7 1000.3 847 999.9 844.6C988 846.7 976.1 848.9 964.3 851.1Z" fill="#6C6D6D"/>
<path opacity="0.26" d="M965.8 850.2C974.1 852.4 983.7 854.2 994.4 854.8C996.9 854.9 999.4 855 1001.8 855C1001 851.5 1000.1 848 999.3 844.5C988.2 846.4 977 848.3 965.8 850.2Z" fill="#6C6D6D"/>
<path d="M1099.8 491C1097.1 509.7 1084 518.9 1058 553.7C1033.1 587 1016.3 616.6 1005.9 636.5C997.8 654.9 989.4 679.5 985.4 709.3C977.4 769.7 992.3 818.7 1002.5 844.6C984.7 847.6 966.9 850.7 949.1 853.7C934.7 819.3 919.8 770.8 919.6 712.2C919.4 650.2 935.4 603.3 964.9 523.3C978.3 486.9 997.9 438.3 1025.8 382.3C1093 433.2 1103.1 468.3 1099.8 491Z" fill="#EC615B"/>
<path d="M1205.6 834.5C1203.7 841.4 1207.7 844.1 1205.1 852C1204 855.2 1201.7 859.9 1189.2 869.5C1178.1 878 1168 883.4 1165 884.9C1148.9 893.3 1142.5 893.9 1138.8 901.3C1138.3 902.3 1134.6 909.8 1137.8 914.7C1142.2 921.4 1155.6 916.3 1183.6 914.2C1208.1 912.4 1210.1 915.3 1228.8 912.7C1245.7 910.3 1259 905.8 1267.4 902.4C1268.1 883.5 1265.2 869.6 1262.3 860.2C1258 846.4 1254.1 843.4 1250.5 826.8C1249.1 820.3 1249 817.6 1246.4 815.5C1237.1 808.1 1209.9 818.9 1205.6 834.5Z" fill="#161616"/>
<path opacity="0.38" d="M1209.1 835.6C1210.8 837.6 1222.3 851.7 1217.8 863.5C1214.5 872.1 1203.6 877 1190.9 882.8C1179.8 887.9 1178.2 886.6 1170.4 890.8C1163.5 894.5 1142.8 911.7 1146 917.1C1147 918.9 1149.8 918 1167.2 916.2C1178.4 915.1 1186.6 914.2 1196.4 914C1206.4 913.8 1206.8 914.5 1215.5 914C1226.1 913.4 1234.1 912 1236.4 911.5C1244.3 910 1255 907.3 1267.2 902C1268.1 881.2 1265.4 869.3 1262.9 862.3C1257.5 847.3 1256.4 845.1 1256.4 845.1C1254.2 840.4 1252.4 837.4 1251.5 832.2C1251.2 830.2 1251 828.3 1250.3 824.8C1249.6 821.5 1248.8 818.9 1248.1 817.1C1246.6 819.8 1241.8 828 1231.5 832.8C1221.4 837.6 1212.1 836.2 1209.1 835.6Z" fill="#6C6D6D"/>
<path opacity="0.38" d="M1213.9 835.9C1215.3 837.1 1227.7 847.2 1241.9 843.2C1246.7 841.8 1250.3 839.2 1252.5 837.2C1251 830.6 1249.4 824.1 1247.9 817.5C1236.6 823.6 1225.2 829.8 1213.9 835.9Z" fill="#6C6D6D"/>
<path d="M1132.2 406.1C1137.8 413.2 1145.5 423.8 1153.4 437.4C1177.7 479 1183.8 514.6 1191.4 553.6C1201.1 603.4 1213.5 652.5 1223.8 702.2C1233.9 751 1242.6 790.9 1248.4 817.3C1247.5 819 1238.3 834.6 1220.5 836.3C1211 837.2 1203.6 833.6 1200.4 831.8C1173.8 784.3 1157.2 743.5 1146.8 714.5C1119.4 638.3 1113.2 582.4 1066.4 508.9C1058.4 496.3 1051.2 486.3 1046.3 479.9C1028.1 456.2 1031.3 422.3 1053 402.8C1075.3 382.5 1110.8 383.7 1132.2 406.1Z" fill="#EC615B"/>
<path d="M1094.5 439.2C1098.7 461.7 1108.8 488 1134.7 491.4C1136.6 491.6 1136.6 488.6 1134.7 488.4C1110.3 485.2 1101.3 459.2 1097.4 438.4C1097.1 436.5 1094.2 437.3 1094.5 439.2Z" fill="#842B08"/>
<path d="M1136 456.8C1168.9 543.7 1194.7 633.2 1213.1 724.3C1218.3 750.3 1223 776.5 1227 802.7C1227.3 804.6 1230.2 803.8 1229.9 801.9C1215.8 710.1 1194.3 619.4 1165.4 531.1C1157.2 505.9 1148.3 480.8 1138.9 456C1138.2 454.2 1135.3 455 1136 456.8Z" fill="#842B08"/>
<path d="M1056.8 494.9C1067.6 512.2 1078.3 529.5 1089.1 546.8C1090.1 548.4 1092.7 546.9 1091.7 545.3C1080.9 528 1070.2 510.7 1059.4 493.4C1058.3 491.8 1055.7 493.3 1056.8 494.9Z" fill="#842B08"/>
<path opacity="0.41" d="M1077.7 425.1C1095.4 445.5 1120 477.8 1140.4 522.1C1151.5 546.2 1160.3 578.3 1177.9 642.3C1197 711.9 1206.2 756.1 1208.9 769.7C1214.3 796.4 1218.2 819.1 1221 836C1223.8 835.7 1227.2 834.9 1230.8 833.3C1240.9 828.8 1246.1 820.7 1248.1 817.1C1247 811.6 1245.3 803.5 1243.2 793.6C1239.3 775.1 1236.7 763 1233.8 749.7C1231.2 737.8 1227.6 720.8 1223.2 699.9C1220.9 688.5 1218.8 679.3 1217.4 673C1214.7 661.2 1213 655.1 1210.4 642.6C1208.8 635.1 1208.1 631.1 1207.1 626.1C1203.2 606.1 1201.4 601.8 1197.1 582.4C1191.8 558.2 1187.6 532.6 1183.4 514.6C1182.6 511.1 1181.9 508.4 1181.5 507C1180.2 501.9 1178.3 495.2 1175.6 487.5C1167.4 463.4 1158.5 447.5 1149.1 431.1C1135 406.4 1130.7 404.3 1128.6 403.4C1108.5 395.2 1081.9 420.9 1077.7 425.1Z" fill="#6C6D6D"/>
<path opacity="0.39" d="M1057.2 493.3C1019.6 538.5 997.1 580.8 983.7 610.7C963.2 656.3 929.2 732.2 948.1 820C951.1 833.7 954.7 844.8 957.3 851.9C972.3 849.4 987.4 846.9 1002.4 844.4C998.1 834 993 819.7 989.1 802.2C986.1 788.6 978.5 749.9 986.4 701.6C989.9 679.9 995.4 664 997.3 658.4C1003.3 641.3 1009.9 628.9 1015 619.4C1017.6 614.4 1024 602.8 1037.5 582.8C1047.2 568.4 1060.6 549.7 1078 528.5C1071 516.7 1064.1 505 1057.2 493.3Z" fill="#6C6D6D"/>
<path opacity="0.48" d="M1066 508.8C1052.1 526.6 1036.5 549.7 1022.7 578.1C1002.6 619.4 993.2 657.5 988.6 685.9C991.8 672.8 997.1 654.6 1006.6 634.2C1015.1 615.9 1023.3 603.4 1034.2 586.9C1044.5 571.4 1058.9 551.2 1077.9 528.4C1074 521.8 1070 515.3 1066 508.8Z" fill="#6C6D6D"/>
<path opacity="0.48" d="M1181.8 509.6C1192.6 567.5 1202.8 627.1 1212.3 688.3C1219.8 737 1226.6 784.8 1232.7 831.8C1234.5 831 1236.6 829.8 1238.7 828.2C1243.9 824.3 1246.8 819.6 1248.3 816.6C1226.2 714.2 1204 611.9 1181.8 509.6Z" fill="#6C6D6D"/>
<path d="M817.5 94.7001C816.8 95.1001 812.1 97.5001 811.6 102C811.1 105.9 814 108.9 815.7 110.7C824.7 120 842.4 117.7 846.3 117.1C849.3 118 853.9 119.6 859.1 122.1C874.7 129.6 884.2 139.7 887.9 143.6C899.2 155.3 915.7 166.6 948.7 189.3C958.7 196.2 973.6 206 992.6 216.7C996.1 216.7 1001.9 216.3 1008.1 213.5C1010.5 212.4 1026.4 205.2 1027.7 189.7C1028.8 177.5 1020 168.7 1018.6 167.3C1003 161.1 990.1 155.5 980.7 151.3C920.6 124.6 884.3 102.1 876.1 96.9001C870.1 93.1001 865.2 89.9001 861.9 87.8001C859.6 83.8001 854.1 75.5001 843.6 70.0001C841.6 69.0001 826.6 61.4001 809.8 66.8001C806.7 67.8001 804.2 69.0001 802.5 70.0001C793.7 68.9001 783 68.1001 782.4 70.5001C782 72.1001 786.2 74.4001 792 77.8001C798.1 81.5001 806.9 87.0001 817.5 94.7001Z" fill="white"/>
<path d="M846.8 115.9C839.5 116.7 832.1 116.3 825 114.2C821.7 113.2 818.1 112 815.7 109.5C810.6 104.3 814.7 99.1 819.3 95.9C820.9 94.8 819.4 92.2 817.8 93.3C814.5 95.6 811 98.1 810.3 102.3C809.6 106.3 811.7 110.1 814.8 112.6C823 119.4 836.8 120 846.8 118.9C848.7 118.7 848.7 115.7 846.8 115.9Z" fill="#161616"/>
<path d="M816.5 92.8C810.9 88.9 805.3 85.1 799.6 81.5C797 79.8 794.4 78.2 791.8 76.6C790.2 75.6 788.6 74.7 787 73.7C786 73.1 782.5 71.8 782.3 70.9C782.1 71.5 781.8 72 781.6 72.6C786.3 69.1 796.3 71.5 801.3 72.7C807 74.1 813.5 75.8 818.5 79C820.1 80 821.6 77.4 820 76.4C813.9 72.5 805.6 70.4 798.6 69C793.4 68 784.7 66.6 780.1 70C779.6 70.4 779.2 71 779.4 71.7C780 73.7 782.3 74.4 783.9 75.4C787.4 77.4 790.8 79.5 794.2 81.6C801.3 86 808.2 90.6 815 95.4C816.6 96.5 818.1 93.9 816.5 92.8Z" fill="#161616"/>
<path d="M803 72.1C813 65.7 825.7 64.2 836.8 69C847.1 73.4 854.5 82.2 861.3 90.8C862.5 92.3 864.6 90.2 863.4 88.7C855.8 79.2 847.4 69.5 835.6 65.3C824.3 61.3 811.6 63.1 801.6 69.6C799.9 70.5 801.4 73.1 803 72.1Z" fill="#161616"/>
<path d="M861.7 90.3001C911.5 120.5 963.4 147 1017.1 169.6C1018.9 170.3 1019.7 167.4 1017.9 166.7C964.5 144.2 912.8 117.8 863.2 87.7001C861.5 86.8001 860 89.3001 861.7 90.3001Z" fill="#161616"/>
<path d="M845.1 117.8C859.5 121.4 870.6 131.3 881.7 140.6C893.1 150.1 904.6 159.5 916.4 168.6C940.4 187.1 965.6 204.2 992.5 218.3C994.2 219.2 995.7 216.6 994 215.7C966.4 201.2 940.6 183.6 915.9 164.5C903.6 155 891.7 145.1 879.8 135.2C869.6 126.7 859 118.2 845.9 115C844 114.4 843.2 117.3 845.1 117.8Z" fill="#161616"/>
<path d="M1016.2 169.9C1028.4 175 1028 190.2 1021.4 199.7C1015.7 207.9 1002.5 218.2 992 214.4C990.2 213.7 989.4 216.6 991.2 217.3C1003.9 221.9 1019.8 209.1 1025.6 198.6C1031.8 187.4 1029.6 172.4 1016.9 167.1C1015.2 166.2 1014.4 169.1 1016.2 169.9Z" fill="#161616"/>
<path d="M1029.1 166.6C1026.7 167.1 1023.2 168.2 1019.5 170.4C1012.9 174.5 1009.5 180.1 1007 184.8C995.7 206 992.6 222.2 992.6 222.2C988.4 244.2 990.9 262 992.6 273.5C995.6 293.8 998.8 292.4 1002.2 314.7C1003.7 324.5 1005.6 340.9 1004.6 361.2C1003.9 375.2 1002.1 387.1 1000.3 396.2C1002.6 398.8 1006.1 402.5 1010.9 406.3C1035.9 426 1066.1 424.5 1075.7 424C1103 422.6 1123 411.3 1132.8 404.8C1133.8 403.4 1134.7 401.9 1135.7 400.5C1134 396.2 1131.7 389.4 1129.9 380.8C1125.8 360.7 1128.1 346.7 1129.9 322.8C1130.7 311.8 1131.7 295.6 1131.8 275.3C1129.4 275.3 1127 275.3 1124.6 275.3C1122.8 275.4 1106.5 275.7 1096.3 262.8C1087.5 251.7 1089.6 238.7 1090.1 235.9C1092.6 220.2 1105.8 207.1 1123.7 201.8C1116.2 197.8 1108.1 193 1099.7 187.4C1090.3 181.1 1082 174.8 1074.8 168.7C1066.7 170.7 1060.1 172.6 1055.6 174C1046.1 176.9 1042.5 178.4 1038.3 176.9C1033.1 175.2 1030.4 170.1 1029.1 166.6Z" fill="white"/>
<path d="M1030.6 166.4C1020.5 165.9 1012.9 173.1 1007.6 181C1000.7 191.2 996 203.2 992.8 215C985.8 241.2 988.9 266.8 994.9 292.8C998.1 306.4 1001.5 320 1002.9 334C1004.3 349 1003.5 364.2 1001.4 379.1C1000.7 384.4 998.4 390.7 998.9 396C999.4 400.7 1004.3 403.7 1007.8 406.3C1017.5 413.5 1028.6 418.6 1040.3 421.7C1068.4 429.1 1097.9 424 1124.1 412.5C1125.9 411.7 1124.3 409.1 1122.6 409.9C1099.7 419.9 1074 425.1 1049.1 420.6C1038 418.6 1027.2 414.8 1017.5 409.1C1013.2 406.6 1008 403.6 1004.6 399.9C999.9 394.7 1003.7 384.2 1004.6 377.7C1007.8 353.5 1006.5 330.2 1001.1 306.4C995.7 282.2 989.3 258.5 992.2 233.5C993.8 219.8 997.7 206.4 1003.7 194C1008.8 183.4 1016.8 168.7 1030.5 169.4C1032.6 169.5 1032.6 166.5 1030.6 166.4Z" fill="#161616"/>
<path d="M1099 189.4C1106.8 193.5 1114.5 197.9 1122.2 202.4C1123.9 203.4 1125.4 200.8 1123.7 199.8C1116.1 195.3 1108.4 191 1100.5 186.8C1098.8 185.9 1097.3 188.5 1099 189.4Z" fill="#161616"/>
<path d="M1124.4 199.8C1110.7 205.7 1100.1 212.9 1093.2 226.5C1087.8 237.3 1083.7 251.5 1093.6 261.1C1095 262.4 1097.1 260.3 1095.7 259C1085.5 249.2 1092.2 233.8 1098.2 223.6C1104.5 212.9 1114.8 207.2 1125.9 202.4C1127.7 201.6 1126.1 199 1124.4 199.8Z" fill="#161616"/>
<path d="M1129.9 277.8C1132.3 299.2 1127.7 320.2 1126.4 341.5C1125.2 361.8 1127.7 382.1 1133.6 401.5C1134.2 403.3 1137.1 402.6 1136.5 400.7C1130.5 380.9 1128.1 360.3 1129.5 339.6C1130.9 319 1135.1 298.5 1132.8 277.8C1132.7 275.9 1129.7 275.9 1129.9 277.8Z" fill="#161616"/>
<path d="M1133.8 400.7C1130.8 404.6 1127.1 407.8 1122.8 410.2C1121.1 411.1 1122.6 413.7 1124.3 412.8C1129.1 410.1 1133.1 406.5 1136.4 402.2C1137.6 400.6 1134.9 399.1 1133.8 400.7Z" fill="#161616"/>
<path d="M1092.9 260.6C1102.5 271.9 1116.5 278.1 1131.3 277.7C1133.2 277.7 1133.2 274.7 1131.3 274.7C1117.2 275 1104.1 269.1 1095 258.4C1093.7 257 1091.6 259.1 1092.9 260.6Z" fill="#161616"/>
<path opacity="0.15" d="M1048.4 194.1C1067.1 231.3 1074.7 264.1 1078.1 286.2C1082.1 312.3 1081.9 333.1 1081.7 345C1081.1 377.2 1076.6 404 1072.2 423.5C1075.8 423.3 1079.3 423.1 1082.9 422.9C1089.9 422.9 1102.2 421.8 1115.6 415.2C1124.2 410.9 1130.5 405.6 1134.6 401.5C1130.6 387.1 1129.2 375.4 1128.7 367.6C1127.3 347.7 1130.3 336.8 1131.7 308.2C1132.4 294.2 1132.4 283 1132.3 276.1C1126.7 276 1117.4 275 1107.9 269.6C1102.5 266.5 1093.6 261.3 1090.7 251.2C1088.9 244.9 1090.2 239.5 1091.3 235.2C1091.9 232.8 1096.2 216.6 1112.1 207.9C1117.7 204.8 1122.9 203.6 1126.4 203.1C1106.8 193 1087.2 182.9 1067.6 172.8C1065.8 175.9 1063.5 179.3 1060.5 182.9C1056.2 187.7 1052 191.4 1048.4 194.1Z" fill="#6C6D6D"/>
<path opacity="0.29" d="M1100.3 265.6C1104.1 286.4 1107.2 315 1104.1 348.6C1101.4 378.3 1094.7 403 1088.2 421.5C1094.6 421.2 1104.2 419.9 1115 415.5C1124.7 411.5 1131.9 406.2 1136.5 402.3C1134.4 396.7 1131.8 388.7 1130.1 378.9C1129.4 374.7 1128.2 367 1128.2 354C1128.1 332.4 1131.1 326 1132 304.5C1132.3 298.3 1132.4 288.6 1131.6 276.6C1128.3 277 1122.5 277.2 1115.7 275.1C1107.8 272.6 1102.7 268.1 1100.3 265.6Z" fill="#6C6D6D"/>
<path d="M1128.2 202.3C1118.5 202.7 1111.5 208.6 1107.1 212.1C1103.6 215 1093.7 223.2 1091.2 237.4C1090.5 241.4 1089 249.9 1093.5 258C1100.4 270.2 1116.3 273.1 1120.6 273.9C1127 275.1 1127.7 273.8 1130.9 275.3C1134.5 276.9 1140.8 281.6 1144.5 307.6C1146.4 320.9 1148.9 339.8 1143.1 364.7C1138 386.7 1133.8 393.2 1129.5 396.5C1124.8 400.2 1117 403.8 1116.4 404C1108.5 407.6 1106.8 406.8 1099.5 410.1C1093.9 412.6 1087.4 415.4 1082.2 421.8C1077.4 427.6 1075.5 434 1074.7 438.2C1082.2 437.1 1089.7 436 1097.2 434.9C1098.4 437 1100.1 440.2 1101.9 444.3C1105.7 453 1107.1 459.9 1107.5 461.6C1109.1 468.6 1114.7 479.8 1131.8 498.1C1129.8 485.6 1127.7 473.1 1125.7 460.7C1127.7 465.4 1130.8 471.1 1135.5 477.1C1142.5 486 1150.2 491.6 1155.6 494.9C1154.7 482.4 1153.7 469.9 1152.8 457.5C1157.8 464.5 1162.8 471.5 1167.8 478.6C1167 472.1 1165.5 464.4 1162.7 456.1C1157.3 440.1 1149.3 428.3 1143 420.5C1145.9 418.3 1149.9 415.1 1154.2 410.7C1160.5 404.3 1165.4 397.6 1170.1 389.6C1180.5 372.1 1188.6 358.5 1193 338.6C1194.4 332.2 1200.4 302.8 1188.8 267.9C1185.7 258.5 1176.7 235.1 1155.6 215.9C1141.6 203 1133 202.1 1128.2 202.3Z" fill="white"/>
<path d="M1126.9 201.1C1144.6 208.1 1160.3 219.6 1171.3 235.2C1181.6 249.9 1186.8 266.9 1191 284.2C1200.1 321.4 1189.4 358.4 1168.2 389.4C1161 399.9 1152.8 409.7 1143.9 418.8C1142.6 420.2 1144.7 422.3 1146 420.9C1166 400.3 1183.1 376.1 1191.7 348.4C1197.9 328.6 1199.1 307.6 1194.7 287.3C1190.9 269.9 1185.7 252.3 1176.1 237.2C1164.6 219.1 1147.4 206.1 1127.6 198.2C1125.9 197.5 1125.1 200.4 1126.9 201.1Z" fill="#161616"/>
<path d="M1120.7 274.9C1141.5 274.7 1143.2 308.2 1143.7 322.7C1144.2 338.8 1143.9 355.4 1139.5 370.9C1137.3 378.6 1134.1 386 1129.3 392.5C1126.7 396.1 1123.5 399.9 1119.6 402.2C1116.3 404.2 1112.7 404.7 1108.9 405.5C1096.7 408.1 1085.8 415 1079.1 425.6C1077.5 428.2 1071.7 435.5 1074.3 438.9C1075.1 440 1076.3 440 1077.6 440C1081.5 439.8 1085.5 438.4 1089.3 437.6C1091.2 437.2 1090.4 434.3 1088.5 434.7C1085.4 435.4 1081.4 437 1078.2 436.9C1076.3 436.8 1076.6 437.2 1077.3 435.2C1078 433 1079.4 430.9 1080.6 428.9C1085.1 421.3 1091.1 415.6 1099.2 411.9C1103.9 409.7 1108.6 408.8 1113.6 407.6C1120.9 405.9 1126.2 401.4 1130.8 395.5C1139.5 384.3 1143.6 370.3 1145.5 356.4C1147.6 340.5 1147.7 323.8 1145.7 307.9C1143.9 293.9 1138.9 271.6 1120.8 271.8C1118.8 272 1118.8 275 1120.7 274.9Z" fill="#161616"/>
<path d="M1087.4 437.7C1089 437.4 1090.8 436.9 1092.5 436.8C1094.6 436.1 1096.7 436.6 1098.6 438.3C1098.8 438.9 1098.9 439.4 1099.1 440C1100.6 443 1101.1 447 1102.1 450.2C1104.1 456.4 1106.5 462.5 1109.2 468.4C1114.6 480.1 1121.7 491 1131 500C1132.2 501.1 1133.7 500 1133.5 498.5C1131.7 486.9 1129.9 475.3 1128.1 463.7C1127.8 461.8 1124.9 462.6 1125.2 464.5C1127 476.1 1128.8 487.7 1130.6 499.3C1131.4 498.8 1132.3 498.3 1133.1 497.8C1121.4 486.6 1113.5 472.4 1107.8 457.4C1106.4 453.6 1105.1 449.8 1103.9 446C1102.9 442.8 1102.5 438.9 1101 436C1098.3 430.9 1091.1 434 1086.7 434.8C1084.7 435.1 1085.5 438 1087.4 437.7Z" fill="#161616"/>
<path d="M1142.5 421.4C1150.2 430 1154.9 439.8 1159.1 450.4C1163.5 461.5 1167.6 472.7 1168.6 484.6C1169.6 484.5 1170.6 484.3 1171.5 484.2C1167.1 473.5 1160.9 463.9 1153 455.5C1151.7 454.1 1149.6 456.2 1150.9 457.6C1158.4 465.6 1164.4 474.8 1168.6 485C1169.2 486.4 1171.7 486.5 1171.5 484.6C1170.4 471.7 1166 459.8 1161.2 447.9C1157 437.4 1152 427.8 1144.5 419.3C1143.4 417.8 1141.2 419.9 1142.5 421.4Z" fill="#161616"/>
<path d="M1123.7 462.3C1132 475.9 1142.8 487.5 1155.7 496.9C1156.7 497.6 1157.9 496.6 1158 495.6C1158.3 482.9 1156.5 470.4 1153.4 458.2C1152.9 456.3 1150 457.1 1150.5 459C1153.5 471 1155.3 483.2 1155 495.6C1155.8 495.2 1156.5 494.7 1157.3 494.3C1144.8 485.3 1134.4 473.9 1126.4 460.8C1125.3 459.2 1122.7 460.7 1123.7 462.3Z" fill="#161616"/>
<path d="M1134.8 454.9C1142.3 466.7 1148.6 479.1 1153.5 492.1C1154.2 493.9 1157.1 493.1 1156.4 491.3C1151.4 478 1145.1 465.3 1137.4 453.3C1136.3 451.8 1133.7 453.3 1134.8 454.9Z" fill="#161616"/>
<path opacity="0.33" d="M1106 213.5C1116.6 218.1 1146.1 232.6 1163.9 266C1183.7 303.4 1181.5 352.5 1162.3 377.5C1154.4 387.7 1141.2 402.4 1136 407.6C1126.6 417.1 1122.9 419.5 1119.1 421.2C1110.5 425.2 1106.2 423.6 1094.6 428.4C1084.7 432.5 1078.9 437.3 1079.2 437.7C1079.4 438.2 1086.5 434.8 1093.4 435C1093.4 435 1098.6 435.1 1100.1 437.5C1100.2 437.6 1100.3 437.8 1100.3 437.8C1100.6 438.4 1100.6 439.2 1101.6 443.1C1102.3 446 1103.1 448.4 1103.5 449.9C1105.9 457.4 1109.5 466.5 1115.2 476.4C1120.9 486.4 1127.1 494.2 1132.4 500C1130.8 488.3 1129.3 476.6 1127.7 464.8C1131.4 470.8 1136.6 477.9 1143.9 485C1148.4 489.4 1152.8 493 1156.8 495.8C1155.6 482.8 1154.3 469.8 1153.1 456.7C1156.8 461.4 1160.6 466.9 1164.3 473.1C1166.5 476.7 1168.3 480.2 1170 483.5C1168.8 473.5 1166 460.4 1159.6 446.1C1156.1 438.2 1152.1 431.6 1148.4 426.1C1148 423.4 1147.6 420.8 1147.3 418.1C1151.5 413.9 1157 407.8 1163 400.1C1170 391.1 1183.3 373.8 1190.7 350.7C1204.6 307.6 1190 269.1 1186.1 259.3C1181.9 248.7 1175.7 233.6 1160.7 219.6C1148.6 208.3 1136 202.6 1127.9 199.7C1124.5 200.8 1120.1 202.6 1115.4 205.7C1111.2 208.4 1108.2 211.2 1106 213.5Z" fill="#6C6D6D"/>
<path opacity="0.31" d="M1168.8 388.6C1167.3 387.3 1150 405.1 1143.9 411.5C1130.1 426.1 1128.8 430.1 1128.2 432.3C1125.6 442 1129.2 450.4 1135.2 463.9C1140.3 475.4 1151.1 495.6 1155.2 494.1C1157.1 493.4 1158.8 487.8 1151.8 455.7C1164.3 478.8 1168.2 483.3 1169.4 482.7C1171.7 481.7 1166.1 461.5 1158.1 444.1C1153.6 434.3 1148.9 426.6 1145.5 421.4C1166 395.6 1169.6 389.3 1168.8 388.6Z" fill="#6C6D6D"/>
<path d="M977.7 64.6999C976.7 67.1999 977.1 67.4999 974.7 75.1999C973.7 78.3999 972.8 81.0999 972.1 82.8999C972.2 92.8999 970.6 100.7 969 106.1C967.5 111.2 965.1 117.3 966.7 118.3C968.3 119.3 971.8 113.9 975.7 114.8C978.3 115.4 979.6 118.6 980.9 121.9C980.9 121.9 985 131.8 989.3 140C992 145.2 996.6 153.9 1005.7 157.1C1011.7 159.2 1017.7 158.1 1021.2 157.6C1025.9 156.8 1029.6 155.3 1032 154.1C1028.2 160.2 1028.3 167.5 1032 172.2C1036.5 177.7 1044.5 177 1046.4 176.8C1051.4 176.3 1055.1 174 1056.8 172.8C1055 168.4 1053 161.7 1052.9 153.5C1052.8 136.3 1061.5 124.2 1064.9 120C1066.8 119.6 1070.7 118.6 1074.2 115.4C1075 114.7 1081.6 108.5 1080.4 99.5999C1079.8 94.8999 1076.7 87.3999 1070 86.0999C1065.1 85.1999 1061.1 87.9999 1060 88.7999C1059.1 86.5999 1058.2 84.3999 1057.3 82.1999C1051.7 82.0999 1044.6 81.1999 1036.9 78.2999C1014.3 69.8999 1003.5 50.6999 1000.3 44.3999C998.1 45.1999 994.9 46.5999 991.4 48.9999C988.3 50.9999 981 55.9999 977.7 64.6999Z" fill="white"/>
<path d="M973.8 69.4001C971.8 86.0001 968.5 102.4 964.2 118.6C963.9 119.7 964.9 120.7 966 120.4C970.5 119.2 974.9 118 979.4 116.9C978.8 116.6 978.2 116.2 977.6 115.9C979.8 126 984 135.4 989.9 143.9C992.4 147.5 995.2 150.9 998.2 154.1C1000.8 156.9 1002.8 159.8 1006.7 160C1024.3 160.9 1040.9 153 1052.4 139.9C1053.7 138.5 1051.6 136.3 1050.3 137.8C1039.6 150 1024.6 157.5 1008.2 157.1C1001.6 156.9 995 146.1 991.7 141.2C986.4 133.3 982.7 124.5 980.6 115.1C980.4 114.3 979.5 113.9 978.8 114.1C974.3 115.3 969.9 116.5 965.4 117.6C966 118.2 966.6 118.8 967.2 119.4C971.6 103 974.9 86.3001 976.9 69.4001C977 67.5001 974 67.5001 973.8 69.4001Z" fill="#161616"/>
<path d="M987.8 73.0001C987.7 79.0001 988.6 84.8001 990.5 90.4001C991.1 92.0001 993.3 91.7001 993.4 90.0001C994 83.7001 993.3 77.6001 991.3 71.6001C990.8 69.9001 988.5 70.3001 988.4 72.0001C988.1 75.1001 988.3 78.2001 988.9 81.2001C989.3 83.1001 992.1 82.3001 991.8 80.4001C991.3 77.6001 991.2 74.8001 991.4 72.0001C990.4 72.1001 989.4 72.3001 988.5 72.4001C990.4 78.2001 991 84.0001 990.5 90.0001C991.5 89.9001 992.5 89.7001 993.4 89.6001C991.5 84.2001 990.6 78.7001 990.8 73.0001C990.8 71.1001 987.8 71.1001 987.8 73.0001Z" fill="#161616"/>
<path d="M965.8 85.7C965.9 85.8 965.9 85.8 966 85.9C965.9 85.4 965.7 84.9 965.6 84.4C965.7 84.3 965.8 84.1 965.9 84C966.4 84 966.9 84 967.4 84C966.4 83.4 966.5 80.1 966.5 79.3C966.6 77.6 966.9 76.1 967.5 74.5C966.5 74.5 965.6 74.5 964.6 74.5C965.6 79 965.8 83.4 965 88C966 88 966.9 88 967.9 88C966.3 83.8 966 79.5 967.1 75.2C967.6 73.3 964.7 72.5 964.2 74.4C963 79.3 963.3 84.1 965 88.8C965.5 90 967.6 90.4 967.9 88.8C968.7 83.7 968.6 78.8 967.5 73.7C967.1 72.1 965.1 72.4 964.6 73.7C963.3 77.2 962.8 81.5 964.4 85C965.2 86.8 967.8 87.5 968.4 85.1C968.5 84.6 968.4 84 968 83.6C967.9 83.5 967.9 83.5 967.8 83.4C966.5 82.3 964.3 84.4 965.8 85.7Z" fill="#161616"/>
<path d="M983.6 130.1C986.7 130.8 990 131.2 993 129.7C995.9 128.3 998.6 125.7 1001.1 123.7C1002.6 122.5 1000.5 120.4 999 121.6C996.8 123.3 994.7 125.3 992.3 126.7C989.9 128.1 987.1 127.8 984.5 127.2C982.5 126.8 981.7 129.7 983.6 130.1Z" fill="#161616"/>
<path d="M997.9 99.9C997.8 99.9 997.7 99.9 997.6 99.9C997.3 99.8 997.1 99.8 996.8 99.7C996.7 99.6 996.6 99.6 996.6 99.5C996.5 99.3 996.3 99.1 996.2 98.8C996.2 98.9 996.2 98.9 996.2 98.7C996.1 98.3 996.3 97.9 996.8 97.5C997.1 97.4 997.3 97.4 997.6 97.3C997.7 97.3 997.8 97.3 997.9 97.3C997.2 97 996.2 97.6 996.1 98.3C995.9 99.2 996.4 99.8 997.1 100.1C998.2 100.6 999.2 99.5 999.2 98.4C999.2 97.3 998.2 96.3 997.1 96.7C996.3 97 995.8 97.7 996.1 98.5C996.3 99.6 997.2 100.2 997.9 99.9Z" fill="#161616"/>
<path d="M1005.7 92.3C1007.6 92.3 1007.6 89.3 1005.7 89.3C1003.8 89.3 1003.8 92.3 1005.7 92.3Z" fill="#161616"/>
<path d="M1005.9 100.7C1006.1 100.9 1006.3 101.1 1006.5 101.3C1007.1 101.9 1008 101.9 1008.6 101.3C1009.2 100.7 1009.2 99.7999 1008.6 99.1999C1008.4 98.9999 1008.2 98.7999 1008 98.5999C1007.4 97.9999 1006.5 97.9999 1005.9 98.5999C1005.4 99.0999 1005.4 100.1 1005.9 100.7Z" fill="#161616"/>
<path d="M977.1 68.8C981.7 56.9 991.5 47.9 1003.6 44.2C1005.4 43.6 1004.7 40.7 1002.8 41.3C989.6 45.4 979.2 55.1 974.2 68C973.5 69.8 976.4 70.6 977.1 68.8Z" fill="#161616"/>
<path d="M1000.7 43.2001C1008.3 69.7001 1034.3 83.9001 1060.7 83.6001C1062.6 83.6001 1062.6 80.6001 1060.7 80.6001C1035.7 80.8001 1010.8 67.6001 1003.6 42.4001C1003 40.6001 1000.1 41.4001 1000.7 43.2001Z" fill="#161616"/>
<path d="M1029.8 157.5C1030.4 169 1029.4 180.4 1026.7 191.7C1026.6 192.3 1026.8 193.1 1027.4 193.4C1039.9 200 1055.4 195.2 1061.9 182.6C1062.8 180.9 1060.2 179.4 1059.3 181.1C1053.6 192.2 1040 196.7 1028.9 190.8C1029.1 191.4 1029.4 191.9 1029.6 192.5C1032.3 181 1033.4 169.3 1032.8 157.6C1032.7 155.6 1029.7 155.6 1029.8 157.5Z" fill="#161616"/>
<path d="M1001.3 45.5C997.9 46.9 993.3 49.1 988.8 53C980.3 60.3 976.8 69 975.4 73.4C972.5 72.7 967.8 71.1 964.4 66.9C957.4 58.2 960.2 43.4 967.4 35.5C974.1 28.1 979.7 32.5 992.3 23.5C1000.3 17.8 1000 14.6 1008.9 8.79996C1013.2 5.99996 1019.2 1.99996 1027.3 0.599959C1039.5 -1.50004 1049.7 3.39996 1064.6 10.5C1073.3 14.7 1071.4 14.7 1083.5 21C1103.8 31.5 1106.6 30.1 1115.1 36.8C1123.9 43.7 1128.8 51.5 1133 58.2C1138.9 67.7 1139 71 1145.3 84.7C1154.9 105.3 1157.8 104.3 1163.7 118.6C1168.7 130.7 1173.7 142.6 1171.2 157C1167.5 178.2 1150.1 190.2 1146.8 192.4C1124.7 207 1100.3 200.7 1091.5 198.4C1081.1 195.7 1066.8 192 1058.1 179.5C1047 163.5 1049.3 139 1063.1 117.7C1065.1 117.9 1068.6 118 1072.1 116.2C1080 112.1 1084 100.4 1079.6 92.3C1079.1 91.4 1075.2 84.4 1067.6 84.3C1060.1 84.2 1055.8 90.9 1055.6 91.3C1047.7 89.5 1029 84 1014.2 66.9C1007.6 59.3 1003.7 51.5 1001.3 45.5Z" fill="#5222D0"/>
<circle cx="1063.1" cy="119.7" r="5.7" fill="#F8F263"/>
<path d="M1030.2 154.7C1030.2 155.9 1030.3 157.1 1030.4 158.3C1030.5 159.6 1030.7 160.9 1030.8 162.1C1034.4 160.9 1039.8 158.5 1044.4 153.4C1049.4 147.7 1051.7 140.4 1050.8 139.8C1050 139.3 1047.6 143.4 1041.9 147.9C1037.4 151.4 1033.1 153.4 1030.2 154.7Z" fill="#161616" stroke="#161616"/>
<path opacity="0.19" d="M1067.5 12.1001C1075.5 21.1001 1086.8 34.8001 1098 53.1001C1110.7 73.7001 1120.3 89.4001 1123.9 111.7C1126.1 125.6 1131.5 159.5 1110 179.2C1097.6 190.5 1081.8 192.2 1073.9 192.4C1078 194.3 1084 196.7 1091.5 198.5C1101.9 201 1118 204.8 1135.3 198.3C1138.7 197 1161.2 188.1 1168.9 165.2C1174 150 1170.1 136 1168.5 130.4C1165.7 120.5 1160.7 112 1158.1 107.5C1153.7 100.1 1149.1 94.1001 1145 85.0001C1142.5 79.6001 1140.9 75.2001 1140.9 75.2001C1138.8 69.7001 1139.1 69.4001 1137.7 66.5001C1136.2 63.2001 1135.2 62.3001 1130.9 55.5001C1126.8 49.0001 1127.7 49.9001 1126.2 47.8001C1120.5 39.9001 1114.2 35.9001 1112.7 35.0001C1111.6 34.3001 1109.5 33.3001 1105.2 31.2001C1098.7 28.1001 1093.8 25.9001 1092.8 25.5001C1087.9 23.6001 1080.1 19.7001 1067.5 12.1001Z" fill="#444647"/>
<path opacity="0.53" d="M1001 44.3999C1012.3 58.4999 1023.3 68.2999 1031.6 74.7999C1045.5 85.6999 1053.5 88.5999 1060.3 86.4999C1062.4 85.8999 1064 84.8999 1065 84.1999C1062.7 85.0999 1059.7 86.5999 1057 89.4999C1056.5 90.0999 1056 90.6999 1055.6 91.2999C1053.4 90.7999 1050.3 89.9999 1046.6 88.6999C1025.5 81.0999 1013.8 66.3999 1011.7 63.6999C1008.5 59.5999 1004.3 53.1999 1001 44.3999Z" fill="#125689"/>
<path opacity="0.15" d="M1153.3 101C1154.5 107.9 1155.7 117.7 1155.2 129.3C1154.9 135.7 1154.3 150.3 1149.5 162C1138.8 188 1108 197.7 1100.2 199.9C1103.3 200.5 1134 206 1154.7 186C1166.5 174.6 1170 159.9 1170.2 159C1172.1 150.8 1171.4 144.2 1171 140.5C1169 121.8 1159.2 108 1153.3 101Z" fill="#252626"/>
</svg>
