<svg width="1181" height="1057" viewBox="0 0 1181 1057" fill="none" xmlns="http://www.w3.org/2000/svg">
<path d="M258.2 857.2C172.9 857.2 87.6 857.2 2.3 857.2C0.4 857.2 0.4 860.2 2.3 860.2C87.6 860.2 172.9 860.2 258.2 860.2C260.1 860.2 260.1 857.2 258.2 857.2Z" fill="#161616"/>
<path d="M563.8 842.2C635 842.2 706.1 842.2 777.3 842.2C797.5 842.2 817.7 842.2 837.9 842.2C839.8 842.2 839.8 839.2 837.9 839.2C766.7 839.2 695.6 839.2 624.4 839.2C604.2 839.2 584 839.2 563.8 839.2C561.9 839.2 561.9 842.2 563.8 842.2Z" fill="#161616"/>
<path d="M854.4 842.2C909.1 842.2 963.8 842.2 1018.5 842.2C1020.4 842.2 1020.4 839.2 1018.5 839.2C963.8 839.2 909.1 839.2 854.4 839.2C852.5 839.2 852.5 842.2 854.4 842.2Z" fill="#161616"/>
<path d="M1042.6 842.2C1052.1 842.2 1061.7 842.2 1071.2 842.2C1073.1 842.2 1073.1 839.2 1071.2 839.2C1061.7 839.2 1052.1 839.2 1042.6 839.2C1040.7 839.2 1040.6 842.2 1042.6 842.2Z" fill="#161616"/>
<path d="M907.9 838.8C907.9 805.2 907.9 771.5 907.9 737.9C907.9 736 904.9 736 904.9 737.9C904.9 771.5 904.9 805.2 904.9 838.8C904.9 840.7 907.9 840.7 907.9 838.8Z" fill="#E8E8E8"/>
<path d="M907 739.4C967.3 739.4 1027.7 739.4 1088 739.4C1089.9 739.4 1089.9 736.4 1088 736.4C1027.7 736.4 967.3 736.4 907 736.4C905.1 736.4 905.1 739.4 907 739.4Z" fill="#E8E8E8"/>
<path d="M1087.1 740.4C1087.1 772.4 1087.1 804.4 1087.1 836.4C1087.1 838.3 1090.1 838.3 1090.1 836.4C1090.1 804.4 1090.1 772.4 1090.1 740.4C1090.1 738.4 1087.1 738.4 1087.1 740.4Z" fill="#E8E8E8"/>
<path d="M923.8 749.5C923.8 773.5 923.8 797.6 923.8 821.6C923.8 823.5 926.8 823.5 926.8 821.6C926.8 797.6 926.8 773.5 926.8 749.5C926.8 747.6 923.8 747.6 923.8 749.5Z" fill="#E8E8E8"/>
<path d="M947.1 750.1C947.1 771.9 947.1 793.7 947.1 815.5C947.1 817.4 950.1 817.4 950.1 815.5C950.1 793.7 950.1 771.9 950.1 750.1C950.1 748.2 947.1 748.2 947.1 750.1Z" fill="#E8E8E8"/>
<path d="M972.8 748.3C972.8 769.9 972.8 791.5 972.8 813.1C972.8 815 975.8 815 975.8 813.1C975.8 791.5 975.8 769.9 975.8 748.3C975.8 746.4 972.8 746.4 972.8 748.3Z" fill="#E8E8E8"/>
<path d="M999.1 752.6C999.1 774.6 999.1 796.6 999.1 818.6C999.1 820.5 1002.1 820.5 1002.1 818.6C1002.1 796.6 1002.1 774.6 1002.1 752.6C1002.1 750.7 999.1 750.6 999.1 752.6Z" fill="#E8E8E8"/>
<path d="M1024.7 753.8C1024.7 776.4 1024.7 799 1024.7 821.7C1024.7 823.6 1027.7 823.6 1027.7 821.7C1027.7 799.1 1027.7 776.5 1027.7 753.8C1027.7 751.9 1024.7 751.9 1024.7 753.8Z" fill="#E8E8E8"/>
<path d="M1056.5 754.4C1056.5 775.8 1056.5 797.2 1056.5 818.6C1056.5 820.5 1059.5 820.5 1059.5 818.6C1059.5 797.2 1059.5 775.8 1059.5 754.4C1059.5 752.5 1056.5 752.5 1056.5 754.4Z" fill="#E8E8E8"/>
<path d="M1077.9 757.5C1077.9 776.7 1077.9 795.8 1077.9 815C1077.9 816.9 1080.9 816.9 1080.9 815C1080.9 795.8 1080.9 776.7 1080.9 757.5C1080.9 755.5 1077.9 755.5 1077.9 757.5Z" fill="#E8E8E8"/>
<path d="M839.5 254.2C916.6 254.2 993.8 254.2 1070.9 254.2C1092.8 254.2 1114.8 254.2 1136.7 254.2C1138.6 254.2 1138.6 251.2 1136.7 251.2C1059.6 251.2 982.4 251.2 905.3 251.2C883.4 251.2 861.4 251.2 839.5 251.2C837.5 251.2 837.5 254.2 839.5 254.2Z" fill="#E8E8E8"/>
<path d="M841 251.8C841 245.2 841 238.7 841 232.1C841 230.2 838 230.2 838 232.1C838 238.7 838 245.2 838 251.8C838 253.8 841 253.8 841 251.8Z" fill="#E8E8E8"/>
<path d="M839.5 234.5C915.8 234.5 992.1 234.5 1068.3 234.5C1090.2 234.5 1112.1 234.5 1134 234.5C1135.9 234.5 1135.9 231.5 1134 231.5C1057.7 231.5 981.4 231.5 905.2 231.5C883.3 231.5 861.4 231.5 839.5 231.5C837.5 231.5 837.5 234.5 839.5 234.5Z" fill="#E8E8E8"/>
<path d="M1133.4 233.9C1133.4 240.5 1133.4 247 1133.4 253.6C1133.4 255.5 1136.4 255.5 1136.4 253.6C1136.4 247 1136.4 240.5 1136.4 233.9C1136.4 232 1133.4 232 1133.4 233.9Z" fill="#E8E8E8"/>
<path d="M870.8 155.8C871.7 162.6 872.7 169.6 871.7 176.5C870.8 183.1 867.9 189 865.4 195.1C860.6 206.6 858.1 218.6 858.2 231C858.2 232.9 861.2 232.9 861.2 231C861.2 216.8 864.8 204.2 870.3 191.3C872.3 186.6 874.1 181.8 874.8 176.7C875.7 169.7 874.8 162.8 873.9 155.8C873.5 153.9 870.5 153.9 870.8 155.8Z" fill="#E8E8E8"/>
<path d="M873.2 157.1C876.5 155.5 880.2 154.9 883.9 155.7C886 156.2 886.4 157.4 887 159.2C887.3 160.1 887.4 160.5 888 161.3C889.2 162.8 891.3 160.7 890.1 159.2C889.3 158.2 890.1 156.2 889 155C887.9 153.6 885.7 153.1 884.1 152.8C879.8 152 875.5 152.7 871.6 154.6C869.9 155.3 871.4 157.9 873.2 157.1Z" fill="#E8E8E8"/>
<path d="M887.1 158C886.2 170.1 889.3 180.8 894.9 191.4C901.6 204.1 902.7 217.3 903.1 231.5C903.2 233.4 906.2 233.4 906.1 231.5C905.7 219.4 905.3 206.9 900.3 195.7C897.7 189.8 894.2 184.5 892.3 178.3C890.2 171.7 889.6 164.9 890.1 158C890.3 156.1 887.2 156.1 887.1 158Z" fill="#E8E8E8"/>
<path d="M934.5 230.6C935.9 227.9 934.6 225 936.4 222.7C939.2 219.3 948.1 219.4 952.1 219C961 218.1 969.8 218.2 978.7 218.9C987.6 219.6 996.5 220.8 1005.5 221.2C1009.9 221.4 1014.3 221.3 1018.7 221.2C1023.1 221.1 1035.2 222.5 1030.6 230C1029.6 231.6 1032.2 233.2 1033.2 231.5C1037.3 224.9 1030.5 219 1024.2 218.2C1018.7 217.5 1013 218.4 1007.4 218.2C1000.7 218 994 217.3 987.3 216.6C974.6 215.4 962 214.7 949.3 216.2C944.9 216.7 938.3 216.7 934.5 219.2C930.7 221.7 933.6 225.5 931.9 228.9C931 230.8 933.6 232.4 934.5 230.6Z" fill="#E8E8E8"/>
<path d="M971.1 215.9C972 213.7 971.5 211.5 972.2 209.3C974 203.7 981.1 205.4 985.4 205.4C993.4 205.4 1001.3 205.4 1009.3 205.5C1025.2 205.5 1041.1 205.6 1057.1 205.6C1056.6 205.2 1056.1 204.9 1055.7 204.5C1056.8 209.6 1057.7 214.7 1058.4 219.9C1058.6 221.8 1061.6 221.8 1061.4 219.9C1060.7 214.4 1059.8 209 1058.6 203.7C1058.5 203.1 1057.8 202.6 1057.2 202.6C1038 202.5 1018.7 202.5 999.5 202.4C994.9 202.4 990.2 202.4 985.6 202.4C982.1 202.4 978.1 201.8 974.6 202.6C968.1 204.1 970.4 210.4 968.5 215.1C967.5 216.9 970.4 217.7 971.1 215.9Z" fill="#E8E8E8"/>
<path d="M1032.2 223.6C1040.9 224.1 1049.6 223.9 1058.2 222.9C1060.1 222.7 1060.1 219.7 1058.2 219.9C1049.5 220.9 1040.9 221.1 1032.2 220.6C1030.3 220.4 1030.3 223.4 1032.2 223.6Z" fill="#E8E8E8"/>
<path d="M1031.9 204.3C1033.9 209.5 1034.8 214.9 1034.6 220.5C1034.5 222.4 1037.5 222.4 1037.6 220.5C1037.8 214.6 1036.8 209 1034.8 203.5C1034.1 201.7 1031.2 202.5 1031.9 204.3Z" fill="#E8E8E8"/>
<path d="M1096.3 140.4C1096.3 148.7 1096.3 157.1 1096.3 165.4C1096.3 173.3 1096.9 181.6 1095.4 189.4C1094 196.9 1090 203 1086 209.3C1081.7 216.3 1077.8 223.5 1074.2 230.9C1073.4 232.6 1076 234.2 1076.8 232.4C1080.6 224.5 1084.8 216.8 1089.5 209.3C1093.3 203.3 1096.9 197.3 1098.2 190.2C1099.5 183 1099.2 175.6 1099.2 168.4C1099.2 159.1 1099.2 149.7 1099.2 140.4C1099.3 138.5 1096.3 138.5 1096.3 140.4Z" fill="#E8E8E8"/>
<path d="M1098.8 142.3C1103.7 139.6 1109.2 139.7 1114 142.5C1115.7 143.5 1117.2 140.9 1115.5 139.9C1109.8 136.5 1103 136.4 1097.3 139.7C1095.6 140.6 1097.1 143.2 1098.8 142.3Z" fill="#E8E8E8"/>
<path d="M1111.6 141.4C1111.6 150.6 1111.5 159.9 1111.5 169.1C1111.5 176.5 1110.8 184.3 1111.8 191.7C1112.8 198.7 1116.6 203.9 1120.7 209.4C1125.8 216.1 1129.4 223.1 1131.2 231.4C1131.6 233.3 1134.5 232.5 1134.1 230.6C1132.7 223.9 1130.1 217.6 1126.3 211.9C1122.1 205.6 1116.4 200.3 1115 192.5C1113.5 184.3 1114.5 175.3 1114.5 167.1C1114.5 158.5 1114.6 149.9 1114.6 141.3C1114.6 139.5 1111.6 139.5 1111.6 141.4Z" fill="#E8E8E8"/>
<path d="M953.3 286.2C953.3 323.8 953.3 361.5 953.3 399.1C953.3 401 956.3 401 956.3 399.1C956.3 361.5 956.3 323.8 956.3 286.2C956.3 284.2 953.3 284.2 953.3 286.2Z" fill="#E8E8E8"/>
<path d="M957 286.5C1009.1 286.5 1061.2 286.5 1113.3 286.5C1115.2 286.5 1115.2 283.5 1113.3 283.5C1061.2 283.5 1009.1 283.5 957 283.5C955.1 283.5 955.1 286.5 957 286.5Z" fill="#E8E8E8"/>
<path d="M955.2 400.4C1005 400.4 1054.8 400.4 1104.7 400.4C1106.6 400.4 1106.6 397.4 1104.7 397.4C1054.9 397.4 1005.1 397.4 955.2 397.4C953.2 397.4 953.2 400.4 955.2 400.4Z" fill="#E8E8E8"/>
<path d="M1110 287.1C1110 324.4 1110 361.6 1110 398.9C1110 400.8 1113 400.8 1113 398.9C1113 361.6 1113 324.4 1113 287.1C1113 285.2 1110 285.2 1110 287.1Z" fill="#E8E8E8"/>
<path d="M1103.8 400.9C1105.8 400.9 1107.9 400.9 1109.9 400.9C1111.8 400.9 1111.8 397.9 1109.9 397.9C1107.9 397.9 1105.8 397.9 1103.8 397.9C1101.9 397.9 1101.9 400.9 1103.8 400.9Z" fill="#E8E8E8"/>
<path d="M967 320.2C1010.4 320.3 1053.9 320.4 1097.3 320.5C1099.2 320.5 1099.2 317.5 1097.3 317.5C1053.9 317.4 1010.4 317.3 967 317.2C965.1 317.2 965.1 320.2 967 320.2Z" fill="#E8E8E8"/>
<path d="M971.1 349.5C1013.1 349.4 1055 349.3 1097 349.2C1098.9 349.2 1098.9 346.2 1097 346.2C1055 346.3 1013.1 346.4 971.1 346.5C969.2 346.5 969.2 349.5 971.1 349.5Z" fill="#E8E8E8"/>
<path d="M973.5 378.7C1015.2 378.7 1056.9 378.7 1098.6 378.7C1100.5 378.7 1100.5 375.7 1098.6 375.7C1056.9 375.7 1015.2 375.7 973.5 375.7C971.6 375.7 971.6 378.7 973.5 378.7Z" fill="#E8E8E8"/>
<path d="M993.6 319.1C993.6 338.6 993.6 358.1 993.6 377.6C993.6 379.5 996.6 379.5 996.6 377.6C996.6 358.1 996.6 338.6 996.6 319.1C996.6 317.2 993.6 317.2 993.6 319.1Z" fill="#E8E8E8"/>
<path d="M1028.9 320C1028.9 338.5 1028.9 357.1 1028.9 375.6C1028.9 377.5 1031.9 377.5 1031.9 375.6C1031.9 357.1 1031.9 338.5 1031.9 320C1031.9 318 1028.9 318 1028.9 320Z" fill="#E8E8E8"/>
<path d="M1063.8 318.7C1063.8 337.5 1063.8 356.3 1063.8 375.2C1063.8 377.1 1066.8 377.1 1066.8 375.2C1066.8 356.4 1066.8 337.6 1066.8 318.7C1066.8 316.8 1063.8 316.8 1063.8 318.7Z" fill="#E8E8E8"/>
<path d="M1095.5 319.6C1095.5 338.4 1095.5 357.2 1095.5 376.1C1095.5 378 1098.5 378 1098.5 376.1C1098.5 357.3 1098.5 338.5 1098.5 319.6C1098.5 317.6 1095.5 317.6 1095.5 319.6Z" fill="#E8E8E8"/>
<path d="M978.4 354C974.5 357.2 970.4 362.3 973.2 367.6C974.2 369.5 975.9 371 978.1 371.3C980.9 371.7 983.1 369.8 985 368C986.4 366.7 984.3 364.5 982.9 365.9C981.4 367.3 979.7 369 977.6 368C976.1 367.3 975.3 365.5 975.3 363.9C975.3 360.7 978.2 358.1 980.5 356.2C982 354.9 979.9 352.8 978.4 354Z" fill="#E8E8E8"/>
<path d="M1012.6 365.9C1008.9 364.2 1008.1 359 1012.2 357.1C1014.7 356 1015.6 359 1015.9 360.9C1016.2 362.5 1015.4 366.6 1012.8 364.9C1011.2 363.9 1009.7 366.5 1011.3 367.5C1014.1 369.3 1017.6 367.4 1018.7 364.5C1019.5 362.2 1018.8 359.8 1018 357.6C1017.4 355.9 1016.7 354.4 1014.9 353.8C1011.4 352.8 1007.7 355.9 1006.7 359.1C1005.5 362.8 1007.6 366.8 1011 368.4C1012.8 369.3 1014.3 366.7 1012.6 365.9Z" fill="#E8E8E8"/>
<path d="M985.1 353.7C984.9 353.4 984.9 353 985.3 352.9C985 352.7 984.7 352.6 984.4 352.4C984.8 353.5 984.1 354.7 984.1 355.9C984.1 356.7 984.5 357.5 985.2 358C986.7 359.1 988.7 358.5 989.5 356.9C989.9 356 988.6 355.3 988.2 356.1C987.4 357.7 985.4 357 985.6 355.3C985.7 354.2 986.2 353.2 985.8 352C985.7 351.6 985.3 351.3 984.9 351.5C983.7 351.9 983 353.4 983.8 354.5C984.3 355.3 985.6 354.5 985.1 353.7Z" fill="#E8E8E8"/>
<path d="M1020 353.1C1021 352.9 1021.9 352.6 1022.9 352.4C1023.8 352.2 1023.4 350.7 1022.5 351C1021.5 351.2 1020.6 351.5 1019.6 351.7C1018.7 351.9 1019.1 353.4 1020 353.1Z" fill="#E8E8E8"/>
<path d="M1019.5 353.1C1019.7 353.6 1019.8 354.2 1020 354.7C1020.1 355 1020.4 355.3 1020.7 355.3C1021.2 355.2 1021.9 355.1 1022.3 355.3C1022.5 355.4 1022.7 355.6 1022.7 355.8C1022.7 356 1022.5 355.8 1022.6 355.9C1022 355.2 1020.9 356.2 1021.5 357C1022.4 358 1024.2 357.2 1024.2 355.9C1024.2 354 1022.1 353.7 1020.7 353.9C1020.9 354.1 1021.2 354.3 1021.4 354.5C1021.2 354 1021.1 353.4 1020.9 352.9C1020.7 351.7 1019.3 352.1 1019.5 353.1Z" fill="#E8E8E8"/>
<path d="M1005.7 326.1C1006.1 330.2 1006.1 334.2 1005.6 338.3C1005.5 339.3 1007 339.3 1007.1 338.3C1007.5 334.2 1007.6 330.2 1007.2 326.1C1007.1 325.1 1005.6 325.1 1005.7 326.1Z" fill="#E8E8E8"/>
<path d="M1007.2 333.1C1010.2 332.8 1012.2 330.2 1011.6 327.2C1011.4 326.3 1010.2 326.6 1010.1 327.4C1009.7 331.1 1009.6 334.9 1009.8 338.6C1009.8 339.6 1011.3 339.6 1011.3 338.6C1011.1 334.8 1011.2 331.1 1011.6 327.4C1011.1 327.5 1010.6 327.5 1010.1 327.6C1010.5 329.6 1009.1 331.4 1007.1 331.6C1006.3 331.7 1006.3 333.2 1007.2 333.1Z" fill="#E8E8E8"/>
<path d="M1015.7 325C1015.8 324.8 1015.8 324.7 1015.9 324.5C1015.7 324.6 1015.4 324.6 1015.2 324.7C1015.8 324.9 1015.9 325.9 1015.4 326.3C1014.9 326.6 1014.9 327.5 1015.6 327.7C1016.2 327.8 1016.7 327.9 1017.3 328C1017.2 327.6 1017 327.3 1016.9 326.9C1016.5 327.6 1016 328.2 1015.3 328.5C1014.4 328.9 1014.8 330.3 1015.7 329.9C1016.8 329.4 1017.7 328.7 1018.2 327.6C1018.4 327.2 1018.3 326.6 1017.8 326.5C1017.2 326.4 1016.7 326.3 1016.1 326.2C1016.2 326.7 1016.2 327.1 1016.3 327.6C1018 326.5 1017.6 323.9 1015.7 323.3C1015.5 323.2 1015.2 323.3 1015 323.5C1014.4 324.1 1014.3 324.7 1014.4 325.4C1014.4 326.4 1015.8 326 1015.7 325Z" fill="#E8E8E8"/>
<path d="M1049.3 327.7C1044.7 324.5 1037.9 332.1 1040.4 336.6C1041.5 338.6 1044.1 339.6 1046.2 338.6C1048.2 337.7 1049 334.9 1046.7 333.8C1046.6 334.3 1046.6 334.7 1046.5 335.2C1047.6 335 1048.7 334.8 1049.8 334.6C1050.7 334.4 1050.3 333 1049.4 333.2C1048.3 333.4 1047.2 333.6 1046.1 333.8C1045.5 333.9 1045.3 334.9 1045.9 335.2C1046.4 336.6 1046.1 337.4 1045.1 337.5C1044.7 337.7 1044.2 337.7 1043.8 337.6C1043.3 337.5 1042.7 337.2 1042.4 336.9C1041 335.6 1041.3 333.6 1042.2 332.2C1043.4 330.2 1046.2 327.6 1048.6 329.2C1049.3 329.5 1050.1 328.2 1049.3 327.7Z" fill="#E8E8E8"/>
<path d="M1053.6 327.7C1053.8 329.2 1054 330.8 1054.2 332.3C1054.3 333.1 1054.5 333.9 1054.5 334.6C1054.5 335.1 1054.4 335.5 1054.4 336C1054.1 337.4 1053.2 337.5 1052 336.5C1052.1 335.6 1050.7 335.1 1050.6 336.1C1050.3 338.4 1052.7 339.9 1054.6 338.5C1055.7 337.7 1056.1 336.4 1056.2 335.1C1056.3 332.7 1055.7 330.1 1055.4 327.7C1055 326.7 1053.5 326.7 1053.6 327.7Z" fill="#E8E8E8"/>
<path d="M1051.8 326.7C1053.5 327.1 1055.1 327.3 1056.9 327.2C1057.9 327.1 1057.9 325.6 1056.9 325.7C1055.3 325.8 1053.8 325.7 1052.2 325.3C1051.2 325 1050.8 326.5 1051.8 326.7Z" fill="#E8E8E8"/>
<path d="M1036.9 356.7C1037.3 359.9 1037.3 363 1036.9 366.2C1036.8 367.2 1038.3 367.1 1038.4 366.2C1038.8 362.9 1038.8 359.6 1038.3 356.3C1038.2 355.4 1036.8 355.8 1036.9 356.7Z" fill="#E8E8E8"/>
<path d="M1038 363.6C1041.7 364.8 1042.8 360.5 1042.8 357.8C1042.8 356.8 1041.4 356.9 1041.3 357.8C1041 361.1 1040.8 364.5 1040.7 367.9C1040.7 368.9 1042.2 368.9 1042.2 367.9C1042.3 364.5 1042.5 361.2 1042.8 357.8C1042.3 357.8 1041.8 357.8 1041.3 357.8C1041.3 359.5 1041.1 363 1038.4 362.2C1037.4 361.9 1037 363.4 1038 363.6Z" fill="#E8E8E8"/>
<path d="M1043.8 365.3C1043.9 366.3 1044 367.3 1043.9 368.2C1043.9 368.6 1044.3 368.9 1044.7 369C1045.2 369 1045.8 369.1 1046.3 369.1C1047.3 369.1 1047.3 367.6 1046.3 367.6C1045.8 367.6 1045.2 367.5 1044.7 367.5C1045 367.8 1045.2 368 1045.5 368.3C1045.5 367.3 1045.5 366.3 1045.4 365.4C1045.3 365 1045.1 364.7 1044.6 364.6C1044.1 364.6 1043.7 364.9 1043.8 365.3Z" fill="#E8E8E8"/>
<path d="M1052.7 367C1051.7 365.6 1051.2 364 1051.1 362.2C1051.1 361.1 1051.2 358.4 1052.2 357.6C1054.3 355.8 1055.2 360.9 1055.3 362.1C1055.4 363 1055.4 364 1055.2 364.9C1055.1 365.6 1054.1 368.9 1052.5 366.8C1051.9 366 1050.9 367.1 1051.4 367.9C1053 369.9 1055.5 368.5 1056.3 366.6C1057.4 363.7 1057 359.2 1055.2 356.7C1053.4 354.2 1051.3 355.7 1050.4 358C1049.1 361.2 1049.6 364.9 1051.5 367.7C1051.9 368.6 1053.2 367.8 1052.7 367Z" fill="#E8E8E8"/>
<path d="M1078.9 329.2C1077.3 327.9 1075.2 327.9 1073.5 329C1071.4 330.4 1070.8 333.1 1070.6 335.4C1070.5 337.6 1071.1 339.8 1073.6 340.1C1076.1 340.4 1077.8 338.4 1079.2 336.5C1079.8 335.7 1078.5 335 1077.9 335.7C1077 336.9 1075.9 338.4 1074.2 338.5C1072 338.6 1072 336.2 1072.1 334.7C1072.3 332.3 1074.6 327.6 1077.7 330.1C1078.5 330.9 1079.6 329.8 1078.9 329.2Z" fill="#E8E8E8"/>
<path d="M1083.9 336.6C1083.3 335.8 1082.8 334.9 1082.6 333.9C1082.4 333.1 1082.1 331.3 1082.6 330.6C1083.1 330.4 1083.6 330.1 1084.1 329.9C1084.5 330.2 1084.8 330.7 1085 331.2C1085.2 331.6 1085.3 332.1 1085.4 332.5C1085.5 333.1 1085.7 333.7 1085.6 334.3C1085.5 335 1084.7 336.5 1083.7 335.5C1083 334.8 1082 335.9 1082.6 336.6C1083.9 337.9 1086 337.3 1086.8 335.7C1087.7 333.8 1086.8 330.5 1085.4 329.1C1083.8 327.6 1081.8 328.4 1081.2 330.4C1080.5 332.9 1081.2 335.5 1082.7 337.5C1083.2 338.1 1084.5 337.4 1083.9 336.6Z" fill="#E8E8E8"/>
<path d="M1086.7 325.8C1086.7 325.9 1086.7 325.9 1086.7 325.8C1086.8 325.8 1087 325.7 1087.2 325.7C1087 325.7 1087.2 327.1 1087.3 327.4C1087.4 327.6 1087.5 327.8 1087.6 328C1087.9 328.4 1088.3 328.6 1088.8 328.7C1089.7 328.9 1090.7 328.5 1091.1 327.6C1091.5 326.7 1090.2 326 1089.8 326.8C1089.6 327.3 1088.9 327.3 1088.7 326.8C1088.4 326 1088.4 325.2 1087.3 325C1086.5 324.9 1085.9 325.6 1086.1 326.3C1086.3 327 1087.2 327.3 1087.8 326.8C1088.5 326.2 1087.4 325.2 1086.7 325.8Z" fill="#E8E8E8"/>
<path d="M972.4 326.8C971.9 332 971.8 337.3 972.1 342.5C972.1 343.5 973.6 343.5 973.6 342.5C973.4 337.3 973.5 332 973.9 326.8C973.9 325.8 972.4 325.8 972.4 326.8Z" fill="#E8E8E8"/>
<path d="M973.7 330C975.7 329.8 976.7 330.4 976.6 331.7C976.6 332.3 976.6 332.8 976.4 333.4C976.1 334.8 975.5 336 974 336.6C973.4 336.8 973.2 337.9 974 338C976.9 338.6 979.3 340 981 342.4C981.6 343.2 982.9 342.4 982.3 341.6C980.3 338.9 977.7 337.2 974.4 336.5C974.4 337 974.4 337.5 974.4 337.9C978 336.5 979.7 330.3 976.6 327.5C974 325.2 970 328.3 972.6 330.9C973.3 331.7 974.4 330.7 973.7 330Z" fill="#E8E8E8"/>
<path d="M984.4 339.6C984.3 340 984.4 340.7 984.5 341.2C984.6 341.8 984.8 342.3 985.3 342.6C986.2 343.3 987.4 342.8 988.4 342.4C989.3 342 988.5 340.7 987.6 341.1C987.3 341.3 986.9 341.5 986.5 341.5C986 341.5 986 341.1 986 340.6C986 339.9 985.9 339.2 985.5 338.6C984.8 337.8 983.2 338 983 339.1C982.8 340.1 984.2 340.5 984.4 339.6Z" fill="#E8E8E8"/>
<path d="M1070.6 356.8C1070.7 361.5 1070.7 366.2 1070.4 370.8C1070.3 371.6 1071.7 371.8 1071.9 371C1072 370.6 1072.1 370.2 1072.2 369.9C1072.4 369 1071 368.6 1070.8 369.5C1070.7 369.9 1070.6 370.3 1070.5 370.6C1071 370.7 1071.5 370.7 1072 370.8C1072.3 366.1 1072.4 361.4 1072.2 356.8C1072 355.8 1070.5 355.8 1070.6 356.8Z" fill="#E8E8E8"/>
<path d="M1070.6 357.3C1071.4 361.3 1072.6 365.2 1074.2 369C1074.5 369.8 1075.6 369.7 1075.7 368.8C1076.3 364.4 1076.8 360.1 1077.4 355.7C1077.5 354.7 1076 354.8 1075.9 355.7C1075.3 360.1 1074.8 364.4 1074.2 368.8C1074.7 368.7 1075.2 368.7 1075.7 368.6C1074.1 364.8 1072.9 360.9 1072.1 356.9C1071.8 355.9 1070.4 356.3 1070.6 357.3Z" fill="#E8E8E8"/>
<path d="M1080 368.5C1079.6 367.8 1079.1 366.9 1079.2 366.1C1079.3 365.7 1079.8 364.9 1080.3 365.2C1080.8 365.4 1080.7 366.9 1080.6 367.4C1080.5 367.9 1079.9 368.9 1079.3 368.2C1078.7 367.5 1077.6 368.5 1078.2 369.3C1079.1 370.3 1080.8 370 1081.6 368.9C1082.4 367.7 1082.5 365.3 1081.5 364.2C1080.6 363.2 1079 363.7 1078.3 364.6C1077.1 366 1078 367.9 1078.7 369.3C1079.2 370.1 1080.5 369.3 1080 368.5Z" fill="#E8E8E8"/>
<path d="M1084 355.7C1084.6 360.5 1084.8 365.2 1084.5 370C1084.4 371 1085.9 371 1086 370C1086.3 365.2 1086.1 360.5 1085.5 355.7C1085.3 354.8 1083.8 354.8 1084 355.7Z" fill="#E8E8E8"/>
<path d="M1085.7 358.7C1085.6 357.9 1085.5 356.8 1086.5 356.6C1087.5 356.4 1088 357.6 1088.1 358.4C1088.3 360 1087.3 361.6 1086 362.5C1085.2 363 1085.9 364.3 1086.8 363.8C1089.3 362.2 1090.9 358.4 1088.6 355.9C1087.8 355 1086.4 354.6 1085.4 355.3C1084.2 356.1 1084.2 357.7 1084.4 359C1084.4 360 1085.9 359.6 1085.7 358.7Z" fill="#E8E8E8"/>
<path d="M1089.1 352.3C1088.6 353.4 1089 354.7 1089.8 355.5C1090.6 356.2 1092.2 356.5 1092.8 355.3C1093.2 354.4 1091.9 353.7 1091.5 354.5C1091.4 354.7 1091.6 354.6 1091.5 354.6C1091.4 354.6 1091.3 354.6 1091.2 354.6C1091 354.5 1090.8 354.3 1090.7 354.1C1090.4 353.6 1090.4 353.1 1090.6 352.6C1090.8 352.2 1090.4 351.8 1090.1 351.7C1089.6 351.7 1089.3 352 1089.1 352.3Z" fill="#E8E8E8"/>
<path d="M966 318.7C966 338.1 966 357.4 966 376.8C966 378.7 969 378.7 969 376.8C969 357.4 969 338.1 969 318.7C969 316.8 966 316.8 966 318.7Z" fill="#E8E8E8"/>
<path d="M967.9 378.7C1011.3 378.7 1054.7 378.7 1098.1 378.7C1100 378.7 1100 375.7 1098.1 375.7C1054.7 375.7 1011.3 375.7 967.9 375.7C966 375.7 966 378.7 967.9 378.7Z" fill="#E8E8E8"/>
<path d="M9.3999 624.4C9.3999 650.7 9.3999 676.9 9.3999 703.2C9.3999 705.1 12.3999 705.1 12.3999 703.2C12.3999 676.9 12.3999 650.7 12.3999 624.4C12.3999 622.5 9.3999 622.5 9.3999 624.4Z" fill="#E8E8E8"/>
<path d="M14.2002 625.9C65.3002 625.9 116.4 625.9 167.4 625.9C169.3 625.9 169.3 622.9 167.4 622.9C116.3 622.9 65.2002 622.9 14.2002 622.9C12.2002 622.9 12.2002 625.9 14.2002 625.9Z" fill="#E8E8E8"/>
<path d="M14.2002 705.8C62.8002 705.8 111.3 705.8 159.9 705.8C161.8 705.8 161.8 702.8 159.9 702.8C111.3 702.8 62.8002 702.8 14.2002 702.8C12.2002 702.8 12.2002 705.8 14.2002 705.8Z" fill="#E8E8E8"/>
<path d="M164.8 626.6C164.8 650.7 164.8 674.8 164.8 698.9C164.8 700.8 167.8 700.8 167.8 698.9C167.8 674.8 167.8 650.7 167.8 626.6C167.8 624.7 164.8 624.7 164.8 626.6Z" fill="#E8E8E8"/>
<path d="M80.7002 583.4C80.7002 591.7 80.7002 599.9 80.7002 608.2C80.7002 610.1 83.7002 610.1 83.7002 608.2C83.7002 599.9 83.7002 591.7 83.7002 583.4C83.7002 581.5 80.7002 581.5 80.7002 583.4Z" fill="#E8E8E8"/>
<path d="M83.1999 584.9C116.3 584.9 149.4 584.9 182.5 584.9C184.4 584.9 184.4 581.9 182.5 581.9C149.4 581.9 116.3 581.9 83.1999 581.9C81.2999 581.9 81.2999 584.9 83.1999 584.9Z" fill="#E8E8E8"/>
<path d="M84.3 610.8C116.3 610.8 148.3 610.8 180.3 610.8C182.2 610.8 182.2 607.8 180.3 607.8C148.3 607.8 116.3 607.8 84.3 607.8C82.4 607.8 82.4 610.8 84.3 610.8Z" fill="#E8E8E8"/>
<path d="M179.9 587.7C179.9 594.5 179.9 601.4 179.9 608.2C179.9 610.1 182.9 610.1 182.9 608.2C182.9 601.4 182.9 594.5 182.9 587.7C182.9 585.8 179.9 585.8 179.9 587.7Z" fill="#E8E8E8"/>
<path d="M251.9 82.7001C258.8 82.4001 265.6 81.6001 272.3 80.3001C274.2 79.9001 273.4 77.0001 271.5 77.4001C265 78.6001 258.5 79.4001 251.9 79.7001C249.9 79.8001 249.9 82.8001 251.9 82.7001Z" fill="#E8E8E8"/>
<path d="M272.3 78.4002C269.4 67.6002 269.4 56.3002 272.7 45.6002C275.5 36.3002 283.9 20.1002 296.2 25.9002C306.6 30.8002 308 45.5002 309.7 55.5002C311.8 67.4002 312.8 79.5002 313 91.6002C313 93.5002 316 93.5002 316 91.6002C315.7 76.4002 314.1 61.3002 311 46.4002C308.9 36.5002 304.9 23.0002 292.8 21.8002C282.1 20.8002 275 31.4002 271.5 40.0002C266.5 52.5002 265.9 66.3002 269.4 79.2002C269.9 81.1002 272.8 80.3002 272.3 78.4002Z" fill="#E8E8E8"/>
<path d="M252.9 78.4002C249.2 62.2002 250.9 44.9002 258.2 29.9002C264.7 16.7002 277.4 3.8002 293 3.5002C310.2 3.2002 321.7 18.5002 326.5 33.4002C331.9 50.1002 333.2 68.5002 333.1 86.0002C333.1 87.9002 336.1 87.9002 336.1 86.0002C336.2 69.8002 334.9 53.2002 330.8 37.5002C327.6 25.2002 321.6 13.1002 310.7 5.9002C287.8 -9.2998 263.1 10.6002 254 31.9002C247.6 46.9002 246.3 63.4002 249.9 79.3002C250.4 81.1002 253.3 80.3002 252.9 78.4002Z" fill="#E8E8E8"/>
<path d="M313.4 93.9002C321.3 98.8002 332 95.0002 335.4 86.5002C336.1 84.7002 333.2 83.9002 332.5 85.7002C329.8 92.5002 321.1 95.2002 315 91.3002C313.3 90.3002 311.8 92.9002 313.4 93.9002Z" fill="#E8E8E8"/>
<path d="M248 120.4C248 145.8 248 171.1 248 196.5C248 198.4 251 198.4 251 196.5C251 171.1 251 145.8 251 120.4C251 118.5 248 118.5 248 120.4Z" fill="#E8E8E8"/>
<path d="M250.6 122.6C280.5 117.5 309.9 110.3 338.7 101C340.5 100.4 339.7 97.4998 337.9 98.0998C309.1 107.5 279.7 114.7 249.8 119.7C247.9 120 248.8 122.9 250.6 122.6Z" fill="#E8E8E8"/>
<path d="M339.3 102.8C339.3 126.6 339.3 150.3 339.3 174.1C339.3 176 342.3 176 342.3 174.1C342.3 150.3 342.3 126.6 342.3 102.8C342.3 100.9 339.3 100.9 339.3 102.8Z" fill="#E8E8E8"/>
<path d="M251.4 199.9C281.1 195.2 310.4 188.1 339 178.7C340.8 178.1 340 175.2 338.2 175.8C309.6 185.2 280.3 192.3 250.6 197C248.7 197.3 249.5 200.2 251.4 199.9Z" fill="#E8E8E8"/>
<path d="M294.2 147.1C293.2 144.5 292 141.6 291.9 138.8C291.8 135.4 294.1 130.9 298.1 131.9C304.2 133.4 302.5 143.2 300.3 147C299.3 148.7 301.9 150.2 302.9 148.5C306.2 142.9 307.1 130.1 298.3 128.7C294.8 128.2 291.5 130.6 289.9 133.7C287.6 138.3 289.5 143.6 291.2 148C292 149.7 294.9 148.9 294.2 147.1Z" fill="#E8E8E8"/>
<path d="M291.8 146.8C292.2 154 292.6 161.3 293 168.5C293.2 171.7 294.8 173.5 298.4 172.7C301.8 171.9 303.5 169 303.9 165.8C304.3 162.5 303.4 159.1 303.1 155.9C302.8 152.1 302.8 148.3 303.1 144.4C303.2 142.5 300.2 142.5 300.1 144.4C299.9 148.2 299.8 152 300.1 155.9C300.3 158.5 302.8 168.6 298.7 169.4C294.5 170.2 295.6 161.2 295.4 158.7C295.2 154.8 295 150.8 294.7 146.9C294.7 144.9 291.7 144.9 291.8 146.8Z" fill="#E8E8E8"/>
<path d="M514 90.9001C514 112.4 514 133.9 514 155.4C514 157.3 517 157.3 517 155.4C517 133.9 517 112.4 517 90.9001C517 89.0001 514 89.0001 514 90.9001Z" fill="#E8E8E8"/>
<path d="M454.3 161.8C491.8 161.8 529.2 161.8 566.7 161.8C568.6 161.8 568.6 158.8 566.7 158.8C529.2 158.8 491.8 158.8 454.3 158.8C452.4 158.8 452.4 161.8 454.3 161.8Z" fill="#E8E8E8"/>
<path d="M552 165.3C552 182.4 552 199.5 552 216.5C552 218.4 555 218.4 555 216.5C555 199.4 555 182.3 555 165.3C555 163.4 552 163.4 552 165.3Z" fill="#E8E8E8"/>
<path d="M16.1999 383.4C52.5999 383.4 88.8999 383.4 125.3 383.4C127.2 383.4 127.2 380.4 125.3 380.4C88.8999 380.4 52.5999 380.4 16.1999 380.4C14.2999 380.4 14.2999 383.4 16.1999 383.4Z" fill="#E8E8E8"/>
<path d="M77.2998 378.6C77.2998 369.2 77.2998 359.9 77.2998 350.5C77.2998 348.6 74.2998 348.6 74.2998 350.5C74.2998 359.9 74.2998 369.2 74.2998 378.6C74.2998 380.5 77.2998 380.5 77.2998 378.6Z" fill="#E8E8E8"/>
<path d="M110.6 386.8C110.6 397.8 110.6 408.8 110.6 419.9C110.6 421.8 113.6 421.8 113.6 419.9C113.6 408.9 113.6 397.9 113.6 386.8C113.6 384.9 110.6 384.9 110.6 386.8Z" fill="#E8E8E8"/>
<path d="M885.8 575.1C931 575.1 976.2 575.1 1021.4 575.1C1023.3 575.1 1023.3 572.1 1021.4 572.1C976.2 572.1 931 572.1 885.8 572.1C883.9 572.1 883.9 575.1 885.8 575.1Z" fill="#E8E8E8"/>
<path d="M970 572C970 562.1 970 552.2 970 542.2C970 540.3 967 540.3 967 542.2C967 552.1 967 562 967 572C967 573.9 970 573.9 970 572Z" fill="#E8E8E8"/>
<path d="M951.9 543.7C987.2 543.7 1022.4 543.7 1057.7 543.7C1059.6 543.7 1059.6 540.7 1057.7 540.7C1022.4 540.7 987.2 540.7 951.9 540.7C950 540.7 950 543.7 951.9 543.7Z" fill="#E8E8E8"/>
<path d="M96.2998 966.7C162 966.7 227.6 966.7 293.3 966.7C295.2 966.7 295.2 963.7 293.3 963.7C227.6 963.7 162 963.7 96.2998 963.7C94.2998 963.7 94.2998 966.7 96.2998 966.7Z" fill="#E8E8E8"/>
<path d="M180.4 950.6C252 950.6 323.6 950.6 395.3 950.6C397.2 950.6 397.2 947.6 395.3 947.6C323.7 947.6 252.1 947.6 180.4 947.6C178.5 947.6 178.5 950.6 180.4 950.6Z" fill="#E8E8E8"/>
<path d="M321.9 1002.5C366.1 1002.5 410.2 1002.5 454.4 1002.5C456.3 1002.5 456.3 999.5 454.4 999.5C410.2 999.5 366.1 999.5 321.9 999.5C319.9 999.5 319.9 1002.5 321.9 1002.5Z" fill="#E8E8E8"/>
<path d="M493.8 945.2C521.3 945.2 548.7 945.2 576.2 945.2C578.1 945.2 578.1 942.2 576.2 942.2C548.7 942.2 521.3 942.2 493.8 942.2C491.8 942.2 491.8 945.2 493.8 945.2Z" fill="#E8E8E8"/>
<path d="M719.4 914.8C778.5 914.8 837.6 914.8 896.7 914.8C898.6 914.8 898.6 911.8 896.7 911.8C837.6 911.8 778.5 911.8 719.4 911.8C717.4 911.8 717.4 914.8 719.4 914.8Z" fill="#E8E8E8"/>
<path d="M844.7 873.6C915.1 873.6 985.6 873.6 1056 873.6C1057.9 873.6 1057.9 870.6 1056 870.6C985.6 870.6 915.1 870.6 844.7 870.6C842.8 870.6 842.8 873.6 844.7 873.6Z" fill="#E8E8E8"/>
<path d="M968.2 913C1038.6 913 1109.1 913 1179.5 913C1181.4 913 1181.4 910 1179.5 910C1109.1 910 1038.6 910 968.2 910C966.3 910 966.3 913 968.2 913Z" fill="#E8E8E8"/>
<path d="M885.9 977.4C917.5 977.4 949.2 977.4 980.8 977.4C982.7 977.4 982.7 974.4 980.8 974.4C949.2 974.4 917.5 974.4 885.9 974.4C883.9 974.4 883.9 977.4 885.9 977.4Z" fill="#E8E8E8"/>
<path opacity="0.07" d="M412.5 939.2C362.3 978.4 312.2 1017.6 262 1056.8C194.5 1027.4 127.1 998 59.6001 968.6C131.1 929.4 202.6 890.2 274.1 851C285.2 849.6 295 849.9 303.5 851C369 859.8 405.4 925.7 412.5 939.2Z" fill="#353535"/>
<path d="M261.6 404.1C260.6 555.4 259.6 706.6 258.6 857.9C307.8 888.9 357 919.9 406.2 950.9C458.4 914.2 510.6 877.5 562.9 840.7C562.6 713.4 562.2 586 561.9 458.7C518.4 421 475 383.2 431.5 345.5C374.8 365 318.2 384.5 261.6 404.1Z" fill="white"/>
<path d="M405.2 532.3C405.2 641.4 405.2 750.5 405.2 859.6C405.2 890.2 405.2 920.8 405.2 951.4C405.2 953.3 408.2 953.3 408.2 951.4C408.2 842.3 408.2 733.2 408.2 624.1C408.2 593.5 408.2 562.9 408.2 532.3C408.2 530.4 405.2 530.3 405.2 532.3Z" fill="#161616"/>
<path d="M560.6 459.7C560.8 559.2 560.9 658.8 561.1 758.3C561.1 786.2 561.2 814 561.2 841.9C561.2 843.8 564.2 843.8 564.2 841.9C564 742.4 563.9 642.8 563.7 543.3C563.7 515.4 563.6 487.6 563.6 459.7C563.5 457.8 560.5 457.8 560.6 459.7Z" fill="#161616"/>
<path d="M260.8 404.7C304 390.2 347.3 375.7 390.5 361.2C401.2 357.6 411.8 354.1 422.5 350.5C424.8 349.7 427.6 348.1 430.1 348.9C432 349.5 434.6 352.7 436.2 354.1C440.7 358 445.3 361.8 449.8 365.7C467 380.3 484.1 394.9 501.3 409.5C521 426.3 540.7 443 560.4 459.8C560.5 459 560.6 458.2 560.7 457.4C510.1 482.8 459.1 507.1 407.5 530.5C408.1 530.6 408.7 530.7 409.3 530.7C392.7 516.3 376.1 501.8 359.5 487.4C332.9 464.3 306.3 441.1 279.7 418C273.6 412.7 267.6 407.4 261.5 402.1C260.5 401.3 258.9 401.8 258.9 403.2C258.9 430.5 258.9 457.9 258.9 485.2C258.9 543.2 258.9 601.1 258.9 659.1C258.9 711.6 258.9 764.1 258.9 816.6C258.9 829.6 258.9 842.5 258.9 855.5C258.9 857.5 258.5 859.2 259.9 860.6C261.1 861.9 263.2 862.7 264.7 863.7C268.1 865.9 271.5 868 274.8 870.2C317.4 897.3 359.9 924.3 402.5 951.4C403.6 952.1 404.7 952.8 405.7 953.5C406.1 953.8 406.8 953.8 407.2 953.5C459.1 916.6 511 879.8 562.8 842.9C564.4 841.8 562.9 839.2 561.3 840.3C534 859.7 506.7 879.1 479.4 898.5C465.6 908.3 451.8 918.1 438.1 927.9C431.3 932.7 424.6 937.5 417.8 942.3C414.9 944.4 410.4 946.5 408.1 949.2C407.4 950 407.5 950.8 406.9 950.8C405.5 950.8 402.4 947.9 401.3 947.2C397.3 944.6 393.3 942.1 389.2 939.5C377.1 931.8 365 924.1 352.9 916.4C327.2 900 301.5 883.7 275.7 867.3C272.1 865 268.6 862.8 265 860.5C264.1 859.9 263.1 859.1 262.1 858.7C261.4 858.4 260.8 857.4 261.4 858.7C262.1 860.2 261.7 858 261.8 857.4C261.9 855.6 261.8 853.8 261.8 852C261.8 835.2 261.8 818.3 261.8 801.5C261.8 773.5 261.8 745.5 261.8 717.5C261.8 684.5 261.8 651.5 261.8 618.5C261.8 586.1 261.8 553.7 261.8 521.3C261.8 495.6 261.8 469.9 261.8 444.2C261.8 435.8 261.8 427.3 261.8 418.9C261.8 414.5 262.4 409.6 261.8 405.2C261.7 404.6 261.8 404 261.8 403.4C260.9 403.8 260.1 404.1 259.2 404.5C275.8 418.9 292.4 433.4 309 447.8C335.6 470.9 362.2 494.1 388.8 517.2C394.9 522.5 400.9 527.8 407 533.1C407.6 533.6 408.2 533.6 408.8 533.3C460.3 509.9 511.4 485.6 562 460.2C562.8 459.8 563 458.4 562.3 457.8C526.7 427.5 491.1 397.2 455.5 366.9C451.2 363.2 446.9 359.6 442.6 355.9C440.6 354.2 438.6 352.5 436.5 350.7C434.9 349.4 432.1 346 430.1 345.3C428.7 344.8 427.5 345.6 426.1 346.1C423.3 347 420.5 348 417.6 348.9C412 350.8 406.3 352.7 400.7 354.6C378.8 361.9 356.8 369.3 334.9 376.6C309.8 385 284.8 393.4 259.7 401.8C258.1 402.4 258.9 405.3 260.8 404.7Z" fill="#161616"/>
<path d="M281.5 869.6C281.5 849.9 281.5 830.3 281.5 810.6C281.5 808.7 278.5 808.7 278.5 810.6C278.5 830.3 278.5 849.9 278.5 869.6C278.5 871.5 281.5 871.5 281.5 869.6Z" fill="#161616"/>
<path d="M279.3 809.2C302.7 822.3 325.8 836 348.5 850.3C350.1 851.3 351.6 848.7 350 847.7C327.3 833.4 304.2 819.7 280.8 806.6C279.1 805.7 277.6 808.3 279.3 809.2Z" fill="#161616"/>
<path d="M348 849.6C346.7 870.1 345.4 890.7 344.1 911.2C344 913.1 347 913.1 347.1 911.2C348.4 890.7 349.7 870.1 351 849.6C351.1 847.7 348.1 847.7 348 849.6Z" fill="#161616"/>
<path d="M291.1 831C289.4 844.8 288.4 858.6 288.2 872.4C288.2 874.3 291.2 874.3 291.2 872.4C291.4 858.5 292.4 844.7 294.1 831C294.4 829 291.4 829.1 291.1 831Z" fill="#161616"/>
<path d="M307 838.1C305.2 852.4 303.9 866.7 303.2 881C303.1 882.9 306.1 882.9 306.2 881C307 866.7 308.2 852.3 310 838.1C310.3 836.2 307.3 836.2 307 838.1Z" fill="#161616"/>
<path d="M323.4 848.7C321.2 863.2 319.6 877.8 318.7 892.4C318.6 894.3 321.6 894.3 321.7 892.4C322.6 878 324.1 863.7 326.3 849.5C326.6 847.6 323.7 846.8 323.4 848.7Z" fill="#161616"/>
<path d="M335.6 855.7C334.7 868.6 333.8 881.4 333 894.3C332.9 896.2 335.9 896.2 336 894.3C336.9 881.4 337.8 868.6 338.6 855.7C338.7 853.8 335.7 853.8 335.6 855.7Z" fill="#161616"/>
<path d="M281.3 799.1C306.8 812.4 331.9 826.5 356.5 841.4C358.2 842.4 359.7 839.8 358 838.8C333.4 823.9 308.3 809.7 282.8 796.5C281.1 795.6 279.5 798.2 281.3 799.1Z" fill="#161616"/>
<path d="M283.1 796.8C283.1 791.6 283.1 786.5 283.1 781.3C283.1 779.4 280.1 779.4 280.1 781.3C280.1 786.5 280.1 791.6 280.1 796.8C280.1 798.8 283.1 798.8 283.1 796.8Z" fill="#161616"/>
<path d="M281.4 780.9C308.1 793.7 333.9 808.3 358.6 824.5C360.2 825.6 361.7 823 360.1 821.9C335.4 805.6 309.6 791.1 282.9 778.3C281.2 777.5 279.7 780 281.4 780.9Z" fill="#161616"/>
<path d="M357 825.4C356.5 829.9 356 834.5 355.5 839C355.3 840.9 358.3 840.9 358.5 839C359 834.5 359.5 829.9 360 825.4C360.2 823.5 357.2 823.5 357 825.4Z" fill="#161616"/>
<path d="M416.7 544.2C455.6 527.1 493.7 508.1 530.7 487.2C532.4 486.3 530.9 483.7 529.2 484.6C492.1 505.4 454.1 524.4 415.2 541.6C413.4 542.4 414.9 545 416.7 544.2Z" fill="#161616"/>
<path d="M414.3 542.7C414.3 551 414.3 559.3 414.3 567.6C414.3 569.5 417.3 569.5 417.3 567.6C417.3 559.3 417.3 551 417.3 542.7C417.3 540.8 414.3 540.8 414.3 542.7Z" fill="#161616"/>
<path d="M417.1 567.6C444.2 555.6 470.7 542.3 496.6 527.8C498.3 526.9 496.8 524.3 495.1 525.2C469.2 539.7 442.7 552.9 415.6 565C413.9 565.8 415.4 568.4 417.1 567.6Z" fill="#161616"/>
<path d="M415.9 678.6C415.9 751.2 415.9 823.8 415.9 896.3C415.9 898.2 418.9 898.2 418.9 896.3C418.9 823.7 418.9 751.1 418.9 678.6C418.9 676.7 415.9 676.7 415.9 678.6Z" fill="#161616"/>
<path d="M424.3 796.8C424.3 836.2 424.3 875.6 424.3 915C424.3 916.9 427.3 916.9 427.3 915C427.3 875.6 427.3 836.2 427.3 796.8C427.3 794.9 424.3 794.9 424.3 796.8Z" fill="#161616"/>
<path d="M265 426.8C265 477.8 265 528.9 265 579.9C265 581.8 268 581.8 268 579.9C268 528.9 268 477.8 268 426.8C268 424.9 265 424.9 265 426.8Z" fill="#161616"/>
<path d="M273.6 537.5C273.6 596.5 273.6 655.6 273.6 714.6C273.6 716.5 276.6 716.5 276.6 714.6C276.6 655.6 276.6 596.5 276.6 537.5C276.6 535.6 273.6 535.6 273.6 537.5Z" fill="#161616"/>
<path opacity="0.06" d="M259.2 404C259.2 555.7 259.2 707.4 259.2 859.1C308.4 890.1 357.5 921.1 406.7 952.1C406.7 811.6 406.7 671.1 406.7 530.5C357.5 488.4 308.4 446.2 259.2 404Z" fill="#353535"/>
<path opacity="0.1" d="M263.4 457.7C278.3 529.9 292.9 589.9 304.5 634.5C322.5 703.9 331.7 730.9 343.9 758.5C364.8 805.8 388.4 841.9 405.9 865.8C406.5 796.2 407 726.7 407.6 657.1C412.5 754.4 456.5 815.5 491.4 814.7C519.6 814 547.2 773.1 562.6 723.3C562.6 763 562.6 802.6 562.6 842.3C510.9 878.3 459.2 914.4 407.6 950.4C358.7 919.7 309.8 888.9 260.9 858.2C261.7 724.7 262.5 591.2 263.4 457.7Z" fill="#353535"/>
<path opacity="0.39" d="M583.3 410.4C537.1 436.5 491 462.6 444.8 488.7C417.4 451.6 389.9 414.4 362.5 377.3C415.3 356.6 468.2 335.8 521 315.1C541.8 346.9 562.6 378.6 583.3 410.4Z" fill="#EC615B"/>
<g opacity="0.39">
<path d="M379.8 385.7C384.9 389.1 390 392.5 395.2 395.9C396 396.4 397.2 395.9 397.4 395C399.6 384.8 403.1 375.2 408.1 366.1C409 364.4 406.4 362.9 405.5 364.6C400.4 374 396.8 383.9 394.5 394.3C395.2 394 396 393.7 396.7 393.4C391.6 390 386.5 386.6 381.3 383.2C379.7 382 378.2 384.6 379.8 385.7Z" fill="#EC615B"/>
</g>
<path d="M420.9 364.6C422.6 362 424.9 360 427.8 358.8C428.7 358.4 427.9 357.1 427 357.5C423.9 358.9 421.4 361.1 419.6 363.9C419.1 364.7 420.4 365.4 420.9 364.6Z" fill="#EC615B"/>
<path d="M421 370.9C423 364.7 428.6 360.2 435.1 359.5C436.1 359.4 436.1 357.9 435.1 358C427.9 358.7 421.8 363.5 419.6 370.5C419.3 371.4 420.7 371.8 421 370.9Z" fill="#EC615B"/>
<path d="M422.7 376C424.9 367.2 431.1 360.8 440.6 363.9C441.5 364.2 441.9 362.8 441 362.5C430.8 359.1 423.7 366 421.3 375.6C421 376.5 422.4 376.9 422.7 376Z" fill="#EC615B"/>
<path d="M425.7 380.9C426 376 426.8 370.2 431.5 367.4C436.1 364.7 441.3 366.6 444.7 370.2C445.4 370.9 446.4 369.8 445.8 369.1C442.2 365.3 436.9 363.3 431.9 365.5C425.9 368.1 424.7 374.9 424.3 380.8C424.2 381.8 425.7 381.8 425.7 380.9Z" fill="#EC615B"/>
<path d="M430.2 386.6C431.2 380.9 426.5 375.7 431.6 370.8C435.3 367.3 440 369.1 443 372.3C445.7 375.3 446.8 379.2 447.3 383.1C447.4 384 448.9 384.1 448.8 383.1C448 376.5 443.8 366.1 435.2 367.2C432.1 367.6 429.4 370.3 428.2 373.1C426.3 377.6 429.6 381.6 428.8 386.1C428.6 387.1 430.1 387.5 430.2 386.6Z" fill="#EC615B"/>
<path d="M433.5 388.9C436.6 383.8 430.1 378.9 432.7 374.2C435.4 369.1 440.7 372.5 442.5 376.1C444.4 380.1 444.4 384.6 443.3 388.8C443.1 389.7 444.5 390.1 444.7 389.2C446.2 383.4 445.6 370.5 437.2 370.1C434.5 370 431.8 371.9 431 374.4C429.4 379.2 435.1 383.6 432.3 388.1C431.7 389 433 389.8 433.5 388.9Z" fill="#EC615B"/>
<path d="M437 390C438.6 386.2 438.2 382.6 436.3 379.1C435.9 378.5 435.6 377.8 435.3 377.1C437.5 375.6 438.8 376 439.2 378.1C439.6 379.1 439.9 380.1 440 381.2C440.5 384.3 440 387.3 438.9 390.2C438.5 391.1 440 391.5 440.3 390.6C441.7 387.1 442.1 383.4 441.2 379.8C440.7 377.5 439.4 373.7 436.5 373.6C434.6 373.5 433.5 375 433.6 376.8C433.7 378.4 434.9 379.8 435.5 381.2C436.7 384 436.6 386.9 435.4 389.7C435.2 390.5 436.6 390.9 437 390Z" fill="#EC615B"/>
<path d="M504.7 444C505 442.2 505.1 440.2 503.4 439.1C501.7 438 498.8 439.1 496.8 439C493.6 438.8 490.4 437.6 487.4 436.6C481.3 434.6 475.1 431.8 470.7 426.8C468.7 424.5 466.1 420.8 465.9 417.6C465.5 410.1 469.8 415.9 472.8 416.7C474.4 417.1 475.7 417 475.8 415.2C475.9 414 474.9 413.4 474.1 412.5C472 410.3 470 408.2 468.1 405.8C464.3 400.8 461.3 395.2 459.5 389.2C458.8 386.9 456.5 377.9 461 378.5C463.1 378.7 466.7 383.6 468 385.2C468.4 384.8 468.7 384.5 469.1 384.1C466.2 380.4 461.4 374.9 461.7 369.9C462.2 360.3 473.3 369.5 475.3 373C475.7 372.7 476.1 372.4 476.5 372.1C475.2 370.6 473.2 367.7 473.2 365.5C473 359.4 476.4 361.7 478.8 363.3C482 365.5 484.3 368.9 486.6 372C487.2 372.8 488.3 372.1 487.9 371.2C487.2 369.9 486.7 368.5 486.3 367C485.4 365.1 486.2 364.1 488.9 363.9C492.6 362 492.3 362.5 494.7 365.1C497.4 368 499.5 371.4 501.7 374.7C505.3 380.3 509.4 385.3 513.4 390.5C516 393.9 518.1 397.5 519.2 401.7C520.3 405.8 520.2 410 520.8 414.1C521.5 418.9 523.5 423.2 528.1 425.4C529 425.8 529.7 424.5 528.9 424.1C519.5 419.6 522.8 404.9 519 396.5C517.3 392.7 514.7 389.4 512 386.2C508.5 382 505.6 377.7 502.6 373.1C499.7 368.6 494.6 359 488.4 358.8C481.5 358.6 485.1 368.3 486.6 371.6C487 371.3 487.5 371.1 487.9 370.8C485.4 367.3 478.9 357.5 473.2 359.4C468.2 361.1 473.6 370.5 475.5 372.7C476.1 373.4 477.1 372.5 476.7 371.8C474.9 368.7 472.4 366.2 469.2 364.7C467.2 363.8 463 362.2 461.1 364.2C459.2 366.2 460.2 370.6 461 372.9C462.4 377.3 465.3 381.1 468.2 384.7C468.8 385.5 469.8 384.4 469.3 383.6C467.7 381.6 462.4 374.6 459.1 375.7C456.3 376.7 457 382.7 457.2 384.6C458 390.7 461 396.8 464.2 401.9C465.7 404.3 467.4 406.6 469.2 408.7C470.1 409.8 472 411 472.6 412.3C474.5 413.6 474.1 414 471.3 413.5C470.5 413 469.6 412.6 468.8 412.1C466.3 410.8 464.7 410.8 464.2 414C463.6 418.3 466.6 423.5 469.2 426.6C472.8 431 477.8 433.8 483 435.9C486.1 437.1 489.4 438.2 492.6 439C495 439.6 503.8 439.2 503.3 442.9C503.1 444.6 504.6 445 504.7 444Z" fill="#EC615B"/>
<path d="M466.8 383.5C471 388.6 474.4 394.4 478.1 399.9C478.6 400.7 479.9 399.9 479.4 399.1C475.6 393.5 472.1 387.6 467.8 382.4C467.2 381.7 466.2 382.7 466.8 383.5Z" fill="#EC615B"/>
<path d="M473 369.8C477.1 375.4 480.9 381.1 484.5 387C485 387.8 486.3 387.1 485.8 386.2C482.2 380.3 478.4 374.6 474.3 369C473.8 368.3 472.5 369 473 369.8Z" fill="#EC615B"/>
<path d="M362.1 377.5C389 414.8 416.5 451.7 444.7 488C445.3 488.8 446.3 487.7 445.8 486.9C417.7 450.6 390.3 413.9 363.4 376.7C362.9 376 361.6 376.7 362.1 377.5Z" fill="#EC615B"/>
<path d="M744.5 895.8C746.1 914.7 747.7 933.5 749.3 952.4C711.6 969.1 693.4 979.8 694.8 984.4C696.5 990 726.6 986.8 785 974.8C783.8 942.8 782.5 910.7 781.3 878.7C769.1 884.4 756.8 890.1 744.5 895.8Z" fill="#161616"/>
<path d="M781.2 490.4C786.9 494.2 787.9 502.7 789.9 519.6C790.9 527.7 791.4 537.7 788.9 566.7C788.6 569.8 787.8 579.7 785.3 601C781.7 632.2 780.7 635.9 779.7 649.1C778.9 659.4 778.4 670.3 778.7 693.7C779 716 779.3 746.5 782.8 789C785.4 820.5 789.8 859.7 797.7 904.7C789.9 908.8 782.6 911.3 776.7 912.9C763.6 916.4 753 916.5 743.9 916.5C735.2 916.5 727.6 915.8 721.4 915C718.5 899.9 714.7 877.2 711.7 849.4C710.1 835 709.1 819.1 707.1 787.9C704.3 744.2 702.9 722.4 702.5 703.9C702.3 695.7 702.3 688.9 703.5 632.7C705.3 548.4 706 538.1 714.8 524.6C732.3 497.6 767.8 481.4 781.2 490.4Z" fill="white"/>
<path d="M788.7 493.2C790.4 520.4 789.9 547.6 787.2 574.7C784.5 601.1 780 627.2 778.3 653.6C774.8 707.8 778.4 762.3 784.4 816.2C787.8 846.3 791.9 876.4 796.1 906.4C796.4 908.3 799.3 907.5 799 905.6C791.5 851.5 784 797.3 781.1 742.7C779.7 716 779.4 689.1 780.7 662.4C782.1 635.8 786 609.7 789.2 583.3C792.8 553.4 793.6 523.2 791.7 493.1C791.6 491.2 788.6 491.2 788.7 493.2Z" fill="#161616"/>
<path d="M702 623.5C699.6 699.5 702.5 775.6 711 851.2C713.3 872.2 716.1 893.1 719.3 914C719.6 915.9 722.5 915.1 722.2 913.2C710.9 838.5 704.9 763 704.3 687.4C704.1 666.1 704.4 644.8 705.1 623.5C705.1 621.5 702.1 621.5 702 623.5Z" fill="#161616"/>
<path d="M720.2 916.2C746.2 921.4 773.1 918 797 906.4C798.7 905.6 797.2 903 795.5 903.8C772.4 915 746.2 918.4 721 913.3C719.1 912.9 718.3 915.8 720.2 916.2Z" fill="#161616"/>
<path opacity="0.09" d="M712.3 549.5C709.6 568.4 707.1 589.9 705.4 613.7C704.4 626.7 703 649 702.8 677C702.6 700.3 703.5 720 705.4 758.6C707.5 802.2 708.6 824.5 711.5 848.8C714.8 876.8 718.9 899.6 721.9 914.7C728.9 916.2 738.5 917.3 749.7 916.4C757.1 915.8 763.5 914.4 768.8 912.9C760.3 881.1 752.5 847.8 745.4 813.1C725.9 718.3 716.1 629.6 712.3 549.5Z" fill="#353535"/>
<path opacity="0.09" d="M704.5 647.6C708.8 683.4 712.6 714.2 715.8 738.7C724 802.8 726.6 818.9 732.3 839.3C741.7 873.1 754 899.2 762.7 915.6C756.6 917.1 746.7 918.7 734.9 916.5C729.4 915.5 724.7 913.8 721 912.2C716.9 887.9 713.4 862.4 710.6 835.9C703.3 767.6 702.2 704.4 704.5 647.6Z" fill="#353535"/>
<path d="M630.8 906.5C629.4 926.4 628 946.4 626.5 966.3C579.5 977.9 556.4 986.3 557.1 991.4C557.9 997.5 592.6 998.9 661.2 995.7C663.3 966.9 665.5 938 667.6 909.2C655.3 908.2 643 907.3 630.8 906.5Z" fill="#161616"/>
<path d="M672.3 494.2C666.4 500.5 662.5 508.5 662.5 508.5C660.1 513.4 658.6 517.6 658 521C656.9 528.5 655.3 538.9 653.5 551.3C649.6 578.4 646.9 599.6 645.5 611C640.5 650.5 637.7 676.1 632.1 723.4C623.8 793.3 621.4 808.4 615.2 865.2C612.9 886.3 611 903.7 609.8 915.1C611.5 917.8 614.4 921.6 619 925C620.1 925.8 622.2 927.3 628.5 930.3C634.3 933 640.2 935.4 642.8 936.3C658.3 941.3 686.3 933.8 687.8 933.4C687.8 922.5 688 907.8 688.8 890.3C689.1 883.3 690.1 864.4 694 828.1C697.5 795.6 700.2 769.9 706.3 735.3C710.7 710 715 690.7 718.9 673.9C724.8 647.5 730.6 625 735.4 607.5C742.3 594 749.2 580.5 756.1 567C758.1 564.1 776.4 537 766 512.4C750.4 475 685.2 480.4 672.3 494.2Z" fill="white"/>
<path d="M668.9 483.2C650.2 534.6 646.2 590.1 639.9 644C633.1 701.8 626.3 759.6 619.6 817.5C615.8 849.9 612 882.3 608.2 914.6C608 916.5 611 916.5 611.2 914.6C617.9 857.1 624.7 799.6 631.4 742.1C638 685.6 643.8 629 651.5 572.7C655.6 542.6 661.3 512.6 671.8 484C672.4 482.2 669.5 481.4 668.9 483.2Z" fill="#161616"/>
<path d="M755.4 566C739.6 590.9 727.1 617.7 718.3 645.9C717.7 647.7 720.6 648.5 721.2 646.7C729.9 618.8 742.3 592.2 758 567.5C759 565.9 756.4 564.3 755.4 566Z" fill="#161616"/>
<path d="M735.6 602.3C711.4 685.9 695.9 772 689.7 858.8C687.9 883.7 686.9 908.6 686.6 933.5C686.6 935.4 689.6 935.4 689.6 933.5C690.6 846.4 700.8 759.5 720 674.6C725.4 650.6 731.6 626.8 738.5 603.2C739 601.3 736.2 600.5 735.6 602.3Z" fill="#161616"/>
<path d="M608.5 916.2C628.2 939.5 660.7 946.6 688.5 934.1C690.3 933.3 688.7 930.7 687 931.5C660.4 943.4 629.4 936.2 610.6 914C609.3 912.6 607.2 914.7 608.5 916.2Z" fill="#161616"/>
<path opacity="0.06" d="M692.3 502.7C704.2 513.6 685.4 549.5 674.1 577.3C657.6 617.9 654.1 685 647.2 819.4C645.7 847.8 644.1 887.6 643.7 935.7C640.2 935.2 636 934.2 631.6 932.2C619.9 927.1 613.1 918.6 609.9 914C612.7 894.1 616.7 864 621.2 827.2C631.5 742.8 633.6 708.2 641.2 647.6C645.5 613.3 652.2 564.1 662.9 504.4C662.8 504.4 662.8 504.4 692.3 502.7Z" fill="#353535"/>
<path opacity="0.06" d="M643.7 634.6C649 709.5 643.4 757.4 636.8 788.2C631.1 814.6 632.4 842.1 629 868.9C627.3 882 625 898.5 634.2 914C640.8 925.1 650.6 931.4 657.6 934.8C653.5 935.6 642.8 937.1 630.7 932.2C618.9 927.4 612.3 919.2 609.9 915.7C614.7 874.1 619.7 832.4 624.6 790.8C630.9 738.6 637.3 686.6 643.7 634.6Z" fill="#353535"/>
<path d="M758.3 264.5C756.2 265.7 757.1 277.4 759 300.5C759.2 302.4 759.3 304.6 759.6 307.6C760.3 314.4 761.2 321 762.3 328.1C770.6 382 782.4 422 782.4 422C788.1 441.3 796.2 465.1 807.7 491.6C809.6 495 813.4 500.5 819.8 503.7C826.7 507.2 832.9 506.2 842.1 504.5C859.9 501.2 871.3 493.1 875.4 489.9C881.4 485.3 889.3 479.2 888.6 472.1C888.3 469.6 886.9 465.9 883.8 464.8C881.1 463.8 877.7 465.1 875.4 468C880.1 461.5 883.4 455.5 885.6 451C890.7 440.6 890.7 437 889.6 434.4C889.4 434 888.2 431.2 885.6 429.9C884.9 429.6 883.5 429 879 429.9C873.7 430.9 872.9 432.2 869.5 432.3C866.3 432.4 865.3 431.3 862.9 431.1C859.8 430.8 855.2 432 849 439.2C848 438.4 846.5 437.5 844.6 437.6C841.4 437.7 838.9 440.7 832.5 451.8C830.5 455.2 828 459.7 825.2 465.2C823.8 459 821.7 449.4 819.3 437.7C811.1 396.5 812.3 388.5 806.1 358.4C797.4 315.6 788.2 297.7 780.1 285.6C772.3 273.4 762 262.3 758.3 264.5Z" fill="white"/>
<path d="M758.6 266.7C763.1 264.6 768.5 272.6 770.9 275.5C773.9 279.2 776.7 283 779.2 287C783.9 294.3 787.8 302.1 791.1 310.2C798.5 328.1 802.8 347.1 806.2 366.1C809.7 385.9 812.5 405.8 815.6 425.6C818.3 442.8 820.1 461.1 829.7 476.1C830.7 477.7 833.3 476.2 832.3 474.6C823.8 461.4 821.7 445.7 819.4 430.6C816.8 413.6 814.2 396.6 811.5 379.6C806.6 348.7 800.4 317 784.4 289.7C780.6 283.3 776.3 277.2 771.5 271.5C767.9 267.4 763.2 261.3 757.2 264.1C755.3 264.9 756.8 267.5 758.6 266.7Z" fill="#161616"/>
<path d="M758 308.8C761.5 339.6 767.1 370.1 774.9 400.1C782.5 429.3 791.4 459.4 804.2 486.8C809.6 498.2 819.8 510.8 834 507.1C835.9 506.6 835.1 503.7 833.2 504.2C813.3 509.5 804.7 481 799.5 467.5C793.1 450.7 787.4 433.7 782.4 416.5C772.2 381.3 765.1 345.3 760.9 308.9C760.8 306.9 757.8 306.8 758 308.8Z" fill="#161616"/>
<path d="M826.9 467.1C829.5 461.8 832 456.4 834.6 451.1C837.3 445.6 840.6 437.9 847.9 438.6C849.8 438.8 849.8 435.8 847.9 435.6C842.2 435.1 838.1 438.8 835.3 443.3C831 450.2 827.9 458.2 824.3 465.5C823.5 467.3 826 468.8 826.9 467.1Z" fill="#161616"/>
<path d="M841.9 454.4C846.2 447.2 854.4 427.2 865.6 433.3C867.3 434.2 868.8 431.6 867.1 430.7C853.4 423.2 844.5 444.1 839.3 452.8C838.3 454.6 840.9 456.1 841.9 454.4Z" fill="#161616"/>
<path d="M850.6 458.1C854.2 453 857.9 447.9 861.5 442.8C865.4 437.3 870.6 430.6 878.2 431.7C880.1 432 880.9 429.1 879 428.8C872.7 427.8 867.6 430.8 863.5 435.4C857.7 441.8 853 449.6 848 456.6C846.8 458.1 849.4 459.6 850.6 458.1Z" fill="#161616"/>
<path d="M859.1 460.3C863.4 455.2 867.6 450 871.9 444.9C874.4 441.9 884.4 426.4 888.6 435.6C889.7 437.9 887.9 442.6 887.1 444.9C886 447.9 884.4 450.7 882.9 453.5C879.5 459.7 876 465.8 871.6 471.3C870.4 472.8 872.5 474.9 873.7 473.4C879.2 466.4 883.8 458.6 887.8 450.6C890.3 445.6 894.2 436.5 890.3 431.2C886.4 425.9 879.7 431.1 876.7 434.5C869.9 442.2 863.5 450.3 857 458.2C855.8 459.6 857.9 461.7 859.1 460.3Z" fill="#161616"/>
<path d="M877.5 431.6C879 431.8 880.4 432.2 881.8 432.7C882.6 433 883.4 432.4 883.6 431.7C883.8 430.8 883.3 430.2 882.6 429.9C881 429.3 879.3 428.9 877.5 428.7C876.7 428.6 876 429.5 876 430.2C876 431 876.7 431.5 877.5 431.6Z" fill="#161616"/>
<path d="M878.8 467.4C881.1 464.5 885.6 466.5 886.5 469.7C886.9 471.1 886.9 472.8 886.6 474.2C885.9 477.5 883.8 480.4 881.5 482.8C877.4 487.2 872.5 491 867.3 494C856.9 500 845.1 503 833.2 503.9C831.3 504 831.3 507 833.2 506.9C851.2 505.6 868.9 499.4 882 486.6C886.8 481.9 891.6 475.3 889.2 468.2C887.4 462.8 880.6 460.3 876.7 465.2C875.4 466.8 877.6 468.9 878.8 467.4Z" fill="#161616"/>
<path opacity="0.08" d="M759.5 266.2C761.7 274.1 764.9 286.3 768.6 301.3C778.1 340.2 784.3 372.9 795.9 421.1C807.6 469.7 812 480.7 822.8 484.9C834.8 489.5 858.5 487.2 873.3 474.9C878 471 882.7 465.4 885.1 466.7C887.6 468.1 886.9 476.3 883.7 482.6C877.7 494.6 863.6 498.7 850 502.6C838.9 505.8 833.3 507.4 826.3 505.3C816 502.2 810.1 493.6 807.2 489.4C803.6 484.1 803 481 798.1 467.5C793.1 453.6 792.7 454 789 443.8C781.6 423.5 777.2 405.7 774.4 394.6C768.7 371.8 763.5 350.7 760.7 322.2C759.5 308 758.5 288.9 759.5 266.2Z" fill="#353535"/>
<path opacity="0.06" d="M805.5 478.8C808.3 481.7 821.5 494.8 842.8 495.6C867 496.5 882.4 480.7 884.7 478.3C882.1 482.7 877 489.7 868.3 495.1C862.8 498.6 858.1 500 852.8 501.5C839.1 505.5 830.2 508 821.8 504.2C809 498.5 806 481.6 805.5 478.8Z" fill="#353535"/>
<path d="M750.9 256.2C740.2 254.9 730.1 262.2 724.6 266.2C709.3 277.3 703.4 293 700.7 299.8C684.2 341.1 679.4 391.1 677.3 409.9C674.6 433.5 669.3 467.9 657.3 509.7C664.3 515.4 692 536.7 732.6 535.4C767.3 534.2 791 517.1 798.7 510.9C800.9 470.8 801.2 437 801 411.7C800.5 365.5 798.9 344.3 791.9 319.9C786.5 301.1 774.4 259 750.9 256.2Z" fill="#EC615B"/>
<path opacity="0.08" d="M742.4 259.3C732.4 269.1 756.3 307.3 760.2 316.2C778.2 357.2 786.5 423.5 743.5 534.5C749.4 533.4 756 531.8 763 529.3C777.6 524.3 789.1 517.5 797.5 511.5C798.2 504.2 799.1 494.4 799.8 482.8C800.9 464.3 801 449.1 800.9 436.3C800.7 397.3 800.6 377.8 797.5 351.9C795.9 339 792.4 314.9 780.8 287.6C773.9 271.5 766.8 260.3 755.5 257.7C754.1 257.3 746.3 255.5 742.4 259.3Z" fill="#353535"/>
<path opacity="0.05" d="M798.7 374.2C796.7 374 794.1 392.3 789.5 416.1C779.8 466.2 767.7 505.3 759.1 530.4C764.8 528.2 770.8 525.7 776.9 522.9C784.4 519.5 791.5 516 798.2 512.6C802.5 398 801 374.4 798.7 374.2Z" fill="#353535"/>
<path d="M728 270.8C724.8 269.5 721.8 269.7 720 270C717 273.6 712.3 279.3 706.6 286.3C681.5 317.6 679.3 324.9 661.8 344.9C645 364.1 633.4 373.1 624.8 378.9C615.1 385.4 607.9 388.7 605.7 389.7C589.8 396.8 575.4 399 565.9 399.8C563 398.4 558.8 396.1 554.6 392.3C549.2 387.3 546.7 382.5 544.1 378.1C534.2 361.4 531.5 356.6 527.8 356.7C526.5 356.7 524.4 357.4 521.8 361.3C520.8 360.6 519.1 359.3 517.2 357.6C512.5 353.4 511.2 350.9 507.3 349.2C505.6 348.5 503.4 347.5 501.5 348.6C499.6 349.7 499.2 352.3 499.1 352.9C497.4 351.1 493.3 347.4 487.5 347.1C485.9 347 483.6 346.9 482.5 348.3C480.8 350.3 482.4 355.1 486.6 360.1C485.6 359.8 480.8 358.2 478.8 360.4C476.6 362.7 478.9 367.8 480.4 371.1C483.4 377.8 487.3 381.2 495.4 390.2C498.7 393.9 501.3 396.9 503 398.8C501.3 398.6 498.6 398.2 495.6 397C491.1 395.2 489.6 393.1 487.6 393.7C485.4 394.4 484.2 398.1 484.6 401C485.1 404.3 488.2 406.3 490.1 407.4C501.6 414.4 515.8 417.9 520.2 419C531.1 421.7 536.6 423 540.7 423.5C547.8 424.4 554.9 424.8 565.5 424.3C594.9 422.9 617.8 416.9 622.7 415.6C633.3 412.8 642.6 410.3 654.3 405C665.2 400.1 689.2 389 710.2 363.9C721.7 350.2 726.6 338.9 736.5 316.4C737.7 313.6 740.1 308.1 740.5 300.7C741 290.3 738.1 274.8 728 270.8Z" fill="white"/>
<path d="M727.2 268.7C720.3 266.1 715.1 272.6 711.2 277.4C705.6 284.2 700.3 291.2 695 298.3C683.5 313.8 672.4 329.7 659.7 344.4C635.7 372.4 604.1 397.1 565.6 398C563.7 398 563.7 401 565.6 401C600.4 400.2 630.4 380.3 653.5 355.7C665.5 342.9 676.1 328.9 686.5 314.8C692 307.3 697.5 299.8 703.1 292.4C706.4 288.1 709.8 283.8 713.2 279.6C716.3 275.8 720.6 269.6 726.3 271.7C728.2 272.2 728.9 269.3 727.2 268.7Z" fill="#161616"/>
<path d="M738.8 298.4C725.6 389.2 621 430.6 539.1 421.4C525.7 419.9 512.1 416.8 499.8 411.1C496.7 409.7 493.6 408.1 490.8 406.2C489.6 405.4 488.4 404.7 487.5 403.6C485.2 401.9 485 400.1 486.7 398.1C486.9 395.4 488.2 394.6 490.7 395.6C495.6 396.7 498.7 400.9 504 401C505.9 401 505.9 398 504 398C498.6 397.9 495.1 392.8 489.8 392.4C486 392.1 482.8 394.2 482.3 398.1C481.3 407.3 495.2 412.4 501.8 415.2C526.3 425.4 553.7 426.8 579.8 424.6C628 420.5 677.1 403.1 709.7 366.1C726.3 347.2 738 324.2 741.6 299.2C742 297.3 739.1 296.5 738.8 298.4Z" fill="#161616"/>
<path d="M504.8 398.5C502.4 394.1 498.6 391.3 495.1 387.9C490.1 383 486 376.1 482.6 369.9C481.7 368.2 480.8 366.5 480.3 364.7C479 362.2 479.8 361.3 482.5 362.1C484.2 361.4 485.5 361.8 486.5 363.1C489 364.6 491.4 367.5 493.4 369.6C498.3 374.6 502.6 380.2 506.4 386.1C507.4 387.7 510 386.2 509 384.6C506 380 482.9 348 477.5 359.3C474.3 365.8 482.3 375.1 485.4 380.1C487.7 383.7 489.9 387.1 493 390.1C496.3 393.3 500 395.9 502.3 400.1C503.1 401.7 505.7 400.2 504.8 398.5Z" fill="#161616"/>
<path d="M490.5 361.7C489.2 360.4 479.5 348.5 485.7 347.8C487.1 347.6 490.7 350.6 491.9 351.4C493.9 352.8 495.9 354.4 497.7 356.2C504.3 362.3 509.5 369.7 514.6 377C515.7 378.6 518.3 377.1 517.2 375.5C509.5 364.6 500.7 351.2 488 345.6C484.9 344.2 480.7 344 480.3 348.3C479.8 353.8 484.7 360.4 488.3 363.9C489.8 365.2 491.9 363.1 490.5 361.7Z" fill="#161616"/>
<path d="M502.6 356.7C502.3 356.1 500.9 353.2 501.1 352.5C502.2 351.6 503.3 350.6 504.4 349.7C505.1 350.1 505.9 350.4 506.6 350.8C509.5 352.5 512 355 514.3 357.5C518.9 362.7 522.9 368.5 527.1 374C528.3 375.5 530.9 374 529.7 372.5C523.3 364.2 516.7 352.1 506.7 347.5C504.5 346.5 501.4 345.7 499.4 347.5C496.4 350.1 498.6 354.8 499.8 357.6C500.4 359.3 503.3 358.5 502.6 356.7Z" fill="#161616"/>
<path d="M524.1 363.1C523.3 360.6 522.6 360 525.8 359.7C528.6 359.5 528.7 360.1 530.4 361.9C532.5 364.3 534.4 366.8 536.3 369.3C539.5 373.7 542.5 378.3 545.8 382.8C550.9 389.7 557.6 399.4 566.8 400.7C568.7 401 569.5 398.1 567.6 397.8C559.3 396.6 553 387.6 548.4 381.3C544.2 375.6 540.3 369.5 536 363.9C533.5 360.8 529.7 354.4 525 354.6C520 354.8 520.3 360.5 521.4 363.9C521.8 365.7 524.7 364.9 524.1 363.1Z" fill="#161616"/>
<path opacity="0.08" d="M738.4 281.8C736 281.1 732.1 291.3 724.6 304.5C712.3 326.3 699.9 340.6 686.8 353.6C655.7 384.4 640.1 399.9 612.9 408C603.2 410.9 558.4 422.9 517 397C497.4 384.7 486.1 368.6 480.4 358.8C479.4 359.8 478.2 361.3 478 363.3C477.6 366.2 479.5 368.4 481.7 371.4C484.7 375.7 484.9 376.8 486 379C486 379 486.9 380.6 488.2 382.4C491.6 387.1 503.6 398 502.8 399.1C502.5 399.5 500.2 398.4 495.5 396.3C490.9 394.2 490.1 393.6 488.6 393.9C485.9 394.4 483.2 397.4 483.3 400.4C483.4 403.1 485.7 404.9 487.8 406.5C490.2 408.4 492.5 409.1 493.1 409.3C501.9 412.3 504.1 414.3 511.8 416.6C534.3 423.3 559.7 423.9 559.7 423.9C597 424.8 625.6 415.4 631.6 413.3C644 409.1 668.3 400.6 692.9 379.6C705.1 369.2 723.7 353 733.5 326C741 305.5 741.8 282.7 738.4 281.8Z" fill="#353535"/>
<path opacity="0.06" d="M504.4 412.2C520.4 415.7 539.9 418.3 562.1 417.9C616.4 416.9 658.3 398.1 681.9 385C669.3 395.4 648 410.3 618.1 418.7C565.2 433.6 520.5 418.5 504.4 412.2Z" fill="#353535"/>
<path d="M668 133C667.9 133.2 664.4 139.1 657.5 151C649.5 164.7 646.2 170.4 642.9 178.5C640.6 184.2 639.1 188.9 638.2 192.1C642.6 193.9 647 195.7 651.4 197.5C652.6 207.3 655.5 214.8 657.8 219.5C661.5 227.1 666.8 238.2 678.8 243.6C680.6 244.4 686 246.7 693.4 246.7C702.6 246.7 709.4 243.1 712.4 241.3C713 245.1 714.2 249.9 716.5 255.2C718.4 259.7 720.6 263.3 722.6 266.1C732 262.5 741.4 258.9 750.7 255.2C748.1 251.3 744.7 245.1 742.6 236.9C741.9 234.1 740.3 227.1 740.9 217.2C741.6 205.1 745 198.8 748.7 187.4C754.4 169.6 757.8 159.2 756.2 148.1C754.1 133.7 743.3 117.1 726.7 111.1C702.9 102.4 678.2 119.3 668 133Z" fill="white"/>
<path d="M651.4 144.6C645.2 142.2 643.8 130 645 121.9C645.4 119.2 646.9 111.2 654.2 103.2C664.1 92.3001 674.6 92.4001 689.8 85.9001C698.2 82.3001 710.2 75.8001 723 63.2001C721.1 68.9001 719.2 74.5001 717.2 80.2001C720.1 80.4001 727.3 80.7001 734.8 76.5001C744.1 71.4001 747.7 63.0001 748.7 60.6001C750.3 63.1001 756.9 74.0001 753.4 86.4001C752.4 89.9001 750.8 92.7001 749.3 94.9001C754.5 93.5001 761.8 90.8001 768 84.7001C774.8 78.0001 775.7 71.9001 778.5 72.2001C783.9 72.7001 785.9 94.7001 787 106.8C787.7 114.8 788.8 120.4 786.7 127.1C784.8 133.3 781.2 138 781.6 138.3C782.3 138.7 792.4 122.1 795.2 123.4C796.9 124.2 793.9 130.6 792.8 142.7C791.5 157.5 794.5 160.3 791.8 170.8C790.2 176.9 787.9 181.2 785.4 186.1C782.3 191.8 778.5 199 771.5 205.4C765 211.4 757 218.7 747.1 217.3C734.2 215.4 728.2 200.1 727.8 199C728.9 199 738.8 198.5 743.7 190.9C749.9 181.2 743.7 166.8 736.6 164.4C731.4 162.6 727.3 167.9 722.4 165.4C718.4 163.4 717.9 158.5 716.3 153.9C714.2 147.8 709.6 139.7 698.3 131.5C691.2 131.2 680.7 131.8 669.8 136.9C660.2 141.2 656.1 146.4 651.4 144.6Z" fill="#5222D0"/>
<path d="M650.5 161.7C645.3 169.7 641 178.2 638 187.3C637.3 189.4 636.1 191.6 637.6 193.4C638.7 194.7 641.4 195.1 642.9 195.7C645.4 196.6 647.9 197.6 650.4 198.5C652.2 199.2 653 196.3 651.2 195.6C649.5 195 647.9 194.4 646.2 193.7C645.2 193.3 641.9 192.6 641.2 191.8C639.1 189.7 642.1 184.5 643 182.3C645.7 175.6 649.1 169.3 653.1 163.2C654.2 161.6 651.6 160.1 650.5 161.7Z" fill="#161616"/>
<path d="M649.8 197.4C655.3 216.6 662.2 238 681.8 247.1C683.5 247.9 685.1 245.3 683.3 244.5C664.5 235.7 658 215.1 652.7 196.6C652.1 194.7 649.2 195.5 649.8 197.4Z" fill="#161616"/>
<path d="M682.3 247.4C699.8 251.3 719.4 241.9 731.1 229.4C732.4 228 730.3 225.9 729 227.3C718 239 699.5 248.2 683.1 244.5C681.2 244 680.4 246.9 682.3 247.4Z" fill="#161616"/>
<path d="M711 242C712.2 250.8 715.4 258.7 720.9 265.7C722.1 267.2 724.2 265.1 723 263.6C718.1 257.3 715.1 249.9 714 242C713.8 240.1 710.8 240.1 711 242Z" fill="#161616"/>
<path d="M739.6 229.1C740.2 239 743.8 248 750.2 255.6C751.4 257.1 753.6 254.9 752.3 253.5C746.4 246.5 743.1 238.2 742.5 229.1C742.4 227.2 739.4 227.2 739.6 229.1Z" fill="#161616"/>
<path d="M724.8 169.3C727.7 164.9 733.2 164.3 737.5 167.1C741.4 169.6 743.3 174.4 743.6 178.8C744.1 185.9 739.5 200.3 729.5 196C727.7 195.2 726.2 197.8 728 198.6C741 204.2 747.9 187.1 746.4 176.8C745.5 170.9 742.1 165.1 736.2 163.1C730.9 161.2 725.4 163.2 722.3 167.8C721.1 169.4 723.7 170.9 724.8 169.3Z" fill="#161616"/>
<path d="M713.7 246C719.5 242.3 724.5 237.8 728.8 232.5C730 231 727.9 228.9 726.7 230.4C722.6 235.5 717.7 239.9 712.2 243.5C710.6 244.5 712.1 247.1 713.7 246Z" fill="#161616"/>
<path d="M659 217.2C665.9 217.8 672.8 215.3 677.6 210.2C680.7 206.8 681.9 201.1 675.6 201.3C674 201.4 673.5 203.8 675.2 204.2C677.5 204.8 679.4 205.7 681.3 207.3C682.8 208.5 684.9 206.4 683.4 205.2C681.1 203.3 678.9 202.1 676 201.4C675.9 202.4 675.7 203.4 675.6 204.3C679 204.2 674.5 209.1 674.1 209.5C672.5 210.9 670.8 211.9 668.9 212.7C665.7 214.1 662.5 214.5 659 214.2C657.1 214.1 657.1 217.1 659 217.2Z" fill="#161616"/>
<path d="M672.2 172C670.5 169 669.9 165.7 670.7 162.4C670 162.7 669.2 163 668.5 163.3C671.2 165.4 670.6 169.3 670.2 172.2C671.1 172.1 672 172 672.9 171.8C671.7 170.1 671.1 168.3 671.1 166.2C671.1 164.3 668.1 164.3 668.1 166.2C668.1 168.8 668.8 171.2 670.3 173.3C671 174.2 672.8 174.3 673 172.9C673.7 168.4 673.9 163.7 669.9 160.6C669.1 160 667.9 160.6 667.7 161.5C666.7 165.6 667.3 169.8 669.5 173.4C670.6 175.2 673.2 173.7 672.2 172Z" fill="#161616"/>
<path d="M666.2 150.8C671.1 145 678.2 149.4 680.8 154.9C681.6 156.6 684.2 155.1 683.4 153.4C680 146.2 670.2 141.6 664.1 148.7C662.8 150.2 664.9 152.3 666.2 150.8Z" fill="#161616"/>
<path opacity="0.07" d="M714.4 149.1C714.8 151.4 715.3 155 716.1 159.2C718.3 171.1 720.2 177.9 720.9 181.1C723.5 193.3 720.1 212.1 707.7 224.4C694 237.9 675.3 237.6 670.6 237.4C672.7 239.9 676 243.1 680.8 245.2C695.4 251.6 710.2 242.3 711.8 241.2C711.6 247.7 713 249.9 714.4 250.6C718.7 252.5 728.3 243.6 732.5 234C737 223.6 734.7 213.6 733.5 209.5C727.9 201.8 727.6 199.1 728.4 198.2C729.6 196.9 732.9 199.3 736.6 198C740.5 196.5 742.1 191.8 743.1 188.9C744.4 185 747.9 174.4 741.4 168.2C737.3 164.3 730.6 163.6 724.3 165.8C723 165.6 721.3 165 720 163.6C718.3 161.8 718.3 159.7 717.4 156.1C716.8 154.3 716 151.9 714.4 149.1Z" fill="#353535"/>
<path opacity="0.1" d="M728.4 216.7C727.6 225.3 725.5 232.3 723.6 237.4C727.1 236.4 730.7 235.3 734.2 234.3C737.2 242.2 740.1 250.2 743.1 258.1C745.3 257 747.4 255.9 749.6 254.7C747.1 249.1 744.6 242.2 742.6 234.2C740.9 227.4 740 221.1 739.5 215.7C737.8 214 735.8 211.9 734 209.2C730.9 204.7 729.1 200.5 728 197.2C728.6 202.3 729.1 209 728.4 216.7Z" fill="#353535"/>
<path opacity="0.13" d="M785 91.2998C783.6 91.2998 784.5 105.1 778.6 121.9C776.1 129 771.5 141.6 759.7 152.2C751.3 159.7 742.6 163.4 737.1 165.2C738.6 166.1 741 167.8 742.8 170.7C747.2 177.7 744.4 185.6 743.6 187.9C742.5 191.1 741 195.3 736.8 197.5C732.9 199.5 728.9 198.7 727.5 198.3C727.8 199.2 734.1 215.8 747.2 217.2C752.7 217.8 757.2 215.4 760.6 213.6C769.5 209 774 202.1 779.5 193.6C786.8 182.3 791.9 174.3 792.6 163C793.1 154.1 790.4 151.8 792.3 143.3C792.9 140.6 794.5 135.2 794.2 127.7C794.1 126.1 794 124.8 793.9 123.9C789.8 128.6 785.7 133.4 781.6 138.1C783 135.4 784.8 131.2 786 125.8C787.3 119.9 787.1 115.3 786.8 107.7C786.7 103.4 786.3 91.2998 785 91.2998Z" fill="#353535"/>
</svg>
