<svg width="1372" height="1005" viewBox="0 0 1372 1005" fill="none" xmlns="http://www.w3.org/2000/svg">
<path d="M1211 907.109C1201.4 882.709 1200 856.009 1207.1 830.809C1206.4 831.109 1205.6 831.409 1204.9 831.709C1206.7 832.909 1208.4 834.209 1210.2 835.409C1210.9 835.909 1212.3 835.409 1212.4 834.509C1219 788.009 1238.4 744.009 1268.4 707.809C1267.6 707.609 1266.7 707.409 1265.9 707.109C1282.3 775.809 1262 846.309 1237.2 910.309C1236.5 912.109 1239.4 912.909 1240.1 911.109C1265.1 846.509 1285.3 775.609 1268.8 706.309C1268.6 705.309 1267 704.809 1266.3 705.609C1236.1 742.209 1216.3 786.709 1209.6 833.709C1210.3 833.409 1211.1 833.109 1211.8 832.809C1210 831.609 1208.3 830.309 1206.5 829.109C1205.7 828.509 1204.5 829.109 1204.3 830.009C1197.1 855.709 1198.4 883.109 1208.2 907.909C1208.8 909.709 1211.7 908.909 1211 907.109Z" fill="#E8E8E8"/>
<path d="M1273.4 776.209C1279.7 760.909 1287.6 746.409 1296.9 732.609C1296.2 732.809 1295.5 733.009 1294.8 733.109C1296 734.009 1297.3 734.909 1298.5 735.709C1299.2 736.209 1300.2 735.809 1300.6 735.209C1309.3 719.509 1319.5 704.709 1331.2 691.109C1330.4 691.009 1329.6 690.909 1328.8 690.809C1344.2 717.309 1332.5 750.009 1323.1 776.509C1312.9 805.609 1300.2 833.809 1284.4 860.209C1275.4 875.209 1265.4 889.609 1254.4 903.109C1253.2 904.609 1255.3 906.709 1256.5 905.209C1276.7 880.409 1293.3 853.109 1306.8 824.209C1313.5 809.909 1319.4 795.309 1324.8 780.509C1330.1 765.809 1335.3 750.809 1337.7 735.309C1340.2 719.509 1339.4 703.309 1331.3 689.209C1330.8 688.409 1329.6 688.209 1328.9 688.909C1317.1 702.809 1306.7 717.709 1297.8 733.609C1298.5 733.409 1299.2 733.209 1299.9 733.109C1298.7 732.209 1297.4 731.309 1296.2 730.509C1295.5 730.009 1294.6 730.409 1294.1 731.009C1284.7 744.909 1276.8 759.709 1270.3 775.309C1269.8 777.209 1272.7 778.009 1273.4 776.209Z" fill="#E8E8E8"/>
<path d="M1264.3 708.809C1251.1 769.909 1231 829.409 1221.5 891.209C1221.2 893.109 1224.1 893.909 1224.4 892.009C1233.9 830.109 1254 770.609 1267.2 709.609C1267.6 707.709 1264.7 706.909 1264.3 708.809Z" fill="#E8E8E8"/>
<path d="M1329.6 691.509C1319.3 754.309 1288.7 810.809 1258.5 865.909C1257.6 867.609 1260.2 869.109 1261.1 867.409C1291.4 812.009 1322.1 755.309 1332.5 692.309C1332.8 690.409 1329.9 689.609 1329.6 691.509Z" fill="#E8E8E8"/>
<path d="M1223.3 782.309C1230.4 793.309 1235.1 805.509 1237.1 818.509C1237.4 820.409 1240.3 819.609 1240 817.709C1238 804.509 1233.2 792.009 1225.9 780.809C1224.8 779.209 1222.2 780.709 1223.3 782.309Z" fill="#E8E8E8"/>
<path d="M1244.3 800.509C1254.4 785.009 1264.5 769.409 1274.6 753.909C1275.7 752.309 1273.1 750.809 1272 752.409C1261.9 767.909 1251.8 783.509 1241.7 799.009C1240.6 800.609 1243.2 802.109 1244.3 800.509Z" fill="#E8E8E8"/>
<path d="M1284.5 747.809C1284.1 768.609 1285.6 789.309 1288.8 809.809C1289.1 811.709 1292 810.909 1291.7 809.009C1288.5 788.709 1287.1 768.309 1287.5 747.809C1287.6 745.809 1284.6 745.809 1284.5 747.809Z" fill="#E8E8E8"/>
<path d="M1313.5 760.809C1321.7 752.509 1329.7 743.809 1337.3 734.909C1338.5 733.409 1336.4 731.309 1335.2 732.809C1327.6 741.709 1319.7 750.309 1311.4 758.709C1310 760.109 1312.1 762.209 1313.5 760.809Z" fill="#E8E8E8"/>
<path d="M127.303 855.209C105.503 839.709 90.403 816.209 85.303 789.909C85.003 790.509 84.603 791.109 84.303 791.709C86.703 791.009 88.903 791.609 90.703 793.409C92.003 794.709 93.703 793.109 93.103 791.609C79.803 761.609 72.803 729.109 72.703 696.309C72.303 696.809 72.003 697.309 71.603 697.709C72.603 698.209 73.703 698.809 74.703 699.309C75.403 700.509 77.603 700.109 77.503 698.509C76.803 689.809 76.103 681.109 75.403 672.409C74.803 664.709 73.903 656.609 78.903 650.109C78.203 650.309 77.503 650.509 76.803 650.609C83.803 655.609 87.903 663.709 92.003 671.009C96.003 678.209 99.803 685.609 103.403 693.009C110.903 708.609 117.303 724.709 122.603 741.209C133.103 773.409 139.403 806.809 141.503 840.609C141.603 842.509 144.603 842.509 144.503 840.609C142.303 805.409 135.603 770.509 124.403 737.009C118.903 720.609 112.403 704.609 104.803 689.109C100.903 681.109 96.803 673.309 92.403 665.609C88.603 658.909 84.703 652.509 78.303 647.909C77.603 647.409 76.703 647.809 76.203 648.409C71.703 654.309 71.603 661.709 72.003 668.909C72.703 678.709 73.603 688.509 74.403 698.409C75.303 698.109 76.303 697.909 77.203 697.609C75.703 695.009 73.603 694.209 70.703 694.609C70.103 694.709 69.603 695.409 69.603 696.009C69.803 729.409 76.903 762.309 90.403 792.809C91.203 792.209 92.003 791.609 92.803 791.009C90.203 788.309 87.003 787.509 83.503 788.509C82.703 788.709 82.303 789.509 82.503 790.309C87.803 817.409 103.403 841.409 125.803 857.409C127.403 858.909 128.903 856.309 127.303 855.209Z" fill="#E8E8E8"/>
<path d="M118.303 718.409C117.403 712.709 116.703 707.009 116.403 701.309C116.103 696.009 114.603 688.109 118.603 683.909C120.903 681.609 122.003 680.509 122.503 677.009C123.203 671.409 123.203 665.709 123.803 660.109C125.003 648.409 126.703 636.909 129.103 625.409C129.503 623.509 129.703 619.909 130.703 618.209C133.103 614.309 136.803 618.409 138.703 620.309C142.103 623.709 144.803 627.709 147.103 631.909C156.703 649.509 159.303 671.209 161.903 690.809C164.803 712.609 166.003 734.609 165.403 756.609C164.803 781.609 161.403 806.509 152.803 830.109C152.103 831.909 155.003 832.709 155.703 830.909C172.403 784.809 170.903 732.509 164.003 684.709C161.103 664.409 158.003 641.309 145.703 624.109C143.003 620.409 134.803 608.609 129.503 613.909C126.703 616.609 126.503 622.909 125.803 626.409C124.503 633.009 123.303 639.609 122.403 646.309C121.503 652.809 120.803 659.309 120.203 665.809C119.903 669.309 120.203 673.309 119.403 676.709C118.603 680.009 116.203 681.009 114.603 683.609C112.003 687.609 113.003 693.909 113.203 698.409C113.503 705.309 114.303 712.209 115.403 719.109C115.703 721.109 118.603 720.309 118.303 718.409Z" fill="#E8E8E8"/>
<path d="M130.403 616.109C146.503 678.509 151.003 743.409 143.703 807.409C143.503 809.309 146.503 809.309 146.703 807.409C154.003 743.109 149.403 677.909 133.303 615.309C132.803 613.509 129.903 614.309 130.403 616.109Z" fill="#E8E8E8"/>
<path d="M74.7029 650.009C98.2029 710.109 116.503 772.109 129.603 835.309C130.003 837.209 132.903 836.409 132.503 834.509C119.503 771.309 101.103 709.309 77.6029 649.209C76.8029 647.409 73.9029 648.209 74.7029 650.009Z" fill="#E8E8E8"/>
<path d="M75.2029 742.009C91.6029 746.609 105.203 757.409 113.503 772.309C114.403 774.009 117.003 772.509 116.103 770.809C107.403 755.309 93.0029 744.009 76.0029 739.209C74.1029 738.609 73.3029 741.509 75.2029 742.009Z" fill="#E8E8E8"/>
<path d="M108.403 703.209C106.603 718.709 106.303 734.209 107.503 749.709C107.603 751.609 110.603 751.609 110.503 749.709C109.303 734.209 109.603 718.709 111.403 703.209C111.603 701.309 108.603 701.309 108.403 703.209Z" fill="#E8E8E8"/>
<path d="M119.003 683.209C132.603 700.909 142.103 721.309 146.903 743.109C147.303 745.009 150.203 744.209 149.803 742.309C144.903 720.309 135.403 699.609 121.603 681.709C120.503 680.109 117.903 681.609 119.003 683.209Z" fill="#E8E8E8"/>
<path d="M153.803 647.209C148.803 658.809 145.303 670.809 143.403 683.309C143.103 685.209 146.003 686.009 146.303 684.109C148.103 671.909 151.503 660.109 156.403 648.709C157.203 647.009 154.603 645.409 153.803 647.209Z" fill="#E8E8E8"/>
<path d="M22.5029 926.709C76.7029 907.609 134.503 922.809 188.903 932.509C247.003 942.809 305.703 949.609 364.503 952.709C397.803 954.509 431.103 955.109 464.503 954.509C466.403 954.509 466.403 951.509 464.503 951.509C404.403 952.509 344.203 949.709 284.403 943.209C254.003 939.909 223.703 935.609 193.603 930.309C166.703 925.609 139.903 919.809 112.803 916.609C82.3028 913.109 51.0029 913.509 21.7029 923.809C19.9029 924.509 20.7029 927.409 22.5029 926.709Z" fill="#E8E8E8"/>
<path d="M336.603 924.209C426.303 946.209 519.203 940.409 610.203 932.009C657.003 927.709 703.703 922.609 750.603 920.109C797.403 917.609 844.103 918.409 890.803 923.009C945.103 928.409 998.803 938.309 1052.2 949.509C1054.1 949.909 1054.9 947.009 1053 946.609C960.203 927.109 866.503 912.809 771.503 916.209C678.503 919.509 586.303 934.809 493.203 936.509C440.903 937.509 388.403 933.809 337.503 921.309C335.503 920.809 334.703 923.709 336.603 924.209Z" fill="#E8E8E8"/>
<path d="M728.503 987.709C802.103 972.509 877.003 986.909 950.303 996.609C1023.2 1006.21 1096.6 1007.81 1169.6 998.509C1210 993.409 1249.9 985.209 1289 974.209C1290.9 973.709 1290.1 970.809 1288.2 971.309C1217.3 991.309 1143.8 1001.71 1070.1 1002.01C1033.5 1002.11 997.103 999.609 960.803 995.009C923.703 990.309 886.803 984.209 849.603 980.709C808.903 976.909 767.803 976.509 727.603 984.909C725.803 985.209 726.603 988.109 728.503 987.709Z" fill="#E8E8E8"/>
<path d="M1058.6 911.109C1096 925.009 1136.2 916.809 1173.7 907.809C1215.2 897.909 1256.5 889.709 1299.2 887.309C1322.9 886.009 1346.7 886.209 1370.4 887.709C1372.3 887.809 1372.3 884.809 1370.4 884.709C1329.2 882.009 1287.9 883.609 1247 889.509C1226.6 892.509 1206.4 896.709 1186.4 901.609C1166.5 906.409 1146.5 911.509 1126.1 914.009C1103.6 916.809 1080.8 916.109 1059.4 908.109C1057.6 907.609 1056.8 910.509 1058.6 911.109Z" fill="#E8E8E8"/>
<path d="M1028.3 590.909C1025.4 599.909 1022.4 608.809 1019.5 617.809C1018.8 620.109 1018.1 622.309 1018.8 624.709C1019.8 627.909 1023.2 629.809 1023.3 633.409C1023.9 632.909 1024.6 632.409 1025.2 632.009C1013.4 628.509 1013.8 647.309 1014.2 653.909C1014.9 667.009 1019.1 679.609 1026.1 690.609C1027.1 692.209 1029.7 690.709 1028.7 689.109C1023.7 681.309 1020.2 672.709 1018.4 663.609C1017.4 658.709 1013.9 631.709 1024.4 634.809C1025.3 635.109 1026.3 634.309 1026.3 633.409C1026.3 631.009 1025.4 629.409 1024 627.509C1021.4 623.809 1021.6 621.109 1023 616.809C1025.7 608.409 1028.5 600.109 1031.2 591.709C1031.8 589.809 1028.9 589.009 1028.3 590.909Z" fill="#E8E8E8"/>
<path d="M1029.3 591.309C1040.6 602.809 1043.4 621.509 1044.3 636.909C1045.3 653.509 1042.9 670.109 1037.6 685.809C1037 687.609 1039.9 688.409 1040.5 686.609C1046.3 669.509 1048.7 651.309 1047.1 633.309C1045.8 618.009 1042.6 600.509 1031.5 589.109C1030 587.809 1027.9 589.909 1029.3 591.309Z" fill="#E8E8E8"/>
<path d="M1047.2 635.809C1049.2 622.409 1052.6 609.409 1057.3 596.709C1056.6 597.009 1055.8 597.309 1055.1 597.609C1057.2 599.009 1059.3 600.509 1061.4 601.909C1062.4 602.609 1063.6 601.709 1063.7 600.609C1064.6 578.309 1082 561.209 1086.7 540.009C1085.7 540.009 1084.8 540.009 1083.8 540.009C1091.8 588.209 1081.7 638.409 1055.7 679.809C1054.7 681.409 1057.3 682.909 1058.3 681.309C1084.7 639.209 1094.8 588.209 1086.7 539.209C1086.5 537.709 1084.1 537.809 1083.8 539.209C1079 560.809 1061.6 577.909 1060.7 600.609C1061.5 600.209 1062.2 599.709 1063 599.309C1060.9 597.909 1058.8 596.409 1056.7 595.009C1055.8 594.409 1054.8 595.109 1054.5 595.909C1049.8 608.609 1046.4 621.609 1044.4 635.009C1044 636.909 1046.9 637.709 1047.2 635.809Z" fill="#E8E8E8"/>
<path d="M1083.5 546.209C1080.3 583.109 1070.3 619.109 1054 652.309C1053.2 654.009 1055.7 655.509 1056.6 653.809C1073.1 620.009 1083.3 583.609 1086.5 546.209C1086.6 544.209 1083.6 544.309 1083.5 546.209Z" fill="#E8E8E8"/>
<path d="M1027.9 593.709C1032 623.509 1035.9 653.909 1029.6 683.609C1029.2 685.509 1032.1 686.309 1032.5 684.409C1039 654.109 1035 623.209 1030.8 592.909C1030.6 591.009 1027.7 591.809 1027.9 593.709Z" fill="#E8E8E8"/>
<path d="M882.603 693.909C898.003 692.709 913.503 693.809 928.503 697.509C941.203 700.609 953.803 707.009 967.103 705.009C980.803 702.909 992.303 693.809 1006.4 693.309C1020 692.809 1033.4 697.509 1046.8 693.609C1048.7 693.109 1047.9 690.209 1046 690.709C1032 694.709 1017.9 689.209 1003.8 690.509C991.003 691.709 980.303 699.409 967.903 701.909C953.603 704.709 939.403 696.909 925.603 693.909C911.403 690.809 896.903 689.909 882.503 691.109C880.703 691.009 880.703 694.009 882.603 693.909Z" fill="#E8E8E8"/>
<path d="M0.502929 834.109C28.1029 859.909 68.1029 832.009 99.8029 842.309C101.603 842.909 102.403 840.009 100.603 839.409C83.7029 833.909 66.4029 838.209 49.4029 840.809C33.5029 843.209 15.2029 843.609 2.60293 831.909C1.20293 830.709 -0.997071 832.809 0.502929 834.109Z" fill="#E8E8E8"/>
<path d="M1190.4 870.609C1027.5 880.909 855.503 887.209 675.103 888.109C493.403 889.009 320.103 884.309 156.103 875.609C172.203 847.309 188.403 819.109 204.703 791.009C217.803 768.309 231.103 745.709 244.403 723.209C385.403 731.209 537.803 734.409 700.103 730.409C853.003 726.609 996.803 716.809 1130.3 703.109C1142.6 720.409 1156.8 743.809 1168.4 773.309C1183.4 811.609 1188.6 845.909 1190.4 870.609Z" fill="white" stroke="#161616" stroke-width="3"/>
<path d="M231.603 855.209C288.403 861.309 345.603 863.209 402.803 860.909C404.703 860.809 404.703 857.809 402.803 857.909C345.703 860.209 288.503 858.309 231.603 852.209C229.703 852.009 229.703 855.009 231.603 855.209Z" fill="#161616"/>
<path d="M332.703 840.809C360.403 841.909 388.203 841.209 415.903 841.209C444.003 841.109 472.003 841.109 500.103 841.009C502.003 841.009 502.003 838.009 500.103 838.009C472.003 838.109 444.003 838.109 415.903 838.209C388.203 838.309 360.403 838.909 332.703 837.809C330.803 837.709 330.803 840.709 332.703 840.809Z" fill="#161616"/>
<path d="M702.403 833.509C787.103 828.109 871.703 821.709 956.303 814.309C958.203 814.109 958.203 811.109 956.303 811.309C871.803 818.709 787.103 825.109 702.403 830.509C700.503 830.609 700.503 833.609 702.403 833.509Z" fill="#161616"/>
<path d="M923.203 782.109C988.803 779.709 1054.3 775.609 1119.7 769.509C1121.6 769.309 1121.6 766.309 1119.7 766.509C1054.3 772.509 988.803 776.709 923.203 779.109C921.303 779.109 921.303 782.109 923.203 782.109Z" fill="#161616"/>
<path d="M980.603 846.309C1035.7 843.909 1090.8 841.509 1145.9 839.009C1147.8 838.909 1147.8 835.909 1145.9 836.009C1090.8 838.409 1035.7 840.809 980.603 843.309C978.703 843.409 978.703 846.409 980.603 846.309Z" fill="#161616"/>
<path d="M253.603 719.609C256.103 724.309 258.603 729.009 261.203 733.809C263.503 735.309 271.303 739.909 281.103 738.109C285.203 737.409 288.403 735.809 290.503 734.509C293.303 729.609 296.103 724.709 298.903 719.809C293.403 718.109 285.303 716.109 275.303 716.209C266.203 716.309 258.803 718.009 253.603 719.609Z" fill="white" stroke="#161616" stroke-width="3"/>
<path d="M255.303 721.309C264.303 726.909 277.203 725.609 287.303 725.009C289.203 724.909 289.203 721.909 287.303 722.009C277.803 722.509 265.303 724.009 256.803 718.709C255.203 717.709 253.703 720.309 255.303 721.309Z" fill="#161616"/>
<path d="M232.003 653.909C240.503 675.909 249.003 697.909 257.403 719.909C258.103 721.709 261.003 720.909 260.303 719.109C251.803 697.109 243.303 675.109 234.903 653.109C234.203 651.309 231.303 652.009 232.003 653.909Z" fill="#161616"/>
<path d="M244.803 654.409C249.203 676.909 254.403 699.309 260.303 721.509C260.803 723.409 263.703 722.609 263.203 720.709C257.203 698.509 252.003 676.109 247.703 653.609C247.303 651.709 244.403 652.509 244.803 654.409Z" fill="#161616"/>
<path d="M232.603 642.709C231.103 637.909 235.103 633.409 234.003 628.409C232.703 623.109 227.503 620.909 228.103 614.809C228.503 610.609 230.603 606.609 229.903 602.309C229.403 599.609 227.703 598.009 226.503 595.609C225.103 592.609 225.703 589.809 226.503 586.709C227.303 583.209 228.603 579.409 227.203 575.809C226.503 573.909 225.103 573.009 223.903 571.509C221.103 568.209 221.503 564.809 222.203 560.809C224.403 548.409 224.503 536.509 221.303 524.209C220.803 522.309 217.903 523.109 218.403 525.009C220.203 532.009 221.203 539.109 221.003 546.309C220.803 552.409 219.203 558.109 218.703 564.109C218.303 569.009 219.903 571.109 222.903 574.609C226.803 579.309 223.503 584.709 222.803 590.009C222.603 591.709 222.603 593.509 223.103 595.209C223.903 598.009 226.403 599.909 226.903 602.909C227.703 607.709 224.703 612.409 225.003 617.209C225.403 622.409 230.803 625.109 231.203 630.109C231.603 634.809 228.203 638.609 229.703 643.509C230.303 645.309 233.203 644.509 232.603 642.709Z" fill="#E8E8E8"/>
<path d="M247.103 640.409C244.003 637.509 247.903 634.509 246.803 631.109C246.203 629.209 244.203 627.809 244.103 625.709C244.003 623.809 245.303 621.709 245.603 619.809C246.103 616.209 244.203 614.509 243.303 611.209C242.103 606.709 244.803 601.709 245.603 597.309C246.203 593.909 245.903 591.009 244.703 587.809C243.703 585.209 242.703 583.009 242.903 580.209C243.103 577.909 244.103 575.809 244.603 573.609C246.603 565.609 239.503 557.109 242.903 549.709C243.703 548.009 241.103 546.409 240.303 548.209C236.303 556.709 243.703 564.809 241.503 573.609C240.403 578.009 239.103 581.209 240.603 585.709C241.503 588.209 242.803 590.609 242.903 593.409C243.103 596.209 242.103 598.909 241.403 601.509C240.503 604.909 239.503 608.509 240.403 612.009C241.203 614.909 243.103 617.109 242.403 620.309C242.003 621.909 241.303 623.409 241.203 625.109C241.103 626.709 241.303 627.909 242.103 629.309C242.503 630.009 243.703 631.109 243.803 631.609C244.003 632.409 243.303 634.009 243.103 634.709C242.403 637.809 242.603 640.109 245.003 642.409C246.403 643.809 248.503 641.709 247.103 640.409Z" fill="#E8E8E8"/>
<path d="M112.303 188.109C132.103 194.309 153.103 193.909 173.603 193.509C193.203 193.109 212.703 191.809 232.103 189.809C270.803 185.709 309.103 178.409 346.703 168.309C422.803 147.909 495.703 116.309 563.803 76.909C602.403 54.609 639.403 29.809 674.903 2.90897C676.403 1.70897 674.903 -0.891034 673.403 0.308966C611.303 47.409 544.303 88.209 473.103 120.009C401.703 151.909 325.903 174.909 248.203 184.909C226.903 187.709 205.403 189.509 183.903 190.209C160.503 191.009 135.803 192.309 113.203 185.209C111.303 184.709 110.503 187.509 112.303 188.109Z" fill="#E8E8E8"/>
<path d="M630.203 34.909C656.903 58.009 688.403 74.509 720.803 88.209C755.603 102.909 791.603 115.109 828.203 124.509C900.603 143.309 975.703 151.709 1050.4 149.409C1093 148.109 1137.5 145.209 1178.2 131.609C1180 131.009 1179.2 128.109 1177.4 128.709C1141.2 140.909 1102.1 144.009 1064.2 145.909C1027.5 147.709 990.703 146.909 954.203 143.509C880.303 136.709 807.403 119.409 738.403 92.109C700.703 77.209 663.403 59.509 632.503 32.809C630.803 31.509 628.703 33.609 630.203 34.909Z" fill="#E8E8E8"/>
<path d="M229.203 86.009C265.903 107.209 309.603 112.409 351.003 116.809C393.603 121.309 436.603 122.509 479.503 120.609C564.103 116.809 648.303 100.809 728.303 73.109C773.403 57.509 817.103 38.209 859.003 15.509C860.703 14.609 859.203 12.009 857.503 12.909C783.803 53.009 704.203 82.109 622.103 99.509C539.803 116.909 454.903 122.509 371.003 115.709C347.203 113.809 323.303 111.109 299.803 106.809C275.703 102.409 252.003 95.809 230.703 83.509C229.103 82.509 227.603 85.109 229.203 86.009Z" fill="#E8E8E8"/>
<path d="M352.403 150.909C352.403 163.309 352.403 175.809 352.403 188.209C352.403 190.109 355.403 190.109 355.403 188.209C355.403 175.809 355.403 163.309 355.403 150.909C355.403 148.909 352.403 148.909 352.403 150.909Z" fill="#161616"/>
<path d="M353.303 212.809C353.303 227.409 353.303 241.909 353.303 256.509C353.303 258.409 356.303 258.409 356.303 256.509C356.303 241.909 356.303 227.409 356.303 212.809C356.303 210.909 353.303 210.809 353.303 212.809Z" fill="#161616"/>
<path d="M404.303 253.809C404.303 272.009 404.303 290.209 404.303 308.409C404.303 310.309 407.303 310.309 407.303 308.409C407.303 290.209 407.303 272.009 407.303 253.809C407.303 251.809 404.303 251.809 404.303 253.809Z" fill="#161616"/>
<path d="M402.503 352.109C402.503 360.909 402.503 369.709 402.503 378.509C402.503 380.409 405.503 380.409 405.503 378.509C405.503 369.709 405.503 360.909 405.503 352.109C405.503 350.209 402.503 350.209 402.503 352.109Z" fill="#161616"/>
<path d="M506.303 83.509C506.303 99.609 506.303 115.709 506.303 131.809C506.303 133.709 509.303 133.709 509.303 131.809C509.303 115.709 509.303 99.609 509.303 83.509C509.303 81.609 506.303 81.609 506.303 83.509Z" fill="#161616"/>
<path d="M506.303 149.009C506.303 161.109 506.303 173.309 506.303 185.409C506.303 187.309 509.303 187.309 509.303 185.409C509.303 173.309 509.303 161.109 509.303 149.009C509.303 147.109 506.303 147.109 506.303 149.009Z" fill="#161616"/>
<path d="M936.003 101.709C936.003 122.609 936.003 143.609 936.003 164.509C936.003 166.409 939.003 166.409 939.003 164.509C939.003 143.609 939.003 122.609 939.003 101.709C939.003 99.809 936.003 99.809 936.003 101.709Z" fill="#161616"/>
<path d="M935.103 189.109C935.103 200.009 935.103 211.009 935.103 221.909C935.103 223.809 938.103 223.809 938.103 221.909C938.103 211.009 938.103 200.009 938.103 189.109C938.103 187.209 935.103 187.209 935.103 189.109Z" fill="#161616"/>
<path d="M756.603 65.309C756.603 78.709 756.603 92.009 756.603 105.409C756.603 107.309 759.603 107.309 759.603 105.409C759.603 92.009 759.603 78.709 759.603 65.309C759.603 63.409 756.603 63.309 756.603 65.309Z" fill="#161616"/>
<path d="M757.603 143.609C757.603 155.709 757.603 167.909 757.603 180.009C757.603 181.909 760.603 181.909 760.603 180.009C760.603 167.909 760.603 155.709 760.603 143.609C760.603 141.709 757.603 141.709 757.603 143.609Z" fill="#161616"/>
<path d="M1036.2 209.109C1036.2 220.909 1036.2 232.809 1036.2 244.609C1036.2 246.509 1039.2 246.509 1039.2 244.609C1039.2 232.809 1039.2 220.909 1039.2 209.109C1039.2 207.209 1036.2 207.209 1036.2 209.109Z" fill="#161616"/>
<path d="M1037.1 269.209C1037.1 278.609 1037.1 288.009 1037.1 297.409C1037.1 299.309 1040.1 299.309 1040.1 297.409C1040.1 288.009 1040.1 278.609 1040.1 269.209C1040.1 267.309 1037.1 267.309 1037.1 269.209Z" fill="#161616"/>
<circle cx="354.703" cy="202.009" r="16.6" fill="#5222D0"/>
<circle cx="404.803" cy="386.509" r="11.4" fill="#5222D0"/>
<circle cx="509.103" cy="201.309" r="5.4" fill="#5222D0"/>
<circle cx="761.903" cy="214.309" r="7.6" fill="#5222D0"/>
<circle cx="761.403" cy="120.609" r="7" fill="#5222D0"/>
<circle cx="403.803" cy="336.809" r="7.8" fill="#EC615B"/>
<circle cx="506.803" cy="79.109" r="7.7" fill="#EC615B"/>
<circle cx="506.803" cy="147.209" r="7.7" fill="#EC615B"/>
<circle cx="758.103" cy="189.309" r="3.8" fill="#EC615B"/>
<circle cx="937.603" cy="237.809" r="15.9" fill="#EC615B"/>
<circle cx="1040.3" cy="320.709" r="7.6" fill="#EC615B"/>
<circle cx="937.503" cy="120.609" r="7" fill="#EC615B"/>
<circle cx="937.603" cy="150.909" r="5.4" fill="#5222D0"/>
<circle cx="1038.6" cy="254.409" r="5.4" fill="#5222D0"/>
<path d="M280.203 332.109C275.503 339.509 270.803 346.809 266.103 354.209C262.403 360.009 258.703 366.109 257.403 373.009C255.303 384.909 263.303 392.909 270.103 401.509C274.003 406.409 277.603 412.009 275.903 418.409C274.403 424.209 269.603 429.209 270.303 435.609C270.603 438.309 272.003 440.409 273.203 442.709C275.203 446.709 276.603 451.009 277.103 455.409C278.003 463.609 276.103 471.809 271.803 478.809C270.803 480.509 273.403 482.009 274.403 480.309C281.003 469.409 282.303 455.709 277.203 443.909C275.403 439.709 272.403 436.309 273.703 431.309C274.603 428.009 276.503 425.109 277.803 422.009C279.703 417.309 279.903 412.609 277.903 407.909C273.403 397.309 260.903 390.409 260.103 378.109C259.603 369.809 264.503 362.209 268.703 355.509C273.403 348.109 278.103 340.709 282.803 333.409C283.803 332.009 281.203 330.509 280.203 332.109Z" fill="#E8E8E8"/>
<path d="M464.903 445.409C457.503 452.909 453.803 463.409 455.003 473.909C455.603 479.409 457.803 484.009 460.403 488.909C464.303 496.309 465.203 501.909 462.203 509.709C460.403 514.309 458.103 519.009 458.703 524.009C459.303 529.709 463.703 532.709 466.403 537.409C472.103 547.609 460.603 558.309 463.303 569.209C463.803 571.109 466.703 570.309 466.203 568.409C463.703 558.609 473.103 549.909 470.703 540.009C469.503 535.209 465.603 532.209 463.203 528.109C459.803 522.309 463.003 516.209 465.103 510.509C466.803 506.009 468.003 501.509 467.003 496.709C465.703 490.809 461.703 486.009 459.603 480.409C455.403 469.109 458.603 456.009 467.003 447.509C468.403 446.109 466.303 444.009 464.903 445.409Z" fill="#E8E8E8"/>
<path d="M1114.1 467.209C1104.1 478.909 1094.4 494.009 1095.4 510.109C1095.9 517.809 1099.3 524.009 1103.5 530.309C1108.4 537.609 1112.6 544.509 1110.2 553.609C1107 565.509 1095.2 577.409 1099.3 590.509C1101.8 598.509 1109.8 602.909 1111.7 611.309C1113.9 621.309 1109.3 631.809 1105.2 640.709C1104.4 642.409 1107 644.009 1107.8 642.209C1111.2 634.809 1114.5 627.109 1115.1 618.909C1115.7 611.109 1113.1 604.909 1108.3 598.909C1102.6 592.009 1100 586.109 1103 577.409C1105.3 570.709 1109.4 564.709 1111.9 558.109C1114.3 551.909 1114.9 545.509 1112.3 539.209C1109.6 532.609 1104.6 527.509 1101.4 521.209C1092.4 503.209 1104.5 483.009 1116.2 469.409C1117.5 467.909 1115.4 465.809 1114.1 467.209Z" fill="#E8E8E8"/>
<path d="M1142.2 573.709C1137 578.609 1133.7 585.009 1132.8 592.109C1131.7 600.609 1134.9 606.509 1138.3 613.909C1142.5 623.009 1134.3 631.209 1136.5 640.409C1137.7 645.409 1140.4 649.209 1140.3 654.509C1140.1 660.009 1137.9 665.009 1134.1 668.909C1132.8 670.309 1134.9 672.409 1136.2 671.009C1141.3 665.809 1144 658.709 1143.1 651.409C1142.6 647.209 1140.3 643.609 1139.4 639.509C1138.1 634.009 1141.1 629.009 1142.2 623.809C1144.1 615.009 1138.1 609.809 1136.2 601.809C1133.9 592.309 1137.2 582.309 1144.3 575.709C1145.8 574.509 1143.7 572.409 1142.2 573.709Z" fill="#E8E8E8"/>
<path d="M864.103 294.809C858.403 303.609 852.103 314.009 855.403 324.909C857.003 330.209 861.403 332.409 863.803 337.009C866.103 341.609 863.903 347.009 862.303 351.409C860.003 357.709 856.803 365.409 862.603 370.809C864.903 372.909 867.703 374.109 868.703 377.409C869.503 380.109 868.803 383.309 868.303 385.909C867.303 390.709 865.903 395.509 866.503 400.409C866.703 402.309 869.703 402.309 869.503 400.409C868.603 392.209 874.603 383.009 871.103 375.109C869.103 370.509 862.903 369.209 862.303 364.009C861.803 360.109 863.903 355.809 865.203 352.209C867.703 345.309 869.503 338.409 864.103 332.409C859.103 326.909 856.503 321.609 858.103 314.009C859.403 307.509 863.203 301.709 866.803 296.209C867.803 294.609 865.203 293.109 864.103 294.809Z" fill="#E8E8E8"/>
<path d="M453.003 189.209C447.103 193.309 446.103 200.609 450.203 206.309C453.903 211.309 448.203 213.609 449.303 218.309C449.703 220.009 451.103 221.009 451.903 222.509C453.903 226.209 451.603 230.109 449.703 233.409C448.703 235.109 451.303 236.609 452.303 234.909C454.103 231.809 456.103 228.209 455.803 224.509C455.703 222.809 455.003 221.709 454.303 220.209C453.803 219.309 453.203 219.009 452.803 217.909C452.303 216.009 453.003 215.609 453.903 213.809C455.203 211.309 455.703 209.209 454.303 206.609C453.003 204.209 450.903 202.809 450.703 199.809C450.503 196.609 452.003 193.509 454.603 191.709C456.103 190.709 454.603 188.109 453.003 189.209Z" fill="#5222D0"/>
<path d="M309.903 264.209C308.003 266.309 306.803 268.609 306.603 271.409C306.403 274.609 309.003 277.909 307.603 280.809C306.603 282.909 305.503 283.709 305.703 286.309C305.903 289.009 310.403 296.409 306.303 298.009C304.503 298.709 305.303 301.609 307.103 300.909C312.103 299.009 311.103 293.709 309.703 289.609C308.603 286.409 309.503 284.809 310.903 281.809C311.203 281.109 311.703 280.609 311.803 279.809C312.003 278.209 311.103 277.309 310.503 276.009C308.903 272.509 309.303 269.109 311.903 266.309C313.303 264.909 311.103 262.709 309.903 264.209Z" fill="#5222D0"/>
<path d="M1075.1 295.309C1071.1 295.009 1068.2 298.009 1067.6 301.909C1066.7 307.609 1071.4 311.609 1073.8 316.209C1075.4 319.409 1074.8 321.909 1073.8 325.009C1073.3 326.609 1072.7 326.109 1072.6 327.909C1072.5 329.409 1073.1 330.509 1074.1 331.609C1076.8 334.709 1079 336.109 1078.7 340.709C1078.4 344.809 1076.5 348.709 1074.7 352.209C1073.8 353.909 1076.4 355.409 1077.3 353.709C1079.4 349.709 1081.5 345.309 1081.7 340.709C1082 336.209 1080.2 334.209 1077.8 330.809C1077 330.309 1076.7 329.509 1076.8 328.409C1076 327.209 1076.2 326.209 1077.2 325.309C1077.4 324.409 1077.9 323.709 1078.1 322.709C1078.5 320.609 1078.1 318.509 1077.3 316.409C1076.5 314.209 1075.1 312.409 1073.8 310.509C1072.7 308.909 1071.4 307.109 1070.9 305.209C1070.1 302.309 1070.9 297.909 1075.2 298.209C1077 298.509 1077 295.509 1075.1 295.309Z" fill="#5222D0"/>
<path d="M765.603 839.209C745.903 842.209 729.303 842.909 717.803 842.909C711.503 934.609 712.403 981.109 720.603 982.409C727.503 983.509 739.603 952.509 756.803 889.409C780.503 883.509 804.303 877.609 828.003 871.709C830.403 848.509 825.003 839.509 819.603 835.409C809.603 827.909 795.603 834.509 765.603 839.209Z" fill="#161616" stroke="#161616" stroke-width="3"/>
<path d="M668.903 676.709C652.303 691.809 658.003 732.809 682.703 775.709C688.503 775.009 697.603 774.409 708.503 775.309C713.003 775.709 727.103 777.109 763.103 790.209C770.603 793.009 781.003 796.909 793.403 802.209C783.703 804.809 774.003 807.409 764.203 810.009C765.303 821.709 767.303 835.009 770.903 849.209C777.503 875.509 787.303 897.009 796.303 913.109C818.803 906.509 837.203 900.009 850.503 895.209C882.403 883.509 899.303 875.109 915.503 863.809C932.803 851.709 941.903 841.509 944.703 828.709C946.303 821.309 945.403 814.909 945.103 812.609C943.103 800.209 936.203 791.809 929.003 783.809C913.203 766.109 905.303 757.309 892.403 747.509C862.903 725.209 836.003 713.509 806.103 700.809C783.003 691.009 767.603 684.509 745.203 679.109C709.403 670.809 682.503 664.309 668.903 676.709Z" fill="#EC615B"/>
<path d="M738.003 678.609C768.103 687.409 797.403 698.609 825.803 712.109C850.703 723.909 875.703 737.009 897.303 754.309C907.303 762.309 916.603 771.209 924.703 781.209C933.503 792.109 944.903 806.809 944.703 821.509C944.503 835.209 931.503 847.709 922.003 856.309C911.903 865.409 900.403 872.609 888.203 878.509C858.403 892.909 825.403 898.809 795.203 912.309C793.403 913.109 795.003 915.709 796.703 914.909C825.703 901.909 857.303 896.009 886.203 882.709C898.403 877.109 910.103 870.209 920.503 861.509C930.203 853.409 941.203 842.709 945.903 830.709C951.003 817.709 944.103 804.309 937.203 793.509C929.703 781.709 920.603 771.009 910.303 761.509C889.903 742.609 865.603 728.609 840.903 716.209C808.203 699.709 774.003 686.109 738.803 675.809C736.903 675.209 736.103 678.009 738.003 678.609Z" fill="#EC615B"/>
<path d="M843.703 787.109C830.403 790.909 817.003 794.709 803.703 798.509C790.603 802.209 777.203 805.509 764.403 810.109C762.603 810.809 763.403 813.709 765.203 813.009C778.003 808.309 791.403 805.109 804.503 801.409C817.803 797.609 831.203 793.809 844.503 790.009C846.303 789.509 845.503 786.609 843.703 787.109Z" fill="#EC615B"/>
<path d="M763.203 810.309C766.503 846.609 776.603 882.109 794.003 914.209C794.903 915.909 797.503 914.409 796.603 912.709C779.503 881.109 769.503 846.109 766.203 810.409C766.103 808.409 763.103 808.409 763.203 810.309Z" fill="#EC615B"/>
<path d="M793.803 802.209C759.103 782.309 719.703 771.909 679.603 773.509C677.703 773.609 677.703 776.609 679.603 776.509C719.103 774.809 758.003 785.109 792.203 804.809C794.003 805.709 795.503 803.109 793.803 802.209Z" fill="#EC615B"/>
<path opacity="0.11" d="M677.603 712.609C686.903 714.709 700.503 718.209 716.603 723.509C728.503 727.409 751.003 735.309 802.703 761.409C820.103 770.209 843.003 782.109 869.503 797.009C835.803 811.909 802.103 826.809 768.403 841.609C766.603 831.309 764.703 821.109 762.903 810.809C771.603 808.009 780.303 805.309 789.003 802.509C775.703 795.209 756.903 786.609 733.303 781.209C713.803 776.709 696.603 775.609 683.103 775.709C681.203 754.609 679.403 733.609 677.603 712.609Z" fill="#3D3D3D"/>
<path opacity="0.11" d="M683.003 775.309C698.903 772.509 724.703 769.909 755.303 776.109C781.703 781.409 801.903 791.309 815.003 799.009C798.503 808.409 782.103 817.709 765.603 827.109C764.503 821.609 763.503 816.009 762.403 810.509C771.203 807.709 780.003 805.009 788.903 802.209C777.203 795.909 762.303 789.209 744.303 784.009C720.203 777.109 698.903 775.309 683.003 775.309Z" fill="#3D3D3D"/>
<path d="M553.103 871.509C568.003 876.709 582.903 881.909 597.703 887.109C600.803 951.409 605.303 983.709 611.103 983.909C618.203 984.209 627.303 937.809 638.503 844.609C614.803 838.909 591.203 833.109 567.503 827.409C562.803 842.109 558.003 856.809 553.103 871.509Z" fill="#161616" stroke="#161616" stroke-width="3"/>
<path d="M682.903 775.409C682.003 746.709 678.703 722.909 675.503 705.509C668.803 668.809 663.003 663.009 657.903 660.609C646.803 655.509 635.503 665.309 607.303 678.209C584.203 688.809 587.203 684.309 547.603 699.209C518.603 710.109 483.603 725.109 446.403 746.909C438.403 751.609 419.603 762.909 401.503 783.309C384.503 802.409 383.303 812.509 383.303 817.409C383.303 822.409 384.503 833.609 400.903 850.409C420.203 870.109 442.003 878.609 504.903 898.709C522.203 904.209 538.003 909.209 552.103 913.509C559.703 899.009 565.503 886.409 569.703 876.609C581.503 849.009 584.003 836.009 585.003 829.409C586.103 822.109 586.603 816.009 586.703 811.809C576.503 809.109 566.203 806.509 556.003 803.809C567.603 797.209 582.003 790.409 599.203 785.009C633.003 774.509 662.703 773.909 682.903 775.409Z" fill="#EC615B"/>
<path d="M559.003 804.609C563.403 805.609 567.903 806.609 572.303 807.609C576.703 808.609 581.703 809.109 585.403 811.909C586.903 813.109 588.403 810.509 586.903 809.309C583.403 806.609 579.103 806.009 574.903 805.109C569.903 804.009 564.803 802.809 559.803 801.709C557.903 801.309 557.103 804.209 559.003 804.609Z" fill="#EC615B"/>
<path d="M615.303 676.009C571.503 687.509 528.903 703.109 487.903 722.409C466.303 732.609 445.403 745.009 426.503 759.609C405.503 775.809 367.903 809.309 388.103 838.709C397.403 852.209 411.503 862.209 425.503 870.309C436.903 877.009 449.003 882.609 461.303 887.309C468.503 890.009 476.003 892.009 483.403 894.309C505.903 901.109 528.403 908.209 550.803 915.409C552.603 916.009 553.403 913.109 551.603 912.509C533.103 906.509 514.603 900.609 496.003 895.009C486.303 892.009 476.403 889.509 466.803 886.109C443.203 878.009 418.903 865.809 400.803 848.609C394.903 843.009 388.803 836.409 386.603 828.509C383.803 818.709 387.303 808.909 392.203 800.509C400.103 786.909 411.803 775.609 423.903 765.709C443.303 749.909 465.203 736.809 487.803 726.009C529.003 706.309 572.103 690.609 616.303 679.109C618.003 678.409 617.203 675.509 615.303 676.009Z" fill="#EC615B"/>
<path d="M496.703 790.309C511.603 794.109 526.603 797.909 541.503 801.609C556.203 805.309 571.203 808.509 585.603 813.309C587.403 813.909 588.203 811.009 586.403 810.409C572.003 805.709 557.003 802.509 542.303 798.709C527.403 794.909 512.403 791.109 497.503 787.409C495.603 787.009 494.803 789.909 496.703 790.309Z" fill="#EC615B"/>
<path d="M584.703 810.709C581.003 846.909 569.503 882.009 550.603 913.009C549.603 914.709 552.203 916.209 553.203 914.509C572.403 882.909 584.003 847.309 587.703 810.609C587.903 808.709 584.903 808.809 584.703 810.709Z" fill="#EC615B"/>
<path d="M555.103 805.109C594.203 785.109 637.703 775.209 681.603 776.809C683.503 776.909 683.503 773.909 681.603 773.809C637.203 772.109 593.103 782.209 553.603 802.509C551.903 803.409 553.403 806.009 555.103 805.109Z" fill="#EC615B"/>
<path opacity="0.13" d="M662.003 720.809C619.003 741.709 590.703 756.409 578.003 762.509C544.603 778.309 512.003 792.809 480.303 806.209C504.503 803.509 528.103 814.709 540.403 834.909C554.303 857.709 551.403 887.909 532.903 908.709C539.303 911.009 545.703 913.309 552.003 915.509C557.403 906.909 562.803 897.109 567.703 886.109C580.703 857.209 586.003 830.409 588.203 809.609C579.103 806.609 570.003 803.709 560.903 800.709C569.103 797.109 578.003 793.609 587.503 790.509C623.503 778.709 656.603 775.909 683.003 776.309C682.703 769.109 682.303 761.809 681.803 754.309C680.803 740.009 679.303 726.309 677.603 713.309C674.003 715.009 668.603 717.709 662.003 720.809Z" fill="#3D3D3D"/>
<path opacity="0.15" d="M679.503 773.709C679.403 772.409 653.703 770.109 622.603 774.509C587.403 779.509 559.903 791.009 542.003 800.209C551.103 807.009 560.203 813.909 569.303 820.709C564.403 850.609 559.603 880.509 554.703 910.409C564.803 893.809 576.203 870.609 582.803 841.309C585.403 829.609 586.803 818.809 587.503 808.909C584.803 808.109 582.003 807.309 579.203 806.509C572.703 804.709 566.403 803.109 560.203 801.809C565.103 799.609 572.003 796.609 580.403 793.509C634.703 773.309 679.503 775.309 679.503 773.709Z" fill="#3D3D3D"/>
<path d="M755.903 443.709C761.003 442.009 768.703 449.909 773.303 454.509C780.703 462.009 784.403 469.609 785.503 471.909C799.103 500.109 796.703 488.909 808.203 515.109C822.303 547.409 831.903 577.909 831.903 577.909C836.603 592.809 839.503 603.909 848.603 617.609C858.903 633.009 867.403 637.109 870.903 638.509C882.503 643.309 893.503 641.209 898.403 639.909C903.703 634.709 907.803 630.209 910.603 627.009C916.303 620.509 918.703 617.009 923.203 616.509C924.203 616.409 928.803 615.909 931.203 618.609C932.303 619.809 932.503 621.109 933.603 621.409C935.003 621.809 936.403 620.209 938.103 618.609C938.803 617.909 943.403 613.609 948.203 611.609C950.703 610.509 955.503 609.109 956.903 610.909C958.303 612.709 955.203 616.509 956.603 617.909C958.003 619.309 961.403 616.109 965.003 617.609C967.003 618.509 968.703 620.709 968.803 622.809C969.003 625.409 966.803 626.009 966.403 629.409C966.003 632.209 967.303 632.709 967.103 635.009C966.703 638.509 963.503 639.009 959.103 644.109C956.603 647.009 957.303 647.209 952.803 653.909C951.103 656.409 948.903 659.709 947.203 661.609C940.603 669.009 929.403 669.609 923.503 670.009C912.103 670.609 903.103 667.209 898.003 664.809C894.603 667.209 889.403 670.209 882.703 672.509C865.403 678.209 850.203 674.209 844.003 672.509C819.303 665.609 804.803 646.909 795.203 634.109C780.903 615.109 775.703 598.609 766.303 568.609C763.403 559.509 754.703 530.609 751.303 491.909C749.903 474.309 747.603 446.509 755.903 443.709Z" fill="white"/>
<path d="M758.703 447.309C767.503 450.209 773.603 457.309 778.703 464.809C784.003 472.509 788.703 480.609 793.203 488.909C802.303 505.909 809.903 523.609 817.003 541.509C824.203 559.509 830.803 577.709 837.503 595.809C842.903 610.209 849.403 625.509 861.903 635.109C873.503 644.009 890.003 647.709 903.003 639.609C904.603 638.609 903.103 636.009 901.503 637.009C887.703 645.609 869.903 639.609 859.203 628.709C847.003 616.109 841.803 598.609 835.903 582.609C823.403 548.409 810.603 513.609 792.703 481.709C784.903 467.809 775.703 449.809 759.503 444.409C757.703 443.809 756.903 446.709 758.703 447.309Z" fill="#161616"/>
<path d="M757.703 544.209C766.603 575.009 774.103 607.209 792.403 634.009C807.503 656.209 829.903 673.909 857.403 676.109C872.303 677.309 887.403 673.709 899.403 664.709C900.903 663.609 899.403 660.909 897.903 662.109C883.903 672.709 865.803 675.409 848.803 671.909C832.003 668.409 817.503 658.709 806.003 646.309C779.903 618.009 771.203 579.409 760.803 543.509C760.103 541.609 757.203 542.409 757.703 544.209Z" fill="#161616"/>
<path d="M903.303 640.009C907.503 634.109 911.403 627.309 916.503 622.209C919.503 619.209 924.403 616.209 928.703 618.609C932.403 620.709 932.703 625.509 930.503 628.709C929.403 630.309 932.003 631.809 933.103 630.209C937.803 623.509 932.903 614.509 924.703 614.909C919.803 615.209 915.803 618.309 912.803 622.009C908.503 627.209 904.803 633.009 900.803 638.509C899.603 640.009 902.203 641.509 903.303 640.009Z" fill="#161616"/>
<path d="M917.203 626.909C915.003 631.309 917.703 636.409 922.603 637.209C928.503 638.109 932.803 633.109 933.803 627.809C934.203 625.909 931.303 625.109 930.903 627.009C930.303 630.209 928.603 633.509 925.103 634.209C921.803 634.909 918.103 632.009 919.803 628.509C920.603 626.709 918.003 625.209 917.203 626.909Z" fill="#161616"/>
<path d="M897.403 665.609C908.903 667.909 919.803 673.209 931.703 670.709C941.303 668.709 949.503 662.809 954.803 654.709C955.903 653.109 953.303 651.609 952.203 653.209C947.003 661.109 938.803 666.609 929.403 668.109C918.603 669.809 908.503 664.809 898.103 662.709C896.303 662.409 895.503 665.309 897.403 665.609Z" fill="#161616"/>
<path d="M925.703 634.209C922.503 636.109 922.903 640.509 925.603 642.809C927.903 644.709 931.003 644.409 933.803 644.409C938.603 644.309 942.603 645.109 946.803 647.509C948.503 648.409 950.003 645.909 948.303 644.909C945.203 643.109 941.903 641.909 938.303 641.509C936.603 641.309 934.903 641.409 933.103 641.409C932.003 641.409 930.903 641.509 929.903 641.309C928.703 641.009 924.803 638.309 927.203 636.909C928.803 635.809 927.303 633.209 925.703 634.209Z" fill="#161616"/>
<path d="M927.703 635.509C935.203 631.209 944.403 632.109 950.803 638.009C952.203 639.309 954.303 637.209 952.903 635.909C945.503 629.109 934.903 627.909 926.203 632.909C924.503 633.909 926.003 636.509 927.703 635.509Z" fill="#161616"/>
<path d="M934.203 623.309C937.503 620.909 940.703 618.609 944.003 616.209C945.403 615.209 946.703 614.209 948.203 613.309C949.203 612.709 950.203 612.109 951.303 611.709C956.003 610.109 957.103 612.409 954.503 618.609C952.703 619.209 953.503 622.109 955.303 621.509C960.703 619.609 962.603 612.309 957.003 609.209C953.903 607.409 950.203 608.709 947.403 610.309C942.303 613.209 937.603 617.309 932.803 620.709C931.103 621.909 932.603 624.509 934.203 623.309Z" fill="#161616"/>
<path d="M940.603 631.309C944.603 628.809 948.603 626.209 952.603 623.709C954.403 622.609 956.203 621.309 958.203 620.409C959.703 619.609 961.303 619.309 963.003 619.309C966.503 619.309 967.803 621.409 966.903 625.509C965.703 627.009 967.803 629.109 969.003 627.609C972.803 622.809 969.403 616.909 963.603 616.409C959.803 616.009 956.403 617.909 953.303 619.809C948.503 622.709 943.803 625.809 939.103 628.809C937.403 629.709 938.903 632.309 940.603 631.309Z" fill="#161616"/>
<path d="M952.303 636.009C955.003 634.509 957.703 633.109 960.403 631.809C961.303 631.309 964.303 629.509 965.203 629.709C967.703 630.209 966.003 632.709 965.403 633.709C964.403 635.309 967.003 636.909 968.003 635.209C969.603 632.609 971.003 627.509 966.703 626.709C964.403 626.209 961.903 627.809 959.903 628.809C956.803 630.309 953.703 631.809 950.703 633.509C949.103 634.409 950.703 637.009 952.303 636.009Z" fill="#161616"/>
<path d="M948.103 635.309C955.303 639.309 956.703 648.209 951.003 654.209C949.703 655.609 951.803 657.709 953.103 656.309C960.103 649.009 958.503 637.609 949.603 632.709C948.003 631.809 946.403 634.409 948.103 635.309Z" fill="#161616"/>
<path d="M966.503 634.209C963.303 638.309 959.603 641.909 955.503 644.909C954.003 646.009 955.403 648.609 957.003 647.509C961.403 644.309 965.303 640.609 968.703 636.309C969.803 634.809 967.703 632.709 966.503 634.209Z" fill="#161616"/>
<path d="M917.903 645.909C924.203 646.409 930.103 648.409 935.403 651.909C937.003 653.009 938.503 650.409 936.903 649.309C931.103 645.609 924.803 643.509 917.903 642.909C916.003 642.809 916.003 645.809 917.903 645.909Z" fill="#161616"/>
<path opacity="0.09" d="M745.803 467.909C747.603 480.709 750.503 498.709 754.803 520.309C757.603 534.309 759.603 544.609 763.303 558.309C768.903 579.109 773.503 596.609 784.303 616.909C791.403 630.209 796.203 639.309 806.203 649.109C813.303 656.009 831.903 674.209 859.903 674.609C877.003 674.809 890.503 668.309 898.403 663.409C903.103 666.009 911.203 669.509 921.703 669.709C926.603 669.809 935.803 669.909 944.503 663.909C947.503 661.809 955.503 656.409 956.103 647.309C956.203 645.909 956.603 638.309 951.203 634.309C945.203 629.909 935.403 632.509 934.603 635.609C933.903 638.509 941.103 640.909 940.903 645.009C940.603 650.209 928.803 653.409 926.603 654.009C856.203 673.009 818.303 641.509 818.303 641.509C806.803 631.909 800.703 621.509 786.503 586.009C774.803 556.809 760.103 516.909 745.803 467.909Z" fill="#3D3D3D"/>
<path d="M460.103 659.709C464.703 663.109 476.903 671.009 493.603 670.909C509.203 670.809 520.203 663.709 526.403 659.709C536.703 653.109 542.603 645.809 548.003 638.809C564.803 617.509 571.503 595.309 576.303 579.209C580.603 564.809 578.903 565.609 583.003 553.109C590.703 529.709 597.303 524.409 603.903 507.709C614.803 480.109 615.503 447.209 606.903 443.609C602.903 442.009 597.003 446.709 585.303 456.309C581.803 459.209 575.603 464.309 569.103 472.209C563.903 478.609 554.803 491.209 544.703 521.309C536.503 545.909 538.303 549.909 528.603 577.109C522.603 594.009 518.803 600.909 514.203 607.209C509.003 614.209 500.403 625.609 484.803 631.609C472.903 636.209 462.203 635.609 456.303 634.809C455.503 630.809 452.803 619.809 443.503 614.409C441.203 613.009 435.603 609.809 431.603 612.209C429.303 613.609 428.503 616.209 428.203 617.609C423.803 611.409 419.003 608.709 416.303 607.509C413.703 606.409 408.403 604.009 406.203 606.209C404.203 608.209 406.003 612.809 406.203 613.409C403.403 611.909 400.203 612.109 397.903 613.809C396.203 615.109 394.303 617.709 395.003 620.509C395.503 622.409 397.003 623.609 397.503 623.909C396.903 625.609 396.403 628.209 397.303 630.909C397.803 632.309 398.403 633.209 402.003 637.209C406.603 642.409 406.703 642.209 407.603 643.509C410.103 647.209 409.603 649.209 411.203 652.509C414.003 658.609 420.003 661.509 422.003 662.409C428.403 665.509 434.303 664.709 444.003 663.309C450.203 662.609 455.603 661.209 460.103 659.709Z" fill="white"/>
<path d="M606.603 440.909C591.303 448.609 577.503 459.209 566.803 472.709C556.103 486.209 548.703 501.809 543.103 518.009C537.503 534.409 533.503 551.309 529.203 568.009C525.103 584.209 518.203 601.009 507.403 613.909C494.803 629.009 475.203 634.809 456.103 632.609C454.203 632.409 454.203 635.409 456.103 635.609C471.203 637.309 486.903 634.409 499.403 625.509C512.603 616.109 520.903 600.409 526.803 585.609C533.103 569.909 535.903 552.809 540.503 536.609C545.403 519.109 551.403 501.709 561.003 486.209C572.403 467.709 588.703 453.309 608.103 443.609C609.903 442.609 608.303 440.009 606.603 440.909Z" fill="#161616"/>
<path d="M585.103 539.109C576.003 573.709 568.603 611.009 545.803 639.709C535.903 652.109 523.003 662.709 507.403 666.909C491.203 671.309 473.703 668.809 460.603 658.009C459.103 656.809 457.003 658.909 458.503 660.109C478.403 676.509 506.803 674.809 527.603 660.809C550.403 645.509 563.903 619.709 572.703 594.409C578.903 576.609 583.203 558.109 588.003 539.909C588.503 538.009 585.603 537.209 585.103 539.109Z" fill="#161616"/>
<path d="M457.703 634.109C454.203 628.709 450.903 623.009 447.003 617.909C444.303 614.309 440.703 610.909 435.903 610.509C427.603 610.009 424.003 619.509 428.003 625.809C429.003 627.409 431.603 625.909 430.603 624.309C428.703 621.309 428.803 616.309 432.203 614.209C437.003 611.209 441.903 616.109 444.503 619.509C448.403 624.609 451.603 630.209 455.103 635.609C456.103 637.209 458.703 635.709 457.703 634.109Z" fill="#161616"/>
<path d="M440.103 624.109C441.703 627.509 438.403 630.909 434.903 629.709C432.003 628.709 430.703 625.409 430.203 622.609C429.903 620.709 427.003 621.509 427.303 623.409C428.203 628.409 431.803 633.609 437.503 632.909C442.403 632.309 444.603 626.809 442.703 622.609C441.903 620.809 439.303 622.309 440.103 624.109Z" fill="#161616"/>
<path d="M459.803 658.409C450.603 660.409 441.603 665.309 432.003 663.809C422.903 662.409 415.303 656.609 410.703 648.909C409.703 647.209 407.103 648.809 408.103 650.409C412.803 658.309 420.203 664.309 429.303 666.409C440.303 668.909 450.103 663.609 460.603 661.309C462.503 660.909 461.703 658.009 459.803 658.409Z" fill="#161616"/>
<path d="M433.403 632.409C434.103 632.909 434.203 633.909 433.903 634.609C433.303 636.609 431.103 636.809 429.303 637.009C427.403 637.109 425.503 636.809 423.503 637.009C420.103 637.409 417.003 638.609 414.103 640.409C412.503 641.409 414.003 644.009 415.603 643.009C419.303 640.709 423.003 639.809 427.403 639.909C430.003 640.009 432.703 640.209 434.803 638.409C437.503 636.209 437.803 631.709 434.803 629.809C433.303 628.809 431.803 631.409 433.403 632.409Z" fill="#161616"/>
<path d="M434.503 628.609C426.603 623.509 416.603 624.909 410.003 631.609C408.603 633.009 410.803 635.109 412.103 633.709C417.803 628.009 426.103 626.809 433.003 631.209C434.603 632.209 436.103 629.609 434.503 628.609Z" fill="#161616"/>
<path d="M428.903 616.609C424.803 613.309 420.803 609.809 416.503 606.809C413.903 605.009 410.603 603.209 407.403 604.409C401.103 606.709 402.403 615.109 407.903 617.209C409.703 617.909 410.503 615.009 408.703 614.309C405.003 609.909 405.303 607.909 409.603 608.309C411.203 607.509 412.603 607.609 413.803 608.609C415.503 609.409 417.103 611.109 418.603 612.209C421.303 614.409 424.103 616.609 426.803 618.809C428.203 619.909 430.403 617.809 428.903 616.609Z" fill="#161616"/>
<path d="M422.703 624.409C418.403 621.409 414.103 618.309 409.803 615.409C407.003 613.509 403.903 611.709 400.503 612.009C395.103 612.509 391.803 618.409 395.103 623.009C396.203 624.509 398.803 623.009 397.703 621.509C395.503 617.509 397.303 615.409 402.903 615.209C404.203 615.609 405.403 616.109 406.503 616.809C407.903 617.609 409.203 618.609 410.503 619.509C414.103 622.009 417.703 624.509 421.303 627.009C422.803 628.109 424.303 625.509 422.703 624.409Z" fill="#161616"/>
<path d="M412.003 629.109C409.303 627.409 406.503 625.809 403.603 624.409C401.703 623.409 399.103 621.609 396.803 622.409C393.203 623.709 394.603 628.509 396.003 630.909C396.903 632.609 399.503 631.109 398.603 629.409C398.303 628.809 397.203 627.009 397.503 626.309C397.903 625.309 399.503 625.909 400.203 626.109C401.003 626.309 401.803 626.909 402.603 627.309C405.303 628.709 407.903 630.209 410.503 631.809C412.103 632.709 413.703 630.109 412.003 629.109Z" fill="#161616"/>
<path d="M413.003 628.409C404.603 633.609 403.503 644.709 409.803 652.009C411.103 653.509 413.203 651.309 411.903 649.909C406.903 644.109 407.803 635.109 414.503 631.009C416.103 630.009 414.603 627.409 413.003 628.409Z" fill="#161616"/>
<path d="M395.403 631.709C398.403 635.909 401.903 639.709 406.003 643.009C407.503 644.209 409.603 642.109 408.103 640.909C404.203 637.809 400.903 634.309 398.003 630.209C396.803 628.609 394.203 630.109 395.403 631.709Z" fill="#161616"/>
<path d="M441.903 638.609C435.603 639.209 429.703 641.309 424.503 645.009C422.903 646.109 424.403 648.709 426.003 647.609C430.803 644.209 436.003 642.109 441.903 641.609C443.903 641.409 443.903 638.409 441.903 638.609Z" fill="#161616"/>
<path opacity="0.17" d="M601.603 480.709C589.103 511.109 579.503 535.609 573.403 551.609C559.103 588.809 555.103 601.809 541.603 618.909C530.103 633.409 516.503 651.509 493.503 655.009C479.103 657.209 466.903 652.809 459.803 649.609C458.003 651.009 444.303 660.809 431.003 655.609C423.603 652.709 416.303 645.209 417.803 640.609C419.303 635.909 429.303 636.209 429.203 634.009C429.103 632.209 422.203 629.709 416.003 631.609C415.103 631.909 409.003 633.909 407.003 639.409C404.403 646.709 411.203 654.209 413.003 656.209C422.203 666.409 436.303 665.909 438.803 665.809C448.903 665.509 456.303 661.009 459.803 658.609C464.303 662.409 472.203 668.009 483.203 670.009C503.503 673.809 519.903 662.409 528.903 656.809C554.603 640.509 564.303 614.509 572.203 594.909C576.003 585.409 577.703 579.209 587.003 541.309C592.803 517.309 597.803 496.709 601.603 480.709Z" fill="#3D3D3D"/>
<path opacity="0.17" d="M399.703 614.109C403.103 613.509 407.503 622.509 410.503 629.709C409.003 637.409 407.103 639.109 405.703 639.309C401.703 640.009 394.903 630.209 396.103 621.309C396.203 620.609 397.003 614.609 399.703 614.109Z" fill="#3D3D3D"/>
<path d="M605.503 441.609C586.603 463.309 586.203 490.109 586.103 537.109C586.003 594.009 596.203 641.909 607.103 677.609C623.503 682.509 647.303 687.709 676.203 687.709C704.703 687.709 728.203 682.509 744.503 677.609C748.203 662.309 753.103 639.809 756.903 612.409C770.003 519.509 778.603 458.409 744.503 428.409C710.103 398.209 637.803 404.509 605.503 441.609Z" fill="white" stroke="#161616" stroke-width="3"/>
<path opacity="0.1" d="M699.203 411.109C703.503 419.909 709.203 433.509 712.803 450.809C716.103 466.609 721.203 501.709 692.303 589.109C684.103 614.009 671.703 647.409 653.203 685.809C661.103 686.609 669.603 687.109 678.603 687.009C704.303 686.909 726.603 682.709 744.303 677.709C751.903 640.509 757.303 608.809 761.003 584.709C765.603 555.109 768.803 530.109 767.803 498.509C766.603 458.509 759.803 446.909 756.003 441.509C739.703 417.709 710.303 412.509 699.203 411.109Z" fill="#3D3D3D"/>
<path opacity="0.13" d="M766.203 470.609C761.703 484.209 755.203 505.209 748.803 531.409C740.803 564.109 739.603 577.809 735.203 595.309C729.303 618.109 717.003 650.309 688.103 687.109C697.603 687.409 710.303 686.709 724.703 682.809C732.303 680.709 739.003 678.009 744.503 675.409C749.603 647.609 754.103 621.509 758.103 597.309C765.203 554.909 767.703 537.409 768.003 514.209C768.303 495.909 767.203 480.909 766.203 470.609Z" fill="#3D3D3D"/>
<path d="M654.803 387.509C651.503 392.009 653.103 396.109 652.403 412.909C651.903 423.909 650.803 432.709 650.003 438.309C653.403 440.709 663.003 446.809 676.603 446.809C692.603 446.809 703.303 438.409 706.203 435.909C704.903 432.309 703.303 426.909 702.003 420.209C698.303 401.109 702.103 395.209 697.803 388.709C690.103 377.209 662.703 376.709 654.803 387.509Z" fill="white" stroke="#161616" stroke-width="3"/>
<path d="M614.303 333.609C613.903 347.809 617.103 358.409 619.703 366.909C623.603 379.409 627.903 393.409 640.303 406.209C651.103 417.409 663.703 423.209 673.603 426.209C681.203 423.109 693.703 416.809 705.103 404.409C717.503 390.909 722.203 377.209 725.703 366.909C728.703 358.009 733.803 341.909 731.703 320.909C730.203 306.209 728.603 290.309 716.003 278.009C697.403 259.909 670.203 264.609 666.403 265.309C640.003 270.209 626.703 291.109 623.503 296.809C614.903 311.409 614.503 325.709 614.303 333.609Z" fill="white" stroke="#161616" stroke-width="3"/>
<path d="M666.803 344.509C666.203 357.309 667.403 370.009 670.503 382.409C670.803 383.409 672.303 383.909 673.003 383.109C675.303 380.409 676.803 377.509 677.503 374.009C677.903 372.109 675.003 371.309 674.603 373.209C674.003 376.309 672.903 378.609 670.903 381.009C671.703 381.209 672.603 381.409 673.403 381.709C670.403 369.509 669.303 357.109 669.803 344.609C669.803 342.609 666.803 342.609 666.803 344.509Z" fill="#161616"/>
<path d="M687.803 348.909C694.903 356.409 709.203 358.509 713.003 346.409C713.603 344.609 710.703 343.809 710.103 345.609C707.003 355.509 695.403 352.409 690.003 346.709C688.503 345.409 686.403 347.509 687.803 348.909Z" fill="#161616"/>
<path d="M637.703 368.309C637.703 368.009 637.603 368.409 637.503 368.409C637.403 368.509 637.203 368.509 637.003 368.509C636.703 367.909 636.303 367.309 636.003 366.709C636.103 366.609 636.103 366.509 636.203 366.409C635.403 366.609 634.903 367.409 635.203 368.209C635.403 369.009 636.303 369.509 637.003 369.209C637.903 368.909 638.503 368.309 638.903 367.409C639.203 366.709 638.603 365.709 637.903 365.609C636.603 365.309 635.103 366.009 634.803 367.409C634.703 368.209 635.003 369.109 635.803 369.209C636.603 369.609 637.603 369.209 637.703 368.309Z" fill="#161616"/>
<path d="M652.503 364.409C652.303 365.909 651.903 366.009 651.303 364.709C650.203 363.809 650.403 363.409 651.903 363.609C651.203 363.209 650.303 363.409 649.803 364.109C649.403 364.809 649.603 365.809 650.303 366.209C652.003 367.209 654.103 365.009 652.803 363.409C651.503 361.809 648.903 363.209 649.403 365.109C649.603 365.909 650.503 366.409 651.203 366.109C652.303 366.109 652.703 365.209 652.503 364.409Z" fill="#161616"/>
<path d="M647.103 374.809C647.103 375.009 647.003 375.209 646.803 375.409C647.003 375.209 646.603 375.509 646.703 375.409C646.803 375.309 646.403 375.509 646.703 375.409C646.503 375.409 646.403 375.409 646.503 375.409C646.603 375.409 646.603 375.409 646.303 375.409C646.203 375.409 646.203 375.309 646.103 375.309C646.203 375.409 646.203 375.309 646.003 375.209C645.603 374.809 645.603 374.209 645.903 373.809C646.303 373.409 647.003 373.609 647.203 374.009C646.803 373.309 645.903 373.109 645.103 373.509C644.403 373.909 644.103 374.909 644.603 375.609C645.203 376.609 646.503 376.909 647.503 376.309C648.503 375.809 648.903 374.509 648.303 373.509C647.103 371.609 643.903 372.709 643.903 374.809C643.903 375.609 644.603 376.309 645.403 376.309C646.403 376.309 647.103 375.709 647.103 374.809Z" fill="#161616"/>
<path d="M698.003 362.109C698.703 362.209 699.103 362.609 699.203 363.109C699.303 363.709 698.903 364.109 698.003 364.409C697.703 364.309 697.503 364.309 697.203 364.209C696.703 363.909 696.603 363.509 696.903 363.009C697.403 362.209 698.903 362.509 698.603 363.609C698.803 362.809 698.403 361.909 697.603 361.809C696.803 361.609 696.003 362.009 695.803 362.809C695.403 364.209 696.603 365.709 698.103 365.509C699.403 365.309 700.203 364.009 699.803 362.709C699.603 362.009 698.903 361.409 698.103 361.409C697.503 361.409 696.903 361.809 696.603 362.309C696.003 363.409 696.803 365.209 698.203 365.109C699.003 365.009 699.703 364.509 699.703 363.609C699.503 362.909 698.903 362.009 698.003 362.109Z" fill="#161616"/>
<path d="M709.303 363.209C709.403 363.209 709.403 363.109 709.303 363.209C709.203 363.309 709.003 363.509 708.803 363.709C708.203 363.509 707.703 363.309 707.103 363.009C707.103 362.709 707.103 362.509 707.103 362.209C707.103 362.109 707.203 362.109 707.203 362.009C707.403 361.809 707.603 361.609 707.703 361.509C708.303 361.709 708.803 361.909 709.403 362.209C709.403 362.509 709.403 362.709 709.403 363.009V362.909C709.603 362.109 709.203 361.209 708.403 361.109C707.603 360.909 706.803 361.309 706.603 362.109C706.103 364.109 709.103 365.309 710.003 363.309C710.403 362.509 710.003 361.509 709.203 361.109C708.303 360.609 707.303 360.909 706.803 361.709C706.303 362.409 706.703 363.409 707.303 363.809C708.003 364.209 708.903 363.809 709.303 363.209Z" fill="#161616"/>
<path d="M703.803 373.109C703.703 372.809 703.803 373.109 703.703 373.209C703.703 373.309 703.403 373.509 703.703 373.309C702.903 373.209 702.103 373.109 701.303 373.009C700.703 372.109 701.803 371.309 702.603 371.709C701.903 371.309 701.003 371.509 700.503 372.209C700.103 372.909 700.303 373.909 701.003 374.309C701.803 374.709 702.803 374.609 703.403 373.909C704.003 373.309 704.203 372.209 703.703 371.409C703.203 370.609 702.003 370.409 701.303 371.109C700.603 371.809 700.303 372.909 700.603 373.809C700.903 374.609 701.603 375.109 702.403 374.809C703.503 374.809 704.103 373.909 703.803 373.109Z" fill="#161616"/>
<path d="M660.203 390.709C667.303 398.109 678.603 397.909 685.303 390.009C686.503 388.509 684.403 386.409 683.203 387.909C677.603 394.509 668.403 394.909 662.303 388.609C661.003 387.209 658.903 389.309 660.203 390.709Z" fill="#161616"/>
<path d="M641.803 330.109C644.803 326.809 649.003 325.409 653.403 326.309C655.303 326.709 656.103 323.809 654.203 323.409C648.803 322.309 643.403 323.909 639.703 328.009C638.403 329.409 640.503 331.509 641.803 330.109Z" fill="#161616"/>
<path d="M688.803 324.009C693.403 323.509 697.603 324.609 701.303 327.309C702.903 328.409 704.403 325.809 702.803 324.709C698.703 321.709 693.803 320.409 688.803 321.009C686.903 321.209 686.903 324.209 688.803 324.009Z" fill="#161616"/>
<path d="M636.403 349.809C643.503 357.309 657.803 359.409 661.603 347.309C662.203 345.509 659.303 344.709 658.703 346.509C655.603 356.409 644.003 353.309 638.603 347.609C637.203 346.209 635.003 348.409 636.403 349.809Z" fill="#161616"/>
<path d="M669.403 287.009C675.903 294.809 683.703 303.209 693.103 311.709C705.903 323.309 718.403 332.309 729.303 339.109C728.703 348.109 726.803 361.909 720.003 377.409C713.303 392.809 704.403 403.509 698.303 410.009C697.703 414.809 697.503 423.009 701.403 431.209C710.503 450.309 736.703 458.909 756.803 452.409C759.203 451.609 776.103 445.909 781.603 430.709C783.103 426.509 783.903 421.409 781.603 407.909C778.303 388.409 772.503 374.109 770.803 369.709C766.003 357.509 759.803 339.909 754.203 316.909C752.403 308.909 745.003 280.209 719.003 263.609C712.203 259.209 697.603 249.909 679.203 252.709C671.203 253.909 665.003 257.009 661.103 259.409C652.703 260.109 637.703 262.509 623.303 272.909C590.703 296.309 591.603 338.509 591.703 342.809C590.703 348.109 589.003 356.109 586.003 365.609C578.603 388.809 572.403 391.709 571.003 406.009C570.603 409.609 568.803 427.809 580.803 442.709C583.303 445.809 591.003 455.109 604.103 457.709C621.503 461.209 640.203 451.409 647.903 436.009C652.203 427.409 652.103 419.109 651.703 414.709C648.803 412.109 622.103 387.909 625.303 350.209C628.903 307.309 667.603 287.909 669.403 287.009Z" fill="#5222D0"/>
<path opacity="0.11" d="M706.403 323.309C708.203 330.109 710.203 340.409 709.103 352.809C707.703 368.609 702.103 379.709 696.303 391.109C691.703 400.109 684.503 412.409 673.103 425.309C674.903 425.009 677.003 424.409 679.103 423.609C684.003 421.809 687.703 419.309 690.203 417.209C689.403 426.609 688.603 436.009 687.903 445.409C693.603 442.909 699.303 440.509 705.003 438.009C703.803 428.009 702.503 418.109 701.303 408.109C703.703 405.109 707.103 400.709 710.703 395.009C715.703 387.109 722.803 375.709 726.503 359.809C727.703 354.709 728.903 347.209 728.803 338.009C721.403 333.209 713.903 328.209 706.403 323.309Z" fill="#3D3D3D"/>
<path opacity="0.16" d="M728.903 339.809C728.103 339.609 725.903 349.909 719.203 365.309C719.203 365.309 714.203 376.709 708.503 386.409C703.203 395.409 692.703 410.509 672.903 426.309C675.103 427.309 677.403 428.309 679.603 429.309C686.103 428.609 692.603 428.009 699.103 427.309C698.803 421.809 698.403 416.309 698.103 410.909C705.903 402.909 716.603 389.809 723.303 371.009C728.703 355.309 729.903 340.009 728.903 339.809Z" fill="#3D3D3D"/>
<path opacity="0.29" d="M579.203 384.109C579.003 387.409 579.203 393.109 581.903 399.209C585.803 407.909 594.903 417.409 604.703 417.309C616.603 417.209 629.803 402.809 629.203 382.409C631.103 387.209 634.003 393.009 638.303 399.209C643.203 406.309 648.503 411.609 652.703 415.309C652.803 418.609 652.503 423.709 650.703 429.409C649.703 432.609 647.203 439.109 641.603 445.209C639.203 447.809 631.403 456.209 618.803 458.309C600.503 461.309 586.703 448.609 584.203 446.209C567.803 430.509 570.603 408.309 571.103 404.909C572.503 395.209 576.503 388.109 579.203 384.109Z" fill="#3D3D3D"/>
<path opacity="0.12" d="M729.603 339.409C730.403 344.309 731.503 352.109 732.303 361.909C734.003 382.909 732.303 388.509 735.703 399.209C736.203 400.909 743.903 424.509 755.203 424.709C764.003 424.909 773.803 411.109 777.703 390.809C780.803 400.909 782.103 409.509 782.703 415.609C783.703 425.509 782.803 428.809 782.403 430.409C779.603 439.509 772.203 444.509 768.303 447.209C754.503 456.609 739.603 455.209 737.403 454.909C733.903 454.509 717.703 452.409 706.903 438.809C705.203 436.709 699.803 429.609 698.203 419.009C697.703 415.509 697.703 412.409 697.903 410.309C704.003 404.309 712.103 394.809 718.703 381.409C726.903 364.409 729.003 348.909 729.603 339.409Z" fill="#3D3D3D"/>
</svg>
