<svg width="1081" height="1139" viewBox="0 0 1081 1139" fill="none" xmlns="http://www.w3.org/2000/svg">
<path d="M602.9 108.1C602.9 181.7 602.9 255.3 602.9 328.8C602.9 349.8 602.9 370.7 602.9 391.7C602.9 393.6 605.9 393.6 605.9 391.7C605.9 318.1 605.9 244.5 605.9 171C605.9 150 605.9 129.1 605.9 108.1C605.9 106.2 602.9 106.2 602.9 108.1Z" fill="#E8E8E8"/>
<path d="M602.9 107C682 108.3 761.1 110.5 840.2 113.6C842.1 113.7 842.1 110.7 840.2 110.6C761.1 107.5 682 105.3 602.9 104C601 104 601 107 602.9 107Z" fill="#E8E8E8"/>
<path d="M605.4 393.5C679.5 398.9 753.1 409.3 826.6 419.8C828.5 420.1 829.3 417.2 827.4 416.9C753.6 406.4 679.7 396 605.4 390.5C603.5 390.4 603.5 393.4 605.4 393.5Z" fill="#E8E8E8"/>
<path d="M838.7 114.2C838.7 193.9 838.7 273.5 838.7 353.2C838.7 375.8 838.7 398.3 838.7 420.9C838.7 422.8 841.7 422.8 841.7 420.9C841.7 341.2 841.7 261.6 841.7 181.9C841.7 159.3 841.7 136.8 841.7 114.2C841.7 112.3 838.7 112.3 838.7 114.2Z" fill="#E8E8E8"/>
<path d="M824.8 419.6C829.7 420.3 834.6 421.2 839.4 422.1C841.3 422.5 842.1 419.6 840.2 419.2C835.3 418.2 830.5 417.4 825.6 416.7C823.7 416.5 822.9 419.3 824.8 419.6Z" fill="#E8E8E8"/>
<path d="M605.8 239.2C646 239.7 686 243.7 725.8 249.2C745.3 251.9 764.8 254.9 784.2 257.9C802.8 260.8 821.7 265 840.6 263.4C842.5 263.2 842.5 260.2 840.6 260.4C821 262 801.3 257.5 782.1 254.5C762.3 251.4 742.5 248.4 722.7 245.7C683.9 240.5 645 236.6 605.8 236.1C603.8 236.1 603.8 239.1 605.8 239.2Z" fill="#E8E8E8"/>
<path d="M621.3 240.3C623 285.2 624.8 330.1 626.5 375C626.6 376.9 629.6 376.9 629.5 375C627.8 330.1 626 285.2 624.3 240.3C624.2 238.4 621.2 238.4 621.3 240.3Z" fill="#E8E8E8"/>
<path d="M630.1 376.7C698.3 385 766.6 392.2 834.9 399.3C836.8 399.5 836.8 396.5 834.9 396.3C766.6 389.1 698.3 381.9 630.1 373.7C628.2 373.5 628.2 376.5 630.1 376.7Z" fill="#E8E8E8"/>
<path d="M607.3 390.9C614.8 386.6 622.2 382.3 629.7 377.9C631.4 376.9 629.9 374.3 628.2 375.3C620.7 379.6 613.3 383.9 605.8 388.3C604.1 389.3 605.6 391.9 607.3 390.9Z" fill="#E8E8E8"/>
<path d="M627.4 222.8C688.2 227.5 749.1 232.1 809.9 236.8C811.8 236.9 811.8 233.9 809.9 233.8C749.1 229.1 688.2 224.5 627.4 219.8C625.5 219.6 625.5 222.6 627.4 222.8Z" fill="#E8E8E8"/>
<path d="M620.4 201.4C686.6 201.7 752.8 203.6 819 207.1C820.9 207.2 820.9 204.2 819 204.1C752.9 200.6 686.7 198.6 620.4 198.4C618.4 198.4 618.4 201.4 620.4 201.4Z" fill="#E8E8E8"/>
<path d="M632.2 170.5C677.8 170.6 723.4 170.7 769 170.8C770.9 170.8 770.9 167.8 769 167.8C723.4 167.7 677.8 167.6 632.2 167.5C630.2 167.5 630.2 170.5 632.2 170.5Z" fill="#E8E8E8"/>
<path d="M621.8 140.7C683.9 139.9 745.9 141.6 807.9 145.7C809.8 145.8 809.8 142.8 807.9 142.7C746 138.6 683.9 136.9 621.8 137.7C619.8 137.7 619.8 140.7 621.8 140.7Z" fill="#E8E8E8"/>
<path d="M775.8 387.4C774.5 384.5 774.9 382.9 777 382.4C777.8 382.1 778.6 381.8 779.4 381.7C780.4 381.5 781.4 381.3 782.3 381.1C784.1 380.6 785.8 379.8 787.1 378.4C789.5 375.9 790.1 372.7 789.5 369.4C789.4 368.8 788.7 368.2 788.1 368.3C779.8 369 780.5 356 789 358.6C790.5 359.1 791.4 357.1 790.5 356.1C783.9 349 771.2 331.7 779.9 322.2C782.2 319.7 786.3 318.1 789.4 320.1C791.3 321.3 792.5 323.6 793.5 325.6C794.9 328.1 796.1 330.9 798.5 332.5C803.9 336.1 809.4 331.1 810.3 325.7C811.1 320.7 808.7 315.7 808.7 310.7C808.7 307.2 809.4 303.3 812 300.7C814.7 298 819.3 297.1 822.5 299.7C823.6 300.6 825.5 299.8 825 298.2C824 294.9 823.6 291.4 825.5 288.3C827.7 284.9 833 283.6 835.2 287.8C836.1 289.5 838.7 288 837.8 286.3C835.5 282 829.9 281 825.8 283.5C820.6 286.7 820.5 293.7 822.1 298.9C822.9 298.4 823.8 297.9 824.6 297.4C816.7 290.8 807.2 298.3 805.9 307C805.5 309.6 805.7 312.2 806.1 314.8C806.7 318.9 808.9 324.4 806.2 328.2C800.6 336.1 796.1 323.2 793.5 320C787.8 312.9 777.5 316.6 774.9 324.7C771.1 336.4 780.7 350.1 788.2 358.1C788.7 357.3 789.2 356.4 789.7 355.6C785 354.1 779.3 356.8 778.5 362C777.8 367.4 782.9 371.5 787.9 371.1C787.4 370.7 786.9 370.4 786.5 370C788.5 380.7 773.4 376 770.8 383.9C769.5 387.9 773.4 391.5 777.2 389.8C779.1 389.1 777.6 386.5 775.8 387.4Z" fill="#E8E8E8"/>
<path d="M770.4 460.6C770.4 491.3 770.4 522 770.4 552.6C770.4 554.5 773.4 554.5 773.4 552.6C773.4 521.9 773.4 491.2 773.4 460.6C773.4 458.7 770.4 458.7 770.4 460.6Z" fill="#E8E8E8"/>
<path d="M772.2 460.5C809.9 468.9 847.5 477.3 885.2 485.6C887.1 486 887.9 483.1 886 482.7C848.3 474.3 810.7 465.9 773 457.6C771.1 457.2 770.3 460.1 772.2 460.5Z" fill="#E8E8E8"/>
<path d="M773.5 555.2C806.4 565.9 839.4 576.3 872.5 586.4C874.4 587 875.1 584.1 873.3 583.5C840.2 573.4 807.2 563 774.3 552.3C772.5 551.7 771.7 554.6 773.5 555.2Z" fill="#E8E8E8"/>
<path d="M884.7 484.3C884.7 518.5 884.7 552.7 884.7 586.8C884.7 588.7 887.7 588.7 887.7 586.8C887.7 552.6 887.7 518.4 887.7 484.3C887.7 482.3 884.7 482.3 884.7 484.3Z" fill="#E8E8E8"/>
<path d="M870.7 586.5C876 587.2 881.3 588 886.5 588.7C888.4 589 889.2 586.1 887.3 585.8C882 585.1 876.7 584.3 871.5 583.6C869.6 583.4 868.8 586.3 870.7 586.5Z" fill="#E8E8E8"/>
<path d="M780.8 472.4C779.3 496.3 779 520.2 779.8 544.1C779.9 546 782.9 546 782.8 544.1C782 520.2 782.3 496.3 783.8 472.4C783.9 470.5 780.9 470.5 780.8 472.4Z" fill="#E8E8E8"/>
<path d="M781 548.3C812.1 556.6 844.4 563.2 873.9 576.2C875.7 577 877.2 574.4 875.4 573.6C845.6 560.5 813.1 553.7 781.7 545.4C780 544.9 779.2 547.8 781 548.3Z" fill="#E8E8E8"/>
<path d="M781.4 472.4C813.7 477.9 845.9 484 878 490.5C879.9 490.9 880.7 488 878.8 487.6C846.7 481 814.5 475 782.2 469.5C780.3 469.2 779.5 472.1 781.4 472.4Z" fill="#E8E8E8"/>
<path d="M876.5 488.2C874.2 516.6 873.2 545.1 873.3 573.6C873.3 575.5 876.3 575.5 876.3 573.6C876.1 545.1 877.2 516.6 879.5 488.2C879.6 486.3 876.6 486.3 876.5 488.2Z" fill="#E8E8E8"/>
<path d="M783.1 508.9C794.6 514.5 806.6 519.1 818.9 522.7C820.8 523.2 821.6 520.3 819.7 519.8C807.6 516.3 795.9 511.9 784.6 506.3C782.9 505.5 781.4 508.1 783.1 508.9Z" fill="#E8E8E8"/>
<path d="M827.9 480.7C823.1 494.2 819.2 508 816.1 522.1C815.7 524 818.6 524.8 819 522.9C822.1 508.9 826 495.1 830.8 481.5C831.4 479.6 828.5 478.9 827.9 480.7Z" fill="#E8E8E8"/>
<path d="M824.7 497.9C833.7 496.2 840.8 506 842.3 513.7C843.9 521.9 840.2 529.4 834.2 535C827.8 540.9 818.9 542.7 811.1 538.2C803.1 533.6 800.6 523.1 804.1 515C804.9 513.2 802.3 511.7 801.5 513.5C797.7 522.3 799.5 533.1 807.2 539.2C815.5 545.8 827.1 545 835 538.3C843.3 531.3 847.9 521 844.5 510.4C841.8 501.8 833.6 493.3 823.9 495.1C822 495.4 822.8 498.3 824.7 497.9Z" fill="#E8E8E8"/>
<path d="M842.1 548.6C845.9 551 849.3 553.7 852.3 556.9C853.6 558.3 855.8 556.2 854.4 554.8C851.2 551.4 847.5 548.5 843.6 546C842 545 840.5 547.6 842.1 548.6Z" fill="#E8E8E8"/>
<path d="M851.7 533.5C855 534.3 858.2 535 861.5 535.8C863.4 536.2 864.2 533.3 862.3 532.9C859 532.1 855.8 531.4 852.5 530.6C850.6 530.2 849.8 533 851.7 533.5Z" fill="#E8E8E8"/>
<path d="M848.8 501.3C852.9 501.1 856.5 499.7 859.7 497.2C861.2 496 859.1 493.9 857.6 495.1C855.1 497.1 852 498.2 848.8 498.4C846.8 498.4 846.8 501.4 848.8 501.3Z" fill="#E8E8E8"/>
<path d="M829.7 468.7C829.6 466.5 829.3 463.3 831.6 462.1C833.8 460.9 834.4 463.1 834.3 464.7C834.2 467.6 833.3 470.4 834.3 473.2C835 475 837.9 474.2 837.2 472.4C835.7 468.5 839.5 462.3 835.1 459.5C833 458.1 830.3 458.9 828.6 460.6C826.5 462.8 826.5 465.9 826.6 468.7C826.7 470.6 829.7 470.6 829.7 468.7Z" fill="#E8E8E8"/>
<path d="M149.5 1.8999C149.5 57.1999 149.5 112.4 149.5 167.7C149.5 169.6 152.5 169.6 152.5 167.7C152.5 112.4 152.5 57.1999 152.5 1.8999C152.5 -0.100098 149.5 -0.100098 149.5 1.8999Z" fill="#E8E8E8"/>
<path d="M148.9 168.6C112.6 187 83.1997 217.3 65.9997 254.2C65.1997 255.9 67.7997 257.5 68.5997 255.7C85.5997 219.3 114.6 189.4 150.4 171.2C152.1 170.4 150.6 167.8 148.9 168.6Z" fill="#E8E8E8"/>
<path d="M150.8 170.4C186.1 185.1 214.6 214.2 228.6 249.7C229.3 251.5 232.2 250.7 231.5 248.9C217 212.2 188 182.6 151.6 167.5C149.8 166.8 149 169.7 150.8 170.4Z" fill="#E8E8E8"/>
<path d="M73.7999 257.5C122 235.6 176 243.8 226.3 252.1C228.2 252.4 229 249.5 227.1 249.2C175.8 240.8 121.3 232.7 72.1999 254.9C70.5999 255.7 72.0999 258.3 73.7999 257.5Z" fill="#E8E8E8"/>
<path d="M132.6 244.7C129.7 251 128.5 258.6 131.6 265.1C135 272.3 143.4 275.5 151 275.7C158.1 275.9 165.6 272.9 169.2 266.4C172.5 260.3 172.1 252.9 167.3 247.7C166 246.3 163.9 248.4 165.2 249.8C169.3 254.2 169.2 261 165.9 265.9C162.4 271.2 155.6 273 149.5 272.5C143.2 272 136.6 269.1 134.1 263C131.8 257.5 132.8 251.3 135.2 246C136 244.4 133.4 242.9 132.6 244.7Z" fill="#E8E8E8"/>
<path d="M2.99977 339.5C22.3998 327.1 41.8998 314.7 61.2998 302.4C62.8998 301.4 61.3998 298.8 59.7998 299.8C40.3998 312.2 20.8998 324.6 1.49977 336.9C-0.200228 338 1.29977 340.6 2.99977 339.5Z" fill="#E8E8E8"/>
<path d="M13.5998 398.8C30.0998 383.7 45.7998 367.8 60.6998 351.1C61.9998 349.7 59.8998 347.5 58.5998 349C43.6998 365.7 27.9998 381.6 11.4998 396.7C10.0998 398 12.1998 400.1 13.5998 398.8Z" fill="#E8E8E8"/>
<path d="M92.2996 389.2C77.2996 427.8 63.2996 466.9 50.3996 506.3C49.7996 508.1 52.6996 508.9 53.2996 507.1C66.1996 467.7 80.1996 428.7 95.1996 390C95.8996 388.2 92.9996 387.5 92.2996 389.2Z" fill="#E8E8E8"/>
<path d="M154.6 361.9C166.3 392.8 178.1 423.7 189.8 454.5C190.5 456.3 193.4 455.5 192.7 453.7C181 422.8 169.2 391.9 157.5 361.1C156.8 359.3 153.9 360.1 154.6 361.9Z" fill="#E8E8E8"/>
<path d="M209.7 319C227.2 333.7 243.6 349.7 258.8 366.8C260.1 368.2 262.2 366.1 260.9 364.7C245.7 347.6 229.3 331.7 211.8 316.9C210.4 315.6 208.3 317.7 209.7 319Z" fill="#E8E8E8"/>
<path d="M236.6 278C250.2 284.7 263.9 291.3 277.5 298C279.2 298.8 280.8 296.3 279 295.4C265.4 288.7 251.7 282.1 238.1 275.4C236.4 274.6 234.9 277.1 236.6 278Z" fill="#E8E8E8"/>
<path d="M151.5 748.5C173.6 729.5 202.1 721.9 229.8 714.9C243.9 711.3 257.9 707.7 271.7 702.9C287.6 697.4 303.1 690.7 318.5 684C320.3 683.2 318.7 680.7 317 681.4C300.6 688.5 284.2 695.6 267.3 701.3C253.2 706 238.8 709.5 224.4 713.2C197.8 720.1 170.7 728.1 149.5 746.4C147.9 747.6 150 749.7 151.5 748.5Z" fill="#E8E8E8"/>
<path d="M342.8 234.8C408 238.8 472.8 247.4 536.9 260.4C538.8 260.8 539.6 257.9 537.7 257.5C473.4 244.4 408.3 235.8 342.9 231.7C340.8 231.7 340.8 234.7 342.8 234.8Z" fill="#E8E8E8"/>
<path d="M342.9 232.5C343.6 228.3 343.8 224 343.5 219.8C343.4 217.9 340.4 217.9 340.5 219.8C340.8 223.8 340.7 227.8 340 231.8C339.7 233.6 342.6 234.4 342.9 232.5Z" fill="#E8E8E8"/>
<path d="M342.6 222.7C407.8 229.4 473.3 235.3 537.5 249.1C539.4 249.5 540.2 246.6 538.3 246.2C473.8 232.4 408.1 226.4 342.6 219.7C340.7 219.5 340.7 222.5 342.6 222.7Z" fill="#E8E8E8"/>
<path d="M536.2 247.1C535.8 250.9 536.1 254.7 536.8 258.5C537.2 260.4 540.1 259.6 539.7 257.7C539 254.2 538.9 250.7 539.2 247.1C539.4 245.2 536.4 245.2 536.2 247.1Z" fill="#E8E8E8"/>
<path d="M347.6 188.3C346.3 199.9 347.6 211.3 351.6 222.3C352.3 224.1 355.2 223.3 354.5 221.5C350.6 210.8 349.3 199.7 350.6 188.3C350.8 186.3 347.8 186.4 347.6 188.3Z" fill="#E8E8E8"/>
<path d="M347.1 188.6C359.6 192 372.4 193.5 385.3 192.9C387.2 192.8 387.2 189.8 385.3 189.9C372.6 190.4 360.1 189 347.9 185.7C346 185.2 345.2 188.1 347.1 188.6Z" fill="#E8E8E8"/>
<path d="M382.8 192.8C384.4 203 383.1 213.2 378.8 222.6C378 224.3 380.6 225.9 381.4 224.1C386 213.9 387.4 203.1 385.7 192C385.4 190.1 382.5 190.9 382.8 192.8Z" fill="#E8E8E8"/>
<path d="M358.6 187.4C350.8 177.1 347.9 164.2 350.7 151.6C349.9 151.8 349 152 348.2 152.3C358.5 162.3 365 175.4 366.7 189.7C366.9 191.6 369.9 191.6 369.7 189.7C368 174.6 361.3 160.8 350.3 150.2C349.5 149.4 348 149.7 347.8 150.9C344.9 164.3 347.8 178.1 356 189C357.1 190.4 359.7 188.9 358.6 187.4Z" fill="#E8E8E8"/>
<path d="M366.4 175.6C367.8 168.5 370 161.7 373.3 155.3C374.8 152.3 376.6 149.4 378.6 146.6C380 144.7 380 143.5 380.9 145.7C381.5 147.2 381.7 150 381.9 151.5C383.4 165.3 379.3 179.3 370.7 190.2C369.5 191.7 371.6 193.8 372.8 192.3C383.1 179.2 388.3 160.6 383.6 144.2C381.4 136.5 376.2 144.7 374.1 147.9C368.9 156.1 365.4 165.3 363.5 174.8C363.2 176.7 366.1 177.5 366.4 175.6Z" fill="#E8E8E8"/>
<path d="M411.2 229C411.6 227.6 411.6 226.6 411.5 225.1C411.4 223.9 410.3 221.4 410.7 220.4C412.2 216.3 421.6 219.3 424.4 219.6C434.3 220.8 444.1 222.1 453.9 223.5C472.9 226.2 491.8 229.3 510.6 232.6C510.2 232.1 509.9 231.6 509.5 231.2C509.8 233.3 510 235.4 510.3 237.5C510.5 239.4 513.5 239.4 513.3 237.5C513 235.4 512.8 233.3 512.5 231.2C512.4 230.6 512.1 229.9 511.4 229.8C489.3 225.8 467.2 222.3 445 219.3C434.8 217.9 424.2 215.7 413.9 215.4C411.6 215.3 409.3 215.7 408.1 218C406.5 221.2 409.1 224.8 408.3 228.1C407.8 230.1 410.7 230.9 411.2 229Z" fill="#E8E8E8"/>
<path d="M442 217.8C438.2 212 446.2 208.9 450.6 208.9C454.8 208.9 459 209.9 463.2 210.5C470.8 211.6 478.5 212.7 486.1 213.9C493.6 215 501.2 216.3 508.7 217.7C512.1 218.4 515.5 219.1 519 219.9C522 220.6 534.2 222.1 531.6 227.7C530.8 229.4 533.4 231 534.2 229.2C538.4 220.1 524.7 218.1 518.9 216.8C506.8 214.1 494.6 212.1 482.3 210.3C476.2 209.4 470.2 208.5 464.1 207.7C458.7 206.9 452.8 205.3 447.3 206.2C441.2 207.1 435.7 213.5 439.6 219.4C440.5 220.9 443.1 219.4 442 217.8Z" fill="#E8E8E8"/>
<path d="M510.7 232.5C517.7 234.3 524.8 234.7 532 233.5C533.9 233.2 533.1 230.3 531.2 230.6C524.6 231.6 518 231.3 511.5 229.6C509.6 229.2 508.8 232.1 510.7 232.5Z" fill="#E8E8E8"/>
<path d="M67.5002 257.6C88.2002 260 109 261.3 129.9 261.5C131.8 261.5 131.8 258.5 129.9 258.5C109 258.3 88.2002 256.9 67.5002 254.6C65.6002 254.4 65.6002 257.4 67.5002 257.6Z" fill="#E8E8E8"/>
<path d="M171.6 260.2C191.1 260.2 210.2 257.8 229.3 254C231.2 253.6 230.4 250.7 228.5 251.1C209.7 254.9 190.9 257.2 171.6 257.2C169.7 257.2 169.7 260.2 171.6 260.2Z" fill="#E8E8E8"/>
<path d="M99.4001 325.7C89.4001 343.5 79.4001 361.3 69.4001 379.1C68.5001 380.8 71.0001 382.3 72.0001 380.6C82.0001 362.8 92.0001 345 102 327.2C102.9 325.5 100.3 324 99.4001 325.7Z" fill="#E8E8E8"/>
<path d="M166.9 307.3C173.4 317.6 179.3 328.1 184.7 339C185.6 340.7 188.2 339.2 187.3 337.5C181.9 326.7 175.9 316.1 169.5 305.8C168.5 304.1 165.9 305.6 166.9 307.3Z" fill="#E8E8E8"/>
<path d="M211.4 285.9C219 290.3 226.5 294.6 234.1 299C235.8 300 237.3 297.4 235.6 296.4C228 292 220.5 287.7 212.9 283.3C211.2 282.3 209.7 284.9 211.4 285.9Z" fill="#E8E8E8"/>
<path d="M410.8 919.9C484.9 899.8 557.9 876 629.6 848.6C665 835.1 700 820.7 734.6 805.4C752.2 797.7 769.6 789.7 787 781.5C804.1 773.5 820.9 764.8 838.2 757.4C858 748.9 879.2 742.2 901 743.6C922.9 745 942.7 755.3 961.8 765.3C963.5 766.2 965 763.6 963.3 762.7C947.3 754.3 930.9 745.7 913 742.1C895.6 738.7 877.9 740.8 861 745.8C843 751.1 826.1 759.4 809.3 767.5C791.8 776 774.1 784.3 756.4 792.3C684.6 824.9 611.2 853.7 536.5 878.7C494.7 892.7 452.6 905.4 410.1 916.9C408.1 917.5 408.9 920.4 410.8 919.9Z" fill="#191919"/>
<path d="M909.2 771.3C923.3 774.1 936.6 768.7 950.5 767.2C966.4 765.5 981.9 770.1 996.7 775.4C1025.3 785.6 1052.7 798.8 1078.5 814.7C1080.2 815.7 1081.7 813.1 1080 812.1C1054.5 796.4 1027.4 783.3 999.2 773.1C985.4 768.1 970.9 763.5 956 763.8C940.5 764.2 925.5 771.4 910 768.4C908.1 768 907.3 770.9 909.2 771.3Z" fill="#191919"/>
<path d="M314.8 995.1C303.9 1012.5 300 1032.8 297.7 1052.9C295 1076.4 292.9 1100 290.6 1123.5C290.4 1125.4 293.4 1125.4 293.6 1123.5C295.8 1101.1 297.9 1078.7 300.3 1056.3C302.6 1035.6 306.1 1014.6 317.4 996.6C318.4 995 315.9 993.5 314.8 995.1Z" fill="#191919"/>
<path d="M385.6 1038.5C367.8 1068.2 365.4 1103.4 365.5 1137.2C365.5 1139.1 368.5 1139.1 368.5 1137.2C368.4 1103.9 370.6 1069.2 388.2 1040C389.2 1038.3 386.6 1036.8 385.6 1038.5Z" fill="#191919"/>
<path d="M234.1 1027.7C251.5 1008.6 271.6 989.8 293.7 976.3C316.7 962.3 343.3 959.8 369.5 957.9C371.4 957.8 371.4 954.8 369.5 954.9C343.4 956.9 316.7 959.3 293.7 972.8C282.5 979.4 272.5 987.7 262.7 996C251.9 1005.2 241.6 1015 232 1025.5C230.7 1027 232.8 1029.1 234.1 1027.7Z" fill="#191919"/>
<path d="M689.3 712.9C744.7 723 799.8 734.7 854.5 748C856.4 748.5 857.2 745.6 855.3 745.1C800.6 731.8 745.5 720.1 690.1 710C688.2 709.7 687.4 712.6 689.3 712.9Z" fill="#191919"/>
<path d="M428.6 505.9C430.2 512.6 432.4 523.6 432.4 537.3C432.4 576.1 415 611.6 409.7 622.3C406.3 629.1 399.5 642.1 395.1 661.3C393.6 667.6 392.8 672.9 392.4 676.5C396.4 676.9 402.5 677.6 409.7 678.7C425.9 681.1 432.7 683.2 442.2 684.7C450.4 685.9 462.1 686.8 476.9 685.2C476.5 688.9 475.8 694.4 474.7 700.9C472.1 717.1 470.8 725.1 467.7 731.2C462.9 740.6 457.6 743.3 459 747.4C460 750.4 463.8 751.8 473.1 753.9C488.4 757.4 496.6 757.8 504.5 759.3C513.3 761 513.6 762.4 532.7 769.6C549.2 775.8 558.7 779.4 570.6 782.1C574.4 783 594.3 787.4 620.4 786.4C635 785.9 640.3 784.1 654 785.3C665.5 786.3 674.8 788.8 681.1 790.7C682 785.1 683.3 776.7 684.3 766.3C686.5 744.1 684.8 740.4 688.1 729.5C690.6 721 691.9 722.4 701.6 701.9C707.9 688.5 711.1 681.8 713.5 673.7C714.9 668.8 719 654.2 718.4 634.7C717.8 614.7 713.2 618.5 711.4 596.8C711.2 594 710.8 587.9 707.4 586.6C704.9 585.6 701.9 587.7 698.4 590C688.8 596.3 680.8 600.4 679 601.3C674 603.7 665.9 605.5 652.8 601.6C654.2 597.1 656 590.9 657.9 583.3C661.2 569.8 662.6 560.2 664.1 549.5C664.1 549.5 667.5 525.7 663 511.8C662.1 509.1 660.8 507 658.8 506.2C656.8 505.4 654.9 506.2 652.9 506.8C650 507.7 645.9 508.5 640.2 508.5C639.4 507.1 638.1 505 636.3 502.9C634 500.2 629.4 495.7 620.5 492.2C609.5 487.8 597.2 487.1 585.3 487.1C565.1 487.1 563.6 489.3 544 489.4C533.7 489.4 525 489.5 513.3 487.7C492.9 484.7 491.4 480.3 480.1 481.5C472.2 482.3 464.9 486.1 450.3 493.6C441.1 498.3 433.8 502.7 428.6 505.9Z" fill="white"/>
<path d="M537.9 577.8C561.6 574.4 583.1 587.9 604.7 595.2C626.8 602.6 650.3 605.3 673.6 603.4C675.5 603.2 675.5 600.2 673.6 600.4C648.7 602.4 623.7 599.1 600.3 590.5C579.8 582.9 559.6 571.7 537.1 575C535.2 575.2 536 578 537.9 577.8Z" fill="#191919"/>
<path d="M546.1 580.9C538 577.5 529.6 564.6 519.9 571.4C515.5 574.4 513.7 580 512.2 584.8C509.8 592.4 508 600.2 506 608C502 624.2 495.8 639 488.7 654.1C482.2 667.7 476.8 681.2 474 696.1C471.4 710 470.1 724.7 462.9 737.2C460.9 740.8 455.1 746.1 459.5 750.1C463.7 754 472 756.1 477.3 757.5C484.3 759.4 491.4 759.8 498.7 760.1C507.6 760.4 515.2 762.6 523.2 766.1C537.7 772.3 552.1 778.8 567.3 783.1C585.3 788.2 602.5 788.3 621.1 787.1C641 785.8 660.5 787.3 679.8 792.4C680.6 792.6 681.3 792.1 681.6 791.4C688.9 772.9 683.5 752.7 688.7 733.8C693.9 714.9 707.3 699.6 713.2 680.9C719 662.9 720 643.5 717.8 624.8C716.8 615.8 715 606.9 712.6 598.2C711.4 593.7 710.3 582.8 703.2 585.4C698.9 587 694.7 590.4 690.9 593C686.7 595.8 682.5 598.7 678.1 601.3C668.8 607 658.9 611.5 647.8 611.4C645.9 611.4 645.9 614.4 647.8 614.4C663.9 614.5 677.4 605.5 690.3 596.9C693.6 594.7 696.9 592.4 700.4 590.4C700.8 590.1 702.4 588.9 703.1 588.8C708 588 706.4 589.7 707.5 591.6C708.7 593.6 709.1 596.8 709.7 599C712.2 608 714 617.2 715 626.6C716.9 644.8 715.8 663.5 710 681C704.3 698.3 692.4 712.6 686.7 729.8C680.1 749.6 686.4 771.2 678.6 790.7C679.2 790.4 679.8 790 680.4 789.7C666 785.9 651.3 783.9 636.4 783.8C620.9 783.7 605.4 786.4 589.9 784.8C574.8 783.2 560.2 778.5 546.1 772.9C533.2 767.8 520 759.8 506.1 757.9C499 756.9 491.7 757.5 484.6 756.3C478.1 755.2 468.9 753.5 463.7 749.5C461.4 747.7 461 746.4 462.2 743.7C462.8 742.3 464.1 741 464.8 739.7C466.2 737.3 467.4 734.9 468.4 732.3C470.8 726.4 472.3 720.2 473.6 713.9C476.2 700.8 477.8 687.7 482.5 675.1C487.5 661.7 494.6 649.1 500.1 635.9C506.5 620.6 509.2 604.3 514 588.4C516.1 581.5 519.7 569.2 529.4 573.6C534.9 576.1 538.7 581.3 544.3 583.7C546.4 584.2 547.9 581.6 546.1 580.9Z" fill="#191919"/>
<path d="M588.5 613.1C602.1 617.9 616.2 619.2 630.5 617.1C632.4 616.8 631.6 613.9 629.7 614.2C616 616.2 602.4 614.8 589.3 610.2C587.4 609.5 586.7 612.4 588.5 613.1Z" fill="#191919"/>
<path d="M655.9 603.8C666 604.4 675.9 603.2 685.5 600.1C687.3 599.5 686.5 596.6 684.7 597.2C675.3 600.2 665.8 601.4 655.9 600.7C653.9 600.7 654 603.7 655.9 603.8Z" fill="#191919"/>
<path d="M431.8 506.6C440.2 501.5 448.5 496.4 456.9 491.4C464.9 486.6 472.7 482.9 482.3 483.2C492.3 483.6 502.1 486.9 511.9 488.7C520.6 490.2 529.5 491.1 538.3 491.4C570.5 492.3 613.5 478.6 637.8 507.5C639 509 641.2 506.8 639.9 505.4C615.3 476.2 572.8 489 540.2 488.5C529.7 488.3 519.2 487.2 508.8 485.2C499.4 483.3 490 480.2 480.4 480.3C471.7 480.4 464.2 483.7 456.8 488C447.9 493.2 439.1 498.7 430.3 504.1C428.6 505 430.1 507.6 431.8 506.6Z" fill="#191919"/>
<path d="M597.5 513.2C609.5 514.6 621.5 514.3 633.4 512.2C638.9 511.2 644.3 509.3 649.8 508.5C652.8 508.1 656.4 507.8 659.1 509.4C662.8 511.5 663.1 516.2 663.2 520C663.6 546.7 659.4 573.7 651.9 599.3C651.4 601.2 654.3 602 654.8 600.1C659 585.8 662.1 571.2 664 556.5C665 548.9 665.6 541.2 666 533.5C666.3 527.1 667.4 519.4 665.5 513.2C662.4 502.8 650.3 505.2 642.4 507.2C627.6 511 612.6 512.1 597.5 510.3C595.6 509.9 595.6 512.9 597.5 513.2Z" fill="#191919"/>
<path d="M427 505.2C427.3 521.9 433 538 431.9 554.9C430.9 569.8 425.9 584 420.1 597.6C409.1 623.4 394.5 648.1 391.1 676.4C391 677.2 391.9 677.9 392.6 677.9C400.2 677.7 407.3 679.7 414.6 681.5C421.5 683.2 428.4 684.6 435.5 685.6C449.5 687.5 463.7 687.8 477.8 686.6C479.7 686.4 479.7 683.4 477.8 683.6C463 684.9 448 684.5 433.3 682.3C419.8 680.2 406.5 674.7 392.7 675C393.2 675.5 393.7 676 394.2 676.5C397.8 647.1 413.8 621.6 424.8 594.6C430 581.9 434.1 568.7 435.1 555C436.2 538.2 430.5 522.1 430.2 505.3C430 503.2 427 503.2 427 505.2Z" fill="#191919"/>
<path opacity="0.13" d="M565.6 577.5C571 578.2 590.5 580.9 604.5 572C615.7 564.9 623.9 549.9 623.9 536.1C623.9 526.7 620 518.2 624.9 513.7C626.2 512.5 627 512.7 632.9 511.2C647.3 507.6 649.2 504.8 654.3 506.2C660.3 507.8 663.4 513 663.8 513.7C667.1 519.4 665.6 525.7 664.8 529.6C659.2 556.6 664.5 557.4 656.3 587.9C654.7 593.7 653.3 598.4 652.3 601.4C656.5 601.9 662.1 602.2 668.7 601.4C674.4 600.7 682.4 599.7 690.6 594.9C698.8 590.1 701.3 584.9 705 585.9C708.3 586.8 709.6 591.6 710.5 594.9C716.7 618.7 716.5 630.3 716.5 630.3C716 656.7 715.8 670 714 676.6C706.2 705.6 691.8 702.4 688.1 726.9C685.8 742.2 690.3 750.6 685.1 772.7C683.3 780.2 681.2 786.2 679.6 790.1C672.6 788.1 661.5 785.5 647.7 784.6C627.4 783.3 619.6 786.9 599.9 786.6C582.7 786.4 553.9 783.2 553.1 776.1C551.8 765.9 611 760.7 614.9 736.7C617.5 720.8 593.7 712.9 583 685.9C572.6 659.8 581 631.9 589.5 612.7C601.6 613.9 613.7 615 625.9 616.2C565.5 586.2 553.9 578.1 554.7 576.3C555 575.6 558.7 576.5 565.6 577.5Z" fill="#6C6D6D"/>
<path opacity="0.16" d="M707.1 587.5C703.9 587.7 705.3 605.5 699.1 635.3C698.3 639.1 691.9 669.5 677.7 699.6C668.7 718.7 650 751.5 612.4 783.8C635 786.6 657.6 789.4 680.2 792.3C681.6 787.6 683.7 780.2 685.2 770.9C688.8 749.2 685.5 742.7 689.2 728.1C692.7 714.3 696.9 714.8 705.1 696.2C706.2 693.7 714.3 675.2 717.1 653.9C721.5 619.8 711.5 587.2 707.1 587.5Z" fill="#6C6D6D"/>
<path opacity="0.18" d="M663.3 544.6C661.3 544 657.7 559.4 645.4 571.5C631.7 585 612.7 588.8 596.6 589.4C606.1 593.3 618.4 597.3 633 599.4C640.6 600.5 647.6 600.9 653.9 600.9C664 556.7 665 545.1 663.3 544.6Z" fill="#6C6D6D"/>
<path d="M137.3 958.6C140.1 977.6 142.9 996.5 145.6 1015.5C103.6 1070.8 85.3001 1101.1 90.8001 1106.3C96.7001 1111.9 130.3 1088.4 191.6 1035.8C189.5 1003.1 187.4 970.5 185.3 937.8C169.3 944.7 153.3 951.7 137.3 958.6Z" fill="#191919"/>
<path d="M303 702.5C280.9 709.7 236.9 726.6 193.1 763.6C174.6 779.2 155.8 795.3 140.4 823.1C127.2 846.9 123.3 867.1 117.5 898.7C113.1 922.7 108.5 957.1 109.1 999.4C122.3 998.4 136.3 997 151.1 994.8C169.8 992.1 187.1 988.7 203 984.9C202.8 964 204.6 937.9 211.4 908.6C215.9 889.3 221.6 872.5 227.4 858.2C268.9 819.8 307.4 801.8 335.8 792.6C370.1 781.4 398.5 780.1 420.5 754.4C433.6 739.2 447.8 711.4 438.1 695.6C418.9 664.6 317.7 697.7 303 702.5Z" fill="white" stroke="#191919" stroke-width="2"/>
<path opacity="0.14" d="M426.1 687C420 688.2 421.7 704.1 416.4 718.4C406.8 744 378.2 755.3 355.2 764.4C219.9 818.2 205 828.8 193.3 845.1C182.2 860.6 177.4 877.1 167.9 910.1C158.2 943.6 154.7 972.7 153.3 993.5C169.9 990.8 186.5 988.1 203.1 985.4C203 974.4 203.5 962.6 204.7 950.2C208.4 913.1 217.6 881.7 227.4 857.1C233.7 851.9 242.5 844.9 253.4 837.1C275.6 821.2 291.6 809.7 313.5 800.8C330.6 793.8 332 796.3 374.7 781.9C386.5 777.9 392.9 775.5 400.7 770.5C418.7 759 427.6 744.2 431.6 737.5C438.3 726.1 443.2 717.8 441.3 707.2C439.5 696.4 431.4 685.9 426.1 687Z" fill="#6C6D6D"/>
<path opacity="0.16" d="M281.6 814.8C245.1 821.5 225.6 838 216.6 847.3C199.6 864.9 192.6 886.9 179.2 930.1C171.5 955 166.6 976 163.5 990.7C176 989.1 188.4 987.5 200.9 985.8C201.3 964.7 203.5 946.9 205.8 933.3C207.2 924.7 209.6 910.9 215 893.2C219.4 878.8 224.3 866.7 228.5 857.5C246.2 843.3 263.9 829 281.6 814.8Z" fill="#6C6D6D"/>
<path d="M156.4 791.2C160.3 787.2 166.3 781.9 174.7 778.2C197.1 768.4 220.2 776.6 234.1 781.4C265.2 792.2 298.2 797.8 328 811.6C373.1 832.5 432.3 860 494.2 871C563.6 883.3 578.4 864.6 672.3 878.6C706.9 883.7 734.9 890.7 753.2 895.9C745.2 912 736.9 917.1 730.5 918.6C726.2 919.6 724 918.7 720.8 920.8C712.8 926 717 937.8 711.1 946.7C705.3 955.4 694.1 954.6 682 957.5C657.4 963.3 655 977.8 627 996.4C613.4 1005.4 587.8 1022.3 559 1021.2C528.1 1020 524.2 999.3 489.9 987.7C447.1 973.3 434.1 999.4 376.6 995.3C364.5 994.4 304.9 990.2 263.3 948.9C234.9 920.8 240.1 900.3 208.3 868C184 843.3 156.8 830.5 138.1 823.7C140.4 818.9 143 814 145.8 808.9C149.3 802.5 152.9 796.7 156.4 791.2Z" fill="white" stroke="#191919" stroke-width="2"/>
<path d="M168.7 791C182.6 791.4 196.1 794.5 208.8 800.2C210.1 800.8 211.3 798.9 209.9 798.3C196.8 792.4 183 789.2 168.7 788.7C167.2 788.7 167.2 791 168.7 791Z" fill="#191919"/>
<path d="M201.8 847.7C225.4 861.2 237.9 886.4 254.3 907C271.7 928.8 294.1 946.3 319.4 958.1C320.7 958.7 321.8 956.8 320.5 956.2C294.1 943.8 270.9 925.3 253.2 902C238 882 225.5 858.7 203 845.8C201.7 845 200.5 847 201.8 847.7Z" fill="#191919"/>
<path d="M632.1 917.5C660.3 917.8 688.5 916.2 716.5 912.8C717.9 912.6 717.9 910.4 716.5 910.5C688.5 913.9 660.3 915.5 632.1 915.2C630.6 915.3 630.6 917.5 632.1 917.5Z" fill="#191919"/>
<path d="M623.6 954.8C634 958.6 644.6 961.8 655.3 964.2C656.7 964.5 657.3 962.4 655.9 962C645.1 959.5 634.5 956.4 624.2 952.6C622.8 952.1 622.2 954.3 623.6 954.8Z" fill="#191919"/>
<path d="M272.9 885.7C297.6 907.6 327.5 925 359.5 933.7C375.6 938 392 938.7 408.3 935.2C425.5 931.5 441.5 924.1 456.8 915.5C458.1 914.8 456.9 912.8 455.7 913.6C441.1 921.8 425.8 928.9 409.5 932.7C392.4 936.7 375.3 935.9 358.4 931.1C327.4 922.3 298.6 905.5 274.5 884.2C273.4 883.1 271.8 884.7 272.9 885.7Z" fill="#191919"/>
<path d="M412.2 872.5C418.8 873.8 424.8 876.7 429.6 881.5C434.8 886.7 440.3 898.8 430.1 902.2C428.7 902.7 429.3 904.8 430.7 904.4C438.5 901.8 439.6 893 436.1 886.4C431.5 877.7 422.1 872.2 412.8 870.4C411.4 870.1 410.8 872.3 412.2 872.5Z" fill="#191919"/>
<path d="M446.4 931.1C467.9 917.2 493.7 914.5 518.6 912.2C520 912.1 520 909.8 518.6 909.9C493.3 912.2 467.1 915 445.3 929.1C444.1 929.9 445.2 931.9 446.4 931.1Z" fill="#191919"/>
<path d="M237 796.8C259.1 802.7 276.5 817.8 294.9 830.5C314 843.7 334.9 854.1 356.9 861.4C358.3 861.9 358.9 859.7 357.5 859.2C334.5 851.6 313 840.6 293.3 826.6C275.7 814.2 258.7 800.2 237.5 794.5C236.2 794.3 235.6 796.4 237 796.8Z" fill="#191919"/>
<path opacity="0.13" d="M212.7 774.3C241 787.5 261.3 801.4 274.6 811.7C288.8 822.7 293.4 828.4 308.8 838C317.1 843.2 334.3 853.9 358.7 861.5C388.7 870.9 401.7 866.8 413.2 880C414.7 881.7 423.3 891.5 422 903.5C420.4 918.5 404.3 932 381.4 935.4C387.9 935.5 395.2 935.1 403.1 934C421.8 931.4 436.9 925.6 447.9 920.2C444.4 924.3 440.8 929 441.9 930.4C443.4 932.3 453.1 926.8 459.9 923.5C472.4 917.4 480.7 916.6 510.2 912C575.3 901.9 581.6 899 602.1 900.9C617.9 902.4 636.3 906.3 636.3 909.7C636.2 913.2 615.9 914.5 616 916.2C616.2 918.3 652.2 928.1 688 915.3C696.1 912.4 716.4 904 723.5 911.6C725.5 913.7 726.5 917.2 730 918.1C734.2 919.2 738.6 915.5 741.5 913C744.6 910.4 749.6 905.3 753 896.4C751.1 895.8 748.4 895 745.2 894.1C738.4 892.2 718.2 886.6 688.9 881.6C679.8 880.1 662.8 877.2 642.7 875.6C600.6 872.2 589.5 877.5 551.3 876.5C541.5 876.2 512 875.1 476 867.3C443.9 860.3 420.8 851.1 382.3 835.4C348.8 821.8 345 818.4 320 808.2C295.5 798.1 259.5 785 212.7 774.3Z" fill="#6C6D6D"/>
<path opacity="0.18" d="M503.6 991.3C514.1 986.9 526.6 982.7 541 979.8C547 978.6 552.7 977.7 558.1 977C556.5 980.8 554.8 984.6 553 988.5C548.4 998.6 543.6 1007.9 538.7 1016.7C527 1008.3 515.3 999.8 503.6 991.3Z" fill="#6C6D6D"/>
<path opacity="0.15" d="M684.5 934.1C659.1 939.9 640.3 938.2 640.2 939.6C640.1 940.8 652.8 943.1 709 948.4C710.7 944.5 712.5 940.2 714.1 935.5C715.6 931.1 716.8 926.9 717.8 923C710 926.5 698.7 930.9 684.5 934.1Z" fill="#6C6D6D"/>
<path opacity="0.22" d="M413.1 871.8C412.7 872.6 422.5 874.8 427.4 883.3C431 889.6 430.7 896.9 429.2 903.2C430.2 902.8 436 900.4 437.5 894.9C439 889.2 434.8 884.3 432.4 881.5C425 872.7 413.5 870.9 413.1 871.8Z" fill="#6C6D6D"/>
<path opacity="0.15" d="M553.4 875.5C588 872.1 632.1 871.3 682.2 879.7C707.8 884 730.9 889.9 751 896.3C750.2 899.1 748.4 903.8 744.5 908.3C744.5 908.3 740.5 912.9 734.3 916.1C719 924 695.1 916.1 693.7 915.6C700.3 914.7 707.6 913.2 715.4 911C719.9 909.7 724 908.3 727.9 906.8C714.7 901.3 700.2 896.1 684.5 891.6C634.6 877.1 589.2 874.3 553.4 875.5Z" fill="#6C6D6D"/>
<path d="M611 907.2C612.1 905.9 613.7 906 617.9 905.2C622.9 904.2 626.8 902.9 629.5 901.9C644.6 897.7 655.6 892.1 663.1 887.6C679.1 877.9 686.3 868.7 695.9 870.8C702 872.2 707.6 877.9 707.1 882.7C706.7 886.8 702.1 889.5 679.1 898.2C643.4 911.7 646.7 908.1 636 913.7C626.2 918.9 620.7 923.3 615.7 921.1C610.8 918.7 608.3 910.3 611 907.2Z" fill="#191919"/>
<path d="M799.5 826.7C784.8 838.3 785.1 857.2 785.1 858.8C785.3 865 786.9 869.9 788.1 872.8C770.4 881.8 767.5 885.5 768 887.2C769.4 891.6 795.7 892.3 807.8 877.5C810.6 874.1 811.7 870.7 813.8 864.1C818 851 823.7 824.6 815.5 820.3C810.8 817.9 803.1 823.9 799.5 826.7Z" fill="#191919"/>
<path d="M693.6 879.7C695.8 875.2 701.2 874.2 711.2 871.9C722.2 869.4 740.8 865.1 751.2 861.2C763.2 856.6 770.3 850.2 782.5 839.2C806.9 817.2 808 803.6 819 803.1C832.7 802.5 849.8 822.6 848.1 840.5C846.8 854.5 834.5 862.4 811.6 877C806.3 880.4 783.4 894.6 748.1 902.3C727.1 906.9 712.2 910 701.8 901.3C695.3 895.9 690.6 885.9 693.6 879.7Z" fill="#191919"/>
<path d="M825.4 832.8C810.7 844.4 811 863.3 811 864.9C811.2 871.1 812.8 876 814 878.9C796.3 887.9 793.4 891.6 793.9 893.3C795.3 897.7 821.6 898.4 833.7 883.6C836.5 880.2 837.6 876.8 839.7 870.2C843.9 857.1 849.6 830.7 841.4 826.4C836.6 823.9 828.9 830 825.4 832.8Z" fill="#191919"/>
<path d="M808.3 812.8C810.1 811.1 812.5 808.7 815.1 805.6C816.7 803.7 822.7 796.5 829.2 782.6C832.9 774.8 835.8 768.6 837.8 759.4C839.7 750.5 841.3 742.6 837.4 735.8C834.2 730.2 830.5 727.2 830.5 727.2C827.2 724.6 824.4 723.6 824.5 722C824.7 720.6 827.2 719.4 829.5 719.4C836.5 719.3 841.7 731.6 842.6 733.6C847.2 744.5 845.5 754.9 844.7 758.5C844.2 760.6 844.2 760 840.4 771.4C836.7 782.6 836.8 782.8 835.2 787.3C829.8 802.5 826.8 810.9 819.8 813.5C817.8 814.3 814 815 808.3 812.8Z" fill="#191919"/>
<path d="M672.2 896.7C668.7 895 659.1 890.4 658.6 883.4C658.5 882.2 659.6 877.9 661.7 869.4C662.6 865.8 662.7 865.6 663.1 863.8C664.4 857.9 664 856.7 665.2 854C665.7 852.9 667.9 847.8 670.8 847.7C673.4 847.6 676.3 851.7 677.4 857.8C682.4 857.7 688.8 857.6 693.8 857.5C699.2 857.4 705.6 857.3 710.9 857.2C711.9 855.6 713.6 853.3 716.1 850.9C718.5 848.6 720.2 847 721.7 847.4C723.7 847.9 724.1 852 724.8 857.2C727.3 875.3 729.5 876.8 727.6 881.7C725.6 886.7 721.6 889.3 717.1 892.2C716.2 892.9 693.5 907 672.2 896.7Z" fill="#191919"/>
<path d="M669.1 873C672.6 872.3 675.6 874.4 678.3 876.4C678.7 876.7 679.1 876 678.7 875.8C675.8 873.6 672.7 871.6 668.9 872.3C668.5 872.3 668.7 873.1 669.1 873Z" fill="white"/>
<path d="M693 876.4C696.2 874 699.8 872.5 703.7 872C704.2 871.9 704.2 871.2 703.7 871.2C699.6 871.7 695.9 873.2 692.6 875.7C692.3 876 692.6 876.7 693 876.4Z" fill="white"/>
<path d="M675.6 865.6C676.6 864.8 677.8 864.5 679.1 864.8C679.6 864.9 679.8 864.2 679.3 864.1C677.8 863.7 676.3 864.1 675.1 865.1C674.7 865.4 675.2 865.9 675.6 865.6Z" fill="white"/>
<path d="M692.8 865.1C693.9 864.7 695 864.8 696 865.5C696.4 865.8 696.8 865.1 696.4 864.9C695.3 864.2 693.9 864 692.7 864.5C692.1 864.6 692.3 865.3 692.8 865.1Z" fill="white"/>
<path d="M684.7 880.7C684.8 880.6 684.9 880.5 685 880.3C684.8 880.2 684.7 880.1 684.5 880C684.6 880.5 684.5 881 684.2 881.4C684.3 881.3 684.5 881.3 684.6 881.2C684.3 880.8 684.3 880.4 684.5 880.1C684.3 880.2 684.1 880.2 683.9 880.3C683.9 880.7 683.9 881.1 684 881.5C684.2 881.6 684.4 881.7 684.6 881.8C684.6 881.5 684.6 881.1 684.7 880.7C684.4 880.7 684.2 880.7 683.9 880.7C684.1 881.8 684 883 683.4 884C683.2 884.4 682.7 885.1 682.2 885.4C680.6 886.2 680.6 884.1 680.6 883.4C680.6 882.9 679.8 882.9 679.8 883.4C679.8 884.3 679.9 885.3 680.6 886C681.3 886.6 682.1 886.5 682.8 885.9C684.4 884.7 684.9 882.5 684.5 880.6C684.4 880.2 683.8 880.3 683.8 880.7C683.8 881.1 683.8 881.5 683.8 881.9C683.8 882.2 684.2 882.4 684.4 882.2C685 881.5 685 880.6 684.3 880C684.1 879.8 683.8 879.9 683.7 880.2C683.4 881 683.3 881.9 684.3 882.2C684.5 882.3 684.6 882.2 684.7 882C685.2 881.4 685.3 880.7 685.1 880C685 879.8 684.8 879.7 684.6 879.7C684 879.9 683.8 880.2 683.7 880.8C683.9 881.2 684.7 881.2 684.7 880.7Z" fill="white"/>
<path d="M684.4 881C683.6 882.8 683.9 885.7 685.9 886.7C688.1 887.8 689 885 689.2 883.4C689.2 882.9 688.5 882.9 688.4 883.4C688.3 884.1 688.3 884.8 687.9 885.4C687.2 886.5 686 886.2 685.3 885.3C684.4 884.1 684.4 882.6 685 881.2C685.3 880.8 684.6 880.6 684.4 881Z" fill="white"/>
<path d="M676.1 878.8C673.8 877.6 671.6 876.3 669.5 874.9C669.1 874.6 668.7 875.3 669.1 875.5C671.2 876.9 673.4 878.2 675.7 879.4C676.2 879.7 676.6 879 676.1 878.8Z" fill="white"/>
<path d="M675.3 881.2C673.1 880.9 670.9 880.9 668.6 881.2C668.1 881.3 668.1 882 668.6 882C670.8 881.7 673 881.7 675.3 882C675.8 882 675.8 881.2 675.3 881.2Z" fill="white"/>
<path d="M675.2 882.4C673.1 883.1 671.2 884.4 669.8 886.1C669.5 886.5 670 887 670.3 886.6C671.6 884.9 673.4 883.7 675.4 883.1C675.9 882.9 675.7 882.2 675.2 882.4Z" fill="white"/>
<path d="M692.4 881.8C695.5 879.7 699 878.5 702.7 878.3C703.2 878.3 703.2 877.5 702.7 877.5C698.8 877.8 695.2 879 692 881.1C691.6 881.4 692 882.1 692.4 881.8Z" fill="white"/>
<path d="M693.8 883.6C696.7 882.7 699.6 883 702.2 884.4C702.6 884.6 703 884 702.6 883.8C699.8 882.3 696.7 882 693.6 882.9C693.1 883 693.3 883.7 693.8 883.6Z" fill="white"/>
<path d="M695 885.4C697.4 885.9 699.4 887.1 701 888.9C701.3 889.3 701.8 888.7 701.5 888.4C699.8 886.5 697.7 885.2 695.2 884.7C694.7 884.5 694.5 885.3 695 885.4Z" fill="white"/>
<path d="M719.8 852.4C718.5 854.4 717.6 856.6 717.2 858.9C717.2 859.2 717.4 859.4 717.7 859.4C718.1 859.3 718.1 859.2 718.5 859C718.3 859.1 720.5 857.5 719.8 859C719.6 859.3 720 859.7 720.3 859.5C720.7 859.5 721.1 859.6 721.5 859.6C721.2 860 721.7 860.5 722 860.1C722.3 859.7 722.4 859.2 722 858.8C721.4 858.2 720.6 858.5 719.9 858.9C720.1 859.1 720.2 859.2 720.4 859.4C720.7 858.8 721 858 720.2 857.5C719.1 856.8 718.3 858.4 717.5 858.7C717.7 858.9 717.8 859 718 859.2C718.4 856.9 719.3 854.8 720.5 852.9C720.7 852.4 720.1 852 719.8 852.4Z" fill="white"/>
<path d="M670.2 852.8C670.7 854.5 670.9 856.2 670.8 857.9C671.1 857.9 671.3 857.9 671.6 857.9C671.6 856.7 670.2 855.8 669.3 856.9C669.1 857.1 669.1 857.4 668.9 857.5C668.7 857.7 668.4 857.8 668.1 858C667.5 858.6 667.4 859.3 667.6 860C667.7 860.5 668.4 860.3 668.3 859.8C668.2 858.9 668.5 858.3 669.4 858.1C669.6 858.1 669.7 857.9 669.7 857.7C670.1 857.7 670.4 857.7 670.8 857.7C670.8 858.2 671.5 858.2 671.6 857.7C671.8 855.9 671.6 854.1 671 852.4C670.8 852.1 670.1 852.3 670.2 852.8Z" fill="white"/>
<path d="M632.8 922C633.9 920.7 635.5 920.8 639.7 920C644.7 919 648.6 917.7 651.3 916.7C666.4 912.5 677.4 906.9 684.9 902.4C700.9 892.7 708.1 883.5 717.7 885.6C723.8 887 729.4 892.7 728.9 897.5C728.5 901.6 723.9 904.3 700.9 913C665.2 926.5 668.5 922.9 657.8 928.5C648 933.7 642.5 938.1 637.5 935.9C632.5 933.6 630.1 925.2 632.8 922Z" fill="#191919"/>
<path d="M350.4 487.8C343 483.9 333.4 488.2 328.1 490.6C318.7 494.8 308.1 503.4 296 531.7C289.2 547.5 280.6 572.7 277.9 606.3C267.3 610.9 252.3 615.9 234 616.8C214.2 617.7 203.9 613.2 198.4 619.6C191.5 627.6 197.4 646.8 208.2 658C220.3 670.6 236.9 671.4 248 671.9C256.1 672.3 285.6 672.7 312.2 652.4C337.9 632.7 344.8 605.9 352.7 575.7C354.7 567.1 371.8 499 350.4 487.8Z" fill="white" stroke="#191919" stroke-width="2"/>
<path opacity="0.12" d="M342.2 486.7C333.5 489.8 338.4 514.8 336.2 543C335.7 549 332.2 590.9 314.5 616.1C286 656.6 220 654.3 204.6 653.5C206.4 656.6 209.6 661.1 214.9 664.9C220.9 669.1 227.4 670.7 236 671.4C245 672.1 259.3 673.3 278.2 667.6C288 664.6 312.9 657.1 329.6 634C334.2 627.7 336.8 621.5 342.1 609.1C344.9 602.5 351.6 585.8 356.7 561.5C356.7 561.5 360.1 545.2 359.9 505.2C359.9 500.7 358.9 496.8 356.1 493.3C352.9 488.9 346.3 485.2 342.2 486.7Z" fill="#6C6D6D"/>
<path opacity="0.25" d="M353.6 559.8C352.5 559.5 349.5 575.6 335.7 600.4C326.7 616.7 314.8 637.4 292.9 652.9C270.5 668.7 249.4 670.7 249.6 671.3C249.8 672.1 292.5 670.7 321.6 642.6C354.1 611.2 355.5 560.3 353.6 559.8Z" fill="#6C6D6D"/>
<path d="M351.7 470.5C337.8 480.1 329.6 490.7 325.7 495.8C302.6 526.2 299.9 559.3 299 573.8C296.9 606 305.7 612.9 306.9 663.3C307.3 680 306.7 693.7 306.2 702.3C318.4 711.2 344.6 727.9 382 732.6C427.9 738.4 463.2 722.8 476.6 716C484.4 708.7 495.1 697.6 505 682.2C515.2 666.4 522.3 649.5 531.9 610.2C537.6 586.8 544.2 555.7 549.3 518.1C541.3 506.6 513.1 469.4 461.4 456.1C452.1 453.7 396.7 439.5 351.7 470.5Z" fill="#EC615B"/>
<path opacity="0.09" d="M454.6 454.7C457.9 464.9 461.7 479.8 462.9 498C465 528.3 459 554.9 446.2 588.7C424.2 647 393.6 696.1 369.1 730.5C378.4 732.1 389.1 733.2 400.9 733.1C433.1 732.9 459 724 476 716.4C481.9 710.7 490.1 702 498.4 690.3C502 685.3 512.9 669.4 522.9 642.4C541.1 593.4 547.1 532.6 548.4 517.8C540.4 505.9 524.5 486 497.8 470.9C481.5 461.6 466.1 457.1 454.6 454.7Z" fill="#6C6D6D"/>
<path opacity="0.14" d="M545.8 535C531.7 573.2 517.1 603.6 505.7 625.2C493.3 648.7 486.2 661.9 473.9 676.8C449 706.9 419.1 724.1 395.7 734.1C405.6 733.9 417.3 732.9 430.1 730.5C448 727 462.9 721.6 474.4 716.4C481.5 710.8 491.2 702.2 500.5 689.8C512.5 673.7 519.3 657.2 528.1 623.6C534.1 600.8 540.8 570.9 545.8 535Z" fill="#6C6D6D"/>
<path d="M311.6 868.6C302.2 885.3 292.8 902 283.4 918.7C216.3 936.7 183.3 949.5 184.5 957C185.7 965.1 226.7 967.1 307.3 962.9C325.6 935.8 343.9 908.6 362.3 881.5C345.4 877.2 328.5 872.9 311.6 868.6Z" fill="#191919"/>
<path d="M488.8 695.7C514.5 710.9 518.5 755.4 506.6 786.3C487.4 835.9 429.3 844.8 426.8 845.1C449.6 818.9 460.9 805.8 460.9 805.7C460.8 805.6 425.5 845.7 355 925.9C348.1 925 319.4 920.6 299.1 895.4C287.3 880.8 283.5 865.5 282.2 857.3C324.3 808.7 366.3 760.2 408.4 711.6C433 688.4 466.4 682.5 488.8 695.7Z" fill="white" stroke="#191919" stroke-width="2"/>
<path opacity="0.16" d="M490.7 698.3C491.5 711.3 491 730.9 482.4 751.8C471.4 778.7 452.6 794.3 439.7 804.7C402.3 834.9 359.6 868.8 311 905.4C314.5 908.7 318.9 912.3 324.4 915.6C335.9 922.6 346.9 925.3 354.4 926.4C378.6 899.2 402.8 872 427 844.8C433.9 843.8 443.6 841.7 454.4 837.2C464.6 832.9 482.6 825 496.5 806C508.5 789.4 511.1 772.9 512.4 763.9C513.9 753.3 515.9 739.9 509.9 724.4C504.6 711 495.8 702.5 490.7 698.3Z" fill="#6C6D6D"/>
<path opacity="0.19" d="M509.8 732C507.6 745.2 502.9 763.5 492 783C471.2 819.8 440.6 838.1 426.4 845.5C437.6 843.7 461 838.3 481.8 819.4C487.7 814 499.5 803.1 506.7 784.4C515.5 761.1 511.8 740.4 509.8 732Z" fill="#6C6D6D"/>
<path opacity="0.12" d="M459.5 805.3C456.8 802.6 413.7 840.4 330.1 918.7C338 921.5 345.8 924.2 353.7 927C426.8 848.5 462.1 807.9 459.5 805.3Z" fill="#6C6D6D"/>
<path d="M186 535.4C187 535.4 188.1 535.4 189.1 535.4C189.4 534.3 189.7 533.1 190 532C191.2 534.5 193.2 538.6 195.7 543.7C206.7 566 208.9 569.7 210.9 576.4C212.5 581.9 214.4 589.8 215 599.9C216.9 598.6 219.7 596.8 223.3 594.8C242.7 584.2 258.9 584.1 273.5 581.5C284.4 579.5 299.7 575.1 317.6 564.4C316.5 565.9 315.4 567.5 314.3 569C316 569.6 317.8 570.3 319.5 570.9C320.5 572.2 321.8 574.3 322.9 577C328.7 591.3 320.1 607 311.8 621.4C277.9 681 274.4 684.1 268.3 687.1C265.8 688.4 240.6 700.7 222.7 689.3C219 687 212.3 681.5 203.7 642.6C197.8 616.1 197.1 601.3 191.5 566.5C189.4 553.3 187.4 542.5 186 535.4Z" fill="white" stroke="#191919" stroke-width="2"/>
<path d="M191.7 540.9C200.2 559.1 208.6 577.6 211.2 597.6C211.3 598.1 212 598.1 212 597.6C209.4 577.4 201 558.8 192.4 540.5C192.1 540.1 191.5 540.5 191.7 540.9Z" fill="#191919"/>
<path d="M188.5 537.7C193.5 548.3 197.6 559.2 201 570.4C201.1 570.9 201.9 570.7 201.7 570.2C198.3 558.9 194.1 548 189.1 537.3C188.9 536.9 188.3 537.3 188.5 537.7Z" fill="#191919"/>
<path d="M202.2 569.8C205.5 578.8 207.7 588.1 209 597.6C209.1 598.1 209.8 598.1 209.8 597.6C208.5 588 206.3 578.7 203 569.6C202.8 569.2 202 569.4 202.2 569.8Z" fill="#191919"/>
<path d="M193.5 555.6C198.1 566.9 202.1 578.5 205.4 590.3C205.5 590.8 206.3 590.6 206.1 590.1C202.8 578.3 198.8 566.7 194.2 555.4C194.1 554.9 193.3 555.1 193.5 555.6Z" fill="#191919"/>
<path d="M216.8 602.4C229.3 594.1 243.3 588.7 258.2 586.6C258.7 586.5 258.5 585.8 258 585.9C243 588 229 593.4 216.4 601.7C216 602 216.4 602.7 216.8 602.4Z" fill="#191919"/>
<path d="M223 601.2C236 593.3 250.7 590.3 265.3 587C280.8 583.5 295.9 578.8 310.6 572.8C311 572.6 310.8 571.9 310.4 572.1C295.2 578.4 279.5 583.1 263.4 586.7C249.3 589.9 235.1 593 222.6 600.6C222.3 600.8 222.6 601.4 223 601.2Z" fill="#191919"/>
<path d="M220.6 604.7C236 597.4 251.7 592.9 268.2 588.9C284.4 584.9 300.1 578.7 315.9 573.3C316.4 573.1 316.2 572.4 315.7 572.6C299.4 578.2 283.1 584.7 266.3 588.6C250.4 592.4 235.1 597.1 220.2 604.1C219.8 604.3 220.2 604.9 220.6 604.7Z" fill="#191919"/>
<path d="M185.5 535.2C192.8 558.3 200.2 581.3 207.5 604.4C211.1 605.6 214.7 606.8 218.3 608C252.5 596.7 286.6 585.5 320.8 574.2C322 575.2 323.2 576.2 324.4 577.3C328.3 624.8 332.3 672.2 336.2 719.7C334.8 720.6 333.5 721.4 332.1 722.3C297.4 727.6 262.8 732.9 228.1 738.2C223.1 737 218.2 735.8 213.2 734.6C208.8 715.1 204.3 695.7 199.9 676.2C193.4 630.1 186.9 584 180.4 537.9C182.1 536.9 183.8 536.1 185.5 535.2Z" fill="white" stroke="#191919" stroke-width="2"/>
<path d="M205.8 605C207.4 648.3 210.5 691.7 212.9 735C213 736.4 215.2 736.4 215.2 735C212.8 691.7 209.7 648.4 208.1 605C208 603.6 205.8 603.6 205.8 605Z" fill="#191919"/>
<path d="M216.2 607.8C217.6 620.1 218.2 632.4 218.2 644.8C218.2 646.2 220.4 646.2 220.5 644.8C220.5 632.4 219.9 620.1 218.5 607.8C218.3 606.3 216 606.3 216.2 607.8Z" fill="#191919"/>
<path d="M243.5 611.2C244.1 618.7 244.6 626.2 245.2 633.7C267.3 627 289.4 620.2 311.4 613.5C310.7 605.7 310 597.9 309.4 590.1C287.4 597.2 265.5 604.2 243.5 611.2Z" fill="#5222D0"/>
<path opacity="0.16" d="M278.4 589.2C278.8 599.2 278.5 621.6 265.7 645.7C252.1 671.3 232.2 684.5 223.6 689.5C223.2 681.3 222.7 673.1 222.3 665C218.9 670.7 215.6 676.4 212.2 682.1C212.9 699.9 213.7 717.7 214.4 735.6C219.2 736.6 224 737.6 228.9 738.7C262.6 733.3 296.4 727.9 330.1 722.5C331.9 721.8 333.6 721 335.4 720.3C331.6 672.2 327.8 624.2 324 576.1C308.8 580.5 293.6 584.8 278.4 589.2Z" fill="#6C6D6D"/>
<path opacity="0.1" d="M216.7 608.7C216 608.7 215.2 627.2 215.7 647.3C216.3 675.9 219 688.4 218.2 715.7C217.9 724.6 217.4 731.9 217 736.6C220.7 737.1 224.5 737.6 228.2 738.1C227.5 733.2 226.5 726.1 225.5 717.6C217.7 654 217.8 608.7 216.7 608.7Z" fill="#6C6D6D"/>
<path d="M186.1 604.7C185 605.1 185.1 607.1 184.2 616.4C183.6 622.7 183.4 622.8 183.6 624.3C184.1 628.5 185.6 629.3 186.1 634.1C186.4 637.2 185.8 637.6 186.3 640.2C186.9 643.4 188.3 645.8 189.4 647.3C189.4 648.3 189.6 650 190.4 651.7C192 654.8 195.7 657.5 197.7 656.5C198.8 656 199.1 653.9 199.6 649.8C200.1 646 199.8 645.8 200.2 641.4C200.6 637.8 200.9 637.1 200.6 635.3C200.3 633.1 199.5 632.4 198.7 630.1C197.6 626.9 198.1 625.7 197.4 622.4C196.4 616.9 193.8 613 192.4 610.9C191 608.6 187.9 604.1 186.1 604.7Z" fill="white"/>
<path d="M185.3 603.7C179.9 615.4 185.3 628.5 197.5 632.8C198.9 633.3 199.5 631.1 198.1 630.6C187.3 626.8 182.5 615.2 187.3 604.8C187.9 603.6 185.9 602.4 185.3 603.7Z" fill="#191919"/>
<path d="M185.7 605.6C192.9 612.3 197.1 621.1 197.7 630.9C197.8 632.3 200 632.3 200 630.9C199.4 620.5 195 611.1 187.3 604C186.2 603 184.6 604.6 185.7 605.6Z" fill="#191919"/>
<path d="M182.8 617.7C180.2 629.4 187.1 640.5 199 643C200.4 643.3 201 641.1 199.6 640.8C189 638.6 182.6 628.9 185 618.2C185.2 616.9 183.1 616.3 182.8 617.7Z" fill="#191919"/>
<path d="M184.9 632.5C182.8 641.4 188.2 649.9 197.2 651.6C198.6 651.9 199.2 649.7 197.8 649.4C190 648 185.2 640.9 187 633.1C187.4 631.7 185.3 631.1 184.9 632.5Z" fill="#191919"/>
<path d="M187.8 646.7C187.4 651 189.9 655.3 193.9 656.9C195.6 657.6 197.8 657.7 199.1 656.2C200.5 654.6 199.9 652.2 199.1 650.5C198.6 649.2 196.4 649.8 196.9 651.1C197.4 652.2 198.4 654.4 196.8 655.1C195.6 655.6 193.7 654.4 192.8 653.7C190.7 652 189.7 649.4 190 646.7C190.2 645.3 188 645.3 187.8 646.7Z" fill="#191919"/>
<path d="M198.1 651.4C200.3 651.4 201.2 649.2 201.5 647.3C201.9 645 201.5 642.6 200.3 640.6C199.6 639.3 197.6 640.5 198.4 641.7C199.1 642.9 199.5 644.2 199.5 645.5C199.5 646.2 199.3 649.1 198.1 649.1C196.7 649.2 196.7 651.4 198.1 651.4Z" fill="#191919"/>
<path d="M200.9 642.2C202.3 640.9 202.3 638.4 202 636.6C201.7 634.3 200.7 632.3 199.1 630.6C198.1 629.5 196.5 631.1 197.5 632.2C198.5 633.3 199.3 634.6 199.6 636.2C199.8 637.3 200.1 639.7 199.2 640.6C198.3 641.7 199.9 643.3 200.9 642.2Z" fill="#191919"/>
<path d="M520.3 501.2C494.7 501.6 478.1 540.8 473.1 552.6C465.9 569.7 467.2 576.8 456.8 621.1C453.2 636.7 449.8 649.3 447.6 657.4C438.3 661.9 420.1 669 397.1 667C383.4 665.8 367.9 664.4 356.8 653.1C346 642.1 347.1 629.8 335.7 626C328.3 623.5 319.4 625.8 318.3 629.2C317.6 631.6 320.9 633.5 325.1 641.6C326.6 644.6 327.7 647.1 328.3 649C314.9 652.6 303.7 654 295.4 654.6C275.3 656 261.9 653.4 257.9 660.5C256.3 663.3 255.7 668.8 258.4 672.6C259.8 674.6 261.7 675.6 262.9 676.1C262.7 676.4 259.8 680.1 261.3 684.7C262.7 689 266.6 690.5 267 690.6C266.8 691.1 265.1 695.2 267.5 699.3C269.8 703.2 273.9 704 274.4 704C274 705.4 273.6 707.8 274.6 710.1C276.1 713.7 280 715.3 283.4 716.4C301.7 722.1 316.8 719.7 316.8 719.7C333.9 717 346.6 709.3 354 703.8C361.8 710.9 377.8 723.5 401.6 729.7C410.1 731.9 436.5 738.5 465.5 727.6C496.3 716.1 511.8 691.8 525.2 670.8C539.6 648.2 544.9 629.1 551.9 604C561.8 568.4 566.6 550.2 557.7 531.4C551.7 518 537.2 500.9 520.3 501.2Z" fill="white" stroke="#191919" stroke-width="2"/>
<path d="M261.5 676.2C274.6 680.5 288.3 681 301.6 677.8C303 677.5 302.4 675.3 301 675.6C288 678.7 274.8 678.2 262.1 674C260.7 673.6 260.1 675.7 261.5 676.2Z" fill="#191919"/>
<path d="M266.9 691.3C279.7 694.5 292.8 694.6 305.7 691.8C307.1 691.5 306.5 689.3 305.1 689.6C292.6 692.3 279.9 692.1 267.5 689.1C266.1 688.7 265.5 690.9 266.9 691.3Z" fill="#191919"/>
<path d="M273.1 704.4C284.6 707.9 296.4 708.5 308.1 706.1C309.5 705.8 308.9 703.6 307.5 703.9C296.1 706.2 284.7 705.6 273.7 702.2C272.3 701.8 271.7 704 273.1 704.4Z" fill="#191919"/>
<path opacity="0.12" d="M543.5 510.3C542.7 528.7 539.8 556.3 529.8 588.2C518.2 625.2 505.9 664.4 468.8 688.8C459.5 694.9 435.2 710.7 401.9 707.9C377 705.8 359.1 694.4 350.9 688.3C334.8 695.9 320.9 698.9 311.7 700.1C299.9 701.7 291.6 701.2 289.4 701C279.9 700.3 272.2 698.3 266.6 696.4C268.9 699 271.2 701.6 273.4 704.1C273.1 706 273 709.1 274.8 711.8C276.8 714.9 280.3 716.1 286.6 717.3C295.2 718.9 299.5 719.7 307.1 719.6C314 719.4 323.7 719.1 335.3 714.6C340.1 712.7 346.6 709.6 353.5 704.1C357.8 707.7 364.2 712.6 372.6 717.3C382.3 722.8 402.4 733.9 430 733.7C437.9 733.6 456.2 733.3 476 722.8C488.7 716 496.4 708 504.2 699.6C520.6 682 529 665.3 535.6 651.8C546.1 630.4 550.3 614.1 556.5 589.4C564 560.1 563.3 551.2 562 544.8C558.9 528.7 549.9 517.1 543.5 510.3Z" fill="#6C6D6D"/>
<path opacity="0.2" d="M559 570.4C549.5 603.4 537.8 629.2 528.6 646.9C506 690.6 490.2 701.6 484.7 705.2C465.9 717.4 447.4 719.8 439.6 720.7C391.7 725.9 355.5 699.9 354 702.9C352.8 705.3 374.7 723.6 405 730.2C414 732.2 440.9 737.7 470.1 724.7C491.7 715.1 503.7 700.2 512.9 688.7C526.1 672.3 532.3 657.6 539.3 640.4C546.1 624.2 554.2 600.5 559 570.4Z" fill="#6C6D6D"/>
<path opacity="0.12" d="M275.3 710.2C282.3 712.4 291 714.3 301.3 714.8C325.9 715.9 345 707.7 355 702.5C351.3 706 334.4 721.2 309 720.7C292.6 720.4 280.6 713.7 275.3 710.2Z" fill="#6C6D6D"/>
<path d="M347 336.5C343.7 342.1 342.9 352.5 341.3 373.3C339.6 395.8 340.8 406 340 422.7C339.4 435.8 337.6 454.5 332.3 477.2C341.3 494.3 352.1 500.8 358 503.5C387.8 517.3 425.1 495.5 449.8 481C461.9 473.9 471.1 467 476.8 462.4C474.4 457.6 471.1 450.4 468.5 441.2C464.2 426.4 464.6 417.5 463.4 400.8C460.5 361.3 460.4 352.5 454.4 340.5C451.4 334.5 448.9 329.3 443.7 324.4C418.8 301.1 363.1 309.5 347 336.5Z" fill="white" stroke="#161616" stroke-width="2"/>
<path d="M339.3 403C335.2 408.7 327.5 421 325 438.6C324 446 323.1 460.2 329 476.5C331.6 483.6 337.9 499.9 354.8 511.4C364.4 518 373.9 520.4 379.6 521.5C376.2 517.8 372.9 514.1 369.5 510.4C373.1 512.4 381.7 516.5 393.2 516C396.7 515.8 408 514.9 418.5 506.9C426.2 501 429.4 494.3 434.7 482.7C441.7 467.5 446.6 456.6 446.3 442.3C445.9 423.7 437 419.3 440.2 401.9C440.9 398 443.1 386 450.3 384.2C453.7 383.4 457.4 385.1 459.4 387.2C463.7 391.7 463.3 400.9 456.9 408.4C460 407.7 467.1 405.4 472.1 398.8C479.7 388.6 477.8 373.9 470.6 365.5C468.8 363.4 465.5 359.5 460.5 358.9C453.8 358.1 448.2 363.9 438.3 375.6C417.6 400.1 417.9 404.4 407.5 412C395 421.1 383.7 422.8 380.4 423.3C374.8 424 366.4 425 357.2 420.8C346.2 415.6 341 406.4 339.3 403Z" fill="#161616"/>
<path d="M369.8 374.8C367.2 387.8 365.7 401.2 365.8 414.5C365.8 417.4 365.8 421.8 369.4 422.7C373.2 423.6 378.8 418.9 381.6 417C383.2 415.9 381.7 413.3 380.1 414.4C377.6 416.1 369.3 422.2 368.8 416.4C368.5 412.1 368.9 407.5 369.1 403.2C369.6 393.9 370.9 384.7 372.7 375.6C373.1 373.8 370.2 373 369.8 374.8Z" fill="#161616"/>
<path d="M354.3 386C352.8 383.6 352.7 380.7 354.2 378.3C353.3 378.2 352.4 378.1 351.5 377.9C352.6 380.7 353.1 383.7 352.7 386.7C353.4 386.4 354.2 386.1 354.9 385.8C354.6 385.6 354.3 385.5 354 385.3C352.3 384.4 350.8 387 352.5 387.9C352.8 388.1 353.1 388.2 353.4 388.4C354.2 388.8 355.5 388.5 355.6 387.5C356.1 383.9 355.8 380.4 354.4 377.1C353.9 375.9 352.4 375.6 351.7 376.7C349.7 380 349.7 384.1 351.8 387.4C352.7 389.2 355.3 387.7 354.3 386Z" fill="#161616"/>
<path d="M397.3 385.1C396.7 384 396.3 382.9 396.3 381.6C396.3 381 396.4 380.5 396.5 379.9C396.6 379.6 396.7 379.3 396.8 379C397.2 378.4 396.9 378.3 395.9 378.6C395.8 378.7 396.6 381.8 396.6 382.1C396.7 383.5 396.5 384.9 396.2 386.3C397 386.1 397.9 385.9 398.7 385.6C398 385 397.6 384.4 397.6 383.4C397.5 381.5 394.5 381.5 394.6 383.4C394.7 385.1 395.3 386.6 396.6 387.7C397.4 388.4 398.8 388.2 399.1 387C399.6 384.6 399.7 382.1 399.3 379.7C399 378.1 398.4 375.5 396.3 375.7C394.3 375.9 393.7 378.6 393.5 380.2C393.2 382.4 393.7 384.5 394.8 386.5C395.7 388.3 398.3 386.8 397.3 385.1Z" fill="#161616"/>
<path d="M394.6 379.7C394.8 381.5 394.9 383.3 395.1 385.1C395.3 387 398.3 387 398.1 385.1C397.9 383.3 397.8 381.5 397.6 379.7C397.4 377.8 394.4 377.8 394.6 379.7Z" fill="#161616"/>
<path d="M394.4 383.8C394.1 385.1 394 386.6 395 387.5C396 388.4 397.6 388.6 398.5 387.5C399 386.9 399.1 386 398.5 385.4C398 384.9 396.9 384.8 396.4 385.4C396.2 385.7 396.6 385.3 396.8 385.2C396.9 385.2 397.1 385.2 397 385.2C396.9 385.2 397.2 385.3 397 385.2C397.1 385.3 397.1 385.4 397.2 385.5C397.3 385.6 397.2 385.3 397.2 385.4C397.2 385.5 397.2 385.2 397.2 385.1C397.2 385.3 397.2 385 397.2 385C397.2 384.8 397.3 384.7 397.3 384.5C397.5 383.7 397.1 382.8 396.3 382.7C395.5 382.6 394.6 383 394.4 383.8Z" fill="#161616"/>
<path d="M351 377.4C350.2 380.4 350.2 383.6 351.3 386.6C351.9 388.4 354.8 387.6 354.2 385.8C353.3 383.3 353.2 380.8 353.9 378.2C354.4 376.4 351.5 375.6 351 377.4Z" fill="#161616"/>
<path d="M353.7 382.6C353.4 381.4 353.5 380.1 353.8 378.9C352.8 378.6 351.9 378.4 350.9 378.1C350.5 380 350.5 381.8 350.8 383.7C350.9 384.5 351.9 384.9 352.6 384.7C353.4 384.5 353.8 383.7 353.6 382.9C353.4 381.6 353.4 380.2 353.7 378.9C354.1 377 351.3 376.2 350.8 378.1C350.4 379.9 350.4 381.6 350.7 383.4C351.2 385.3 354 384.5 353.7 382.6Z" fill="#161616"/>
<path d="M347.2 371.7C348.8 367 354.5 366.1 357.7 369.8C358.7 370.9 360.2 369.3 359.3 368.2C354.9 363.2 347.2 364.9 345.1 371.1C344.5 372.5 346.7 373.1 347.2 371.7Z" fill="#161616"/>
<path d="M389.6 371.7C393.2 365.9 401.7 369.7 403.8 374.7C404.3 376 406.5 375.4 406 374.1C403.2 367.2 392.4 363.1 387.7 370.5C386.9 371.8 388.9 372.9 389.6 371.7Z" fill="#161616"/>
<path d="M306.2 342.9C361.2 350.2 416.1 357.4 471.1 364.7C476.8 365.5 476.8 356.4 471.1 355.7C416.1 348.4 361.2 341.2 306.2 333.9C300.5 333.1 300.5 342.1 306.2 342.9Z" fill="#161616"/>
<path d="M344.6 339.1C345.9 332.5 349 321.7 356.8 310.7C359.9 306.3 365.3 298.6 374.6 293.1C392.2 282.6 419.2 283.6 438.7 296.8C457.8 309.7 467.2 332.5 462.9 355.2C423.5 349.8 384 344.5 344.6 339.1Z" fill="#5222D0"/>
<path d="M398.5 286.8C413.9 289.9 425.4 302.4 426.8 317.1C428 329.2 422.1 341.3 411.6 348.5C428.9 350.7 446.1 353 463.4 355.2C464.3 351 465.2 344.7 464.1 337.3C461.7 320.5 451.6 309.9 447.1 305.3C443.6 301.8 430.8 289.1 410.7 286.8C405.8 286.2 401.5 286.5 398.5 286.8Z" fill="#321693"/>
<path opacity="0.24" d="M408.6 356.5C410.2 362.1 411.8 369.6 411.7 378.5C411.5 395.8 405.4 409 401.5 415.8C404.8 414.2 409.5 411.5 414 407C417.2 403.8 418.4 401.5 421.8 396.5C421.8 396.5 427.5 388.1 436 377.9C439.3 373.9 444.2 368.3 451 362C436.8 360.1 422.7 358.3 408.6 356.5Z" fill="#6C6D6D"/>
<path opacity="0.22" d="M449.2 384C446.6 385 445.1 387 444.1 388.4C442.9 390.1 441.6 392.5 440.7 398.9C439.9 404.4 439.1 409.4 440.2 415.8C441 420.6 442 420.7 443.6 426.6C444.3 429.1 446.5 437.3 446 446.9C445.7 454.2 444 459.3 441.6 466.5C439.4 473 435.8 481.9 429.8 492C440.8 485.8 452 479 463.3 471.7C468 468.7 472.5 465.7 477 462.6C474.5 458.3 472 453.3 469.9 447.7C463.7 431.3 462.8 416.3 463.3 405.8C461.4 406.6 459.5 407.4 457.7 408.2C463.6 398.9 463.3 389.3 458.9 385.7C456.9 383.9 452.8 382.6 449.2 384Z" fill="#6C6D6D"/>
<path opacity="0.21" d="M461 389.4C460.1 393.1 458.8 397.4 456.6 402.1C455 405.5 453.3 408.4 451.7 410.9C454.7 414.1 459.6 420.4 461.7 429.5C464 439.3 461.9 447.2 459.5 455.9C457.8 462.3 454.4 471.8 447.7 482.1C457.1 475.7 466.5 469.4 475.9 463C472.3 455 468.5 444.5 466.1 431.7C464.3 421.9 463.8 413 463.9 405.7C461.5 406.6 459.2 407.5 456.8 408.4C457.9 407.3 460.6 404.3 461.7 399.6C462.8 394.8 461.5 390.8 461 389.4Z" fill="#6C6D6D"/>
<path opacity="0.19" d="M407.9 356.1C419.8 360.3 431.8 364.5 443.7 368.7C446.4 366.5 449.1 364.2 451.9 362C437.2 360 422.6 358 407.9 356.1Z" fill="#6C6D6D"/>
</svg>
