<svg width="1482" height="976" viewBox="0 0 1482 976" fill="none" xmlns="http://www.w3.org/2000/svg">
<path d="M113.8 872.2C100.1 861 85.8001 850.3 73.1001 838C67.2001 832.3 61.7001 826.1 57.5001 819C55.3001 815.4 53.5001 811.5 52.2001 807.5C51.1001 804.2 50.0001 799.1 54.8001 798.6C56.6001 798.4 58.5001 798.8 60.2001 799.3C62.1001 799.8 62.9001 796.9 61.0001 796.4C55.3001 795 47.1001 795.4 48.0001 803.4C49.1001 812.4 55.0001 821.6 60.4001 828.5C74.4001 846.5 94.2001 860 111.7 874.3C113.2 875.5 115.3 873.4 113.8 872.2Z" fill="#E8E8E8"/>
<path d="M61.5001 796.9C55.7001 790 51.2001 782 48.6001 773.3C47.4001 769.4 46.9001 765.4 45.7001 761.6C44.9001 759.2 43.4001 757 45.6001 754.9C46.6001 754 48.1001 753.4 49.2001 752.6C52.6001 750.3 54.5001 747.6 50.3001 744.7C47.9001 743.1 44.9001 742.8 42.3001 741.5C38.8001 739.6 36.1001 736.5 34.1001 733.2C29.9001 726.4 27.6001 718.4 25.1001 710.9C22.1001 702 19.2001 692.9 16.6001 683.9C11.4001 665.7 7.10009 647.3 3.60009 628.8C3.30009 629.4 2.90009 630 2.60009 630.6C21.4001 624.4 40.1001 640.3 53.5001 651.6C67.3001 663.2 79.7001 676.5 90.6001 690.9C113.1 720.9 128.8 755.5 138.6 791.6C144.6 813.7 148.4 836.4 150.5 859.2C150.7 861.1 153.7 861.1 153.5 859.2C146.2 780.5 117.2 700.8 55.1001 648.9C40.9001 637.1 21.7001 621.2 1.90009 627.7C1.10009 628 0.700088 628.7 0.900088 629.5C4.60009 649.3 9.30009 668.9 15.0001 688.3C17.7001 697.4 20.5001 706.4 23.6001 715.3C26.1001 722.5 28.4001 730.2 32.8001 736.5C34.5001 738.9 36.4001 741.1 38.8001 742.8C41.7001 744.9 45.1001 745.1 48.0001 746.9C51.8001 749.2 46.3001 751 44.3001 752.4C42.8001 753.5 41.4001 754.8 41.1001 756.8C40.7001 759.8 43.3001 763.3 44.0001 766.1C45.0001 770.4 45.9001 774.6 47.5001 778.8C50.4001 786.2 54.5001 793 59.6001 799.1C60.6001 800.5 62.7001 798.4 61.5001 796.9Z" fill="#E8E8E8"/>
<path d="M18.7 644.9C60.5 692.1 93 747.2 114.2 806.6C120.1 823.1 125 839.9 129.1 856.9C129.6 858.8 132.4 858 132 856.1C117.2 794.5 90.6 735.8 53.8 684.1C43.6 669.7 32.6 655.9 20.9 642.7C19.5 641.4 17.4 643.5 18.7 644.9Z" fill="#E8E8E8"/>
<path d="M25.5 710.7C30.3 711.9 35 713.5 39.6 715.4C41.4 716.1 42.2 713.2 40.4 712.5C35.8 710.6 31.1 709 26.3 707.8C24.5 707.3 23.7 710.2 25.5 710.7Z" fill="#E8E8E8"/>
<path d="M60.7 777.1C67.2 776.9 72.6 780.3 77.9 783.5C82.7 786.4 87.4 789.3 92 792.5C101.5 799.1 110.1 806.9 115.8 817.1C116.7 818.8 119.3 817.3 118.4 815.6C112.4 805 103.4 796.8 93.5 790C88.3 786.4 82.8 783 77.3 779.8C72.1 776.7 66.8 774.1 60.6 774.2C58.8 774.1 58.8 777.1 60.7 777.1Z" fill="#E8E8E8"/>
<path d="M100.5 759.1C97.8001 742.9 97.9001 726.5 100.8 710.4C101.1 708.5 98.2001 707.7 97.9001 709.6C94.9001 726.3 94.8001 743.2 97.6001 759.9C97.9001 761.8 100.8 761 100.5 759.1Z" fill="#E8E8E8"/>
<path d="M95.4 690.6C97.5 670.8 101.7 651 108.7 632.4C114.6 616.7 123.4 601.3 138.5 592.9C137.7 592.5 137 592 136.2 591.6C137.8 619.4 154.1 644.1 154.8 672C155.2 671.5 155.5 671 155.9 670.6C152.1 671.6 148.3 672.6 144.5 673.6C143.4 673.9 143 675.3 143.8 676.1C148.4 680.5 149.3 686.7 149.5 692.8C149.6 696 151.3 711.5 147.6 712.5C146.7 712.8 146.2 713.9 146.7 714.7C157.8 732.5 152.7 753.6 149.6 772.8C146.4 792.6 146 812.6 148.3 832.4C148.5 834.3 151.5 834.3 151.3 832.4C148.7 810.1 150 788.2 153.8 766.2C156.9 748.4 159.4 729.3 149.4 713.1C149.1 713.8 148.8 714.6 148.5 715.3C151.2 714.6 152.1 712.5 152.5 709.9C153.2 705.1 152.7 699.8 152.6 695C152.5 687.4 151.7 679.5 145.9 674C145.7 674.8 145.5 675.7 145.2 676.5C149 675.5 152.8 674.5 156.6 673.5C157.2 673.3 157.7 672.7 157.7 672.1C157 644.1 140.8 619.5 139.1 591.7C139 590.6 137.9 589.8 136.8 590.4C121.9 598.7 112.9 613.4 106.7 628.9C98.8 648.6 94.4 669.7 92.2 690.8C92.2 692.5 95.2 692.5 95.4 690.6Z" fill="#E8E8E8"/>
<path d="M131.7 606.6C121 647.1 115.5 688.9 115.4 730.8C115.4 732.7 118.4 732.7 118.4 730.8C118.5 689.1 123.9 647.7 134.5 607.4C135.1 605.5 132.2 604.7 131.7 606.6Z" fill="#E8E8E8"/>
<path d="M1305.8 546.7C1312.2 567.3 1317 588.3 1320 609.7C1321.5 620.5 1322.6 631.5 1323.1 642.4C1323.3 645.2 1323.4 648.1 1323.5 650.9C1323.6 652.6 1323.1 655.4 1323.7 657C1324.3 658.5 1326.4 659.5 1327.6 660.5C1329.7 662.2 1331.8 663.9 1333.8 665.6C1333.9 664.8 1334 664 1334.1 663.2C1331.3 664.9 1328.6 665.7 1325.3 665.8C1324.6 665.8 1324.1 666.3 1323.9 666.9C1321 675.9 1323.1 685.4 1329.6 692.4C1330 691.5 1330.3 690.7 1330.7 689.8C1320.3 689.4 1320.1 701.4 1321.1 708.8C1322.5 719.1 1324.5 729.4 1327.4 739.4C1333.2 759 1342.9 777.6 1358.8 791C1360.3 792.2 1362.4 790.1 1360.9 788.9C1347.5 777.6 1338.5 762.4 1332.7 745.9C1330 738.1 1327.9 730.1 1326.3 722.1C1325 715.4 1318.5 692.4 1330.7 692.8C1332.1 692.9 1332.6 691.2 1331.8 690.2C1326.1 684 1324.3 675.6 1326.9 667.7C1326.4 668.1 1325.9 668.4 1325.5 668.8C1329.3 668.8 1332.5 667.9 1335.8 665.8C1336.5 665.3 1336.9 664.1 1336.1 663.4C1332.4 660.4 1327.3 657.8 1326.7 652.8C1326.1 647.5 1326.3 642 1325.9 636.7C1325.2 626.8 1324.2 616.9 1322.7 607C1319.7 586.3 1315 565.9 1308.8 545.9C1308.1 544 1305.2 544.8 1305.8 546.7Z" fill="#E8E8E8"/>
<path d="M1310.7 551.2C1306.6 545.8 1314.3 541.8 1318.8 542.9C1323.3 544.1 1327 547.7 1330.1 550.9C1335.8 556.7 1340.3 563.5 1344.2 570.6C1352.3 585.2 1359.1 600.8 1365.1 616.3C1377.4 648.2 1385.9 681.6 1390.4 715.4C1392.9 734.6 1394.2 753.9 1394.2 773.2C1394.2 775.1 1397.2 775.1 1397.2 773.2C1397.2 733 1391.7 692.9 1380.9 654.3C1375.6 635.5 1369.1 617.1 1361.4 599.1C1354.3 582.5 1346.7 564.7 1334.5 551.1C1329.6 545.6 1321.3 537.1 1313.1 540C1308.1 541.7 1304.8 548.1 1308.2 552.7C1309.3 554.2 1311.9 552.8 1310.7 551.2Z" fill="#E8E8E8"/>
<path d="M1382.7 661.1C1387.8 644 1393.7 627.3 1400.4 610.8C1403.9 602.3 1407.6 593.8 1411.6 585.5C1413.5 581.6 1415.4 577.6 1417.4 573.7C1418.7 571.2 1422.6 560.2 1426.7 561.2C1427.9 561.5 1428.7 560.5 1428.5 559.4C1427.5 553.2 1434.5 547.9 1438.2 543.8C1441.5 540.2 1444.7 536.6 1448 533C1454.8 525.6 1461.5 518.2 1468.3 510.7C1467.5 510.5 1466.6 510.3 1465.8 510C1476.1 535.5 1473.4 563.4 1467.4 589.6C1464.3 603 1460.4 616.3 1457.1 629.7C1454.8 639 1452.3 653.1 1440.9 655.1C1440.1 655.2 1439.7 656.2 1439.9 656.9C1442.8 668.8 1434.8 679.8 1429.5 689.8C1424.5 699.2 1419.9 708.9 1415.7 718.8C1407.5 738.1 1401 758 1396.1 778.3C1395.6 780.2 1398.5 781 1399 779.1C1404.4 756.6 1411.8 734.7 1421.3 713.6C1425.8 703.6 1430.8 693.8 1436.1 684.2C1440.9 675.5 1445.3 666.3 1442.9 656.2C1442.6 656.8 1442.2 657.4 1441.9 658C1451.6 656.3 1455.8 646.5 1458.3 637.9C1462.4 623.5 1466.1 608.7 1469.6 594.1C1476.3 566.3 1479.9 536.4 1468.9 509.2C1468.5 508.2 1467.2 507.6 1466.4 508.5C1457.9 517.8 1449.4 527.2 1440.9 536.5C1436.9 540.9 1432.6 545.1 1428.9 549.8C1426.5 553 1425.2 556 1425.8 560C1426.4 559.4 1427 558.8 1427.6 558.2C1420.4 556.4 1416.9 568.2 1414.5 572.9C1409.7 582.4 1405.2 592 1401.1 601.7C1392.9 620.7 1385.9 640.3 1380 660.1C1379.2 662.1 1382.1 662.9 1382.7 661.1Z" fill="#E8E8E8"/>
<path d="M1460.9 536.6C1429.7 594.8 1397.9 654.8 1390.4 721.3C1390.2 723.2 1393.2 723.2 1393.4 721.3C1400.9 655.3 1432.6 595.7 1463.5 538.1C1464.5 536.4 1461.9 534.9 1460.9 536.6Z" fill="#E8E8E8"/>
<path d="M1330.8 576.6C1355.1 640.9 1369.6 708.7 1373.9 777.3C1374 779.2 1377 779.2 1376.9 777.3C1372.6 708.4 1358.1 640.4 1333.7 575.8C1333 574.1 1330.1 574.8 1330.8 576.6Z" fill="#E8E8E8"/>
<path d="M67.1999 544.4C128.2 533.5 191.2 534.1 252 546.2C282.1 552.2 311.6 560.9 340 572.3C369.7 584.2 398.2 598.5 427.3 611.7C537.1 661.5 654.6 694.1 774.3 708.3C842.2 716.4 910.8 718.5 979 714.7C980.9 714.6 980.9 711.6 979 711.7C856.6 718.6 733.3 706.1 614.7 675C555.2 659.4 496.9 639.1 440.6 614.4C411.4 601.6 382.9 587.2 353.6 574.7C325.6 562.8 296.7 553.2 267.1 546.4C201.4 531.4 132.8 529.7 66.3999 541.6C64.4999 541.8 65.2999 544.7 67.1999 544.4Z" fill="#E8E8E8"/>
<path d="M611.2 672.8C668.1 675.7 723 655.2 776.5 638.8C832.5 621.7 888.7 605.1 945 588.9C1001 572.8 1057 555.9 1113.9 543C1170.6 530.2 1228.4 524.1 1286.5 522.4C1351.2 520.4 1415.9 523.3 1480.5 526.3C1482.4 526.4 1482.4 523.4 1480.5 523.3C1366.4 518.1 1250.8 513 1138 534.9C1080.8 546 1024.8 563 968.8 578.9C912.5 595 856.3 611.5 800.2 628.4C769.1 637.8 738.1 648 706.8 656.6C675.6 665.2 643.6 671.4 611.1 669.8C609.3 669.7 609.3 672.7 611.2 672.8Z" fill="#E8E8E8"/>
<path d="M368.4 570.2C407.9 581.6 448.9 573.7 488.3 566.1C530.5 558 573.1 552.5 616.1 550.8C701.3 547.6 786 559.8 870.9 563.2C917.9 565.1 965.1 564 1011.5 556.3C1013.4 556 1012.6 553.1 1010.7 553.4C927.2 567.3 842.4 559 758.6 552.7C716.7 549.5 674.7 546.8 632.6 547.5C590.9 548.2 549.2 552.2 508 559.5C462.4 567.5 415 580.7 369.1 567.4C367.3 566.8 366.5 569.7 368.4 570.2Z" fill="#E8E8E8"/>
<path d="M545.4 762.9C558.2 757.6 572 754.9 585.9 755.3C598.8 755.7 610.4 759.9 622.9 762.5C632.2 764.5 641.5 764.5 649 757.9C651.9 755.4 654.4 752.8 658.6 754.1C661.7 755 664.3 757.1 667.2 758.4C670.6 760 674.1 760.6 677.7 759.9C686.3 758.2 692.8 751.1 700.3 747C713 740.2 725.2 749.3 737.6 752.6C763.4 759.5 791 757.4 817.4 757.1C849.9 756.8 882.5 757 914.8 753C916.7 752.8 916.7 749.8 914.8 750C885.8 753.5 856.5 753.7 827.3 754C799.5 754.3 770.1 756.9 742.7 750.7C736.3 749.3 730.3 747.2 724.2 744.7C718.9 742.5 713.4 740.4 707.6 741.2C698.5 742.4 691.7 749.6 684 754C680 756.3 675.6 757.9 671 756.6C666 755.1 661.9 750.7 656.4 750.5C651.2 750.4 648.7 754.6 644.9 757.3C639.6 761 632.9 761.1 626.7 760.1C613.5 758 601.2 752.9 587.7 752.3C573 751.6 558.3 754.3 544.6 760C542.8 760.7 543.6 763.6 545.4 762.9Z" fill="#E8E8E8"/>
<path d="M609.2 673.7C611 674 612.7 674.4 614.5 674.7C616.4 675.1 617.1 672.5 615.3 671.8C614.2 671.4 613.1 671 611.9 670.6C610.3 670 609.2 672.6 610.7 673.3C619.9 678.1 629.5 681.9 639.5 684.6C641.4 685.1 642.2 682.2 640.3 681.7C630.5 679.1 621.2 675.4 612.2 670.7C611.8 671.6 611.4 672.5 611 673.4C612.1 673.8 613.2 674.2 614.4 674.6C614.7 673.6 614.9 672.7 615.2 671.7C613.4 671.4 611.7 671 609.9 670.7C608.1 670.4 607.3 673.3 609.2 673.7Z" fill="#E8E8E8"/>
<path d="M474.8 812.3C472.6 809.7 470.6 807 468.9 804C468.1 802.5 467.1 800.9 466.6 799.2C465.9 798.1 465.8 796.8 466.2 795.5C465.9 794.1 466.3 793 467.3 792.2C468.8 788.1 467 783.8 466 779.6C464.5 773 463 766.4 461.5 759.8C460.7 756.3 459.9 752.9 459.2 749.4C458.8 747.8 458.5 746.3 458.1 744.7C457.5 741.9 456.9 740.6 459 738.3C460 736.2 461.5 735.8 463.5 737.4C464.4 738.3 465.3 739.2 466.2 740.1C467.2 741.4 467.9 742.9 468.7 744.3C470.1 746.9 471.5 749.5 472.8 752.1C475.9 758.3 478.6 764.7 480.9 771.2C485.3 783.4 488.3 796 490.1 808.9C490.6 808.3 491.1 807.6 491.5 807C491.7 807.2 491.8 807.5 492 807.7C492.5 805.8 489.6 805 489.1 806.9C488.7 808.7 489.6 810 491.5 810C492.6 810 493.1 809.1 492.9 808.1C490.6 791.6 486.3 775.5 479.7 760.2C476.6 753 473.3 745 468.7 738.6C466.2 735.1 461.7 731.9 457.4 734.4C452.5 737.2 454.8 744.1 455.8 748.4C457.8 757.2 459.8 766 461.7 774.8C462.6 779 464.5 783.7 464.7 788C464.8 791.5 461.9 793.1 462.4 796.6C463.4 803.1 468.3 809.7 472.4 814.5C473.9 815.8 476 813.7 474.8 812.3Z" fill="#E8E8E8"/>
<path d="M484 769.3C482.5 760.3 482.7 751.1 484.8 742.2C485.3 739.9 486 737.7 486.8 735.5C488.2 731.7 490.2 732.1 492.2 734.9C494.8 738.6 496.8 742.7 498.3 746.9C504.4 764.3 501.7 783 499.1 800.7C498.8 802.6 501.7 803.4 502 801.5C505.3 779.2 508.7 753.9 495.2 734C493.7 731.8 491.7 728.1 488.6 728.6C485.3 729.2 484.2 733.7 483.3 736.3C479.7 747.2 479.1 758.8 481 770C481.5 772 484.4 771.2 484 769.3Z" fill="#E8E8E8"/>
<path d="M489.4 746.3C492.4 761.9 493.5 777.6 493 793.4C492.9 795.3 495.9 795.3 496 793.4C496.6 777.3 495.3 761.3 492.3 745.5C491.9 743.6 489.1 744.4 489.4 746.3Z" fill="#E8E8E8"/>
<path d="M121.6 533.1C118.7 526.7 112.2 522.2 108.1 516.6C103.6 510.4 99.8 503.7 96.1 497.1C95.8 497.8 95.5 498.6 95.2 499.3C115.3 495.7 126.9 515.5 130.8 532.2C131.2 534.1 134.1 533.3 133.7 531.4C129.4 512.9 116.2 492.6 94.4 496.4C93.4 496.6 93.1 497.8 93.5 498.6C97.2 505.3 100.9 512 105.5 518.1C109.6 523.7 116.2 528.4 119 534.6C119.8 536.4 122.4 534.9 121.6 533.1Z" fill="#E8E8E8"/>
<path d="M130.3 517C131.8 501.3 146.8 491.5 152.6 477.6C151.9 477.9 151.1 478.2 150.4 478.5C157.1 482.8 152.1 498.4 150.2 504.4C147.4 513.2 142.8 521.2 136.9 528.2C135.7 529.7 137.8 531.8 139 530.3C146.4 521.6 151.7 511.5 154.4 500.4C156.1 493.4 159.3 480.7 151.9 475.9C151 475.3 150 476 149.7 476.8C143.7 491.2 128.9 500.6 127.3 517C127.1 518.9 130.1 518.9 130.3 517Z" fill="#E8E8E8"/>
<path d="M1018.3 562.4C1017.4 560.1 1016.5 557.8 1015.6 555.5C1015.1 554.4 1014.7 553.2 1014.2 552.1C1013.6 551.3 1013.6 550.4 1014.1 549.5C1015 550.3 1016.8 549.8 1016.7 548.4C1016.2 543.4 1015.7 538.3 1015.2 533.3C1015.1 532.1 1013.9 527.4 1014.6 526.5C1017.7 522.2 1019.8 529.3 1020.1 530.4C1022.8 539.6 1022.7 550.2 1022.6 559.7C1022.6 561.6 1025.6 561.6 1025.6 559.7C1025.7 551.9 1025.3 544.2 1024.2 536.5C1023.5 531.6 1022.7 524.5 1017.9 521.6C1014.8 519.7 1012.2 521.7 1011.6 525C1011 528.2 1012 532 1012.3 535.1C1012.7 539.5 1013.2 543.9 1013.6 548.3C1014.5 547.9 1015.3 547.6 1016.2 547.2C1014.5 545.6 1011.9 545.9 1010.9 548.1C1010.2 549.6 1010.8 551.2 1011.3 552.7C1012.5 556.2 1014.1 559.6 1015.4 563.1C1016.1 565 1019 564.2 1018.3 562.4Z" fill="#E8E8E8"/>
<path d="M1025 546.1C1024.6 532.1 1027.5 518.4 1033.6 505.7C1032.8 505.8 1032 505.9 1031.2 506C1037.7 511.4 1033.4 526 1032.3 533C1030.8 542.4 1028.9 551.8 1026.5 561C1026 562.9 1028.9 563.7 1029.4 561.8C1032.3 550.6 1034.5 539.2 1036.1 527.7C1037.1 520.3 1040 509.4 1033.3 503.8C1032.6 503.2 1031.4 503.2 1030.9 504.1C1024.6 517.2 1021.5 531.4 1021.9 546C1022.1 548 1025.1 548 1025 546.1Z" fill="#E8E8E8"/>
<path d="M500.2 852.2C506.5 845.8 516.3 854.4 523.6 854C527.1 853.8 530.3 852.5 533.5 851.4C537.8 850 541.9 849.5 546.4 849.9C564.2 851.4 581.5 852.7 599.4 851.5C601.3 851.4 601.3 848.4 599.4 848.5C589.7 849.1 580.1 849.3 570.4 848.9C560.6 848.5 550.4 846.1 540.7 846.8C536.8 847.1 533.2 848.4 529.5 849.6C524.1 851.3 520 851 514.8 849.1C509.1 847 502.7 845.3 498 850.1C496.7 851.5 498.8 853.6 500.2 852.2Z" fill="#E8E8E8"/>
<path d="M311.3 876.5C318.3 868.9 330.6 868.4 338 875.6C338.1 874.8 338.2 874 338.3 873.2C333.1 875.7 327.8 876.8 322.1 876.5C320.2 876.4 320.2 879.4 322.1 879.5C328.4 879.8 334.2 878.6 339.9 875.8C340.8 875.4 340.9 874.1 340.2 873.4C331.6 865.1 317.3 865.5 309.2 874.3C307.9 875.8 310 877.9 311.3 876.5Z" fill="#E8E8E8"/>
<path d="M32.6 903.5C27.5 903.1 22.4 904.6 18.5 908.1C16.1 910.3 12.7 914.4 15.8 917.3C19.3 920.5 27.7 918.4 31.8 918C39.3 917.2 46.6 915.8 53.9 913.9C55.8 913.4 55 910.5 53.1 911C44.3 913.3 35.4 914.8 26.3 915.4C24.5 915.5 22.6 915.7 20.8 915.7C16.3 915.5 18.4 912.1 20.6 910.2C23.9 907.2 28.2 906.1 32.6 906.5C34.6 906.6 34.5 903.6 32.6 903.5Z" fill="#E8E8E8"/>
<path d="M175.5 821C175.7 820.2 176.3 819.7 177.1 819.7C177.8 819.6 178.5 819.5 179.1 819.4C180.7 819.2 182.2 819.3 183.8 819.5C186.9 819.9 189.7 821 192.4 822.7C192.5 821.8 192.6 820.9 192.8 820C189.1 821.3 185.4 821.6 181.5 821C179.6 820.7 178.8 823.6 180.7 823.9C185.1 824.6 189.3 824.3 193.6 822.9C194.8 822.5 195.1 820.9 194 820.2C188.8 816.9 182 815.3 175.9 817C172.6 817.9 170 823 174.7 824C176.6 824.3 177.4 821.4 175.5 821Z" fill="#E8E8E8"/>
<path d="M258.3 133.3C234.5 124.9 217.5 101.8 214.9 76.8C212.2 51 226.7 26.4 248.5 13.2C272 -1.00003 305.4 -1.10003 324.7 20.4C334.6 31.3 340.7 46.2 344.3 60.3C348 74.8 348.6 90.9 340.3 104C331.9 117.1 316.9 124.4 302.8 129.9C287.9 135.8 270 140.4 255.4 131.2C253.8 130.2 252.3 132.8 253.9 133.8C267 142 282.8 139.9 296.8 135.3C310.5 130.8 325 124.5 335.6 114.3C359.3 91.6 349.6 54.1 334.8 29.2C327 16 315.3 6.29997 300.4 2.29997C286.2 -1.50003 271 -0.200035 257.5 5.29997C232.7 15.5 213.3 39.3 211.7 66.5C209.9 96.5 229.2 126.2 257.5 136.2C259.3 136.9 260.1 134 258.3 133.3Z" fill="#E8E8E8"/>
<path d="M1010.2 713.8C1078.4 709.5 1146.2 700.3 1213 686.2C1232.3 682.1 1251.5 677.6 1270.6 672.7C1272.5 672.2 1271.7 669.3 1269.8 669.8C1203.6 686.7 1136.2 698.9 1068.2 706C1048.9 708 1029.6 709.6 1010.3 710.8C1008.3 710.9 1008.3 713.9 1010.2 713.8Z" fill="#E8E8E8"/>
<path d="M853.9 786C862.7 787.5 871.7 787.4 880.4 785.3C885.8 784 889.7 781.9 895.3 783.7C898.8 784.8 902.1 785.2 905.7 784.5C909.7 783.7 913.4 781.7 916.8 779.5C920.5 777 924.2 773.5 928.7 772.6C933.9 771.6 938.6 775.7 943.6 776.8C947.2 777.6 950.9 777.5 954.5 776.9C956.4 776.6 955.6 773.7 953.7 774C947.4 775.1 942.5 773.5 936.8 771C934.4 769.9 932.1 769.3 929.4 769.5C921.3 770.4 915.7 778 908.2 780.7C903.4 782.4 899.5 781.8 894.8 780.3C891.2 779.2 888.6 779.8 885.1 780.9C875.2 784 865.1 784.9 854.9 783.2C852.9 782.8 852 785.7 853.9 786Z" fill="#E8E8E8"/>
<path d="M358.4 916.1C436.1 916.1 513.8 916.1 591.5 916.1C595.4 916.1 595.4 910.1 591.5 910.1C513.8 910.1 436.1 910.1 358.4 910.1C354.5 910.1 354.5 916.1 358.4 916.1Z" fill="#161616"/>
<path d="M608.2 914.3C617.3 914.3 626.4 914.3 635.5 914.3C639.4 914.3 639.4 908.3 635.5 908.3C626.4 908.3 617.3 908.3 608.2 908.3C604.3 908.3 604.3 914.3 608.2 914.3Z" fill="#161616"/>
<path d="M655.7 913.4C658.6 913.4 661.6 913.4 664.5 913.4C668.4 913.4 668.4 907.4 664.5 907.4C661.6 907.4 658.6 907.4 655.7 907.4C651.8 907.4 651.8 913.4 655.7 913.4Z" fill="#161616"/>
<path d="M107.7 938.1C165.2 938.1 222.6 938.1 280.1 938.1C284 938.1 284 932.1 280.1 932.1C222.6 932.1 165.2 932.1 107.7 932.1C103.9 932.1 103.9 938.1 107.7 938.1Z" fill="#161616"/>
<path d="M296.8 938.1C311.8 938.1 326.7 938.1 341.7 938.1C345.6 938.1 345.6 932.1 341.7 932.1C326.7 932.1 311.8 932.1 296.8 932.1C293 932.1 293 938.1 296.8 938.1Z" fill="#161616"/>
<path d="M367.2 936.3C368.1 936.3 369 936.3 369.8 936.3C371.4 936.3 372.9 934.9 372.8 933.3C372.7 931.7 371.5 930.3 369.8 930.3C368.9 930.3 368 930.3 367.2 930.3C365.6 930.3 364.1 931.7 364.2 933.3C364.3 934.9 365.5 936.3 367.2 936.3Z" fill="#161616"/>
<path d="M76.1 938.9C78.2 938.9 80.2 938.9 82.3 938.9C86.2 938.9 86.2 932.9 82.3 932.9C80.2 932.9 78.2 932.9 76.1 932.9C72.2 932.9 72.2 938.9 76.1 938.9Z" fill="#161616"/>
<path d="M868.5 829C949.1 829 1029.7 829 1110.4 829C1114.3 829 1114.3 823 1110.4 823C1029.8 823 949.2 823 868.5 823C864.6 823 864.6 829 868.5 829Z" fill="#161616"/>
<path d="M1142 825.5C1215 825.5 1288 825.5 1361 825.5C1364.9 825.5 1364.9 819.5 1361 819.5C1288 819.5 1215 819.5 1142 819.5C1138.2 819.5 1138.2 825.5 1142 825.5Z" fill="#161616"/>
<path d="M1380.4 823.7C1386.3 823.7 1392.1 823.7 1398 823.7C1401.9 823.7 1401.9 817.7 1398 817.7C1392.1 817.7 1386.3 817.7 1380.4 817.7C1376.5 817.7 1376.5 823.7 1380.4 823.7Z" fill="#161616"/>
<path d="M1303 790.3C1319.7 790.3 1336.4 790.3 1353.1 790.3C1357 790.3 1357 784.3 1353.1 784.3C1336.4 784.3 1319.7 784.3 1303 784.3C1299.1 784.3 1299.1 790.3 1303 790.3Z" fill="#161616"/>
<path d="M1369.8 789.4C1373.9 789.4 1378 789.4 1382.1 789.4C1386 789.4 1386 783.4 1382.1 783.4C1378 783.4 1373.9 783.4 1369.8 783.4C1366 783.4 1366 789.4 1369.8 789.4Z" fill="#161616"/>
<path d="M820.1 846.6C841.5 846.6 862.9 846.6 884.3 846.6C888.2 846.6 888.2 840.6 884.3 840.6C862.9 840.6 841.5 840.6 820.1 840.6C816.3 840.6 816.3 846.6 820.1 846.6Z" fill="#161616"/>
<path d="M907.2 845.7C916.3 845.7 925.4 845.7 934.5 845.7C938.4 845.7 938.4 839.7 934.5 839.7C925.4 839.7 916.3 839.7 907.2 839.7C903.3 839.7 903.3 845.7 907.2 845.7Z" fill="#161616"/>
<path d="M946.8 860.7C953 860.7 959.1 860.7 965.3 860.7C969.2 860.7 969.2 854.7 965.3 854.7C959.1 854.7 953 854.7 946.8 854.7C942.9 854.7 942.9 860.7 946.8 860.7Z" fill="#161616"/>
<path d="M520.9 359.3C517.3 354.8 530.9 352 533.1 351.1C537.4 349.2 540.1 345.7 541.1 341.1C542.1 336.4 541.1 331.4 542.5 326.8C544.6 320 552.4 320.4 558.2 320.7C562.1 320.9 562 314.9 558.2 314.7C551.6 314.3 544 314.5 539.4 319.9C535.3 324.7 536.1 331.2 535.6 337.1C535.2 342.4 533.2 345 528 346.5C525 347.4 522 347.9 519.5 349.8C514.9 353.1 513 358.9 516.7 363.5C519 366.6 523.3 362.3 520.9 359.3Z" fill="#161616"/>
<path d="M542.2 364.3C539.5 361.1 545.7 357.9 547.7 356.7C550.4 355.1 552.7 353.6 554.7 351.2C558.8 346.3 561.5 337 568.9 336.6C572.7 336.4 572.8 330.4 568.9 330.6C556.6 331.2 555.6 344 547.2 350C543.6 352.5 539.3 353.9 537 357.9C534.9 361.5 535.3 365.4 537.9 368.5C540.4 371.5 544.7 367.2 542.2 364.3Z" fill="#161616"/>
<path d="M1010.8 40.5998C1010.4 46.9998 1005.4 54.6998 1011.4 60.0998C1016.6 64.6998 1023.1 61.2998 1029 61.6998C1035.5 62.1998 1032.7 68.1998 1031.9 72.5998C1031.3 75.8998 1031 79.4998 1032.5 82.6998C1034.9 87.6998 1041.4 90.8998 1046.2 87.2998C1049.2 84.9998 1046.2 79.7998 1043.2 82.0998C1038.3 85.7998 1037.3 76.8998 1037.8 74.1998C1038.3 71.2998 1039.3 68.3998 1039.4 65.3998C1039.5 61.1998 1037.3 57.8998 1033.4 56.4998C1028.6 54.7998 1024.3 56.6998 1019.5 56.5998C1010.8 56.3998 1016.6 45.7998 1016.9 40.5998C1017.1 36.6998 1011.1 36.6998 1010.8 40.5998Z" fill="#161616"/>
<path d="M1045.2 47.4998C1042.7 52.8998 1040.3 59.2998 1044.3 64.6998C1045.8 66.6998 1047.8 67.8998 1050.2 68.2998C1051.8 68.4998 1053.9 67.7998 1055.3 68.3998C1057.6 69.2998 1058.9 71.9998 1057.8 74.3998C1056.1 77.8998 1061.3 80.8998 1063 77.3998C1065.1 72.8998 1064.3 67.6998 1060.3 64.3998C1058.1 62.5998 1056.1 62.5998 1053.4 62.2998C1046.1 61.5998 1048.1 55.4998 1050.4 50.5998C1052 47.0998 1046.8 43.9998 1045.2 47.4998Z" fill="#161616"/>
<path d="M1363.9 254.9C1361.7 249.2 1367 241 1373.7 243.1C1378.8 244.8 1381.1 252.4 1377.7 256.6C1375.3 259.6 1379.5 263.8 1381.9 260.8C1388.1 253.3 1385 240.2 1375.3 237.3C1364.6 234.1 1354.3 246.3 1358.2 256.4C1359.5 260.1 1365.3 258.5 1363.9 254.9Z" fill="#161616"/>
<path d="M196.5 492.3C195.9 485.2 204.9 481.2 208.7 487.9C211.9 493.7 205.6 498.8 200.1 496.9C196.5 495.6 194.9 501.4 198.5 502.7C209.6 506.7 220.1 494.1 213.4 484.1C206.2 473.4 189.5 479.7 190.6 492.3C190.8 496.1 196.8 496.2 196.5 492.3Z" fill="#161616"/>
<path d="M231.3 212C229 215.8 228.8 220.7 231.8 224.2C233.3 225.9 235.4 227 237.6 227.4C240.7 227.9 243 226.2 245.7 227.5C248.4 228.9 247.8 230.6 248.1 233.4C248.2 235.1 248.3 236.7 248.5 238.4C248.7 240.2 248.9 242 250.2 243.4C251.4 244.7 252.9 245.2 254.6 245.5C255.8 245.7 257 245.6 258.3 245.6C259.3 245.6 260.4 245.6 261.4 245.8C263.3 246.3 264.1 247.6 263.9 249.5C262.4 250.6 263.8 253.2 265.4 252.1C268.4 249.9 267.4 246.5 264.8 244.3C263.6 243.3 262.3 242.8 260.7 242.6C255.5 241.9 252.5 243.9 251.3 236.6C250.7 233 252 225.5 248.3 223.1C246.6 222 245.1 222.5 243.4 223.2C240.7 224.3 238.5 225.2 235.7 223.5C231.9 221.2 231.8 216.7 233.9 213.3C234.9 211.9 232.3 210.4 231.3 212Z" fill="#EC615B"/>
<path d="M271.7 223.9C269.7 227.4 267.3 232.7 270.4 236.3C272.4 238.7 275.8 238.4 278.4 239.9C282.5 242.2 284.4 247 283.6 251.5C283.3 253.4 286.2 254.2 286.5 252.3C287.3 247.8 286.3 243.4 283.2 240C281.9 238.5 280.2 237.4 278.4 236.6C276.3 235.7 272.7 234.6 272 232C271.5 230.1 273.5 226.9 274.3 225.4C275.2 223.7 272.6 222.2 271.7 223.9Z" fill="#EC615B"/>
<path d="M834.6 539.7C831.2 532.7 837.6 524.5 845.2 527.2C853.1 530 852.8 540.8 845.3 543.8C843.5 544.5 844.3 547.4 846.1 546.7C855.8 542.8 857.1 528.9 847 524.7C836.6 520.3 827.4 531.6 832.1 541.3C832.9 543 835.5 541.4 834.6 539.7Z" fill="#EC615B"/>
<path d="M466.3 516C459.9 514.7 470.2 507.8 471.3 507.1C472.9 506 474.4 504.8 475.2 502.9C477.9 496.8 473 484.6 483.8 484C485.7 483.9 485.7 480.9 483.8 481C479.6 481.2 476.5 483.5 474.6 487.1C471.5 492.9 475.2 500.8 469.2 504.8C465.8 507.1 462.2 508.6 461.8 513.1C461.6 515.8 462.7 518.2 465.5 518.8C467.4 519.3 468.2 516.4 466.3 516Z" fill="#EC615B"/>
<path d="M485.5 507.3C482.7 503.4 484.3 497.9 489 496.4C492.2 495.4 494.6 495.9 496.4 492.6C498.2 489.2 497.9 485.2 499.9 481.7C502.4 477.2 506.6 474.1 511.4 472.6C513.2 472 512.5 469.1 510.6 469.7C506.1 471.1 502.2 473.6 499.3 477.3C497.8 479.2 496.5 481.4 495.7 483.8C494.6 487 495.1 491.3 491.5 493C489.3 494.1 487.1 493.5 485 495.1C483.6 496.1 482.6 497.6 482 499.1C480.6 502.4 480.9 505.9 483 508.8C484 510.4 486.6 508.9 485.5 507.3Z" fill="#EC615B"/>
<path d="M383.8 47.3998C382 43.7998 389.7 45.0998 390 45.1998C391.1 45.5998 392.2 46.4998 393.2 47.0998C394.8 47.9998 396.6 48.8998 398.5 48.9998C401 49.0998 403.1 47.9998 404.7 46.1998C409.3 40.5998 407.6 26.0998 418.4 30.3998C421.6 31.6998 425.2 33.5998 428.7 31.9998C431.5 30.6998 432.1 27.8998 431.7 25.0998C431.5 23.6998 429.9 20.8998 430.3 19.4998C431.1 16.7998 433.6 16.5998 435.5 17.4998C436.4 17.8998 437.2 18.4998 438.2 18.7998C441.2 19.8998 444.1 19.6998 445.9 16.8998C446.9 15.2998 444.3 13.7998 443.3 15.3998C441.3 18.5998 433.3 11.9998 429.7 13.9998C426.8 15.4998 426.9 18.4998 427.6 21.2998C428.4 24.5998 430.4 29.3998 424.3 29.2998C421.6 29.2998 419.1 26.9998 416.5 26.4998C413.4 25.8998 410.6 26.6998 408.6 29.0998C403.6 34.9998 405.5 50.3998 393.9 44.0998C390.5 42.2998 387.7 40.4998 383.9 42.1998C381 43.4998 379.6 45.9998 381.1 48.8998C382.1 50.5998 384.6 49.0998 383.8 47.3998Z" fill="#5222D0"/>
<path d="M502.9 129C498.4 127.9 497.8 122.1 500 118.7C503.1 113.9 510.4 114.2 515.3 115.1C523.5 116.6 531.1 119.8 539.4 116.7C547.4 113.7 553.4 107.2 562.4 107C571.8 106.8 580.7 110.9 590.2 110.6C606.8 110.1 621.9 101.9 637.8 98.0999C647.2 95.7999 656.4 95.5999 665.8 97.9999C674.8 100.3 683.2 104 692.2 106.2C701.6 108.6 710.9 108.2 720.4 107.4C730.8 106.6 741.5 105.8 750.9 111.2C750.7 110.6 750.4 110.1 750.2 109.5C745.2 124.2 729 130.2 714.7 131C696.8 132 679.4 125.5 661.4 126.2C643.2 126.9 627.8 138 609.9 139.7C591.6 141.5 574.3 132.8 556.1 133.3C537.6 133.8 513.5 143.9 498.9 127.4C497.6 126 495.5 128.1 496.8 129.5C508.3 142.4 526.5 140.1 541.8 137.8C553.1 136.1 563.4 136 574.7 138.2C584.3 140.1 593.9 142.7 603.7 142.9C623.5 143.4 640.2 130.6 659.7 129.3C679.4 128 698.5 135.9 718.2 133.7C732.9 132.1 748.2 125.2 753.2 110.2C753.4 109.6 753.1 108.8 752.5 108.5C734.9 98.1999 713.7 107.9 694.8 103.6C684.4 101.2 674.7 96.5999 664.2 94.3999C655.1 92.3999 646.1 92.8999 637.1 95.0999C627.5 97.3999 618.4 101.2 609 104.1C598.2 107.4 587.9 108.4 576.7 106.1C567.8 104.2 559.6 102.7 551.2 106.9C547.3 108.9 543.7 111.6 539.7 113.4C532.9 116.4 526.4 114.6 519.5 112.9C512.2 111.2 501.2 110 497.1 118.1C494.5 123.2 496.3 130.5 502.3 131.9C504 132.3 504.8 129.4 502.9 129Z" fill="#E8E8E8"/>
<path d="M86.5 283.1C100.1 281.3 113 288.3 126.5 286.6C132 285.9 137.1 283.5 142.2 281.4C144.6 280.4 147.1 279.5 149.7 278.9C154.6 277.8 159 279.1 163.8 280.1C177.2 283 192.2 279.8 205.6 277.9C212.2 277 218.7 276 225.3 274.9C232.8 273.6 240.3 271.6 247.8 270.8C255.7 270 265 273.5 261.8 283.2C259.1 291.5 249 293.9 241.4 294.5C228.2 295.5 215.1 291.7 201.9 294.2C189.6 296.5 178.6 302.9 166.7 306.4C160.1 308.4 153.5 309.2 146.7 308.3C139.9 307.3 133.5 305.6 126.5 306.1C112.3 307 97.2 315.3 83 312C74.3 310 69.8 302 74 293.7C78.1 285.7 87.5 283.6 95.7 283.6C97.6 283.6 97.6 280.6 95.7 280.6C84.2 280.6 70.6 285.6 69.4 298.8C68.3 311 80.3 316 90.6 315.6C98.1 315.3 105.5 313.1 112.8 311.4C122.3 309.2 131 308.4 140.6 310.2C147.7 311.5 154.3 312.2 161.5 310.8C168.9 309.4 175.9 306.4 182.8 303.6C189.8 300.8 196.9 297.9 204.4 296.8C213.2 295.5 222 296.9 230.8 297.4C242.3 298.1 260.6 297.6 264.8 284C266.3 279.1 265.2 273.4 260.9 270.2C256.7 267.1 251 267.3 246.1 267.9C228.1 270.4 210.4 274.5 192.2 276.5C182 277.6 172.2 278.9 162.2 276.5C154.1 274.5 147.7 275.9 140.1 279C136.1 280.6 132.2 282.4 128 283.2C122.8 284.2 117.4 283.5 112.2 282.6C103.7 281 95.4 278.8 86.8 279.9C84.6 280.3 84.6 283.3 86.5 283.1Z" fill="#E8E8E8"/>
<path d="M1305 402C1286.1 408.6 1264 393 1250.4 381.2C1250.2 382 1250 382.9 1249.7 383.7C1259.3 379.8 1269.4 379.6 1279.6 380.2C1289.7 380.7 1299.8 381.4 1309.9 381.7C1331.4 382.3 1353 381.8 1374.4 380.2C1385.5 379.4 1396.5 378.3 1407.5 377C1412.9 376.3 1419.4 375 1424.5 377.5C1431.6 381.1 1431 388.9 1424.2 391.9C1420.7 393.4 1416.9 393.9 1413.2 394.6C1407.4 395.6 1401.6 396.7 1395.8 397.7C1385.2 399.6 1374.6 401.5 1363.9 403.4C1357.8 404.5 1351.7 405.6 1345.6 406.7C1339.9 407.7 1334 409.2 1328.1 409.3C1318.1 409.4 1310.6 400.6 1300.6 401.7C1298.7 401.9 1298.7 404.9 1300.6 404.7C1306.3 404 1310.8 407.1 1315.7 409.4C1319.7 411.3 1323.6 412.3 1328 412.3C1339.5 412.2 1351.4 408.7 1362.7 406.6C1374.9 404.4 1387.2 402.2 1399.4 400C1405.2 399 1411 397.9 1416.8 396.9C1420.7 396.2 1424.8 395.3 1428.2 393C1433.9 389.1 1434.1 381.9 1429.3 377.2C1421.8 369.8 1408.9 373.7 1399.8 374.7C1375.2 377.4 1350.4 378.8 1325.6 378.7C1312 378.7 1298.4 378.2 1284.8 377.3C1272.7 376.6 1260.4 376 1249 380.6C1248.1 381 1247.4 382.3 1248.3 383.1C1262.7 395.6 1285.7 411.7 1305.8 404.7C1307.6 404.3 1306.9 401.4 1305 402Z" fill="#E8E8E8"/>
<path d="M846.4 930.3C845.5 924.6 853.6 925.5 856.8 926.6C859.3 927.4 861.7 928.4 864.3 928.7C870.5 929.5 876.6 927.4 882.4 925.5C888 923.6 893.9 921.5 899.9 922.1C907.1 922.8 912.9 928.7 911.8 936.3C910.6 944.2 902.5 947.9 895.3 945.7C890.4 944.2 886.1 941.1 881 940.3C870.2 938.7 858.9 948.1 848.5 943.1C846.8 942.3 845.2 944.8 847 945.7C853.2 948.7 859.4 947.3 865.7 945.5C869.7 944.4 873.9 943 878.1 943.1C883 943.2 887 945.6 891.3 947.4C897.4 950 903.8 950.5 909.2 946.1C913.8 942.4 915.8 936.5 914.4 930.8C910.2 914.3 891.2 919.4 879.8 923.2C874.4 925 868.7 926.7 862.9 925.5C859.2 924.7 855.7 922.4 851.7 922.5C846.9 922.6 842.6 926.1 843.4 931.1C843.8 933 846.7 932.2 846.4 930.3Z" fill="#E8E8E8"/>
<path d="M731.1 897C735.9 892.5 742.5 890.6 749 892C751.7 892.6 759.2 894.6 754.5 898.2C752 900.1 746.5 899.9 743.5 899.9C741.6 899.9 741.6 902.9 743.5 902.9C747.9 902.9 755.6 902.7 758.9 899.2C761.7 896.2 758.5 892.9 755.8 891.4C747.2 886.4 736.1 888.3 729 894.9C727.6 896.2 729.7 898.3 731.1 897Z" fill="#E8E8E8"/>
<path d="M675.5 963.3C674.7 963 674 962.7 673.2 962.4C673.1 963.2 673 964 672.9 964.8C679 960.4 685.9 963.6 692.4 965.1C697.9 966.4 702.7 965.8 708.1 964.5C714.8 962.9 721.6 961.9 728.5 961.5C731.7 961.3 734.9 961.2 738.1 961.1C741.1 961 748.6 959.5 746 964.6C742.9 970.7 733.9 970.9 728.4 969.1C723.7 967.6 719.3 965.4 714.3 966.6C709.1 967.8 704.7 971.1 699.3 972.2C692.1 973.7 685 973 678.1 970.5C676.3 969.9 675.5 972.7 677.3 973.4C684.1 975.8 691.2 976.6 698.4 975.4C706.5 974 713.7 967.7 722.1 970C728.1 971.7 733 974.4 739.4 972.5C743.5 971.3 749.3 967.7 750.1 963.1C751.1 957.7 744.4 957.9 740.9 958C732.8 958.2 724.6 958.6 716.5 959.8C712.1 960.5 707.9 961.7 703.6 962.5C698.3 963.5 694 962.5 688.9 961.1C682.9 959.4 676.7 958.4 671.3 962.2C670.5 962.8 670.3 963.8 671 964.6C672.5 966.3 674.1 966.7 676.2 966.3C678.2 965.9 677.4 963 675.5 963.3Z" fill="#E8E8E8"/>
<path d="M1088.5 906C1094.3 903.6 1100.4 902.3 1106.7 902.4C1113.2 902.5 1118.7 905 1124.9 906.4C1134 908.6 1140.8 903 1148.2 898.7C1159.9 891.8 1171.5 896.3 1183.7 898.8C1192.4 900.6 1201.7 900.9 1209.2 895.6C1210.8 894.5 1209.3 891.9 1207.7 893C1198.3 899.8 1186.7 896.5 1176.4 894C1166.7 891.7 1157.1 890.4 1148 895.4C1144 897.6 1140.3 900.5 1136.1 902.4C1129.7 905.3 1124.5 903 1118.3 901.2C1108.2 898.3 1097.5 899.1 1087.8 903.1C1085.9 903.8 1086.7 906.7 1088.5 906Z" fill="#E8E8E8"/>
<path d="M393.2 413.6C402.1 410.2 417.7 428.5 425.4 440.5C437.2 458.6 439.1 474.4 444.9 511C447.1 525.2 450.7 547.7 455.6 576.1C464.4 584.7 467.7 593.1 469 598.3C470.8 605 471.3 613.6 469 614.4C466.5 615.3 462.1 606.9 460.3 607.7C457.9 608.8 465.7 622.3 461 628.5C456.2 634.8 438.2 633.8 428.8 624.5C420 615.8 423.5 604.7 422.1 578.2C421.6 569.2 420.2 544.7 412.7 520.5C403.5 491 393.9 489.5 388.5 463.4C384.7 445 383.6 417.3 393.2 413.6Z" fill="white" stroke="#161616" stroke-width="2"/>
<path opacity="0.15" d="M406.4 439.4C411.9 438.2 421.5 463.1 422.1 464.5C430.9 487.5 426.7 497.3 430.6 531.2C433.8 558.8 435.6 574.5 444.5 593.9C453.1 612.5 463.1 623.4 459.3 628.4C455.5 633.5 440.6 628.6 428.9 623.9C427.8 621.4 426.2 617.5 424.9 612.7C421.6 601 421.8 591.7 421.8 587.2C421.8 584.7 421.7 555.7 416 530.4C412.9 516.9 411.5 518.9 407.9 504.9C400 474.5 400.3 440.7 406.4 439.4Z" fill="#6D6C6C"/>
<path opacity="0.17" d="M419.9 487.8C421 498.2 422.4 513.7 423 532.6C423.9 561.7 422.5 585.9 421.7 585.9C421 585.9 421.9 568.5 418.1 544.7C415.6 528.9 411.9 516.1 409.1 507.6C411 505.7 413.3 503.1 415.4 499.5C418 494.9 419.3 490.7 419.9 487.8Z" fill="#6D6C6C"/>
<path d="M413 842.5C410.4 847.3 410 852.5 416 897.8C416.7 903.4 417.4 908 417.8 911.2C433.1 913.6 454.7 915.5 480.3 913C495.8 911.5 513.9 909.8 514.9 903.9C515.7 899.1 505.2 890.5 457.2 874.1C455 858.1 452.7 842.1 450.5 826.1C422.4 828 415.1 838.8 413 842.5Z" fill="#161616"/>
<path d="M352.7 557.4C362.1 570.2 375.5 588.6 391.2 611.1C428.4 664.3 447 690.9 453.5 708.7C472.7 761.4 467.7 812.6 465.8 830C464.7 840 463.3 848.2 462.2 853.8C454.6 856.7 443.7 859.9 430.4 861C418.5 862 408.3 860.9 400.8 859.6C398.5 846 396.6 830.7 395.7 814.1C394.4 789.4 395.6 767.3 397.9 748.4C372.2 728.7 355.6 708.4 345.5 694.3C318.5 656.2 311.3 623.2 307 602C300.9 572.6 305.1 564.6 309 560.4C322 546.9 350.2 556.6 352.7 557.4Z" fill="white" stroke="#161616" stroke-width="2"/>
<path opacity="0.19" d="M355.6 641.8C365.9 650.5 379.3 663.4 392.3 681.1C395.9 686.1 410.8 707.4 423.9 741.6C441.9 789 443.4 833.2 442.6 858.2C438.2 859.8 432 861.5 424.6 862.1C414.7 862.8 406.6 861.1 401.4 859.5C398.2 840 395.8 817.5 395.6 792.5C395.5 776.3 396.2 761.2 397.5 747.4C395 746 346.7 718.8 347.3 673.3C347.4 660.6 351.4 649.8 355.6 641.8Z" fill="#6D6C6C"/>
<path opacity="0.15" d="M368.5 718.4C370.7 715.4 398.2 723.8 409.1 744.2C417.3 759.5 410.7 771.3 411 793.1C411.2 809.4 415.4 832.6 433.5 860.7C423 860.5 412.5 860.3 401.9 860.1C399 841.5 396.7 820.3 396.1 797C395.6 778.6 396.2 761.6 397.4 746.1C393.5 744.1 388.5 741 383.2 736.4C377.3 731.2 366.9 720.6 368.5 718.4Z" fill="#6D6C6C"/>
<path d="M236.3 834.6C228.7 839.5 227.4 846.3 220.5 861.3C215.7 871.7 208.5 885.6 197.4 901.4C203.7 908.5 214.2 918.4 229.6 925.7C250.7 935.7 280.3 940.5 284.9 931.8C289.8 922.4 264.1 900.1 256.4 893.5C258.5 888.8 261.9 881.3 266.1 872.2C277.2 848.4 279.4 844.9 277.6 840.6C273.4 830.4 250.1 825.8 236.3 834.6Z" fill="#161616"/>
<path d="M268.4 534.8C262.4 551.3 256.3 567.8 250.3 584.2C240.4 612.8 244.7 632.6 247.9 642.1C251.4 652.6 257.5 661.6 269.6 679.5C279 693.3 287.5 704.4 293.7 712.1C281.3 725 267.2 741.7 253.9 762.7C236 791.1 225.4 817.8 218.9 838.7C224.8 843.2 233.7 848.9 245.4 853.2C258.5 858 270.1 859.1 278 859.2C291.9 848.5 310.9 831.8 328.6 807.3C342.5 788.2 361.2 762.5 367.2 726.5C377.4 665.2 344.1 615.3 332.2 597.5C310.7 565.2 284.9 545.6 268.4 534.8Z" fill="white" stroke="#161616" stroke-width="2"/>
<path d="M310.5 570.8C318.2 581.5 325.8 592.3 333.1 603.2C334 602.7 334.8 602.2 335.7 601.7C329.2 593 323.4 583.7 318.4 574C317.7 574.7 317 575.4 316.3 576.1C320.4 578.9 322.7 583.1 325.2 587.2C328.1 592 331.1 596.8 334 601.6C339.7 610.9 345.4 620.3 351.1 629.6C352 629.1 352.8 628.6 353.7 628.1C345 614.5 336.3 600.9 327.5 587.3C326.5 585.7 323.9 587.2 324.9 588.8C335.7 606.8 346.6 624.7 357.4 642.7C358.4 644.4 361 642.9 360 641.2C352.1 627.8 344.3 614.3 336.4 600.9C335.6 601.5 334.8 602.1 334 602.7C345.3 615.2 347.3 633.4 359.6 645.1C361 646.4 363.1 644.3 361.7 643C349.4 631.4 347.4 613.1 336.1 600.6C334.9 599.3 332.9 601 333.7 602.4C341.6 615.8 349.4 629.3 357.3 642.7C358.2 642.2 359 641.7 359.9 641.2C349.1 623.2 338.2 605.3 327.4 587.3C326.5 587.8 325.7 588.3 324.8 588.8C333.5 602.4 342.2 616 351 629.6C352 631.2 354.6 629.7 353.6 628.1C347.2 617.6 340.8 607.1 334.4 596.7C329.7 588.9 325.4 578.8 317.6 573.5C316.3 572.6 314.9 574.3 315.5 575.6C320.5 585.3 326.2 594.5 332.8 603.3C333.9 604.8 336.5 603.4 335.4 601.8C328.1 590.8 320.6 580 312.8 569.4C312 567.7 309.4 569.2 310.5 570.8Z" fill="white"/>
<path opacity="0.2" d="M316.8 575.2C311.6 582.7 304.4 595.1 301.3 611.4C291.8 660.8 331.8 682.7 322.9 726C318.2 748.8 306.3 746.7 279.7 794.1C266.2 818.2 257.6 839.4 252.5 853.8C246 851.8 238.9 849.2 231.4 845.8C227 843.8 222.9 841.8 219.2 839.7C225.1 821.3 234 799.1 247.4 775.3C262.6 748.4 279.3 727.4 293.4 711.9C289.5 706.9 283.7 699.3 277 689.8C258.5 663.6 249.1 650.2 246 634.8C242.5 617.8 245.4 603.3 247.4 593.5C250.4 578.7 255.5 567.1 259.6 559.2C278.6 564.5 297.7 569.9 316.8 575.2Z" fill="#6D6C6C"/>
<path opacity="0.17" d="M293.3 569.1C282 582 267.2 603.2 268.4 628.8C270.2 668.9 309.8 684.2 304.1 717.1C302.5 726.2 289.9 740.8 264.6 769.7C250.7 785.6 238.9 798.3 230.8 806.8C237 791.6 246 773.4 259 754.2C270.5 737.2 282.3 723.6 292.8 712.9C289.7 708.2 284.2 699.8 277.3 689.4C253.2 653.2 248.5 647.5 245.8 634.9C242.6 620.1 244.7 607.6 246.3 598.3C249.2 581 255.3 567.7 259.9 559.3C271 562.5 282.2 565.8 293.3 569.1Z" fill="#6D6C6C"/>
<path d="M345 395.1C330.8 403.5 303.8 422 283.2 456C257 499.3 257 541.6 257.9 558C262.8 559.6 267.8 561.2 272.9 562.7C307 572.9 340 579.8 371.2 584.2C373.8 575.3 376.6 566.3 379.6 557C384.1 543.3 388.8 530.2 393.6 517.7C410.2 509.1 416 498 417.9 493.4C425.6 475.4 418.3 456.6 410.4 436.3C406 424.9 403.7 419.1 398.2 412.9C381 393.4 352.6 394.6 345 395.1Z" fill="#EC615B"/>
<path opacity="0.27" d="M378.7 418.8C351.4 422.4 336.8 434.8 330.9 440.6C297.6 473.5 309.1 529 312.2 544C315 557.5 319.2 568.3 322.5 575.6C301.4 569.9 280.4 564.1 259.3 558.4C258 543.1 256.7 503.8 279.4 461.9C300.5 423.1 330.8 403.2 344.3 395.4C346.2 395.5 348.1 395.7 350 395.8C352.9 399.2 356.4 402.8 360.7 406.5C367.1 412.1 373.4 416 378.7 418.8Z" fill="#6D6C6C"/>
<path opacity="0.2" d="M291.2 443.9C288.4 458.6 286.1 479.9 289.1 505.1C292.7 534.7 302.2 557.6 309.6 572C292.4 567.6 275.1 563.2 257.9 558.9C257.1 545.1 257.5 524.4 264.1 500.6C271.3 474.6 282.9 455.6 291.2 443.9Z" fill="#6D6C6C"/>
<path d="M1136.6 774.3C1130.3 788.4 1131.5 801.6 1132.5 807.8C1152.2 816.5 1169.7 820.5 1183.1 822.5C1187.5 823.2 1241.9 830.9 1247.2 816C1248.5 812.3 1246.4 808.5 1244.3 804.8C1232.6 784.3 1203 783.1 1199 783C1197.9 761.7 1184.2 745.9 1170.2 744.8C1150.4 743.3 1138 771.2 1136.6 774.3Z" fill="#161616"/>
<path d="M1162.6 430.3C1175.6 449 1193.1 478.1 1205.8 516.7C1226.5 579.6 1223.1 632.4 1220.8 662.3C1218.8 688.9 1213.4 726.7 1198.3 770.3C1194.2 772.9 1176.1 783.7 1153.2 778.8C1139.6 775.9 1130.4 768.7 1126 764.7C1134.1 746.9 1143.9 720.1 1147.6 686.7C1151.7 650.3 1146.7 621.8 1140.1 585.2C1125.1 502.5 1104.4 471.1 1122.3 448C1130.9 436.8 1145.6 431.8 1162.6 430.3Z" fill="white" stroke="#161616" stroke-width="2"/>
<path opacity="0.16" d="M1169.7 476C1176.5 509.1 1181.9 547.1 1184 589.3C1187.6 664.2 1179.5 728.8 1169 779.1C1164.5 779.7 1153.6 780.4 1142 774.6C1135.1 771.1 1130.4 766.5 1127.7 763.3C1140.2 734.5 1144.7 710 1146.5 693.5C1149.3 667.6 1147 646.8 1142.7 608C1140.2 585.3 1137.3 566.7 1135.2 554C1146.7 528.1 1158.2 502 1169.7 476Z" fill="#6D6C6C"/>
<path opacity="0.22" d="M1147.8 525.8C1156.4 548.2 1169.3 590.9 1164.9 645.2C1160.7 697.5 1142.3 736.4 1130.6 757C1150.2 700.4 1151.2 665.7 1148.2 644.2C1147.4 638.7 1144 616.9 1140.1 584.8C1138.5 571.5 1137.3 560.6 1136.6 553.6C1140.4 544.3 1144.1 535 1147.8 525.8Z" fill="#6D6C6C"/>
<path d="M991.9 731C983.6 735.1 981.1 741.8 969.7 763.5C962.1 777.9 955.7 789.4 951.5 796.8C964.3 806 984.6 818.1 1011.7 824.5C1027.7 828.3 1061 833.6 1064.8 824.5C1069 814.4 1034.8 791.1 1020.4 781.7C1035.2 767.3 1035.9 746.4 1025.9 735.7C1017.4 726.6 1002 726 991.9 731Z" fill="#161616"/>
<path d="M1136.9 428.2C1169.9 457.3 1131.3 554.3 1099.6 631.9C1085.9 665.4 1064.5 713.9 1033 770.6C1027.5 771.4 1011 773 993.4 763.5C975.7 754 968 739.1 965.7 734.2C974.9 718.3 986 696.9 996.6 670.8C1000.8 660.5 1018.9 614.5 1029.1 549.5C1033.1 523.8 1036.7 489.9 1036.2 449.6C1042.1 443.6 1075 411.3 1113.9 418.7C1119.8 419.8 1129.5 421.7 1136.9 428.2Z" fill="white" stroke="#161616" stroke-width="2"/>
<path d="M1147.6 468.2C1147.5 471.7 1147.4 475.2 1147.4 478.7C1148.4 478.7 1149.4 478.7 1150.4 478.7C1149.9 473.1 1150.2 467.8 1151.3 462.3C1150.3 462.2 1149.3 462 1148.4 461.9C1149 473.7 1146.3 486.1 1144.2 497.7C1142.1 509.4 1139.3 521 1136 532.4C1137 532.7 1137.9 532.9 1138.9 533.2C1144.4 512.4 1149 491.5 1152.8 470.3C1153.1 468.4 1150.2 467.6 1149.9 469.5C1146.1 490.6 1141.5 511.6 1136 532.4C1135.5 534.3 1138.4 535.1 1138.9 533.2C1142.4 521.2 1145.2 508.9 1147.4 496.6C1149.4 485.4 1152 473.3 1151.4 461.9C1151.3 460.3 1148.8 459.8 1148.5 461.5C1147.3 467.2 1147 472.9 1147.5 478.7C1147.7 480.6 1150.5 480.7 1150.5 478.7C1150.6 475.2 1150.7 471.7 1150.7 468.2C1150.7 466.3 1147.7 466.3 1147.6 468.2Z" fill="white"/>
<path d="M1134.9 526.1C1135 533.8 1135.2 541.5 1135.3 549.2C1135.3 551.1 1138.3 551.1 1138.3 549.2C1138.2 541.5 1138 533.8 1137.9 526.1C1137.8 524.1 1134.8 524.1 1134.9 526.1Z" fill="white"/>
<path opacity="0.19" d="M1093.3 459.3C1093.6 479.4 1092.5 506.8 1086.6 538.6C1080.3 572.3 1070.7 598.4 1056.7 637.7C1045.3 669.9 1039.8 679.5 1028.2 715.2C1021.1 736.9 1016.1 755.1 1012.9 767.3C1007.4 766.6 996 764.3 984.6 755.8C974 747.9 968.6 738.5 966.2 733.6C984.6 701.3 996.3 673 1003.7 652.4C1026.6 588.7 1032 533.3 1035.1 499.2C1036.4 485 1037.1 473.2 1037.4 465.5C1056 463.4 1074.7 461.4 1093.3 459.3Z" fill="#6D6C6C"/>
<path opacity="0.24" d="M1083 462.2C1075.2 496.5 1066.2 523.5 1059.1 542.4C1053.3 558 1044.4 579 1026.7 620.9C1020.2 636.4 1016.9 644.1 1015.3 647.6C1005.5 669.6 989.8 700.5 964.7 736.9C987.2 696.5 1013 638.9 1026.7 566.3C1033.6 529.7 1036.1 496.3 1036.4 467.4C1036.3 467.3 1036.3 467.3 1083 462.2Z" fill="#6D6C6C"/>
<path d="M1114.6 216.3C1116.2 220.2 1119 225.9 1124.1 231.7C1127.8 235.9 1132.5 241.3 1139.5 243.4C1153.1 247.6 1166.3 236.8 1168.1 235.3C1181.3 243.1 1194.5 250.9 1207.6 258.7C1208.8 275 1208.9 299.6 1202.5 328.3C1196.4 355.6 1190.5 358.9 1185.7 385.4C1178.4 425.2 1183.8 460.7 1182 460.8C1181.7 460.8 1181.3 460 1180.5 455.7C1129 459.6 1077.5 463.5 1026 467.4C1024.5 436.5 1024.7 410.5 1025.3 391.3C1026.1 361.3 1028.5 325 1038.5 282.9C1045.6 252.8 1051.2 242.6 1059.7 234.6C1078.1 217.1 1103.3 216 1114.6 216.3Z" fill="#5222D0"/>
<path opacity="0.3" d="M1174.2 238.9C1172.5 257.2 1169.3 284.4 1163.2 317C1161.4 326.8 1156.3 353.8 1152.2 367C1147.2 383.2 1127.7 429.5 1032.3 467.1C1061.4 463.7 1091.4 460.7 1122.1 458.2C1141.3 456.6 1160.3 455.2 1179 454.1C1185.6 430.6 1191.7 404 1196.1 374.6C1202.8 330.1 1204.1 289.9 1203 256C1193.4 250.3 1183.8 244.6 1174.2 238.9Z" fill="#32198E"/>
<path d="M1133 156.1C1129.5 174 1127.9 193.8 1113.4 215.7C1111.4 218.7 1109.7 221 1108.5 222.5C1109.7 224.9 1122.4 249.5 1149.4 253.2C1164.8 255.3 1176.9 249.4 1181.5 246.9C1180.8 240.9 1180.4 233.7 1181 225.6C1181.8 213.7 1184.3 203.8 1186.8 196.3C1198.4 194.8 1209.9 193.3 1221.5 191.8C1223.8 186.7 1226 181.6 1228.3 176.4C1231.5 176.3 1234.6 176.2 1237.8 176.1C1235.4 169.1 1231.8 158 1227.6 144.3C1219.8 118.5 1219.9 114.8 1215.7 109C1204.1 93.1001 1178.1 83.0001 1161 91.5001C1144.5 99.6001 1139.5 122.7 1133 156.1Z" fill="white" stroke="#161616" stroke-width="2"/>
<path d="M1237.3 174.7C1231.6 174.8 1226 174.4 1220.4 173.6C1218.5 173.3 1217.7 176.2 1219.6 176.5C1225.5 177.4 1231.3 177.8 1237.3 177.7C1239.3 177.7 1239.3 174.7 1237.3 174.7Z" fill="#161616"/>
<path d="M1241.3 128.8C1236.2 126 1230.1 127.6 1226.8 132.3C1225.7 133.9 1228.3 135.4 1229.4 133.8C1231.7 130.5 1236.3 129.5 1239.8 131.4C1241.5 132.3 1243 129.7 1241.3 128.8Z" fill="#161616"/>
<path d="M1238.7 146.8C1239.2 144.5 1239.1 142.2 1238 140.1C1237.2 138.6 1235.5 136.8 1233.6 137.6C1231.6 138.4 1231.7 141.2 1232.1 142.9C1232.5 145 1233.6 146.9 1235.2 148.3C1236.1 149.1 1237.8 148.6 1237.8 147.2C1237.8 144.7 1237.2 142.5 1236.1 140.2C1235.3 138.5 1232.7 140 1233.5 141.7C1234.3 143.4 1234.7 145.2 1234.8 147.1C1235.7 146.7 1236.5 146.4 1237.4 146C1235.7 144.6 1235.1 142.8 1235 140.7C1235.1 140.5 1235 140.3 1234.7 140.3C1234.9 140.4 1235.1 140.6 1235.2 140.8C1235.5 141.2 1235.8 141.8 1235.9 142.3C1236.3 143.5 1236.3 144.6 1236 145.8C1235.3 147.9 1238.2 148.7 1238.7 146.8Z" fill="#161616"/>
<path d="M1212.3 132.8C1206.5 130.9 1200.4 133.3 1197 138.3C1195.9 139.9 1198.5 141.4 1199.6 139.8C1202.2 135.9 1207 134.3 1211.5 135.7C1213.3 136.2 1214.1 133.4 1212.3 132.8Z" fill="#161616"/>
<path d="M1213.9 149.5C1214.1 146.8 1213 142.6 1210.2 141.5C1206.5 140 1206.5 145.2 1206.9 147.4C1207.4 149.6 1209.2 153.7 1212.2 152C1213.4 151.3 1213.6 150 1213.2 148.8C1212.5 146.9 1211.4 145.2 1210.6 143.4C1209.8 144 1209 144.6 1208.2 145.2C1208.6 145.6 1208.9 146 1209 146.6C1209.5 148.5 1212.4 147.7 1211.9 145.8C1211.6 144.7 1211.1 143.9 1210.3 143.1C1209 141.9 1207.2 143.4 1207.9 144.9C1208.3 145.6 1208.6 146.3 1209 147.1C1209.3 147.7 1209.6 148.8 1210.1 149.3C1210.3 150 1210.5 150 1210.8 149.3C1210.7 149.1 1210.5 148.8 1210.4 148.6C1210.1 148 1209.9 147.4 1209.8 146.7C1209.7 146.1 1209.8 145.3 1209.6 144.7C1209.7 144.3 1209.6 144.2 1209.5 144.7C1209.7 145 1210 145.3 1210.1 145.6C1210.8 146.8 1211 148.2 1210.9 149.6C1210.7 151.4 1213.7 151.4 1213.9 149.5Z" fill="#161616"/>
<path d="M1219.7 115.4C1218.9 110.1 1216.8 101.5 1211.2 92.5998C1209.2 89.4998 1204.9 82.7998 1198.1 78.2998C1185.1 69.6998 1165.1 70.3998 1150.5 80.8998C1136.3 91.1998 1129.2 109.7 1132.3 128C1161.5 123.8 1190.6 119.6 1219.7 115.4Z" fill="#EC615B"/>
<path d="M1267.5 105.8C1222.6 111.5 1177.8 117.2 1132.9 122.9C1127.2 123.6 1127.2 132.6 1132.9 131.9C1177.8 126.2 1222.6 120.5 1267.5 114.8C1273.1 114.1 1273.2 105.1 1267.5 105.8Z" fill="#161616"/>
<path d="M1161.4 126.8C1169.3 129.7 1173.9 135.2 1179.3 141.8C1190.6 155.6 1187.2 160.7 1195.2 169.3C1207.8 183 1220.6 174.9 1231.9 188.3C1241.5 199.7 1240.2 215.1 1239.8 218.5C1239.4 221.9 1237.7 235.6 1226.6 245C1217 253.1 1203.9 255 1203.1 253.2C1202.8 252.5 1203.9 250.9 1211 246.1C1208.9 247.6 1205.7 249.4 1201.4 250.2C1196.5 251.1 1191.9 250.2 1191.8 249.5C1191.8 249 1194.4 249 1196.4 246.8C1197.6 245.5 1198.1 244 1198.4 242.7C1194.5 245.3 1189.5 247.5 1184.8 246.1C1172 242.2 1169.7 213.5 1168.9 204C1166.5 173.2 1175.3 156.4 1164.6 145.6C1163.7 144.7 1159.4 140.3 1154.7 141.2C1148.7 142.3 1144.1 151.7 1146.1 157.9C1147.8 163.2 1153.8 164.7 1153.4 165.7C1152.8 167 1142.7 165 1134.2 158.2C1131.1 155.7 1128.6 153.7 1127.3 150C1125 143.6 1127.7 136.3 1131.3 132C1138.8 123 1152.8 123.6 1161.4 126.8Z" fill="#161616" stroke="#161616" stroke-width="2"/>
<path opacity="0.22" d="M1149.5 166.5C1151.4 166.7 1154.1 166.8 1154.3 166.1C1154.4 165.8 1153.7 165.3 1153.7 165.3C1153.7 165.3 1156 168.2 1158.8 168.6C1160.2 168.8 1161.3 168.3 1162.1 167.9C1157 178.6 1151.8 191.6 1147.5 206.6C1143 222.1 1140.5 236.3 1139.2 248.4C1134.8 247 1126.8 243.8 1119.4 236.6C1114 231.4 1110.9 225.9 1109.1 222.2C1115.1 213.2 1118.6 205.3 1120.7 199.9C1122.6 194.9 1123.3 191.6 1126.7 180.2C1129.5 171 1131.7 163.4 1133.2 158.2C1134 158.9 1135.2 160 1136.8 161.1C1139.1 162.7 1143.6 165.8 1149.5 166.5Z" fill="#6D6C6C"/>
<path d="M1181.8 72.9C1170.1 75.2 1161.4 84.6 1160.1 95.7C1158.5 108.9 1168.2 117.9 1169.1 118.7C1156.7 120.2 1144.3 121.8 1131.9 123.3C1131.7 120.4 1131.6 116.4 1132.3 111.8C1134.7 97 1143.3 87.9 1145.1 86C1148 83 1158.2 73.3 1173.3 72.4C1176.8 72.2 1179.7 72.6 1181.8 72.9Z" fill="#B74949"/>
<path d="M1204.6 257.7C1212.6 256.5 1220.8 270.4 1224.6 276.8C1246.6 314.2 1237.4 357.4 1234.6 370C1232.4 379.9 1228.3 397.4 1215.5 416.7C1203.3 435.3 1188.9 446.8 1179.7 453.1C1164.3 459 1136.3 467.1 1102.6 461.6C1090.9 459.7 1080.7 456.5 1072.2 453.1C1057.8 454 1043.4 454.8 1029 455.7C1026.7 455.3 1023.5 454.7 1019.7 453.3C1015.1 451.6 1010.7 449.9 1010.7 448.3C1010.7 446.5 1015.7 443.7 1040.1 439.9C1038.9 440.1 1022.9 443.2 1012.2 432C1002.2 421.6 1001.6 403.8 1009.2 396.8C1015.6 390.9 1026 393.5 1045 398.6C1063.8 403.6 1078.9 410.4 1089.9 416.2C1094.1 418.1 1126.8 432.2 1156.7 415C1179.5 401.9 1187.1 378.4 1188.9 371.9C1196.1 346.1 1183 337 1187.7 299.7C1188.3 293.3 1192.6 259.4 1204.6 257.7Z" fill="white" stroke="#161616" stroke-width="2"/>
<path d="M1005.4 419.1C1017 420 1028.1 422.8 1038.7 427.6C1040.4 428.4 1042 425.8 1040.2 425C1029.1 419.9 1017.5 416.9 1005.4 416C1003.5 416 1003.5 419 1005.4 419.1Z" fill="#161616"/>
<path d="M1004.7 406.9C1018 406.5 1029.3 414.6 1041.7 418.4C1043.5 419 1044.3 416.1 1042.5 415.5C1029.9 411.6 1018.4 403.5 1004.7 403.9C1002.8 404 1002.7 407 1004.7 406.9Z" fill="#161616"/>
<path d="M1017.5 396.3C1028.4 397.2 1038 402.4 1047.4 407.7C1049.1 408.6 1050.6 406.1 1048.9 405.1C1039 399.6 1029 394.3 1017.5 393.3C1015.5 393.1 1015.5 396.1 1017.5 396.3Z" fill="#161616"/>
<path opacity="0.18" d="M1192.4 276.1C1186.5 299.8 1202.2 315.8 1207.5 342.9C1208.4 347.7 1215.5 386.6 1194.7 414.2C1171.5 445 1125.5 446.1 1116.5 446.4C1093 447 1084.1 440.1 1047.3 442C1043.8 442.2 1011.8 444 1011.5 448.5C1011.4 450.9 1020.3 453.6 1027 454.5C1035.8 455.7 1040.4 453.7 1051.6 452.8C1056.4 452.4 1063.3 452.1 1071.8 452.8C1082 457 1095.2 461.1 1111 462.7C1115.3 463.1 1128.7 464.3 1145.9 461.8C1145.9 461.8 1160.3 459.8 1171.7 455.8C1200 446 1228 404.7 1235.9 359.7C1244.8 309 1225 270.8 1213.9 262.3C1212.4 261.1 1208.1 257.8 1203.6 258.9C1196.3 260.5 1193.3 272.4 1192.4 276.1Z" fill="#6D6C6C"/>
<path opacity="0.17" d="M1234.6 306.2C1233 306.2 1233 325.3 1228.6 349.3C1225.9 363.9 1220.4 393.6 1207.1 414.3C1183.4 451.2 1135 459.5 1116.6 461.7C1132.4 463.9 1156.7 464.4 1180.4 451.8C1231.8 424.4 1236.8 358.3 1237.7 346.3C1239.1 326.1 1236.2 306.2 1234.6 306.2Z" fill="#6D6C6C"/>
<path d="M371.1 684.6C412.5 647.8 454.1 611.2 495.9 574.9C574.7 506.4 654.2 438.8 734.5 372C728.2 353.3 720.1 320.9 724.9 281.5C726.4 269 739.2 176.9 823.6 129.3C830.6 125.3 927.5 72.9001 1018.3 130.7C1078.2 168.8 1109.2 238.3 1101.9 306.2C1091.1 407.1 1001.5 451.8 996.3 454.3C931.7 485.1 854 476 796.1 431C709.1 502.6 622.3 574.3 535.6 646.2C497.6 677.7 459.7 709.2 421.8 740.8C413.9 737 400.8 729.4 389 715.5C379.1 703.9 373.9 692.3 371.1 684.6Z" fill="#161616"/>
<ellipse cx="915.4" cy="289.4" rx="158.6" ry="152" fill="white" stroke="#161616" stroke-width="2"/>
<path d="M928.3 145.8C899.3 207.2 868.8 268 836.9 328C827.9 344.9 818.8 361.8 809.6 378.6C808.7 380.3 811.3 381.8 812.2 380.1C844.9 320.5 876.2 260.2 906 199.1C914.4 181.9 922.7 164.6 931 147.2C931.8 145.6 929.2 144.1 928.3 145.8Z" fill="#E8E8E8"/>
<path d="M977.2 160.7C945.4 210.9 915.2 262 886.5 314C885.6 315.7 888.2 317.2 889.1 315.5C917.8 263.5 948 212.4 979.8 162.2C980.8 160.6 978.2 159.1 977.2 160.7Z" fill="#E8E8E8"/>
<path d="M881.2 331.6C868 357.3 853.9 382.6 838.8 407.3C837.8 409 840.4 410.5 841.4 408.8C856.4 384.1 870.6 358.8 883.8 333.1C884.7 331.4 882.1 329.8 881.2 331.6Z" fill="#E8E8E8"/>
<path d="M936.7 256.6C919.9 288.2 903.2 319.8 886.4 351.4C885.5 353.1 888.1 354.6 889 352.9C905.8 321.3 922.5 289.7 939.3 258.1C940.2 256.4 937.6 254.9 936.7 256.6Z" fill="#E8E8E8"/>
<path opacity="0.08" d="M910.7 136.9C899.6 140.9 826.5 168.3 803.1 241.7C800.4 250.2 792 277.6 798.3 309.3C810.4 369.7 870.8 418.6 949.8 435C943.8 437 935.4 439.4 925 440.7C862.2 448.6 813.5 405.8 807.8 400.7C795.4 389.4 757.1 351 756.4 290.2C756.3 284.9 756.6 224.9 802.1 181.6C828.6 156.4 859.6 147.2 872.6 143.5C887.8 139.2 901.1 137.6 910.7 136.9Z" fill="#6D6C6C"/>
<path d="M325.5 445.4C332.7 444.5 343.5 444.4 351.4 450.8C368.4 464.6 355.3 494.6 363.7 526.3C368.2 543.3 380.1 566.2 414.7 588.9C428.4 595.8 439.8 601 447.7 604.6C459 609.7 466.2 612.6 466.1 616.5C466 620.4 458.9 623.3 453.8 625C459.9 630.7 463 637.9 460.9 643.4C459.3 647.7 454.9 649.8 450 652.2C444.4 655 439.7 655.6 434.3 656.3C424.2 657.6 419.2 658.2 414.6 656.3C407.5 653.3 404.3 646.7 399.6 637.2C397 632 393.8 623.9 392.1 613.4C380.8 608.2 364.6 599.2 348.5 584.1C342.2 578.2 283.8 522.2 302.2 473.8C305 467 310.9 456 325.5 445.4Z" fill="white" stroke="#161616" stroke-width="2"/>
<path d="M414.9 643.9C417.4 649.4 421.2 654 426.1 657.7C427.6 658.9 429.1 656.3 427.6 655.1C423.2 651.8 419.8 647.4 417.5 642.4C416.7 640.7 414.1 642.2 414.9 643.9Z" fill="#161616"/>
<path d="M426.9 642.3C429.9 648.1 434.4 652.9 439.9 656.5C441.5 657.5 443 654.9 441.4 653.9C436.3 650.7 432.2 646.2 429.4 640.8C428.6 639.1 426 640.6 426.9 642.3Z" fill="#161616"/>
<path d="M439.5 635.5C442.3 641.4 447.1 646.1 453 648.9C454.7 649.7 456.3 647.1 454.5 646.3C449 643.7 444.7 639.5 442.1 634C441.2 632.2 438.7 633.7 439.5 635.5Z" fill="#161616"/>
<path opacity="0.2" d="M328 445.6C325.8 455.5 323.4 471.1 325.5 489.9C331 537.5 361.8 568.9 366.9 574C392.3 599.2 408.9 595.8 419 618.3C421.7 624.3 426.5 637.9 439.5 645C444.6 647.7 449.4 648.7 452.6 649.1C450.9 650.5 448.1 652.4 444.4 654C438.2 656.7 432.8 656.8 424.3 656.9C418 657 414.8 657 412 655.7C406.1 653 403.3 647.4 402.2 644.6C398.2 633.8 394.3 623 390.3 612.2C370.8 602.2 343.2 584.4 321.4 553.9C312.3 541.2 297.1 519.4 298.4 493.2C299 481.3 302.8 473 303.7 471C310.8 456.3 322.6 448.7 328 445.6Z" fill="#6D6C6C"/>
<path opacity="0.32" d="M299.7 499.3C300.3 499.1 304.1 511.1 311.6 525.1C329.9 559.7 356.3 580.9 375.2 595.7C383.8 602.4 391.1 607.4 395.7 610.5C401.3 619.9 404.5 628 406.4 633.9C408 638.8 408.9 643.2 412.6 647.8C416.4 652.8 421.3 655.6 424.9 657.2C422.2 657.3 418.1 657.1 413.8 655.1C405.6 651.3 402 643.4 398.2 635C396 630.2 393.4 623 392 613.7C339.8 587.3 320.2 554 312.8 538.2C305.2 522 298.9 499.7 299.7 499.3Z" fill="#6D6C6C"/>
<path d="M382.5 354.1C375.4 356.9 379.6 370.9 368.2 383.6C362.6 389.9 355.8 392.9 351.1 394.6C354.1 399.1 360 406.4 369.7 412.2C376.6 416.4 383.2 418.4 387.8 419.3C389.3 416.6 391.8 412.4 394.9 407.4C406 389.9 410 388 410.6 382.2C412.1 368 391.6 350.5 382.5 354.1Z" fill="white" stroke="#161616" stroke-width="2"/>
<path d="M381.2 381.1C385.3 389.3 389.6 397.4 396.4 403.7C397.8 405 399.9 402.9 398.5 401.6C391.9 395.5 387.8 387.5 383.8 379.6C382.9 377.9 380.3 379.4 381.2 381.1Z" fill="#161616"/>
<path d="M378.2 375.7C382.8 384.7 387.8 393.6 396.6 399.1C398.1 400 399.6 398 398.4 396.7C395.5 393.6 392.5 390.5 389.7 387.4C389 388.1 388.3 388.8 387.6 389.5C389.3 391.3 391.1 393 393.1 394.4C393.8 394.9 396 395.9 396.4 396.5C397 397.5 396.4 399.1 396.1 400.1C397.1 400.4 398 400.6 399 400.9C399.1 400.4 399.1 399.9 399.2 399.5C399.4 398.2 397.8 396.8 396.7 398C396.7 396.9 396.4 395.8 395.7 394.9C394.8 395.4 394 395.9 393.1 396.4C394.2 397.9 395.3 399.4 396.4 400.9C397.2 400.3 398 399.7 398.8 399.1C397.9 398.1 397.2 397.1 396.5 396C395.6 394.7 393.1 395.5 393.8 397.2C394.4 398.5 394.6 399 395.5 400.1C396.7 401.6 398.8 399.5 397.6 398C397.3 397.5 397 397 396.7 396.4C395.8 396.8 394.9 397.2 394 397.6C394.9 398.9 395.8 400.1 396.8 401.3C397.9 402.6 400.2 400.9 399.2 399.5C398.1 398 397 396.5 395.9 395C394.8 393.4 392.5 394.8 393.3 396.5C394.3 398.5 396.3 403.2 399 400.2C398.2 399.7 397.3 399.2 396.5 398.7C396.4 399.2 396.4 399.7 396.3 400.1C396 402 398.7 402.8 399.2 400.9C399.9 398.5 401.6 397.4 399.6 395C398.7 393.9 397.2 393.4 396.1 392.7C393.8 391.2 391.8 389.4 389.9 387.4C388.6 386 386.5 388.1 387.8 389.5C390.7 392.6 393.6 395.7 396.5 398.8C397.1 398 397.7 397.2 398.3 396.4C390 391.2 385.4 382.6 381 374.1C379.9 372.4 377.3 374 378.2 375.7Z" fill="#161616"/>
<path d="M474.5 327.6C472.5 336.5 468.4 349.7 459 363.3C442.5 387.2 420.1 397.3 410.5 401C405 398.9 397.8 395.2 391 388.9C372.4 371.6 371 347.9 370.8 341.8C368.8 341.3 365.9 340.2 363.4 337.8C357 331.6 355.5 319.3 361.4 314.2C368.1 308.4 380.9 315.5 382.3 316.2C385.4 317.9 387.6 320 389 321.6C394.5 305 407.7 292.5 423.4 289.9C444.8 286.4 468.2 302 474.5 327.6Z" fill="white" stroke="#161616" stroke-width="2"/>
<path d="M450.3 351.5C446.3 360.5 440.4 368.2 432.8 374.5C431.3 375.7 433.4 377.8 434.9 376.6C442.8 370.2 448.8 362.3 452.9 353C453.7 351.2 451.1 349.7 450.3 351.5Z" fill="#161616"/>
<path d="M429 367.8C428.6 371.2 429.8 374.5 432.1 377C433.4 378.4 435.5 376.3 434.2 374.9C432.4 372.9 431.7 370.5 432 367.8C432.2 365.9 429.2 365.9 429 367.8Z" fill="#161616"/>
<path d="M422.9 350.7C425.5 347.1 428.6 343.9 432.1 341C431.3 340.5 430.4 340 429.6 339.5C428.3 343.5 425.5 346.7 421.8 348.7C422.4 349.5 423 350.3 423.6 351.1C425.9 348.3 428.2 345.6 430.5 342.8C431.7 341.3 429.6 339.2 428.4 340.7C426.1 343.5 423.8 346.2 421.5 349C420.4 350.3 421.8 352.2 423.3 351.4C427.7 349 430.9 345.1 432.5 340.4C433 338.8 431.1 338.1 430 338.9C426.3 341.9 423.1 345.3 420.4 349.2C419.2 350.8 421.8 352.3 422.9 350.7Z" fill="#161616"/>
<path d="M456.1 359.5C457.4 357.3 459.1 355.4 461 353.7C460.2 353.2 459.3 352.7 458.5 352.2C457.6 355.2 455.8 357.9 453.2 359.8C453.9 360.4 454.7 360.9 455.4 361.5C456 359.9 456.9 358.4 458 357.1C459.2 355.6 457.1 353.5 455.9 355C454.5 356.8 453.4 358.6 452.6 360.7C452.1 361.9 453.8 363.2 454.8 362.4C458 360 460.3 356.9 461.4 353.1C461.9 351.6 460 350.7 458.9 351.6C456.8 353.4 455 355.6 453.5 358C452.4 359.6 455 361.1 456.1 359.5Z" fill="#161616"/>
<path d="M412.6 343.3C414.1 346.8 414.9 350.4 414.9 354.1C414.9 355.1 416.4 355.1 416.4 354.1C416.4 350.1 415.5 346.2 413.9 342.5C413.5 341.6 412.2 342.4 412.6 343.3Z" fill="#161616"/>
<path d="M408.4 340.7C409.4 342.3 410.1 343.9 410.7 345.6C411 346.5 412.4 346.1 412.1 345.2C411.5 343.3 410.7 341.6 409.7 339.9C409.2 339.1 407.9 339.9 408.4 340.7Z" fill="#161616"/>
<path d="M431.5 332.5C435.2 331.4 438.7 333.9 438.8 337.8C438.8 339.2 441.1 339.3 441.1 337.8C440.9 332.5 436.1 328.9 430.9 330.3C429.5 330.7 430.1 332.9 431.5 332.5Z" fill="#161616"/>
<path d="M458.3 347.2C459.9 346.2 461.8 346.1 463.5 347.1C464.7 347.9 465.9 345.9 464.6 345.2C462.3 343.8 459.4 343.8 457.2 345.3C456 346.1 457.1 348 458.3 347.2Z" fill="#161616"/>
<path d="M409.5 372.9C411.9 377.2 416 380.3 420.8 381.6C422.7 382.1 423.5 379.2 421.6 378.7C417.5 377.6 414.2 375.1 412.1 371.4C411.1 369.7 408.5 371.2 409.5 372.9Z" fill="#161616"/>
<path d="M388.9 325.6C391.1 321.8 396.4 313.7 406.6 308.1C413.6 304.2 420.2 303.1 424.2 302.7C426.4 305.6 430 309.4 435.3 311.8C447.8 317.5 457.9 310 465.3 315C469.2 317.6 473.1 323.9 471.6 341.1C478.2 347.9 482.6 348.3 485 347.8C495 345.8 502.2 323.3 495.9 306.9C494 302 491.5 299.2 470.3 282.3C440.4 258.5 436.7 257.1 432.8 256.2C412.2 251.4 394 261.8 390.9 263.6C386.9 265.9 386 267 363.1 291.1C345.3 309.8 343.6 311.5 342 316.1C337.8 327.7 338.6 344.5 349.3 356.8C359.4 368.3 373 370 376.5 370.4C375 367 373.4 362.2 372.6 356.3C371.6 348.7 372.6 342.4 373.5 338.3C372.8 337.8 368.8 334.5 368.5 328.9C368.3 324.8 370.2 319.6 374.6 317.9C379.5 316 386.2 318.9 388.9 325.6Z" fill="#5222D0"/>
<path d="M384.6 275.3C380.5 267.2 368.5 266 366.4 265.8C349.7 264.1 336.3 279 328.4 287.7C314.4 303.2 318.4 307.8 304.8 326.5C286.8 351.3 273.3 352.4 270.5 369.5C270.3 370.8 267.8 388 279.2 398.4C289 407.4 304.8 407.5 315.2 402.1C329.3 394.8 328.1 380.1 338.3 355.4C358.3 307.2 392.5 290.9 384.6 275.3Z" fill="#5222D0"/>
<path opacity="0.12" d="M400.7 311.7C397.5 319.7 393.7 332.4 393.9 348.3C394.2 373.7 404.6 392.3 409.8 400.3C404.1 397.9 394.6 392.8 386.3 382.8C382.9 378.7 374.9 369 372.8 354.1C371.8 347.4 372.4 341.8 373 338C372.4 337.5 368.3 333.8 368.5 328C368.6 324.2 370.6 319.1 374.9 317.6C379.7 315.9 386.3 319 388.9 325.7C389.9 323.7 391.3 321.2 393.4 318.6C396 315.5 398.6 313.3 400.7 311.7Z" fill="#6D6C6C"/>
<path opacity="0.13" d="M383.1 384.9C382.3 386.7 381.4 388.5 380.3 390.3C375.3 398.7 368.8 404.3 363.7 407.7C361.9 406.6 359.5 404.9 357.1 402.3C354.5 399.5 352.9 396.7 352 394.7C355.9 393.5 365.6 389.8 372.2 380.1C374.5 376.6 375.9 373.2 376.7 370.4C378.8 375.3 380.9 380.1 383.1 384.9Z" fill="#6D6C6C"/>
<path opacity="0.18" d="M374.3 336.3C374.8 343.2 376.1 352.2 379.5 362.3C384.2 376 391 386.1 396.2 392.5C391 388.3 384.8 382 379.8 373.2C376.5 367.3 371.6 358.8 372.2 347.2C372.4 342.7 373.4 338.9 374.3 336.3Z" fill="#6D6C6C"/>
<path opacity="0.32" d="M389.6 266.1C385.4 270.2 359.2 296.6 362.8 334.1C364.3 350.1 370.7 362.2 375.3 369.3C372.1 369.1 365.9 368.4 359.2 364.5C352.5 360.6 348.7 355.5 347 352.9C345.7 350.8 344.1 347.4 343.1 343.1C343.1 343.1 341.3 334.7 344.6 324.3C348.1 312.9 363.9 290.7 389.6 266.1Z" fill="#32198E"/>
<path opacity="0.33" d="M335.5 282.3C337.8 283.8 325.1 310.5 311.1 333.8C298.5 354.7 292.3 360.5 291.4 373.3C290.5 386.6 296.1 398 301.1 405.7C298.6 405.9 289.2 406.2 281 399.7C276.5 396.1 274.1 391.9 273 389.3C270.6 382.3 268.5 372.1 272.7 362.5C275.5 356 278.8 355.5 289.1 345.1C298.2 335.9 307.2 326.8 313.8 313.3C317.2 306.4 318.4 301.4 324.2 293.6C328 288.4 334.2 281.4 335.5 282.3Z" fill="#32198E"/>
</svg>
