<svg width="1260" height="1099" viewBox="0 0 1260 1099" fill="none" xmlns="http://www.w3.org/2000/svg">
<path d="M193.9 992.1C252.2 992.1 306.4 1016.6 363.5 1024.6C419 1032.3 473.9 1019.6 528.5 1011C556 1006.7 583.8 1003.3 611.7 1004.7C640.5 1006.2 667.2 1014 693.4 1025.6C717.1 1036.2 740.3 1048.5 765.4 1055.6C789.3 1062.4 813.9 1062.7 838.3 1058.4C895.7 1048.3 948.5 1017 1007.8 1017.3C1009.7 1017.3 1009.7 1014.3 1007.8 1014.3C955.9 1014 908.6 1037.7 859.4 1050.6C833.8 1057.3 807.1 1060.9 780.9 1056.1C754.4 1051.3 730 1039.1 705.8 1027.9C681.8 1016.8 657.5 1007.1 631.1 1003.5C603.9 999.8 576.4 1001.4 549.3 1005C494.3 1012.1 439.6 1027.1 383.8 1023.7C319.3 1019.7 259.2 989.2 194.1 989.2C192 989.1 192 992.1 193.9 992.1Z" fill="#161616"/>
<path d="M113.5 1004.1C125.4 999.6 137.6 996.4 150.2 994.5C152.1 994.2 151.3 991.3 149.4 991.6C136.8 993.4 124.6 996.6 112.7 1001.2C110.9 1001.9 111.7 1004.8 113.5 1004.1Z" fill="#161616"/>
<path d="M92.1001 1030.1C159.1 1000.6 231.4 1033.9 296.9 1050.8C316.1 1055.8 335.7 1059.5 355.6 1060.6C357.5 1060.7 357.5 1057.7 355.6 1057.6C283.4 1053.7 217.8 1013.4 144.7 1015.8C126.1 1016.4 107.7 1020.1 90.7001 1027.6C88.9001 1028.3 90.4001 1030.9 92.1001 1030.1Z" fill="#161616"/>
<path d="M402.3 1085.1C417.7 1082.8 432.3 1077.7 447 1072.7C461.6 1067.8 476.3 1063.6 491.3 1060.5C522.3 1054.2 554.1 1052.1 585.6 1054.3C603.9 1055.6 622.1 1058.4 639.9 1062.5C641.8 1062.9 642.6 1060 640.7 1059.6C578.9 1045.3 513.5 1047.9 453.1 1067.5C436 1073 419.3 1079.5 401.4 1082.2C399.6 1082.5 400.4 1085.4 402.3 1085.1Z" fill="#161616"/>
<path d="M760.6 1089.2C781.4 1099.9 805.2 1100.1 827.9 1097C854.2 1093.5 880 1086.5 905.5 1078.9C956.2 1063.8 1006.7 1045.4 1060 1042.2C1089.3 1040.4 1118.8 1043.5 1146.3 1054C1148.1 1054.7 1148.9 1051.8 1147.1 1051.1C1046.4 1012.5 944.4 1071.6 846.6 1090.8C818.9 1096.2 788.2 1099.9 762.2 1086.5C760.4 1085.7 758.9 1088.3 760.6 1089.2Z" fill="#161616"/>
<path d="M1067.5 1018.6C1090.2 1018 1112.7 1022.4 1133.5 1031.8C1135.2 1032.6 1136.8 1030 1135 1029.2C1113.8 1019.6 1090.8 1015 1067.5 1015.6C1065.5 1015.7 1065.5 1018.7 1067.5 1018.6Z" fill="#161616"/>
<path d="M360.6 1020.6C352.8 1012.4 346.7 1002.7 342.8 992C341.1 987.2 339.8 982.3 339 977.3C338.5 974.3 336.5 965.9 343.4 967.8C346.1 968.6 349.2 972.8 350.7 975C351.8 976.6 354.4 975.1 353.3 973.5C348.1 966 344.2 957.7 341.8 948.9C340.6 944.5 339.8 939.9 339.3 935.3C339.1 933.1 339 930.9 339 928.6C339 927.5 339 926.4 339.1 925.3C338.9 923.1 339.9 921.4 342.3 920.2C343.3 919.9 344.2 919.7 345.2 919.4C343.6 915.3 342.4 911.1 341.6 906.8C341.2 904.4 340.9 901.9 340.7 899.4C340.7 899.1 340.9 889.9 342.5 891.6C343.5 892.7 345.5 891.6 345 890.1C339.9 874 338.9 856.9 342.5 840.3C343.2 837.1 343.8 832.4 346.1 829.8C349.1 826.4 353.4 828.2 355.6 831.4C357 833.4 357.9 835.7 358.7 838C361.2 845.6 362.1 853.8 363.6 861.6C370.1 895.7 376.3 929.9 379.9 964.5C381.9 983.9 383.1 1003.4 383.1 1022.9C383.1 1024.8 386.1 1024.8 386.1 1022.9C386.1 982.4 380.9 942.1 374.1 902.2C370.7 882.5 367.3 862.6 363.1 843C361.7 836.6 359.4 827.4 352.5 824.8C347.4 822.9 343.7 827 342 831.4C334.9 849.8 336.4 872.3 342.2 890.8C343 890.3 343.9 889.8 344.7 889.3C341 885.5 338 890.4 337.7 893.9C337 902.6 339.2 911.9 342.3 919.9C343 921.7 345.8 921 345.2 919.1C344.3 916.2 340.8 915.3 338.4 917.3C334.4 920.6 335.9 929.9 336.3 934.2C337.4 948.8 342.5 962.7 350.7 974.7C351.6 974.2 352.4 973.7 353.3 973.2C350.7 969.5 344.6 961.8 339.2 963.9C333.7 966 335.6 974.5 336.3 978.7C339.1 995.2 347 1010.4 358.5 1022.5C359.8 1024.1 362 1022 360.6 1020.6Z" fill="#E8E8E8"/>
<path d="M382 947.3C382 937.5 382.9 927.8 384.8 918.3C385.6 914.6 390.4 890.7 394.7 891.4C395.4 891.5 396.4 891.2 396.5 890.4C398.5 879.8 401.3 869.4 405 859.3C408.6 849.7 412.6 837.3 420.9 830.7C420.2 830.7 419.5 830.7 418.8 830.7C424.1 836.5 422.6 847 422.7 854.3C422.7 862.3 422.5 870.3 422 878.4C421 895.3 419 912.1 416.3 928.7C411.1 961.2 403.3 993.3 395.4 1025.3C394.9 1027.2 397.8 1028 398.3 1026.1C406.9 991.6 415.2 957.1 420.4 921.9C422.9 905.2 424.6 888.5 425.3 871.7C425.7 862.7 425.8 853.7 425.5 844.7C425.3 838.9 425 833.1 420.9 828.7C420.3 828.1 419.4 828.2 418.8 828.7C410.8 835 407 846 403.4 855.2C399 866.4 395.8 877.9 393.6 889.7C394.2 889.4 394.8 889 395.4 888.7C392.3 888.2 390.7 890 389.4 892.7C386.8 898.3 385 904.5 383.5 910.5C380.3 922.6 378.9 935.1 378.9 947.6C379 949.2 382 949.2 382 947.3Z" fill="#E8E8E8"/>
<path d="M832 1057C827 1048.8 822.8 1040.2 819.5 1031.1C818 1027 816.7 1022.8 815.6 1018.5C815 1016.2 814.5 1013.9 814 1011.6C813.8 1010.5 813.5 1009.3 813.3 1008.1C812.3 1005.7 813.3 1004.1 816.2 1003.3C817.2 1003.2 818.2 1003 819.1 1002.9C816.4 995.5 814.5 987.9 813.5 980C813 976.1 812.7 972.3 812.7 968.4C812.7 966.5 814.1 957.3 813 956.1C813.9 957.1 815.6 956.3 815.6 955C815.4 945.5 815.9 936.1 817.5 926.7C818.2 922.4 819.2 918.2 820.3 914C820.9 911.9 821.5 909.8 822.1 907.7C822.5 906.5 822.9 905.3 823.3 904.2C823.7 901.6 825.3 900.5 828.3 901C828.9 902.5 831.3 902.4 831.2 900.6C831.1 890.7 832.6 881 836.1 871.7C837 869.4 839.9 860.1 843.3 859.9C847.7 859.7 847.8 871.6 848 874C849.7 893.7 851 913.5 851.7 933.3C853.2 973.6 852.8 1013.9 850.4 1054.1C850.3 1056 853.3 1056 853.4 1054.1C855.5 1018.8 856.1 983.5 855.2 948.2C854.7 930.7 853.9 913.2 852.7 895.8C852.1 887.2 851.5 878.7 850.6 870.1C850.1 864.8 849.1 859.9 844.5 856.7C844 856.4 843.5 856.5 843 856.7C836.5 859.8 834 867.8 832 874.3C829.3 882.8 828.1 891.7 828.2 900.7C829.2 900.6 830.2 900.4 831.1 900.3C830.1 897.6 827.2 896.4 824.5 897.7C820.1 899.7 819 907.6 817.8 911.5C813.8 925.7 812.1 940.4 812.5 955.1C813.4 954.7 814.2 954.4 815.1 954C814.9 953.8 814.8 953.7 814.6 953.5C814.3 953.1 813.6 952.9 813.1 953.1C810.9 953.9 810.4 955.3 810 957.5C809.1 962.8 809.4 968.6 809.8 973.9C810.5 984.1 812.7 994.1 816.2 1003.7C816.7 1005.2 819.3 1005.1 819.1 1003.3C818.8 1000.2 815.5 998.5 812.6 1000.1C807.9 1002.6 810.5 1010.3 811.3 1014.1C814.8 1029.8 821 1044.7 829.3 1058.4C830.4 1060.1 833 1058.6 832 1057Z" fill="#E8E8E8"/>
<path d="M856.1 982C856 976.6 856.5 971.3 857.6 966C858.1 963.6 858.8 961.2 859.6 958.9C859.9 958.1 863.1 948.9 865 951.7C865.8 952.9 867.7 952.5 867.8 950.9C868.1 946.5 868.7 942.2 869.9 938C870.4 936.2 874.8 923.7 876.8 924.9C877.8 925.6 879 924.7 879.1 923.6C879.7 914.8 881.7 906.2 885.3 898.2C887 894.3 889.1 890.5 891.5 887C893.4 884.1 896.3 879.2 899.3 877.3C907.1 872.3 905.7 884.5 905.6 888.1C905.4 892.6 905.1 897.1 904.8 901.7C904.1 911.4 903.1 921 901.8 930.6C896.6 969.7 887.4 1008.1 878.3 1046.4C877.9 1048.3 880.7 1049.1 881.2 1047.2C889.8 1011.3 898.4 975.3 903.7 938.7C906.2 921.3 908 903.8 908.7 886.2C908.9 882 909.5 875.2 904.9 872.9C900.1 870.5 896.1 876.4 893.5 879.5C883.2 892.1 877.2 907.5 876.1 923.8C876.9 923.4 877.6 922.9 878.4 922.5C869.8 917 865.1 946.6 864.9 951.1C865.8 950.8 866.8 950.6 867.7 950.3C864.3 945.3 860 950.2 858.4 953.9C854.7 962.8 853.1 972.5 853.2 982.1C853.1 983.9 856.1 983.9 856.1 982Z" fill="#E8E8E8"/>
<path d="M138.1 991C134.1 989.4 130.3 987.1 127.8 983.5C126.6 981.8 125.8 979.9 125.1 978C124.9 977.6 123 971.5 125.4 972.7C127 973.5 128.3 971.7 127.2 970.3C121.8 963.4 117.9 955.5 116 946.9C115.5 944.6 114.3 941.3 114.8 939C115.8 934.4 120.4 933.8 123.4 936.7C126.6 939.8 129.4 943.6 131.9 947.3C141.2 960.8 146.9 976.4 148.6 992.7C148.8 994.6 151.8 994.6 151.6 992.7C150.5 981.6 147.6 970.9 143 960.7C138.7 951.3 132.4 939.9 124.2 933.4C121.5 931.3 117.7 929.9 114.6 931.9C111 934.1 111.8 939 112.2 942.5C113.6 953.6 118.2 963.8 125.1 972.6C125.7 971.8 126.3 971 126.9 970.2C125.2 969.4 123.4 969.3 122 970.9C119.9 973.2 121.2 976.4 122.2 978.9C125 986.4 129.8 991.1 137.2 994.1C139.1 994.6 139.9 991.7 138.1 991Z" fill="#E8E8E8"/>
<path d="M141.4 958.6C137.3 943 133.3 927.8 131.3 911.8C130.8 908 130.3 904.1 130 900.3C129.7 896.4 128.7 890.7 129.7 886.9C129.7 886.3 129.8 885.6 129.8 885C132.9 881.6 135.2 881.4 136.7 884.6C137.6 885.9 138.4 887.4 139.1 888.9C141 892.2 142.7 895.6 144.3 899.1C157.7 927.2 163.9 958.3 162.6 989.4C162.5 991.3 165.5 991.3 165.6 989.4C167.2 953.3 158.8 915.4 140 884.4C137.7 880.6 132.1 875.4 128.2 880.6C126.5 882.8 126.7 886.4 126.7 889C126.5 894.1 126.9 899.3 127.5 904.4C128.5 913.4 129.4 922.6 131.4 931.5C133.5 941 136.2 950.3 138.7 959.7C139 961.2 141.9 960.4 141.4 958.6Z" fill="#E8E8E8"/>
<path d="M79.3999 724.2C145.5 722.6 209.9 739.3 272.6 758.6C335.3 777.9 397.5 800.3 462.5 811C495.1 816.4 528.2 818.5 561.2 816C597.5 813.3 633.2 805.9 668.4 796.9C704.3 787.7 739.8 777 775.7 767.5C811.7 757.9 847.9 749.2 884.4 741.7C958.1 726.5 1033 716.3 1108.4 714.5C1117.5 714.3 1126.7 714.2 1135.8 714.2C1137.7 714.2 1137.7 711.2 1135.8 711.2C1061.9 711 988.2 719.2 915.5 732.6C842.2 746.2 770.6 765.9 698.8 785.7C663.2 795.6 627.3 804.7 590.7 809.9C555.8 814.8 520.6 815.4 485.6 811.3C419.8 803.7 356.7 782.1 293.9 762.2C231.9 742.6 168.6 723.9 103.3 721.4C95.2999 721.1 87.2999 721.1 79.2999 721.3C77.3999 721.3 77.3999 724.3 79.3999 724.2Z" fill="#E8E8E8"/>
<path d="M730.4 739.6C798.7 720.8 865.3 696.7 932.9 675.5C1000.3 654.3 1069.1 635.8 1139.6 628.6C1178.9 624.6 1218.6 624.1 1257.9 628.6C1259.8 628.8 1259.8 625.8 1257.9 625.6C1188.1 617.7 1117.6 625.4 1049.3 640.5C980 655.8 912.8 678.7 845.5 700.9C807.1 713.6 768.7 726 729.7 736.7C727.7 737.2 728.5 740.1 730.4 739.6Z" fill="#E8E8E8"/>
<path d="M510.5 898.4C536.1 904.3 562.5 901.6 588.1 896.9C614.9 892 641.2 885 667.5 877.6C720.5 862.8 773.2 847.7 828.3 843.5C859.4 841.2 890.7 841.8 921.7 845.1C923.6 845.3 923.6 842.3 921.7 842.1C867.9 836.3 813.5 839 760.5 850.2C707.8 861.3 656.8 879.3 604.2 890.6C573.9 897.1 542.1 902.6 511.4 895.5C509.4 895.1 508.6 898 510.5 898.4Z" fill="#E8E8E8"/>
<path d="M1007.6 917.8C1074.6 914.2 1136.6 944.1 1200.9 957.7C1218.9 961.5 1237.1 964 1255.5 964.3C1257.4 964.3 1257.4 961.3 1255.5 961.3C1188.6 960.2 1127.3 929.5 1062.1 918.4C1044.1 915.3 1025.9 913.8 1007.6 914.8C1005.7 915 1005.6 918 1007.6 917.8Z" fill="#E8E8E8"/>
<path d="M31.6999 609.2C101 608.4 170.2 621 234.7 646.3C253.2 653.6 271.3 662 288.9 671.3C290.6 672.2 292.1 669.6 290.4 668.7C228.9 636.1 161.2 615.7 91.9999 608.8C71.9999 606.8 51.7999 605.9 31.6999 606.2C29.7999 606.2 29.7999 609.2 31.6999 609.2Z" fill="#E8E8E8"/>
<path d="M101.5 491.9C156.2 505.6 206.1 532.5 257.8 554.4C310 576.5 364.8 591.8 420.9 599.4C452.5 603.7 484.5 605.6 516.4 605.1C518.3 605.1 518.3 602.1 516.4 602.1C458.9 603 401.3 596 345.7 581.4C318.4 574.2 291.7 565.2 265.6 554.4C239.7 543.7 214.3 531.5 188.7 520.2C160.6 507.8 132.1 496.4 102.3 489C100.5 488.5 99.7 491.4 101.5 491.9Z" fill="#E8E8E8"/>
<path d="M474.2 664.6C526.1 684.6 583.1 673.7 634 656.1C661.4 646.6 688 635.2 715.2 625.3C741.9 615.6 769 607.2 796.5 600.1C828.3 591.9 860.6 585.5 893.1 580.9C895 580.6 894.2 577.7 892.3 578C836 586 780.6 599.4 726.9 618C674.1 636.3 623 662.2 567.1 670.1C536.2 674.5 504.3 673 475 661.7C473.2 661 472.4 663.9 474.2 664.6Z" fill="#E8E8E8"/>
<ellipse cx="284.8" cy="476.9" rx="10.2" ry="10" fill="#5222D0"/>
<ellipse cx="674.7" cy="611.2" rx="7.8" ry="7.6" fill="#5222D0"/>
<ellipse cx="851.8" cy="66.2" rx="5.2" ry="5.1" fill="#5222D0"/>
<ellipse cx="292.3" cy="756.8" rx="7.5" ry="7.3" fill="#5222D0"/>
<circle cx="939.2" cy="417.3" r="1.8" fill="#5222D0"/>
<ellipse cx="264.6" cy="461.8" rx="9.9" ry="9.7" fill="#EC615B"/>
<ellipse cx="303.2" cy="728.6" rx="3.4" ry="3.3" fill="#EC615B"/>
<ellipse cx="120.8" cy="183.8" rx="7.4" ry="7.2" fill="#EC615B"/>
<ellipse cx="876.6" cy="347.3" rx="7.4" ry="7.2" fill="#EC615B"/>
<ellipse cx="906.5" cy="321.6" rx="6.2" ry="6" fill="#EC615B"/>
<path d="M231.5 617.5C222.3 617.7 218.4 630.5 221.4 638.1C222.8 641.6 225.9 642.5 229.4 641.9C230.5 641.7 231.9 641 233.1 641C237.8 641.3 237.7 644.2 236.3 647C235.3 649 234.2 650.6 233.7 652.8C233.1 655.6 233.6 658.7 236.5 659.9C238.1 660.6 240 659.4 241.4 659.9C246.4 661.5 242.4 667.8 242 670.9C241.6 674.3 242.5 678.2 245.8 679.8C248.7 681.2 252.2 680.3 253.7 677.4C254.6 675.7 252 674.2 251.1 675.9C247.7 678.6 245.7 677.6 244.9 672.7C244.9 671.3 245.1 670 245.5 668.7C246 666.5 247 664.5 247.2 662.2C247.3 660.6 247.2 658.9 246 657.7C243.6 655.5 237.8 658.7 236.5 654.8C235.7 652.4 239.3 648.4 240 646.2C241.4 641.9 239.7 637.6 234.6 637.7C230.4 637.8 225.4 642.1 223.9 634.6C222.8 629.4 225.3 620.5 231.7 620.4C233.4 620.4 233.5 617.4 231.5 617.5Z" fill="#EC615B"/>
<path d="M788.8 518.5C778.7 518.7 769.3 525.7 766.9 535.7C764.8 544.4 770.2 554.8 780.1 549.4C783.6 547.5 787.1 544.1 787.7 539.9C788.1 536.6 786 533.8 782.5 534.1C777.6 534.5 773.1 540.3 770.5 543.9C767.5 548 764.4 553.7 764.9 559C765.9 568.1 779 569.9 783.6 562.7C784.4 561.5 782.8 559.7 781.5 560.6C774.6 565.9 767.4 574.6 770.1 584C772.2 591.4 780.2 596.7 787.7 594.1C789.5 593.5 788.7 590.6 786.9 591.2C780.2 593.5 773.2 587.9 772.6 581.1C772 573.8 777.5 567.4 783 563.2C782.3 562.5 781.6 561.8 780.9 561.1C778.9 564.3 774.4 565 771.1 563.3C766.4 560.8 767.7 555.4 769.5 551.4C771 548 773.2 544.9 775.7 542.2C776.7 541.1 779.3 538.1 780.7 537.9C782 538.2 783.4 538.6 784.7 538.9C784.6 540.2 784.2 541.3 783.5 542.4C780.8 546.8 774 550.3 770.3 545.2C767.8 541.9 769.4 535.7 771.1 532.4C774.5 525.8 781.3 521.6 788.6 521.5C790.7 521.4 790.7 518.4 788.8 518.5Z" fill="#EC615B"/>
<path d="M3.40021 367C6.60021 363.1 12.1002 364.4 13.7002 368.9C14.7002 371.6 14.6002 373.9 17.1002 375.8C21.6002 379.2 27.6002 376.6 32.4002 375.6C44.9002 373.1 40.8002 385.6 47.9002 390.5C51.0002 392.7 55.7002 392.1 57.3002 388.5C58.1002 386.8 55.5002 385.2 54.7002 387C52.1002 392.8 47.3002 385.3 46.5002 383C46.0002 381.6 45.7002 380.2 45.1002 378.9C44.2002 376.8 43.0002 374.8 41.0002 373.5C35.4002 370 29.2002 374.3 23.5002 374.4C17.4002 374.6 18.0002 370.4 15.9002 366.3C15.0002 364.5 13.5002 363.2 11.6002 362.4C7.90021 361 3.70021 361.8 1.30021 364.9C0.000206709 366.4 2.20021 368.5 3.40021 367Z" fill="#EC615B"/>
<path d="M14.0999 395.3C20.3999 388.5 29.4999 391.7 33.1999 399.1C35.4999 403.7 37.0999 408.7 42.0999 411C49.6999 414.5 59.5999 410.6 62.1999 402.7C62.7999 400.9 59.8999 400.1 59.2999 401.9C57.3999 407.7 50.3999 410.5 44.7999 408.8C37.8999 406.8 37.3999 398.9 33.5999 393.9C28.3999 387 17.7999 386.9 11.9999 393.2C10.6999 394.6 12.7999 396.7 14.0999 395.3Z" fill="#EC615B"/>
<path d="M723.8 834.4C727.5 830.1 732.5 830.2 737 833.2C738.5 834.2 740 835.2 741.9 834.5C744.3 833.6 744.7 830.4 746.4 828.8C749.9 825.5 755.7 825.5 759.3 828.5C760.8 829.7 762.9 827.6 761.4 826.4C756 821.9 747.1 822.3 742.8 828.3C742.4 828.9 741.9 830.5 741.4 830.8C739.1 832.3 738.2 830 736.7 829.4C735.1 828.8 733.6 828.1 731.9 828C727.9 827.7 724.2 829.3 721.6 832.3C720.5 833.7 722.6 835.8 723.8 834.4Z" fill="#5222D0"/>
<path d="M753.1 839.5C759.9 829.4 784.5 843.1 787 826.9C787.3 825 784.4 824.2 784.1 826.1C782.8 834.6 771 832.6 765 832.4C759.4 832.3 753.8 833.1 750.5 838C749.4 839.6 752 841.1 753.1 839.5Z" fill="#5222D0"/>
<path d="M223.1 881.5C227 874.8 232.2 869.2 238.6 864.9C240.2 863.8 238.7 861.2 237.1 862.3C230.3 867 224.7 872.9 220.5 880C219.5 881.6 222.1 883.1 223.1 881.5Z" fill="#5222D0"/>
<path d="M237.3 876.7C242.6 873.1 247.9 869.4 253.2 865.8C254.8 864.7 253.3 862.1 251.7 863.2C246.4 866.8 241.1 870.5 235.8 874.1C234.2 875.2 235.7 877.8 237.3 876.7Z" fill="#5222D0"/>
<path d="M233.8 24.2C232.9 101.8 212.9 178.8 176.2 247.2C165.9 266.5 154.2 285 141.4 302.7C140.3 304.3 142.9 305.8 144 304.2C189.8 240.9 220.1 166.7 231.6 89.3C234.8 67.7 236.5 45.9 236.8 24.1C236.9 22.3 233.9 22.3 233.8 24.2Z" fill="#E8E8E8"/>
<path d="M246.3 27.5C295.1 57.4 355.5 66.6 411.2 54.1C427 50.6 442.3 45.2 456.8 38.3C458.5 37.5 457 34.9 455.3 35.7C404.6 59.9 344.7 62.9 291.5 45.3C276.2 40.2 261.5 33.4 247.8 25C246.2 23.9 244.7 26.5 246.3 27.5Z" fill="#E8E8E8"/>
<path d="M481.6 37.6C502.9 71.4 536.8 96.4 575 107.8C621.1 121.6 670.8 112.5 716.2 100.3C741.5 93.5 766.2 84.2001 788.2 70C789.8 69 788.3 66.4 786.7 67.4C767.3 79.8 746 88.5 724 95C701 101.7 677.2 106.9 653.4 109.8C630.5 112.6 607.2 112.6 584.7 107.3C565.7 102.8 547.5 94.8 531.2 84C512.4 71.5 496.3 55.2001 484.2 36.1C483.2 34.5 480.6 36 481.6 37.6Z" fill="#E8E8E8"/>
<path d="M800 72C793 110.2 787.6 150.2 789.5 189.1C791 221 799.7 254.3 825.7 274.9C841.2 287.2 860.1 294 878.6 300.6C880.4 301.3 881.2 298.4 879.4 297.7C863.1 291.8 846.4 285.9 832.1 275.9C818.4 266.4 808.3 253.1 802 237.7C789.7 207.5 791.3 173.2 793.8 141.3C795.6 118.3 798.7 95.4 802.8 72.7C803.2 70.9 800.3 70.1 800 72Z" fill="#E8E8E8"/>
<path d="M149.1 321.3C223.7 333 292.5 375.7 336.4 437.2C348.7 454.5 359 473.2 366.8 492.9C367.5 494.7 370.4 493.9 369.7 492.1C341.7 421.5 283.2 365.1 213.3 336.2C192.9 327.8 171.6 321.8 149.9 318.4C148 318.1 147.2 321 149.1 321.3Z" fill="#E8E8E8"/>
<path d="M386.1 495.4C421.4 468 468.2 461.2 511.5 467.6C557.7 474.4 599.6 496.6 637.4 523.2C660.2 539.2 681.7 556.9 703.2 574.6C704.7 575.8 706.8 573.7 705.3 572.5C666.5 540.5 627.1 508.1 581.4 486.4C540.6 467 494.6 457.3 449.6 465C425.8 469.1 403.2 478.4 384 493.2C382.5 494.5 384.6 496.6 386.1 495.4Z" fill="#E8E8E8"/>
<path d="M701.9 556.1C719.1 481.8 766 415.8 828.8 372.9C846.8 360.6 866.1 350.2 886.3 342C888.1 341.3 887.3 338.4 885.5 339.1C813.9 368.3 754 424.4 720.5 494.1C711.1 513.7 703.9 534.2 699 555.3C698.6 557.2 701.5 558 701.9 556.1Z" fill="#E8E8E8"/>
<path d="M250.8 378.3C265.8 384.7 277.1 397.4 287.8 409.3C298.9 421.6 309.1 434.7 318.5 448.4C336.7 475.1 351.2 504.1 361.6 534.7C362.2 536.5 365.1 535.7 364.5 533.9C353.8 502.6 338.8 472.8 320.1 445.5C310.9 432.1 300.8 419.3 289.9 407.2C279 395.2 267.5 382.2 252.3 375.8C250.6 374.9 249 377.5 250.8 378.3Z" fill="#161616"/>
<path d="M478.4 53.6C494.9 80.2 520.8 99.7 550.6 108.9C552.5 109.5 553.2 106.6 551.4 106C522.3 97.1 497 78 481 52.1C480 50.4 477.4 52 478.4 53.6Z" fill="#161616"/>
<path d="M235.6 2.89999C267.6 24.6 308.1 31.6 345.6 22.6C347.5 22.1 346.7 19.3 344.8 19.7C308 28.6 268.4 21.5 237.1 0.299989C235.5 -0.700011 234 1.89999 235.6 2.89999Z" fill="#161616"/>
<path d="M129.6 283.1C145.6 265.4 159.5 246 171 225.1C171.9 223.4 169.3 221.9 168.4 223.6C157 244.3 143.3 263.5 127.5 281C126.2 282.4 128.3 284.5 129.6 283.1Z" fill="#161616"/>
<path d="M226.7 165.9C225.3 180.1 217.8 193.5 212 206.3C206 219.4 199.8 232.3 193.5 245.2C192.6 246.9 195.2 248.4 196.1 246.7C203.1 232.7 209.8 218.5 216.3 204.2C221.9 191.9 228.5 179.4 229.8 165.8C229.9 164 226.9 164 226.7 165.9Z" fill="#161616"/>
<path d="M692.3 503.5C708 463 733.3 426.7 765.7 397.8C767.1 396.5 765 394.4 763.6 395.7C730.8 425 705.3 461.7 689.4 502.7C688.7 504.5 691.6 505.2 692.3 503.5Z" fill="#161616"/>
<path d="M221.8 45.4C220.1 56.1 218.3 66.8 216.6 77.5C216.3 79.4 219.2 80.2 219.5 78.3C221.2 67.6 223 56.9 224.7 46.2C225 44.3 222.1 43.5 221.8 45.4Z" fill="#EC615B"/>
<path d="M477.6 11.3C499.2 37.1 526 58.1 556.2 72.9C557.9 73.7 559.4 71.2 557.7 70.3C527.7 55.6 501.1 34.8 479.7 9.2C478.5 7.7 476.4 9.8 477.6 11.3Z" fill="#EC615B"/>
<path d="M654.7 127.8C679.9 129 705 124.1 727.8 113.3C729.5 112.5 728 109.9 726.3 110.7C703.9 121.2 679.4 126 654.7 124.8C652.7 124.7 652.8 127.7 654.7 127.8Z" fill="#EC615B"/>
<path d="M744 82C765.3 71.6 784.5 57.6 800.9 40.4C802.2 39 800.1 36.9 798.8 38.3C782.6 55.3 763.6 69.1 742.5 79.4C740.8 80.2 742.3 82.7999 744 82Z" fill="#EC615B"/>
<path d="M392.2 476.2C417.4 449.7 455.8 437.5 491.8 443.9C493.7 444.2 494.5 441.3 492.6 441C455.5 434.4 416.1 446.7 390.1 474.1C388.7 475.4 390.8 477.6 392.2 476.2Z" fill="#EC615B"/>
<path d="M169.3 308.8C190.5 313.2 210.9 320.3 230.2 330.1C231.9 331 233.4 328.4 231.7 327.5C212.2 317.6 191.5 310.3 170.1 305.9C168.2 305.5 167.4 308.4 169.3 308.8Z" fill="#5222D0"/>
<path d="M248 65.1C249.2 76.8 249.4 88.6 248.7 100.3C248.6 102.2 251.6 102.2 251.7 100.3C252.4 88.5 252.1 76.8 251 65.1C250.8 63.2 247.8 63.2 248 65.1Z" fill="#5222D0"/>
<path d="M638.6 467.7C650.4 444.7 669.5 426.4 692.7 415.1C694.4 414.3 692.9 411.7 691.2 412.5C667.5 424 648 442.8 636 466.2C635.1 467.9 637.7 469.5 638.6 467.7Z" fill="#5222D0"/>
<path d="M576 252.1C584.8 246 595 243.2 605.7 243.8C607.6 243.9 607.6 240.9 605.7 240.8C594.5 240.2 583.7 243.2 574.5 249.6C572.9 250.6 574.4 253.2 576 252.1Z" fill="#EC615B"/>
<path d="M600.3 225.1C609 226.9 617.4 229.4 625.6 232.7C627.4 233.4 628.2 230.5 626.4 229.8C618.2 226.5 609.8 224 601.1 222.2C599.2 221.8 598.4 224.7 600.3 225.1Z" fill="#EC615B"/>
<path d="M382.3 148C385.4 134 392.5 121.5 402.7 111.4C404.1 110 402 107.9 400.6 109.3C390 119.7 382.6 132.7 379.4 147.2C378.9 149.1 381.8 149.9 382.3 148Z" fill="#EC615B"/>
<path d="M404.3 151.2C419.2 139.6 436 130.9 454.1 125.3C455.9 124.7 455.2 121.8 453.3 122.4C434.7 128.1 417.5 137.1 402.2 149C400.7 150.3 402.8 152.4 404.3 151.2Z" fill="#EC615B"/>
<path d="M374.2 349C377.9 358.6 378.3 368.6 375.5 378.5C375 380.4 377.9 381.2 378.4 379.3C381.4 368.9 380.9 358.3 377.1 348.2C376.4 346.4 373.5 347.2 374.2 349Z" fill="#5222D0"/>
<path d="M399.8 352.3C405.1 358.7 411.7 363.9 419.1 367.6C420.8 368.5 422.3 365.9 420.6 365C413.3 361.4 407 356.4 401.9 350.1C400.7 348.7 398.6 350.8 399.8 352.3Z" fill="#5222D0"/>
<path d="M725.9 332.6C730.4 337.6 732.4 344.1 731.3 350.8C731 352.7 733.9 353.5 734.2 351.6C735.5 343.8 733.3 336.3 728 330.5C726.7 329 724.6 331.1 725.9 332.6Z" fill="#5222D0"/>
<path d="M750.8 328C754.5 332.2 758.1 336.3 761.8 340.5C763.1 342 765.2 339.8 763.9 338.4C760.2 334.2 756.6 330.1 752.9 325.9C751.7 324.4 749.6 326.5 750.8 328Z" fill="#5222D0"/>
<path d="M605.7 363.8C612.6 351.7 621.7 341.2 632.8 332.8C634.3 331.6 632.8 329 631.3 330.2C619.8 339 610.3 349.7 603.1 362.3C602.2 364 604.8 365.5 605.7 363.8Z" fill="#5222D0"/>
<ellipse cx="968.5" cy="133.4" rx="14.6" ry="14.2" fill="#EC615B"/>
<ellipse cx="995.4" cy="167.8" rx="12.3" ry="11.9" fill="#5222D0"/>
<path d="M257.6 247.2C259 254.5 260.7 262.2 262.9 270.2C270.2 296.3 280.6 318.1 290.9 335.5C293.9 336.2 298.2 337.2 303.5 337.8C310.8 338.7 322.6 340.2 335.9 336.4C339.1 335.5 337.7 335.6 351.8 329.8C365.9 324 366.7 324.2 372.1 321.8C381.3 317.8 389.6 312 405.9 300.7C410.6 297.4 417.1 292.8 424.7 287.1C425.2 283.9 425.8 279.2 425.7 273.5C425.5 264.5 423.6 258 420.9 248.6C416.6 233.9 413.6 223.9 411.7 217.6C407.9 215.2 403.8 212.8 399.1 210.6C383.6 203.1 368.9 200.1 357.6 198.9C346 199.8 336.8 201.9 330.6 203.6C303.4 211.1 284.7 225.2 273.1 234.1C266.2 239.3 260.9 244 257.6 247.2Z" fill="white"/>
<path d="M680.2 210.5C672.2 219.1 663.7 229.4 655.6 241.5C651.6 247.5 648.1 253.3 645 258.9C651.1 268 657.2 277.1 663.4 286.1C677.1 291.4 690.8 296.7 704.5 302.1C717.5 288.5 730.6 274.9 743.6 261.2C740.2 250.2 736.8 239.3 733.5 228.3C726.8 224.9 719.1 221.5 710.3 218.4C699.1 214.6 689 212.1 680.2 210.5Z" fill="white"/>
<path d="M256.6 248.1C260 280.3 274.2 309.6 289.6 337.7C290.5 339.4 293.1 337.9 292.2 336.2C277.1 308.7 262.9 279.8 259.6 248.1C259.4 246.2 256.4 246.1 256.6 248.1Z" fill="#161616"/>
<path d="M259.4 248.9C283.9 222.2 317.5 204.9 353.4 200.2C355.3 200 355.3 197 353.4 197.2C316.7 202 282.3 219.4 257.2 246.7C256 248.2 258.1 250.3 259.4 248.9Z" fill="#161616"/>
<path d="M353.6 199.8C369.9 224.3 377.5 252.8 384.8 280.9C385.3 282.8 388.2 282 387.7 280.1C380.3 251.7 372.6 223 356.2 198.3C355.1 196.7 352.5 198.2 353.6 199.8Z" fill="#161616"/>
<path d="M293.1 337.6C311.4 332.1 329 324.8 345.8 315.7C354.1 311.2 362.1 306.2 369.9 300.8C376.9 296 384.2 291 388 283.2C388.9 281.5 386.3 280 385.4 281.7C381.3 290 372.9 295.2 365.5 300.2C358.2 305.1 350.6 309.7 342.8 313.9C326.7 322.5 309.8 329.4 292.4 334.7C290.5 335.3 291.3 338.2 293.1 337.6Z" fill="#161616"/>
<path d="M355.2 200C375 200.8 394 207.4 410 219.2C411.6 220.3 413.1 217.7 411.5 216.6C395.1 204.5 375.6 197.8 355.2 197C353.3 196.9 353.3 199.9 355.2 200Z" fill="#161616"/>
<path d="M409.8 217.9C418.9 238.8 423.7 261.2 423.8 284.1C423.8 286 426.8 286 426.8 284.1C426.6 260.7 421.7 237.8 412.3 216.4C411.6 214.6 409.1 216.1 409.8 217.9Z" fill="#161616"/>
<path d="M386.1 283.5C398.5 291.5 413.2 289.3 426.7 285.7C428.6 285.2 427.8 282.3 425.9 282.8C413.2 286.2 399.4 288.4 387.7 280.9C386 279.9 384.5 282.5 386.1 283.5Z" fill="#161616"/>
<path d="M291.5 338.1C309.3 342.1 327.8 340.8 344.8 334.1C346.6 333.4 345.8 330.5 344 331.2C327.5 337.7 309.6 339.2 292.3 335.2C290.4 334.8 289.6 337.7 291.5 338.1Z" fill="#161616"/>
<path d="M345.6 333.9C375.3 322.7 402.9 306.6 427.1 286C428.6 284.7 426.4 282.6 425 283.9C401.2 304.1 374.1 320 344.9 331C343 331.7 343.8 334.6 345.6 333.9Z" fill="#161616"/>
<path d="M677.9 210.2C665.2 225.2 653.6 241.1 643.2 257.7C642.2 259.3 644.8 260.8 645.8 259.2C656.1 242.8 667.6 227.1 680 212.3C681.3 210.9 679.2 208.7 677.9 210.2Z" fill="#161616"/>
<path d="M679.3 212.8C697.3 215.7 714.6 221.4 730.7 229.7C732.4 230.6 733.9 228 732.2 227.1C715.8 218.6 698.3 212.9 680 209.9C678.2 209.6 677.4 212.5 679.3 212.8Z" fill="#161616"/>
<path d="M643.3 260.9C658.9 268 674.3 275.4 689.6 283.2C691.3 284.1 692.8 281.5 691.1 280.6C675.8 272.9 660.4 265.5 644.8 258.3C643 257.5 641.5 260.1 643.3 260.9Z" fill="#161616"/>
<path d="M731.5 228.3C718.1 246.2 705.1 264.4 692.5 282.9C693.2 282.7 693.9 282.5 694.6 282.4C693.5 281.8 692.4 281.1 691.2 280.5C689.5 279.5 688 282.1 689.7 283.1C690.8 283.7 691.9 284.4 693.1 285C693.8 285.4 694.7 285.1 695.2 284.5C707.7 266 720.7 247.7 734.2 229.9C735.2 228.3 732.6 226.8 731.5 228.3Z" fill="#161616"/>
<path d="M731.2 230C735.7 240.5 739 251.3 741.2 262.5C741.6 264.4 744.5 263.6 744.1 261.7C741.9 250.3 738.4 239.2 733.8 228.5C733.1 226.8 730.5 228.3 731.2 230Z" fill="#161616"/>
<path d="M693.5 285.2C697.4 290.4 700.8 295.8 703.8 301.6C704.7 303.3 707.3 301.8 706.4 300.1C703.4 294.3 700 288.9 696.1 283.7C695 282.2 692.4 283.7 693.5 285.2Z" fill="#161616"/>
<path d="M706.4 301.4C719.4 289.4 731.6 276.8 743.2 263.5C744.5 262 742.3 259.9 741.1 261.4C729.5 274.7 717.3 287.4 704.3 299.3C702.9 300.6 705 302.7 706.4 301.4Z" fill="#161616"/>
<path d="M643.6 261.7C650 270 656.4 278.4 662.8 286.7C664 288.2 666.6 286.7 665.4 285.2C659 276.9 652.6 268.5 646.2 260.2C645 258.7 642.4 260.1 643.6 261.7Z" fill="#161616"/>
<path d="M663.4 287.8C676.8 292.9 690.2 298 703.6 303.1C705.4 303.8 706.2 300.9 704.4 300.2C691 295.1 677.6 290 664.2 284.9C662.4 284.2 661.6 287.1 663.4 287.8Z" fill="#161616"/>
<path d="M288.2 221.1C300.9 254.7 313.7 288.3 326.4 322C335.9 324.7 345.5 327.3 355 330C362.1 326.8 369.2 323.5 376.3 320.3C368.2 316.8 360.1 313.3 352 309.8C339 275.8 326 241.7 313 207.7C309.4 209.3 305.6 211.1 301.7 213.2C296.6 215.7 292.2 218.5 288.2 221.1Z" fill="#EC615B"/>
<path d="M379.7 201.3C387.9 216.1 396.8 236.8 400.5 262.5C401.7 270.9 402.2 278.9 402.2 286.1C386.3 298.3 366.9 311.2 343.6 323.2C330.6 329.9 318 335.5 306.3 340.1C312.8 340.1 319.3 340.1 325.8 340.1C339.7 334.3 355.1 327 371.4 317.7C389.1 307.6 404.3 297.1 417 287.3C414.6 275.3 412 263 409.2 250.6C406.1 236.9 402.9 223.6 399.7 210.5C397.9 208.7 394.9 206.2 390.6 204.2C386.2 202.2 382.3 201.5 379.7 201.3Z" fill="#EC615B"/>
<path d="M300.3 213.5C298.1 211.7 301 200.9 309 197.5C315.1 194.9 323 197 328.5 203C325.4 203.9 320.7 205.3 315.1 207.6C305.1 211.7 301.8 214.7 300.3 213.5Z" fill="#EC615B"/>
<path d="M314.2 203C318.9 200 325.7 194.8 331.6 186.5C341.7 172.2 342.5 157.6 342.4 151.5C344.1 151 354.2 147.9 359.8 152.8C367.4 159.4 360.4 175.2 358.9 178.5C354.5 188.4 347.3 193.8 345 195.4C332.2 204.4 318.2 203.4 314.2 203Z" fill="#EC615B"/>
<path d="M263 176.4C268 175.6 270.8 184.5 281.2 193.3C290.5 201.1 300.9 204.6 309 206.4C305.6 209 299.2 213.3 290.3 214.4C277.4 216 259.8 211.1 255.6 198.8C252.5 189.5 257.4 177.2 263 176.4Z" fill="#EC615B"/>
<path d="M698.6 214.3C685.7 231.5 672.7 248.7 659.8 265.9C664.4 274.3 669 282.7 673.7 291.1C677.7 292.7 681.7 294.4 685.7 296C682.8 289 679.9 281.9 676.9 274.9C688.4 256 700 237.2 711.5 218.3C707.2 217 702.9 215.7 698.6 214.3Z" fill="#5222D0"/>
<path d="M737.8 242.1C724.6 256.8 711.3 271.4 698.1 286.1C682.7 281.6 667.3 277.1 651.9 272.6C654.5 275.9 657.1 279.2 659.7 282.5C674.2 287.3 688.6 292.1 703.1 296.9C715.6 282.8 728 268.8 740.5 254.7C739.7 250.5 738.8 246.3 737.8 242.1Z" fill="#5222D0"/>
<path d="M711.5 217.9C712 215.8 719.4 213.7 724.4 217.5C727.6 219.9 729.5 224.6 728.1 226C725.5 228.6 710.8 221.1 711.5 217.9Z" fill="#5222D0"/>
<path d="M703.7 185.6C705.9 184.4 710.3 188.2 711.5 189.2C712.7 190.2 716.9 194 719.8 204.9C721.3 210.4 723.5 218.6 721.2 219.7C718.6 221 710.7 212.8 706.4 204C703.1 197 700.8 187.2 703.7 185.6Z" fill="#5222D0"/>
<path d="M761.7 221.1C761.9 218.7 756.5 216.8 755 216.3C753.6 215.8 748.3 214.1 737 216.6C731.3 217.9 722.9 219.8 722.8 222.2C722.7 225 733.7 227.7 743.6 227.2C751.5 226.8 761.4 224.2 761.7 221.1Z" fill="#5222D0"/>
<path opacity="0.09" d="M292.3 337.2C298.2 335.1 306.9 332 317.3 327.6C335 320.2 347.5 315 361.4 305.6C368.3 300.9 377.6 293.7 387.5 283.2C392.4 273.4 398.4 258.8 400.7 240.2C402.1 228.9 401.9 218.9 401.1 210.8C404.7 212.9 408.2 215 411.8 217C415.4 226.4 419.1 237.9 421.7 251.2C424.3 264.1 425.4 275.8 425.7 285.7C414.9 295.1 405.3 302.1 398.1 307C363.4 330.7 339.5 336.3 334.2 337.5C326 339.3 319.7 339.6 316.9 339.7C306.4 340.1 297.9 338.5 292.3 337.2Z" fill="#353535"/>
<path opacity="0.09" d="M645.3 259.3C651.7 268.4 658 277.5 664.4 286.5C677.7 291.7 691.1 296.8 704.4 302C717.1 288.2 729.8 274.5 742.5 260.7C739.4 250.1 736.2 239.5 733.1 228.9C720.1 246.5 707.1 264.1 694.1 281.7C677.8 274.3 661.5 266.8 645.3 259.3Z" fill="#353535"/>
<path d="M481.1 1028.7C485.1 1023.7 487.5 1021.4 488.4 1022C490.7 1023.4 482.5 1043.6 463.7 1082.7C417.6 1084.9 394.2 1083.8 393.6 1079.3C393.1 1075.4 410.2 1068.9 444.9 1059.9C452.5 1043.8 460.1 1027.7 467.7 1011.6C472.2 1017.3 476.6 1023 481.1 1028.7Z" fill="black"/>
<path d="M504.5 709.9C500.7 736.8 496.3 764.2 491.5 792C477.3 873.6 460 950.9 440.7 1023.6C443.5 1026.7 450.8 1033.8 462.8 1037.1C477.9 1041.2 490.4 1036.7 494 1035.3C516.6 956.3 539.1 877.2 561.7 798.2C591.4 765.8 585.7 723.9 563 708.7C548 698.7 524.8 700.1 504.5 709.9Z" fill="#EC615B"/>
<path opacity="0.15" d="M505.7 711.6C508.6 711.9 506.8 756.8 504.5 797.2C499.3 888.9 482.2 969.4 461.9 1036.5C459.7 1035.9 457.1 1035 454.5 1033.7C448.1 1030.5 443.8 1026.3 441.3 1023.3C447.4 1001.5 456.2 968.7 465.3 928.5C493.8 802.6 501.6 711.3 505.7 711.6Z" fill="#353535"/>
<path opacity="0.13" d="M488.8 816.5C486.6 842.9 483.4 870.7 478.9 899.7C471.6 947.4 461.9 991.2 451.2 1030.9C450 1030.7 448.2 1030.2 446.2 1028.9C443.5 1027.1 442.2 1024.8 441.7 1023.7C449.7 990.4 457.5 956.8 465.3 922.9C473.4 887.1 481.2 851.6 488.8 816.5Z" fill="#353535"/>
<path d="M672.6 1025.7C668.2 1020.7 665.5 1018.4 664.5 1019C662 1020.4 671 1040.6 691.6 1079.7C742.3 1081.9 767.9 1080.8 768.6 1076.3C769.2 1072.4 750.4 1065.9 712.2 1056.9C703.8 1040.8 695.5 1024.7 687.1 1008.6C682.3 1014.3 677.5 1020 672.6 1025.7Z" fill="black"/>
<path d="M542.9 733.8C539.2 751.6 547.6 766.3 550.7 771.2C583.7 859.4 616.6 947.7 649.6 1035.9C655.2 1036.7 666.8 1037.5 680.2 1032.8C695.3 1027.5 704.1 1018 707.5 1013.8C687.8 971.8 675.4 936.6 667.8 912.7C647.9 850.2 621.1 789.8 602.1 727C598.9 716.5 593.5 698.1 581.3 695.8C567.1 693.2 547.2 712.8 542.9 733.8Z" fill="#EC615B"/>
<path opacity="0.1" d="M573.9 696.4C567 701.4 579.8 728.1 585.9 741.4C600.6 773.5 608.2 808.4 622.3 840.8C637.5 875.7 659.8 932.2 691.3 1027C693.5 1025.9 696.3 1024.4 699.1 1022.1C702.8 1019.1 705.3 1016 706.9 1013.6C699 996.5 687.6 970.6 675.6 938.3C671.3 926.8 670.8 924.7 666.1 910.3C661.1 895 653.3 871.8 651.7 867.1C644.2 845.5 644.2 848.4 630.1 810.1C627.1 802 623 790.8 618.1 776.2C615.7 769.1 613.9 763.4 612.6 759.3C612.4 758.7 605.8 738.2 596.5 713.9C594.1 707.5 591.5 701.2 585 697.9C584.6 697.6 577.3 693.9 573.9 696.4Z" fill="#353535"/>
<path opacity="0.12" d="M622.7 789.5C622.1 789.7 635.5 831.4 699.6 1021.6C702.2 1019.1 704.8 1016.6 707.4 1014C703.5 1005.3 697.4 991.5 690.4 974.3C674.3 935 667.4 912.1 649.4 861.6C639.4 833.5 623.3 789.3 622.7 789.5Z" fill="#353535"/>
<path d="M651 417.1C648.7 417.3 647.1 410.5 644.6 410.6C642.6 410.7 641.2 415.2 641.1 415.8C639.9 419.9 640.5 424.1 644.6 435.1C645.8 438.3 647.4 442.4 649.5 447.1C648.4 454.9 646.4 465.7 642.8 478.4C638.3 494.1 630.7 519.9 610.6 546.5C604.4 554.7 595.1 565.6 581.6 576.8C577.1 587.6 576.5 596.6 576.7 602.2C576.8 605.5 577.2 620.4 582.7 621.8C586.4 622.7 590.8 617.3 593 614.6C615.4 586.3 626.7 572.2 631.2 564C641.7 545.2 650.2 529.9 657.4 506.9C662.7 490.1 665.2 475.4 666.6 464.6C668.9 460.8 672.1 455.4 675.8 448.8C685.9 430.8 689.5 422.7 691.7 413.7C694 404.4 694.4 396.4 692.1 395.5C690.4 394.9 688.3 398 686.4 397.2C683.6 396 686.6 387.7 683.6 385.9C682.5 385.2 680.3 385.3 675.8 388.3C672.7 381.8 670.7 380.6 669.4 380.7C666.7 381.1 665.4 388.5 664.8 396.9C664 392.8 662 384.2 659.5 384.2C657.4 384.2 655.2 390.5 654.6 395.5C653.7 402.4 655.7 407.4 653.2 414.4C652.7 415.4 652 416.9 651 417.1Z" fill="white"/>
<path d="M647.5 445.8C647.2 459 643 471.7 639 484.2C635.1 496 630.7 507.7 625.3 518.9C615.3 539.7 601.8 558.7 584.1 573.6C582.6 574.8 584.8 577 586.2 575.7C604.6 560.3 618.4 540.4 628.6 518.8C633.9 507.6 638.3 496 642.1 484.2C646.1 471.8 650.2 459.1 650.4 445.9C650.6 443.9 647.6 443.9 647.5 445.8Z" fill="#161616"/>
<path d="M665.3 463.2C662.6 494.8 648.8 524.5 634.8 552.5C622 578.1 606.5 603 583.4 620.5C581.9 621.7 583.4 624.3 584.9 623.1C608.5 605.2 624.4 580.1 637.4 554C651.7 525.5 665.5 495.3 668.3 463.2C668.4 461.3 665.4 461.3 665.3 463.2Z" fill="#161616"/>
<path d="M650 444.2C646.6 436.9 643.4 428.4 642.9 420.3C642.8 419.2 642.6 414.5 643.4 413.9C645.9 412.2 646.6 415.1 647.2 416.3C648.3 418.4 649.1 419.9 651.2 421.1C652.9 422 654.4 419.5 652.7 418.5C649.2 416.5 649.5 411 645.5 409.5C642.1 408.2 640.9 411 640.2 413.9C637.8 424.2 643 436.5 647.2 445.7C648.3 447.5 650.8 445.9 650 444.2Z" fill="#161616"/>
<path d="M653.4 420.2C656.8 412.4 656 404.4 656.3 396.1C656.4 394.2 656 389.8 657.1 388.3C659.1 385.8 660.6 391.1 661.1 392.8C662.5 398.2 662.8 403.6 662.4 409.1C662.2 411 665.2 411 665.4 409.1C665.7 405.3 665.3 378.8 656.8 383.1C653.3 384.9 653.5 392 653.4 395.1C653.1 403 654.2 411.1 650.9 418.6C650.1 420.4 652.7 422 653.4 420.2Z" fill="#161616"/>
<path d="M665.7 409.3C666.3 405.7 666.8 402.1 667.1 398.4C667.4 394.3 666.8 389.7 668.1 385.8C669.2 382.2 669.8 381.5 671.3 384.7C672.4 387 672.8 389.4 673.1 391.8C673.6 396.3 674 401.6 672.6 406C672 407.9 674.9 408.6 675.5 406.8C677.1 401.5 676.7 395 675.8 389.6C675.3 386.7 673.7 379.1 669.8 379.1C666.4 379.1 665 384.8 664.7 387.2C663.7 394.2 663.9 401.4 662.8 408.4C662.5 410.4 665.4 411.2 665.7 409.3Z" fill="#161616"/>
<path d="M676.6 406.7C677 403.6 677 400.4 677 397.3C677.1 394.6 676.9 387.4 680.3 387.7C682.8 387.9 682.6 390 682.8 392.2C682.9 393.7 682.9 395.3 682.9 396.8C682.9 400.5 682.7 404.1 682 407.8C681.6 409.7 684.5 410.5 684.9 408.6C685.9 403.7 689.3 383.6 680.3 383.4C672 383.2 674.2 402.2 673.6 406.8C673.4 408.6 676.4 408.6 676.6 406.7Z" fill="#161616"/>
<path d="M687.3 397.9C688.5 397.8 689.6 397.7 690.8 397.6C691 398.5 691.2 399.4 691.3 400.4C691.5 402.2 691.6 403.9 691.6 405.7C691.5 408.9 691 412.2 690.1 415.3C688.5 421.4 685.8 427.2 682.8 432.8C677.3 443.2 671.4 453.5 665.7 463.8C664.8 465.5 667.4 467 668.3 465.3C673.1 456.6 678 447.9 682.8 439.2C687.3 431.1 691.8 422.6 693.7 413.4C694.7 408.4 696.8 396.9 691.6 393.4C688.3 391.1 684 394.2 684.4 398C684.5 399.8 687.5 399.8 687.3 397.9Z" fill="#161616"/>
<path opacity="0.08" d="M682.2 386.6C680.7 386.7 680.3 392.9 679.3 400.3C677.7 413.3 675.9 427.9 669.7 440.1C667.7 444.1 664.1 450 657.6 456.4C656.6 463.5 654.7 473.7 651.5 485.7C645.9 506.7 637.7 536.5 614.5 564.4C608.2 571.9 598.5 582.3 584.2 592.4C583.8 602.2 583.4 611.9 582.9 621.7C589.1 617 598.1 609.5 607.4 598.8C619.6 584.7 627.5 568.7 642.8 537.3C655 512.2 658.3 502.5 660.3 495.5C664.1 482.7 666 471.6 667 463.6C673.8 452.9 678.8 443.4 682.3 435.9C688.4 422.9 698.2 401.9 692.2 396.7C690.5 395.3 688 395.4 686.1 395.7C685.2 391.5 683.6 386.5 682.2 386.6Z" fill="#353535"/>
<path opacity="0.1" d="M678.4 445.2C673.1 450.8 667.8 456.5 662.5 462.1C662 466.9 661.1 474 659 482.5C655 498.5 649.2 509.7 646.9 514.4C641 526.2 633.3 544.2 625.9 571.1C629.2 565.4 646.7 535 656.5 509C660.2 499 662.2 493.8 663.8 485.7C665.8 476 665.3 471.5 667.9 463.7C670.8 455.2 675.2 449 678.4 445.2Z" fill="#353535"/>
<path d="M400.6 395.2C397.4 396.1 397.3 404.8 397.8 409.7C398.6 418.4 402 424.9 403.5 427.7C409.9 439.5 416.1 450.6 422.4 461.3C423.2 468.5 424.6 478.3 427.4 489.7C432.3 509.7 438.6 523.3 447.3 542C461.1 571.5 469.3 588.4 486.8 606.4C493.4 613.1 499.4 618.1 503.5 621.3C505 619.6 514.2 609 512.4 593.9C511 581.6 503.2 574.1 501 572.1C496.2 568.1 488.9 561.6 481.4 552.4C465.6 532.8 459 513.2 449.4 483.8C446.8 475.8 443.3 464.5 439.8 450.6C441.7 444.4 443.3 439.5 444.4 436.4C447.7 426.9 449.8 422.1 448.3 416C447.9 414.4 447.1 411.4 445.1 410.8C442.8 410.2 439.3 413 436.6 418.1C435.1 409.9 434.4 403.1 434.1 398C433.7 390.6 433.9 385.2 432.3 384.8C430.6 384.4 428 390.4 427.7 391C425.2 396.6 425.2 401.9 425.6 405.2C426.4 386.6 424.3 381.9 422 381.3C420.1 380.8 417.7 383.3 417 384.1C412.3 389.1 414.7 396.4 414.9 396.9C412.8 385.8 410.6 385.1 409.9 385.1C408.1 385 406.3 389 405.6 391.3C404.8 394.1 405.3 396.6 405.6 397.9C404 396.4 402.1 394.8 400.6 395.2Z" fill="white"/>
<path d="M438.9 446C439.2 458.8 442.9 471.2 446.7 483.4C450.5 495.5 454.8 507.4 460.1 518.9C470 540.4 483.4 560.3 501.3 575.8C502.8 577.1 504.9 574.9 503.4 573.7C486.1 558.7 473.1 539.7 463.4 519C458.1 507.8 453.8 496.1 450.1 484.3C446.1 471.8 442.1 459.1 441.8 445.9C441.8 444.1 438.8 444.1 438.9 446Z" fill="#161616"/>
<path d="M421.7 463.5C424.3 495.1 437.5 524.8 451.1 553.1C463.7 579.4 479.2 605 502.4 623.2C503.9 624.4 506 622.3 504.5 621.1C481.8 603.4 466.8 578.6 454.3 553.1C440.6 524.9 427.2 495.1 424.6 463.6C424.5 461.6 421.5 461.6 421.7 463.5Z" fill="#161616"/>
<path d="M442 446C446.2 436.6 451.5 423.9 448.6 413.4C447.9 410.8 446.6 408.7 443.6 409.9C439.7 411.4 440.1 416.9 436.6 418.9C434.9 419.9 436.4 422.5 438.1 421.5C439.7 420.6 440.6 419.4 441.5 417.8C441.9 417 442.3 415.2 443 414.6C446.9 411.7 446.2 418 446.2 419.8C446 428.2 442.7 437 439.3 444.6C438.6 446.2 441.2 447.7 442 446Z" fill="#161616"/>
<path d="M438.6 418.9C435.5 411.7 436.4 403.9 436.2 396.3C436.1 393.1 436.5 385.3 432.8 383.4C424.5 379.1 424 405.7 424.3 409.4C424.5 411.3 427.5 411.3 427.3 409.4C426.9 404.2 427.1 399 428.3 393.9C428.6 392.6 429.7 386.6 432.2 387.7C433.3 388.2 433.2 395.1 433.2 396.3C433.4 404.6 432.7 412.6 436 420.4C436.8 422.2 439.4 420.7 438.6 418.9Z" fill="#161616"/>
<path d="M427 408.7C425.9 401.7 426.1 394.6 425.1 387.7C424.8 385.2 423.5 379.5 420 379.4C416.4 379.3 414.8 386.5 414.3 389.1C413.2 394.8 412.8 401.5 414.4 407.1C414.9 408.9 417.8 408.2 417.3 406.3C416.1 402.3 416.4 397.7 416.7 393.5C416.9 391 417.3 388.4 418.2 386C419.7 382.2 420.3 381.4 421.7 386C422.8 389.7 422.3 394 422.6 397.8C422.9 401.7 423.4 405.6 424.1 409.5C424.4 411.4 427.3 410.6 427 408.7Z" fill="#161616"/>
<path d="M416.5 406.9C415.9 402.4 418.1 383.2 409.9 383.5C401.1 383.8 404.5 403.9 405.4 408.7C405.8 410.6 408.7 409.8 408.3 407.9C407.6 404.3 407.4 400.6 407.4 396.9C407.4 394.2 406.6 388.1 409.8 387.8C413.1 387.5 412.9 394.8 413 397.4C413.1 400.6 413 403.7 413.4 406.8C413.7 408.8 416.8 408.9 416.5 406.9Z" fill="#161616"/>
<path d="M406.2 398.1C406.6 394.4 402.5 391.2 399.2 393.5C394.3 396.9 396.1 407.8 397 412.6C398.6 421.5 402.6 429.7 406.9 437.7C411.8 447 416.9 456.2 421.8 465.4C422.7 467.1 425.3 465.6 424.4 463.9C418.7 453.3 412.8 442.8 407.3 432.1C404.6 426.8 402.1 421.3 400.7 415.4C399.9 412.3 399.4 409.1 399.3 405.8C399.3 404.6 399.3 403.4 399.4 402.1C399.4 400.8 399.6 399.5 399.9 398.3C400 396.8 401.2 396.7 403.3 398C403 400 406 400 406.2 398.1Z" fill="#161616"/>
<path opacity="0.09" d="M410.7 386C413.5 387 411.5 399 411 403.5C409.9 413.8 412.2 429.4 428.5 451.6C432.8 473 441 502.2 457.8 533.8C472 560.6 488.1 581 501.5 595.6C502.5 604.4 503.4 613.2 504.4 622.1C498.2 617.8 489.6 611 481.1 601.1C473.7 592.4 469.3 584.8 462.9 572.7C446.4 541.4 438.1 525.7 432.3 506.7C429.1 496.3 425.3 481.3 423.1 462.7C415.2 452.5 409.8 443.1 406.2 435.9C399.2 422 397.4 413.2 397.6 405.3C397.8 396.3 399.4 395.1 400.1 394.8C401.6 394.2 403.6 395.4 404.9 396.4C404.8 395.9 403.8 391.4 406.8 388.1C407.3 387.7 409.3 385.5 410.7 386Z" fill="#353535"/>
<path opacity="0.09" d="M402.7 421.7C403.7 421.2 409.8 429.8 414.2 437C424.5 453.9 428.7 469 429.8 472.7C436.4 495.6 444.9 515 462 553.7C467.2 565.4 475.1 582.4 486.2 602.5C483 599.5 478.4 595 473.5 589.1C469.2 584 455.1 566.7 440.4 527C434.7 511.5 428 490.6 423.2 464.9C419.8 459.1 415.1 450.8 410.1 440.4C407.9 435.7 401.6 422.3 402.7 421.7Z" fill="#353535"/>
<path d="M544.7 563.4C541.2 563.1 535 562.6 526.9 563.4C517.5 564.4 509.1 565.2 502.8 570.7C498.1 574.8 496.7 579.9 494.1 590C492.6 595.9 490.6 603.9 490.8 614.7C491.2 634.7 498.8 637.3 502.8 661.5C504.8 673.2 504.6 682.3 504.5 693.2C504.3 707.7 502.8 720 501.2 729.5C505.5 732.9 512.1 737.5 521.1 741.1C526.6 743.3 542.2 749.2 562.2 745.7C583.2 742.1 596.1 730.3 600.4 726C593.4 707.1 592.7 691.9 593.3 681.6C594.1 669.1 596.7 666.4 600.4 639.5C603.2 619.5 603.1 611.2 602.9 606.7C602.2 588.7 601.8 579.6 595.8 573.5C589.9 567.5 574.8 566.1 544.7 563.4Z" fill="white"/>
<path d="M539.7 562.7C532.3 562.2 524.9 562.6 517.6 563.9C511.4 565 505 566.1 500.9 571.2C493.4 580.4 490.2 593.1 489.6 604.7C488.1 634.3 502.8 661.3 507.8 689.9C508.1 691.8 511 691 510.7 689.1C506.2 663.3 493.8 639.2 492.6 612.8C492.1 600.7 493.9 588.3 500.1 577.7C502.2 574.1 504.5 570.6 508.6 569.1C511.4 568.1 514.5 567.5 517.4 566.9C524.7 565.5 532.2 565.2 539.6 565.6C541.6 565.8 541.6 562.8 539.7 562.7Z" fill="#161616"/>
<path d="M500.9 661.1C503.8 683.1 503.5 705.3 499.9 727.2C499.6 729.1 502.5 729.9 502.8 728C506.5 705.8 506.9 683.4 503.9 661.1C503.6 659.2 500.6 659.2 500.9 661.1Z" fill="#161616"/>
<path d="M552 565.4C565.4 564.6 581.9 566.2 593.3 574.2C600.2 579.1 600.5 587.3 601.2 595C601.9 601.9 602.2 608.8 601.7 615.8C599.7 643.1 588.7 669 588.8 696.6C588.8 698.5 591.8 698.5 591.8 696.6C591.7 665.5 605.9 636.2 604.9 605C604.5 593.1 604.9 577.8 593.5 570.8C581.6 563.5 565.7 561.6 552 562.4C550 562.5 550 565.5 552 565.4Z" fill="#161616"/>
<path d="M591.9 666.6C591.7 686.2 594.1 705.6 598.9 724.6C599.4 726.5 602.3 725.7 601.8 723.8C597.1 705.1 594.7 685.9 594.9 666.6C594.9 664.7 591.9 664.7 591.9 666.6Z" fill="#161616"/>
<path d="M500.1 730C513.7 741.3 531 748.1 548.8 748.2C568.9 748.3 585.7 738.5 601.2 726.6C602.7 725.4 601.2 722.8 599.7 724C585 735.2 569.3 744.8 550.4 745.1C532.9 745.4 515.7 738.9 502.3 727.8C500.7 726.6 498.6 728.7 500.1 730Z" fill="#161616"/>
<path opacity="0.11" d="M575.8 564.7C578.9 572.2 582.9 583.5 584.9 597.6C588.8 625.9 582.2 647.6 574.3 672.7C568.4 691.4 558.5 717.2 541.1 746.1C546.6 746.6 553.4 746.6 561 745.2C580.8 741.6 594 730.8 599.9 725.3C599.2 720.3 598 712.5 596.3 703.1C593.6 688.4 592.7 687.3 592.4 682C592 675.5 593.1 676.3 599 648.8C601.3 638 603 628.2 604 615.4C604.1 614.3 604.1 613.2 604.2 612.1C604.7 595.6 604.9 585.5 597.9 576.9C591.2 568.7 581.5 565.8 575.8 564.7Z" fill="#353535"/>
<path opacity="0.08" d="M604.7 612.6C604 612.4 600.5 617.9 592.3 639.8C583.3 663.9 572.2 698.6 563.6 743.5C568 742.9 574.1 741.6 580.8 738.6C589.8 734.5 595.8 729 599.2 725.3C596.2 714.8 592.8 699.2 592.9 680.2C593 642.8 606.3 613.1 604.7 612.6Z" fill="#353535"/>
<path d="M508.6 490.6C504.7 498.6 505.8 506.7 506.7 510.5C506.3 510.5 501.6 510.3 499.1 513.7C496.1 517.7 498.9 522.7 499.4 523.5C500.1 524.7 501 526.4 502.9 526.9C505.9 527.8 508.7 525.2 508.9 525C510.4 528.8 512.9 533.6 516.8 538.5C522.8 546.1 529.5 550.6 534 553.1C534.2 557.9 534.4 562.6 534.5 567.4C535.6 568.4 537.9 570.2 541.3 570.8C548 572.1 553.2 567.7 553.8 567.1C553.7 561.1 553.6 555.1 553.5 549.1C556.1 547.1 559.1 544.3 562 540.6C567.8 533 569.9 525.3 570.7 520.7C571.8 521.1 573.6 521.5 575.9 521.5C578.1 521.5 580.9 521.4 582.2 519.6C583.6 517.6 582.1 514.7 580.6 511.6C579.1 508.7 578 508.3 577.6 508.2C575.9 507.7 574.3 508.7 573.8 509C574.2 505.8 574.4 499.8 571.9 493.1C571.2 491.2 567.2 481 557.5 475.6C541.6 467 516.6 474.3 508.6 490.6Z" fill="white"/>
<path d="M506.8 490.8C500.9 516.7 510.5 550.1 539.9 555.7C541.8 556.1 542.6 553.2 540.7 552.8C512.9 547.5 504.2 516 509.7 491.6C510.1 489.7 507.2 488.9 506.8 490.8Z" fill="#161616"/>
<path d="M540.3 555.6C544.4 556.8 550 552.9 553.3 550.7C557.7 547.8 561.6 544.1 564.7 539.8C572.4 529.5 575.3 516.5 574.1 503.9C573.9 502 570.9 502 571.1 503.9C572.2 514.8 570.2 525.9 564.3 535.2C561.8 539.1 558.7 542.6 555.1 545.6C552.2 548 545.1 553.8 541.1 552.7C539.2 552.2 538.4 555.1 540.3 555.6Z" fill="#161616"/>
<path d="M531.5 553.2C533 557.3 533.4 561.6 532.7 565.9C532.4 567.8 535.3 568.6 535.6 566.7C536.4 561.8 536.1 557.1 534.4 552.4C533.8 550.6 530.9 551.3 531.5 553.2Z" fill="#161616"/>
<path d="M552.2 549.8C551.7 554.9 552.1 559.9 553.4 564.9C553.9 566.8 556.8 566 556.3 564.1C555.1 559.4 554.8 554.6 555.2 549.8C555.4 547.9 552.4 547.9 552.2 549.8Z" fill="#161616"/>
<path d="M532.8 567.8C539.7 575.5 554.1 575.3 556.6 563.6C557 561.7 554.1 560.9 553.7 562.8C551.6 572.3 540.4 571.7 534.9 565.7C533.6 564.3 531.5 566.4 532.8 567.8Z" fill="#161616"/>
<path d="M533.4 555.2C539.2 560.5 548.3 559.3 552 552.2C552.9 550.5 550.3 549 549.4 550.7C546.6 556 539.9 557.2 535.5 553.1C534.1 551.8 532 553.9 533.4 555.2Z" fill="#161616"/>
<path d="M539.4 557.4C540.8 557.3 542.1 557.4 543.4 557.8C545.3 558.3 546.1 555.4 544.2 554.9C542.6 554.5 541 554.3 539.4 554.4C537.5 554.5 537.5 557.5 539.4 557.4Z" fill="#161616"/>
<path d="M507.1 525.3C503 528.6 499.4 524 499 520.1C498.5 516.3 501.8 511.6 506 514.2C507.6 515.2 509.1 512.6 507.5 511.6C501.3 507.7 495.3 514.3 496 520.5C496.8 527.1 503.3 532.2 509.2 527.4C510.7 526.2 508.6 524.1 507.1 525.3Z" fill="#161616"/>
<path d="M574.6 510.7C577.8 507.7 580.9 513.4 580.8 516C580.8 517.6 580 519.2 578.6 520.1C577.5 520.8 574.9 521.7 574 520.3C573 518.7 570.4 520.2 571.4 521.8C572.9 524.3 576.3 524.4 578.8 523.4C581.7 522.2 583.6 519.5 583.7 516.4C584 510.9 577.7 503.6 572.4 508.6C571.1 509.9 573.2 512.1 574.6 510.7Z" fill="#161616"/>
<path d="M534.4 490.5C535.2 497.5 534.8 504.1 534.1 511.1C533.7 515.8 536.2 517.8 539.9 520.8C541.4 522 543.5 519.9 542 518.7C539.4 516.5 537.1 515 537.2 511C537.2 509.1 537.7 507 537.9 505.1C538.3 500.2 538.1 495.3 537.5 490.5C537.2 488.6 534.2 488.6 534.4 490.5Z" fill="#161616"/>
<path d="M517.7 504.7C517.6 502.5 520.8 501.1 522.6 501.2C524.7 501.2 525.8 502.9 526.9 504.5C528 506.1 530.6 504.6 529.5 503C527.5 500.1 525.2 497.7 521.4 498.3C518.2 498.9 514.5 501.2 514.6 504.8C514.7 506.7 517.7 506.7 517.7 504.7Z" fill="#161616"/>
<path d="M552 502C554.7 496.9 562 497.7 563.3 503.4C563.7 505.3 566.6 504.5 566.2 502.6C564.4 494.4 553.3 493.1 549.4 500.4C548.6 502.1 551.1 503.7 552 502Z" fill="#161616"/>
<path d="M514.8 494.1C516.5 491.5 519.4 489.8 522.5 489.4C524.4 489.2 524.4 486.2 522.5 486.4C518.2 486.9 514.6 489 512.2 492.6C511.1 494.2 513.7 495.7 514.8 494.1Z" fill="#161616"/>
<path d="M552 488.5C555.6 488.3 558.9 489.4 561.5 491.8C562.9 493.1 565.1 491 563.6 489.7C560.4 486.8 556.3 485.3 551.9 485.5C550 485.6 550 488.6 552 488.5Z" fill="#161616"/>
<path d="M518.5 512.4C518.5 512.3 518.5 512.3 518.5 512.2C518.5 511.4 517.8 510.7 517 510.7C516.2 510.7 515.5 511.4 515.5 512.2C515.5 512.3 515.5 512.3 515.5 512.4C515.5 513.2 516.2 513.9 517 513.9C517.8 513.9 518.5 513.3 518.5 512.4Z" fill="#161616"/>
<path d="M523.1 511.7C523.2 511.7 523.3 511.7 523.3 511.7C524.1 511.7 524.8 511 524.8 510.2C524.8 509.4 524.1 508.7 523.3 508.7C523.2 508.7 523.1 508.7 523.1 508.7C522.3 508.7 521.6 509.4 521.6 510.2C521.7 511 522.3 511.7 523.1 511.7Z" fill="#161616"/>
<path d="M522.9 518.3C523 518.3 523.1 518.3 523.1 518.3C523.9 518.3 524.6 517.6 524.6 516.8C524.6 516 523.9 515.3 523.1 515.3C523 515.3 522.9 515.3 522.9 515.3C522.1 515.3 521.4 516 521.4 516.8C521.4 517.6 522.1 518.3 522.9 518.3Z" fill="#161616"/>
<path d="M555.3 509.5C555.4 509.5 555.5 509.5 555.5 509.5C556.3 509.5 557 508.8 557 508C557 507.2 556.3 506.5 555.5 506.5C555.4 506.5 555.3 506.5 555.3 506.5C554.5 506.5 553.8 507.2 553.8 508C553.9 508.8 554.5 509.5 555.3 509.5Z" fill="#161616"/>
<path d="M564.1 509.3C566 509.3 566 506.3 564.1 506.3C562.2 506.3 562.2 509.3 564.1 509.3Z" fill="#161616"/>
<path d="M560.8 514.1C562.7 514.1 562.7 511.1 560.8 511.1C558.8 511.1 558.8 514.1 560.8 514.1Z" fill="#161616"/>
<path d="M527.7 527.2C533.8 538.2 549.8 536.6 553.7 524.7C554.3 522.9 551.4 522.1 550.8 523.9C547.7 533.5 535.1 534.3 530.3 525.7C529.4 524 526.8 525.5 527.7 527.2Z" fill="#161616"/>
<path d="M492 502.7C488.3 508.2 483 517.7 480.9 530.4C479.4 539.5 476.8 555.4 486.8 568C489.5 571.4 499.4 582.5 513 580.7C522.1 579.5 531.8 572.7 533.6 563.2C534.5 558.8 533.5 555 532.6 552.8C528.3 550.7 520.6 546.3 514.6 537.7C511.6 533.5 509.8 529.4 508.8 526.2C508.3 526.6 506.7 527.8 504.5 527.7C501.9 527.6 500.3 525.8 499.9 525.3C496.8 521.8 497.1 514.6 501.2 512.2C503.3 511 505.7 511.4 507 511.7C506.4 508 505.8 500.1 510 491.8C512.8 486.2 517.1 482.1 527 475.9C535.2 470.8 538.8 471.2 540.1 471.4C544.5 472.2 547.2 475.7 548.6 477.5C554.9 485.5 563.1 495.8 572.9 508.5C573.3 508.3 576 507 578.7 508.2C580.6 509.1 581.5 510.8 582.1 512.1C582.6 513.2 583.4 514.8 583 516.7C582.6 519.1 580.7 521.3 578.1 522.1C574.9 523.1 572.3 521.4 571.9 521.1C571.1 524.9 569.5 530.6 565.7 536.7C561.8 542.9 557.3 547 554.2 549.4C553.8 551.8 553.3 556.2 555.2 561.2C558.2 569.4 566 574.6 573.2 576.2C586.7 579.1 597.6 569 600.4 566.3C610 557.3 615.8 542.2 610.9 527.7C607.2 516.9 599 511 595.8 508.9C591.9 499.9 587.9 492.9 584.7 487.9C575.7 473.8 569.5 464.3 558.2 460.8C551.3 458.7 545 459.5 540.8 460.5C534 459 528.7 459.6 525.1 460.5C508.5 464.6 495.9 481.2 492 502.7Z" fill="#5222D0"/>
<path opacity="0.08" d="M560.6 491.6C559.8 491.9 561.4 497.1 562.2 502.3C562.3 503 564 515.9 559.2 528.2C553.8 542 542.6 549.4 537.7 552.2C540.8 552.9 544 553.6 547.1 554.4C548 559.8 548.8 565.3 549.7 570.7C551.7 568.3 553.8 565.9 555.8 563.5C556.7 565.2 558.3 567.7 560.8 570C561.6 570.8 567.4 576 576 576.7C585.6 577.6 592.7 572.4 596.7 569.5C599.4 567.6 607.4 561.6 611.1 550.1C615.1 537.6 611.2 527.1 610 524.2C608.7 529.2 606 536.7 600.2 544C598.8 545.8 586.2 561.5 578.4 558.8C571.7 556.5 569.4 540.7 572.7 520C572.9 520.2 574.5 522.1 576.8 522C579.7 521.9 581 519 581.2 518.7C582.6 515.7 580.9 512.4 579.2 510.6C577 508.2 574 507.8 573.1 507.8C571.8 506.5 569.9 504.5 567.9 501.9C563.1 496 561.3 491.4 560.6 491.6Z" fill="#353535"/>
<path opacity="0.09" d="M536.4 513.8C537.2 512.5 541.6 512.2 542.9 514.9C543.9 517 542.6 519.8 541.2 520.1C539 520.7 535.3 515.5 536.4 513.8Z" fill="#353535"/>
<path opacity="0.09" d="M513.3 556.1C511.2 559.7 507 563 502.8 562.6C500.3 562.4 497.5 560.9 487.8 545.4C484.6 540.3 482.1 535.9 480.4 533C479.5 536.3 478.3 542.2 479.3 549.3C479.7 552.1 480.7 556.9 483.4 562.1C485.1 565.4 489.1 572.7 497.6 577.3C500.1 578.7 504.5 581 510.4 581C520.3 580.9 526.7 574.3 528 572.9C530.3 570.6 533.6 567.1 534.1 561.6C534.6 556.3 532.1 552.2 531.5 551.4C528.5 546.8 525.3 547.3 520.2 542.9C513.7 537.3 511.9 530.4 511.1 530.7C509.9 531.4 519 546.3 513.3 556.1Z" fill="#353535"/>
<path opacity="0.13" d="M572.3 514C571.7 513.8 569.9 520.1 564.7 528.6C557.3 540.7 548.2 548.6 541.6 553.4C546.2 552.1 554.4 549.1 561.2 541.7C572 530.1 573.2 514.3 572.3 514Z" fill="#353535"/>
</svg>
