<svg width="1459" height="920" viewBox="0 0 1459 920" fill="none" xmlns="http://www.w3.org/2000/svg">
<path d="M1408.4 536.6C1397.3 631.9 1386.3 727.1 1375.2 822.4C1372 849.5 1368.9 876.6 1365.7 903.8C1365.5 905.7 1368.5 905.7 1368.7 903.8C1379.8 808.5 1390.8 713.3 1401.9 618C1405.1 590.9 1408.2 563.8 1411.4 536.6C1411.6 534.7 1408.6 534.7 1408.4 536.6Z" fill="#E8E8E8"/>
<path d="M1410.8 538.2C1412.8 528 1430.5 529 1437.2 533.2C1443.7 537.3 1441.6 545.6 1440.9 552C1440.2 558.6 1439.5 565.2 1438.8 571.8C1436 598.6 1433.2 625.3 1430.4 652.1C1424.8 705.3 1419.2 758.5 1413.6 811.6C1410.5 841.3 1407.4 871.1 1404.2 900.8C1404 902.7 1407 902.7 1407.2 900.8C1419.6 783.2 1432.1 665.6 1444.3 548C1444.8 542.8 1445.5 537.3 1441.8 533.1C1438.7 529.6 1433.9 528.2 1429.5 527.6C1421.7 526.6 1409.8 527.9 1407.9 537.3C1407.5 539.3 1410.4 540.1 1410.8 538.2Z" fill="#E8E8E8"/>
<path d="M1398.8 614.2C1379 610.1 1376.2 637.5 1369.4 649.4C1359.8 666 1342.5 677.5 1323.5 679.9C1322 680.1 1321.3 682.4 1323.1 682.8C1329.5 684.4 1330.7 692.2 1331.3 697.7C1331.9 703.4 1332 709.2 1331.5 714.9C1330.3 727.3 1326.4 739.2 1320.1 749.9C1319.1 751.6 1321.7 753.1 1322.7 751.4C1325.2 747.2 1331.2 747.8 1334.5 750.8C1338.3 754.3 1338.3 760.2 1337.8 764.9C1336.8 773.1 1333.7 780.7 1335.8 789C1336.1 790.3 1337.8 790.4 1338.5 789.4C1349 774.7 1363.6 763.6 1380.6 757.5C1382.4 756.9 1381.6 754 1379.8 754.6C1362 761 1346.9 772.5 1335.9 787.9C1336.8 788 1337.7 788.1 1338.6 788.3C1335.6 776.2 1346.2 761.5 1337.9 750.4C1333.7 744.7 1324 743.4 1320 750C1320.9 750.5 1321.7 751 1322.6 751.5C1330 738.8 1334.3 724.5 1334.7 709.8C1335 700.6 1335.4 682.8 1323.8 680C1323.7 681 1323.5 682 1323.4 682.9C1339.5 680.9 1354.4 672.9 1365 660.6C1370.1 654.7 1374 647.9 1376.7 640.5C1380.1 631 1384.4 614.3 1398 617.1C1399.9 617.5 1400.7 614.6 1398.8 614.2Z" fill="#E8E8E8"/>
<path d="M1419 543.3C1422.8 546 1427.6 546.6 1431.9 544.9C1433.7 544.2 1432.9 541.3 1431.1 542C1427.4 543.4 1423.7 543 1420.5 540.7C1419 539.6 1417.5 542.2 1419 543.3Z" fill="#E8E8E8"/>
<path d="M1420.5 549.4C1422.4 552.6 1426.5 554.2 1430 552.8C1431.8 552.1 1431 549.2 1429.2 549.9C1426.9 550.8 1424.3 550.1 1423.1 547.9C1422.1 546.2 1419.6 547.7 1420.5 549.4Z" fill="#E8E8E8"/>
<path d="M1287.4 909.6C1304.3 907.8 1323 903.4 1339.8 907.8C1347.4 909.8 1354.8 912.8 1362.5 914.7C1371 916.8 1379.8 918 1388.4 919.3C1390.3 919.6 1391.1 916.7 1389.2 916.4C1380.5 915.1 1371.8 913.8 1363.3 911.8C1355 909.8 1347.2 906.4 1338.9 904.5C1322.4 900.5 1304.1 904.8 1287.5 906.6C1285.5 906.8 1285.5 909.9 1287.4 909.6Z" fill="#E8E8E8"/>
<path d="M1378 908.6C1390.8 909.6 1402.9 905.7 1415.2 902.9C1429 899.8 1443 898.7 1457.1 899.6C1459 899.7 1459 896.7 1457.1 896.6C1444 895.8 1431 896.6 1418.2 899.2C1404.9 901.9 1391.9 906.7 1378.1 905.6C1376 905.4 1376 908.4 1378 908.6Z" fill="#E8E8E8"/>
<path d="M1296.5 435C1283.2 519.6 1269.9 604.2 1256.5 688.9C1252.7 712.9 1248.9 737 1245.1 761C1244.8 762.9 1247.7 763.7 1248 761.8C1261.3 677.2 1274.6 592.6 1288 507.9C1291.8 483.9 1295.6 459.8 1299.4 435.8C1299.7 433.9 1296.8 433.1 1296.5 435Z" fill="#E8E8E8"/>
<path d="M1268.2 439.7C1252.9 524.2 1238.1 608.8 1223.8 693.4C1219.8 717.3 1215.8 741.1 1211.8 765C1211.5 766.9 1214.4 767.7 1214.7 765.8C1228.8 681.1 1243.3 596.5 1258.3 511.9C1262.5 488.1 1266.8 464.3 1271.1 440.4C1271.5 438.6 1268.6 437.8 1268.2 439.7Z" fill="#E8E8E8"/>
<path d="M1270.3 438.8C1275.4 428 1288.8 425.7 1297.1 434.4C1298.4 435.8 1300.6 433.7 1299.2 432.3C1289.6 422.3 1273.6 424.8 1267.7 437.4C1266.9 439 1269.5 440.5 1270.3 438.8Z" fill="#E8E8E8"/>
<path d="M1257.5 483.7C1254 497.7 1239.3 503.5 1227 507.6C1215.7 511.4 1204 515.5 1196.7 525.5C1195.7 526.9 1197.6 528.1 1198.8 527.6C1207.4 523.9 1205 538.6 1204.1 542.2C1202.8 547 1200.9 551.6 1198.5 555.9C1198 556.7 1198.4 557.9 1199.4 558.1C1204.9 559.3 1202 567.6 1200.8 571C1198.8 576.6 1196.7 582.1 1194.7 587.7C1190.6 598.8 1186.6 609.9 1182.5 621C1182.1 622.2 1183.3 623.1 1184.3 622.8C1186.2 622.4 1187.5 621.5 1188.9 620.2C1190.2 619 1191.6 617.5 1193.3 616.9C1195.2 616.3 1197.3 616.7 1199.3 616.8C1205 617 1210.7 616.3 1216 614.3C1226.2 610.5 1234.7 603.1 1239.7 593.4C1240.6 591.7 1238 590.2 1237.1 591.9C1231.8 602.2 1222.3 609.8 1211.1 612.7C1205.4 614.2 1200.1 613.1 1194.5 613.7C1189.6 614.2 1188 619 1183.5 619.9C1184.1 620.5 1184.7 621.1 1185.3 621.7C1190.7 606.9 1196.2 592.1 1201.6 577.3C1203.6 571.8 1210.1 557.3 1200.2 555.1C1200.5 555.8 1200.8 556.6 1201.1 557.3C1205.1 550.2 1209.6 540.3 1208.3 531.9C1207.5 526.5 1202.7 522.6 1197.3 524.9C1198 525.6 1198.7 526.3 1199.4 527C1214.5 506.5 1253.5 512.8 1260.6 484.5C1260.8 482.6 1258 481.8 1257.5 483.7Z" fill="#E8E8E8"/>
<path d="M1179.7 773C1191.5 774.3 1201.8 766.1 1213.7 767.8C1224.6 769.3 1234.5 775.2 1245.7 774.7C1247.6 774.6 1247.6 771.6 1245.7 771.7C1234.3 772.2 1224.2 766 1213.1 764.7C1201.4 763.4 1191.3 771.3 1179.7 770C1177.8 769.8 1177.8 772.8 1179.7 773Z" fill="#E8E8E8"/>
<path d="M1242.1 582.5C1240.2 586.5 1237.9 590.2 1235.1 593.7C1233.9 595.2 1236 597.3 1237.2 595.8C1240.2 592.2 1242.7 588.3 1244.6 584C1245.5 582.3 1242.9 580.8 1242.1 582.5Z" fill="#E8E8E8"/>
<path d="M818.8 753.3C858.4 743.5 899.7 750.5 939.7 753C981.7 755.6 1023.8 756 1065.9 755.6C1089.8 755.4 1113.6 754.9 1137.5 754.5C1139.4 754.5 1139.4 751.5 1137.5 751.5C1094.8 752.3 1052 753.1 1009.3 752.5C988.1 752.2 966.9 751.5 945.8 750.3C925.3 749.1 904.9 747 884.4 745.9C862.2 744.7 839.8 745 818.1 750.4C816.2 750.8 817 753.7 818.8 753.3Z" fill="#E8E8E8"/>
<path d="M1148.5 805.4C1179.2 809.9 1209.4 801.7 1239.9 799.5C1271.6 797.2 1303.3 801.9 1334.2 809.2C1336.1 809.6 1336.9 806.8 1335 806.3C1305.2 799.3 1274.5 794.6 1243.7 796.3C1212.2 798 1180.9 807.2 1149.3 802.6C1147.4 802.2 1146.6 805.1 1148.5 805.4Z" fill="#E8E8E8"/>
<path d="M146.9 752.7C183.9 749.1 220.7 751.5 257.1 759C274 762.5 291 766.2 308.4 766C325.3 765.8 342.1 762.6 358.7 759.8C378.7 756.4 399 753.5 419.2 756.8C421.1 757.1 421.9 754.2 420 753.9C385.7 748.2 352.3 760.1 318.4 762.6C299.4 764 281.1 760.9 262.6 757.1C245.1 753.5 227.6 750.5 209.7 749.1C188.8 747.5 167.8 747.7 146.9 749.8C145 749.8 145 752.8 146.9 752.7Z" fill="#E8E8E8"/>
<path d="M37.1 512C67.1 504.3 97.2 496.6 127.9 492.2C158.5 487.8 189 487.7 219.6 491.6C278.5 499.2 336.9 513.5 394.3 528.7C507.2 558.8 617.8 596.9 730.6 627.4C794.3 644.6 858.7 659.4 924 668.7C925.9 669 926.7 666.1 924.8 665.8C807.6 649 694 614.9 581 580.4C468.2 545.9 354.8 509.9 238 491.2C204.4 485.8 170.9 483.8 136.9 487.9C102.8 492 69.4 500.5 36.2 509C34.4 509.6 35.2 512.5 37.1 512Z" fill="#E8E8E8"/>
<path d="M624.8 596.2C694.7 596.5 763.9 585.4 832.3 571.8C901.1 558.1 969.5 541.8 1039.1 531.9C1078.7 526.2 1118.6 522.8 1158.6 523C1160.5 523 1160.5 520 1158.6 520C1088.7 519.6 1019.5 530.7 951.1 544.2C882.3 557.9 813.9 574.2 744.3 584.2C704.7 589.9 664.8 593.4 624.8 593.2C622.8 593.2 622.8 596.2 624.8 596.2Z" fill="#E8E8E8"/>
<path d="M1311.6 539.1C1333.7 546.7 1355.1 556.2 1375.5 567.6C1377.2 568.5 1378.7 566 1377 565C1356.3 553.5 1334.7 543.9 1312.3 536.2C1310.6 535.6 1309.8 538.5 1311.6 539.1Z" fill="#E8E8E8"/>
<path d="M0.699974 647.8C11.7 667.4 16 689.9 13.3 712.2C13.2 713 14.1 713.7 14.8 713.7C18.2 713.5 24.1 713.7 26.6 716.5C28.9 719 26.6 721.8 25.1 723.9C23.1 726.7 20.5 729.6 20.5 733.2C20.5 735.2 21.3 736.8 22 738.6C23.6 742.3 24.5 745.8 25.2 749.8C26.1 755.2 27.1 760.4 29.3 765.4C37.9 785.2 57.4 797.8 75.1 808.8C76.7 809.8 78.3 807.2 76.6 806.2C57 794 34.3 779.4 29.2 755.2C27.9 749 27.1 743.1 24.7 737.1C22 730.7 26.9 727.8 29.6 722.7C34.7 713.4 22 710.3 14.9 710.7C15.4 711.2 15.9 711.7 16.4 712.2C19.2 689.4 14.6 666.4 3.39997 646.3C2.39997 644.6 -0.200026 646.1 0.699974 647.8Z" fill="#E8E8E8"/>
<path d="M5.89992 648C16.0999 654 26.3999 660.1 36.5999 666.1C40.6999 668.5 48.5999 672.4 46.7999 678.1C45.7999 681.3 42.1999 682.6 42.2999 686.3C42.2999 687.3 43.1999 688 44.1999 687.7C52.1999 685.6 55.4999 695 58.5999 700.3C61.1999 704.7 64.9999 707.8 68.5999 711.4C75.7999 718.7 81.5999 727.2 85.9999 736.4C95.0999 755.4 97.6999 777.3 92.9999 797.8C92.5999 799.7 95.4999 800.5 95.8999 798.6C101 776.2 97.7999 752.5 87.1999 732.1C81.7999 721.6 74.4999 713 66.0999 704.8C59.3999 698.3 55.7999 681.5 43.3999 684.7C43.9999 685.2 44.6999 685.7 45.2999 686.1C45.1999 683.8 48.4999 682.1 49.5999 680.3C50.2999 679 50.5999 677.8 50.4999 676.3C50.1999 672.4 46.7999 669.1 43.7999 666.8C38.3999 662.7 31.9999 659.6 26.0999 656.2C19.8999 652.5 13.5999 648.8 7.39992 645.1C5.69992 644.4 4.19992 647 5.89992 648Z" fill="#E8E8E8"/>
<path d="M23.1 676.4C49.5 712.7 69.1 753.5 80.9 796.7C81.4 798.6 84.3 797.8 83.8 795.9C71.9 752.4 52.3 711.3 25.7 674.9C24.6 673.3 22 674.8 23.1 676.4Z" fill="#E8E8E8"/>
<path d="M64.3999 699.8C65.7999 666.1 92.6999 640.1 95.1999 606.5C94.1999 606.6 93.1999 606.8 92.2999 606.9C94.9999 615.3 97.6999 623.7 100.5 632.1C102.2 637.2 112.4 660.1 100.9 659.8C99.3999 659.8 98.8999 661.8 100.1 662.6C104.6 665.5 103.7 671.5 104 676.2C104.2 680.2 105.1 683.6 106.7 687.3C111.9 698.8 113 710 111.3 722.4C109.7 733.9 106.5 745.1 103.7 756.3C100.7 768.5 97.6999 780.8 94.6999 793C94.1999 794.9 97.0999 795.7 97.5999 793.8C100.9 780.3 104.3 766.8 107.6 753.2C110.6 741.1 114 729 115 716.5C115.4 711 115.3 705.4 114.3 699.9C113.2 693.7 110.1 688.6 108.2 682.7C105.8 675.3 109.4 664.8 101.7 659.9C101.4 660.8 101.2 661.8 100.9 662.7C111.4 663 109.8 650.8 107.7 644.3C103.6 631.6 99.3999 618.8 95.2999 606.1C94.7999 604.5 92.4999 604.8 92.3999 606.5C89.9999 640 62.9999 666 61.5999 699.8C61.2999 701.7 64.2999 701.7 64.3999 699.8Z" fill="#E8E8E8"/>
<path d="M93.8 633.9C88 659.7 83.7 685.9 81 712.2C80.8 714.1 83.8 714.1 84 712.2C86.7 686.1 91 660.3 96.7 634.7C97.1 632.8 94.2 632 93.8 633.9Z" fill="#E8E8E8"/>
<path d="M41.3 747.4C52.1 749.4 61.7 754.5 69.4 762.3C70.8 763.7 72.9 761.6 71.5 760.2C63.5 752 53.4 746.6 42.1 744.5C40.2 744.2 39.4 747.1 41.3 747.4Z" fill="#E8E8E8"/>
<path d="M56.2 722.3C57.2 714.2 58.3 706.2 59.3 698.1C59.5 696.2 56.5 696.2 56.3 698.1C55.3 706.2 54.2 714.2 53.2 722.3C53 724.2 56 724.2 56.2 722.3Z" fill="#E8E8E8"/>
<path d="M78.2001 664.1C81.3001 668.2 83.4001 672.6 84.5001 677.6C84.9001 679.5 87.8001 678.7 87.4001 676.8C86.2001 671.6 84.0001 666.8 80.8001 662.6C79.6001 661.1 77.0001 662.5 78.2001 664.1Z" fill="#E8E8E8"/>
<path d="M863.3 689.6C863.9 696 863.7 702.4 863 708.8C862.9 709.4 863.5 710.2 864.1 710.2C866.8 710.6 869.5 711 872.3 711.3C872 710.6 871.7 709.8 871.4 709.1C870.4 711.5 867.5 715.3 868.9 717.9C869.8 719.5 872.1 720 873 721.9C874.1 724.2 873.8 726.9 874.8 729.2C878.8 737.8 893.9 732.6 896.3 741.7C896.8 743.6 899.7 742.8 899.2 740.9C897.2 733.1 888.6 733.8 882.4 731.7C875.8 729.5 877.9 723.4 874.8 718.7C874.1 717.7 872.1 716.9 871.7 716.1C871.3 715.3 873.4 711.8 874 710.6C874.3 709.8 874.2 708.5 873.1 708.4C870.4 708 867.7 707.6 864.9 707.3C865.3 707.8 865.6 708.3 866 708.7C866.8 702.3 866.9 695.9 866.3 689.5C866.1 687.7 863.1 687.7 863.3 689.6Z" fill="#E8E8E8"/>
<path d="M866.6 693.2C875.1 697.1 884.4 700.3 892.2 705.5C902.2 712.2 903.6 722.1 903.5 733.4C903.5 735.3 906.5 735.3 906.5 733.4C906.5 723.2 905.8 713 897.6 705.9C889.4 698.7 877.9 695.1 868.1 690.6C866.4 689.8 864.9 692.4 866.6 693.2Z" fill="#E8E8E8"/>
<path d="M875.1 708.8C886.2 716.1 894.6 726.3 899.9 738.5C900.7 740.3 903.2 738.7 902.5 737C897.1 724.3 888.2 713.8 876.7 706.3C875 705.2 873.5 707.8 875.1 708.8Z" fill="#E8E8E8"/>
<path d="M904.1 710.7C903.3 707.6 901.9 703.7 903.5 700.7C904.8 698.3 907.3 697.8 909.4 696.4C912.5 694.4 913.2 689.7 914.7 686.7C915.7 684.7 917.6 680.8 919.6 679.6C922.5 677.8 924.9 681 925.7 683.8C926.5 686.6 926 689.3 925 692C924.5 693.3 923.7 694.4 923.8 695.9C923.9 697 924.2 697.6 924.8 698.6C926.5 701.2 928.3 702.9 928.6 706.3C929 712.1 926 717.1 922.4 721.4C916.9 728 910.2 733.4 907.8 742C907.3 743.9 910.2 744.7 910.7 742.8C914.3 730.2 928.9 724.1 931.3 711C932.2 706.2 930.9 702.9 928.9 698.7C927 694.6 928.1 693.3 928.8 689.5C929.2 687.4 929.1 685.1 928.5 683C927.7 679.9 924.9 675.2 921.1 675.3C917.3 675.3 914 681.8 912.5 684.5C911 687.2 910.2 691.5 907.9 693.4C906.1 694.9 904 695.1 902.3 696.8C898.5 700.9 899.8 706.7 901.1 711.5C901.8 713.3 904.7 712.6 904.1 710.7Z" fill="#E8E8E8"/>
<path d="M916.8 697.6C911.6 709.2 907.1 721.1 903.5 733.3C902.9 735.2 905.8 735.9 906.4 734.1C909.9 722.2 914.3 710.5 919.4 699.2C920.2 697.4 917.6 695.8 916.8 697.6Z" fill="#E8E8E8"/>
<path d="M126 736C155.1 726.3 186.8 727.2 215.3 738.7C217.1 739.4 217.9 736.5 216.1 735.8C187.1 724.2 154.8 723.3 125.2 733.1C123.4 733.8 124.2 736.7 126 736Z" fill="#E8E8E8"/>
<ellipse cx="1116.8" cy="90" rx="81.5" ry="80.3" stroke="#E8E8E8" stroke-width="2"/>
<path d="M145.6 252.1C139.3 241.9 154.3 233.6 162.8 234.3C173.3 235.2 182.7 241.3 193.3 241.9C210.6 243 225.1 231.3 240.2 224.9C249.5 221 258.8 219.6 268.6 222.1C278.2 224.6 286.9 229.5 296.4 232.2C304.7 234.6 312.8 234.7 321.2 232.5C330.6 230.1 339.3 225.6 348.8 223.3C359 220.8 367.9 222.5 376.6 228.1C383.9 232.8 390.6 239 399.1 241.6C408.1 244.4 423.8 241 428.2 251.7C432.8 262.8 416.1 267.2 408.5 268.2C396.7 269.6 384.7 269.9 372.9 268.9C361.4 268 350.2 265.2 338.7 264.9C328.1 264.6 319.1 267.5 310 272.8C300.4 278.5 291.3 283.4 279.9 284.6C255.6 287.2 231.8 278 207.6 278.3C194 278.4 179.8 282 166.4 278.2C155.2 275 143.9 264.5 146.6 252C147 250.1 144.1 249.3 143.7 251.2C141.8 260.2 145.8 268.4 152.7 274.2C161.2 281.3 171.8 283.1 182.6 282.9C195.7 282.6 208.4 280.8 221.5 282.1C233.7 283.4 245.8 285.9 258 287.3C269.2 288.5 280.9 288.7 291.8 285.4C303.4 281.8 312.4 273.1 324 269.7C337.2 265.8 351.1 269.5 364.4 271.2C377.8 272.9 391.4 273.1 404.8 271.8C413.1 271 422.8 269.7 428.8 263.2C433.9 257.6 432.6 249.8 426.7 245.3C417.8 238.5 405.5 241.9 395.7 237.2C386.7 232.9 379.6 225.3 370.2 221.5C349.5 213.1 330.8 230.7 310.4 231.4C299 231.8 288.6 226.3 278.3 222.3C268.8 218.7 259.2 216.6 249.2 218.9C238.6 221.3 229.3 227.1 219.7 231.9C207.6 237.9 196.3 240.9 183 236.8C172.5 233.6 161.1 228 150.5 234C143.6 237.9 138.3 246 143 253.6C144 255.3 146.6 253.8 145.6 252.1Z" fill="#E8E8E8"/>
<path d="M661.1 110.5C669.1 93.9999 691 106.4 702.6 110.1C717.6 114.9 730 108.1 743.4 101.9C751.7 97.9999 759.9 95.6999 769.1 96.1999C778.5 96.7999 787.7 99.3999 797 100.7C814.7 103.1 831.2 97.4999 848.4 94.5999C857.6 93.0999 867 92.7999 876.2 93.7999C880.9 94.2999 885.6 95.0999 890.2 96.2999C894.5 97.3999 899.8 98.3999 903.6 100.7C915.2 107.6 899.8 119.2 892.6 121.3C885.2 123.5 877.3 123 869.8 121.7C861.1 120.2 852.5 117.7 843.7 117.4C835.4 117 827.9 119.2 820.3 122.2C811.5 125.7 803.1 129.1 793.5 129.2C784.1 129.3 774.6 128 765.2 127.5C743.6 126.5 721.9 127 700.4 129C690.1 130 679.6 132.4 669.3 132.5C664.2 132.6 658.8 131.5 655 127.9C652.8 125.7 651.2 122.8 651.7 119.6C652.3 115.7 655.5 112 659.9 112.7C661.8 113 662.6 110.1 660.7 109.8C654.6 108.9 649.4 113.3 648.6 119.4C647.8 126 653.2 131.6 659 133.9C668 137.5 678.5 134.6 687.7 133.5C699.1 132.1 710.5 131.1 722 130.6C733.5 130.1 744.9 129.9 756.4 130.3C767.8 130.6 779.2 131.9 790.6 132.3C801 132.6 810 129.6 819.5 125.8C830.6 121.4 840.6 119.5 852.5 121.5C868.4 124.1 886.9 130.5 901.7 120.6C906.8 117.2 912 110.7 910.2 104.2C908.2 96.6999 896.3 94.8999 890.1 93.3999C880.5 91.0999 870.6 90.0999 860.7 90.4999C850.1 90.9999 839.8 93.3999 829.5 95.5999C817.9 98.0999 806.6 99.3999 794.8 97.4999C784.8 95.8999 774.8 92.9999 764.5 93.2999C743.1 93.7999 726.1 114.3 704.1 107.7C694.7 104.9 686 99.2999 675.8 99.4999C668.7 99.6999 661.6 102.5 658.4 109.2C657.7 110.7 660.3 112.2 661.1 110.5Z" fill="#E8E8E8"/>
<path d="M1105.2 260.8C1130.5 246.7 1160.4 253.8 1187.9 253.2C1201.6 252.9 1213.8 249.8 1226.8 245.6C1234.2 243.2 1241.5 241.5 1249.3 241.5C1257 241.4 1264.6 242.4 1272.3 242.8C1278.8 243.1 1285.4 243.1 1291.7 241.5C1294.8 240.8 1297.7 239.5 1300.7 238.8C1307.5 237.3 1310.7 242.3 1310.9 248.5C1311.3 263.8 1295.9 272.3 1282.8 274.6C1267 277.3 1250.6 275.3 1234.7 274.8C1219.6 274.4 1204.9 275.8 1190 278.5C1172.8 281.6 1155.5 285.5 1137.9 285.1C1129.6 284.9 1121.3 283.8 1113.4 281.2C1109.5 279.9 1105.4 278.3 1101.9 276C1098.2 273.6 1092.8 265.3 1100.4 263.7C1102.3 263.3 1101.5 260.4 1099.6 260.8C1095.3 261.7 1093 266.1 1093.8 270.4C1095 276.4 1101.7 279.7 1106.8 281.9C1121.4 288.3 1137.7 289.1 1153.4 287.6C1172 285.9 1190 280.9 1208.6 278.8C1227.8 276.6 1247 279 1266.3 278.9C1280.7 278.8 1297.6 277.3 1307.6 265.5C1311.4 261 1314 255.3 1314.1 249.3C1314.2 244.5 1312.7 238.2 1307.8 236.2C1301.5 233.6 1293.9 238.4 1287.7 239.4C1278.6 240.8 1269.2 239.6 1260.1 239C1252 238.4 1243.9 238.3 1235.9 240.1C1227 242.1 1218.6 245.8 1209.7 247.9C1174.9 256.1 1136.6 240.1 1103.9 258.4C1102 259.2 1103.5 261.8 1105.2 260.8Z" fill="#E8E8E8"/>
<path d="M65.1 871.5C102.2 860.9 139.8 850.4 178.4 847.2C197.8 845.6 217.4 845.9 236.7 849.2C255.2 852.4 272.6 858.7 289.6 866.4C308.3 874.7 326.6 884 346.1 890.1C347.9 890.7 348.7 887.8 346.9 887.2C310.7 875.8 278.6 854.2 241.1 847C203.9 839.8 165.7 844 129 851.8C107.2 856.5 85.7 862.5 64.3 868.6C62.5 869.1 63.3 872 65.1 871.5Z" fill="#E8E8E8"/>
<path d="M295.1 864.2C324 860.7 352.7 858.1 381.7 861.5C410.3 864.9 438.2 873.1 464.2 885.5C465.9 886.3 467.5 883.7 465.7 882.9C440.3 870.8 413.2 862.6 385.3 859C355.1 855 325.2 857.6 295.1 861.2C293.2 861.4 293.2 864.4 295.1 864.2Z" fill="#E8E8E8"/>
<path d="M422.5 884.6C436.9 888.8 451.2 893.2 465.6 897.1C478 900.4 490.9 902.5 503.4 898.2C505.2 897.6 504.4 894.7 502.6 895.3C489.5 899.9 475.9 896.9 462.9 893.2C449.7 889.5 436.5 885.5 423.3 881.7C421.5 881.2 420.7 884.1 422.5 884.6Z" fill="#E8E8E8"/>
<path d="M300.5 891.2C331.8 892.7 361.2 912.6 393 905.4C394.9 905 394.1 902.1 392.2 902.5C360.9 909.6 331.4 889.7 300.5 888.2C298.6 888.1 298.6 891.1 300.5 891.2Z" fill="#E8E8E8"/>
<path d="M20.3 897.6C43.6 891 66.9 884.4 90.2 877.8C92.1 877.3 91.3 874.4 89.4 874.9C66.1 881.5 42.8 888.1 19.5 894.7C17.6 895.2 18.4 898.1 20.3 897.6Z" fill="#E8E8E8"/>
<path d="M81.6 891.9C102.9 886.2 124.5 881.4 146.2 877.6C148.1 877.3 147.3 874.4 145.4 874.7C123.7 878.6 102.1 883.3 80.8 889C78.9 889.6 79.7 892.4 81.6 891.9Z" fill="#E8E8E8"/>
<path d="M535.2 806.8C612.6 806.8 690 806.8 767.5 806.8C773.3 806.8 773.3 797.8 767.5 797.8C690.1 797.8 612.7 797.8 535.2 797.8C529.4 797.8 529.4 806.8 535.2 806.8Z" fill="#161616"/>
<path d="M797.1 808.5C813 808.5 828.9 808.5 844.9 808.5C850.7 808.5 850.7 799.5 844.9 799.5C829 799.5 813.1 799.5 797.1 799.5C791.3 799.5 791.3 808.5 797.1 808.5Z" fill="#161616"/>
<path d="M876.1 806.8C883.2 806.8 890.4 806.8 897.5 806.8C903.3 806.8 903.3 797.8 897.5 797.8C890.4 797.8 883.2 797.8 876.1 797.8C870.3 797.8 870.3 806.8 876.1 806.8Z" fill="#161616"/>
<path d="M864.6 880.9C936.8 880.9 1009.1 880.9 1081.3 880.9C1101.8 880.9 1122.4 880.9 1142.9 880.9C1148.7 880.9 1148.7 871.9 1142.9 871.9C1070.7 871.9 998.4 871.9 926.2 871.9C905.7 871.9 885.1 871.9 864.6 871.9C858.8 871.9 858.8 880.9 864.6 880.9Z" fill="#161616"/>
<path d="M1166 879.3C1181.4 879.3 1196.7 879.3 1212.1 879.3C1217.9 879.3 1217.9 870.3 1212.1 870.3C1196.7 870.3 1181.4 870.3 1166 870.3C1160.2 870.3 1160.2 879.3 1166 879.3Z" fill="#161616"/>
<path d="M1235.2 880.9C1241.2 880.9 1247.3 880.9 1253.3 880.9C1259.1 880.9 1259.1 871.9 1253.3 871.9C1247.3 871.9 1241.2 871.9 1235.2 871.9C1229.4 871.9 1229.4 880.9 1235.2 880.9Z" fill="#161616"/>
<path d="M214.1 31.7C219.1 34.4 223.7 37.7 227.9 41.6C229.3 42.9 231.4 40.8 230 39.5C225.7 35.4 220.9 32 215.6 29.2C213.9 28.2 212.4 30.8 214.1 31.7Z" fill="#161616"/>
<path d="M234.3 24.6001C232.4 20.3001 230.5 16.1001 228.6 11.8001C227.8 10.0001 225.2 11.6001 226 13.3001C227.9 17.6001 229.8 21.8001 231.7 26.1001C232.5 27.9001 235.1 26.4001 234.3 24.6001Z" fill="#161616"/>
<path d="M247.2 17.7C245.4 12.4 244.8 7.09995 245.6 1.49995C245.8 -0.400049 242.8 -0.400049 242.6 1.49995C241.9 7.29995 242.4 13 244.4 18.5C244.9 20.2999 247.8 19.5 247.2 17.7Z" fill="#161616"/>
<path d="M589.7 75.2C593.4 76.9 597.5 77 601.2 74.9C606.3 72 606.5 67.1 607.7 61.9C608.1 60 608.7 57.7 610.2 56.4C613.3 53.7 614.4 55.6 616.9 56.3C618.5 56.7 620 56.8 621.5 56.1C624.4 54.8 631.6 41.1 634.9 45.6C636.1 47.1 638.7 45.6 637.5 44.1C635.1 41 631.7 41.3 628.6 43.4C626.5 44.8 625.5 46.8 624.2 48.8C623.5 50 622.6 51.6 621.5 52.5C618.4 54.8 617.2 52.8 614.5 52.3C610.3 51.5 607.1 54.3 605.6 58.1C604.3 61.2 604.6 64.7 603.4 67.9C601.4 72.8 596 75 591.2 72.7C589.4 71.8 587.9 74.4 589.7 75.2Z" fill="#161616"/>
<path d="M604.7 84.7999C608 87.2 611.8 85.5999 614.3 82.7999C618.7 77.5999 615.6 68.7999 622.5 65.5C627.6 63 633.5 64.1 638.4 60.6C642.7 57.5 645 52.7 645.4 47.5C645.5 45.6 642.5 45.6 642.4 47.5C642 53.6 638 58.6 632.1 60.3C628.3 61.4 624.1 61.2 620.6 63C617.7 64.5 616 67.1 615.2 70.2C614.6 72.3 614.5 74.6 614 76.7C613.2 79.7 610.2 85.1 606.3 82.2C604.7 81.1 603.2 83.7 604.7 84.7999Z" fill="#161616"/>
<path d="M616.4 693.9C626 702.1 635.8 710.3 645.8 718.5C655.4 726.4 665 734.2 674.5 741.7C678.8 754.9 676.9 762.8 674.2 767.5C669.5 775.8 661.9 775.9 649.4 787.9C643 794 635.6 801.2 637 805.4C638.7 810.5 653.7 812.9 707 803.9C718 781.1 729 758.3 740 735.5C715.9 710.5 691.7 685.4 667.6 660.4C650.5 671.6 633.5 682.8 616.4 693.9Z" fill="#191919"/>
<path d="M508.2 457.4C497.3 483.7 508.6 512.9 526.4 558.6C533.8 577.6 541.5 591.9 545.5 599.2C553.4 613.7 558 620 590.3 665.5C616 701.7 618.5 705.4 626 707.8C651.8 716.1 693.6 694.9 694 667.2C694.3 647.8 674.1 633.8 670.8 631.5C658.5 614.2 650.8 598.4 645.9 586.7C637.4 566.2 628.3 544.4 630.1 517C631.7 493.4 639.6 492 639.2 471.4C639.1 468.2 637.9 429.7 614.3 414.2C583.5 394.1 524 419.4 508.2 457.4Z" fill="white" stroke="#191919" stroke-width="2"/>
<path opacity="0.47" d="M637.9 461.9C639.5 466.3 638.2 474.6 635.6 491.1C632.7 509.5 630.6 510.6 629.6 520.3C627.9 536.5 632 548.6 639.8 571.7C641.9 577.8 646.3 587.5 655.1 606.9C661.2 620.3 664.2 626.3 670.9 631.9C676.3 636.4 678.5 636.2 682.9 640.7C689.2 647.2 693.4 656.9 693.6 665.7C694 685.6 674.5 701.6 657.5 706.9C642.5 711.6 629.2 708 623.2 706C611.4 692 595.1 671.8 577.3 646.2C554.2 613 541.3 594.6 531.4 568.8C519.4 537.6 500.3 487.9 524.9 459.4C554 425.9 629.5 439.3 637.9 461.9Z" fill="#6C6D6D"/>
<path opacity="0.37" d="M572.1 505C584.4 514.7 582.5 531.4 585.1 556C588.1 584.3 595.7 610.7 603.2 627.4C624.7 675.4 666.8 692 660.7 703.9C657.3 710.5 640.9 712.1 629.2 708.5C624.9 707.2 621.6 705.3 619.5 703.9C601 679.9 586.7 659.4 576.9 645C526.5 571.2 521.2 547.1 525.5 527.3C526.7 521.8 529.8 507.3 541.7 501.4C551.2 496.5 564 498.6 572.1 505Z" fill="#6C6D6D"/>
<path opacity="0.47" d="M604.4 503.9C597.4 518.9 589.7 529.1 584.2 535.6C570.5 551.6 560 556 552.5 571.2C547.3 581.9 546.4 592.1 546.3 598.5C543.2 593.6 540.1 588.3 537.1 582.7C530.4 570 525.4 558 521.7 547.1C549.3 532.7 576.8 518.3 604.4 503.9Z" fill="#6C6D6D"/>
<path d="M422.8 685.4C432.4 693.6 442.2 701.8 452.2 710C461.8 717.9 471.4 725.7 480.9 733.2C477.7 736.8 472.7 742.3 466.6 748.9C455.3 761 452.3 763.5 448.8 769.4C447.1 772.3 437.7 788.4 442.7 794.7C449.3 803 479.6 791.5 499.4 779C511.5 771.3 530.9 756.1 546.5 727.1C522.4 702.1 498.2 677 474.1 652C456.9 663.1 439.8 674.3 422.8 685.4Z" fill="#191919"/>
<path d="M512.4 447.1C496.4 457 483.5 466.8 439.4 507.1C367.9 572.3 361.1 583.6 359 599.1C355.5 624.8 366.1 652.9 385.5 670.7C390.3 675.1 409.8 692.9 436.7 690.5C459.2 688.5 489.2 672.2 487.9 649.7C487.1 635 473.1 621.3 454.3 614.8C492.9 579.6 528.2 557.6 554.3 543.7C587 526.3 607.8 520.2 617.2 498.3C628.8 471.2 618.5 430.7 594.5 419.2C573.5 409.2 548.9 424.5 512.4 447.1Z" fill="white" stroke="#191919" stroke-width="2"/>
<path opacity="0.42" d="M561.9 436C561.9 454.5 558.9 479.3 544.5 502.5C511.5 555.3 450.9 552.1 435.5 599.7C433.7 605.4 427.2 631.7 440.2 646.3C447.4 654.3 458.6 656.6 461.7 667.4C463.5 673.6 461.7 679.6 459.9 683.8C473.8 680.7 484.5 670 486.8 656.9C490.4 636.2 470.5 622.8 469 621.8C462.7 617.7 456.5 616.4 452.6 615.9C496.1 574.8 535.2 551.5 564.2 537.6C584.2 528 608.4 518.4 617.9 494.8C625.9 474.8 619.9 453.5 613.8 439.3C596.5 438.1 579.2 437.1 561.9 436Z" fill="#6C6D6D"/>
<path opacity="0.5" d="M581.5 462C583.2 471.3 584.4 485.3 578.8 499.8C569.4 524.1 547 533.6 522.8 549.9C505.3 561.6 481.3 580.7 456.3 611.4C463.7 605.4 474 597.3 486.6 588.1C510.2 570.9 523.3 561.4 542.4 551.2C570.8 536.2 585 528.7 585.8 528.3C589 526.9 595.8 524 602.7 517.6C604.7 515.7 610.5 510.1 615.1 500.3C616.8 496.6 630.8 467.5 618.7 457C611.3 450.4 595.6 452.5 581.5 462Z" fill="#6C6D6D"/>
<path d="M532.4 186.5C544.3 184.1 562.4 181.8 584.2 184C603.1 185.9 637.8 189.3 664.9 215.4C672.1 222.4 684.9 235 689.5 255.3C695.2 280.5 685.1 302.1 681 309.7C664.4 340.5 638.4 340.4 626.6 369.2C625.5 371.9 622.3 380.1 614.7 387.9C606.4 396.3 594.8 402.1 592.6 399.8C591.6 398.7 592.1 395.6 598.5 386.2C596.9 387.2 590.3 391.4 582.4 389.6C571.5 387.2 564.2 375 566.3 366.7C566.8 364.6 568.2 361.4 585 351.4C592.7 346.8 596.6 344.5 603.7 341.2C622 332.7 655.2 303.7 650.4 276.6C647.6 261 632.8 249.3 620.7 244.3C596.6 234.5 580.9 250.5 562.1 242.6C551.1 237.9 538.3 224.8 532.4 186.5Z" fill="white" stroke="#191919" stroke-width="2"/>
<path opacity="0.29" d="M542.2 202.8C551.7 202.8 565.9 203.6 582.6 207.2C605.4 212.2 625.6 218.6 644.4 235.6C660.2 249.9 663.1 270.2 664 276.5C664.8 282.3 667.7 302.2 656.9 320.5C650 332.1 643.1 333.9 621.8 351.6C611 360.6 607 369.9 593.8 377.4C580.6 384.9 575.4 382.7 573.8 381.8C566.6 378 566.3 366.9 566.2 365.4C568.6 363.1 572.4 359.7 577.3 356.1C593.5 344.1 600.8 344.7 614.6 336.1C620 332.7 636.3 322.2 645.3 302.8C647.9 297.2 651.4 289.2 650.2 278.8C648.9 267.8 643 260.5 640.9 257.9C628.3 242.7 608.8 240.5 604.9 240.1C584.2 238.2 575.4 249 561.3 241.9C555.1 238.8 551.5 234 549.7 231.7C541 219.9 541.8 206.6 542.2 202.8Z" fill="#6C6D6D"/>
<path opacity="0.24" d="M554.7 235.7C555.2 229.9 578.1 226.9 593.8 226.8C609.5 226.7 627.2 226.6 641.4 239.2C649.6 246.4 652.8 254.5 653.4 256.1C662.4 279.3 646.4 302 644.5 304.5C646.6 301.3 653.4 290.1 650.7 276.1C648 261.6 637 253.7 631.6 249.9C628.4 247.6 617.7 240.2 602.7 239.7C585.6 239.2 578.1 248.2 564.5 243.3C563.9 243 554.4 239.5 554.7 235.7Z" fill="#6C6D6D"/>
<path d="M268.6 117C265.1 111.2 260.9 102.8 257.8 92.1C248.6 59.7 257 27.1 260.8 27.2C262.3 27.2 264.2 32.3 266.1 53.6C268.2 46.3 269.3 40.3 270 36C270.7 31.5 271.1 27.8 273.7 24C275.7 21 278.3 19.1 280.2 18C281.9 16.5 283.6 14.9 285.3 13.4C287.1 14.9 288.6 16.4 289.9 18C303.5 34.6 296.2 60 294.2 66.3C296.5 64.8 299.4 62.5 302 59.1C306.7 53.1 306.9 48.2 308 48.3C310.1 48.5 312.7 66 306.5 83.5C304.6 88.9 302.3 93.1 300.5 96C300.1 106 299.9 140.8 324.7 172.8C327 175.7 362.1 219.8 409.2 217.6C439.9 216.2 450.4 196.9 470.8 204.8C486.6 210.9 498.1 229.3 498.5 248.4C499 268.3 487.4 286.8 469.1 295.4C456 296.5 436.8 296.9 414.2 293.3C388.5 289.2 335 280.6 304.5 239.1C291.1 220.8 284.9 199.9 282.4 189.1C282 187.3 281.7 186 281.2 183.6C278.1 169.1 273.9 147.6 268.6 117Z" fill="white" stroke="#191919" stroke-width="2"/>
<path d="M279.4 25.7C281.3 25.7 281.3 22.7 279.4 22.7C277.5 22.7 277.5 25.7 279.4 25.7Z" fill="#161616"/>
<path d="M279.7 18.4C276.8 29.8 275.2 41.3 275.1 53C275.1 54.4 277.3 54.4 277.4 53C277.5 41.5 279 30.1 281.9 19C282.2 17.6 280 17 279.7 18.4Z" fill="#161616"/>
<path d="M288.5 18.4C286.3 29.3 285 40.3 284.9 51.4C284.9 52.8 287.1 52.8 287.2 51.4C287.4 40.5 288.5 29.7 290.7 19C290.9 17.5 288.8 16.9 288.5 18.4Z" fill="#161616"/>
<path opacity="0.24" d="M258 36.6C260 36.7 258.9 56.7 263.3 82.2C268.5 112.5 279.5 133.9 285.8 149.7C297 177.9 318.8 232.6 368.6 256.9C419.4 281.8 474.1 262.4 491.1 255.6C491.6 258.7 492.3 266.8 488.2 275.6C484.4 283.8 478.5 288.4 475.8 290.1C471.1 292 464.1 294.4 455.3 295.7C441.6 297.7 430.8 295.8 421.5 294C390 287.8 374.2 284.8 359.5 278.2C344.2 271.4 324.6 262.6 308.2 243.1C292.2 224.2 287.3 204.8 278.7 170.4C273.3 148.9 270.7 130.7 269.3 117.8C263.6 108.3 256.3 93.2 254.3 73.7C252.3 54.7 256.1 36.6 258 36.6Z" fill="#6C6D6D"/>
<path opacity="0.4" d="M273.1 24.6C274.3 23.5 275.5 22.4 276.8 21.3C270.7 44.9 267.4 56.7 266.9 56.6C266.4 56.4 268.4 45.8 273.1 24.6Z" fill="#6C6D6D"/>
<path opacity="0.44" d="M364.9 280.7C377.5 284.1 395.4 287.4 416.9 286.2C451.5 284.3 477.5 271.8 491.3 263.8C490.9 267 489.5 275.6 482.6 283.5C474.7 292.6 464.8 294.8 461.7 295.3C452.1 295.6 441.7 295.4 430.6 294.5C404.7 292.3 382.5 286.7 364.9 280.7Z" fill="#6C6D6D"/>
<path d="M517 323.4C547.1 306.8 595.3 282.7 657.5 262.7C754 231.7 808.9 234.8 903.4 214.8C955.7 203.8 1031.8 183.2 1122.1 141.4C1122.3 152.2 1122.8 163.3 1123.7 174.9C1125.6 200.4 1129.1 223.9 1133.3 245.2C1124.3 260.6 1115.2 276.1 1106.2 291.5C1108.9 318.1 1111.5 344.7 1114.2 371.3C1060.1 372.5 1004.7 374.5 948.1 377.7C808.7 385.5 676.5 398.8 552.1 416C540.4 385.2 528.7 354.3 517 323.4Z" fill="#AF4545"/>
<g opacity="0.28">
<path d="M632.5 283.4C709.5 261.1 789.2 249.1 869.3 247.6C871.2 247.6 871.2 244.6 869.3 244.6C788.9 246.1 708.9 258.2 631.7 280.5C629.8 281 630.6 283.9 632.5 283.4Z" fill="#681225"/>
</g>
<g opacity="0.28">
<path d="M842.5 264.4C913 246.6 989.4 263.4 1057.2 233.5C1059 232.7 1057.4 230.1 1055.7 230.9C988.2 260.7 911.8 243.8 841.7 261.5C839.8 262 840.6 264.9 842.5 264.4Z" fill="#681225"/>
</g>
<g opacity="0.28">
<path d="M984.9 284C1019.3 276.4 1054.8 274.9 1089.8 279.8C1091.7 280.1 1092.5 277.2 1090.6 276.9C1055.1 271.9 1019.1 273.3 984.1 281.1C982.2 281.5 983 284.4 984.9 284Z" fill="#681225"/>
</g>
<path d="M464.6 203.2C469.5 206.3 477.7 212.3 484 222.6C492.9 237.1 499.8 263.1 485.7 281C478.1 290.6 467.2 294.5 459.7 296C464.9 312.6 469.8 330.8 473.7 350.4C483 396.4 485 437.9 483.9 472.4C505.1 476.1 534 478.9 568.1 475.6C598.7 472.6 624.1 465.6 643.1 458.9C638.3 374.2 618.4 311.3 602.2 271.4C597.6 260.1 562.9 176 532.5 180C523.7 181.1 519 189.1 498.4 196.4C484.7 201.2 472.6 202.7 464.6 203.2Z" fill="white" stroke="#191919" stroke-width="2"/>
<path opacity="0.36" d="M509.6 193.7C519.4 204.8 533.1 222.1 545.3 245.6C576.9 306.2 575.6 363.2 574.1 384.8C571.5 422 561.3 453.1 550.6 476.3C565 475 580.7 472.9 597.5 469.7C613.8 466.6 628.8 462.9 642.3 459C641.4 443.7 639.4 420 634.8 391.4C623.9 323.6 605.9 277.3 588.7 243.5C560.2 187.8 539.8 178.3 533 180.7C531.9 181.1 526.9 183.3 521.3 186.4C516.3 189.1 512.4 191.7 509.6 193.7Z" fill="#6C6D6D"/>
<path opacity="0.49" d="M577 225.3C581.1 257.6 585.6 284 589 302.2C601 366.7 610.7 392.3 601.2 427.9C596 447.5 587 462.3 580.3 471.7C588.3 471.2 597.4 470.2 607.2 468.2C621.1 465.4 633 461.3 642.6 457.2C640.6 394.9 627.9 321.5 590.1 248.7C585.9 240.6 581.5 232.8 577 225.3Z" fill="#6C6D6D"/>
<path d="M466.7 326.4C465.1 342.1 464.4 360.1 465.4 379.9C467 410.5 472.3 436.7 478.1 457.6C489.4 457.1 506.2 456.7 526.5 457.6C570.1 459.5 591.8 465.6 611.9 467.8C672.5 474.6 690.9 443.5 758.5 433.4C788.1 429 833.2 427.7 892.3 447.4C934.4 470.3 976.4 493.3 1018.5 516.2C1022.4 508.1 1032.7 489.7 1054.2 476.7C1084.6 458.2 1115.6 463.7 1123 465.2C1117 449.6 1107.5 418.3 1115.4 381.1C1118.2 368 1122.5 356.9 1126.9 348C1102.3 337.7 1067.6 324.7 1024.9 313.6C950.8 294.2 893.2 291 835 288.1C724.1 282.5 640.9 292.8 618.3 295.7C556.9 303.9 505.4 315.8 466.7 326.4Z" fill="#EC615B"/>
<path opacity="0.25" d="M760.7 371C760.7 371.3 844.4 382.8 928 395.5C960.9 400.5 994.7 405.9 1033.8 426C1059.1 439 1077.9 453.7 1090.4 464.7C1094.8 463.4 1101.2 462 1109 462.5C1113.8 462.8 1117.9 463.6 1121.2 464.6C1118 455.5 1114.8 444.2 1112.8 430.9C1110.9 418.4 1110.6 407.3 1110.9 398.1C831.4 376 760.7 370.7 760.7 371Z" fill="#681225"/>
<path opacity="0.28" d="M465.8 366.8C472.5 377.5 479.8 383.3 485 386.5C502.5 397.4 518.4 393.3 561.6 398.7C570.1 399.8 577 400.9 581.3 401.6C544 405.3 506.6 409 469.3 412.6C468.4 406 467.6 399 467 391.7C466.3 383 465.9 374.6 465.8 366.8Z" fill="#681225"/>
<g opacity="0.28">
<path d="M597.3 403C627 405.3 656.9 402.8 685.8 395.5C687.7 395 686.9 392.1 685 392.6C656.3 399.8 626.8 402.3 597.3 400C595.4 399.8 595.4 402.8 597.3 403Z" fill="#681225"/>
</g>
<g opacity="0.28">
<path d="M713.8 396.1C747.1 393.8 780.5 395.3 813.5 400.6C815.4 400.9 816.2 398 814.3 397.7C781.1 392.3 747.4 390.8 713.8 393.1C711.8 393.3 711.8 396.3 713.8 396.1Z" fill="#681225"/>
</g>
<g opacity="0.28">
<path d="M680.1 354.3C744.1 343.2 809.9 345.2 873.1 360.2C875 360.6 875.8 357.8 873.9 357.3C810.2 342.2 743.8 340.3 679.3 351.4C677.4 351.7 678.2 354.6 680.1 354.3Z" fill="#681225"/>
</g>
<g opacity="0.28">
<path d="M946.2 493.5C969 503.5 989.5 518 1006.4 536.2C1007.7 537.6 1009.8 535.5 1008.5 534.1C991.4 515.7 970.7 501 947.7 490.9C945.9 490.1 944.4 492.7 946.2 493.5Z" fill="#681225"/>
</g>
<path d="M508.9 107.6C516.3 132 519 146.1 529.5 168.4C534.4 178.8 539.1 187.1 542.4 192.5C531.7 197.5 514.3 203.9 492 204.7C478.8 205.2 467.5 203.5 458.8 201.6C459.7 194.9 460.2 186.6 459.5 177.1C458.6 165.2 456.1 155.2 453.6 147.8C441.7 146.3 429.8 144.8 417.9 143.3C415.6 138.2 413.2 133.1 410.9 127.9C407.6 127.8 404.4 127.7 401.1 127.6C403.6 120.6 407.3 109.5 411.6 95.8C419.6 70 419.5 66.3 423.8 60.5C435.7 44.6 462.6 34.5 480.1 43C490.7 48.1 496.9 68 508.9 107.6Z" fill="white" stroke="#161616" stroke-width="2"/>
<path d="M401.5 129.2C407.6 129.3 413.7 128.9 419.7 128C421.6 127.7 420.8 124.8 418.9 125.1C413.1 126 407.3 126.3 401.5 126.2C399.6 126.2 399.6 129.2 401.5 129.2Z" fill="#161616"/>
<path d="M399 82.9C402.6 81 407.3 81.9 409.8 85.3C410.9 86.8 413.5 85.3 412.4 83.8C409 79.1 402.7 77.6 397.5 80.3C395.8 81.2 397.3 83.8 399 82.9Z" fill="#161616"/>
<path d="M403.1 97.5C402.8 96.4 402.8 95.3 403.1 94.2C403.3 93.7 403.5 93.1 403.8 92.7C404 92.4 404.2 92.2 404.4 92C404.2 92 404.1 92.1 404.1 92.4C404.1 94.5 403.2 96.3 401.6 97.7C402.5 98.1 403.3 98.4 404.2 98.8C404.2 96.9 404.6 95.1 405.5 93.4C406.4 91.7 403.8 90.2 402.9 91.9C401.8 94.1 401.2 96.4 401.2 98.9C401.2 100.3 402.8 100.8 403.8 100C405.4 98.6 406.6 96.7 407 94.6C407.3 92.8 407.5 90.1 405.5 89.3C403.6 88.6 401.8 90.3 401 91.8C399.9 93.9 399.7 96.2 400.3 98.5C400.6 100.2 403.5 99.4 403.1 97.5Z" fill="#161616"/>
<path d="M428.1 87.2C432.7 85.8 437.6 87.3 440.4 91.3C441.5 92.9 444.1 91.4 443 89.8C439.5 84.8 433.2 82.5 427.3 84.3C425.5 84.8 426.3 87.7 428.1 87.2Z" fill="#161616"/>
<path d="M428.7 101C428.6 99.6001 428.8 98.2001 429.6 97.0001C429.8 96.7001 430 96.4001 430.3 96.1001C430.2 95.7001 430.2 95.7001 430.2 96.1001C430.1 96.7001 430.1 97.4001 430 98.1001C429.9 98.7001 429.7 99.4001 429.4 100C429.3 100.3 429.2 100.5 429 100.7C429.3 101.4 429.5 101.4 429.7 100.7C430.2 100.2 430.5 99.1001 430.8 98.5001C431.2 97.8001 431.5 97.1001 431.9 96.3001C432.7 94.8001 430.8 93.3001 429.5 94.5001C428.7 95.3001 428.2 96.1001 427.9 97.2001C427.4 99.1001 430.2 99.8001 430.8 98.0001C431 97.4001 431.2 97.1001 431.7 96.6001C430.9 96.0001 430.1 95.4001 429.3 94.8001C428.4 96.5001 427.4 98.2001 426.7 100C426.2 101.2 426.3 102.6 427.5 103.3C430.5 105.3 432.5 101.1 433 98.8001C433.5 96.6001 433.6 91.8001 429.9 92.8001C426.9 93.7001 425.7 98.2001 425.9 100.9C425.8 102.9 428.8 102.9 428.7 101Z" fill="#161616"/>
<path d="M419.6 66.9C420.4 61.6 422.5 53 428.4 44.1C430.5 41 434.8 34.3 441.9 29.8C455.3 21.2 475.9 21.9 490.9 32.4C505.5 42.7 512.8 61.2 509.7 79.5C479.6 75.3 449.6 71.1 419.6 66.9Z" fill="#5222D0"/>
<path d="M370.5 66.3C416.7 72 462.9 77.7 509.1 83.4C514.8 84.1 514.8 75.1 509.1 74.4C462.9 68.7 416.7 63 370.5 57.3C364.7 56.6 364.8 65.6 370.5 66.3Z" fill="#161616"/>
<path d="M479.6 78.3C471.4 81.2 466.7 86.7 461.2 93.3C449.6 107.1 453 112.2 444.9 120.8C431.9 134.5 418.7 126.4 407.1 139.8C397.3 151.2 398.5 166.6 398.9 170C399.3 173.4 401 187.1 412.5 196.5C422.4 204.6 435.8 206.5 436.7 204.7C437 204 435.9 202.4 428.5 197.6C430.7 199.1 434 200.9 438.4 201.7C443.4 202.6 448.2 201.7 448.3 201C448.3 200.5 445.6 200.5 443.5 198.3C442.3 197 441.7 195.5 441.5 194.2C445.5 196.8 450.6 199 455.5 197.6C468.7 193.7 471.1 165 471.8 155.5C474.3 124.7 465.3 107.9 476.2 97.1C477.1 96.2 481.6 91.8 486.4 92.7C492.6 93.8 497.3 103.2 495.2 109.4C493.5 114.7 487.3 116.2 487.7 117.2C488.3 118.5 498.7 116.5 507.4 109.7C510.6 107.2 513.2 105.2 514.5 101.5C516.9 95.1 514.1 87.8 510.4 83.5C502.9 74.5 488.5 75.1 479.6 78.3Z" fill="#161616" stroke="#161616" stroke-width="2"/>
<path opacity="0.22" d="M491.9 118C489.9 118.2 487.1 118.3 487 117.6C486.9 117.3 487.6 116.8 487.6 116.8C487.6 116.8 485.2 119.7 482.3 120.1C480.9 120.3 479.7 119.8 478.9 119.4C484.1 130.2 489.4 143.2 493.9 158.1C498.9 174.5 501.7 189.5 503.3 202.3C508.7 202.3 516.2 201.7 524.7 199.1C531.7 196.9 537.3 194 541.4 191.5C530.2 174.4 524.6 160.7 521.5 151.4C520 147 516.9 136.7 515.3 131.7C512.4 122.5 510.2 114.9 508.6 109.7C507.8 110.4 506.5 111.5 504.9 112.6C502.6 114.2 498 117.3 491.9 118Z" fill="#6D6C6C"/>
<path d="M458.7 24.4C470.7 26.7 479.7 36.1 481.1 47.2C482.7 60.4 472.8 69.4 471.9 70.2C484.7 71.7 497.4 73.3 510.2 74.8C510.4 71.9 510.5 67.9 509.7 63.3C507.3 48.5 498.4 39.4 496.5 37.5C493.6 34.5 483 24.8 467.4 23.9C463.8 23.8 460.8 24.1 458.7 24.4Z" fill="#321693"/>
</svg>
