<svg width="1399" height="829" viewBox="0 0 1399 829" fill="none" xmlns="http://www.w3.org/2000/svg">
<path d="M1263.6 741.1C1256.8 732.6 1251.7 723 1247.4 713.1C1245.3 708.2 1243.3 703.1 1241.4 698.1C1240.5 695.7 1239.5 693.4 1238.8 691C1238 688.5 1237.7 687.2 1238.9 684.8C1238.9 683.1 1239.6 682.4 1240.9 682.6C1242 682.3 1242.7 682.8 1243.1 684.1C1244.1 684 1245.1 683.8 1246 683.7C1240 665.6 1236.1 646.9 1234.4 628C1233.6 618.8 1233.3 609.5 1233.5 600.2C1233.6 595.9 1233.8 591.6 1234.2 587.2C1234.3 585.5 1234.1 580.7 1235.1 579.3C1236.2 579 1237.2 578.7 1238.3 578.5C1240.1 577 1241.5 577 1242.4 578.6C1243.5 579.5 1244.2 581.1 1244.9 582.3C1263.2 612.7 1275.4 647 1281.3 681.9C1284.7 702 1286 722.3 1285.1 742.7C1285 744.6 1288 744.6 1288.1 742.7C1289.7 702.2 1283 661.5 1268.3 623.7C1264.6 614.3 1260.5 605.1 1255.9 596.1C1253.8 591.9 1251.5 587.8 1249.2 583.8C1247.3 580.5 1245.4 576.5 1242.2 574.3C1236 570.1 1232.4 576.1 1231.7 581.6C1230.4 592 1230.2 602.6 1230.5 613.1C1231.2 637.4 1235.4 661.4 1243 684.4C1243.5 686 1246 685.8 1245.9 684C1245.9 680 1241.4 678.3 1238 680C1232 682.9 1235.4 691.2 1237 695.6C1243.2 712.4 1249.9 729 1261.2 743.1C1262.7 744.8 1264.8 742.6 1263.6 741.1Z" fill="#E8E8E8"/>
<path d="M1281.2 666.3C1282 653 1283.7 639.8 1286.6 626.7C1288 620.6 1289.5 614.5 1291.4 608.5C1292.3 605.5 1293.3 602.5 1294.3 599.6C1294.8 598.1 1295.3 596.6 1295.9 595.2C1296.1 594.6 1296.3 594 1296.6 593.4C1297 591.3 1298.4 590.1 1300.7 589.7C1300.5 591.4 1303.2 591.7 1303.6 590.1C1305.6 583.5 1321.8 541 1331.7 548.3C1334.6 550.4 1335.4 555.3 1335.9 558.6C1336.7 563.2 1337.4 567.9 1337.9 572.5C1338.8 580.4 1339.4 588.3 1339.6 596.3C1340.5 628.8 1335.6 661.5 1325.2 692.4C1319.2 710.1 1311.4 727 1302 743.1C1301 744.8 1303.6 746.3 1304.6 744.6C1323.5 712.4 1335.6 676.6 1340.4 639.7C1342.8 621.1 1343.4 602.3 1342 583.6C1341.3 574.7 1340.3 565.8 1338.7 557C1337.8 552.2 1335.6 545.1 1329.9 544.2C1322.4 543 1316.6 555.4 1313.6 560.4C1308.1 569.5 1303.9 579.2 1300.8 589.3C1301.8 589.4 1302.8 589.6 1303.7 589.7C1304.3 584.9 1298.3 584.6 1295.9 587.7C1294.1 590 1293.3 593.4 1292.4 596.1C1290.7 600.8 1289.2 605.6 1287.8 610.4C1282.5 628.6 1279.4 647.3 1278.3 666.2C1278.1 668.2 1281.1 668.2 1281.2 666.3Z" fill="#E8E8E8"/>
<path d="M1234.2 578.2C1256 629.1 1269.7 683.2 1274.7 738.3C1274.9 740.2 1277.9 740.2 1277.7 738.3C1272.6 682.6 1258.8 628.1 1236.8 576.6C1236 574.9 1233.4 576.5 1234.2 578.2Z" fill="#E8E8E8"/>
<path d="M1233.6 644.1C1244 649.3 1253.6 655.8 1262.3 663.4C1263.7 664.7 1265.9 662.6 1264.4 661.3C1255.4 653.5 1245.7 646.9 1235 641.5C1233.4 640.7 1231.8 643.3 1233.6 644.1Z" fill="#E8E8E8"/>
<path d="M1261.4 614.8C1258.6 620.3 1256.5 626.1 1255.2 632.2C1254.8 634.1 1257.7 634.9 1258.1 633C1259.4 627.2 1261.3 621.6 1264 616.3C1264.9 614.6 1262.3 613.1 1261.4 614.8Z" fill="#E8E8E8"/>
<path d="M1326.8 550.6C1320.3 608.7 1313.2 668.7 1284.9 720.9C1284 722.6 1286.6 724.1 1287.5 722.4C1316.1 669.7 1323.2 609.3 1329.8 550.6C1330 548.7 1327 548.7 1326.8 550.6Z" fill="#E8E8E8"/>
<path d="M1289.4 607.5C1297.4 626.3 1303.3 645.8 1307.2 665.8C1307.6 667.7 1310.5 666.9 1310.1 665C1306.1 644.7 1300 625 1292 606C1291.2 604.2 1288.7 605.7 1289.4 607.5Z" fill="#E8E8E8"/>
<path d="M1319.5 622.6C1327 613.1 1334.5 603.6 1342 594.2C1343.2 592.7 1341.1 590.6 1339.9 592.1C1332.4 601.6 1324.9 611.1 1317.4 620.5C1316.2 621.9 1318.3 624.1 1319.5 622.6Z" fill="#E8E8E8"/>
<path d="M76.8004 727.8C70.3004 720.8 63.7004 713.6 58.4004 705.6C55.9004 701.7 53.6004 697.7 51.8004 693.4C50.8004 691 46.1004 678.2 52.6004 680.8C54.2004 681.4 54.9004 679.3 54.1004 678.3C47.5004 669.9 43.1004 660.1 39.3004 650.2C35.7004 640.8 32.2004 631.3 28.9004 621.8C25.3004 611.4 22.2004 600.7 21.0004 589.8C20.1004 581.2 19.2004 569.4 25.4004 562.3C34.5004 552 43.7004 569 48.0004 575.4C53.8004 584 59.5004 592.8 65.0004 601.6C75.9004 619.5 85.8004 638.1 93.1004 657.9C101.4 680.5 106 704.4 104.9 728.5C104.8 730.4 107.8 730.4 107.9 728.5C110.1 679.7 89.2004 634.2 63.7004 593.8C57.4004 583.9 51.1004 573.9 44.2004 564.4C40.3004 559.1 34.1004 553.6 27.1004 557.1C20.7004 560.2 18.3004 568.5 17.7004 575C16.6004 586.8 18.9004 598.8 22.1004 610.1C25.7004 622.9 30.6004 635.3 35.2004 647.7C39.5004 659.3 44.3004 670.6 52.0004 680.4C52.5004 679.6 53.0004 678.7 53.5004 677.9C50.9004 676.9 48.6004 677.2 46.4004 678.8C46.0004 679.1 45.6004 679.6 45.7004 680.1C47.9004 700.3 61.6004 715.8 74.8004 730C76.0004 731.4 78.1004 729.3 76.8004 727.8Z" fill="#E8E8E8"/>
<path d="M85 632.7C81.9 604.7 85.6 576.6 95.8 550.3C95 550.5 94.1 550.7 93.3 551C96.4 553.8 98.5 557 99.7 561C100.1 562.4 102.2 562.5 102.6 561C109.4 537.4 119.3 514.9 132.3 494C131.4 493.9 130.5 493.8 129.6 493.6C137.4 513.5 142.3 534.5 143.9 555.9C145.3 575.1 145.8 597.2 134.1 613.5C133.5 614.3 134.1 615.5 135 615.7C144 617.8 141.3 632 140.5 638.4C139.3 649 137.5 659.6 135.2 670C130.8 690.1 124.4 709.8 116.3 728.7C115.5 730.5 118.1 732 118.9 730.2C128.4 708.2 135.5 685.2 140 661.7C142 650.9 144.3 639.5 144.5 628.5C144.6 622.2 143 614.3 135.9 612.7C136.2 613.4 136.5 614.2 136.8 614.9C148.5 598.6 148.3 576.8 147.1 557.6C145.7 535.3 140.7 513.4 132.6 492.7C132.1 491.5 130.6 491.2 129.9 492.3C116.8 513.4 106.8 536.1 99.9 560C100.9 560 101.8 560 102.8 560C101.4 555.5 99.1 551.9 95.6 548.7C94.7 547.9 93.5 548.3 93.1 549.4C82.8 575.9 79.1 604.4 82.2 632.6C82.2 634.6 85.2 634.6 85 632.7Z" fill="#E8E8E8"/>
<path d="M26.5004 561.8C40.4004 589.3 54.6004 616.7 67.9004 644.5C80.9004 671.9 92.4004 700.2 98.6004 730C99.0004 731.9 101.9 731.1 101.5 729.2C95.3004 699.7 84.1004 671.8 71.2004 644.6C57.8004 616.2 43.2004 588.3 29.0004 560.2C28.2004 558.6 25.6004 560.1 26.5004 561.8Z" fill="#E8E8E8"/>
<path d="M130.201 497.8C128.101 527.5 118.901 555.9 112.101 584.7C105.301 613.5 100.601 642.8 98.0008 672.3C97.8008 674.2 100.801 674.2 101.001 672.3C103.701 641.8 108.701 611.5 115.901 581.8C122.701 554 131.101 526.5 133.201 497.8C133.301 495.8 130.301 495.8 130.201 497.8Z" fill="#E8E8E8"/>
<path d="M24.9009 619.1C40.0009 624.2 53.8009 632 66.1009 642.2C67.6009 643.4 69.7009 641.3 68.2009 640.1C55.5009 629.6 41.3009 621.6 25.7009 616.2C23.8009 615.5 23.0009 618.4 24.9009 619.1Z" fill="#E8E8E8"/>
<path d="M92.4004 552.7C95.8004 570.8 100.8 588.6 107.3 605.8C108 607.6 110.9 606.8 110.2 605C103.7 587.7 98.8004 570 95.3004 551.9C94.9004 550 92.1004 550.8 92.4004 552.7Z" fill="#E8E8E8"/>
<path d="M103.201 678.9C114.001 664.7 125.101 650.4 140.901 641.5C142.601 640.6 141.101 638 139.401 638.9C123.201 648.1 111.701 662.8 100.601 677.4C99.5007 678.9 102.101 680.4 103.201 678.9Z" fill="#E8E8E8"/>
<path d="M1143.2 746.5C1227.3 746.5 1311.5 746.5 1395.6 746.5C1399.5 746.5 1399.5 740.5 1395.6 740.5C1311.5 740.5 1227.3 740.5 1143.2 740.5C1139.3 740.5 1139.3 746.5 1143.2 746.5Z" fill="black"/>
<path d="M229.7 726.5C163.7 726.5 97.7004 726.5 31.7004 726.5C27.8004 726.5 27.8004 732.5 31.7004 732.5C97.7004 732.5 163.7 732.5 229.7 732.5C233.5 732.5 233.5 726.5 229.7 726.5Z" fill="black"/>
<path d="M901.9 795.3C993.1 795.3 1084.3 795.3 1175.5 795.3C1201.5 795.3 1227.4 795.3 1253.4 795.3C1257.3 795.3 1257.3 789.3 1253.4 789.3C1162.2 789.3 1071 789.3 979.8 789.3C953.8 789.3 927.9 789.3 901.9 789.3C898.1 789.3 898 795.3 901.9 795.3Z" fill="black"/>
<path d="M1117.8 748.1C826.8 742.3 535.8 736.5 244.8 730.7C192.7 729.7 156.3 678.8 172.1 629.2L351.8 63.7999C362 31.6999 391.8 9.69992 425.5 9.49992C694.8 7.59992 964.1 5.59992 1233.4 3.69992C1282.6 3.29992 1319.9 48.1999 1310.4 96.4999L1195.7 685.1C1188.6 722.3 1155.7 748.9 1117.8 748.1Z" fill="#EC615B" stroke="black" stroke-width="6"/>
<path d="M1112.2 743.2C821.2 737.7 530.2 732.3 239.2 726.8C187.1 725.8 150.7 677.8 166.5 631L346.2 97.3001C356.4 67.0001 386.2 46.3001 419.9 46.0001C689.2 44.2001 958.5 42.3001 1227.8 40.5001C1277 40.2001 1314.3 82.5001 1304.8 128.1L1190.1 683.8C1183 718.8 1150.1 743.9 1112.2 743.2Z" fill="white" stroke="black" stroke-width="6"/>
<path d="M1186.8 698.7C1177.2 719.8 1158.7 735.7 1136.4 741.9C1134.5 742.4 1135.3 745.3 1137.2 744.8C1160.2 738.4 1179.5 721.9 1189.4 700.2C1190.1 698.5 1187.6 696.9 1186.8 698.7Z" fill="black"/>
<path d="M433.2 31.5999C430.2 31.2999 429.1 28.0999 429.9 25.4999C431 22.1999 434.2 21.4999 437.2 22.9999C439.3 24.0999 440.4 26.6999 439.5 28.9999C438.5 31.4999 435.6 32.2999 433.2 31.3999C431.4 30.6999 430.6 33.5999 432.4 34.2999C436.3 35.7999 441.1 33.7999 442.5 29.6999C443.9 25.2999 441.1 20.9999 436.9 19.6999C432.2 18.2999 428.1 20.4999 426.9 25.3999C425.9 29.8999 428.7 34.0999 433.2 34.5999C435.1 34.7999 435.1 31.7999 433.2 31.5999Z" fill="black"/>
<path d="M429.7 29.1999C430.9 32.2999 435.3 33.2999 437.9 31.3999C439.6 30.0999 440.4 27.5999 439.6 25.3999C438.7 22.9999 436.1 21.5999 433.8 21.9999C430.6 22.5999 428.5 26.2999 429.7 29.1999Z" fill="white"/>
<path d="M467 30.7C464 30.4 462.9 27.2 463.7 24.6C464.8 21.3 468 20.6 471 22.1C473.1 23.2 474.2 25.8 473.3 28.1C472.3 30.6 469.4 31.4 467 30.5C465.2 29.8 464.4 32.7 466.2 33.4C470.1 34.9 474.9 32.9 476.3 28.8C477.7 24.4 474.9 20.1 470.7 18.8C466 17.4 461.9 19.6 460.7 24.5C459.7 29 462.5 33.2 467 33.7C468.9 33.9 468.9 30.9 467 30.7Z" fill="black"/>
<path fill-rule="evenodd" clip-rule="evenodd" d="M463.5 28.3C464.7 31.4 469.1 32.4 471.7 30.5C473.4 29.2 474.2 26.7 473.4 24.5C472.5 22.1 469.9 20.7 467.6 21.1C464.4 21.7 462.3 25.4 463.5 28.3Z" stroke="black"/>
<path d="M431.2 22.9998C432.6 26.0998 434.2 29.0998 436.1 31.9998C437.1 33.5998 439.7 32.0998 438.7 30.4998C436.9 27.5998 435.3 24.5998 433.8 21.4998C433 19.7998 430.4 21.2998 431.2 22.9998Z" fill="black"/>
<path d="M431.5 32.0001C432.9 30.8001 434.2 29.5001 435.6 28.3001C436.8 27.2001 438 25.9001 439.5 25.1001C441.2 24.2001 439.7 21.6001 438 22.5001C436.5 23.3001 435.3 24.6001 434 25.8001C432.5 27.2001 430.9 28.6001 429.4 30.0001C428 31.2001 430.1 33.3001 431.5 32.0001Z" fill="black"/>
<path d="M802.9 99.5001C794 128.1 785 156.8 776.1 185.4C770.6 203.2 783.7 221.2 802.3 221.5C926.4 223 1050.4 224.4 1174.5 225.9C1188.1 226.1 1199.8 216.3 1202.2 202.9C1207.5 172.5 1212.9 142.1 1218.2 111.7C1221.2 94.7001 1208.1 79.1001 1190.8 79.1001C1070.3 79.4001 949.8 79.7001 829.4 80.0001C817.3 80.0001 806.5 87.9001 802.9 99.5001Z" fill="white" stroke="black" stroke-width="3"/>
<path d="M326.7 498.2C309.4 547.9 292.1 597.6 274.8 647.3C264.1 678.1 289.5 709.5 325.5 709.9C565.7 712.4 806 715 1046.2 717.5C1072.6 717.8 1095.3 700.9 1099.8 677.6C1110.2 624.9 1120.5 572.1 1130.9 519.4C1136.7 489.8 1111.3 462.8 1077.8 462.8C844.5 463.3 611.2 463.8 377.9 464.3C354.4 464.4 333.7 478.1 326.7 498.2Z" fill="white" stroke="black" stroke-width="3"/>
<path d="M840.5 270.8C824.4 319 808.3 367.2 792.2 415.4C791.6 417.2 794.5 418 795.1 416.2C811.2 368 827.3 319.8 843.4 271.6C844 269.7 841.1 268.9 840.5 270.8Z" fill="#E8E8E8"/>
<path d="M842.4 271.1C884.2 268.9 926.2 265.5 968.1 265.5C1009.8 265.5 1051.4 269.1 1092.9 272.7C1094.8 272.9 1094.8 269.9 1092.9 269.7C1051.4 266.1 1009.8 262.6 968.1 262.5C926.2 262.5 884.2 265.9 842.4 268.1C840.5 268.2 840.4 271.2 842.4 271.1Z" fill="#E8E8E8"/>
<path d="M1092.4 272.6C1081.2 320.4 1069.9 368.1 1058.7 415.9C1058.3 417.8 1061.2 418.6 1061.6 416.7C1072.8 368.9 1084.1 321.2 1095.3 273.4C1095.7 271.6 1092.8 270.8 1092.4 272.6Z" fill="#E8E8E8"/>
<path d="M794 420.6C862.6 416.9 931.3 416 1000 418.1C1019.6 418.7 1039.1 419.5 1058.7 420.6C1060.6 420.7 1060.6 417.7 1058.7 417.6C990.1 413.8 921.4 413 852.7 415.1C833.1 415.7 813.6 416.5 794 417.6C792.1 417.7 792 420.7 794 420.6Z" fill="#E8E8E8"/>
<path d="M927.2 415.5C970 393.2 1018.9 389.9 1066.2 387C1068.1 386.9 1068.1 383.9 1066.2 384C1018.4 387 969 390.4 925.7 412.9C923.9 413.8 925.4 416.4 927.2 415.5Z" fill="#E8E8E8"/>
<path d="M995.5 320.3C1000.2 343.2 1002.6 366.5 1002.7 389.9C1002.7 391.8 1005.7 391.8 1005.7 389.9C1005.5 366.2 1003.1 342.7 998.4 319.5C998 317.6 995.1 318.4 995.5 320.3Z" fill="#E8E8E8"/>
<path d="M994.4 319.8C988.3 328.7 982.3 337.7 976.2 346.6C977.1 346.9 978.1 347.1 979 347.4C978.5 338.4 980.8 330 985.9 322.6C987 321 984.4 319.5 983.3 321.1C977.9 328.9 975.4 338 975.9 347.4C976 348.9 977.8 349.4 978.7 348.2C984.8 339.3 990.8 330.3 996.9 321.4C998.1 319.7 995.5 318.2 994.4 319.8Z" fill="#E8E8E8"/>
<path d="M984.3 319C980.9 317.5 977.5 316.8 973.8 317C971.6 317.1 962.7 319.8 964 316.5C964.5 315.2 967.3 313.5 968.4 312.6C970.5 310.9 972.7 309.3 975 308C980.1 305.1 985.8 303.7 991.6 304.6C993.5 304.9 994.3 302 992.4 301.7C980.8 299.9 968.7 306.2 961.2 314.9C959.2 317.2 959.5 320.4 962.8 321.4C964.6 321.9 966.6 321.2 968.3 320.8C973.2 319.7 978 319.3 982.8 321.4C984.5 322.4 986 319.8 984.3 319Z" fill="#E8E8E8"/>
<path d="M994.3 301.5C998.1 292.5 1005.6 285.9 1014.9 283.1C1014.4 282.3 1013.9 281.4 1013.4 280.6C1010 285 1008 289.8 1007.3 295.3C1007.1 297.2 1010.1 297.2 1010.3 295.3C1010.9 290.6 1012.7 286.4 1015.5 282.7C1016.3 281.6 1015.6 279.7 1014 280.2C1003.6 283.3 995.5 290.7 991.3 300.7C990.7 302.5 993.6 303.3 994.3 301.5Z" fill="#E8E8E8"/>
<path d="M1009.5 297.1C1017.3 292.6 1026.5 292.5 1034.4 296.8C1034.4 295.9 1034.4 295.1 1034.4 294.2C1028.1 297.2 1022.1 300.8 1016.4 304.8C1014.8 305.9 1016.3 308.5 1017.9 307.4C1023.6 303.4 1029.6 299.8 1035.9 296.8C1036.9 296.3 1036.8 294.7 1035.9 294.2C1027 289.3 1016.7 289.4 1008 294.5C1006.3 295.5 1007.8 298.1 1009.5 297.1Z" fill="#E8E8E8"/>
<path d="M1015.3 307.6C1021.8 311.2 1028.1 317.1 1026.3 325.3C1027.2 325.2 1028.1 325.1 1029 324.9C1024.8 318.2 1017.6 314.4 1009.7 314.7C1007.8 314.8 1007.8 317.8 1009.7 317.7C1016.6 317.4 1022.8 320.6 1026.4 326.4C1027 327.4 1028.9 327.4 1029.1 326C1031.1 316.5 1024.5 309.2 1016.7 304.9C1015.1 304.1 1013.6 306.7 1015.3 307.6Z" fill="#E8E8E8"/>
<path d="M1007.1 317.2C1011.7 341.2 1013.4 365.5 1012.1 389.9C1012 391.8 1015 391.8 1015.1 389.9C1016.4 365.3 1014.7 340.6 1010 316.4C1009.6 314.5 1006.7 315.3 1007.1 317.2Z" fill="#E8E8E8"/>
<path d="M1003.8 364.3C1007.1 364.7 1010.2 364.1 1013.2 362.8C1015 362 1013.4 359.4 1011.7 360.2C1009.2 361.4 1006.5 361.7 1003.8 361.3C1001.9 361 1001.9 364 1003.8 364.3Z" fill="#E8E8E8"/>
<path d="M807 379.7C823.4 380.7 840 381 856.3 382.9C864.3 383.8 872 386.2 879.9 387.4C887.6 388.5 895.1 387.4 902.8 386C936.5 380.1 970.4 383.3 1004.1 386.9C1006 387.1 1006 384.1 1004.1 383.9C971.5 380.4 938.4 377 905.8 382.4C896.6 383.9 887.9 385.7 878.6 384.1C871.1 382.8 863.9 380.8 856.4 379.9C840.1 378 823.5 377.7 807.1 376.7C805.1 376.5 805.1 379.5 807 379.7Z" fill="#E8E8E8"/>
<path d="M1000.3 343.6C1000.7 345.3 1002.4 345.7 1004 345.4C1007.1 344.9 1010.3 343.8 1013.3 342.9C1015.2 342.4 1014.4 339.5 1012.5 340C1010.7 340.5 1008.9 341 1007.1 341.4C1006.3 341.6 1005.4 341.8 1004.6 342.1C1004.2 342.2 1003.8 342.3 1003.4 342.4C1002.7 342.3 1002.7 342.4 1003.2 342.7C1002.8 340.9 999.899 341.7 1000.3 343.6Z" fill="#E8E8E8"/>
<path d="M873.6 305.4C863.7 302.2 876.6 285.2 883.5 292.8C886 295.5 885.9 300.2 883.6 303C881 306.2 876.5 306.7 873 304.7C871.3 303.7 869.8 306.3 871.5 307.3C876.6 310.2 883.5 309.1 886.7 304C889.6 299.3 888.8 292 883.7 289.1C872.6 282.9 859.3 304 872.9 308.4C874.7 308.9 875.5 306 873.6 305.4Z" fill="#E8E8E8"/>
<path d="M1104.8 281.3C1137.1 283 1169.1 286.8 1200.9 292.8C1202.8 293.2 1203.6 290.3 1201.7 289.9C1169.7 283.8 1137.4 279.9 1104.8 278.2C1102.9 278.2 1102.9 281.2 1104.8 281.3Z" fill="#E8E8E8"/>
<path d="M1104.3 290C1135.1 293.3 1166 296.8 1196.7 300.5C1198.6 300.7 1198.6 297.7 1196.7 297.5C1165.9 293.8 1135.1 290.3 1104.3 287C1102.4 286.8 1102.4 289.8 1104.3 290Z" fill="#E8E8E8"/>
<path d="M1103.3 299C1121.9 302.1 1140.6 304.1 1159.4 304.7C1161.3 304.8 1161.3 301.8 1159.4 301.7C1140.9 301 1122.4 299.2 1104.1 296.1C1102.2 295.8 1101.4 298.7 1103.3 299Z" fill="#E8E8E8"/>
<path d="M1092.1 352.9C1117.4 356.5 1142.8 359.5 1168.2 361.9C1170.1 362.1 1170.1 359.1 1168.2 358.9C1143 356.5 1117.9 353.5 1092.9 350C1091 349.7 1090.2 352.6 1092.1 352.9Z" fill="#E8E8E8"/>
<path d="M1090.2 361.5C1110.3 365 1130.4 367.9 1150.6 370.3C1152.5 370.5 1152.5 367.5 1150.6 367.3C1130.6 365 1110.8 362.1 1091 358.6C1089.1 358.2 1088.3 361.1 1090.2 361.5Z" fill="#E8E8E8"/>
<path d="M1088.1 374.2C1113.3 379.2 1138.7 382.6 1164.3 384.2C1166.2 384.3 1166.2 381.3 1164.3 381.2C1139 379.5 1113.8 376.2 1088.9 371.3C1087 370.9 1086.2 373.8 1088.1 374.2Z" fill="#E8E8E8"/>
<path d="M370 502.9C416 505.2 462.2 502.8 508.2 502.1C554.2 501.4 600.1 501.2 646.1 501.3C738.4 501.5 830.6 503.2 922.9 505.3C974.9 506.5 1026.8 507.9 1078.8 509.2C1080.7 509.3 1080.7 506.3 1078.8 506.2C986.6 503.8 894.3 501.3 802 499.8C709.7 498.3 617.5 497.6 525.2 498.8C473.5 499.4 421.6 502.5 370 499.8C368 499.8 368 502.8 370 502.9Z" fill="#E8E8E8"/>
<path d="M368.2 150.7C374.2 151.6 378.4 147.5 390.3 138.7C408.2 125.4 412 125 414.7 125.2C416 125.3 418.4 125.7 429.7 134.2C446.2 146.6 447.2 150.4 452.6 150.7C462.4 151.1 463.8 138.7 475.5 137.6C486.1 136.6 489.4 146.3 502.5 145.8C512.6 145.5 518.5 139.3 519.4 140.6C520.5 142.3 511 155.4 497.3 157.5C487.2 159 485 153.1 475.2 154.5C461.6 156.5 459 168.9 449 168C443.1 167.4 442.3 163 432.1 156C426.7 152.3 417.3 145.9 407 145.1C388.1 143.7 378.3 162 366.9 156.7C361.4 154.2 358.3 147.4 359 146.6C359.5 145.8 363 149.9 368.2 150.7Z" fill="#5222D0"/>
<path d="M836.7 99.3999C830.6 127.1 823.1 154.5 814.3 181.5C813.7 183.3 816.6 184.1 817.2 182.3C826 155.3 833.5 127.9 839.6 100.2C840 98.2999 837.1 97.4999 836.7 99.3999Z" fill="#E8E8E8"/>
<path d="M816.1 183.8C826.4 185 836.7 184.5 847.1 184.3C857.9 184 868.7 183.8 879.6 183.5C901.2 183 922.9 182.4 944.5 181.9C946.4 181.9 946.4 178.9 944.5 178.9C922.9 179.4 901.2 180 879.6 180.5C869.1 180.8 858.6 181 848.1 181.3C837.4 181.6 826.8 182.1 816.1 180.9C814.2 180.6 814.2 183.6 816.1 183.8Z" fill="#E8E8E8"/>
<path d="M853.3 127.3C849.5 145.1 846.3 163 843.6 181C843.3 182.9 846.2 183.7 846.5 181.8C849.2 163.8 852.4 145.9 856.2 128.1C856.6 126.2 853.7 125.4 853.3 127.3Z" fill="#E8E8E8"/>
<path d="M855.6 128.9C860.9 129.2 866.1 129.7 871.3 130.7C871 130.1 870.6 129.5 870.3 128.9C865.6 145.8 861.6 162.9 858.3 180.1C857.9 182 860.8 182.8 861.2 180.9C864.5 163.7 868.5 146.6 873.2 129.7C873.4 129 873 128 872.2 127.9C866.7 126.9 861.3 126.3 855.7 126C853.6 125.8 853.6 128.8 855.6 128.9Z" fill="#E8E8E8"/>
<path d="M881.4 144.3C879.9 156.5 877.9 168.5 875.4 180.5C875 182.4 877.9 183.2 878.3 181.3C880.9 169.1 882.9 156.7 884.4 144.3C884.6 142.4 881.6 142.4 881.4 144.3Z" fill="#E8E8E8"/>
<path d="M882.9 144.5C888.5 144.3 894.2 144.4 899.8 144.8C899.3 144.2 898.8 143.5 898.4 142.9C896.2 154.8 894.3 166.7 892.7 178.7C892.4 180.6 895.4 180.6 895.7 178.7C897.3 167 899.1 155.4 901.3 143.7C901.5 142.7 900.9 141.9 899.9 141.8C894.3 141.4 888.6 141.4 883 141.5C880.9 141.5 880.9 144.5 882.9 144.5Z" fill="#E8E8E8"/>
<path d="M917.899 117.1C914.399 138 910.299 158.9 905.799 179.6C905.399 181.5 908.299 182.3 908.699 180.4C913.199 159.7 917.299 138.8 920.799 117.9C921.199 116 918.299 115.2 917.899 117.1Z" fill="#E8E8E8"/>
<path d="M920.3 115.6C920.3 115.8 920.3 115.9 920.3 116.1C920.3 116.9 921 117.6 921.8 117.6C922.6 117.6 923.3 116.9 923.3 116.1C923.3 115.9 923.3 115.8 923.3 115.6C923.3 114.8 922.6 114.1 921.8 114.1C921 114.2 920.3 114.8 920.3 115.6Z" fill="#E8E8E8"/>
<path d="M921 118.1C925.6 119.1 930 119.6 934.7 119.5C934.2 118.9 933.7 118.2 933.3 117.6C929.4 138.5 925.8 159.5 922.4 180.5C922.1 182.4 925 183.2 925.3 181.3C928.7 160.3 932.3 139.3 936.2 118.4C936.4 117.5 935.8 116.5 934.8 116.5C930.4 116.5 926.2 116.1 921.9 115.2C919.9 114.8 919.1 117.6 921 118.1Z" fill="#E8E8E8"/>
<path d="M966.7 111.3C1000.7 110.9 1034.6 111.1 1068.6 112C1070.5 112 1070.5 109 1068.6 109C1034.6 108.2 1000.7 108 966.7 108.3C964.8 108.3 964.8 111.3 966.7 111.3Z" fill="#E8E8E8"/>
<path d="M969 123.5C990.1 124.9 1011.3 124.6 1032.4 122.6C1034.3 122.4 1034.3 119.4 1032.4 119.6C1011.3 121.6 990.1 121.9 969 120.5C967.1 120.4 967.1 123.4 969 123.5Z" fill="#E8E8E8"/>
<path d="M964.4 138.6C993.4 138.1 1022.4 138.6 1051.4 140.1C1053.3 140.2 1053.3 137.2 1051.4 137.1C1022.4 135.5 993.4 135 964.4 135.6C962.5 135.6 962.5 138.6 964.4 138.6Z" fill="#E8E8E8"/>
<path d="M1120 185C1109.8 183.7 1104.9 173.5 1102 164.8C1099.3 156.6 1098.3 148 1101.4 139.8C1106.8 125.4 1121.5 113.8 1136.3 110.5C1151.7 107 1167.3 115.2 1174.7 128.9C1182.5 143.3 1179.8 161.8 1170.7 174.9C1159.5 191 1135.9 192.8 1119.5 184.3C1117.8 183.4 1116.3 186 1118 186.9C1133.7 195 1155.4 194.6 1168.7 181.9C1181.7 169.5 1185.9 147.4 1179.1 131C1172.6 115.5 1156.2 104.7 1139.2 106.9C1122.4 109.1 1105.5 121.9 1099.1 137.6C1094.8 148.3 1096.6 159.5 1100.8 169.9C1104.4 178.7 1110.1 186.7 1120.1 188C1121.9 188.2 1121.9 185.2 1120 185Z" fill="#E8E8E8"/>
<path d="M1124.2 114.5C1128.9 126.6 1133.2 138.9 1137.3 151.3C1137.9 153.1 1140.8 152.3 1140.2 150.5C1136.1 138.1 1131.8 125.9 1127.1 113.7C1126.4 112 1123.5 112.7 1124.2 114.5Z" fill="#E8E8E8"/>
<path d="M1140.4 153C1152.2 144.8 1163.9 136.3 1175.3 127.6C1176.8 126.4 1175.3 123.8 1173.8 125C1162.3 133.7 1150.7 142.2 1138.9 150.4C1137.3 151.5 1138.8 154.1 1140.4 153Z" fill="#E8E8E8"/>
<path d="M1139.9 153.1C1153.3 152.5 1166.5 150.3 1179.4 146.5C1181.2 146 1180.5 143.1 1178.6 143.6C1166 147.3 1153.1 149.5 1139.9 150C1138 150.2 1138 153.2 1139.9 153.1Z" fill="#E8E8E8"/>
<path d="M1137.5 152.1C1129.5 162.4 1121.6 172.7 1113.6 183C1112.4 184.5 1115 186 1116.2 184.5C1124.2 174.2 1132.1 163.9 1140.1 153.6C1141.3 152.1 1138.7 150.6 1137.5 152.1Z" fill="#E8E8E8"/>
<path d="M372 497.8C369.5 497.1 371 493.8 372.1 492.7C373.3 491.5 376.3 491.6 377.9 491.6C380.8 491.5 383.7 491.6 386.7 491.5C392.7 491.5 398.7 491.4 404.7 491.4C416.7 491.3 428.7 491.3 440.7 491.2C464.4 491.1 488 490.9 511.7 490.8C559.4 490.5 607 490.3 654.7 490.2C749.7 489.9 844.6 489.9 939.6 490.4C965.6 490.6 991.7 490.6 1017.7 491.7C1030.6 492.2 1043.5 493 1056.4 494.2C1062.8 494.8 1069.3 495.5 1075.7 496.3C1077.8 496.6 1079.9 496.8 1082 497.2C1083.7 497.5 1084.7 497.2 1085.3 498.8C1086.9 502.6 1081.8 506.5 1078.7 506.7C1076.8 506.8 1076.8 509.8 1078.7 509.7C1085.4 509.2 1090.1 502.4 1087.6 496C1087.4 495.5 1087.1 495 1086.6 495C1038.9 487.9 990.6 487.9 942.5 487.6C892.8 487.3 843.2 487.2 793.5 487.1C693.9 487.1 594.2 487.5 494.6 488C466.6 488.2 438.6 488.3 410.6 488.5C403.9 488.5 397.3 488.6 390.6 488.6C385 488.6 378.4 487.7 373 489.3C367.8 490.8 364.4 499 371.2 500.9C373 501.2 373.8 498.3 372 497.8Z" fill="#E8E8E8"/>
<path d="M364.6 515.4C354.6 551.5 342.4 587 327.9 621.6C327.2 623.4 330.1 624.2 330.8 622.4C345.3 587.8 357.5 552.3 367.5 516.2C368 514.3 365.1 513.5 364.6 515.4Z" fill="#E8E8E8"/>
<path d="M365.599 518.4C391.299 521.5 417.799 519.4 443.599 519.1C445.499 519.1 445.499 516.1 443.599 516.1C417.799 516.5 391.299 518.5 365.599 515.4C363.599 515.2 363.699 518.2 365.599 518.4Z" fill="#E8E8E8"/>
<path d="M440.4 518.9C431.9 550.3 422.9 581.5 413.4 612.7C412.8 614.6 415.7 615.3 416.3 613.5C425.8 582.4 434.8 551.1 443.3 519.7C443.8 517.8 440.9 517 440.4 518.9Z" fill="#E8E8E8"/>
<path d="M329.3 623.1C343.4 623 357.4 622.9 371.5 622.8C378.4 622.8 385.2 622.7 392.1 622.7C398.2 622.7 404.3 622.9 410.3 621.5C412.2 621.1 411.4 618.2 409.5 618.6C403.2 620.1 396.6 619.7 390.1 619.7C383.2 619.7 376.4 619.8 369.5 619.8C356.1 619.9 342.7 620 329.3 620C327.4 620.1 327.4 623.1 329.3 623.1Z" fill="#E8E8E8"/>
<path d="M456.1 519.6C523.7 517.7 591.4 517.8 659 520C660.9 520.1 660.9 517.1 659 517C591.4 514.8 523.7 514.6 456.1 516.6C454.2 516.6 454.2 519.6 456.1 519.6Z" fill="#E8E8E8"/>
<path d="M453.3 537.2C492.5 537.1 531.7 537.1 571 537C572.9 537 572.9 534 571 534C531.8 534.1 492.6 534.1 453.3 534.2C451.3 534.2 451.3 537.2 453.3 537.2Z" fill="#E8E8E8"/>
<path d="M413 619.6C414.8 616.6 416.1 613.4 416.8 610.1C417.2 608.2 414.3 607.4 413.9 609.3C413.2 612.4 412.1 615.4 410.4 618.1C409.4 619.7 412 621.2 413 619.6Z" fill="#E8E8E8"/>
<path d="M788.2 528.4C780.2 566.6 772.5 604.8 765 643C764.6 644.9 767.5 645.7 767.9 643.8C775.4 605.6 783.1 567.4 791.1 529.2C791.5 527.3 788.6 526.5 788.2 528.4Z" fill="#E8E8E8"/>
<path d="M765.6 645.5C806.7 646.6 847.7 647.7 888.8 648.8C929.4 649.9 970 651.6 1010.6 651.6C1012.5 651.6 1012.5 648.6 1010.6 648.6C970 648.6 929.4 646.8 888.8 645.8C847.7 644.7 806.7 643.6 765.6 642.5C763.7 642.4 763.7 645.4 765.6 645.5Z" fill="#E8E8E8"/>
<path d="M768.6 645.2C781 631.8 793.4 618.3 805.8 604.9C805.1 604.9 804.4 604.9 803.7 604.9C807.8 610 812.6 614.2 818.2 617.6C819.9 618.6 821.4 616 819.7 615C814.3 611.8 809.7 607.7 805.8 602.8C805.3 602.2 804.2 602.3 803.7 602.8C791.3 616.2 778.9 629.7 766.5 643.1C765.2 644.5 767.3 646.6 768.6 645.2Z" fill="#E8E8E8"/>
<path d="M819 616.6C832.3 600.9 845.7 585.3 859 569.6C860.2 568.1 858.1 566 856.9 567.5C843.6 583.2 830.2 598.8 816.9 614.5C815.6 615.9 817.7 618 819 616.6Z" fill="#E8E8E8"/>
<path d="M856.9 568.1C859.6 571.7 862.3 575.2 865 578.8C865.6 579.6 866.5 579.8 867.4 579.1C879.6 569.1 891.5 558.6 903 547.8C904.4 546.5 902.3 544.4 900.9 545.7C889.4 556.5 877.5 567 865.3 577C866.1 577.1 866.9 577.2 867.7 577.3C865 573.7 862.3 570.2 859.6 566.6C858.3 565 855.7 566.5 856.9 568.1Z" fill="#E8E8E8"/>
<path d="M899.8 549.1C916.5 562.3 932.6 576.2 948.2 590.6C949.6 591.9 951.7 589.8 950.3 588.5C934.7 574 918.6 560.2 901.9 547C900.4 545.8 898.3 547.9 899.8 549.1Z" fill="#E8E8E8"/>
<path d="M950 590.2C970.6 577.1 985.4 556.9 1005.5 543.1C1007.1 542 1005.6 539.4 1004 540.5C983.9 554.3 969.1 574.5 948.5 587.6C946.9 588.6 948.4 591.2 950 590.2Z" fill="#E8E8E8"/>
<path d="M988 546.2C994.3 545.1 1000.4 543.5 1006.5 541.6C1005.9 541 1005.3 540.4 1004.7 539.8C1003.6 544.8 1002.6 549.8 1001.5 554.8C1001.1 556.7 1004 557.5 1004.4 555.6C1005.5 550.6 1006.5 545.6 1007.6 540.6C1007.8 539.5 1006.9 538.4 1005.8 538.8C999.7 540.7 993.6 542.3 987.3 543.4C985.4 543.7 986.2 546.6 988 546.2Z" fill="#E8E8E8"/>
<path d="M825 536.3C821.5 572 817.9 607.7 814.4 643.4C814.2 645.3 817.2 645.3 817.4 643.4C820.9 607.7 824.5 572 828 536.3C828.1 534.4 825.1 534.4 825 536.3Z" fill="#E8E8E8"/>
<path d="M869.4 530C865.7 568.3 862.7 606.7 860.5 645.1C860.4 647 863.4 647 863.5 645.1C865.7 606.7 868.7 568.3 872.4 530C872.5 528 869.5 528.1 869.4 530Z" fill="#E8E8E8"/>
<path d="M953.2 528.9C949.3 568.9 946.5 608.9 944.8 649.1C944.7 651 947.7 651 947.8 649.1C949.5 609 952.3 568.9 956.2 528.9C956.4 527 953.4 527 953.2 528.9Z" fill="#E8E8E8"/>
<path d="M903.1 514.3C900.5 558.9 897.9 603.4 895.3 648C895.2 649.9 898.2 649.9 898.3 648C900.9 603.4 903.5 558.9 906.1 514.3C906.2 512.3 903.2 512.3 903.1 514.3Z" fill="#E8E8E8"/>
<path d="M591.4 536.7C611.7 538.5 632 534 652.3 536.5C654.2 536.7 654.2 533.7 652.3 533.5C632 531 611.7 535.5 591.4 533.7C589.4 533.6 589.5 536.6 591.4 536.7Z" fill="#E8E8E8"/>
<path d="M276.5 356.3C311.9 351.1 346 365.3 377.4 380.1C406.5 393.9 435.3 408 467.6 412.1C536.6 420.7 602.7 391.7 667.6 373.4C705.7 362.7 745.2 355.2 784.9 360.2C786.8 360.4 786.8 357.4 784.9 357.2C714.6 348.3 648.2 377.9 582 396.2C548.4 405.5 513.6 412.5 478.6 410.2C443.5 407.9 412.6 393.7 381.3 378.8C348.4 363.1 313 348 275.7 353.5C273.8 353.7 274.7 356.6 276.5 356.3Z" fill="#E8E8E8"/>
<path d="M465.9 383.6C554 388.3 635.6 349 719.9 330.1C744.2 324.7 768.9 320.9 793.9 320.4C795.8 320.4 795.8 317.4 793.9 317.4C705.9 319.4 625.4 359.9 539.8 375.4C515.4 379.8 490.7 382 465.9 380.7C464 380.4 464 383.4 465.9 383.6Z" fill="#E8E8E8"/>
<path d="M296.4 281.3C336.3 284.1 372.7 301.9 409.5 315.8C446.9 329.9 485.9 337.8 525.9 336.8C548.8 336.2 571.6 332.9 593.8 327.1C595.7 326.6 594.9 323.7 593 324.2C552.7 334.8 510.4 336.8 469.3 329.7C430.1 322.9 394.8 305.8 357.7 292.5C337.9 285.4 317.5 279.8 296.4 278.4C294.4 278.2 294.5 281.2 296.4 281.3Z" fill="#E8E8E8"/>
<path d="M567.7 89C566.9 94 565.6 98.9 563.8 103.7C563.4 104.7 564.4 105.6 565.2 105.6C628.9 108.4 692.6 109 756.3 107.3C758.2 107.2 758.2 104.2 756.3 104.3C692.6 106 628.8 105.5 565.2 102.6C565.7 103.2 566.2 103.9 566.6 104.5C568.4 99.7 569.7 94.9 570.5 89.8C570.9 87.9 568 87.1 567.7 89Z" fill="#E8E8E8"/>
<path d="M569.7 90.1001C633.8 90.9001 697.8 91.7001 761.9 92.5001C763.8 92.5001 763.8 89.5001 761.9 89.5001C697.8 88.7001 633.8 87.9001 569.7 87.1001C567.8 87.0001 567.8 90.0001 569.7 90.1001Z" fill="#E8E8E8"/>
<path d="M761.6 90.6998C759.6 95.3998 758.1 100.3 757.3 105.4C757 107.3 759.9 108.1 760.2 106.2C761 101.4 762.3 96.6998 764.2 92.1998C764.9 90.3998 762.3 88.8998 761.6 90.6998Z" fill="#E8E8E8"/>
<path d="M53.1998 664.6C36.0998 668.7 18.8998 672.8 1.7998 676.9C10.6998 733.1 17.6998 761.1 22.5998 760.7C26.7998 760.4 29.4998 739.4 30.6998 697.7C40.1998 694.4 49.6998 691.2 59.1998 687.9C57.1998 680.2 55.1998 672.4 53.1998 664.6Z" fill="#161616" stroke="#161616" stroke-width="3"/>
<path d="M170.1 455.1C167.9 461.7 164.6 472.2 161.2 485.5C154.1 513.2 153.8 525 146.6 560.2C138 602.1 133.6 609.3 130.8 613.4C118.1 631.6 100.5 639.9 90.8998 644.4C67.6998 655.3 46.0998 656.3 33.2998 655.8C32.7998 661.7 32.2998 676.1 40.8998 690.6C45.1998 697.8 50.2998 702.7 54.1998 705.8C67.0998 706.5 89.2998 706 114.3 696.3C125 692.2 152.3 681.2 173.1 653.9C189.1 632.9 193.5 612.4 198.4 589.4C207.9 545.1 196.1 538.4 207.9 500.8C215 478 223.2 466.8 217.4 458.4C210.5 448.1 188.8 450.8 170.1 455.1Z" fill="#EC615B"/>
<path opacity="0.09" d="M171.3 455.2C170.3 465.9 168.8 480.7 166.7 498.3C164.8 513.8 162.7 530.6 159.3 550.2C153.4 583.8 150.4 600.6 144 614.6C138.4 626.8 127.6 649.4 102.8 666.5C76.9999 684.2 50.2999 685.9 38.3999 686C36.9999 682.8 35.5999 678.7 34.6999 674C33.3999 667.2 33.3999 661.3 33.7999 656.9C41.4999 657 52.0999 656.4 64.3999 653.7C85.7999 648.9 100.1 640.2 103.8 637.9C112.9 632.2 122.4 626.3 130.2 614.7C135.5 606.9 137.7 599.8 141.3 585C146.6 563.2 149.3 552.4 151.5 536.4C153.9 517.9 159.2 490.9 171.3 455.2Z" fill="#3D3D3D"/>
<path opacity="0.12" d="M33.9997 656.6C33.5997 661 33.3997 667 34.7997 673.9C35.7997 679 37.2997 683.2 38.6997 686.5C52.3997 683.6 95.4997 672.6 122.2 633.2C130.1 621.5 134.8 610 137.7 600.1C135 606.4 130.3 615.6 122 624.5C107.7 639.8 91.2997 645.4 79.4997 649.4C69.4997 652.9 53.8997 656.9 33.9997 656.6Z" fill="#3D3D3D"/>
<path d="M162.8 756.4C155 777.9 147.2 799.4 139.4 821C194.2 827.4 222.1 828.3 223.1 823.5C223.9 819.8 207.7 812.5 174.7 801.8C179.2 788.5 183.8 775.2 188.3 761.9C179.8 760.1 171.3 758.2 162.8 756.4Z" fill="#161616" stroke="#161616" stroke-width="3"/>
<path d="M244.1 466.5C245.2 481.3 246.2 501.5 246 525.3C245.5 591 236.6 640.3 234 653.7C227.3 688.8 215.7 734.1 194.8 784.7C188.2 785 171.9 784.8 155.6 774.6C145.6 768.3 139.4 760.7 136 755.6C142.1 744 149.6 728.7 156.9 710C169.8 677 175.4 650.7 179 633.4C187.1 594.5 191.2 575.1 187.9 554.3C184.7 534.6 179.5 531.2 180.3 514.4C180.5 510.7 183 467.6 210 459.4C223.9 455.3 237.7 462.5 244.1 466.5Z" fill="#EC615B"/>
<path opacity="0.14" d="M220.4 459C229.3 462.8 226.4 487.8 225.6 494.4C214.9 588.6 229.6 537.9 216.7 596C199 675.8 175.1 752.5 166.7 778.9C164.7 778.9 161.9 778.7 158.9 777.3C156.1 776 155.5 774.3 152.1 771.6C148.4 768.7 147.1 768.9 144.3 766.9C141.8 765.1 138.7 761.9 136.5 756C141.7 745.8 147.9 732.7 154.2 716.9C162.2 696.9 166.6 681.7 171.4 665.3C171.4 665.3 186.4 613.6 189.1 574.1C189.6 566.2 189.2 560.8 188.6 556.9C187.7 550.7 186.4 547.6 184.4 540.2C183.9 538.3 181.1 527.5 180.2 519.4C177.7 495.5 190.4 476.3 196.4 469.4C198.5 466.9 201.3 464.2 205.3 462.1C206.8 461.4 215.5 456.9 220.4 459Z" fill="#3D3D3D"/>
<path opacity="0.11" d="M197.5 621.7C195.8 646 190.1 653.2 173.5 712.9C166.2 739.1 160.8 760.6 157.3 774.4C154.5 773.3 151 771.5 147.4 768.7C142 764.5 138.8 759.9 137 756.7C142 746.4 148.7 731.7 155.2 713.4C157.8 706.2 159.5 700.7 161.1 695.7C183.9 622.6 187.5 600.4 188.6 585.2C189.5 572.3 188.8 561.9 188.6 558.6C187.6 544.8 185.2 535.3 185.2 535.3C185.2 535.3 200.8 574.5 197.5 621.7Z" fill="#3D3D3D"/>
<path d="M71.1001 421.8C71.3001 421.5 72.3001 421.6 74.3001 421.8C77.7001 422.1 78.8001 422.6 81.0001 422.8C83.1001 422.9 85.9001 423.1 86.7001 421.8C87.8001 420.1 84.3001 416.8 79.4001 409.7C71.0001 397.7 71.4001 393.5 72.1001 391.6C72.3001 391.1 72.9001 389.2 74.2001 388.9C75.9001 388.5 77.8001 390.8 79.6001 393.1C82.6001 396.8 83.8001 399.7 84.1001 399.5C84.7001 399.3 81.2001 391.8 82.0001 382.6C82.2001 380.1 82.6001 376.5 84.4001 376C86.0001 375.5 88.4001 377.5 90.3001 380.7C90.3001 380.3 90.8001 374.8 92.7001 374.4C94.2001 374.1 95.9001 377 97.6001 379.8C99.0001 382.1 99.9001 384.2 100.4 385.6C100.3 382.8 101.8 380.5 103.9 379.8C106.2 379.1 108.3 380.9 108.4 381C110.7 383.1 110.5 386.8 110.5 388.1C110.3 393.8 110.9 403.4 112.2 417.4C114.8 416.4 118.6 414.6 122.8 411.8C127.1 408.9 131.6 405.1 142.7 391.8C147 386.6 149.2 384 153 378.9C166.7 360.6 174.8 349.8 183 334.5C185.6 329.6 189.8 321.3 198.5 313.9C201.3 311.5 206.8 307 210 308.7C212.3 309.9 212.5 313.7 212.4 319.3C212.3 331.5 212.2 337.5 210.1 345.8C205.3 365 196.4 378.4 194.4 381.4C186.5 393 178.6 399.7 168.4 408.4C157.8 417.4 149 424.8 135.1 430.4C126 434 118.8 435.3 111.2 436.7C98.6001 438.9 92.1001 440 85.6001 437.2C76.3001 433.2 70.0001 423.3 71.1001 421.8Z" fill="white"/>
<path d="M209.6 307.3C198.8 308.8 192.4 318.9 186.6 327.2C179.2 337.8 172.2 348.7 165 359.4C157.8 370.2 150.3 380.8 141.8 390.7C137.7 395.4 133.5 400 128.9 404.2C123.8 409 118.2 414.5 111.5 416.8C109.7 417.4 110.5 420.3 112.3 419.7C122.8 416.2 131.7 406.2 139 398.3C147.4 389.2 154.9 379.3 162 369.1C169.2 358.7 176.1 348 183.1 337.5C189.7 327.7 197.5 312 210.4 310.2C212.3 309.9 211.5 307.1 209.6 307.3Z" fill="black"/>
<path d="M115 438.3C127.8 437.1 138.6 431.2 149.3 424.4C159.9 417.7 170 410 179 401.2C190.6 390 200.4 376.7 206.9 361.8C213.3 346.9 216.3 330.6 214.2 314.4C214 312.5 211 312.5 211.2 314.4C214.6 341.5 203.8 368.4 186.4 389C178.6 398.2 169.5 406.3 159.9 413.5C146.7 423.3 131.7 433.8 114.9 435.4C113.1 435.5 113.1 438.5 115 438.3Z" fill="black"/>
<path d="M115 435.2C109.1 435.1 103.4 436.5 97.5999 436.9C90.8999 437.4 85.2999 435.4 79.7999 431.7C77.5999 430.2 75.1999 428.4 73.7999 426C70.8999 420.9 76.8999 423.9 78.9999 424.5C82.3999 425.5 85.4999 425.1 88.0999 422.8C89.5999 421.5 87.3999 419.4 85.9999 420.7C81.4999 424.7 73.0999 415.8 70.0999 420.9C67.7999 424.8 73.0999 430.4 75.6999 432.5C80.1999 436.2 85.6999 439.2 91.5999 439.9C99.3999 440.8 107.2 438.1 115 438.3C116.9 438.2 116.9 435.2 115 435.2Z" fill="black"/>
<path d="M88.3001 421.1C86.3001 414.4 81.8001 409.2 78.2001 403.3C77.7001 402.5 71.7001 391.6 73.7001 390.7C77.2001 389.1 82.2001 399.2 82.9001 401.2C83.5001 403 86.4001 402.2 85.8001 400.4C84.2001 395.8 81.4001 391.5 77.2001 388.7C75.0001 387.2 71.8001 386.1 70.8001 389.5C69.5001 394.1 72.9001 400.3 75.2001 404.1C78.8001 410 83.5001 415.1 85.5001 421.9C86.0001 423.8 88.9001 423 88.3001 421.1Z" fill="black"/>
<path d="M86.7003 400.3C85.8003 396.6 84.6003 392.8 84.0003 389C83.6003 386.7 83.5003 384.4 83.7003 382.1C84.0003 379.1 84.6003 376.1 87.0003 379.6C90.7003 385.1 91.9003 392.6 93.7003 398.8C94.2003 400.7 97.1003 399.9 96.6003 398C95.1003 392.7 93.9003 387.1 91.7003 382C90.6003 379.5 88.1003 373.9 84.6003 373.9C81.0003 373.9 80.9003 379.5 80.7003 382C80.2003 388.5 82.2003 394.7 83.8003 400.9C84.2003 403 87.1003 402.2 86.7003 400.3Z" fill="black"/>
<path d="M93.6998 386.1C93.1998 384 92.1998 380.5 92.9998 378.4C94.4998 374.5 96.6998 381.5 97.2998 383C99.4998 388.3 100.7 393.9 101 399.6C101.1 401.5 104.1 401.5 104 399.6C103.6 394.1 102.7 388.8 100.8 383.7C99.6998 380.6 98.0998 375.1 95.0998 373.4C88.2998 369.5 90.1998 384.5 90.6998 387C91.1998 388.8 94.0998 388 93.6998 386.1Z" fill="black"/>
<path d="M103.8 389.6C103.7 388.6 103 383.2 104.2 382.2C107.5 379.3 108.4 384.6 108.8 386.2C109.5 389.6 109.4 393.4 109.7 396.9C110.2 404.1 110.7 411.2 111.2 418.4C111.3 420.3 114.3 420.3 114.2 418.4C113.7 411.2 113.2 404.1 112.7 396.9C112.4 391.9 112.8 385.3 110.2 380.8C108.8 378.4 106.4 376.2 103.6 378C99.9996 380.4 100.5 386.8 101 390.4C101.2 392.3 104.1 391.5 103.8 389.6Z" fill="black"/>
<path opacity="0.09" d="M210.7 310.8C210.2 310.8 210.6 318.7 207.5 329.7C205.1 338.1 201.2 346.1 188.6 362.7C177 378 168.6 389.1 154 402.1C138 416.4 130 423.5 119 426.2C95.1997 432.1 73.2997 418.4 71.1997 423C70.0997 425.5 76.0997 430.5 78.3997 432.2C81.2997 434.3 86.8997 437.6 100.1 437.8C114.2 438 125 434.6 127.4 433.8C152.8 425.4 169.5 408.8 178.4 399.6C190.2 387.6 199.8 377.8 206.1 361.4C216.2 335.9 211.7 310.8 210.7 310.8Z" fill="#3D3D3D"/>
<path opacity="0.13" d="M208.7 349.4C208 349 203.8 356 197.8 364.3C197.8 364.3 183.4 384.3 164.8 401.3C154.6 410.6 136 425 106.5 436.3C112.6 436.7 121.7 436.5 131.8 433.1C135 432 143 429 162.3 412.2C177.7 398.8 186.3 391.4 194.9 378.4C204.2 364.5 209.7 349.9 208.7 349.4Z" fill="#3D3D3D"/>
<path d="M221.2 296.3C214.9 298.5 211 302.4 206.9 306.5C195.5 318 191.4 331 188.2 341.5C178.6 373.1 173.7 388.8 171.5 402.6C168.9 418.3 166.7 439.1 167.4 463.7C172.6 467.3 180 471.9 189.4 475.9C200.2 480.5 209.9 484.6 222.4 483.6C227.4 483.2 236 481.8 245.6 475.9C246.1 469.4 247.2 459.3 250.1 447.4C255.1 426.3 260.5 420.2 269.3 394C276.2 373.3 279.6 362.7 279.1 350C278.7 341.1 277.9 323.7 264.8 310.1C254.8 299.8 236.9 290.8 221.2 296.3Z" fill="white"/>
<path d="M216.7 297C204.7 304.2 197.4 316.2 191.4 328.5C185 341.8 180.2 355.8 176.7 370.2C169.4 400.2 167.6 431.3 166.4 462.1C166.3 464 169.3 464 169.4 462.1C170.5 432.7 172.2 403.2 178.8 374.4C182 360.3 186.4 346.4 192.5 333.2C198.4 320.3 205.7 307 218.2 299.6C219.8 298.6 218.3 296 216.7 297Z" fill="black"/>
<path d="M255.4 303.5C266.7 312.3 274.5 324.7 277 338.8C279.8 354.9 275.9 371.3 270.5 386.4C265.3 401 258.5 414.9 253.8 429.7C249.1 444.2 246.2 459.3 245 474.5C244.8 476.4 247.8 476.4 248 474.5C249.4 457.4 253 440.5 258.8 424.4C264.3 409 271.6 394.3 276.3 378.6C280.5 364.5 282.7 349.2 279.2 334.6C276.1 321.4 268.3 309.7 257.6 301.5C256 300.2 253.9 302.3 255.4 303.5Z" fill="black"/>
<path d="M167 464.1C179.1 474.9 194.1 482 210.2 484.3C223 486.1 239.5 486.2 247.9 474.7C249 473.1 246.4 471.6 245.3 473.2C236.9 484.6 218.3 483.1 206.1 480.6C192.3 477.8 179.6 471.3 169.1 462C167.7 460.7 165.6 462.8 167 464.1Z" fill="black"/>
<path opacity="0.11" d="M234.1 296.7C237.5 302.6 224.9 313.5 215.2 330.5C209 341.3 206.6 350.7 201.9 369.5C190.9 413.5 193 463.5 193.9 478C185.3 473.4 176.8 468.9 168.2 464.3C168.6 454.5 169.4 440.5 171 423.7C173.6 397.1 175.1 382.6 180.2 363.8C184.7 347.5 189.1 332.3 201.1 316C208.9 305.4 217.2 298.1 223.2 293.5C227 293.3 232.3 293.6 234.1 296.7Z" fill="#3D3D3D"/>
<path opacity="0.15" d="M195.9 326.9C197.2 327.3 191.9 348.2 183.4 394.4C177.8 424.7 176.5 435.6 181 449.1C186.8 466.4 198.5 476.9 196.3 479.2C194.9 480.6 188.9 478.6 168.2 463.1C167.7 441.3 169.1 411.2 177.8 376.7C184.7 349.4 194.5 326.4 195.9 326.9Z" fill="#3D3D3D"/>
<path d="M289.2 255.5C293.9 259.8 293.3 268.2 292.4 280.4C291.8 288.9 291.5 293.2 288.6 297.3C282.6 305.8 269 309.7 258.3 304.9C257 304.3 250.4 301.2 246.8 293.7C241.6 282.9 247 272.1 248.1 270.1C256.5 254.4 280.8 247.7 289.2 255.5Z" fill="#5222D0"/>
<path d="M289.4 200.2C293.2 201 295.5 206.3 300.1 217C304 226.1 305.8 233.5 306.6 237C307.9 243.1 308.6 248.3 308.9 252.2C306.2 253 303.5 253.7 300.8 254.5C300.2 258 298.9 263.2 296.3 269C292.7 277 289.7 283.9 282.7 287.1C274.6 290.8 265.9 287.5 263 286.1C261.9 288.9 260.3 292.1 258.2 295.5C256.7 297.9 255.1 299.9 253.7 301.6C244.6 303.9 240.4 301.5 238.8 300.3C230.4 294.1 231.1 274.1 244 251.5C243.3 250.4 242.2 248.8 240.8 247C237.9 243.4 236.9 243.3 235.6 241.2C235.2 240.6 232.1 235.3 234.6 230.5C235.8 228.2 238.3 226.2 241.1 226C244.5 225.7 245.6 228.4 248.5 229.2C253.5 230.7 259 225.3 272.7 212.4C284.2 201.6 286.5 199.6 289.4 200.2Z" fill="white"/>
<path d="M299 216.6C303.7 228.4 306.7 240.7 307.8 253.4C307.9 254.8 310.2 254.8 310.1 253.4C309 240.5 306 228 301.2 216C300.7 214.6 298.5 215.2 299 216.6Z" fill="black"/>
<path d="M308.4 252.4C305.7 252.7 303 253.1 300.3 253.4C298.9 253.6 298.9 255.8 300.3 255.7C303 255.4 305.7 255 308.4 254.7C309.8 254.4 309.8 252.2 308.4 252.4Z" fill="black"/>
<path d="M299.7 254.4C297.9 264.4 293.8 274.1 287.1 281.8C279.1 291.2 266.4 286.3 256.6 282.3C255.3 281.7 254.7 283.9 256 284.5C265.2 288.3 278.4 293.5 286.7 285.5C294.9 277.7 299.8 266 301.8 255C302.1 253.6 300 253 299.7 254.4Z" fill="black"/>
<path d="M261.5 286.6C259.4 291.4 256.8 295.9 253.8 300.2C253 301.4 254.9 302.5 255.7 301.3C258.7 297 261.3 292.4 263.4 287.7C264 286.4 262.1 285.3 261.5 286.6Z" fill="black"/>
<path d="M255.8 284.8C257.3 286.4 259 287.8 260.9 288.8C262.2 289.5 263.3 287.6 262 286.9C260.2 285.9 258.7 284.7 257.3 283.2C256.4 282.1 254.8 283.7 255.8 284.8Z" fill="black"/>
<path d="M290.599 232.9C289.999 231.7 290.099 230.2 290.899 229.2C290.299 229 289.599 228.9 288.999 228.7C289.299 230.4 289.299 232 289.199 233.7C289.599 233.3 289.999 232.9 290.299 232.6C290.399 232.8 290.499 233 290.699 233.2C290.999 231.8 288.799 231.2 288.499 232.6C288.199 233.8 288.999 234.9 290.299 234.9C290.999 234.9 291.399 234.4 291.399 233.8C291.599 231.9 291.499 230.1 291.199 228.2C291.099 227.4 289.799 227.1 289.299 227.7C287.799 229.6 287.499 232 288.699 234.1C289.299 235.3 291.299 234.2 290.599 232.9Z" fill="black"/>
<path d="M284.6 219.4C286 215.9 290 214.9 293.1 216.9C294.3 217.7 295.4 215.7 294.2 215C289.8 212.1 284.4 214 282.4 218.8C281.9 220.2 284.1 220.8 284.6 219.4Z" fill="black"/>
<path d="M280 237.4C279.6 237.4 279.1 237.4 278.7 237.4C278.6 237.2 278.6 237 278.5 236.8C278.7 236.1 279 235.9 279.6 236.1C279.7 236.2 279.9 236.4 280 236.5C280 236.5 280 236.5 280 236.4C279.7 235.9 279 235.7 278.5 236C278 236.3 277.8 237 278.1 237.5C278.5 238 279.1 238.3 279.7 238.2C280.3 238 280.8 237.5 280.8 236.8C280.8 235.3 278.7 234.9 278 236.1C277.7 236.6 277.9 237.3 278.4 237.6C279 238.1 279.7 237.9 280 237.4Z" fill="black"/>
<path d="M284.999 242C284.799 242.2 284.499 242.5 284.199 242.7C284.199 242.7 284.199 242.7 284.299 242.7C284.099 242.7 283.899 242.7 283.699 242.7C283.699 242.7 283.599 242.7 283.599 242.6C283.499 242.5 283.299 242.3 283.199 242.2V242.3C283.199 242 283.099 241.7 283.099 241.4C283.199 241.3 283.299 241.2 283.399 241.1C282.899 241.5 282.699 242.1 282.999 242.6C283.299 243.1 284.099 243.4 284.499 243C285.199 242.5 285.699 241.5 284.899 240.8C284.599 240.5 284.099 240.3 283.599 240.5C283.099 240.6 282.899 240.9 282.699 241.4C282.499 242 282.899 242.6 283.499 242.8C284.199 243 284.799 242.6 284.999 242Z" fill="black"/>
<path d="M277.1 242.1C277 242.1 277 242.1 276.9 242.1C275.5 242.1 275.4 244.4 276.9 244.4C277 244.4 277 244.4 277.1 244.4C278.6 244.4 278.6 242.1 277.1 242.1Z" fill="black"/>
<path d="M286.1 256.9C287.7 261.8 290.2 266.2 295.2 268.1C296.5 268.6 297.1 266.5 295.8 265.9C291.7 264.3 289.6 260.2 288.3 256.2C287.8 254.9 285.7 255.5 286.1 256.9Z" fill="black"/>
<path d="M285.8 258.1C286.4 257.2 287.4 256.7 288.6 256.5C289.2 256.4 289.5 255.6 289.4 255.1C289.2 254.4 288.6 254.2 288 254.3C286.3 254.5 284.9 255.5 283.9 256.9C283 258.1 284.9 259.3 285.8 258.1Z" fill="black"/>
<path d="M243.3 245.1C237.2 247.3 233.9 237.9 235 233.5C235.6 231.2 237.2 228.5 239.6 227.8C242.9 226.8 245.9 229.4 248 231.4C249 232.4 250.6 230.8 249.6 229.8C246.9 227.2 243.6 224.7 239.6 225.5C236 226.2 233.8 229.6 232.9 232.9C231.3 239 236.2 250 243.9 247.3C245.3 246.8 244.7 244.6 243.3 245.1Z" fill="black"/>
<path d="M281.5 202.4C280.3 203.8 278.5 206.1 276.4 209.1C268.8 220.2 269.5 224.7 264.2 227.9C260.1 230.4 253.8 231.2 249 229.2C245.4 227.7 244.4 225.4 241.3 225.5C237.9 225.6 234.7 228.4 233.4 231.7C231.8 235.6 233.4 239.2 234.5 241.5C235.5 243.6 236.9 246.7 239.9 247.4C241.8 247.8 243.5 247.1 244.4 246.6C244.3 247.7 244.1 249.4 244 251.5C243.5 260.2 244.5 266.2 244.9 270.1C245.9 279.5 246.8 287 244 294.1C239.7 304.7 229 309.4 225.1 311.1C208.5 318.4 193.1 312.3 191 311.4C187.7 310 171.9 303.5 168 288.7C165.6 279.8 168.3 270.8 169.4 267C169.9 265.4 171.2 261.4 173.8 256.8C179.5 246.6 187.7 240.4 193.4 236.9C195.3 230 198.5 220.1 204.1 208.8C210.4 196 213.9 188.9 221.9 182.3C234.6 171.8 249 170.5 253.7 170.2C256.1 170 267.9 169.3 281.9 175C291.8 179 303.4 183.8 308.2 195.7C313.7 209.6 305.9 223.4 304.4 226C304 224.3 303.2 221.7 301.5 219.2C299 215.5 296.2 214 292 211.1C289.3 209 285.7 206.3 281.5 202.4Z" fill="#5222D0"/>
<path d="M240.3 301.2C244.6 303.7 249.6 304.3 254.4 302.7C256.2 302.1 255.4 299.2 253.6 299.8C249.6 301.1 245.5 300.7 241.8 298.6C240.1 297.7 238.6 300.3 240.3 301.2Z" fill="black"/>
<path opacity="0.14" d="M235.6 241.4C236.4 243.7 238.5 245.3 240.8 245.6C243.3 245.9 245.8 244.7 247.1 242.5C246.6 245.8 246.1 252.5 249.2 259.9C253.4 270.1 261.6 274.9 265.2 277C274 282 282.4 282.3 286.5 282.2C285.6 283.8 283.6 286.4 280.2 288.1C272.1 292.1 263.6 286.7 263.1 286.4C260.9 291.2 258.6 294.7 256.8 297.2C254.3 300.6 253.3 301.4 252.6 301.7C247.8 304.5 241.5 301.6 239.7 300.7C237.7 302.6 234.8 305 231 307.3C227.8 309.2 219.2 314.2 207.3 314.3C207.3 314.3 191.3 314.3 178.4 303.5C173.4 299.3 171.3 295.6 170.7 294.4C170.2 293.4 168.1 289.4 167.6 282.9C166.5 270.4 171.9 259.8 174.9 255C180.3 246.4 187.2 241.3 191.6 238.6C191.3 239.7 187.6 255.2 195.8 262.7C206.1 272 229.4 263.2 234.5 249.8C235.8 246.5 235.8 243.4 235.6 241.4Z" fill="#3D3D3D"/>
<path opacity="0.07" d="M247.799 269.1C246.999 269.5 248.899 274.7 250.699 278.4C253.599 284.5 257.199 289 259.799 291.7C260.499 289.9 261.199 288.1 261.899 286.4C264.199 287.4 268.499 288.8 273.899 288.5C277.499 288.3 280.399 287.4 282.399 286.6C266.999 286.3 259.199 281.6 254.899 277.3C251.399 273.8 248.599 268.7 247.799 269.1Z" fill="#3D3D3D"/>
<path d="M496.2 176.8C494.8 176 494.5 174.1 494.3 172.8C493.6 168.1 497.1 164.3 497.7 163.5C501.4 159.4 503.5 161.5 507 157.7C509.6 154.9 509.4 152.6 513.4 148.9C516 146.4 516.9 146.7 517.1 146.8C518.5 147.4 517.3 150.5 518.7 155.3C519.9 159.3 521.4 159.3 521.9 162.7C522 163.6 522.7 168.1 520 170.7C518.8 171.9 517.2 172.2 513.9 172.8C510.1 173.5 509.6 173.1 507 173.6C500.7 174.8 498.5 178.1 496.2 176.8Z" fill="white"/>
<path d="M495.9 172.6C480.8 188.2 465.7 203.9 450.6 219.5C448.7 221.7 448.6 225 450.3 227.2C452.2 229.6 455.6 230.2 458.3 228.5C473.8 210.5 489.2 192.4 504.7 174.4C501.8 173.8 498.9 173.2 495.9 172.6Z" fill="black"/>
<path d="M441.3 258C441.8 259.3 440.2 262 431.5 267.8C429 267.3 426.9 265.9 426.5 264.1C425.9 261.1 430.2 258.6 432.1 257.7C435.6 256.1 440.6 256.2 441.3 258Z" fill="black"/>
<path d="M265.4 299.2C260 300.4 250.5 302.7 246.1 310.5C243.2 315.6 243.8 321 244 322.9C245 331.4 250.9 338.5 257.6 341.6C265.8 345.3 274.3 342.5 278.6 341C316 328.1 334.7 321.7 342.3 317.9C364.3 306.8 388.8 294.3 416.7 271.1C423.9 265.1 429.6 259.8 433.6 256C435.2 256.9 438.8 258.6 443.1 258.1C446.6 257.7 448.9 256.1 452.3 253.7C454.7 252 457.5 250 460 246.3C462.4 242.8 463.2 239.7 463.9 237.1C464.6 234.2 466 229 464.2 227.9C462.9 227.1 461.5 229.3 458 229.4C457.7 229.4 453.4 229.4 451.5 226.7C449.7 224.2 451.6 221.9 450 219.9C448.3 217.7 443.9 217.9 441.1 218.7C434.6 220.7 431.5 227.9 429.5 231.7C424 242.6 416.1 248.5 401.4 259.6C390 268.2 379.8 272.2 366.1 277.7C360.7 279.9 350.4 283.9 336.8 287.2C313.9 292.6 295.8 292.4 265.4 299.2Z" fill="white"/>
<path d="M249 309.5C259.3 299.2 275.5 298.8 289.1 296.9C305 294.7 320.9 292.3 336.5 288.6C364.2 282.2 391.7 271.5 413.4 252.7C419.1 247.7 424.4 242.2 428.8 235.9C432.8 230.2 440.4 213.4 449.8 221.4C451.3 222.6 453.4 220.5 451.9 219.3C448.3 216.2 443.5 216 439.3 218.1C433.4 221.1 430.7 227.7 427.2 233C418.1 246.8 404.3 257.4 390.1 265.5C360.2 282.5 325.8 288.6 292.2 293.5C277 295.7 258.6 295.9 247 307.4C245.5 308.7 247.6 310.8 249 309.5Z" fill="black"/>
<path d="M246.8 305.9C240.1 317.3 241.4 332.4 252.6 340.5C266 350.2 284.8 341 298.5 336.3C330.8 325.1 361.6 309.9 390.2 291.1C406.1 280.7 421.2 269.1 435.5 256.6C437 255.3 434.8 253.2 433.4 254.5C388.5 293.7 334 324.7 276.2 340.2C266.3 342.9 256 342.3 249.6 333.3C244 325.6 244.7 315.4 249.4 307.5C250.4 305.8 247.8 304.3 246.8 305.9Z" fill="black"/>
<path d="M462.3 225.8C462.8 228.1 463.3 230.6 463.1 233C462.7 236.3 461.1 237.4 459.9 240.1C459.4 241.3 459.3 242.5 458.9 243.7C458.1 246.4 457 247 455.1 248.6C453 250.3 451.8 252.3 450 254.2C447.1 257.3 445.4 256.3 441.8 255.9C439.2 255.6 436.5 255.2 433.9 254.9C432 254.7 432 257.7 433.9 257.9C438.2 258.5 445.5 261 449.5 258.9C451.1 258.1 452 256.6 453 255.2C454.3 253.4 455.5 251.9 457.5 250.9C458.5 250.4 459 250.8 459.9 250C461 249.1 461.3 247.6 461.6 246.3C462.3 243.1 463.3 241 464.7 238.2C466.8 234.1 466.1 229.5 465.2 225.2C464.8 223.1 461.9 223.9 462.3 225.8Z" fill="black"/>
<path d="M450 220.2C447.7 223.6 449.5 228.5 453.1 230.1C457.3 232 462 229.2 464.1 225.5C465.1 223.8 462.5 222.3 461.5 224C460.2 226.3 457.5 228.4 454.8 227.5C452.4 226.8 451.1 223.8 452.6 221.7C453.6 220.1 451 218.6 450 220.2Z" fill="black"/>
<path d="M451.9 221.6C467 205.9 481.9 190 496.6 173.9C497.9 172.5 495.8 170.3 494.5 171.8C479.8 187.9 464.9 203.8 449.8 219.5C448.4 220.8 450.5 223 451.9 221.6Z" fill="black"/>
<path d="M464 224.8C478.4 208.2 492.7 191.6 507.1 175C508.4 173.5 506.2 171.4 505 172.9C490.6 189.5 476.3 206.1 461.9 222.7C460.6 224.2 462.7 226.3 464 224.8Z" fill="black"/>
<path d="M440.1 257.6C438.2 259.5 436.3 261.5 434.4 263.4C433.8 264 432.9 265.3 432.2 265.7C429.7 267 428.4 264.5 427.5 262.9C426.5 261.2 423.9 262.7 424.9 264.4C426.4 266.9 428.9 270.1 432.2 269.1C434 268.6 435.3 266.8 436.5 265.5C438.4 263.6 440.3 261.6 442.2 259.7C443.6 258.3 441.4 256.2 440.1 257.6Z" fill="black"/>
<path d="M506.301 174.6C512.301 177.3 519.601 175.7 522.701 169.5C524.201 166.5 524.301 162.9 523.201 159.8C521.301 154.8 514.401 150.4 520.501 145.2C522.001 143.9 519.801 141.8 518.401 143.1C514.901 146.1 513.901 150.7 516.201 154.7C518.401 158.6 521.901 160.8 520.801 165.9C519.601 171.9 513.201 174.4 507.901 172C506.001 171.2 504.501 173.8 506.301 174.6Z" fill="black"/>
<path d="M496.4 171.3C497 166.9 498.6 164 502.5 161.8C504.5 160.7 506.6 159.8 508.4 158.4C512.1 155.4 513.2 149.9 517.6 147.7C519.3 146.8 517.8 144.3 516.1 145.1C513.6 146.3 512.1 148.2 510.7 150.6C508.5 154.1 506.5 156.4 502.8 158.3C496.8 161.4 494.3 164.5 493.4 171.3C493.2 173.2 496.2 173.2 496.4 171.3Z" fill="black"/>
<path d="M495.9 174.2C498.7 173.1 501.6 173.5 504 175.3C505.5 176.5 507 173.9 505.5 172.7C502.5 170.4 498.5 169.9 495 171.3C493.3 172 494.1 174.9 495.9 174.2Z" fill="black"/>
<path d="M505.8 160.4C509.7 159.1 513.7 159 517.7 160C519.6 160.5 520.4 157.6 518.5 157.1C514 156 509.4 156.1 505 157.5C503.2 158.1 504 161 505.8 160.4Z" fill="#5222D0"/>
<path d="M504.1 160.4C511.4 157.3 513.6 148.8 520.4 145C519.8 144.2 519.2 143.4 518.6 142.6C513.4 147.3 518 153.7 519.3 158.9C520 158.3 520.8 157.8 521.5 157.2C517.7 155.6 513.9 154.9 509.8 155.2C510.2 156 510.7 156.7 511.1 157.5C512.5 154.8 514.2 152.4 516.1 150C515.3 149.5 514.4 149 513.6 148.5C512.8 150.6 511.8 153.2 512.2 155.4C512.3 156 513 156.5 513.6 156.5C516 156.4 516.6 153.1 517.4 151.3C516.5 151 515.5 150.8 514.6 150.5C514.8 152 515.3 153.8 515.1 155.4C515.3 155 515.6 154.5 515.8 154.1C515.1 154.5 512.4 154.2 511.2 154.5C509.2 154.9 507.5 155.6 505.7 156.6C504.4 157.3 505 159.5 506.5 159.4C509 159.2 511.5 158.9 514 158.7C515.9 158.5 515.9 155.5 514 155.7C511.5 155.9 509 156.2 506.5 156.4C506.8 157.3 507 158.3 507.3 159.2C509.4 158.1 511.7 157.3 514.1 157.2C515 157.1 516.4 157.5 517.2 156.9C519 155.6 517.8 152.5 517.6 150.6C517.4 149.3 515.5 148.3 514.8 149.8C514.7 150.1 513.1 153.5 513.6 153.5C514.1 153.9 514.6 154.2 515 154.6C514.7 153.1 515.9 150.6 516.4 149.3C516.9 147.9 514.8 146.7 513.9 147.8C511.8 150.3 510 153 508.4 155.9C507.9 156.8 508.5 158.3 509.7 158.2C513.3 157.9 516.6 158.4 519.9 159.8C521.1 160.3 522.5 159.5 522.1 158.1C521.1 154.1 516.7 148.2 520.6 144.7C521.9 143.5 520.2 141.5 518.8 142.3C512.1 146.1 509.7 154.6 502.5 157.7C500.8 158.6 502.4 161.1 504.1 160.4Z" fill="#5222D0"/>
<path d="M518.7 141.9C514.5 144.5 511.9 148.4 508.8 152.1C506.9 154.4 504.8 155.8 502.7 157.8C501.9 158.5 501.2 158.9 501.2 160C501.2 160.2 501.3 160.5 501.6 160.6C507.9 163.3 514.9 156.1 521.1 161.2C521.5 161.5 522 161.5 522.3 161C524.1 158.4 520.1 155.9 518.6 154.3C518.1 153.8 517.1 154.3 517.3 155C517.6 156 517.5 155.9 518.2 156.7C518.8 157.5 520.1 156.7 519.5 155.9C519.3 155.4 519 155 518.8 154.5C518.4 154.7 518 155 517.5 155.2C518.2 155.9 521.9 158.8 521 160.1C521.4 160 521.8 160 522.2 159.9C520.1 158.2 517.7 157.4 514.9 157.5C513.3 157.6 511.7 157.9 510.1 158.2C508.8 158.5 507.6 158.8 506.3 158.9C504.9 159.1 503.2 159.9 504.3 158C504.9 157 506.7 156.1 507.5 155.3C508.7 154.1 509.8 152.8 510.8 151.4C513.4 148.2 515.8 145 519.3 142.8C520.3 142.7 519.5 141.4 518.7 141.9Z" fill="#5222D0"/>
<path d="M503.3 161.1C506.3 161.5 509.2 160.5 512.2 160.1C514.7 159.8 516.7 160.2 519 161C520.3 161.5 521.1 161.8 522.5 161.6C523 161.5 523.3 161.2 523.2 160.7C523 159.4 522.7 158.7 522 157.6C521.5 156.8 520.2 157.6 520.7 158.4C521.4 159.2 521.7 160.1 521.8 161.1C522 160.8 522.3 160.5 522.5 160.2C519.7 160.5 516.9 158.5 514 158.5C510.6 158.6 507.1 160.2 503.7 159.7C502.7 159.5 502.3 160.9 503.3 161.1Z" fill="#5222D0"/>
<path d="M517.501 144.5C518.001 143.8 518.601 143.2 519.401 142.8C519.601 142.7 520.301 142.2 520.501 142.4C520.801 142.6 520.001 143.2 519.801 143.3C518.601 144.3 517.801 145.6 517.201 147C516.801 147.9 518.301 148.3 518.601 147.4C519.201 146 520.201 145.1 521.301 144C522.001 143.4 522.401 142.5 521.701 141.6C520.201 139.6 517.301 142.2 516.301 143.5C515.801 144.2 516.901 145.3 517.501 144.5Z" fill="#5222D0"/>
<path d="M520.9 141.2C519.2 142.3 518 144 517.5 146C517.3 146.9 518.7 147.3 518.9 146.4C519.3 144.8 520.2 143.5 521.6 142.5C522.5 141.9 521.7 140.6 520.9 141.2Z" fill="#5222D0"/>
<path d="M248 309.3C251.2 303 262.8 300.6 269.2 299.8C271.1 299.5 270.3 296.6 268.4 296.9C261.2 297.9 249.1 300.7 245.4 307.8C244.6 309.5 247.2 311.1 248 309.3Z" fill="black"/>
<path opacity="0.13" d="M244.6 323.8C253.6 323.2 266.7 322 282.2 319C326.6 310.5 358.2 294 377.5 283.8C393.5 275.3 414.7 262.6 438 244.3C448.2 241 454.5 236.5 458.5 232.9C461.2 230.5 463.2 228.1 464.2 228.6C465.8 229.5 463.3 237.8 459.9 243.8C456.9 249.2 453.4 252.3 452.3 253.3C449.5 255.7 447.9 257.4 445.2 258.1C440.2 259.4 435.7 256.7 434.2 255.7C430.5 258.6 425.1 262.9 418.4 268C391.4 288.5 377.8 298.8 359.9 308.6C343.4 317.6 329.6 323 302.7 333.4C300.2 334.4 296.9 335.5 290.3 337.7C272.7 343.6 268.5 344.3 263.6 343.4C261.6 343 256.7 342.1 252.2 338.2C246.3 332.9 245 326.1 244.6 323.8Z" fill="#3D3D3D"/>
<path opacity="0.19" d="M323.9 324.5C323.7 324.2 325.4 322.8 362.9 299C412.3 267.6 408.8 270.4 414 266.6C435.6 250.6 445.2 239.8 450.2 243C453.6 245.2 454.2 253.2 450.5 256.7C447.3 259.8 440.6 259.5 434.6 255.1C422.5 265.9 404.5 280.6 380.8 295.5C352.8 312.8 324.6 325.7 323.9 324.5Z" fill="#3D3D3D"/>
</svg>
